<svg id="Ground_Level" data-name="Ground Level" xmlns="http://www.w3.org/2000/svg" viewBox="0 0 761.844 362.646"><defs><style>.cls-1{fill:#0c343d;}.cls-2{fill:#0056aa;}.cls-3,.cls-4,.cls-5,.cls-7,.cls-8,.cls-9{fill:none;stroke-miterlimit:10;}.cls-3,.cls-4,.cls-5{stroke:#cb7e54;}.cls-3,.cls-4,.cls-5,.cls-9{stroke-width:2px;}.cls-4{stroke-dasharray:5.958 5.958;}.cls-5{stroke-dasharray:6;}.cls-6{fill:#bdbdbd;}.cls-7,.cls-8,.cls-9{stroke:#b4b4b4;}.cls-7{stroke-width:7px;}.cls-8{stroke-width:5px;}.cls-10{fill:#d2e4d8;}.cls-11{fill:#cbffff;}.cls-12{fill:#cff;}</style></defs><g id="Base_Terrain" data-name="Base Terrain"><polygon id="Base_Map_Shape" data-name="Base Map Shape" class="cls-1" points="2.171 300.155 0 276.052 3.404 268.624 0.694 258.288 1.823 229.421 21.926 204.409 22.256 195.971 18.571 187.821 23.835 155.558 8.125 147.827 24.101 57.716 244.495 97.465 245.259 77.924 243.07 54.265 301.307 43.642 315.074 44.181 356.832 0 376.07 19.878 380.418 40.508 408.218 73.619 469.494 64.894 475.385 96.259 534.17 82.989 534.465 75.44 560.414 71.561 554.829 43.766 588.362 39.295 638.869 44.383 641.506 33.811 690.767 36.626 700.825 41.022 722.142 41.855 734.376 36.106 752.907 39.944 752.282 55.932 761.844 61.643 754.306 152.084 745.459 150.849 744.407 166.375 735.108 176.687 727.881 179.518 723.624 186.023 632.127 228.259 623.446 234.147 615.889 245.416 567.124 241.286 562.301 250.883 561.572 269.535 552.311 301.643 529.627 301.646 484.345 299.431 456.419 297.005 446.867 302.414 437.395 317.166 384.125 360.007 357.156 355.84 274.158 328.577 257.75 315.927 229.365 336.612 191.949 349.382 192.542 356.967 178.532 362.646 146.973 350.738 132.307 339.045 99.242 331.526 85.937 330.561 85.944 318.997 64.311 303.473 44.16 295.569 33.807 298.723 32.711 304.017 2.171 300.155"/><polygon id="River" class="cls-2" points="552.311 301.643 561.572 269.535 562.301 250.883 567.124 241.286 568.096 216.416 573.266 197.937 580.324 165.299 589.61 121.184 595.075 95.155 595.838 75.615 588.362 39.295 554.829 43.766 560.414 71.561 563.498 83.691 561.142 109.841 558.567 130.201 550.663 150.352 546.799 169.549 543.923 189.769 543.119 195.425 537.741 219.233 530.732 227.855 533.545 235.526 533.059 247.961 531.72 259.473 531.365 279.919 526.109 300.618 552.311 301.643"/><path id="Lower_Land_Bridge" data-name="Lower Land Bridge" class="cls-1" d="M569.908,129.77l12.965-1.717,5.947-4.216,4.563-2.935,9.188,5.252c2.2-.907,2.865-10.56,3.428-20.771l-10.9,5.8-9.971-6.617-13.356-.522Z" transform="translate(-9.071 -23.499)"/><polygon id="Upper_Land_Bridge" data-name="Upper Land Bridge" class="cls-1" points="553.235 181.281 543.923 189.769 546.994 168.111 555.958 164.959 568.164 168.438 573.389 171.311 580.046 169.57 575.815 190.337 566.744 185.562 565.774 180.52 556.707 179.916 553.235 181.281"/></g><g id="Railway"><path class="cls-3" d="M154.535,373.034q1.088-1.056,2.142-2.1" transform="translate(-9.071 -23.499)"/><path class="cls-4" d="M160.87,366.7a238.479,238.479,0,0,0,32.078-40.5c4.081-6.579,10.414-17.635,23.116-28.119,6.786-5.6,7.1-4.2,19.173-12.594,14.47-10.063,25.384-17.812,32.893-30.739,3.808-6.557,5.465-12.252,7.057-18.4,12.182-47.088,7.138-69.212,19.43-95.981,1.466-3.191,3.51-7.171,25.336-33.7,20.97-25.49,39.934-47.162,55.653-64.565" transform="translate(-9.071 -23.499)"/><path class="cls-3" d="M377.6,39.886q1.017-1.122,2.014-2.219" transform="translate(-9.071 -23.499)"/><path class="cls-5" d="M48.637,92.382c30.939,4.92,55.837,9.243,72.246,12.165,35.645,6.345,71.44,11.855,107.025,18.527,12.508,2.345,25.56,1.765,37.828,5.148,3.622,1,10.206,3,17.973,1.036a31.3,31.3,0,0,0,13.649-7.806c22.722-20.909,45.011-50.614,45.011-50.614a353.7,353.7,0,0,1,32.817-37.747" transform="translate(-9.071 -23.499)"/><path class="cls-5" d="M349.5,195.545c-2.145-10.131-5.251-24.9-8.992-43.051-3.255-15.788-4.726-23.147-5.36-33.568a161.194,161.194,0,0,1,.773-28.325" transform="translate(-9.071 -23.499)"/><path class="cls-5" d="M616.5,268.2q3.231-56.013,7.083-111.978,3.1-45.079,6.606-90.127" transform="translate(-9.071 -23.499)"/></g><g id="Pavement"><polygon class="cls-6" points="668.019 180.514 639.823 193.517 621.833 184.38 627.781 74.862 653.761 75.877 649.492 142.428 672.449 143.992 671.108 178.299 668.019 180.514"/><polygon class="cls-6" points="694.317 164.862 732.338 148.001 735.172 143.775 737.697 79.158 695.063 77.491 691.652 164.758 694.317 164.862"/><polygon class="cls-6" points="684.99 62.086 638.692 60.277 639.721 33.963 685.996 36.353 684.99 62.086"/><polygon class="cls-6" points="352.578 151.505 384.109 147.066 388.508 171.054 355.611 176.309 352.578 151.505"/><polygon class="cls-6" points="464.532 112.181 425.531 119.997 421.61 100.829 460.317 92.001 464.532 112.181"/><polygon class="cls-6" points="448.425 199.952 393.114 189.784 389.087 215.98 442.734 226.083 448.425 199.952"/><polygon class="cls-6" points="324.402 138.395 288.755 128.662 293.226 108.154 325.274 116.078 328.732 138.564 324.402 138.395"/><polygon class="cls-6" points="284.457 76.454 251.81 83.851 247.959 54.345 279.914 47.588 284.457 76.454"/><polygon class="cls-6" points="365.208 297.777 337.031 293.228 332.714 326.863 348.29 329.473 350.627 320.891 360.901 322.627 365.208 297.777"/><polygon class="cls-6" points="215.23 234.537 179.492 227.136 185.431 194.676 221.117 203.41 215.23 234.537"/><polygon class="cls-6" points="261.157 194.634 167.187 174.949 176.429 126.273 244.548 141.612 240.111 169.793 264.884 176.099 261.157 194.634"/><polygon class="cls-6" points="125.343 118.939 110.354 118.353 115.445 90.53 130.329 93.781 125.343 118.939"/><polygon class="cls-6" points="306.055 202.393 324.162 204.269 324.971 183.562 310.075 180.629 306.055 202.393"/><polygon class="cls-6" points="373.636 214.042 334.416 206.504 331.127 179.689 375.233 173.175 375.599 185.541 373.636 214.042"/><polygon class="cls-6" points="134.482 289.092 145.374 292.075 148.865 282.426 155.514 274.458 148.253 263.944 135.524 262.446 133.553 273.043 129.317 278.994 134.482 289.092"/></g><g id="Roads"><path class="cls-7" d="M766.137,85.066c-5.977,43.876-6.285,64.529-4.928,74.865a22.939,22.939,0,0,1-1.122,11.632c-4.224,10.858-16.839,15.24-21.341,16.846-40.707,14.514-114.38,50.236-114.383,50.237h0a105.359,105.359,0,0,1-13.721,1.132c-8.726.148-14.921-.837-25.582-2.668-15.625-2.683-31.73-2.682-47.115-6.512-2.215-.551-7.19-1.85-11.7.544-4.152,2.206-5.846,6.454-7.039,9.4-9.967,24.615-7.79,14.724-10.648,24.936-6.49,23.183-10.846,49.627-11.86,55.913" transform="translate(-9.071 -23.499)"/><path class="cls-7" d="M506.8,267.744c-8-1.752-20.294-4.335-35.418-7.056-16.154-2.9-24.744-4.026-41.773-6.636-27.862-4.271-27.531-4.745-62.972-10.468-32.705-5.28-31.558-4.646-57.7-8.926-25.7-4.209-26.524-4.776-65.265-11.558-26.868-4.7-47.59-8.129-79.868-13.463-38.958-6.439-42.106-6.786-60.987-10.057-30.012-5.2-54.331-9.911-70.21-13.085" transform="translate(-9.071 -23.499)"/><path class="cls-8" d="M98.469,200.077a32.685,32.685,0,0,1-5.354,17.471c-3.069,4.464-5.708,5.5-11.741,10.216C75.429,232.409,70,238.355,59.146,250.247c-7.6,8.328-11.4,12.493-13.974,16.133a98.564,98.564,0,0,0-14.149,29.136,94.057,94.057,0,0,0-3.516,30.219" transform="translate(-9.071 -23.499)"/><path class="cls-8" d="M21.635,168.719c28.733,5.008,51.862,9.2,66.917,11.956,29.948,5.486,46.23,8.651,90.077,16.865,26.809,5.022,48.34,9.011,61.268,11.4" transform="translate(-9.071 -23.499)"/><path class="cls-8" d="M240.068,221.624c.468-2.624,1.2-6.668,2.121-11.592,3.548-18.912,5.332-26.141,8.662-42.361,1.28-6.237,6.3-30.928,11.453-62.6.571-3.51,1.028-6.4,1.325-8.288" transform="translate(-9.071 -23.499)"/><path class="cls-8" d="M28.283,169.313c2.365-22.573,4.673-39.442,5.82-46.475,2.236-13.709,3.534-11.318,3.635-16.2a5.252,5.252,0,0,1,1.143-3.625c2.265-2.406,7.285-1.021,8.7-.66,7.207,1.837,37.389,6.775,79.868,13.463" transform="translate(-9.071 -23.499)"/><path class="cls-8" d="M489.255,264.389c4.987-13.28,9.284-24.006,12.228-31.213,6.026-14.749,12.2-28.993,19.619-49.6,4.026-11.184,6.205-18.1,7.076-27.411.719-7.679.312-14.475-.14-22.022-.557-9.323-1.562-17.11-2.445-22.78" transform="translate(-9.071 -23.499)"/><path class="cls-8" d="M383.177,247.233l-11.745,78.6" transform="translate(-9.071 -23.499)"/><path class="cls-8" d="M472.709,90.277c2.98,23.886,5.2,34.7,6.778,39.962,1.346,4.491,1.518,9.275,2.8,13.786.621,2.19,1.372,4.512.393,7.021a9.656,9.656,0,0,1-4.859,4.814,13.33,13.33,0,0,1-6.38,1.085c-.615,0-13.063.035-17.222,5.331-1.8,2.291-1.486,5.44-.788,11.645,1.5,13.344,6.159,17.212,3.444,22.818-1.937,4-6.668,6.9-6.948,7.068-2.59,1.555-3.809,1.419-5.433,2.456-2.438,1.558-4.923,5.207-4.9,14.486" transform="translate(-9.071 -23.499)"/><path class="cls-8" d="M765.452,94.046q-20.584-1.758-41.57-3.292-36.306-2.652-71.547-4.465" transform="translate(-9.071 -23.499)"/><path class="cls-9" d="M59.342,253.757C69,259.6,79.278,265.428,90.187,271.141c7.9,4.137,11.866,6.167,16.521,8.319,11.863,5.483,17.638,7.124,25.857,12.686a79.36,79.36,0,0,1,9.866,7.891" transform="translate(-9.071 -23.499)"/></g><g id="Buildings"><g id="Garages"><rect class="cls-10" x="721.449" y="140.865" width="24.541" height="10.917" transform="translate(549.781 850.269) rotate(-87.762)"/><rect class="cls-10" x="700.27" y="141.898" width="29.604" height="12.458" transform="translate(530.059 833.37) rotate(-87.762)"/><rect class="cls-10" x="722.349" y="110.507" width="25.113" height="10.917" transform="translate(581.256 822.283) rotate(-87.762)"/><rect class="cls-10" x="704.659" y="107.568" width="25.113" height="10.917" transform="translate(567.193 801.782) rotate(-87.762)"/><rect class="cls-10" x="660.651" y="138.632" width="78.597" height="5.458" transform="translate(522.288 811.757) rotate(-87.762)"/><rect class="cls-10" x="716.001" y="129.752" width="64.415" height="5.458" transform="matrix(0.039, -0.999, 0.999, 0.039, 577.535, 851.446)"/><rect class="cls-10" x="727.806" y="76.389" width="6.52" height="37.188" transform="matrix(0.039, -0.999, 0.999, 0.039, 598.533, 798.283)"/><rect class="cls-10" x="698.143" y="176.03" width="48.347" height="5.608" transform="translate(-23.014 263.248) rotate(-22.244)"/><rect class="cls-10" x="497.134" y="131.634" width="7.68" height="17.41" transform="translate(-18.901 18.104) rotate(-4.709)"/><rect class="cls-10" x="509.884" y="139.599" width="6.956" height="15.604" transform="translate(-26.073 60.807) rotate(-9.236)"/><rect class="cls-10" x="123.48" y="257.142" width="4.889" height="11.556" transform="translate(-163.774 318.365) rotate(-80.12)"/><rect class="cls-10" x="477.081" y="308.564" width="11.556" height="4.889" transform="translate(84.541 709.843) rotate(-80.12)"/><rect class="cls-10" x="137.742" y="296.769" width="9.46" height="4.436" transform="translate(-196.139 308.579) rotate(-70.255)"/><rect class="cls-10" x="721.449" y="140.865" width="24.541" height="10.917" transform="translate(549.781 850.269) rotate(-87.762)"/><rect class="cls-10" x="700.27" y="141.898" width="29.604" height="12.458" transform="translate(530.059 833.37) rotate(-87.762)"/><rect class="cls-10" x="722.349" y="110.507" width="25.113" height="10.917" transform="translate(581.256 822.283) rotate(-87.762)"/><rect class="cls-10" x="704.659" y="107.568" width="25.113" height="10.917" transform="translate(567.193 801.782) rotate(-87.762)"/><rect class="cls-10" x="660.651" y="138.632" width="78.597" height="5.458" transform="translate(522.288 811.757) rotate(-87.762)"/><rect class="cls-10" x="716.001" y="129.752" width="64.415" height="5.458" transform="matrix(0.039, -0.999, 0.999, 0.039, 577.535, 851.446)"/><rect class="cls-10" x="727.806" y="76.389" width="6.52" height="37.188" transform="matrix(0.039, -0.999, 0.999, 0.039, 598.533, 798.283)"/><rect class="cls-10" x="698.143" y="176.03" width="48.347" height="5.608" transform="translate(-23.014 263.248) rotate(-22.244)"/><rect class="cls-10" x="497.134" y="131.634" width="7.68" height="17.41" transform="translate(-18.901 18.104) rotate(-4.709)"/><rect class="cls-10" x="509.884" y="139.599" width="6.956" height="15.604" transform="translate(-26.073 60.807) rotate(-9.236)"/><rect class="cls-10" x="123.48" y="257.142" width="4.889" height="11.556" transform="translate(-163.774 318.365) rotate(-80.12)"/><rect class="cls-10" x="477.081" y="308.564" width="11.556" height="4.889" transform="translate(84.541 709.843) rotate(-80.12)"/><rect class="cls-10" x="137.742" y="296.769" width="9.46" height="4.436" transform="translate(-196.139 308.579) rotate(-70.255)"/><rect class="cls-10" x="721.449" y="140.865" width="24.541" height="10.917" transform="translate(549.781 850.269) rotate(-87.762)"/><rect class="cls-10" x="700.27" y="141.898" width="29.604" height="12.458" transform="translate(530.059 833.37) rotate(-87.762)"/><rect class="cls-10" x="722.349" y="110.507" width="25.113" height="10.917" transform="translate(581.256 822.283) rotate(-87.762)"/><rect class="cls-10" x="704.659" y="107.568" width="25.113" height="10.917" transform="translate(567.193 801.782) rotate(-87.762)"/><rect class="cls-10" x="660.651" y="138.632" width="78.597" height="5.458" transform="translate(522.288 811.757) rotate(-87.762)"/><rect class="cls-10" x="716.001" y="129.752" width="64.415" height="5.458" transform="matrix(0.039, -0.999, 0.999, 0.039, 577.535, 851.446)"/><rect class="cls-10" x="727.806" y="76.389" width="6.52" height="37.188" transform="matrix(0.039, -0.999, 0.999, 0.039, 598.533, 798.283)"/><rect class="cls-10" x="698.143" y="176.03" width="48.347" height="5.608" transform="translate(-23.014 263.248) rotate(-22.244)"/><rect class="cls-10" x="497.134" y="131.634" width="7.68" height="17.41" transform="translate(-18.901 18.104) rotate(-4.709)"/><rect class="cls-10" x="509.884" y="139.599" width="6.956" height="15.604" transform="translate(-26.073 60.807) rotate(-9.236)"/><rect class="cls-10" x="123.48" y="257.142" width="4.889" height="11.556" transform="translate(-163.774 318.365) rotate(-80.12)"/><rect class="cls-10" x="477.081" y="308.564" width="11.556" height="4.889" transform="translate(84.541 709.843) rotate(-80.12)"/><rect class="cls-10" x="137.742" y="296.769" width="9.46" height="4.436" transform="translate(-196.139 308.579) rotate(-70.255)"/></g><g id="Big_Buildings" data-name="Big Buildings"><rect class="cls-10" x="360.408" y="101.989" width="23.484" height="46.411" transform="matrix(0.987, -0.161, 0.161, 0.987, -24.34, 37.855)"/><rect class="cls-10" x="279.493" y="175.082" width="61.853" height="24.193" transform="translate(50.872 425.706) rotate(-77.38)"/><rect class="cls-10" x="240.381" y="162.167" width="52.306" height="21.298" transform="translate(41.477 382.246) rotate(-80.12)"/><rect class="cls-10" x="213.131" y="125.862" width="26.698" height="41.685" transform="translate(34.019 321.155) rotate(-80.12)"/><rect class="cls-10" x="146.225" y="160.212" width="31.587" height="17.971" transform="translate(-41.541 276.282) rotate(-80.12)"/><rect class="cls-10" x="419.043" y="169.49" width="29.333" height="25.667" transform="matrix(0.987, -0.161, 0.161, 0.987, -32.711, 48.476)"/><rect class="cls-10" x="404.891" y="172.645" width="14.5" height="11.333" transform="translate(-37.269 66.741) rotate(-12.085)"/><rect class="cls-10" x="647.127" y="131.614" width="46.112" height="24.5" transform="translate(491.183 784.419) rotate(-87.762)"/><rect class="cls-10" x="484.882" y="157.013" width="9.766" height="13.386" transform="translate(-28.996 57.231) rotate(-9.236)"/><rect class="cls-10" x="477.681" y="170.112" width="19.532" height="19.532" transform="translate(-31.622 57.069) rotate(-9.236)"/><rect class="cls-10" x="59.996" y="105.464" width="11.484" height="19.362" transform="translate(-68.05 136.652) rotate(-80.12)"/><rect class="cls-10" x="97.649" y="107.311" width="16.566" height="32.778" transform="matrix(0.172, -0.985, 0.985, 0.172, -43.18, 183.337)"/><rect class="cls-10" x="79.054" y="153.36" width="31.587" height="14.227" transform="translate(-88.591 202.881) rotate(-80.12)"/><rect class="cls-10" x="368.056" y="328.857" width="21.371" height="13.167" transform="translate(-0.43 656.891) rotate(-84.516)"/><rect class="cls-10" x="460.003" y="169.157" width="17.998" height="27.499" transform="translate(-32.347 54.148) rotate(-9.236)"/><rect class="cls-10" x="362.582" y="340.15" width="15.657" height="26.333" transform="translate(-25.759 664.768) rotate(-84.516)"/><rect class="cls-10" x="350.649" y="202.55" width="21.519" height="32.07" transform="translate(74.982 513.629) rotate(-80.12)"/><rect class="cls-10" x="360.408" y="101.989" width="23.484" height="46.411" transform="matrix(0.987, -0.161, 0.161, 0.987, -24.34, 37.855)"/><rect class="cls-10" x="279.493" y="175.082" width="61.853" height="24.193" transform="translate(50.872 425.706) rotate(-77.38)"/><rect class="cls-10" x="240.381" y="162.167" width="52.306" height="21.298" transform="translate(41.477 382.246) rotate(-80.12)"/><rect class="cls-10" x="213.131" y="125.862" width="26.698" height="41.685" transform="translate(34.019 321.155) rotate(-80.12)"/><rect class="cls-10" x="146.225" y="160.212" width="31.587" height="17.971" transform="translate(-41.541 276.282) rotate(-80.12)"/><rect class="cls-10" x="419.043" y="169.49" width="29.333" height="25.667" transform="matrix(0.987, -0.161, 0.161, 0.987, -32.711, 48.476)"/><rect class="cls-10" x="404.891" y="172.645" width="14.5" height="11.333" transform="translate(-37.269 66.741) rotate(-12.085)"/><rect class="cls-10" x="647.127" y="131.614" width="46.112" height="24.5" transform="translate(491.183 784.419) rotate(-87.762)"/><rect class="cls-10" x="484.882" y="157.013" width="9.766" height="13.386" transform="translate(-28.996 57.231) rotate(-9.236)"/><rect class="cls-10" x="477.681" y="170.112" width="19.532" height="19.532" transform="translate(-31.622 57.069) rotate(-9.236)"/><rect class="cls-10" x="59.996" y="105.464" width="11.484" height="19.362" transform="translate(-68.05 136.652) rotate(-80.12)"/><rect class="cls-10" x="97.649" y="107.311" width="16.566" height="32.778" transform="matrix(0.172, -0.985, 0.985, 0.172, -43.18, 183.337)"/><rect class="cls-10" x="79.054" y="153.36" width="31.587" height="14.227" transform="translate(-88.591 202.881) rotate(-80.12)"/><rect class="cls-10" x="368.056" y="328.857" width="21.371" height="13.167" transform="translate(-0.43 656.891) rotate(-84.516)"/><rect class="cls-10" x="460.003" y="169.157" width="17.998" height="27.499" transform="translate(-32.347 54.148) rotate(-9.236)"/><rect class="cls-10" x="362.582" y="340.15" width="15.657" height="26.333" transform="translate(-25.759 664.768) rotate(-84.516)"/><rect class="cls-10" x="350.649" y="202.55" width="21.519" height="32.07" transform="translate(74.982 513.629) rotate(-80.12)"/><rect class="cls-10" x="360.408" y="101.989" width="23.484" height="46.411" transform="matrix(0.987, -0.161, 0.161, 0.987, -24.34, 37.855)"/><rect class="cls-10" x="279.493" y="175.082" width="61.853" height="24.193" transform="translate(50.872 425.706) rotate(-77.38)"/><rect class="cls-10" x="240.381" y="162.167" width="52.306" height="21.298" transform="translate(41.477 382.246) rotate(-80.12)"/><rect class="cls-10" x="213.131" y="125.862" width="26.698" height="41.685" transform="translate(34.019 321.155) rotate(-80.12)"/><rect class="cls-10" x="146.225" y="160.212" width="31.587" height="17.971" transform="translate(-41.541 276.282) rotate(-80.12)"/><rect class="cls-10" x="419.043" y="169.49" width="29.333" height="25.667" transform="matrix(0.987, -0.161, 0.161, 0.987, -32.711, 48.476)"/><rect class="cls-10" x="404.891" y="172.645" width="14.5" height="11.333" transform="translate(-37.269 66.741) rotate(-12.085)"/><rect class="cls-10" x="647.127" y="131.614" width="46.112" height="24.5" transform="translate(491.183 784.419) rotate(-87.762)"/><rect class="cls-10" x="484.882" y="157.013" width="9.766" height="13.386" transform="translate(-28.996 57.231) rotate(-9.236)"/><rect class="cls-10" x="477.681" y="170.112" width="19.532" height="19.532" transform="translate(-31.622 57.069) rotate(-9.236)"/><rect class="cls-10" x="59.996" y="105.464" width="11.484" height="19.362" transform="translate(-68.05 136.652) rotate(-80.12)"/><rect class="cls-10" x="97.649" y="107.311" width="16.566" height="32.778" transform="matrix(0.172, -0.985, 0.985, 0.172, -43.18, 183.337)"/><rect class="cls-10" x="79.054" y="153.36" width="31.587" height="14.227" transform="translate(-88.591 202.881) rotate(-80.12)"/><rect class="cls-10" x="368.056" y="328.857" width="21.371" height="13.167" transform="translate(-0.43 656.891) rotate(-84.516)"/><rect class="cls-10" x="460.003" y="169.157" width="17.998" height="27.499" transform="translate(-32.347 54.148) rotate(-9.236)"/><rect class="cls-10" x="362.582" y="340.15" width="15.657" height="26.333" transform="translate(-25.759 664.768) rotate(-84.516)"/><rect class="cls-10" x="350.649" y="202.55" width="21.519" height="32.07" transform="translate(74.982 513.629) rotate(-80.12)"/></g><g id="Small_Buildings" data-name="Small Buildings"><rect class="cls-10" x="80.897" y="211.389" width="8.006" height="8.006" transform="translate(-153.403 159.416) rotate(-60.423)"/><rect class="cls-10" x="596.997" y="226.996" width="8.176" height="8.176" transform="translate(337.631 799.187) rotate(-87.762)"/><rect class="cls-10" x="494.828" y="253.831" width="8.176" height="8.176" transform="translate(150.145 681.683) rotate(-80.12)"/><rect class="cls-10" x="449.629" y="97.63" width="11.834" height="17.933" transform="matrix(0.987, -0.161, 0.161, 0.987, -20.274, 50.999)"/><rect class="cls-10" x="194.209" y="230.803" width="19.66" height="13.167" transform="translate(-60.832 394.305) rotate(-84.516)"/><rect class="cls-10" x="322.16" y="321.787" width="33.329" height="13.167" transform="translate(-29.495 610.764) rotate(-84.516)"/><rect class="cls-10" x="425.82" y="218.551" width="16.667" height="30.333" transform="translate(120.337 597.832) rotate(-80.12)"/><rect class="cls-10" x="80.897" y="211.389" width="8.006" height="8.006" transform="translate(-153.403 159.416) rotate(-60.423)"/><rect class="cls-10" x="596.997" y="226.996" width="8.176" height="8.176" transform="translate(337.631 799.187) rotate(-87.762)"/><rect class="cls-10" x="494.828" y="253.831" width="8.176" height="8.176" transform="translate(150.145 681.683) rotate(-80.12)"/><rect class="cls-10" x="449.629" y="97.63" width="11.834" height="17.933" transform="matrix(0.987, -0.161, 0.161, 0.987, -20.274, 50.999)"/><rect class="cls-10" x="194.209" y="230.803" width="19.66" height="13.167" transform="translate(-60.832 394.305) rotate(-84.516)"/><rect class="cls-10" x="322.16" y="321.787" width="33.329" height="13.167" transform="translate(-29.495 610.764) rotate(-84.516)"/><rect class="cls-10" x="425.82" y="218.551" width="16.667" height="30.333" transform="translate(120.337 597.832) rotate(-80.12)"/><rect class="cls-10" x="80.897" y="211.389" width="8.006" height="8.006" transform="translate(-153.403 159.416) rotate(-60.423)"/><rect class="cls-10" x="596.997" y="226.996" width="8.176" height="8.176" transform="translate(337.631 799.187) rotate(-87.762)"/><rect class="cls-10" x="494.828" y="253.831" width="8.176" height="8.176" transform="translate(150.145 681.683) rotate(-80.12)"/><rect class="cls-10" x="449.629" y="97.63" width="11.834" height="17.933" transform="matrix(0.987, -0.161, 0.161, 0.987, -20.274, 50.999)"/><rect class="cls-10" x="194.209" y="230.803" width="19.66" height="13.167" transform="translate(-60.832 394.305) rotate(-84.516)"/><rect class="cls-10" x="322.16" y="321.787" width="33.329" height="13.167" transform="translate(-29.495 610.764) rotate(-84.516)"/><rect class="cls-10" x="425.82" y="218.551" width="16.667" height="30.333" transform="translate(120.337 597.832) rotate(-80.12)"/></g><g id="Garages-2" data-name="Garages"><rect class="cls-11" x="721.449" y="140.865" width="24.541" height="10.917" transform="translate(549.781 850.269) rotate(-87.762)"/><rect class="cls-11" x="700.27" y="141.898" width="29.604" height="12.458" transform="translate(530.059 833.37) rotate(-87.762)"/><rect class="cls-11" x="722.349" y="110.507" width="25.113" height="10.917" transform="translate(581.256 822.283) rotate(-87.762)"/><rect class="cls-11" x="704.659" y="107.568" width="25.113" height="10.917" transform="translate(567.193 801.782) rotate(-87.762)"/><rect class="cls-11" x="660.651" y="138.632" width="78.597" height="5.458" transform="translate(522.288 811.757) rotate(-87.762)"/><rect class="cls-11" x="716.001" y="129.752" width="64.415" height="5.458" transform="matrix(0.039, -0.999, 0.999, 0.039, 577.535, 851.446)"/><rect class="cls-11" x="727.806" y="76.389" width="6.52" height="37.188" transform="matrix(0.039, -0.999, 0.999, 0.039, 598.533, 798.283)"/><rect class="cls-11" x="698.143" y="176.03" width="48.347" height="5.608" transform="translate(-23.014 263.248) rotate(-22.244)"/><rect class="cls-11" x="497.134" y="131.634" width="7.68" height="17.41" transform="translate(-18.901 18.104) rotate(-4.709)"/><rect class="cls-11" x="509.884" y="139.599" width="6.956" height="15.604" transform="translate(-26.073 60.807) rotate(-9.236)"/><rect class="cls-11" x="123.48" y="257.142" width="4.889" height="11.556" transform="translate(-163.774 318.365) rotate(-80.12)"/><rect class="cls-11" x="477.081" y="308.564" width="11.556" height="4.889" transform="translate(84.541 709.843) rotate(-80.12)"/><rect class="cls-11" x="137.742" y="296.769" width="9.46" height="4.436" transform="translate(-196.139 308.579) rotate(-70.255)"/><rect class="cls-12" x="721.449" y="140.865" width="24.541" height="10.917" transform="translate(549.781 850.269) rotate(-87.762)"/><rect class="cls-12" x="700.27" y="141.898" width="29.604" height="12.458" transform="translate(530.059 833.37) rotate(-87.762)"/><rect class="cls-12" x="722.349" y="110.507" width="25.113" height="10.917" transform="translate(581.256 822.283) rotate(-87.762)"/><rect class="cls-12" x="704.659" y="107.568" width="25.113" height="10.917" transform="translate(567.193 801.782) rotate(-87.762)"/><rect class="cls-12" x="660.651" y="138.632" width="78.597" height="5.458" transform="translate(522.288 811.757) rotate(-87.762)"/><rect class="cls-12" x="716.001" y="129.752" width="64.415" height="5.458" transform="matrix(0.039, -0.999, 0.999, 0.039, 577.535, 851.446)"/><rect class="cls-12" x="727.806" y="76.389" width="6.52" height="37.188" transform="matrix(0.039, -0.999, 0.999, 0.039, 598.533, 798.283)"/><rect class="cls-12" x="698.143" y="176.03" width="48.347" height="5.608" transform="translate(-23.014 263.248) rotate(-22.244)"/><rect class="cls-12" x="497.134" y="131.634" width="7.68" height="17.41" transform="translate(-18.901 18.104) rotate(-4.709)"/><rect class="cls-12" x="509.884" y="139.599" width="6.956" height="15.604" transform="translate(-26.073 60.807) rotate(-9.236)"/><rect class="cls-12" x="123.48" y="257.142" width="4.889" height="11.556" transform="translate(-163.774 318.365) rotate(-80.12)"/><rect class="cls-12" x="477.081" y="308.564" width="11.556" height="4.889" transform="translate(84.541 709.843) rotate(-80.12)"/><rect class="cls-12" x="137.742" y="296.769" width="9.46" height="4.436" transform="translate(-196.139 308.579) rotate(-70.255)"/></g><g id="Big_Buildings-2" data-name="Big Buildings"><rect class="cls-11" x="360.408" y="101.989" width="23.484" height="46.411" transform="matrix(0.987, -0.161, 0.161, 0.987, -24.34, 37.855)"/><rect class="cls-11" x="279.493" y="175.082" width="61.853" height="24.193" transform="translate(50.872 425.706) rotate(-77.38)"/><rect class="cls-11" x="240.381" y="162.167" width="52.306" height="21.298" transform="translate(41.477 382.246) rotate(-80.12)"/><rect class="cls-11" x="213.131" y="125.862" width="26.698" height="41.685" transform="translate(34.019 321.155) rotate(-80.12)"/><rect class="cls-11" x="146.225" y="160.212" width="31.587" height="17.971" transform="translate(-41.541 276.282) rotate(-80.12)"/><rect class="cls-11" x="419.043" y="169.49" width="29.333" height="25.667" transform="matrix(0.987, -0.161, 0.161, 0.987, -32.711, 48.476)"/><rect class="cls-11" x="404.891" y="172.645" width="14.5" height="11.333" transform="translate(-37.269 66.741) rotate(-12.085)"/><rect class="cls-11" x="647.127" y="131.614" width="46.112" height="24.5" transform="translate(491.183 784.419) rotate(-87.762)"/><rect class="cls-11" x="484.882" y="157.013" width="9.766" height="13.386" transform="translate(-28.996 57.231) rotate(-9.236)"/><rect class="cls-11" x="477.681" y="170.112" width="19.532" height="19.532" transform="translate(-31.622 57.069) rotate(-9.236)"/><rect class="cls-11" x="59.996" y="105.464" width="11.484" height="19.362" transform="translate(-68.05 136.652) rotate(-80.12)"/><rect class="cls-11" x="97.649" y="107.311" width="16.566" height="32.778" transform="matrix(0.172, -0.985, 0.985, 0.172, -43.18, 183.337)"/><rect class="cls-11" x="79.054" y="153.36" width="31.587" height="14.227" transform="translate(-88.591 202.881) rotate(-80.12)"/><rect class="cls-11" x="368.056" y="328.857" width="21.371" height="13.167" transform="translate(-0.43 656.891) rotate(-84.516)"/><rect class="cls-11" x="460.003" y="169.157" width="17.998" height="27.499" transform="translate(-32.347 54.148) rotate(-9.236)"/><rect class="cls-11" x="362.582" y="340.15" width="15.657" height="26.333" transform="translate(-25.759 664.768) rotate(-84.516)"/><rect class="cls-11" x="350.649" y="202.55" width="21.519" height="32.07" transform="translate(74.982 513.629) rotate(-80.12)"/><rect class="cls-11" x="360.408" y="101.989" width="23.484" height="46.411" transform="matrix(0.987, -0.161, 0.161, 0.987, -24.34, 37.855)"/><rect class="cls-12" x="279.493" y="175.082" width="61.853" height="24.193" transform="translate(50.872 425.706) rotate(-77.38)"/><rect class="cls-12" x="240.381" y="162.167" width="52.306" height="21.298" transform="translate(41.477 382.246) rotate(-80.12)"/><rect class="cls-12" x="213.131" y="125.862" width="26.698" height="41.685" transform="translate(34.019 321.155) rotate(-80.12)"/><rect class="cls-12" x="146.225" y="160.212" width="31.587" height="17.971" transform="translate(-41.541 276.282) rotate(-80.12)"/><rect class="cls-11" x="419.043" y="169.49" width="29.333" height="25.667" transform="matrix(0.987, -0.161, 0.161, 0.987, -32.711, 48.476)"/><rect class="cls-11" x="404.891" y="172.645" width="14.5" height="11.333" transform="translate(-37.269 66.741) rotate(-12.085)"/><rect class="cls-12" x="647.127" y="131.614" width="46.112" height="24.5" transform="translate(491.183 784.419) rotate(-87.762)"/><rect class="cls-12" x="484.882" y="157.013" width="9.766" height="13.386" transform="translate(-28.996 57.231) rotate(-9.236)"/><rect class="cls-12" x="477.681" y="170.112" width="19.532" height="19.532" transform="translate(-31.622 57.069) rotate(-9.236)"/><rect class="cls-12" x="59.996" y="105.464" width="11.484" height="19.362" transform="translate(-68.05 136.652) rotate(-80.12)"/><rect class="cls-12" x="97.649" y="107.311" width="16.566" height="32.778" transform="matrix(0.172, -0.985, 0.985, 0.172, -43.18, 183.337)"/><rect class="cls-12" x="79.054" y="153.36" width="31.587" height="14.227" transform="translate(-88.591 202.881) rotate(-80.12)"/><rect class="cls-12" x="368.056" y="328.857" width="21.371" height="13.167" transform="translate(-0.43 656.891) rotate(-84.516)"/><rect class="cls-12" x="460.003" y="169.157" width="17.998" height="27.499" transform="translate(-32.347 54.148) rotate(-9.236)"/><rect class="cls-12" x="362.582" y="340.15" width="15.657" height="26.333" transform="translate(-25.759 664.768) rotate(-84.516)"/><rect class="cls-11" x="350.649" y="202.55" width="21.519" height="32.07" transform="translate(74.982 513.629) rotate(-80.12)"/></g><g id="Small_Buildings-2" data-name="Small Buildings"><rect class="cls-11" x="80.897" y="211.389" width="8.006" height="8.006" transform="translate(-153.403 159.416) rotate(-60.423)"/><rect class="cls-11" x="596.997" y="226.996" width="8.176" height="8.176" transform="translate(337.631 799.187) rotate(-87.762)"/><rect class="cls-11" x="494.828" y="253.831" width="8.176" height="8.176" transform="translate(150.145 681.683) rotate(-80.12)"/><rect class="cls-11" x="449.629" y="97.63" width="11.834" height="17.933" transform="matrix(0.987, -0.161, 0.161, 0.987, -20.274, 50.999)"/><rect class="cls-11" x="194.209" y="230.803" width="19.66" height="13.167" transform="translate(-60.832 394.305) rotate(-84.516)"/><rect class="cls-11" x="322.16" y="321.787" width="33.329" height="13.167" transform="translate(-29.495 610.764) rotate(-84.516)"/><rect class="cls-11" x="425.82" y="218.551" width="16.667" height="30.333" transform="translate(120.337 597.832) rotate(-80.12)"/><rect class="cls-12" x="80.897" y="211.389" width="8.006" height="8.006" transform="translate(-153.403 159.416) rotate(-60.423)"/><rect class="cls-12" x="596.997" y="226.996" width="8.176" height="8.176" transform="translate(337.631 799.187) rotate(-87.762)"/><rect class="cls-12" x="494.828" y="253.831" width="8.176" height="8.176" transform="translate(150.145 681.683) rotate(-80.12)"/><rect class="cls-12" x="449.629" y="97.63" width="11.834" height="17.933" transform="matrix(0.987, -0.161, 0.161, 0.987, -20.274, 50.999)"/><rect class="cls-12" x="194.209" y="230.803" width="19.66" height="13.167" transform="translate(-60.832 394.305) rotate(-84.516)"/><rect class="cls-12" x="322.16" y="321.787" width="33.329" height="13.167" transform="translate(-29.495 610.764) rotate(-84.516)"/><rect class="cls-11" x="425.82" y="218.551" width="16.667" height="30.333" transform="translate(120.337 597.832) rotate(-80.12)"/></g></g></svg>