<svg xmlns="http://www.w3.org/2000/svg" xml:space="preserve" width="801.37646" height="396.87051" version="1.1" viewBox="0 0 801.37647 396.87052">
  <defs id="defs1">
    <style id="style1">
      .cls-1{fill:#0c343d}.cls-2{fill:#0056aa}.cls-3,.cls-4,.cls-5,.cls-7,.cls-8,.cls-9{fill:none;stroke-miterlimit:10}.cls-3,.cls-4,.cls-5{stroke:#cb7e54}.cls-3,.cls-4,.cls-5,.cls-9{stroke-width:2px}.cls-4{stroke-dasharray:5.958 5.958}.cls-5{stroke-dasharray:6}.cls-6{fill:#bdbdbd}.cls-7,.cls-8,.cls-9{stroke:#b4b4b4}.cls-7{stroke-width:7px}.cls-8{stroke-width:5px}.cls-11{fill:#cbffff}.cls-12{fill:#cff}
    </style>
  </defs>
  <g id="Ground_Level">
    <g id="Base_Terrain" data-name="Base Terrain">
      <path id="Base_Map_Shape" d="M383.399-.000016 331.174 67.9213l-16.435 1.9584-58.804 11.5883 4.382 24.558-.71 19.557L36.7419 97.7537l.7226 9.3023-11.2271 81.664 13.9908 2.172-5.9038 35.421s5.262 3.544 5.6402 6.35c.4028 2.988-2.6493 5.418-4.0028 8.113-3.7381 7.443-8.9115 14.291-11.3733 22.247-2.7543 8.902-3.7878 18.412-3.5557 27.727.1298 5.205 3.3695 10.204 2.756 15.374-.452 3.808-5.9424 6.934-4.6246 10.536 1.1938 3.263 5.9009 4.257 9.3595 4.587 7.4608.714 14.3514-7.362 21.6999-5.888 3.2585.654 4.9693 4.5 7.871 6.12 5.7568 3.215 13.1164 3.159 18.5289 6.925 4.4504 3.096 6.5665 8.722 10.6356 12.305 6.6615 5.865 17.8509 6.977 22.1879 14.721 1.883 3.363-1.684 8.324.416 11.556 3.835 5.904 12.331 6.943 18.975 9.273 5.015 1.759 10.805 1.105 15.559 3.481 7.022 3.511 10.48 12.751 17.906 15.298 8.258 2.833 18.187 2.342 26.165-1.205 7.914-3.519 9.659-17.585 18.275-18.472 7.313-.752 11.12 13.349 18.381 12.192 6.558-1.045 7.544-11.052 12.358-15.626 12.172-11.564 24.271-29.642 41.053-29.18 7.679.211 11.238 10.759 18.021 14.365 25.589 13.6 54.639 19.829 82.946 26.028 9.006 1.973 18.539 5.928 27.435 3.508 17.162-4.669 29.585-20.114 42.204-32.648 8.826-8.766 13.257-21.671 23.033-29.363 3.217-2.531 7.17-4.243 11.174-5.092 7.938-1.683 16.232.021 24.344.241 15.452.417 30.871 1.923 46.328 2.046 7.892.063 23.666-.668 23.666-.668s6.946-21.02 8.41-31.928c1.004-7.483-2.913-15.776.211-22.649 1.682-3.702 5.049-8.209 9.114-8.108 8.604.214 44.569 2.508 44.569 2.508l4.483-9.548 7.464-6.701 93.374-49.542 4.015-2.343 3.634-3.425 13.727-15.79.134-8.211 10.683-4.957 2.439-84.9961-11.093-7.515.53-18.5785-18.156-4.561-14.685 4.9522-11.783-.0556-19.084-3.6093-50.823-1.0078-.755 13.4836-49.83.085-31.933 5.6123c4.452 10.7506 5.902 22.4563 6.295 33.576l-24.076 6.2102.811 10.542-57.096 14.254-8.199-37.4356-65.727 12.1266-20.034-32.9001-5.598-21.6188 12.262-26.3427z" class="cls-1"/>
      <path id="River-3" d="M583.873 195.816c-1.696.015-3.493.519-5.016 1.09-2.102.789-3.547 2.763-5.197 4.285-3.286 3.031-8.257 7.846-10.1 9.625.002.869.004 1.74.002 2.596-.011 5.24 3.162 10.542 1.844 15.613-1.575 6.059-8.989 9.292-11.004 15.219-.757 2.227-1.117 4.885-.207 7.055 1.11 2.645 5.775 3.028 6.316 5.845.841 4.372-5.06 7.661-5.74 12.061-1.09 7.052 2.814 14.072 2.934 21.207.228 13.63-4.24 40.674-4.24 40.674l22.921-1.203s8.071-27.476 9.696-41.565c.8-6.938-1.237-14.028-.303-20.949.882-6.539 4.945-12.562 4.975-19.16.02-4.453-3.413-8.51-3.239-12.959.356-9.052 6.172-17.042 8.655-25.762-1.203-.881-4.558-3.39-6.059-5.529-1.504-2.144-.741-5.852-2.932-7.287-.87-.571-1.893-.818-2.968-.852-.112-.004-.225-.005-.338-.004zm-5.13612 52.17541c.69272.77036 1.65776 2.28482 1.514 3.224-.46209 3.01883 2.14696 7.01975 1.10114 8.62808-1.5422 2.37169-7.09326 6.35508-7.92334 6.94072-2.40182 1.69452-1.1438-5.81228-1.08589-8.75112.0427-2.16945.2001-4.42932 1.05548-6.42347.58937-1.37399 1.38927-2.86838 2.70561-3.57721.18617-.10025 2.49162-.19823 2.633-.041z" class="cls-2"/>
      <path id="River-2" d="M597.504 124.969c-.142.002-.284.007-.424.015-.749.045-1.48.184-2.172.44-2.488.919-3.187 4.325-5.281 5.953-2.655 2.063-7.189 4.071-9.555 5.084-1.751 5.647-5.531 10.667-7.523 16.283-2.218 6.251-8.443 13.271-5.383 19.156 1.429 2.75 8.229.029 8.771 3.08.699 3.931-7.787 3.905-9.24 7.623-.491 1.258-.9 2.563-1.25 3.899 1.152 1.603 2.662 3.312 3.99 3.355 3.154.104 3.214-6.21 6.235-7.123 6.041-1.824 11.974 4.547 18.271 4.963 2.093.139 4.961-.379 6.965-.787.085-.555.173-1.11.254-1.666 1.291-8.911.7-18.057 2.332-26.912 1.327-7.205 4.632-13.945 6.031-21.137.23-1.181.46-2.367.69-3.552-1.682-2.429-4.215-5.737-6.541-7.006-1.7-.927-3.752-1.6-5.745-1.664-.142-.005-.284-.006-.425-.004z" class="cls-2"/>
      <path id="River-1" d="m600.008 43.291-32.838 5.4453s7.699 22.5155 9.898 34.1679c1.236 6.5482 1.435 13.2481 1.867 19.9048 1.233 1.682 5.646 7.622 8.783 9.584 3.066 1.916 7.718-.344 10.715 1.677 1.986 1.34-.80315 6.03304 1.49385 6.71504 3.396 1.009 11.02115-3.62804 13.33815-5.55504.753-6.297 1.094-12.613.621-18.9097-1.366-18.2201-13.878-53.0293-13.878-53.0293Z" class="cls-2"/>
    </g>
    <g id="Railway">
      <path d="M170.045 383.767c.699-.73 1.387-1.456 2.064-2.177" class="cls-3"/>
      <path d="M154.653 393.767s49.061-59.47 74.671-90.959c4.807-5.91 17.397-11.304 23.134-15.188 5.772-3.907 10.05-6.979 14.152-11.452 4.604-5.021 8.243-10.921 11.436-16.939 2.675-5.041 5.227-10.297 6.378-15.886 6.678-32.42 9.901-65.491 17.083-98.994 1.86-8.675 7.983-17.396 13.438-24.393 28.985-37.1838 87.24-110.36989 87.24-110.36989" class="cls-4" style="stroke-dasharray:5.958,5.958;stroke-dashoffset:1.2"/>
      <path d="M53.5398 106.79S201.91 125.73 274.764 134.847c5.763.722 11.878.976 17.407-.806 5.056-1.629 10.029-4.553 13.354-8.695C334.281 89.5267 398.99 7.77269 398.99 7.77269" class="cls-5" style="stroke-dasharray:6;stroke-dashoffset:7.4"/>
      <path d="M357.981 199.647s-11.708-57.992-16.873-88.828c-.816-4.871-.834-8.995.117-14.816 2.136-13.073 14.166-27.5419 14.166-27.5419" class="cls-5" style="stroke-dasharray:6;stroke-dashoffset:0"/>
      <path d="m629.228 281.589 7.88-250.6245" class="cls-5"/>
      <path d="M54.1313 102.846s149.0207 18.738 221.2237 28.058c5.865.757 12.106-.011 17.605-2.186 5.197-2.057 9.403-5.234 12.841-9.642C334.445 82.3545 397.61 3.82945 397.61 3.82945" class="cls-5"/>
      <path d="M184.86 197.189s4.631-30.411 7.917-48.058c1.141-6.125 7.526-14.563 13.23-17.07 11.875-5.219 25.46-2.665 25.46-2.665" class="cls-5"/>
      <path d="M139.805 191.608s3.484-30.64 6.77-48.287c1.141-6.125 7.498-14.627 13.229-17.07 13.127-5.595 25.962-2.415 25.962-2.415" class="cls-5"/>
      <path d="M147.833 192.984s3.485-30.639 6.771-48.287c1.14-6.125 7.436-14.777 13.229-17.069 12.876-5.095 25.836-3.042 25.836-3.042" class="cls-5"/>
      <path d="M640.697 187.998s2.212-75.864 3.418-114.6472c.343-11.0499-6.905-19.4615-6.905-34.3616" class="cls-5"/>
      <path d="M292.95371 56.730131s1.24692 9.0247 3.73947 19.511514c1.41488 5.952764 4.90855 12.086073 10.09684 15.32936 4.07481 2.547231 9.70453 3.270865 14.29658 1.854693 7.28403-2.246371 17.0816-15.203576 17.0816-15.203576" class="cls-5"/>
    </g>
    <g id="Pavement" class="cls-6">
      <path d="m644.961 92.1015-2.207 92.4095 35.501 3.897 15.62-.5-.082-31.597-26.008-.437 1.202-45.244 5.125.147.333-18.281Z"/>
      <path d="m716.852 88.1514-1.933 88.6566 41.199-20.117 1.393-67.9135Z"/>
      <path d="m656.057 45.9799-1.059 26.168 48.988.9411 1.058-25.9179Z"/>
      <path d="m402.339 174.993-36.723 4.517 3.786 24.369 37.291-5.689Z"/>
      <path d="m476.478 118.555-35.286 3.943 2.01 21.469 14.276-1.241 1.456 6.905 19.886-2.617Z"/>
      <path d="m406.76 208.752 2.158 29.705 43.997 4.289 3.194-34Z"/>
      <path d="m317.463 141.126-7.863 20.812 31.219 5.348 5.409-1.524-3.052-21.117Z"/>
      <path d="m266.583995 114.364502-4.929622-29.345057 31.685925-7.923409 5.597704 28.68013z"/>
      <path d="m362.364 322.343-4.456 32.297 16.545 2.53 1.433-10.821 10.919 1.357 2.411-22.046Z"/>
      <path d="m203.542 229.39-3.208 31.888 36.752 4.397 4.128-31.781Z"/>
      <path d="m196.9 164.864-7.55 45.174 90.142 12.696 2.615-16.662-34.662-5.394 4.322-28.171Z"/>
      <path d="m128.866 125.267-3.269 26.138 16.056 1.969 3.281-26.172Z"/>
      <path d="m328.51 252.253-1.685 16.984 38.438 1.518-.412-17.804Z"/>
      <path d="m397.343 200.488-46.946 8.096 2.733 18.154 17.238-3.088 1.343 8.486 7.025 4.111 16.549 1.808-1.786-18.909 6.508-1.4Z"/>
      <path d="m146.016 294.798-2.503 10.508-.176 15.317 4.61 2.069 8.383-8.629 7.437-3.475 6.198-9.589-15.167-12.851Z"/>
    </g>
    <g id="Roads">
      <path d="M63.9546 268.967s9.2372 10.717 15.5525 13.288c5.8994 2.402 21.5619.837 31.1329 5.208 9.904 4.523 17.201 16.731 25.168 20.821 5.005 2.569 16.057-5.203 16.057-5.203" class="cls-9" style="stroke:#96784d;stroke-opacity:1"/>
      <path d="M799.736 151.509S696.593 206.2 649.354 227.118c-8.036 3.558-16.883 5.519-25.653 6.084-8.812.568-17.568-1.8-26.347-2.756-15.096-1.643-30.823-4.37-45.268-5.123-4.404-.229-9.058 1.222-12.699 3.711-3.946 2.697-6.344 7.23-8.744 11.363-4.219 7.267-7.557 15.138-9.727 23.256-6.936 25.946-10.146 79.931-10.146 79.931" class="cls-7"/>
      <path d="M520.978 264.258s-331.809-41.75-490.9911-62.483c-18.2189-2.373-22.264691-5.24585-22.264691-5.24585" class="cls-7"/>
      <path d="M109.043 212.071s-3.827 11.153-6.983 16.065c-3.1843 4.955-7.7869 8.841-11.8136 13.139-7.0527 7.529-14.8388 14.37-21.6164 22.146-5.1802 5.944-10.5485 11.863-14.5098 18.68-4.63 7.968-8.5097 16.563-10.5719 25.544-2.47 10.758-1.9518 33.055-1.9518 33.055" class="cls-8"/>
      <path d="M10.1926 158.683s-6.04663 20.856 11.2162 23.289c65.9401 9.293 230.6692 32.939 230.6692 32.939" class="cls-8"/>
      <path d="M249.972 229.324s14.904-91.594 18.2-111.807c.464-2.846.406-5.814-.113-8.651-2.971-16.239-6.841-37.0578-6.841-37.0578" class="cls-8"/>
      <path d="M32.1767 184.56s4.9549-41.355 8.1-61.608c.3534-2.276 2.1062-4.35 4.0357-5.608 1.924-1.253 4.4614-1.701 6.7407-1.421 23.4703 2.875 50.1329 5.768 73.7069 8.74 3.444.434 9.789 3.55 9.789 3.55" class="cls-8"/>
      <path d="M501.244 262.245s20.919-53.586 29.891-80.899c2.92-8.888 5.662-17.675 6.752-26.967 1.054-8.994.902-18.157-.263-27.137-1.234-9.517-6.017-28.1528-6.017-28.1528" class="cls-8"/>
      <path d="M395.668 248.426c-3.767 12.479-3.83 31.872-11.349 98.663" class="cls-8"/>
      <path d="M477.395 71.1011s-1.429 14.5571-.484 21.7455c2.176 16.5454 11.519 31.5614 14.018 48.0614.45 2.965 1.054 6.135.152 8.996-.926 2.938-3.024 5.552-5.427 7.48-3.137 2.519-7.4 3.159-11.07 4.807-2.864 1.286-6.605 1.495-8.543 3.965-1.976 2.519-2.605 6.311-1.856 9.423 1.577 6.553 3.847 13.221 4.278 19.188.205 2.846-2.209 5.541-4.442 7.318-3.451 2.746-9.515.963-12.566 4.149-2.854 2.981-3.369 11.914-3.369 11.914" class="cls-8"/>
      <path d="m771.49 77.2691-112.495.0446" class="cls-8"/>
      <path d="m774.061 29.9771-5.849 179.0669" class="cls-7"/>
      <path d="M395.357 377.919c-12.151 7.735-8.244 10.163-16.201 17.005" class="cls-8" style="stroke:#96784d;stroke-opacity:1"/>
    </g>
    <g id="Buildings">
      <g id="Garages-2" data-name="Garages">
        <path d="m723.07 87.9021.275-4.8274 34.058.7384-.016 4.8274Z" class="cls-11"/>
        <path d="m738.791 152.431.579-26.232 12.218.677-.709 25.972Z" class="cls-12"/>
        <path d="m719.712 161.454 1.252-35.751 12.708.55-.891 32.905Z" class="cls-12"/>
        <path d="m739.595 119.023.58-25.8933 12.478.4165-.58 25.8938Z" class="cls-12"/>
        <path d="m721.214 118.066.972-25.6289 12.414.5493-.581 25.6286Z" class="cls-12"/>
        <path d="m709.394 170.779 1.98-76.2072 5.246.1581-1.85 76.1921Z" class="cls-12"/>
        <path d="m756.374 156.547 1.323-66.351 5.587.143-1.454 66.481Z" class="cls-12"/>
        <path d="m714.981 176.987 40.016-19.409 2.442 4.589-39.756 20.06Z" class="cls-12"/>
        <path d="m515.304 134.566-4.994.543 1.18 15.849 4.994-.544Z" class="cls-12"/>
        <path d="m525.871 145.418-4.709-.069-.032 13.246 4.698-.141Z" class="cls-12"/>
      </g>
      <g id="Big_Buildings-2" data-name="Big Buildings">
        <path d="m359.683 108.844 18.91-3.801 8.955 44.553-18.91 3.801Z" class="cls-11"/>
        <path d="m214.658 236.608-.886 4.234-3.357-.319-.861 7.168-2.292-.118-.731 6.257 25.619 1.271 1.103-16.313Z" class="cls-11"/>
        <path d="m302.186 215.488 9.84-52.988 25.363 4.71-9.84 52.988Z" class="cls-11"/>
        <path d="m258.999 201.512 8.127-50.981 22.705 3.102-7.777 51.564Z" class="cls-11"/>
        <path d="m211.805 165.974 3.988-29.192 41.542 5.676-3.988 29.191Z" class="cls-11"/>
        <path d="m154.462 190.657 4.985-36.492 29.898 3.893-5.714 36.784Z" class="cls-11"/>
        <path d="m503.312 154.405-9.574 1.92 2.231 11.905-25.731 5.009 4.64 23.152 15.828-3.172-.998-4.975 20.026-4.015Z" class="cls-11"/>
        <path d="m452.347 148.533-19.486 3.619 1.924 10.342 6.535-1.213 1.471 7.318-31.235 6.168 1.895 9.422 17.367-3.183 3.328 16.564 26.842-5.395-5.252-26.132-1.334.263-1.445-7.187 1.314-.244Z" class="cls-11"/>
        <path d="m59.8894 133.315 1.7413-12.745 18.2653 2.278-1.508 12.628Z" class="cls-11"/>
        <path d="m94.1431 141.323 2.5316-18.469 31.3283 4.295-2.532 18.468Z" class="cls-11"/>
        <path d="m91.578 187.976 4.6345-33.921 16.1975 2.213-4.634 33.921Z" class="cls-11"/>
        <path d="m389.365 329.832-2.094 18.633-9.85-1.41-1.728 12.943 22.991 2.907 3.333-31.503Z" class="cls-11"/>
        <path d="m350.012 208.169 2.868 19.034 36.473-6.63-3.216-18.514Z" class="cls-11"/>
        <path d="m669.133 110.889-1.148 44.732 23.698.447.886-44.732Z" class="cls-12"/>
        <path d="m348.865 316.248-4.599 32.502 13.868 1.594 4.339-32.242Z" class="cls-11"/>
        <path d="m454.904 100.343 11.602-2.3315 3.534 17.5825-11.602 2.332Z" class="cls-11"/>
        <ellipse cx="54.301494" cy="147.498354" rx="7.503702" ry="7.134668" style="opacity:1;fill:#cbffff;fill-opacity:1;stroke:none;stroke-width:7"/>
        <ellipse cx="76.320558" cy="151.065691" rx="7.503702" ry="7.134668" style="opacity:1;fill:#cbffff;fill-opacity:1;stroke:none;stroke-width:7"/>
        <ellipse cx="72.876237" cy="171.239585" rx="7.503702" ry="7.134668" style="opacity:1;fill:#cbffff;fill-opacity:1;stroke:none;stroke-width:7"/>
        <ellipse cx="51.103198" cy="168.164298" rx="7.503702" ry="7.134668" style="opacity:1;fill:#cbffff;fill-opacity:1;stroke:none;stroke-width:7"/>
        <path d="m280.825 83.4876 2.084 9.3051 6.972-1.7661-2.117-9.2557Z" class="cls-11"/>
      </g>
      <g id="Small_Buildings-2" data-name="Small Buildings">
        <path d="m636.639 221.139.013-5.466 6.583.016-.013 5.466Z" class="cls-11"/>
        <path d="m502.26 298.171 1.415-9.367 5.452.783-1.249 9.283Z" class="cls-11"/>
        <path d="m150.007 295.785-2.166-2.598 4.797-4.008 2.166 2.599Z" class="cls-12"/>
        <path d="m155.822 300.731 4.378-2.689 3.129 4.371-4.461 2.855Z" class="cls-12"/>
        <path d="m455.691 222.015.343-14.3 18.298.319.156 14.216Z" class="cls-11"/>
        <path d="m84.572 238.248 9.0063-7.481 7.8807 9.473-8.6742 7.481Z" class="cls-12"/>
        <path d="m612.898 226.551.014-5.834 6.336.015-.014 5.835Z" class="cls-12"/>
        <path d="m509.924 253.581.694-5.076 6.586.911-.611 5.076Z" class="cls-12"/>
        <path d="m673.689 202.173-2.481-4.468 5.502-3.145 2.731 4.468Z" class="cls-11"/>
        <path d="m659.519 87.9176.011-4.7303 7.569.0183-.011 4.7302Z" class="cls-11"/>
        <path d="m724.715 54.9505.013-5.2323 11.75.0283-.013 5.2323Z" class="cls-11"/>
        <path d="m371.251 235.112.37-3.379 5.473.415-.388 3.562Z" class="cls-12"/>
        <path d="m447.804 245.05.544-3.817 4.973.679-.544 3.983Z" class="cls-12"/>
        <path d="m248.604 217.488.896-6.153 10.142 1.1-.864 6.371Z" class="cls-12"/>
        <path d="m88.9184 226.86 3.7703-3.385 3.0774 3.248-3.7702 3.551Z" class="cls-12"/>
        <path d="m391.714 321.161.362-7.247 5.068.326-.362 7.163Z" class="cls-12"/>
        <path d="m502.79 311.519.725-5.305 2.947.402-.725 5.306Z" class="cls-12"/>
        <path d="m507.208 206.457 1.914-4.827 2.998 1.215-1.914 4.993Z" class="cls-12"/>
        <path d="m650.941 202.062.758-2.956 7.897 1.35-.924 3.122Z" class="cls-11"/>
        <path d="m656.444 69.4658.013-5.5859 5.353.0129-.013 5.5859Z" class="cls-11"/>
        <path d="m708.723 62.2081.014-5.5806 3.139.0076-.014 5.5806Z" class="cls-11"/>
      </g>
    </g>
  </g>
</svg>