<svg xmlns="http://www.w3.org/2000/svg" xml:space="preserve" id="svg89" width="1062.4827" height="535.17401" version="1.1" viewBox="0 0 1062.4827 535.17401">
  <style id="style_common">
    .cement { fill:#c6c2c2 }
    .land { fill:#0c343c }
    .rock { fill:#ffffcd }
    .water { fill:#0056ab }
    .wood { fill:#593700 }
    .tarmac { fill:#888 }
    .gravel { fill:#946d3e }
    .building { fill:#88d1fd }
    .map_border { fill:none;stroke:#000;stroke-width:4 }
    .fence { fill:none;stroke:#c4e3c3;stroke-width:1 }
    .road_tarmac { fill:none;stroke:#888 }
    .road_gravel { fill:none;stroke:#946d3e }
    .road_small { stroke-width:5 }
    .road_medium { stroke-width:8 }
    .road_large { stroke-width:12 }
    .railroad { fill:none;stroke:#914833;stroke-dasharray:6;stroke-width:3 }
    .danger { fill:red;fill-opacity:.4;stroke:red;stroke-dasharray:4,2;stroke-width:2 }
  </style>
  <g id="Ground_Level">
    <g id="Base_Terrain" class="land" data-name="Base Terrain">
      <path id="Base_Map_Shape" d="m504.3 2.858-69.784 90.757-21.96 2.617-78.575 15.485 5.855 32.814-.949 26.133-297.7952-37.186.966 12.429-15.0019 109.121 18.6949 2.902-7.889 47.33s7.031 4.736 7.537 8.485c.538 3.992-3.541 7.24-5.349 10.841-4.995 9.945-11.9078 19.096-15.1972 29.727-3.6804 11.895-5.0614 24.602-4.7512 37.049.1735 6.955 4.5024 13.634 3.6826 20.543-.604 5.088-7.9403 9.265-6.1794 14.078 1.5951 4.36 7.8848 5.688 12.5062 6.129 9.969.954 19.177-9.837 28.996-7.867 4.354.873 6.64 6.012 10.517 8.177 7.692 4.296 17.527 4.221 24.759 9.253 5.9472 4.137 8.7742 11.655 14.2112 16.442 8.901 7.837 23.853 9.323 29.648 19.671 2.516 4.493-2.25 11.122.556 15.441 5.124 7.889 16.477 9.277 25.354 12.391 6.701 2.35 14.438 1.476 20.791 4.651 9.383 4.691 14.003 17.038 23.925 20.441 11.035 3.786 24.303 3.13 34.962-1.61 10.576-4.702 12.907-23.497 24.42-24.682 9.772-1.005 14.859 17.837 24.561 16.291 8.763-1.397 10.08-14.768 16.513-20.88 16.264-15.452 32.431-39.608 54.855-38.99 10.261.282 15.017 14.376 24.08 19.194 34.192 18.173 73.01 26.496 110.834 34.779 12.033 2.636 24.772 7.921 36.654 4.688 22.937-6.239 39.534-26.877 56.398-43.625 11.794-11.713 17.712-28.957 30.777-39.235 4.296-3.382 9.579-5.67 14.931-6.804 10.604-2.249 21.689.028 32.527.322 20.648.557 41.253 2.569 61.906 2.734 10.545.084 31.619-.893 31.619-.893s9.281-28.087 11.239-42.662c1.34-10-3.89-21.081.283-30.264 2.247-4.947 6.746-10.969 12.178-10.834 11.495.286 59.552 3.351 59.552 3.351l5.993-12.758 9.974-8.954 124.765-66.199 5.36-3.131 4.86-4.576 18.341-21.099.18-10.971 14.28-6.624 3.25-113.573-14.82-10.042.71-24.824-24.261-6.095-19.62 6.617-15.75-.074-25.5-4.823-67.904-1.347-1.009 18.018-66.585.113-42.672 7.499c5.95 14.365 7.887 30.007 8.416 44.865l-32.175 8.298 1.083 14.087-76.287 19.046-10.956-50.022-87.826 16.204-26.769-43.962-7.481-28.887 16.383-35.199Z"/>
    </g>
    <g id="River" class="water">
      <path id="River-3" d="M772.172 264.51c-2.263.02-4.665.693-6.703 1.456-2.807 1.055-4.739 3.692-6.943 5.726-4.392 4.05-11.031 10.484-13.497 12.861.006 1.161.006 2.325.006 3.469-.016 7.002 4.226 14.086 2.465 20.862-2.108 8.096-12.013 12.416-14.708 20.336-1.008 2.975-1.488 6.527-.272 9.427 1.479 3.534 7.712 4.046 8.438 7.81 1.126 5.842-6.762 10.236-7.669 16.116-1.457 9.423 3.757 18.803 3.917 28.337.304 18.213-5.662 54.349-5.662 54.349l30.627-1.608s10.785-36.713 12.957-55.539c1.067-9.27-1.654-18.745-.405-27.992 1.174-8.738 6.606-16.786 6.644-25.602.026-5.95-4.558-11.371-4.328-17.316.475-12.095 8.25-22.772 11.564-34.424-1.606-1.177-6.089-4.53-8.096-7.387-2.006-2.865-.987-7.82-3.917-9.738-1.163-.762-2.529-1.093-3.965-1.138-.149-.005-.299-.007-.453-.005Zm-6.863 69.717c.928 1.03 2.214 3.053 2.022 4.308-.613 4.034 2.871 9.38 1.473 11.529-2.06 3.169-9.478 8.492-10.588 9.274-3.207 2.265-1.526-7.766-1.451-11.693.058-2.899.272-5.919 1.414-8.583.784-1.836 1.857-3.833 3.613-4.78.251-.134 3.33-.265 3.517-.055Z"/>
      <path id="River-2" d="M790.386 169.843c-.187.003-.379.009-.566.02-.998.06-1.975.246-2.903.588-3.325 1.228-4.259 5.779-7.055 7.955-3.549 2.756-9.606 5.439-12.766 6.793-2.342 7.546-7.391 14.253-10.054 21.758-2.962 8.352-11.281 17.732-7.194 25.596 1.911 3.675 10.999.039 11.72 4.115.934 5.253-10.401 5.218-12.344 10.186-.656 1.681-1.206 3.425-1.67 5.21 1.537 2.142 3.554 4.426 5.331 4.483 4.216.139 4.296-8.298 8.33-9.518 8.075-2.437 16 6.076 24.416 6.632 2.796.186 6.628-.507 9.307-1.052.112-.741.229-1.483.336-2.226 1.729-11.907.939-24.127 3.117-35.96 1.771-9.627 6.19-18.633 8.058-28.244.309-1.578.614-3.162.923-4.745-2.247-3.246-5.63-7.667-8.741-9.362-2.268-1.239-5.011-2.138-7.674-2.224-.192-.006-.379-.008-.571-.005Z"/>
      <path id="River-1" d="m793.732 60.704-43.878 7.276s10.289 30.085 13.229 45.656c1.649 8.75 1.916 17.702 2.493 26.596 1.649 2.248 7.546 10.185 11.735 12.807 4.098 2.56 10.316-.46 14.318 2.241 2.652 1.79-1.073 8.061 1.996 8.972 4.536 1.349 14.729-4.848 17.824-7.422 1.004-8.414 1.463-16.854.828-25.267-1.826-24.347-18.545-70.859-18.545-70.859Z"/>
    </g>
    <g id="Railway" class="railroad">
      <path d="M196.115 531.039s68.088-81.49 102.308-123.565c6.423-7.897 23.246-15.105 30.912-20.294 7.712-5.221 13.429-9.326 18.91-15.303 6.152-6.709 11.015-14.593 15.281-22.634 3.574-6.736 6.984-13.759 8.522-21.227 8.923-43.32 13.23-87.51 22.827-132.277 2.485-11.592 10.667-23.245 17.955-32.594 38.731-49.686 117.763-148.6692 117.763-148.6692" style="stroke-dasharray:6;stroke-dashoffset:7.8"/>
      <path d="M63.5378 145.552s198.2542 25.308 295.6032 37.49c7.7.965 15.871 1.304 23.259-1.077 6.755-2.176 13.401-6.084 17.843-11.618 38.425-47.862 126.478-159.0883 126.478-159.0883" style="stroke-dashoffset:11.7"/>
      <path d="M470.336 269.629s-15.644-77.49-22.546-118.693c-1.091-6.509-1.115-12.02.156-19.798 2.855-17.468 18.929-36.801 18.929-36.801" style="stroke-dashoffset:9"/>
      <path d="m832.78 379.121 10.529-334.888"/>
      <path d="M64.3288 140.282S263.452 165.32 359.93 177.774c7.837 1.011 16.176-.015 23.524-2.922 6.944-2.748 12.564-6.993 17.158-12.883C438.887 112.901 523.288 7.975 523.288 7.975" style="stroke-dashoffset:6"/>
      <path d="M239.009 266.344s6.189-40.636 10.579-64.215c1.525-8.185 10.057-19.46 17.678-22.809 15.868-6.974 34.02-3.561 34.02-3.561" style="stroke-dashoffset:1.8"/>
      <path d="M178.807 258.887s4.655-40.942 9.046-64.522c1.524-8.184 10.019-19.545 17.676-22.809 17.541-7.476 34.691-3.227 34.691-3.227" style="stroke-dashoffset:0"/>
      <path d="M189.534 260.725s4.657-40.94 9.047-64.521c1.524-8.185 9.936-19.745 17.677-22.808 17.205-6.808 34.522-4.065 34.522-4.065" style="stroke-dashoffset:10.5;stroke-width:3.0"/>
      <path d="M848.101 254.063s2.957-101.37 4.569-153.193c.459-14.765-9.665-29.747-9.665-49.657" style="stroke-dashoffset:3.9"/>
      <path d="M383.446 78.661s1.666 12.06 4.996 26.072c1.891 7.954 6.559 16.15 13.492 20.483 5.445 3.404 12.967 4.371 19.103 2.479 9.733-3.002 22.825-20.316 22.825-20.316" style="stroke-dashoffset:4.8"/>
    </g>
    <g id="Dirt_Roads" class="road_gravel road_small">
      <path d="M77.4548 362.255s12.342 14.32 20.781 17.755c7.8832 3.21 28.8112 1.119 41.6002 6.959 13.234 6.044 22.984 22.357 33.63 27.822 6.688 3.432 21.455-6.953 21.455-6.953"/>
      <path d="M520.278 507.838c-16.236 10.335-11.015 13.58-21.648 22.722"/>
    </g>
    <g id="Roads" class="road_tarmac road_small">
      <path d="M137.702 286.23s-5.113 14.902-9.33 21.466c-4.255 6.621-10.406 11.814-15.786 17.556-9.424 10.061-19.8282 19.202-28.8842 29.592-6.922 7.943-14.096 15.852-19.388 24.961-6.187 10.646-11.371 22.131-14.127 34.132-3.3 14.375-2.608 44.168-2.608 44.168"/>
      <path d="M5.6166 214.892s-8.0796 27.868 14.9872 31.119c88.1102 12.418 308.2232 44.014 308.2232 44.014"/>
      <path d="M326.013 309.284s19.915-122.389 24.319-149.398c.62-3.803.543-7.769-.151-11.56-3.97-21.699-9.141-49.517-9.141-49.517"/>
      <path d="M34.9918 249.469s6.621-55.259 10.824-82.321c.472-3.042 2.814-5.813 5.392-7.493 2.571-1.675 5.961-2.273 9.007-1.899 31.361 3.841 66.9882 7.707 98.4882 11.678 4.602.58 13.081 4.744 13.081 4.744"/>
      <path d="M520.694 334.808c-5.034 16.674-5.118 42.587-15.165 131.834"/>
      <path d="M629.897 97.864s-1.911 19.451-.646 29.057c2.908 22.108 15.391 42.173 18.731 64.22.598 3.962 1.409 8.198.203 12.021-1.238 3.925-4.04 7.418-7.252 9.994-4.195 3.367-9.889 4.221-14.793 6.423-3.827 1.719-8.827 1.998-11.416 5.299-2.641 3.365-3.479 8.433-2.481 12.591 2.108 8.756 5.144 17.666 5.721 25.639.272 3.803-2.951 7.404-5.94 9.779-4.611 3.669-12.712 1.286-16.789 5.543-3.816 3.984-4.499 15.92-4.499 15.92"/>
      <path d="m1022.87 106.106-150.316.059"/>
    </g>
    <g id="Main_Roads" class="road_tarmac road_medium">
      <path d="M1060.61 205.306s-137.817 73.079-200.939 101.03c-10.737 4.754-22.558 7.374-34.277 8.13-11.778.758-23.476-2.406-35.206-3.683-20.172-2.196-41.188-5.84-60.491-6.846-5.881-.306-12.103 1.633-16.965 4.959-5.273 3.604-8.48 9.661-11.687 15.184-5.636 9.71-10.097 20.227-12.995 31.074-9.27 34.67-13.555 106.805-13.555 106.805"/>
      <path d="M688.135 355.963s-443.367-55.787-656.069-83.491c-24.3443-3.171-29.7504-7.009-29.7504-7.009"/>
      <path d="M661.762 353.273s27.953-71.602 39.945-108.099c3.901-11.876 7.562-23.617 9.018-36.033 1.409-12.018 1.207-24.262-.352-36.261-1.649-12.716-8.037-37.618-8.037-37.618"/>
      <path d="m1026.3 42.914-7.81 239.271"/>
    </g>
    <g id="Pavement" class="cement">
      <path d="m853.801 125.925-2.951 123.479 47.437 5.207 20.872-.668-.107-42.22-34.752-.584 1.606-60.456 6.847.197.443-24.428Z"/>
      <path d="m949.859 120.647-2.58 118.464 55.051-26.881 1.86-90.746Z"/>
      <path d="m868.626 64.297-1.414 34.966 65.457 1.257 1.42-34.631Z"/>
      <path d="m529.608 236.686-49.07 6.035 5.059 32.562 49.83-7.601Z"/>
      <path d="m628.01 163.117-46.49 5.795 2.162 26.843 19.601-2.185 1.948 9.227 22.223-2.048 3.704-12.558Z"/>
      <path d="m537.86 281.648-4.135 4.807 3.935 34.739 72.44 6.464.449-40.882Z"/>
      <path d="m416.195 191.432-10.507 27.81 40.395 7.438 8.548-2.329-4.078-28.217Z"/>
      <path d="m348.21 155.673-6.587-39.211 42.339-10.587 7.48 38.323Z"/>
      <path d="m476.339 432.696-6.101 44.036 23.722 3.528 1.915-14.313 12.976 1.96 4.101-35.033Z"/>
      <path d="m263.973 309.372-4.287 42.609 49.109 5.875 5.516-42.466Z"/>
      <path d="m255.098 223.151-10.089 60.362 120.449 16.965 3.494-22.264-46.316-7.207 5.776-37.643Z"/>
      <path d="m164.483 172.148-5.102 35.66 21.014.137 5.265-35.118Z"/>
      <path d="m431.646 340.784-3.416 9.312 1.044 11.966 50.188 1.805-.809-22.323Z"/>
      <path d="m522.932 270.752-62.73 10.818 3.652 24.258 23.034-4.126 1.794 11.339 9.387 5.493 22.113 2.416-2.387-25.266 8.696-1.871Z"/>
      <path d="m187.106 396.771-3.345 14.04-.235 20.467 6.16 2.765 11.202-11.53 9.937-4.643 8.282-12.814-20.267-17.171Z"/>
    </g>
    <g id="Fence" class="fence">
      <path d="m45.4718 257.835 6.411.895m7.306 1.192 59.4952 8.052m8.201 1.193 45.776 6.263m7.903 1.192 138.076 19.385 5.666-2.684 13.121 1.789 2.982 3.877 24.455 3.578 3.876-2.386 14.911-101.692-6.561-10.139-7.753-.895"/>
      <path d="m368.765 299.94 13.547 2.069 2.258 2.635 47.984 6.272"/>
      <path d="m435.94 311.292 35.741 4.828"/>
      <path d="m476.008 316.685 19.191 2.634"/>
      <path d="m509.122 321.012 16.933 2.258"/>
      <path d="m114.769 267.391-1.317 11.665 3.198.564-2.822 22.201"/>
      <path d="m136.029 343.213 50.047 5.833"/>
      <path d="m124.741 341.896-12.418-1.505.564-4.892 2.446-2.257"/>
      <path d="m238.757 363.721 21.825.188 20.508-2.069 13.17 1.881"/>
      <path d="m298.963 363.721 4.14-.188"/>
      <path d="m307.618 363.533 25.776-.376"/>
      <path d="m338.286 361.463 8.654-10.348 9.624 4.341"/>
      <path d="m362.933 358.453 3.386 1.505"/>
      <path d="m364.062 364.097-4.892 10.349-11.853 12.793"/>
      <path d="m343.554 391.379-3.763 4.139-4.704 16.368 1.694 20.696"/>
      <path d="m336.781 438.415.188 4.139 8.068 6.487"/>
      <path d="m349.177 452.428 10.912 8.843"/>
      <path d="m293.883 367.108-.188 3.575 16.557.564 6.021 2.634 3.575 5.08 5.832-2.446 4.704 6.773"/>
      <path d="m334.147 388.368 5.456 7.15"/>
      <path d="m495.726 432.534 1.005-5.976 9.554.248"/>
      <path d="m532.64 324.022 76.03 9.716 31.985-31.42"/>
      <path d="m643.657 297.428 12.041-14.729"/>
      <path d="m660.563 277.773 2.446-3.387 6.977-19.977"/>
      <path d="m661.52 206.996-.873-6.209"/>
      <path d="m660.266 193.918-2.439-18.627"/>
      <path d="m708.528 236.651 27.822 8.358"/>
      <path d="m740.788 245.992 2.165.531 16.967-9.988"/>
      <path d="m661.461 283.202 17.874 6.773"/>
      <path d="m683.981 291.751 4.892 1.693 5.216-13.708 18.881 5.955"/>
      <path d="m718.229 287.076 21.936 1.951-.753 7.903"/>
      <path d="m794.351 252.527.94-.188 3.387.188"/>
      <path d="M802.629 252.527h27.469"/>
      <path d="m97.8357 333.994-3.951-3.763 10.9123-8.654"/>
      <path d="m95.7661 324.963-2.0696-2.258 9.5955-24.082 3.575.564"/>
      <path d="m676.074 232.439 10.072-.386"/>
      <path d="m691.247 232.396 7.714 1.693"/>
      <path d="m848.725 109.16-3.575-.188-1.129 44.967"/>
      <path d="m843.645 158.831-.376 17.121"/>
      <path d="m843.08 181.22-2.069 69.614"/>
      <path d="m840.823 254.785-.377 7.902 9.031 8.843 24.271 11.289 20.696-8.843"/>
      <path d="m898.019 272.282 1.317-.564.752-3.198 5.833-2.823 3.763 1.317 6.397-2.634 3.01-3.574V235.03"/>
      <path d="m919.091 226.563 3.01-112.511-2.822-3.575-31.608-.752"/>
      <path d="m881.65 109.725-24.082-.565"/>
      <path d="m864.341 98.436 1.413-17.1783"/>
      <path d="M942.798 129.104v-12.042l2.728-2.728h4.797"/>
      <path d="m1004.13 115.181 6.96 8.278"/>
      <path d="m427.579 351.342 1.102 11.437 51.536 1.929-.827-23.838-3.84-.086"/>
      <path d="m469.469 340.594-38.445-.551-2.343 6.614"/>
      <path d="m231.857 157.303-2.187 16.102-7.842 2.626-6.943 3.943-6.163 5.566-4.572 7.554-2.385 7.553-9.343 66.99"/>
      <path d="m191.627 273.004-.596 4.771"/>
    </g>
    <g id="Buildings" class="building">
      <g id="Garages-2" data-name="Garages">
        <path d="m958.169 120.314.37-6.45 45.511.986-.02 6.451Z"/>
        <path d="m979.179 206.538.77-35.051 16.33.904-.95 34.704Z"/>
        <path d="m953.679 218.595 1.68-47.771 16.98.735-1.19 43.968Z"/>
        <path d="m980.249 161.898.78-34.599 16.67.557-.77 34.599Z"/>
        <path d="m955.689 160.619 1.3-34.245 16.59.733-.78 34.246Z"/>
        <path d="m939.899 231.055 2.65-101.829 7 .211-2.47 101.809Z"/>
        <path d="m1002.67 212.038 1.77-88.659 7.47.191-1.95 88.833Z"/>
        <path d="m947.359 239.35 53.471-25.934 3.27 6.131-53.131 26.805Z"/>
        <path d="m680.552 182.667-6.676.725 1.58 21.178 6.67-.727Z"/>
        <path d="m694.673 197.167-6.292-.092-.043 17.7 6.276-.189Z"/>
      </g>
      <g id="Big_Buildings-2" data-name="Big Buildings">
        <path d="m472.623 147.76 25.268-5.079 11.966 59.532-25.268 5.079Z"/>
        <path d="m278.826 319.017-1.184 5.657-4.486-.426-1.15 9.578-3.063-.158-.976 8.361 34.232 1.698 1.474-21.798Z"/>
        <path d="m395.782 290.796 13.148-70.804 33.891 6.294-13.149 70.803Z"/>
        <path d="M338.075 272.121 348.934 204l30.339 4.144-10.391 68.9Z"/>
        <path d="m275.014 224.634 5.329-39.006 55.508 7.584-5.328 39.006Z"/>
        <path d="m198.392 257.616 6.66-48.761 39.95 5.202-7.635 49.151Z"/>
        <path d="m661.711 206.763-12.792 2.565 2.178 13.495-34.384 6.693 7.006 33.349 21.15-4.238-1.335-6.648 26.758-5.365Z"/>
        <path d="m596.425 201.33-26.037 4.835 2.572 13.819 8.731-1.62 1.969 9.778-41.738 8.242 2.529 12.59 23.21-4.254 4.445 22.134 35.868-7.21-7.018-34.917-1.783.351-1.931-9.603 1.755-.326Z"/>
        <path d="m72.0218 180.995 2.327-17.03 24.406 3.044-2.014 16.874Z"/>
        <path d="m117.793 191.695 3.383-24.678 41.861 5.739-3.384 24.677Z"/>
        <path d="m114.365 254.034 6.193-45.326 21.643 2.957-6.192 45.326Z"/>
        <path d="m512.271 443.584-2.798 24.897-13.161-1.884-2.309 17.294 30.721 3.885 4.453-42.095Z"/>
        <path d="m459.688 281.016 3.832 25.433 48.735-8.858-4.297-24.74Z"/>
        <path d="m886.098 151.029-1.531 59.772 31.662.597 1.185-59.771Z"/>
        <path d="m458.155 425.432-6.145 43.43 18.53 2.13 5.798-43.082Z"/>
        <path d="m599.846 136.938 15.503-3.116 4.717 23.494-15.497 3.116Z"/>
        <ellipse cx="64.55543" cy="199.94705" rx="10.026536" ry="9.533427"/>
        <ellipse cx="93.97756" cy="204.71377" rx="10.026536" ry="9.533427"/>
        <ellipse cx="89.37522" cy="231.67038" rx="10.026536" ry="9.533427"/>
        <ellipse cx="60.28183" cy="227.56112" rx="10.026536" ry="9.533427"/>
        <path d="m367.239 114.415 2.785 12.434 9.316-2.36-2.829-12.368Z"/>
      </g>
      <g id="Small_Buildings-2" data-name="Small Buildings">
        <path d="m842.679 298.347.016-7.304 8.801.021-.022 7.304Z"/>
        <path d="m663.123 401.278 1.889-12.517 7.284 1.047-1.67 12.404Z"/>
        <path d="m192.439 398.089-2.895-3.471 6.41-5.356 2.894 3.473Z"/>
        <path d="m200.209 404.698 5.85-3.592 4.18 5.84-5.96 3.815Z"/>
        <path d="m600.897 299.517.459-19.108 24.447.427.208 18.995Z"/>
        <path d="m105.003 321.208 12.035-9.996 10.53 12.658-11.59 9.996Z"/>
        <path d="m810.958 305.578.016-7.795 8.47.02-.022 7.797Z"/>
        <path d="m673.364 341.696.928-6.783 8.8 1.218-.816 6.782Z"/>
        <path d="m892.188 273.004-3.315-5.97 7.349-4.203 3.65 5.97Z"/>
        <path d="m873.253 120.335.016-6.321 10.113.025-.016 6.32Z"/>
        <path d="m960.369 76.283.02-6.991 15.7.038-.02 6.991Z"/>
        <path d="m488.068 317.018.494-4.516 7.313.555-.519 4.759Z"/>
        <path d="m590.357 330.297.726-5.101 6.644.908-.726 5.322Z"/>
        <path d="m324.185 293.468 1.197-8.222 13.552 1.47-1.154 8.513Z"/>
        <path d="m110.811 305.991 5.038-4.523 4.112 4.34-5.037 4.745Z"/>
        <path d="m515.41 431.997.484-9.684 6.772.436-.484 9.572Z"/>
        <path d="m663.832 419.113.966-7.088 3.939.537-.972 7.09Z"/>
        <path d="m669.735 278.728 2.556-6.45 4.008 1.624-2.562 6.672Z"/>
        <path d="m861.79 272.856 1.014-3.95 10.551 1.804-1.233 4.171Z"/>
        <path d="m869.144 95.679.016-7.464 7.156.017-.021 7.464Z"/>
        <path d="m938.999 85.981.02-7.457 4.19.01-.01 7.457Z"/>
      </g>
    </g>
    <g id="Limit" class="map_border">
      <path d="m504.3 2.858-69.784 90.757-21.96 2.617-78.575 15.485 5.855 32.814-.949 26.133-297.7952-37.186.966 12.429-15.0019 109.121 18.6949 2.902-7.889 47.33s7.031 4.736 7.537 8.485c.538 3.992-3.541 7.24-5.349 10.841-4.995 9.945-11.9078 19.096-15.1972 29.727-3.6804 11.895-5.0614 24.602-4.7512 37.049.1735 6.955 4.5024 13.634 3.6826 20.543-.604 5.088-7.9403 9.265-6.1794 14.078 1.5951 4.36 7.8848 5.688 12.5062 6.129 9.969.954 19.177-9.837 28.996-7.867 4.354.873 6.64 6.012 10.517 8.177 7.692 4.296 17.527 4.221 24.759 9.253 5.9472 4.137 8.7742 11.655 14.2112 16.442 8.901 7.837 23.853 9.323 29.648 19.671 2.516 4.493-2.25 11.122.556 15.441 5.124 7.889 16.477 9.277 25.354 12.391 6.701 2.35 14.438 1.476 20.791 4.651 9.383 4.691 14.003 17.038 23.925 20.441 11.035 3.786 24.303 3.13 34.962-1.61 10.576-4.702 12.907-23.497 24.42-24.682 9.772-1.005 14.859 17.837 24.561 16.291 8.763-1.397 10.08-14.768 16.513-20.88 16.264-15.452 32.431-39.608 54.855-38.99 10.261.282 15.017 14.376 24.08 19.194 34.192 18.173 73.01 26.496 110.834 34.779 12.033 2.636 24.772 7.921 36.654 4.688 22.937-6.239 39.534-26.877 56.398-43.625 11.794-11.713 17.712-28.957 30.777-39.235 4.296-3.382 9.579-5.67 14.931-6.804 10.604-2.249 21.689.028 32.527.322 20.648.557 41.253 2.569 61.906 2.734 10.545.084 31.619-.893 31.619-.893s9.281-28.087 11.239-42.662c1.34-10-3.89-21.081.283-30.264 2.247-4.947 6.746-10.969 12.178-10.834 11.495.286 59.552 3.351 59.552 3.351l5.993-12.758 9.974-8.954 124.765-66.199 5.36-3.131 4.86-4.576 18.341-21.099.18-10.971 14.28-6.624 3.25-113.573-14.82-10.042.71-24.824-24.261-6.095-19.62 6.617-15.75-.074-25.5-4.823-67.904-1.347-1.009 18.018-66.585.113-42.672 7.499c5.95 14.365 7.887 30.007 8.416 44.865l-32.175 8.298 1.083 14.087-76.287 19.046-10.956-50.022-87.826 16.204-26.769-43.962-7.481-28.887 16.383-35.199Z"/>
    </g>
    <g id="Sniper" class="danger">
      <path d="m481.625 34.6752 22.772-29.9456 35.248 28.6979-15.285 33.6888Z"/>
    </g>
  </g>
</svg>
