<svg xmlns="http://www.w3.org/2000/svg" xml:space="preserve" id="svg89" width="1995.6444" height="993.69934" version="1.1" viewBox="0 0 1995.6445 993.69935">
  <style id="style_common">
    .cement { fill:#c6c2c2 }
    .land { fill:#0c343c }
    .rock { fill:#ffffcd }
    .water { fill:#0056ab }
    .wood { fill:#593700 }
    .tarmac { fill:#888 }
    .gravel { fill:#946d3e }
    .building { fill:#88d1fd }
    .map_border { fill:none;stroke:#000;stroke-width:8 }
    .fence { fill:none;stroke:#c4e3c3;stroke-width:4 }
    .road_tarmac { fill:none;stroke:#888;stroke-width:16 }
    .road_gravel { fill:none;stroke:#946d3e;stroke-width:12 }
    .road_rail { fill:none;stroke:#914833;stroke-dasharray:15;stroke-width:7 }
    .danger { fill:red;fill-opacity:.4;stroke:red;stroke-dasharray:8,4;stroke-width:4 }
  </style>
  <g id="Ground_Level">
    <g id="Base_Terrain" class="land" data-name="Base Terrain">
      <path id="Base_Map_Shape" d="M947.582 0 816.819 170.064l-41.15 4.904-147.236 29.015 10.972 61.489-1.778 48.968-558.0189-69.68 1.8093 23.291-28.1108 204.474 35.0307 5.438-14.7822 88.689s13.1752 8.873 14.1222 15.899c1.0085 7.481-6.6335 13.566-10.0224 20.314-9.3596 18.636-22.313 35.782-28.4769 55.703-6.8964 22.289-9.4841 46.1-8.9029 69.424.325 13.032 8.4367 25.549 6.9005 38.494-1.1317 9.534-14.8788 17.361-11.5792 26.38 2.9891 8.17 14.7749 10.659 23.4347 11.485 18.6806 1.788 35.9336-18.433 54.3329-14.742 8.159 1.637 12.443 11.267 19.708 15.323 14.414 8.05 32.842 7.91 46.394 17.339 11.143 7.752 16.441 21.839 26.629 30.81 16.68 14.685 44.696 17.469 55.555 36.859 4.715 8.42-4.216 20.842 1.042 28.934 9.602 14.783 30.875 17.384 47.51 23.218 12.557 4.405 27.054 2.767 38.958 8.716 17.582 8.791 26.24 31.927 44.833 38.304 20.677 7.093 45.538 5.864 65.513-3.017 19.816-8.811 24.185-44.03 45.758-46.251 18.311-1.883 27.843 33.424 46.023 30.527 16.42-2.617 18.889-27.673 30.943-39.125 30.476-28.955 60.77-74.219 102.79-73.062 19.227.528 28.138 26.939 45.121 35.967 64.071 34.053 136.808 49.649 207.684 65.17 22.549 4.94 46.419 14.843 68.685 8.784 42.98-11.691 74.08-50.362 105.68-81.746 22.1-21.948 33.19-54.26 57.67-73.52 8.05-6.337 17.95-10.624 27.98-12.749 19.87-4.214 40.64.052 60.95.603 38.69 1.044 77.3 4.815 116 5.123 19.76.158 59.25-1.673 59.25-1.673s17.39-52.63 21.06-79.942c2.51-18.737-7.29-39.501.53-56.71 4.21-9.269 12.64-20.554 22.82-20.301 21.54.536 111.59 6.28 111.59 6.28l11.23-23.907 18.69-16.778 233.79-124.045 10.05-5.867 9.1-8.576 34.37-39.535.34-20.559 26.75-12.412 6.1-212.816-27.77-18.817 1.32-46.517-45.46-11.42-36.76 12.399-29.51-.139-47.78-9.037-127.25-2.524-1.89 33.761-124.77.213-79.96 14.052c11.15 26.918 14.78 56.227 15.77 84.069l-60.29 15.55 2.03 26.395-142.95 35.69-20.53-93.733-164.57 30.363-50.162-82.376-14.017-54.13 30.699-65.9583Z"/>
    </g>
    <g id="River" class="water">
      <path id="River-3" d="M1449.53 490.292c-4.24.038-8.74 1.299-12.56 2.729-5.26 1.976-8.88 6.918-13.01 10.729-8.23 7.589-20.67 19.645-25.29 24.1.01 2.175.01 4.356.01 6.5-.03 13.12 7.92 26.395 4.62 39.092-3.95 15.171-22.51 23.266-27.56 38.106-1.89 5.576-2.79 12.231-.51 17.665 2.77 6.622 14.45 7.581 15.81 14.634 2.11 10.947-12.67 19.182-14.37 30.199-2.73 17.657 7.04 35.234 7.34 53.099.57 34.128-10.61 101.841-10.61 101.841l57.39-3.012s20.21-68.795 24.28-104.072c2-17.371-3.1-35.124-.76-52.453 2.2-16.372 12.38-31.453 12.45-47.973.05-11.15-8.54-21.308-8.11-32.448.89-22.664 15.46-42.67 21.67-64.504-3.01-2.205-11.41-8.488-15.17-13.843-3.76-5.368-1.85-14.653-7.34-18.246-2.18-1.429-4.74-2.048-7.43-2.133-.28-.01-.56-.013-.85-.01Zm-12.86 130.639c1.74 1.929 4.15 5.721 3.79 8.072-1.15 7.559 5.38 17.577 2.76 21.604-3.86 5.938-17.76 15.912-19.84 17.378-6.01 4.243-2.86-14.553-2.72-21.911.11-5.432.51-11.091 2.65-16.084 1.47-3.44 3.48-7.182 6.77-8.956.47-.252 6.24-.497 6.59-.103Z"/>
      <path id="River-2" d="M1483.66 312.902c-.35.005-.71.018-1.06.038-1.87.113-3.7.461-5.44 1.102-6.23 2.301-7.98 10.829-13.22 14.905-6.65 5.165-18 10.193-23.92 12.73-4.39 14.139-13.85 26.708-18.84 40.77-5.55 15.651-21.14 33.228-13.48 47.963 3.58 6.886 20.61.073 21.96 7.712 1.75 9.843-19.49 9.777-23.13 19.087-1.23 3.15-2.26 6.417-3.13 9.762 2.88 4.014 6.66 8.293 9.99 8.401 7.9.26 8.05-15.549 15.61-17.835 15.13-4.567 29.98 11.385 45.75 12.426 5.24.348 12.42-.949 17.44-1.97.21-1.39.43-2.779.63-4.172 3.24-22.311 1.76-45.211 5.84-67.383 3.32-18.04 11.6-34.916 15.1-52.924.58-2.957 1.15-5.926 1.73-8.893-4.21-6.082-10.55-14.365-16.38-17.542-4.25-2.321-9.39-4.006-14.38-4.167-.36-.012-.71-.015-1.07-.01Z"/>
      <path id="River-1" d="m1489.93 108.394-82.22 13.634s19.28 56.375 24.79 85.551c3.09 16.396 3.59 33.171 4.67 49.838 3.09 4.212 14.14 19.085 21.99 23.997 7.68 4.797 19.33-.861 26.83 4.199 4.97 3.355-2.01 15.106 3.74 16.813 8.5 2.527 27.6-9.084 33.4-13.908 1.88-15.767 2.74-31.581 1.55-47.347-3.42-45.621-34.75-132.777-34.75-132.777Z"/>
    </g>
    <g id="Railway" class="road_rail">
      <path d="M374.839 985.93S497.68 837.026 561.803 758.183c12.036-14.798 43.56-28.304 57.924-38.028 14.452-9.783 25.164-17.475 35.434-28.674 11.528-12.572 20.64-27.345 28.634-42.413 6.698-12.622 13.088-25.782 15.97-39.776 16.72-81.175 24.79-163.979 42.773-247.865 4.657-21.721 19.988-43.557 33.646-61.076 72.574-93.103 218.435-276.3489 218.435-276.3489" style="stroke-dashoffset:9.8"/>
      <path d="M121.668 267.385s371.495 47.423 553.91 70.25c14.429 1.808 29.74 2.444 43.584-2.018 12.659-4.078 25.111-11.4 33.436-21.771C824.599 224.161 986.62 19.4616 986.62 19.4616" style="stroke-dashoffset:18.2"/>
      <path d="M883.94 499.884s-29.315-145.203-42.248-222.411c-2.043-12.196-2.088-22.522.293-37.097 5.349-32.733 35.47-68.96 35.47-68.96" style="stroke-dashoffset:28"/>
      <path d="m1563.1 705.054 19.73-627.5238"/>
      <path d="M123.149 257.51s373.124 46.917 553.908 70.253c14.685 1.895 30.312-.028 44.081-5.474 13.012-5.15 23.543-13.105 32.151-24.142C825.009 206.203 983.164 9.58837 983.164 9.58837"/>
      <path d="M450.472 493.73s11.596-76.145 19.823-120.33c2.857-15.336 18.844-36.463 33.126-42.74 29.733-13.068 63.748-6.673 63.748-6.673" style="stroke-dashoffset:14.7"/>
      <path d="M337.662 479.756s8.723-76.718 16.951-120.903c2.857-15.336 18.774-36.624 33.123-42.741 32.868-14.009 65.005-6.046 65.005-6.046" style="stroke-dashoffset:18.2"/>
      <path d="M357.763 483.201s8.726-76.715 16.953-120.903c2.855-15.336 18.619-36.999 33.124-42.738 32.239-12.757 64.689-7.617 64.689-7.617" style="stroke-dashoffset:7.7;stroke-width:7.0"/>
      <path d="M1591.81 470.717s5.54-189.951 8.56-287.058c.86-27.667-18.11-55.742-18.11-93.0491" style="stroke-dashoffset:22.4"/>
      <path d="M721.122 142.043s3.122 22.597 9.363 48.854c3.542 14.905 12.29 30.262 25.281 38.382 10.202 6.378 24.298 8.19 35.796 4.644 18.238-5.625 42.77-38.067 42.77-38.067" style="stroke-dashoffset:12.6"/>
    </g>
    <g id="Dirt_Roads" class="road_gravel">
      <path d="M147.745 673.45s23.128 26.834 38.941 33.271c14.771 6.015 53.987 2.096 77.951 13.04 24.798 11.325 43.069 41.892 63.017 52.133 12.532 6.432 40.204-13.028 40.204-13.028"/>
      <path d="M977.523 946.249c-30.424 19.367-20.641 25.446-40.564 42.578"/>
    </g>
    <g id="Roads" class="road_tarmac">
      <path d="M260.639 530.992s-9.582 27.925-17.484 40.224c-7.973 12.407-19.498 22.137-29.58 32.898-17.659 18.851-37.154 35.98-54.124 55.45-12.97 14.883-26.412 29.703-36.33 46.772-11.593 19.95-21.307 41.471-26.4707 63.958-6.1845 26.936-4.887 82.764-4.887 82.764"/>
      <path d="M13.133 397.317s-15.13982 52.22 28.0835 58.312C206.32 478.897 618.776 538.103 618.776 538.103"/>
      <path d="M613.502 574.191s37.318-229.337 45.57-279.947c1.162-7.126 1.017-14.558-.283-21.661-7.438-40.66-17.128-92.787-17.128-92.787"/>
      <path d="M68.1776 462.109s12.4063-103.547 20.2811-154.257c.8849-5.699 5.2736-10.892 10.1048-14.041 4.8175-3.138 11.1705-4.259 16.8775-3.558 58.766 7.198 125.525 14.442 184.551 21.883 8.623 1.087 24.51 8.889 24.51 8.889"/>
      <path d="M978.302 622.019c-9.432 31.245-9.59 79.802-28.416 247.036"/>
      <path d="M1182.93 178.026s-3.58 36.448-1.21 54.447c5.45 41.427 28.84 79.025 35.1 120.338 1.12 7.424 2.64 15.361.38 22.525-2.32 7.356-7.57 13.901-13.59 18.728-7.86 6.308-18.53 7.91-27.72 12.036-7.17 3.22-16.54 3.744-21.39 9.928-4.95 6.307-6.52 15.802-4.65 23.594 3.95 16.407 9.64 33.103 10.72 48.043.51 7.126-5.53 13.874-11.13 18.324-8.64 6.875-23.82 2.411-31.46 10.388-7.15 7.464-8.43 29.831-8.43 29.831"/>
      <path d="m1919.3 193.47-281.67.111"/>
    </g>
    <g id="Main_Roads" class="road_tarmac" style="stroke-width:24.0">
      <path d="M1990.02 379.354s-258.25 136.938-376.53 189.313c-20.12 8.909-42.27 13.819-64.23 15.234-22.07 1.422-43.99-4.507-65.97-6.901-37.8-4.114-77.18-10.942-113.35-12.827-11.02-.574-22.68 3.059-31.79 9.292-9.88 6.752-15.89 18.102-21.9 28.451-10.56 18.195-18.92 37.903-24.35 58.229-17.37 64.965-25.4 200.134-25.4 200.134"/>
      <path d="M1292.06 661.66S461.262 557.124 62.6947 505.212c-45.6172-5.941-55.74719-13.134-55.74719-13.134"/>
      <path d="M1242.64 656.62s52.38-134.171 74.85-202.559c7.31-22.254 14.17-44.255 16.9-67.521 2.64-22.519 2.26-45.462-.66-67.946-3.09-23.829-15.06-70.49-15.06-70.49"/>
      <path d="m1925.73 75.0579-14.64 448.3551"/>
    </g>
    <g id="Pavement" class="cement">
      <path d="m1602.49 230.607-5.53 231.379 88.89 9.758 39.11-1.252-.2-79.114-65.12-1.094L1662.65 277l12.83.368.83-45.773Z"/>
      <path d="m1782.49 220.717-4.84 221.982 103.16-50.37 3.49-170.044Z"/>
      <path d="m1630.27 115.126-2.65 65.521 122.66 2.356 2.65-64.894Z"/>
      <path d="m995.005 438.155-91.948 11.309 9.479 61.016 93.374-14.244Z"/>
      <path d="m1180.63 296.843-88.35 9.872 5.04 53.755 35.74-3.107 3.65 17.289 49.79-6.552Z"/>
      <path d="m1006.07 522.682 5.4 74.376 110.17 10.739 7.99-85.13Z"/>
      <path d="m782.489 353.357-19.688 52.11 78.168 13.39 13.543-3.815-7.642-52.874Z"/>
      <path d="m655.096 286.35-12.343-73.475 79.337-19.839 14.016 71.811Z"/>
      <path d="m894.914 807.095-11.157 80.867 41.426 6.335 3.588-27.094 27.339 3.397 6.037-55.199Z"/>
      <path d="m497.249 574.356-8.032 79.842 92.021 11.01 10.336-79.575Z"/>
      <path d="m480.619 412.793-18.904 113.109 225.701 31.788 6.547-41.719-86.788-13.505 10.822-70.536Z"/>
      <path d="m310.272 313.649-8.185 65.445 40.202 4.93 8.215-65.531Z"/>
      <path d="m810.149 631.601-4.219 42.525 96.243 3.801-1.032-44.578Z"/>
      <path d="m982.496 501.99-117.545 20.271 6.843 45.455 43.161-7.732 3.362 21.247 17.59 10.294 41.436 4.527-4.472-47.345 16.295-3.506Z"/>
      <path d="m353.213 738.127-6.267 26.31-.44 38.352 11.542 5.18 20.99-21.605 18.621-8.701 15.519-24.01-37.976-32.176Z"/>
    </g>
    <g id="Fence" class="fence">
      <path d="m87.8141 477.784 12.0144 1.677m13.6905 2.235 111.483 15.088m15.368 2.235 85.777 11.735m14.809 2.235 258.73 36.323 10.617-5.029 24.588 3.353 5.588 7.264 45.823 6.706 7.264-4.471 27.941-190.554-12.294-19-14.529-1.676"/>
    </g>
    <g id="Buildings" class="building">
      <g id="Garages-2" data-name="Garages">
        <path d="m1798.06 220.093.69-12.087 85.28 1.849-.04 12.087Z"/>
        <path d="m1837.42 381.663 1.45-65.681 30.6 1.695-1.78 65.03Z"/>
        <path d="m1789.65 404.255 3.14-89.515 31.82 1.377-2.23 82.389Z"/>
        <path d="m1839.44 298.015 1.45-64.833 31.24 1.043-1.45 64.834Z"/>
        <path d="m1793.41 295.618 2.44-64.17 31.08 1.375-1.45 64.17Z"/>
        <path d="m1763.82 427.603 4.96-190.81 13.13.396-4.63 190.772Z"/>
        <path d="m1881.45 391.969 3.31-166.133 13.99.358-3.64 166.458Z"/>
        <path d="M1777.81 443.147 1878 394.55l6.12 11.49-99.55 50.227Z"/>
        <path d="m1277.85 336.932-12.51 1.359 2.96 39.684 12.5-1.362Z"/>
        <path d="m1304.31 364.103-11.79-.172-.08 33.166 11.76-.353Z"/>
      </g>
      <g id="Big_Buildings-2" data-name="Big Buildings">
        <path d="m888.201 272.528 47.348-9.517 22.422 111.553-47.348 9.518Z"/>
        <path d="m525.082 592.429-2.219 10.601-8.405-.799-2.156 17.948-5.739-.296-1.83 15.667 64.146 3.182 2.762-40.845Z"/>
        <path d="m744.238 539.548 24.638-132.674 63.505 11.793-24.638 132.674Z"/>
        <path d="m636.105 504.554 20.348-127.648 56.85 7.766-19.472 129.108Z"/>
        <path d="m517.938 415.572 9.986-73.092 104.014 14.212-9.985 73.09Z"/>
        <path d="m374.361 477.375 12.481-91.37 74.86 9.747-14.307 92.101Z"/>
        <path d="m1247.82 386.605-23.97 4.808 5.59 29.808-64.43 12.542 11.62 57.969 39.63-7.942-2.5-12.457 50.14-10.053Z"/>
        <path d="m1120.21 371.903-48.79 9.061 4.82 25.895 16.36-3.037 3.69 18.323-78.21 15.444 4.74 23.591 43.49-7.97 8.33 41.474 67.21-13.509-13.15-65.43-3.34.659-3.62-17.995 3.29-.611Z"/>
        <path d="m137.566 333.799 4.36-31.911 45.733 5.704-3.775 31.618Z"/>
        <path d="m223.332 353.85 6.339-46.243 78.441 10.754-6.34 46.241Z"/>
        <path d="m216.909 470.662 11.604-84.933 40.556 5.541-11.603 84.933Z"/>
        <path d="m962.52 825.847-5.243 46.654-24.663-3.531-4.326 32.407 57.566 7.279 8.345-78.878Z"/>
        <path d="m863.987 521.222 7.181 47.658 91.322-16.6-8.052-46.357Z"/>
        <path d="m1663.01 277.648-2.87 112.002 59.33 1.119 2.22-112.001Z"/>
        <path d="m861.115 791.834-11.515 81.38 34.723 3.991 10.864-80.728Z"/>
        <path d="m1126.62 251.243 29.05-5.838 8.84 44.024-29.04 5.839Z"/>
        <ellipse cx="123.57458" cy="369.31232" rx="18.788071" ry="17.864067"/>
        <ellipse cx="178.7068" cy="378.24435" rx="18.788071" ry="17.864067"/>
        <ellipse cx="170.08276" cy="428.75656" rx="18.788071" ry="17.864067"/>
        <ellipse cx="115.56656" cy="421.05652" rx="18.788071" ry="17.864067"/>
        <path d="m690.753 209.04 5.218 23.298 17.457-4.422-5.3-23.175Z"/>
      </g>
      <g id="Small_Buildings-2" data-name="Small Buildings">
        <path d="m1581.65 553.697.03-13.686 16.49.04-.04 13.686Z"/>
        <path d="m1245.19 746.573 3.54-23.454 13.65 1.961-3.13 23.243Z"/>
        <path d="m363.206 740.598-5.423-6.505 12.011-10.035 5.423 6.507Z"/>
        <path d="m377.766 752.982 10.962-6.732 7.834 10.944-11.169 7.148Z"/>
        <path d="m1128.59 555.89.86-35.805 45.81.799.39 35.594Z"/>
        <path d="m199.367 596.535 22.551-18.731 19.732 23.719-21.719 18.731Z"/>
        <path d="m1522.21 567.247.03-14.607 15.87.038-.04 14.61Z"/>
        <path d="m1264.38 634.926 1.74-12.709 16.49 2.281-1.53 12.709Z"/>
        <path d="m1674.42 506.209-6.21-11.187 13.77-7.875 6.84 11.187Z"/>
        <path d="m1638.94 220.132.03-11.844 18.95.046-.03 11.843Z"/>
        <path d="m1802.18 137.587.03-13.101 29.42.071-.03 13.101Z"/>
        <path d="m917.166 588.683.926-8.461 13.704 1.039-.972 8.919Z"/>
        <path d="m1108.84 613.566 1.36-9.557 12.45 1.7-1.36 9.973Z"/>
        <path d="m610.077 544.555 2.244-15.406 25.394 2.754-2.164 15.952Z"/>
        <path d="m210.25 568.021 9.44-8.475 7.706 8.132-9.44 8.891Z"/>
        <path d="m968.402 804.136.906-18.146 12.69.817-.907 17.935Z"/>
        <path d="m1246.52 779.994 1.81-13.283 7.38 1.006-1.82 13.286Z"/>
        <path d="m1257.58 516.935 4.79-12.086 7.51 3.042-4.8 12.502Z"/>
        <path d="m1617.46 505.931 1.9-7.401 19.77 3.38-2.31 7.817Z"/>
        <path d="m1631.24 173.931.03-13.986 13.41.032-.04 13.987Z"/>
        <path d="m1762.14 155.759.03-13.973 7.86.019-.03 13.973Z"/>
      </g>
    </g>
  </g>
</svg>
