<?xml version="1.0" encoding="utf-8"?>
<!-- Generator: Adobe Illustrator 25.1.0, SVG Export Plug-In . SVG Version: 6.00 Build 0)  -->
<svg version="1.1" xmlns="http://www.w3.org/2000/svg" xmlns:xlink="http://www.w3.org/1999/xlink" x="0px" y="0px"
	 viewBox="0 0 752.9 369.3" style="enable-background:new 0 0 752.9 369.3;" xml:space="preserve">
<style type="text/css">
	.st0{fill:#0C343D;}
	.st1{fill:#0056AA;}
	.st2{fill:#BDBDBD;}
	.st3{fill:#FFFFFF;}
	.st4{fill:none;stroke:#B4B4B4;stroke-width:7;stroke-miterlimit:10;}
	.st5{fill:none;stroke:#B4B4B4;stroke-width:5;stroke-miterlimit:10;}
	.st6{fill:none;stroke:#B4B4B4;stroke-width:2;stroke-miterlimit:10;}
	.st7{fill:none;stroke:#CB7E54;stroke-width:2;stroke-miterlimit:10;}
	.st8{fill:none;stroke:#CB7E54;stroke-width:2;stroke-miterlimit:10;stroke-dasharray:5.9583,5.9583;}
	.st9{fill:none;stroke:#CB7E54;stroke-width:2;stroke-miterlimit:10;stroke-dasharray:6;}
	.st10{fill:#D2E4D8;}
	.st11{enable-background:new    ;}
	.st12{fill:#668080;}
	.st13{fill:#BEEEEE;}
	.st14{fill:#BDEEEE;}
</style>
<g id="Base_Terrain">
	<polygon id="Base_Map_Shape" class="st0" points="749.8,55.6 752.9,79.6 749.8,87.1 752.9,97.3 752.9,126.2 733.8,152 733.8,160.4 
		737.8,168.4 733.8,200.9 749.8,208 737.3,298.7 515.6,267.6 515.6,287.1 518.7,310.7 460.9,323.6 447.1,323.6 407.1,369.3 
		387.1,350.2 382,329.8 352.9,297.8 292,308.9 284.9,277.8 226.7,293.3 226.7,300.9 200.9,305.8 207.6,333.3 174.2,339.1 123.6,336 
		121.3,346.7 72,345.8 61.8,341.8 40.4,341.8 28.4,348 9.8,344.9 9.8,328.9 0,323.6 4,232.9 12.9,233.8 13.3,218.2 22.2,207.6 
		29.3,204.4 33.3,197.8 123.1,152 131.6,145.8 138.7,134.2 187.6,136.4 192,126.7 192,108 200,75.6 222.7,74.7 268,75.1 296,76.4 
		305.3,70.7 314.2,55.6 365.8,10.7 392.9,13.8 476.9,37.8 493.8,49.8 521.3,28 558.2,13.8 557.3,6.2 571.1,0 603.1,10.7 618.2,21.8 
		651.6,28 664.9,28.4 665.3,40 687.6,54.7 708,61.8 718.2,58.2 719.1,52.9 	"/>
	<polygon id="River" class="st1" points="200,75.6 192,108 192,126.7 187.6,136.4 187.6,161.3 183.1,180 177.3,212.9 169.8,257.3 
		165.3,283.6 165.3,303.1 174.2,339.1 207.6,333.3 200.9,305.8 197.3,293.8 198.7,267.6 200.4,247.1 207.6,226.7 210.7,207.3 
		212.8,187 213.3,181.3 217.8,157.3 224.4,148.4 221.3,140.9 221.3,128.4 222.2,116.9 221.8,96.4 226.2,75.6 	"/>
	<path id="Lower_Land_Bridge" class="st0" d="M199.1,271.1l-12.9,2.2l-5.8,4.4l-4.4,3.1l-9.4-4.9c-2.2,1-2.5,10.7-2.6,20.9l10.7-6.2
		l10.2,6.2h13.4L199.1,271.1z"/>
	<polygon id="Upper_Land_Bridge" class="st0" points="203.8,195.9 212.8,187 210.5,208.8 201.7,212.3 189.4,209.3 184,206.6 
		177.4,208.6 180.9,187.7 190.1,192.1 191.3,197.1 200.4,197.4 	"/>
</g>
<g id="Pavement">
	<polygon class="st2" points="89.1,201.1 116.8,187 135.1,195.4 133.4,305.1 107.4,305.1 109.1,238.4 86.1,237.8 86.1,203.4 	"/>
	<polygon class="st2" points="63.4,217.8 26.1,236.1 23.4,240.4 23.4,305.1 66.1,305.1 66.1,217.8 	"/>
	<polygon class="st2" points="76.8,320.1 123.1,320.1 123.1,346.4 76.8,345.9 	"/>
	<polygon class="st2" points="405.4,217.8 374.1,223.4 368.8,199.6 401.4,193.1 	"/>
	<polygon class="st2" points="295.1,261.4 333.8,252.1 338.4,271.1 300.1,281.4 	"/>
	<polygon class="st2" points="307.8,173.1 363.4,181.1 366.4,154.8 312.4,146.8 	"/>
	<polygon class="st2" points="434.1,229.8 470.1,238.1 466.4,258.8 434.1,252.1 429.8,229.8 	"/>
	<polygon class="st2" points="476.4,290.1 508.8,281.4 513.8,310.8 482.1,318.8 	"/>
	<polygon class="st2" points="387.1,72.1 415.4,75.6 418.4,41.8 402.8,39.8 400.8,48.4 390.4,47.1 	"/>
	<polygon class="st2" points="539.4,129.4 575.4,135.4 570.8,168.1 534.8,160.8 	"/>
	<polygon class="st2" points="495.1,171.1 589.8,187.1 582.4,236.1 513.8,223.4 517.1,195.1 492.1,189.8 	"/>
	<polygon class="st2" points="633.8,241.4 648.8,241.4 644.8,269.4 629.8,266.8 	"/>
	<polygon class="st2" points="449.9,165.1 431.8,163.9 431.8,184.7 446.8,187 	"/>
	<polygon class="st2" points="382,156.1 421.4,162.1 425.8,188.8 382,197 381.1,184.7 	"/>
	<polygon class="st3" points="618,71.8 607,69.2 603.9,79 597.6,87.2 605.2,97.4 618,98.4 619.6,87.8 623.6,81.7 	"/>
</g>
<g id="Roads">
	<path class="st4" d="M4.8,323.4c4.3-44.1,3.8-64.7,2-75c-0.3-1.6-1.2-6.4,0.7-11.7c3.8-11,16.2-15.9,20.7-17.7
		c40.1-16.1,112.3-54.7,112.3-54.7l0,0c3.2-0.6,7.9-1.3,13.7-1.7c8.7-0.5,14.9,0.3,25.7,1.7c15.7,2.1,31.8,1.4,47.3,4.7
		c2.2,0.5,7.3,1.6,11.7-1c4.1-2.4,5.6-6.7,6.7-9.7c9-25,7.2-15,9.7-25.3c5.6-23.4,8.9-50,9.7-56.3"/>
	<path class="st4" d="M256.8,130.8c8.1,1.4,20.4,3.5,35.7,5.7c16.3,2.3,24.9,3.1,42,5c28,3.2,27.7,3.7,63.3,8
		c32.9,4,31.7,3.4,58,6.7c25.8,3.2,26.7,3.7,65.7,9c27,3.7,47.9,6.3,80.3,10.3c39.2,4.9,42.3,5.1,61.3,7.7
		c30.2,4,54.7,7.8,70.7,10.3"/>
	<path class="st5" d="M667.4,182.4c0-4.7,0.7-11.4,4.7-17.7c2.9-4.6,5.5-5.7,11.3-10.7c5.8-4.9,11-11,21.3-23.3
		c7.3-8.6,10.9-12.9,13.3-16.7c8.8-13.6,12.1-25.9,13-29.7c3-12.1,3-22.7,2.3-30.3"/>
	<path class="st5" d="M745.4,210.8c-28.9-3.9-52.2-7.2-67.3-9.3c-30.1-4.3-46.5-6.8-90.7-13.3c-27-4-48.7-7.1-61.7-9"/>
	<path class="st5" d="M525.1,166.4c-0.4,2.6-0.9,6.7-1.7,11.7c-2.8,19-4.3,26.3-7,42.7c-1,6.3-5.1,31.2-9,63c-0.4,3.5-0.8,6.4-1,8.3
		"/>
	<path class="st5" d="M738.8,210.4c-1.5,22.6-3.1,39.6-4,46.7c-1.7,13.8-3.1,11.4-3,16.3c0,0.8,0.1,2.4-1,3.7
		c-2.2,2.5-7.2,1.3-8.7,1c-7.3-1.6-37.6-5.3-80.3-10.3"/>
	<path class="st5" d="M274.4,133.4c-4.5,13.5-8.3,24.4-11,31.7c-5.4,15-11.1,29.4-17.7,50.3c-3.6,11.3-5.5,18.3-6,27.7
		c-0.4,7.7,0.3,14.5,1,22c0.9,9.3,2.2,17,3.3,22.7"/>
	<path class="st5" d="M381.1,146.4c2.9-26.3,5.8-52.7,8.7-79"/>
	<path class="st5" d="M297.8,306.8c-3.9-23.8-6.6-34.5-8.3-39.7c-1.5-4.4-1.9-9.2-3.3-13.7c-0.7-2.2-1.5-4.5-0.7-7
		c1.1-3.1,4-4.7,4.7-5c2.5-1.3,4.8-1.3,6.3-1.3c0.6,0,13.1-0.5,17-6c1.7-2.4,1.3-5.5,0.3-11.7c-2-13.3-6.8-17-4.3-22.7
		c1.8-4.1,6.4-7.2,6.7-7.3c2.5-1.7,3.8-1.6,5.3-2.7c2.4-1.7,4.7-5.4,4.3-14.7"/>
	<path class="st5" d="M5.1,314.4c13.8,0.6,27.6,1.2,41.7,1.7c24.3,0.8,48.1,1.4,71.7,1.7"/>
	<path class="st6" d="M704.4,127.3c-9.9-5.5-20.4-10.9-31.5-16.2c-8.1-3.8-12.1-5.7-16.8-7.7c-12.1-5-17.9-6.4-26.3-11.7
		c-4.6-2.8-8-5.6-10.2-7.5"/>
</g>
<g id="Railway">
	<g>
		<g>
			<path class="st7" d="M604.7,11.8c-0.7,0.7-1.4,1.5-2.1,2.2"/>
			<path class="st8" d="M598.6,18.4c-15,16.7-24.4,31.1-30.5,41.7c-3.8,6.7-9.7,18-22,29c-6.6,5.9-6.9,4.5-18.7,13.3
				c-14.1,10.6-24.7,18.8-31.7,32c-3.5,6.7-5,12.5-6.3,18.7c-10.3,47.5-4.4,69.4-15.7,96.7c-1.3,3.2-3.2,7.3-24,34.7
				c-20,26.3-38.1,48.7-53.1,66.7"/>
			<path class="st7" d="M394.8,353.4c-0.6,0.8-1.3,1.5-1.9,2.3"/>
		</g>
	</g>
	<path class="st9" d="M721.4,288.1c-31.1-3.7-56.2-7.1-72.7-9.3c-35.9-4.9-71.8-9.1-107.7-14.3c-12.6-1.9-25.6-0.8-38-3.7
		c-3.7-0.9-10.3-2.6-18-0.3c-6.9,2-11.3,6.3-13.3,8.3c-21.9,21.8-43,52.3-43,52.3c-6.7,9.6-16.9,23.4-31.3,39"/>
	<path class="st9" d="M416.8,196.8c2.5,10,6.2,24.7,10.7,42.7c3.9,15.6,5.6,22.9,6.7,33.3c1.2,11.9,0.8,21.7,0.3,28.3"/>
	<path class="st9" d="M147.1,134.6c-0.7,37.4-1.6,74.8-2.7,112.2c-0.9,30.1-1.9,60.2-3.1,90.3"/>
</g>
<g id="Buildings">
	<g>
		<g id="Garages_8_">
			<g>
				<g>
					<g>
						<polygon class="st10" points="45,265.2 43,268 32.2,267.8 34.2,265 						"/>
					</g>
					<g>
						<polygon class="st10" points="34.2,265 32.2,267.8 31.9,243.8 33.9,241 						"/>
					</g>
					<g>
						<polygon class="st10" points="44.7,241.1 45,265.2 34.2,265 33.9,241 						"/>
					</g>
				</g>
				<g>
					<g>
						<polygon class="st10" points="71.9,214.1 70,217 26.6,235.8 28.6,232.9 						"/>
					</g>
					<g>
						<polygon class="st10" points="69.6,209.1 71.9,214.1 28.6,232.9 26.2,227.9 						"/>
					</g>
					<g>
						<polygon class="st10" points="28.6,232.9 26.6,235.8 24.3,230.8 26.2,227.9 						"/>
					</g>
					<g>
						<polygon class="st10" points="70.8,295.6 68.9,298.5 68,221.6 69.9,218.7 						"/>
					</g>
					<g>
						<polygon class="st10" points="76.2,295.7 74.3,298.6 68.9,298.5 70.8,295.6 						"/>
					</g>
					<g>
						<polygon class="st10" points="75.3,218.8 76.2,295.7 70.8,295.6 69.9,218.7 						"/>
					</g>
				</g>
				<g>
					<g>
						<polygon class="st10" points="64.1,265.5 62.2,268.4 49.8,268.1 51.8,265.3 						"/>
					</g>
					<g>
						<polygon class="st10" points="51.8,265.3 49.8,268.1 49.5,239.2 51.4,236.3 						"/>
					</g>
					<g>
						<polygon class="st10" points="63.8,236.5 64.1,265.5 51.8,265.3 51.4,236.3 						"/>
					</g>
				</g>
				<g>
					<g>
						<polygon class="st10" points="45.3,295.2 43.4,298 32.6,297.9 34.5,295 						"/>
					</g>
					<g>
						<polygon class="st10" points="34.5,295 32.6,297.9 32.3,273.3 34.2,270.4 						"/>
					</g>
					<g>
						<polygon class="st10" points="45,270.6 45.3,295.2 34.5,295 34.2,270.4 						"/>
					</g>
				</g>
				<g>
					<g>
						<polygon class="st10" points="63,297.7 61,300.5 50.2,300.4 52.2,297.5 						"/>
					</g>
					<g>
						<polygon class="st10" points="52.2,297.5 50.2,300.4 49.9,275.8 51.9,272.9 						"/>
					</g>
					<g>
						<polygon class="st10" points="62.7,273.1 63,297.7 52.2,297.5 51.9,272.9 						"/>
					</g>
				</g>
				<g>
					<g>
						<polygon class="st10" points="28.9,298.5 26.9,301.3 21.5,301.2 23.5,298.4 						"/>
					</g>
					<g>
						<polygon class="st10" points="23.5,298.4 21.5,301.2 20.8,238.2 22.7,235.3 						"/>
					</g>
					<g>
						<polygon class="st10" points="28.1,235.4 28.9,298.5 23.5,298.4 22.7,235.3 						"/>
					</g>
				</g>
				<g>
					<g>
						<polygon class="st10" points="63.1,306.7 61.1,309.6 24.3,309 26.3,306.1 						"/>
					</g>
					<g>
						<polygon class="st10" points="26.3,306.1 24.3,309 24.2,302.6 26.2,299.7 						"/>
					</g>
					<g>
						<polygon class="st10" points="63,300.4 63.1,306.7 26.3,306.1 26.2,299.7 						"/>
					</g>
				</g>
				<g>
					<g>
						<polygon class="st10" points="274.8,262.1 272.9,265 265.3,265.8 267.3,262.9 						"/>
					</g>
					<g>
						<polygon class="st10" points="267.3,262.9 265.3,265.8 263,248.8 265,246 						"/>
					</g>
					<g>
						<polygon class="st10" points="272.5,245.2 274.8,262.1 267.3,262.9 265,246 						"/>
					</g>
				</g>
				<g>
					<g>
						<polygon class="st10" points="262.3,254.3 260.3,257.2 253.6,258.4 255.6,255.5 						"/>
					</g>
					<g>
						<polygon class="st10" points="255.6,255.5 253.6,258.4 250.3,243.4 252.3,240.5 						"/>
					</g>
					<g>
						<polygon class="st10" points="259,239.3 262.3,254.3 255.6,255.5 252.3,240.5 						"/>
					</g>
				</g>
				<g>
					<g>
						<polygon class="st10" points="640,129.5 638,132.3 626.7,130.6 628.6,127.8 						"/>
					</g>
					<g>
						<polygon class="st10" points="628.6,127.8 626.7,130.6 627.2,125.9 629.2,123 						"/>
					</g>
					<g>
						<polygon class="st10" points="629.2,123 640.6,124.7 640,129.5 628.6,127.8 						"/>
					</g>
				</g>
				<g>
					<g>
						<polygon class="st10" points="280.9,92.6 278.9,95.5 274.1,94.8 276.1,91.9 						"/>
					</g>
					<g>
						<polygon class="st10" points="276.1,91.9 274.1,94.8 275.5,83.6 277.5,80.7 						"/>
					</g>
					<g>
						<polygon class="st10" points="277.5,80.7 282.3,81.4 280.9,92.6 276.1,91.9 						"/>
					</g>
				</g>
				<g>
					<g>
						<polygon class="st10" points="617.2,96.4 615.2,99.3 611,97.9 612.9,95 						"/>
					</g>
					<g>
						<polygon class="st10" points="612.9,95 611,97.9 613.7,89.1 615.7,86.2 						"/>
					</g>
					<g>
						<polygon class="st10" points="615.7,86.2 619.9,87.6 617.2,96.4 612.9,95 						"/>
					</g>
				</g>
			</g>
		</g>
		<g id="Big_Buildings_8_">
			<g>
				<g>
					<g>
						<polygon class="st10" points="416.8,282.3 411.9,289.5 389.2,293.6 394.1,286.5 						"/>
					</g>
					<g>
						<polygon class="st10" points="394.1,286.5 389.2,293.6 379.5,249 384.4,241.8 						"/>
					</g>
					<g>
						<polygon class="st10" points="407.1,237.6 416.8,282.3 394.1,286.5 384.4,241.8 						"/>
					</g>
				</g>
				<g>
					<g>
						<polygon class="st10" points="465.2,232.1 460.3,239.3 436.7,234.6 441.6,227.4 						"/>
					</g>
					<g>
						<polygon class="st10" points="441.6,227.4 436.7,234.6 447,175.3 451.9,168.1 						"/>
					</g>
					<g>
						<polygon class="st10" points="451.9,168.1 475.5,172.8 465.2,232.1 441.6,227.4 						"/>
					</g>
				</g>
				<g>
					<g>
						<polygon class="st10" points="562.5,253.9 557.6,261.1 516.6,255 521.5,247.8 						"/>
					</g>
					<g>
						<polygon class="st10" points="521.5,247.8 516.6,255 519.8,229.1 524.7,222 						"/>
					</g>
					<g>
						<polygon class="st10" points="524.7,222 565.7,228.1 562.5,253.9 521.5,247.8 						"/>
					</g>
				</g>
				<g>
					<g>
						<polygon class="st10" points="510,240.1 505.1,247.3 484.2,244.2 489.1,237 						"/>
					</g>
					<g>
						<polygon class="st10" points="489.1,237 484.2,244.2 490.4,193.6 495.3,186.4 						"/>
					</g>
					<g>
						<polygon class="st10" points="495.3,186.4 516.3,189.5 510,240.1 489.1,237 						"/>
					</g>
				</g>
				<g>
					<g>
						<polygon class="st10" points="613.1,231.2 608.2,238.4 590.6,235.7 595.5,228.5 						"/>
					</g>
					<g>
						<polygon class="st10" points="595.5,228.5 590.6,235.7 594.4,205.2 599.3,198 						"/>
					</g>
					<g>
						<polygon class="st10" points="599.3,198 616.9,200.6 613.1,231.2 595.5,228.5 						"/>
					</g>
				</g>
				<g>
					<g>
						<polygon class="st10" points="351.5,206.8 346.6,214 345.1,214.3 350,207.1 						"/>
					</g>
					<g>
						<polygon class="st10" points="352.8,217.4 347.9,224.5 345.1,214.3 350,207.1 						"/>
					</g>
					<g>
						<polygon class="st10" points="366.8,214.7 361.9,221.9 348,225.1 352.9,217.9 						"/>
					</g>
					<g>
						<polygon class="st10" points="363.9,203.9 366.8,214.7 352.9,217.9 352.8,217.4 350,207.1 351.5,206.8 						"/>
					</g>
					<g>
						<polygon class="st10" points="352.9,217.9 348,225.1 347.9,224.5 352.8,217.4 						"/>
					</g>
					<g>
						<polygon class="st10" points="325.3,222.4 320.5,229.6 315.1,204.9 320,197.7 						"/>
					</g>
					<g>
						<polygon class="st10" points="352.8,217.4 347.9,224.5 320.5,229.6 325.3,222.4 						"/>
					</g>
					<g>
						<polygon class="st10" points="348.4,192.5 351.5,206.8 350,207.1 352.8,217.4 325.3,222.4 320,197.7 						"/>
					</g>
				</g>
				<g>
					<g>
						<polygon class="st10" points="117.4,272.8 112.5,280 88.2,279.6 93.1,272.4 						"/>
					</g>
					<g>
						<polygon class="st10" points="93.1,272.4 88.2,279.6 87.7,234.4 92.6,227.2 						"/>
					</g>
					<g>
						<polygon class="st10" points="116.8,227.7 117.4,272.8 93.1,272.4 92.6,227.2 						"/>
					</g>
				</g>
				<g>
					<g>
						<polygon class="st10" points="291.2,199.8 286.3,207 285.5,203.2 290.4,196 						"/>
					</g>
					<g>
						<polygon class="st10" points="295.3,218.6 290.4,225.8 286.3,207 291.2,199.8 						"/>
					</g>
					<g>
						<polygon class="st10" points="296.1,222.4 291.2,229.6 290.4,225.8 295.3,218.6 						"/>
					</g>
					<g>
						<polygon class="st10" points="307.8,192.8 313.5,219.2 296.1,222.4 295.3,218.6 291.2,199.8 290.4,196 						"/>
					</g>
					<g>
						<polygon class="st10" points="313.5,219.2 308.6,226.4 291.2,229.6 296.1,222.4 						"/>
					</g>
					<g>
						<polygon class="st10" points="295.3,218.6 290.4,225.8 281,227.5 285.9,220.3 						"/>
					</g>
					<g>
						<polygon class="st10" points="291.2,199.8 295.3,218.6 285.9,220.3 276.4,222.1 272.4,203.3 						"/>
					</g>
					<g>
						<polygon class="st10" points="276.4,222.1 271.5,229.3 267.5,210.5 272.4,203.3 						"/>
					</g>
					<g>
						<polygon class="st10" points="285.9,220.3 281,227.5 271.5,229.3 276.4,222.1 						"/>
					</g>
					<g>
						<polygon class="st10" points="288.5,232.4 283.6,239.6 274.1,241.3 279,234.1 						"/>
					</g>
					<g>
						<polygon class="st10" points="285.9,220.3 288.5,232.4 279,234.1 276.4,222.1 						"/>
					</g>
					<g>
						<polygon class="st10" points="279,234.1 274.1,241.3 271.5,229.3 276.4,222.1 						"/>
					</g>
				</g>
				<g>
					<g>
						<polygon class="st10" points="713,272.4 708.1,279.6 689,276.8 693.9,269.6 						"/>
					</g>
					<g>
						<polygon class="st10" points="693.9,269.6 689,276.8 690.4,265.7 695.3,258.5 						"/>
					</g>
					<g>
						<polygon class="st10" points="695.3,258.5 714.3,261.3 713,272.4 693.9,269.6 						"/>
					</g>
				</g>
				<g>
					<g>
						<polygon class="st10" points="679.1,268.4 674.2,275.5 642,270.7 646.9,263.5 						"/>
					</g>
					<g>
						<polygon class="st10" points="646.9,263.5 642,270.7 644,254.7 648.8,247.5 						"/>
					</g>
					<g>
						<polygon class="st10" points="648.8,247.5 681.1,252.3 679.1,268.4 646.9,263.5 						"/>
					</g>
				</g>
				<g>
					<g>
						<polygon class="st10" points="678.2,238 673.3,245.2 659.3,243.1 664.2,235.9 						"/>
					</g>
					<g>
						<polygon class="st10" points="664.2,235.9 659.3,243.1 663.1,212.6 668,205.4 						"/>
					</g>
					<g>
						<polygon class="st10" points="668,205.4 682,207.5 678.2,238 664.2,235.9 						"/>
					</g>
				</g>
				<g>
					<g>
						<polygon class="st10" points="403.5,47.4 398.6,54.6 372.6,52.7 377.5,45.5 						"/>
					</g>
					<g>
						<polygon class="st10" points="378.1,30.2 404.2,32.1 403.5,47.4 377.5,45.5 						"/>
					</g>
					<g>
						<polygon class="st10" points="377.5,45.5 372.6,52.7 373.2,37.4 378.1,30.2 						"/>
					</g>
					<g>
						<polygon class="st10" points="376.5,66.4 371.6,73.6 372.6,52.8 377.5,45.6 						"/>
					</g>
					<g>
						<polygon class="st10" points="389.5,67.4 384.6,74.6 371.6,73.6 376.5,66.4 						"/>
					</g>
					<g>
						<polygon class="st10" points="377.5,45.6 390.5,46.5 389.5,67.4 376.5,66.4 						"/>
					</g>
				</g>
				<g>
					<g>
						<polygon class="st10" points="421,183.2 416.1,190.4 384.6,185.7 389.5,178.5 						"/>
					</g>
					<g>
						<polygon class="st10" points="389.5,178.5 384.6,185.7 387.2,164.9 392.1,157.7 						"/>
					</g>
					<g>
						<polygon class="st10" points="392.1,157.7 423.6,162.4 421,183.2 389.5,178.5 						"/>
					</g>
				</g>
			</g>
		</g>
		<g id="Small_Buildings_8_">
			<g>
				<g>
					<g>
						<polygon class="st10" points="680.9,174.5 678.1,178.6 671.1,174.8 673.9,170.7 						"/>
					</g>
					<g>
						<polygon class="st10" points="673.9,170.7 671.1,174.8 674.6,167.9 677.4,163.8 						"/>
					</g>
					<g>
						<polygon class="st10" points="677.4,163.8 684.5,167.6 680.9,174.5 673.9,170.7 						"/>
					</g>
				</g>
				<g>
					<g>
						<polygon class="st10" points="172,168.7 169.2,172.8 161.1,172.6 163.9,168.5 						"/>
					</g>
					<g>
						<polygon class="st10" points="163.9,168.5 161.1,172.6 161,164.6 163.8,160.5 						"/>
					</g>
					<g>
						<polygon class="st10" points="171.9,160.7 172,168.7 163.9,168.5 163.8,160.5 						"/>
					</g>
				</g>
				<g>
					<g>
						<polygon class="st10" points="271.1,140.8 268.3,144.9 260.3,143.7 263.1,139.6 						"/>
					</g>
					<g>
						<polygon class="st10" points="263.1,139.6 260.3,143.7 261.3,135.8 264.1,131.7 						"/>
					</g>
					<g>
						<polygon class="st10" points="264.1,131.7 272.1,132.9 271.1,140.8 263.1,139.6 						"/>
					</g>
				</g>
				<g>
					<g>
						<polygon class="st10" points="325.7,290.9 322.9,295 311.5,297.2 314.3,293 						"/>
					</g>
					<g>
						<polygon class="st10" points="314.3,293 311.5,297.2 307.8,279.9 310.5,275.8 						"/>
					</g>
					<g>
						<polygon class="st10" points="322,273.7 325.7,290.9 314.3,293 310.5,275.8 						"/>
					</g>
				</g>
				<g>
					<g>
						<polygon class="st10" points="566.3,160.2 563.5,164.3 550.5,163.4 553.3,159.2 						"/>
					</g>
					<g>
						<polygon class="st10" points="553.3,159.2 550.5,163.4 551.4,144.2 554.2,140.1 						"/>
					</g>
					<g>
						<polygon class="st10" points="554.2,140.1 567.2,141 566.3,160.2 553.3,159.2 						"/>
					</g>
				</g>
				<g>
					<g>
						<polygon class="st10" points="428.1,80.7 425.3,84.8 412.3,83.8 415.1,79.7 						"/>
					</g>
					<g>
						<polygon class="st10" points="415.1,79.7 412.3,83.8 413.8,51.3 416.6,47.2 						"/>
					</g>
					<g>
						<polygon class="st10" points="416.6,47.2 429.6,48.1 428.1,80.7 415.1,79.7 						"/>
					</g>
				</g>
				<g>
					<g>
						<polygon class="st10" points="346.8,168.8 344,172.9 314.2,168.5 317,164.4 						"/>
					</g>
					<g>
						<polygon class="st10" points="317,164.4 314.2,168.5 316.2,152.3 319,148.2 						"/>
					</g>
					<g>
						<polygon class="st10" points="319,148.2 348.8,152.7 346.8,168.8 317,164.4 						"/>
					</g>
				</g>
			</g>
		</g>
	</g>
	<g>
		<g id="Garages_7_">
			<g>
				<g class="st11">
					<g>
						<polygon class="st12" points="45,265.2 43,268 32.2,267.8 34.2,265 						"/>
					</g>
					<g>
						<polygon class="st12" points="34.2,265 32.2,267.8 31.9,243.8 33.9,241 						"/>
					</g>
					<g>
						<polygon class="st13" points="44.7,241.1 45,265.2 34.2,265 33.9,241 						"/>
					</g>
				</g>
				<g class="st11">
					<g>
						<polygon class="st12" points="71.9,214.1 70,217 26.6,235.8 28.6,232.9 						"/>
					</g>
					<g>
						<polygon class="st13" points="69.6,209.1 71.9,214.1 28.6,232.9 26.2,227.9 						"/>
					</g>
					<g>
						<polygon class="st12" points="28.6,232.9 26.6,235.8 24.3,230.8 26.2,227.9 						"/>
					</g>
					<g>
						<polygon class="st12" points="70.8,295.6 68.9,298.5 68,221.6 69.9,218.7 						"/>
					</g>
					<g>
						<polygon class="st12" points="76.2,295.7 74.3,298.6 68.9,298.5 70.8,295.6 						"/>
					</g>
					<g>
						<polygon class="st13" points="75.3,218.8 76.2,295.7 70.8,295.6 69.9,218.7 						"/>
					</g>
				</g>
				<g class="st11">
					<g>
						<polygon class="st12" points="64.1,265.5 62.2,268.4 49.8,268.1 51.8,265.3 						"/>
					</g>
					<g>
						<polygon class="st12" points="51.8,265.3 49.8,268.1 49.5,239.2 51.4,236.3 						"/>
					</g>
					<g>
						<polygon class="st13" points="63.8,236.5 64.1,265.5 51.8,265.3 51.4,236.3 						"/>
					</g>
				</g>
				<g class="st11">
					<g>
						<polygon class="st12" points="45.3,295.2 43.4,298 32.6,297.9 34.5,295 						"/>
					</g>
					<g>
						<polygon class="st12" points="34.5,295 32.6,297.9 32.3,273.3 34.2,270.4 						"/>
					</g>
					<g>
						<polygon class="st13" points="45,270.6 45.3,295.2 34.5,295 34.2,270.4 						"/>
					</g>
				</g>
				<g class="st11">
					<g>
						<polygon class="st12" points="63,297.7 61,300.5 50.2,300.4 52.2,297.5 						"/>
					</g>
					<g>
						<polygon class="st12" points="52.2,297.5 50.2,300.4 49.9,275.8 51.9,272.9 						"/>
					</g>
					<g>
						<polygon class="st13" points="62.7,273.1 63,297.7 52.2,297.5 51.9,272.9 						"/>
					</g>
				</g>
				<g class="st11">
					<g>
						<polygon class="st12" points="28.9,298.5 26.9,301.3 21.5,301.2 23.5,298.4 						"/>
					</g>
					<g>
						<polygon class="st12" points="23.5,298.4 21.5,301.2 20.8,238.2 22.7,235.3 						"/>
					</g>
					<g>
						<polygon class="st13" points="28.1,235.4 28.9,298.5 23.5,298.4 22.7,235.3 						"/>
					</g>
				</g>
				<g class="st11">
					<g>
						<polygon class="st12" points="63.1,306.7 61.1,309.6 24.3,309 26.3,306.1 						"/>
					</g>
					<g>
						<polygon class="st12" points="26.3,306.1 24.3,309 24.2,302.6 26.2,299.7 						"/>
					</g>
					<g>
						<polygon class="st13" points="63,300.4 63.1,306.7 26.3,306.1 26.2,299.7 						"/>
					</g>
				</g>
				<g class="st11">
					<g>
						<polygon class="st12" points="274.8,262.1 272.9,265 265.3,265.8 267.3,262.9 						"/>
					</g>
					<g>
						<polygon class="st12" points="267.3,262.9 265.3,265.8 263,248.8 265,246 						"/>
					</g>
					<g>
						<polygon class="st13" points="272.5,245.2 274.8,262.1 267.3,262.9 265,246 						"/>
					</g>
				</g>
				<g class="st11">
					<g>
						<polygon class="st12" points="262.3,254.3 260.3,257.2 253.6,258.4 255.6,255.5 						"/>
					</g>
					<g>
						<polygon class="st12" points="255.6,255.5 253.6,258.4 250.3,243.4 252.3,240.5 						"/>
					</g>
					<g>
						<polygon class="st13" points="259,239.3 262.3,254.3 255.6,255.5 252.3,240.5 						"/>
					</g>
				</g>
				<g class="st11">
					<g>
						<polygon class="st12" points="640,129.5 638,132.3 626.7,130.6 628.6,127.8 						"/>
					</g>
					<g>
						<polygon class="st12" points="628.6,127.8 626.7,130.6 627.2,125.9 629.2,123 						"/>
					</g>
					<g>
						<polygon class="st13" points="629.2,123 640.6,124.7 640,129.5 628.6,127.8 						"/>
					</g>
				</g>
				<g class="st11">
					<g>
						<polygon class="st12" points="280.9,92.6 278.9,95.5 274.1,94.8 276.1,91.9 						"/>
					</g>
					<g>
						<polygon class="st12" points="276.1,91.9 274.1,94.8 275.5,83.6 277.5,80.7 						"/>
					</g>
					<g>
						<polygon class="st13" points="277.5,80.7 282.3,81.4 280.9,92.6 276.1,91.9 						"/>
					</g>
				</g>
				<g class="st11">
					<g>
						<polygon class="st12" points="617.2,96.4 615.2,99.3 611,97.9 612.9,95 						"/>
					</g>
					<g>
						<polygon class="st12" points="612.9,95 611,97.9 613.7,89.1 615.7,86.2 						"/>
					</g>
					<g>
						<polygon class="st13" points="615.7,86.2 619.9,87.6 617.2,96.4 612.9,95 						"/>
					</g>
				</g>
			</g>
		</g>
		<g id="Big_Buildings_7_">
			<g>
				<g class="st11">
					<g>
						<polygon class="st12" points="416.8,282.3 411.9,289.5 389.2,293.6 394.1,286.5 						"/>
					</g>
					<g>
						<polygon class="st12" points="394.1,286.5 389.2,293.6 379.5,249 384.4,241.8 						"/>
					</g>
					<g>
						<polygon class="st14" points="407.1,237.6 416.8,282.3 394.1,286.5 384.4,241.8 						"/>
					</g>
				</g>
				<g class="st11">
					<g>
						<polygon class="st12" points="465.2,232.1 460.3,239.3 436.7,234.6 441.6,227.4 						"/>
					</g>
					<g>
						<polygon class="st12" points="441.6,227.4 436.7,234.6 447,175.3 451.9,168.1 						"/>
					</g>
					<g>
						<polygon class="st13" points="451.9,168.1 475.5,172.8 465.2,232.1 441.6,227.4 						"/>
					</g>
				</g>
				<g class="st11">
					<g>
						<polygon class="st12" points="562.5,253.9 557.6,261.1 516.6,255 521.5,247.8 						"/>
					</g>
					<g>
						<polygon class="st12" points="521.5,247.8 516.6,255 519.8,229.1 524.7,222 						"/>
					</g>
					<g>
						<polygon class="st13" points="524.7,222 565.7,228.1 562.5,253.9 521.5,247.8 						"/>
					</g>
				</g>
				<g class="st11">
					<g>
						<polygon class="st12" points="510,240.1 505.1,247.3 484.2,244.2 489.1,237 						"/>
					</g>
					<g>
						<polygon class="st12" points="489.1,237 484.2,244.2 490.4,193.6 495.3,186.4 						"/>
					</g>
					<g>
						<polygon class="st13" points="495.3,186.4 516.3,189.5 510,240.1 489.1,237 						"/>
					</g>
				</g>
				<g class="st11">
					<g>
						<polygon class="st12" points="613.1,231.2 608.2,238.4 590.6,235.7 595.5,228.5 						"/>
					</g>
					<g>
						<polygon class="st12" points="595.5,228.5 590.6,235.7 594.4,205.2 599.3,198 						"/>
					</g>
					<g>
						<polygon class="st13" points="599.3,198 616.9,200.6 613.1,231.2 595.5,228.5 						"/>
					</g>
				</g>
				<g class="st11">
					<g>
						<polygon class="st12" points="351.5,206.8 346.6,214 345.1,214.3 350,207.1 						"/>
					</g>
					<g>
						<polygon class="st12" points="352.8,217.4 347.9,224.5 345.1,214.3 350,207.1 						"/>
					</g>
					<g>
						<polygon class="st12" points="366.8,214.7 361.9,221.9 348,225.1 352.9,217.9 						"/>
					</g>
					<g>
						<polygon class="st14" points="363.9,203.9 366.8,214.7 352.9,217.9 352.8,217.4 350,207.1 351.5,206.8 						"/>
					</g>
					<g>
						<polygon class="st12" points="352.9,217.9 348,225.1 347.9,224.5 352.8,217.4 						"/>
					</g>
					<g>
						<polygon class="st12" points="325.3,222.4 320.5,229.6 315.1,204.9 320,197.7 						"/>
					</g>
					<g>
						<polygon class="st12" points="352.8,217.4 347.9,224.5 320.5,229.6 325.3,222.4 						"/>
					</g>
					<g>
						<polygon class="st14" points="348.4,192.5 351.5,206.8 350,207.1 352.8,217.4 325.3,222.4 320,197.7 						"/>
					</g>
				</g>
				<g class="st11">
					<g>
						<polygon class="st12" points="117.4,272.8 112.5,280 88.2,279.6 93.1,272.4 						"/>
					</g>
					<g>
						<polygon class="st12" points="93.1,272.4 88.2,279.6 87.7,234.4 92.6,227.2 						"/>
					</g>
					<g>
						<polygon class="st13" points="116.8,227.7 117.4,272.8 93.1,272.4 92.6,227.2 						"/>
					</g>
				</g>
				<g class="st11">
					<g>
						<polygon class="st12" points="291.2,199.8 286.3,207 285.5,203.2 290.4,196 						"/>
					</g>
					<g>
						<polygon class="st12" points="295.3,218.6 290.4,225.8 286.3,207 291.2,199.8 						"/>
					</g>
					<g>
						<polygon class="st12" points="296.1,222.4 291.2,229.6 290.4,225.8 295.3,218.6 						"/>
					</g>
					<g>
						<polygon class="st13" points="307.8,192.8 313.5,219.2 296.1,222.4 295.3,218.6 291.2,199.8 290.4,196 						"/>
					</g>
					<g>
						<polygon class="st12" points="313.5,219.2 308.6,226.4 291.2,229.6 296.1,222.4 						"/>
					</g>
					<g>
						<polygon class="st12" points="295.3,218.6 290.4,225.8 281,227.5 285.9,220.3 						"/>
					</g>
					<g>
						<polygon class="st13" points="291.2,199.8 295.3,218.6 285.9,220.3 276.4,222.1 272.4,203.3 						"/>
					</g>
					<g>
						<polygon class="st12" points="276.4,222.1 271.5,229.3 267.5,210.5 272.4,203.3 						"/>
					</g>
					<g>
						<polygon class="st12" points="285.9,220.3 281,227.5 271.5,229.3 276.4,222.1 						"/>
					</g>
					<g>
						<polygon class="st12" points="288.5,232.4 283.6,239.6 274.1,241.3 279,234.1 						"/>
					</g>
					<g>
						<polygon class="st13" points="285.9,220.3 288.5,232.4 279,234.1 276.4,222.1 						"/>
					</g>
					<g>
						<polygon class="st12" points="279,234.1 274.1,241.3 271.5,229.3 276.4,222.1 						"/>
					</g>
				</g>
				<g class="st11">
					<g>
						<polygon class="st12" points="713,272.4 708.1,279.6 689,276.8 693.9,269.6 						"/>
					</g>
					<g>
						<polygon class="st12" points="693.9,269.6 689,276.8 690.4,265.7 695.3,258.5 						"/>
					</g>
					<g>
						<polygon class="st13" points="695.3,258.5 714.3,261.3 713,272.4 693.9,269.6 						"/>
					</g>
				</g>
				<g class="st11">
					<g>
						<polygon class="st12" points="679.1,268.4 674.2,275.5 642,270.7 646.9,263.5 						"/>
					</g>
					<g>
						<polygon class="st12" points="646.9,263.5 642,270.7 644,254.7 648.8,247.5 						"/>
					</g>
					<g>
						<polygon class="st13" points="648.8,247.5 681.1,252.3 679.1,268.4 646.9,263.5 						"/>
					</g>
				</g>
				<g class="st11">
					<g>
						<polygon class="st12" points="678.2,238 673.3,245.2 659.3,243.1 664.2,235.9 						"/>
					</g>
					<g>
						<polygon class="st12" points="664.2,235.9 659.3,243.1 663.1,212.6 668,205.4 						"/>
					</g>
					<g>
						<polygon class="st13" points="668,205.4 682,207.5 678.2,238 664.2,235.9 						"/>
					</g>
				</g>
				<g class="st11">
					<g>
						<polygon class="st12" points="403.5,47.4 398.6,54.6 372.6,52.7 377.5,45.5 						"/>
					</g>
					<g>
						<polygon class="st13" points="378.1,30.2 404.2,32.1 403.5,47.4 377.5,45.5 						"/>
					</g>
					<g>
						<polygon class="st12" points="377.5,45.5 372.6,52.7 373.2,37.4 378.1,30.2 						"/>
					</g>
					<g>
						<polygon class="st12" points="376.5,66.4 371.6,73.6 372.6,52.8 377.5,45.6 						"/>
					</g>
					<g>
						<polygon class="st12" points="389.5,67.4 384.6,74.6 371.6,73.6 376.5,66.4 						"/>
					</g>
					<g>
						<polygon class="st13" points="377.5,45.6 390.5,46.5 389.5,67.4 376.5,66.4 						"/>
					</g>
				</g>
				<g class="st11">
					<g>
						<polygon class="st12" points="421,183.2 416.1,190.4 384.6,185.7 389.5,178.5 						"/>
					</g>
					<g>
						<polygon class="st12" points="389.5,178.5 384.6,185.7 387.2,164.9 392.1,157.7 						"/>
					</g>
					<g>
						<polygon class="st14" points="392.1,157.7 423.6,162.4 421,183.2 389.5,178.5 						"/>
					</g>
				</g>
			</g>
		</g>
		<g id="Small_Buildings_7_">
			<g>
				<g class="st11">
					<g>
						<polygon class="st12" points="680.9,174.5 678.1,178.6 671.1,174.8 673.9,170.7 						"/>
					</g>
					<g>
						<polygon class="st12" points="673.9,170.7 671.1,174.8 674.6,167.9 677.4,163.8 						"/>
					</g>
					<g>
						<polygon class="st13" points="677.4,163.8 684.5,167.6 680.9,174.5 673.9,170.7 						"/>
					</g>
				</g>
				<g class="st11">
					<g>
						<polygon class="st12" points="172,168.7 169.2,172.8 161.1,172.6 163.9,168.5 						"/>
					</g>
					<g>
						<polygon class="st12" points="163.9,168.5 161.1,172.6 161,164.6 163.8,160.5 						"/>
					</g>
					<g>
						<polygon class="st13" points="171.9,160.7 172,168.7 163.9,168.5 163.8,160.5 						"/>
					</g>
				</g>
				<g class="st11">
					<g>
						<polygon class="st12" points="271.1,140.8 268.3,144.9 260.3,143.7 263.1,139.6 						"/>
					</g>
					<g>
						<polygon class="st12" points="263.1,139.6 260.3,143.7 261.3,135.8 264.1,131.7 						"/>
					</g>
					<g>
						<polygon class="st13" points="264.1,131.7 272.1,132.9 271.1,140.8 263.1,139.6 						"/>
					</g>
				</g>
				<g class="st11">
					<g>
						<polygon class="st12" points="325.7,290.9 322.9,295 311.5,297.2 314.3,293 						"/>
					</g>
					<g>
						<polygon class="st12" points="314.3,293 311.5,297.2 307.8,279.9 310.5,275.8 						"/>
					</g>
					<g>
						<polygon class="st13" points="322,273.7 325.7,290.9 314.3,293 310.5,275.8 						"/>
					</g>
				</g>
				<g class="st11">
					<g>
						<polygon class="st12" points="566.3,160.2 563.5,164.3 550.5,163.4 553.3,159.2 						"/>
					</g>
					<g>
						<polygon class="st12" points="553.3,159.2 550.5,163.4 551.4,144.2 554.2,140.1 						"/>
					</g>
					<g>
						<polygon class="st13" points="554.2,140.1 567.2,141 566.3,160.2 553.3,159.2 						"/>
					</g>
				</g>
				<g class="st11">
					<g>
						<polygon class="st12" points="428.1,80.7 425.3,84.8 412.3,83.8 415.1,79.7 						"/>
					</g>
					<g>
						<polygon class="st12" points="415.1,79.7 412.3,83.8 413.8,51.3 416.6,47.2 						"/>
					</g>
					<g>
						<polygon class="st13" points="416.6,47.2 429.6,48.1 428.1,80.7 415.1,79.7 						"/>
					</g>
				</g>
				<g class="st11">
					<g>
						<polygon class="st12" points="346.8,168.8 344,172.9 314.2,168.5 317,164.4 						"/>
					</g>
					<g>
						<polygon class="st12" points="317,164.4 314.2,168.5 316.2,152.3 319,148.2 						"/>
					</g>
					<g>
						<polygon class="st14" points="319,148.2 348.8,152.7 346.8,168.8 317,164.4 						"/>
					</g>
				</g>
			</g>
		</g>
	</g>
</g>
</svg>
