<svg id="Ground_Level" data-name="Ground Level" xmlns="http://www.w3.org/2000/svg" viewBox="0 0 752.89 369.33"><defs><style>.cls-1{fill:#0c343d;}.cls-2{fill:#0056aa;}.cls-3,.cls-4,.cls-5,.cls-7,.cls-8,.cls-9{fill:none;stroke-miterlimit:10;}.cls-3,.cls-4,.cls-5{stroke:#cb7e54;}.cls-3,.cls-4,.cls-5,.cls-9{stroke-width:2px;}.cls-4{stroke-dasharray:5.96 5.96;}.cls-5{stroke-dasharray:6;}.cls-6{fill:#bdbdbd;}.cls-7,.cls-8,.cls-9{stroke:#b4b4b4;}.cls-7{stroke-width:7px;}.cls-8{stroke-width:5px;}.cls-10{fill:#d2e4d8;}.cls-11{fill:#cbffff;}.cls-12{fill:#cff;}</style></defs><g id="Base_Terrain" data-name="Base Terrain"><polygon id="Base_Map_Shape" data-name="Base Map Shape" class="cls-1" points="749.78 55.56 752.89 79.56 749.78 87.11 752.89 97.33 752.89 126.22 733.78 152 733.78 160.44 737.78 168.44 733.78 200.89 749.78 208 737.33 298.67 515.56 267.56 515.56 287.11 518.67 310.67 460.89 323.56 447.11 323.56 407.11 369.33 387.11 350.22 381.96 329.78 352.89 297.78 292 308.89 284.89 277.78 226.67 293.33 226.67 300.89 200.89 305.78 207.56 333.33 174.22 339.11 123.56 336 121.33 346.67 72 345.78 61.78 341.78 40.44 341.78 28.44 348 9.78 344.89 9.78 328.89 0 323.56 4 232.89 12.89 233.78 13.33 218.22 22.22 207.56 29.33 204.44 33.33 197.78 123.11 152 131.56 145.78 138.67 134.22 187.56 136.44 192 126.67 192 108 200 75.56 222.67 74.67 268 75.11 296 76.44 305.33 70.67 314.22 55.56 365.78 10.67 392.89 13.78 476.89 37.78 493.78 49.78 521.33 28 558.22 13.78 557.33 6.22 571.11 0 603.11 10.67 618.22 21.78 651.56 28 664.89 28.44 665.33 40 687.56 54.67 708 61.78 718.22 58.22 719.11 52.89 749.78 55.56"/><polygon id="River" class="cls-2" points="200 75.56 192 108 192 126.67 187.56 136.44 187.56 161.33 183.11 180 177.33 212.89 169.78 257.33 165.33 283.56 165.33 303.11 174.22 339.11 207.56 333.33 200.89 305.78 197.33 293.78 198.67 267.56 200.44 247.11 207.56 226.67 210.67 207.33 212.75 187.02 213.33 181.33 217.78 157.33 224.44 148.44 221.33 140.89 221.33 128.44 222.22 116.89 221.78 96.44 226.22 75.56 200 75.56"/><path id="Lower_Land_Bridge" data-name="Lower Land Bridge" class="cls-1" d="M212,295.67l-12.89,2.22-5.78,4.44-4.44,3.11-9.39-4.88c-2.16,1-2.45,10.66-2.61,20.88l10.67-6.22,10.22,6.22h13.36Z" transform="translate(-12.89 -24.56)"/><polygon id="Upper_Land_Bridge" data-name="Upper Land Bridge" class="cls-1" points="203.78 195.86 212.75 187.02 210.53 208.78 201.69 212.28 189.36 209.28 184.03 206.61 177.44 208.61 180.86 187.69 190.11 192.11 191.28 197.11 200.36 197.36 203.78 195.86"/></g><g id="Railway"><path class="cls-3" d="M617.55,36.37c-.69.73-1.38,1.45-2,2.18" transform="translate(-12.89 -24.56)"/><path class="cls-4" d="M611.47,42.94A238.92,238.92,0,0,0,581,84.67c-3.82,6.73-9.72,18-22,29-6.56,5.86-6.93,4.47-18.67,13.33-14.06,10.62-24.67,18.79-31.66,32-3.55,6.7-5,12.46-6.34,18.67-10.33,47.52-4.43,69.44-15.66,96.66-1.34,3.25-3.23,7.31-24,34.67-20,26.29-38.06,48.69-53.09,66.69" transform="translate(-12.89 -24.56)"/><path class="cls-3" d="M407.67,378l-1.93,2.3" transform="translate(-12.89 -24.56)"/><path class="cls-5" d="M734.33,312.67c-31.1-3.71-56.15-7.06-72.66-9.34C625.8,298.38,589.82,294.28,554,289c-12.59-1.85-25.61-.77-38-3.67-3.66-.85-10.32-2.59-18-.33a31.25,31.25,0,0,0-13.33,8.33c-21.89,21.78-43,52.34-43,52.34a355.17,355.17,0,0,1-31.32,39" transform="translate(-12.89 -24.56)"/><path class="cls-5" d="M429.67,221.33c2.54,10,6.22,24.68,10.66,42.67,3.87,15.65,5.63,22.94,6.67,33.33a160.53,160.53,0,0,1,.33,28.34" transform="translate(-12.89 -24.56)"/><path class="cls-5" d="M160,159.16q-1,56.1-2.71,112.17-1.34,45.17-3.08,90.32" transform="translate(-12.89 -24.56)"/></g><g id="Pavement"><polygon class="cls-6" points="89.11 201.11 116.78 187.02 135.11 195.44 133.44 305.11 107.44 305.11 109.11 238.44 86.11 237.78 86.11 203.44 89.11 201.11"/><polygon class="cls-6" points="63.44 217.78 26.11 236.11 23.44 240.44 23.44 305.11 66.11 305.11 66.11 217.78 63.44 217.78"/><polygon class="cls-6" points="76.78 320.11 123.11 320.11 123.11 346.44 76.78 345.86 76.78 320.11"/><polygon class="cls-6" points="405.44 217.78 374.11 223.44 368.78 199.65 401.44 193.11 405.44 217.78"/><polygon class="cls-6" points="295.11 261.44 333.78 252.11 338.44 271.11 300.11 281.44 295.11 261.44"/><polygon class="cls-6" points="307.78 173.11 363.44 181.11 366.44 154.78 312.44 146.78 307.78 173.11"/><polygon class="cls-6" points="434.11 229.78 470.11 238.11 466.44 258.78 434.11 252.11 429.78 229.78 434.11 229.78"/><polygon class="cls-6" points="476.44 290.11 508.78 281.44 513.78 310.78 482.11 318.78 476.44 290.11"/><polygon class="cls-6" points="387.11 72.11 415.44 75.56 418.44 41.78 402.78 39.78 400.78 48.44 390.44 47.11 387.11 72.11"/><polygon class="cls-6" points="539.44 129.44 575.44 135.44 570.78 168.11 534.78 160.78 539.44 129.44"/><polygon class="cls-6" points="495.11 171.11 589.78 187.11 582.44 236.11 513.78 223.44 517.11 195.11 492.11 189.78 495.11 171.11"/><polygon class="cls-6" points="633.78 241.44 648.78 241.44 644.78 269.44 629.78 266.78 633.78 241.44"/><polygon class="cls-6" points="449.94 165.11 431.78 163.94 431.78 184.67 446.78 187.02 449.94 165.11"/><polygon class="cls-6" points="381.96 156.11 421.44 162.11 425.78 188.78 381.96 197.01 381.11 184.67 381.96 156.11"/><polygon class="cls-6" points="618 71.78 607 69.22 603.89 79 597.56 87.22 605.22 97.44 618 98.44 619.56 87.78 623.56 81.67 618 71.78"/></g><g id="Roads"><path class="cls-7" d="M17.67,348c4.26-44.08,3.76-64.72,2-75a22.85,22.85,0,0,1,.66-11.67c3.8-11,16.23-15.88,20.67-17.66C81.11,227.57,153.33,189,153.33,189h0A106.89,106.89,0,0,1,167,187.33c8.71-.49,14.94.26,25.67,1.67,15.72,2.07,31.81,1.44,47.33,4.67,2.24.46,7.26,1.57,11.67-1,4.06-2.37,5.59-6.68,6.66-9.67,9-25,7.21-15,9.67-25.33,5.58-23.42,8.9-50,9.67-56.34" transform="translate(-12.89 -24.56)"/><path class="cls-7" d="M269.67,155.33c8.06,1.44,20.44,3.54,35.66,5.67,16.26,2.27,24.89,3.06,42,5,28,3.18,27.7,3.67,63.34,8,32.88,4,31.71,3.41,58,6.67,25.84,3.2,26.69,3.73,65.66,9,27,3.65,47.87,6.26,80.34,10.33,39.18,4.91,42.34,5.14,61.33,7.67,30.19,4,54.68,7.78,70.67,10.33" transform="translate(-12.89 -24.56)"/><path class="cls-8" d="M680.33,207A32.68,32.68,0,0,1,685,189.33c2.89-4.58,5.49-5.72,11.33-10.66s10.95-11,21.34-23.34c7.27-8.62,10.9-12.93,13.33-16.66A98.46,98.46,0,0,0,744,109a94.07,94.07,0,0,0,2.33-30.33" transform="translate(-12.89 -24.56)"/><path class="cls-8" d="M758.33,235.33c-28.9-3.88-52.18-7.16-67.33-9.33-30.14-4.31-46.53-6.84-90.67-13.33-27-4-48.65-7.12-61.66-9" transform="translate(-12.89 -24.56)"/><path class="cls-8" d="M538,191c-.37,2.64-.94,6.71-1.67,11.67-2.8,19-4.3,26.33-7,42.66-1,6.29-5.09,31.15-9,63-.43,3.53-.77,6.44-1,8.34" transform="translate(-12.89 -24.56)"/><path class="cls-8" d="M751.67,235c-1.48,22.65-3.13,39.59-4,46.67-1.7,13.78-3.09,11.44-3,16.33a5.32,5.32,0,0,1-1,3.67c-2.17,2.49-7.24,1.3-8.67,1-7.27-1.56-37.63-5.31-80.33-10.34" transform="translate(-12.89 -24.56)"/><path class="cls-8" d="M287.33,158c-4.46,13.46-8.34,24.35-11,31.67-5.44,15-11.06,29.44-17.66,50.33-3.59,11.33-5.5,18.33-6,27.67-.42,7.7.25,14.47,1,22,.92,9.29,2.23,17,3.33,22.66" transform="translate(-12.89 -24.56)"/><path class="cls-8" d="M394,171l8.67-79" transform="translate(-12.89 -24.56)"/><path class="cls-8" d="M310.67,331.33c-3.91-23.75-6.56-34.47-8.34-39.66-1.52-4.44-1.88-9.21-3.33-13.67-.71-2.16-1.55-4.45-.67-7a9.67,9.67,0,0,1,4.67-5,13.31,13.31,0,0,1,6.33-1.33c.62,0,13.05-.55,17-6,1.71-2.36,1.28-5.5.34-11.67-2-13.28-6.83-17-4.34-22.67,1.78-4.07,6.4-7.15,6.67-7.33,2.53-1.65,3.75-1.57,5.33-2.67,2.38-1.65,4.72-5.39,4.34-14.66" transform="translate(-12.89 -24.56)"/><path class="cls-8" d="M18,339q20.64,1,41.67,1.67,36.38,1.23,71.66,1.66" transform="translate(-12.89 -24.56)"/><path class="cls-9" d="M717.33,151.83c-9.87-5.46-20.37-10.88-31.5-16.16-8.05-3.83-12.1-5.7-16.83-7.67-12.07-5-17.9-6.43-26.33-11.67a78.31,78.31,0,0,1-10.17-7.5" transform="translate(-12.89 -24.56)"/></g><g id="Buildings"><g id="Garages"><rect class="cls-10" x="29.32" y="248.7" width="10.92" height="24.54"/><rect class="cls-10" x="47.11" y="243.64" width="12.46" height="29.6"/><rect class="cls-10" x="29.32" y="278.79" width="10.92" height="25.11"/><rect class="cls-10" x="47.11" y="281.04" width="10.92" height="25.11"/><rect class="cls-10" x="65.99" y="225.31" width="5.46" height="78.6"/><rect class="cls-10" x="18.11" y="243.16" width="5.46" height="64.41"/><rect class="cls-10" x="20.84" y="308.91" width="37.19" height="6.52"/><rect class="cls-10" x="33.62" y="249.79" width="48.35" height="5.61" transform="translate(-112.37 22.11) rotate(-24.48)"/><rect class="cls-10" x="276.63" y="273.71" width="7.68" height="17.41" transform="translate(-44.99 11.44) rotate(-6.95)"/><rect class="cls-10" x="264.34" y="268.04" width="6.96" height="15.6" transform="translate(-62.41 34.23) rotate(-11.47)"/><rect class="cls-10" x="648" y="139.5" width="4.89" height="11.56" transform="translate(407.07 746.07) rotate(-82.36)"/><rect class="cls-10" x="286.13" y="108.72" width="11.56" height="4.89" transform="translate(130.02 361.14) rotate(-82.36)"/><rect class="cls-10" x="627.77" y="107.67" width="9.46" height="4.44" transform="translate(324.55 655.48) rotate(-72.49)"/><rect class="cls-10" x="29.32" y="248.7" width="10.92" height="24.54"/><rect class="cls-10" x="47.11" y="243.64" width="12.46" height="29.6"/><rect class="cls-10" x="29.32" y="278.79" width="10.92" height="25.11"/><rect class="cls-10" x="47.11" y="281.04" width="10.92" height="25.11"/><rect class="cls-10" x="65.99" y="225.31" width="5.46" height="78.6"/><rect class="cls-10" x="18.11" y="243.16" width="5.46" height="64.41"/><rect class="cls-10" x="20.84" y="308.91" width="37.19" height="6.52"/><rect class="cls-10" x="33.62" y="249.79" width="48.35" height="5.61" transform="translate(-112.37 22.11) rotate(-24.48)"/><rect class="cls-10" x="276.63" y="273.71" width="7.68" height="17.41" transform="translate(-44.99 11.44) rotate(-6.95)"/><rect class="cls-10" x="264.34" y="268.04" width="6.96" height="15.6" transform="translate(-62.41 34.23) rotate(-11.47)"/><rect class="cls-10" x="648" y="139.5" width="4.89" height="11.56" transform="translate(407.07 746.07) rotate(-82.36)"/><rect class="cls-10" x="286.13" y="108.72" width="11.56" height="4.89" transform="translate(130.02 361.14) rotate(-82.36)"/><rect class="cls-10" x="627.77" y="107.67" width="9.46" height="4.44" transform="translate(324.55 655.48) rotate(-72.49)"/><rect class="cls-10" x="29.32" y="248.7" width="10.92" height="24.54"/><rect class="cls-10" x="47.11" y="243.64" width="12.46" height="29.6"/><rect class="cls-10" x="29.32" y="278.79" width="10.92" height="25.11"/><rect class="cls-10" x="47.11" y="281.04" width="10.92" height="25.11"/><rect class="cls-10" x="65.99" y="225.31" width="5.46" height="78.6"/><rect class="cls-10" x="18.11" y="243.16" width="5.46" height="64.41"/><rect class="cls-10" x="20.84" y="308.91" width="37.19" height="6.52"/><rect class="cls-10" x="33.62" y="249.79" width="48.35" height="5.61" transform="translate(-112.37 22.11) rotate(-24.48)"/><rect class="cls-10" x="276.63" y="273.71" width="7.68" height="17.41" transform="translate(-44.99 11.44) rotate(-6.95)"/><rect class="cls-10" x="264.34" y="268.04" width="6.96" height="15.6" transform="translate(-62.41 34.23) rotate(-11.47)"/><rect class="cls-10" x="648" y="139.5" width="4.89" height="11.56" transform="translate(407.07 746.07) rotate(-82.36)"/><rect class="cls-10" x="286.13" y="108.72" width="11.56" height="4.89" transform="translate(130.02 361.14) rotate(-82.36)"/><rect class="cls-10" x="627.77" y="107.67" width="9.46" height="4.44" transform="translate(324.55 655.48) rotate(-72.49)"/></g><g id="Big_Buildings" data-name="Big Buildings"><rect class="cls-10" x="398.04" y="269.31" width="23.48" height="46.41" transform="translate(-62.89 62.81) rotate(-11.47)"/><rect class="cls-10" x="438.12" y="216.07" width="61.85" height="24.19" transform="matrix(0.18, -0.98, 0.98, 0.18, 147.21, 623.87)"/><rect class="cls-10" x="487.31" y="230.16" width="52.31" height="21.3" transform="translate(193.63 693.13) rotate(-82.36)"/><rect class="cls-10" x="541.16" y="244.49" width="26.7" height="41.69" transform="matrix(0.13, -0.99, 0.99, 0.13, 204.9, 755.07)"/><rect class="cls-10" x="602.24" y="231.35" width="31.59" height="17.97" transform="translate(284.76 796.37) rotate(-82.36)"/><rect class="cls-10" x="331.37" y="225" width="29.33" height="25.67" transform="translate(-53.28 49.04) rotate(-11.47)"/><rect class="cls-10" x="360.5" y="235.33" width="14.5" height="11.33" transform="translate(-61.08 73.92) rotate(-14.32)"/><rect class="cls-10" x="86.11" y="237.89" width="24.5" height="46.11"/><rect class="cls-10" x="285.87" y="251.93" width="9.77" height="13.39" transform="translate(-58.53 38.45) rotate(-11.47)"/><rect class="cls-10" x="282.67" y="232.61" width="19.53" height="19.53" transform="translate(-55.26 38.46) rotate(-11.47)"/><rect class="cls-10" x="710.61" y="280.91" width="11.48" height="19.36" transform="matrix(0.13, -0.99, 0.99, 0.13, 320.2, 937.39)"/><rect class="cls-10" x="667.58" y="267.22" width="16.57" height="32.78" transform="matrix(0.13, -0.99, 0.99, 0.13, 292, 891.2)"/><rect class="cls-10" x="669.7" y="239.32" width="31.59" height="14.23" transform="matrix(0.13, -0.99, 0.99, 0.13, 337.21, 868.52)"/><rect class="cls-10" x="384.3" y="76.1" width="21.37" height="13.17" transform="translate(277.18 447.8) rotate(-86.75)"/><rect class="cls-10" x="301.75" y="224.88" width="18" height="27.5" transform="matrix(0.98, -0.2, 0.2, 0.98, -54.15, 42.03)"/><rect class="cls-10" x="394.78" y="51.33" width="15.66" height="26.33" transform="translate(302.53 438.26) rotate(-86.75)"/><rect class="cls-10" x="406.11" y="182.74" width="21.52" height="32.07" transform="translate(151.54 560.96) rotate(-82.36)"/><rect class="cls-10" x="398.04" y="269.31" width="23.48" height="46.41" transform="translate(-62.89 62.81) rotate(-11.47)"/><rect class="cls-10" x="438.12" y="216.07" width="61.85" height="24.19" transform="matrix(0.18, -0.98, 0.98, 0.18, 147.21, 623.87)"/><rect class="cls-10" x="487.31" y="230.16" width="52.31" height="21.3" transform="translate(193.63 693.13) rotate(-82.36)"/><rect class="cls-10" x="541.16" y="244.49" width="26.7" height="41.69" transform="matrix(0.13, -0.99, 0.99, 0.13, 204.9, 755.07)"/><rect class="cls-10" x="602.24" y="231.35" width="31.59" height="17.97" transform="translate(284.76 796.37) rotate(-82.36)"/><rect class="cls-10" x="331.37" y="225" width="29.33" height="25.67" transform="translate(-53.28 49.04) rotate(-11.47)"/><rect class="cls-10" x="360.5" y="235.33" width="14.5" height="11.33" transform="translate(-61.08 73.92) rotate(-14.32)"/><rect class="cls-10" x="86.11" y="237.89" width="24.5" height="46.11"/><rect class="cls-10" x="285.87" y="251.93" width="9.77" height="13.39" transform="translate(-58.53 38.45) rotate(-11.47)"/><rect class="cls-10" x="282.67" y="232.61" width="19.53" height="19.53" transform="translate(-55.26 38.46) rotate(-11.47)"/><rect class="cls-10" x="710.61" y="280.91" width="11.48" height="19.36" transform="matrix(0.13, -0.99, 0.99, 0.13, 320.2, 937.39)"/><rect class="cls-10" x="667.58" y="267.22" width="16.57" height="32.78" transform="matrix(0.13, -0.99, 0.99, 0.13, 292, 891.2)"/><rect class="cls-10" x="669.7" y="239.32" width="31.59" height="14.23" transform="matrix(0.13, -0.99, 0.99, 0.13, 337.21, 868.52)"/><rect class="cls-10" x="384.3" y="76.1" width="21.37" height="13.17" transform="translate(277.18 447.8) rotate(-86.75)"/><rect class="cls-10" x="301.75" y="224.88" width="18" height="27.5" transform="matrix(0.98, -0.2, 0.2, 0.98, -54.15, 42.03)"/><rect class="cls-10" x="394.78" y="51.33" width="15.66" height="26.33" transform="translate(302.53 438.26) rotate(-86.75)"/><rect class="cls-10" x="406.11" y="182.74" width="21.52" height="32.07" transform="translate(151.54 560.96) rotate(-82.36)"/><rect class="cls-10" x="398.04" y="269.31" width="23.48" height="46.41" transform="translate(-62.89 62.81) rotate(-11.47)"/><rect class="cls-10" x="438.12" y="216.07" width="61.85" height="24.19" transform="matrix(0.18, -0.98, 0.98, 0.18, 147.21, 623.87)"/><rect class="cls-10" x="487.31" y="230.16" width="52.31" height="21.3" transform="translate(193.63 693.13) rotate(-82.36)"/><rect class="cls-10" x="541.16" y="244.49" width="26.7" height="41.69" transform="matrix(0.13, -0.99, 0.99, 0.13, 204.9, 755.07)"/><rect class="cls-10" x="602.24" y="231.35" width="31.59" height="17.97" transform="translate(284.76 796.37) rotate(-82.36)"/><rect class="cls-10" x="331.37" y="225" width="29.33" height="25.67" transform="translate(-53.28 49.04) rotate(-11.47)"/><rect class="cls-10" x="360.5" y="235.33" width="14.5" height="11.33" transform="translate(-61.08 73.92) rotate(-14.32)"/><rect class="cls-10" x="86.11" y="237.89" width="24.5" height="46.11"/><rect class="cls-10" x="285.87" y="251.93" width="9.77" height="13.39" transform="translate(-58.53 38.45) rotate(-11.47)"/><rect class="cls-10" x="282.67" y="232.61" width="19.53" height="19.53" transform="translate(-55.26 38.46) rotate(-11.47)"/><rect class="cls-10" x="710.61" y="280.91" width="11.48" height="19.36" transform="matrix(0.13, -0.99, 0.99, 0.13, 320.2, 937.39)"/><rect class="cls-10" x="667.58" y="267.22" width="16.57" height="32.78" transform="matrix(0.13, -0.99, 0.99, 0.13, 292, 891.2)"/><rect class="cls-10" x="669.7" y="239.32" width="31.59" height="14.23" transform="matrix(0.13, -0.99, 0.99, 0.13, 337.21, 868.52)"/><rect class="cls-10" x="384.3" y="76.1" width="21.37" height="13.17" transform="translate(277.18 447.8) rotate(-86.75)"/><rect class="cls-10" x="301.75" y="224.88" width="18" height="27.5" transform="matrix(0.98, -0.2, 0.2, 0.98, -54.15, 42.03)"/><rect class="cls-10" x="394.78" y="51.33" width="15.66" height="26.33" transform="translate(302.53 438.26) rotate(-86.75)"/><rect class="cls-10" x="406.11" y="182.74" width="21.52" height="32.07" transform="translate(151.54 560.96) rotate(-82.36)"/></g><g id="Small_Buildings" data-name="Small Buildings"><rect class="cls-10" x="689.29" y="187.16" width="8.01" height="8.01" transform="translate(192.2 694.68) rotate(-62.66)"/><rect class="cls-10" x="159.91" y="167" width="8.18" height="8.18"/><rect class="cls-10" x="273.84" y="160.75" width="8.18" height="8.18" transform="translate(64.71 393.83) rotate(-82.36)"/><rect class="cls-10" x="321.26" y="305.39" width="11.83" height="17.93" transform="translate(-68.88 46.81) rotate(-11.47)"/><rect class="cls-10" x="563.56" y="167.26" width="19.66" height="13.17" transform="translate(354.47 711.91) rotate(-86.75)"/><rect class="cls-10" x="418.49" y="81.61" width="33.33" height="13.17" transform="translate(309.57 493.1) rotate(-86.75)"/><rect class="cls-10" x="335.26" y="171.33" width="16.67" height="30.33" transform="translate(100.17 477.68) rotate(-82.36)"/><rect class="cls-10" x="689.29" y="187.16" width="8.01" height="8.01" transform="translate(192.2 694.68) rotate(-62.66)"/><rect class="cls-10" x="159.91" y="167" width="8.18" height="8.18"/><rect class="cls-10" x="273.84" y="160.75" width="8.18" height="8.18" transform="translate(64.71 393.83) rotate(-82.36)"/><rect class="cls-10" x="321.26" y="305.39" width="11.83" height="17.93" transform="translate(-68.88 46.81) rotate(-11.47)"/><rect class="cls-10" x="563.56" y="167.26" width="19.66" height="13.17" transform="translate(354.47 711.91) rotate(-86.75)"/><rect class="cls-10" x="418.49" y="81.61" width="33.33" height="13.17" transform="translate(309.57 493.1) rotate(-86.75)"/><rect class="cls-10" x="335.26" y="171.33" width="16.67" height="30.33" transform="translate(100.17 477.68) rotate(-82.36)"/><rect class="cls-10" x="689.29" y="187.16" width="8.01" height="8.01" transform="translate(192.2 694.68) rotate(-62.66)"/><rect class="cls-10" x="159.91" y="167" width="8.18" height="8.18"/><rect class="cls-10" x="273.84" y="160.75" width="8.18" height="8.18" transform="translate(64.71 393.83) rotate(-82.36)"/><rect class="cls-10" x="321.26" y="305.39" width="11.83" height="17.93" transform="translate(-68.88 46.81) rotate(-11.47)"/><rect class="cls-10" x="563.56" y="167.26" width="19.66" height="13.17" transform="translate(354.47 711.91) rotate(-86.75)"/><rect class="cls-10" x="418.49" y="81.61" width="33.33" height="13.17" transform="translate(309.57 493.1) rotate(-86.75)"/><rect class="cls-10" x="335.26" y="171.33" width="16.67" height="30.33" transform="translate(100.17 477.68) rotate(-82.36)"/></g><g id="Garages-2" data-name="Garages"><rect class="cls-11" x="29.32" y="248.7" width="10.92" height="24.54"/><rect class="cls-11" x="47.11" y="243.64" width="12.46" height="29.6"/><rect class="cls-11" x="29.32" y="278.79" width="10.92" height="25.11"/><rect class="cls-11" x="47.11" y="281.04" width="10.92" height="25.11"/><rect class="cls-11" x="65.99" y="225.31" width="5.46" height="78.6"/><rect class="cls-11" x="18.11" y="243.16" width="5.46" height="64.41"/><rect class="cls-11" x="20.84" y="308.91" width="37.19" height="6.52"/><rect class="cls-11" x="33.62" y="249.79" width="48.35" height="5.61" transform="translate(-112.37 22.11) rotate(-24.48)"/><rect class="cls-11" x="276.63" y="273.71" width="7.68" height="17.41" transform="translate(-44.99 11.44) rotate(-6.95)"/><rect class="cls-11" x="264.34" y="268.04" width="6.96" height="15.6" transform="translate(-62.41 34.23) rotate(-11.47)"/><rect class="cls-11" x="648" y="139.5" width="4.89" height="11.56" transform="translate(407.07 746.07) rotate(-82.36)"/><rect class="cls-11" x="286.13" y="108.72" width="11.56" height="4.89" transform="translate(130.02 361.14) rotate(-82.36)"/><rect class="cls-11" x="627.77" y="107.67" width="9.46" height="4.44" transform="translate(324.55 655.48) rotate(-72.49)"/><rect class="cls-12" x="29.32" y="248.7" width="10.92" height="24.54"/><rect class="cls-12" x="47.11" y="243.64" width="12.46" height="29.6"/><rect class="cls-12" x="29.32" y="278.79" width="10.92" height="25.11"/><rect class="cls-12" x="47.11" y="281.04" width="10.92" height="25.11"/><rect class="cls-12" x="65.99" y="225.31" width="5.46" height="78.6"/><rect class="cls-12" x="18.11" y="243.16" width="5.46" height="64.41"/><rect class="cls-12" x="20.84" y="308.91" width="37.19" height="6.52"/><rect class="cls-12" x="33.62" y="249.79" width="48.35" height="5.61" transform="translate(-112.37 22.11) rotate(-24.48)"/><rect class="cls-12" x="276.63" y="273.71" width="7.68" height="17.41" transform="translate(-44.99 11.44) rotate(-6.95)"/><rect class="cls-12" x="264.34" y="268.04" width="6.96" height="15.6" transform="translate(-62.41 34.23) rotate(-11.47)"/><rect class="cls-12" x="648" y="139.5" width="4.89" height="11.56" transform="translate(407.07 746.07) rotate(-82.36)"/><rect class="cls-12" x="286.13" y="108.72" width="11.56" height="4.89" transform="translate(130.02 361.14) rotate(-82.36)"/><rect class="cls-12" x="627.77" y="107.67" width="9.46" height="4.44" transform="translate(324.55 655.48) rotate(-72.49)"/></g><g id="Big_Buildings-2" data-name="Big Buildings"><rect class="cls-11" x="398.04" y="269.31" width="23.48" height="46.41" transform="translate(-62.89 62.81) rotate(-11.47)"/><rect class="cls-11" x="438.12" y="216.07" width="61.85" height="24.19" transform="matrix(0.18, -0.98, 0.98, 0.18, 147.21, 623.87)"/><rect class="cls-11" x="487.31" y="230.16" width="52.31" height="21.3" transform="translate(193.63 693.13) rotate(-82.36)"/><rect class="cls-11" x="541.16" y="244.49" width="26.7" height="41.69" transform="matrix(0.13, -0.99, 0.99, 0.13, 204.9, 755.07)"/><rect class="cls-11" x="602.24" y="231.35" width="31.59" height="17.97" transform="translate(284.76 796.37) rotate(-82.36)"/><rect class="cls-11" x="331.37" y="225" width="29.33" height="25.67" transform="translate(-53.28 49.04) rotate(-11.47)"/><rect class="cls-11" x="360.5" y="235.33" width="14.5" height="11.33" transform="translate(-61.08 73.92) rotate(-14.32)"/><rect class="cls-11" x="86.11" y="237.89" width="24.5" height="46.11"/><rect class="cls-11" x="285.87" y="251.93" width="9.77" height="13.39" transform="translate(-58.53 38.45) rotate(-11.47)"/><rect class="cls-11" x="282.67" y="232.61" width="19.53" height="19.53" transform="translate(-55.26 38.46) rotate(-11.47)"/><rect class="cls-11" x="710.61" y="280.91" width="11.48" height="19.36" transform="matrix(0.13, -0.99, 0.99, 0.13, 320.2, 937.39)"/><rect class="cls-11" x="667.58" y="267.22" width="16.57" height="32.78" transform="matrix(0.13, -0.99, 0.99, 0.13, 292, 891.2)"/><rect class="cls-11" x="669.7" y="239.32" width="31.59" height="14.23" transform="matrix(0.13, -0.99, 0.99, 0.13, 337.21, 868.52)"/><rect class="cls-11" x="384.3" y="76.1" width="21.37" height="13.17" transform="translate(277.18 447.8) rotate(-86.75)"/><rect class="cls-11" x="301.75" y="224.88" width="18" height="27.5" transform="matrix(0.98, -0.2, 0.2, 0.98, -54.15, 42.03)"/><rect class="cls-11" x="394.78" y="51.33" width="15.66" height="26.33" transform="translate(302.53 438.26) rotate(-86.75)"/><rect class="cls-11" x="406.11" y="182.74" width="21.52" height="32.07" transform="translate(151.54 560.96) rotate(-82.36)"/><rect class="cls-11" x="398.04" y="269.31" width="23.48" height="46.41" transform="translate(-62.89 62.81) rotate(-11.47)"/><rect class="cls-12" x="438.12" y="216.07" width="61.85" height="24.19" transform="matrix(0.18, -0.98, 0.98, 0.18, 147.21, 623.87)"/><rect class="cls-12" x="487.31" y="230.16" width="52.31" height="21.3" transform="translate(193.63 693.13) rotate(-82.36)"/><rect class="cls-12" x="541.16" y="244.49" width="26.7" height="41.69" transform="matrix(0.13, -0.99, 0.99, 0.13, 204.9, 755.07)"/><rect class="cls-12" x="602.24" y="231.35" width="31.59" height="17.97" transform="translate(284.76 796.37) rotate(-82.36)"/><rect class="cls-11" x="331.37" y="225" width="29.33" height="25.67" transform="translate(-53.28 49.04) rotate(-11.47)"/><rect class="cls-11" x="360.5" y="235.33" width="14.5" height="11.33" transform="translate(-61.08 73.92) rotate(-14.32)"/><rect class="cls-12" x="86.11" y="237.89" width="24.5" height="46.11"/><rect class="cls-12" x="285.87" y="251.93" width="9.77" height="13.39" transform="translate(-58.53 38.45) rotate(-11.47)"/><rect class="cls-12" x="282.67" y="232.61" width="19.53" height="19.53" transform="translate(-55.26 38.46) rotate(-11.47)"/><rect class="cls-12" x="710.61" y="280.91" width="11.48" height="19.36" transform="matrix(0.13, -0.99, 0.99, 0.13, 320.2, 937.39)"/><rect class="cls-12" x="667.58" y="267.22" width="16.57" height="32.78" transform="matrix(0.13, -0.99, 0.99, 0.13, 292, 891.2)"/><rect class="cls-12" x="669.7" y="239.32" width="31.59" height="14.23" transform="matrix(0.13, -0.99, 0.99, 0.13, 337.21, 868.52)"/><rect class="cls-12" x="384.3" y="76.1" width="21.37" height="13.17" transform="translate(277.18 447.8) rotate(-86.75)"/><rect class="cls-12" x="301.75" y="224.88" width="18" height="27.5" transform="matrix(0.98, -0.2, 0.2, 0.98, -54.15, 42.03)"/><rect class="cls-12" x="394.78" y="51.33" width="15.66" height="26.33" transform="translate(302.53 438.26) rotate(-86.75)"/><rect class="cls-11" x="406.11" y="182.74" width="21.52" height="32.07" transform="translate(151.54 560.96) rotate(-82.36)"/></g><g id="Small_Buildings-2" data-name="Small Buildings"><rect class="cls-11" x="689.29" y="187.16" width="8.01" height="8.01" transform="translate(192.2 694.68) rotate(-62.66)"/><rect class="cls-11" x="159.91" y="167" width="8.18" height="8.18"/><rect class="cls-11" x="273.84" y="160.75" width="8.18" height="8.18" transform="translate(64.71 393.83) rotate(-82.36)"/><rect class="cls-11" x="321.26" y="305.39" width="11.83" height="17.93" transform="translate(-68.88 46.81) rotate(-11.47)"/><rect class="cls-11" x="563.56" y="167.26" width="19.66" height="13.17" transform="translate(354.47 711.91) rotate(-86.75)"/><rect class="cls-11" x="418.49" y="81.61" width="33.33" height="13.17" transform="translate(309.57 493.1) rotate(-86.75)"/><rect class="cls-11" x="335.26" y="171.33" width="16.67" height="30.33" transform="translate(100.17 477.68) rotate(-82.36)"/><rect class="cls-12" x="689.29" y="187.16" width="8.01" height="8.01" transform="translate(192.2 694.68) rotate(-62.66)"/><rect class="cls-12" x="159.91" y="167" width="8.18" height="8.18"/><rect class="cls-12" x="273.84" y="160.75" width="8.18" height="8.18" transform="translate(64.71 393.83) rotate(-82.36)"/><rect class="cls-12" x="321.26" y="305.39" width="11.83" height="17.93" transform="translate(-68.88 46.81) rotate(-11.47)"/><rect class="cls-12" x="563.56" y="167.26" width="19.66" height="13.17" transform="translate(354.47 711.91) rotate(-86.75)"/><rect class="cls-12" x="418.49" y="81.61" width="33.33" height="13.17" transform="translate(309.57 493.1) rotate(-86.75)"/><rect class="cls-11" x="335.26" y="171.33" width="16.67" height="30.33" transform="translate(100.17 477.68) rotate(-82.36)"/></g></g></svg>