<?xml version="1.0" encoding="utf-8"?>
<!-- Generator: Adobe Illustrator 19.0.0, SVG Export Plug-In . SVG Version: 6.00 Build 0)  -->
<svg version="1.1" xmlns="http://www.w3.org/2000/svg" xmlns:xlink="http://www.w3.org/1999/xlink" x="0px" y="0px"
	 viewBox="0 0 863 919.3" style="enable-background:new 0 0 863 919.3;" xml:space="preserve">
<style type="text/css">
	.st0{fill:#DFF2FF;}
	.st1{fill:#FFFFA9;stroke:#000000;stroke-miterlimit:10;}
	.st2{fill:none;stroke:#000000;stroke-width:4;stroke-miterlimit:10;}
	.st3{fill:#0C0C0B;stroke:#000000;stroke-width:0.5;stroke-miterlimit:10;}
	.st4{stroke:#000000;stroke-width:4;stroke-miterlimit:10;}
	.st5{stroke:#000000;stroke-width:2;stroke-miterlimit:10;}
	.st6{fill:#FFFFFF;stroke:#888888;stroke-width:2;stroke-miterlimit:10;}
	.st7{fill:#D1E3E8;stroke:#888888;stroke-width:2;stroke-miterlimit:10;}
	.st8{fill:#E9F7FF;stroke:#888888;stroke-width:2;stroke-miterlimit:10;}
	.st9{fill:#D3D190;stroke:#000000;stroke-miterlimit:10;}
	.st10{fill:none;stroke:#000000;stroke-width:2;stroke-miterlimit:10;}
	.st11{fill:#FFFFA9;stroke:#000000;stroke-width:2;stroke-miterlimit:10;}
	.st12{fill:#020201;stroke:#000000;stroke-width:2;stroke-miterlimit:10;}
	.st13{fill:#050502;stroke:#000000;stroke-width:4;stroke-miterlimit:10;}
</style>
<g id="Basement">
	<g id="Floor_1_">
		<polyline id="XMLID_161_" class="st0" points="172.3,790 223.3,790 223.3,705 279.3,705 279.3,644 259.3,644 259.3,686 223.3,686 
			223.3,545 302.3,545 302.3,558 367.3,558 367.3,497 493.3,497 493.3,584 459.3,584 459.3,633 517.3,633 517.6,609 482.3,609 
			482.3,606 670.3,606 670.3,466 657.3,466 657.3,377 592.3,377 592.3,346 674.3,346 674.3,53 635.3,53 635.3,66 632.3,66 
			632.3,50.3 635.3,21.7 641.6,2 627.3,2 620.6,20.7 617.3,46.3 617.3,97 632.3,97 632.3,74 635.3,74 635.3,82 656.3,82 656.3,231 
			634.3,231 634.3,259 656.3,259 656.3,333 592.3,333 592.3,319 605.3,319 605.3,269 561.3,269 561.3,319 572.3,319 572.3,333 
			487.3,333 487.3,376 458.3,376 458.3,336 303.3,336 303.3,526 222.3,526 222.3,467 189.3,467 189.3,504 204.3,504 204.3,569 
			166.3,569 166.3,640 203.3,640 203.3,737 172.3,737 172.3,756 204.3,756 204.3,772 172.3,772 172.3,792 		"/>
	</g>
	<g id="Connector">
		<g id="Ground_Floor_1_">
			<polyline id="XMLID_455_" class="st1" points="221.5,772.3 221.5,790.8 172.5,790.8 172.5,771.8 205,771.8 			"/>
			<polyline id="XMLID_454_" class="st1" points="205,756.8 171.5,756.8 171.5,735.8 205,735.8 			"/>
			<polyline id="XMLID_453_" class="st1" points="203,467.8 189.5,467.8 189.5,502.8 202.5,502.8 202.5,479.3 			"/>
			<polyline id="XMLID_452_" class="st1" points="570.5,393.3 570.5,442.8 591.5,442.8 591.5,393.3 			"/>
			<polyline id="XMLID_451_" class="st1" points="569,318.8 561,318.8 561.3,268.8 605,268.8 605.3,318.8 592,318.8 			"/>
			<polyline id="XMLID_450_" class="st1" points="482,608.8 518,608.8 517.3,632.8 458.5,632.8 458.5,609.3 			"/>
			<polyline id="XMLID_449_" class="st1" points="259.5,686.3 259.5,644.3 279.5,644 279.5,705.3 259.5,705 			"/>
			<polyline id="XMLID_448_" class="st1" points="654,64.8 635.5,64.8 635.3,52.8 662.5,52.8 662.5,65.3 			"/>
			<polyline id="XMLID_447_" class="st1" points="634.5,247.3 634.5,258.8 657.5,258.8 657.5,247.8 643,247.8 			"/>
			<polyline id="XMLID_446_" class="st1" points="315.5,402.3 315.5,433.8 302.5,433.8 302.5,402.3 			"/>
			<polyline id="XMLID_445_" class="st1" points="355.5,415.3 355.5,383.8 366.5,383.8 366.5,415.3 			"/>
		</g>
	</g>
	<g id="Wall_1_">
		<polyline id="XMLID_192_" class="st2" points="172.3,790 223.3,790 223.3,705 279.3,705 279.3,644 259.3,644 259.3,686 223.3,686 
			223.3,545 302.3,545 302.3,558 367.3,558 367.3,497 493.3,497 493.3,584 459.3,584 459.3,633 517.3,633 517.6,609 482.3,609 
			482.3,606 670.3,606 670.3,466 657.3,466 657.3,377 592.3,377 592.3,346 674.3,346 674.3,53 635.3,53 635.3,66 632.3,66 
			632.3,50.3 635.3,21.7 641.6,2 627.3,2 620.6,20.7 617.3,46.3 617.3,97 632.3,97 632.3,74 635.3,74 635.3,82 656.3,82 656.3,231 
			634.3,231 634.3,259 656.3,259 656.3,333 592.3,333 592.3,319 605.3,319 605.3,269 561.3,269 561.3,319 572.3,319 572.3,333 
			487.3,333 487.3,376 458.3,376 458.3,336 303.3,336 303.3,526 222.3,526 222.3,467 189.3,467 189.3,504 204.3,504 204.3,569 
			166.3,569 166.3,640 203.3,640 203.3,737 172.3,737 172.3,756 204.3,756 204.3,772 172.3,772 172.3,792 		"/>
		<circle id="XMLID_163_" class="st3" cx="335.6" cy="526" r="23.3"/>
		<circle id="XMLID_164_" class="st3" cx="335.6" cy="371" r="23.3"/>
		<circle id="XMLID_165_" class="st3" cx="335.6" cy="447.5" r="23.3"/>
		<polygon id="XMLID_166_" class="st4" points="439.3,394 569.3,394 569.3,442.5 592.3,442.8 592.3,394 639.3,394 639.3,466 
			493.3,466 493.3,477 367.3,477 367.3,356 439.3,356 		"/>
		<polygon id="XMLID_168_" class="st4" points="502.3,348 502.3,376 570.3,376 570.3,345 557.3,345 557.3,350 508.3,350 508.3,345 
			502.3,345 		"/>
		
			<rect id="XMLID_167_" x="605.6" y="519.9" transform="matrix(-0.9747 -0.2236 0.2236 -0.9747 1088.3038 1205.2562)" class="st3" width="13.5" height="42.2"/>
		
			<rect id="XMLID_169_" x="617.2" y="549.7" transform="matrix(-0.9856 -0.169 0.169 -0.9856 1144.7473 1210.9703)" class="st3" width="13.5" height="14.2"/>
		<rect id="XMLID_170_" x="589.1" y="549.7" class="st3" width="10.8" height="11.3"/>
		
			<rect id="XMLID_171_" x="592.8" y="535" transform="matrix(-0.9782 -0.2078 0.2078 -0.9782 1071.7107 1194.5267)" class="st3" width="11.5" height="11.9"/>
		<rect id="XMLID_172_" x="566.8" y="565" class="st3" width="7.3" height="7.3"/>
		<rect id="XMLID_173_" x="566.8" y="501" class="st3" width="7.3" height="7.3"/>
		<rect id="XMLID_174_" x="655.3" y="523" class="st3" width="12" height="12"/>
		<rect id="XMLID_175_" x="657.9" y="537.9" class="st3" width="9.8" height="16.5"/>
		<rect id="XMLID_176_" x="654.7" y="555.3" class="st3" width="12" height="12"/>
	</g>
</g>
<g id="Ground_Floor">
	<g id="Floor">
		<polygon id="XMLID_428_" class="st0" points="141,287.7 206.1,288.3 206.3,273.7 164,273 164,138.4 11.2,138.8 11.8,87.9 
			165,87.8 165,54.3 369,55.3 368.7,33.3 637,32.3 637,12.3 862,12.3 862,62.3 777,62.3 777,110.3 663,110.3 663,176.3 721,176.3 
			721.3,224.5 711,224.3 711,356.3 679,356.3 679,582.3 833,582.3 833,629.3 679,629.3 679,644.3 419,644.3 419,722.3 370,722.3 
			370,644.3 223,644.3 223,790.3 103,790.3 103,916.3 56,916.3 56,815.3 24,815.3 24,782.3 3,782.3 3,580.7 24,580.8 24,442.3 
			163,441.7 163,422.7 153,422.3 154,323.3 141,323.3 		"/>
	</g>
	<g id="Obstacles">
		<rect id="XMLID_64_" x="389.5" y="318.3" class="st5" width="30.5" height="11"/>
		
			<rect id="XMLID_65_" x="418" y="292.1" transform="matrix(0.997 7.689714e-002 -7.689714e-002 0.997 24.2046 -32.4331)" class="st5" width="30.5" height="12"/>
		<rect id="XMLID_66_" x="432.3" y="262.6" class="st5" width="11.3" height="27.3"/>
		<rect id="XMLID_71_" x="649" y="428.8" class="st5" width="15" height="39.5"/>
		
			<rect id="XMLID_76_" x="479" y="546.8" transform="matrix(0.9541 -0.2996 0.2996 0.9541 -147.1521 171.5371)" class="st5" width="13.5" height="37.5"/>
		<rect id="XMLID_77_" x="218.8" y="588.3" class="st5" width="25.3" height="12"/>
		
			<rect id="XMLID_79_" x="122.5" y="102.6" transform="matrix(0.9915 0.1304 -0.1304 0.9915 15.1664 -16.9944)" class="st5" width="29.8" height="9.5"/>
		<rect id="XMLID_80_" x="174.3" y="141.8" class="st5" width="31.3" height="11"/>
		<rect id="XMLID_147_" x="467" y="389.3" class="st5" width="18.8" height="37"/>
		
			<rect id="XMLID_148_" x="489.3" y="392.5" transform="matrix(0.9982 6.051731e-002 -6.051731e-002 0.9982 25.7919 -29.4346)" class="st5" width="19" height="37.2"/>
		<rect id="XMLID_149_" x="352" y="77.6" class="st5" width="40.3" height="100.8"/>
		<rect id="XMLID_150_" x="414.3" y="77.6" class="st5" width="40" height="100.8"/>
		<rect id="XMLID_156_" x="266" y="149.3" class="st5" width="14" height="15.8"/>
		<rect id="XMLID_157_" x="596.2" y="513.3" class="st5" width="18.2" height="35.3"/>
		<rect id="XMLID_158_" x="627.5" y="508.5" class="st5" width="18.8" height="36"/>
		<rect id="XMLID_159_" x="591.5" y="480.7" class="st5" width="32.8" height="16.7"/>
		
			<rect id="XMLID_160_" x="529.8" y="497.8" transform="matrix(0.9113 -0.4118 0.4118 0.9113 -160.1876 270.7196)" class="st5" width="36.8" height="18.5"/>
	</g>
	<g id="Ledge">
		<rect id="XMLID_402_" x="303" y="336.3" class="st6" width="65" height="224"/>
		<polyline id="XMLID_401_" class="st7" points="488,329.3 488,276.3 498,276.3 498,329.3 		"/>
		<polyline id="XMLID_400_" class="st7" points="518,329.3 518,276.3 529,276.3 529,329.3 		"/>
		<polyline id="XMLID_399_" class="st8" points="468,156.3 468,170.3 338,170.3 338,156.3 		"/>
		<polyline id="XMLID_398_" class="st8" points="348,156.3 348,82.3 379,82.3 379,156.3 427,156.3 427,82.3 459,82.3 459,156.3 		
			"/>
		<polyline id="XMLID_397_" class="st8" points="544,293.3 544,268.3 490,268.3 490,250.3 553,250.3 553,293.3 		"/>
		<polyline id="XMLID_396_" class="st7" points="184,524.3 184,444.3 220.3,444.3 219.7,577.3 184,577.3 184,532.3 		"/>
		<polyline id="XMLID_395_" class="st8" points="480,121.3 477,121.3 477,60.3 581,60.3 581,121.3 488,121.3 		"/>
	</g>
	<g id="Connector_1_">
		<g id="Basement_1_">
			<polyline id="XMLID_114_" class="st9" points="256.5,610.3 256.5,644.8 281.5,644.8 281.5,610.3 			"/>
			<polyline id="XMLID_88_" class="st9" points="163,774.8 222.5,774.8 222.5,789.8 163,789.8 			"/>
			<polyline id="XMLID_116_" class="st9" points="160,737.8 199.5,737.8 199.5,756.8 160,756.8 			"/>
			<polyline id="XMLID_101_" class="st9" points="543,634.8 483.5,634.8 483.5,608.8 543,608.8 			"/>
			<polyline id="XMLID_122_" class="st9" points="190.5,500.3 190.5,475.8 201.5,475.8 201.5,500.3 			"/>
			<polyline id="XMLID_17_" class="st9" points="303,433.8 312.5,433.8 312.5,402.8 302.5,402.8 302.5,425.3 			"/>
			<polyline id="XMLID_22_" class="st9" points="367.5,396.3 367.5,415.8 357.5,415.8 357.5,383.8 367,383.8 			"/>
			<polyline id="XMLID_54_" class="st9" points="572.5,464.3 572.5,394.8 591.5,394.8 591.5,464.3 			"/>
			<polyline id="XMLID_117_" class="st9" points="562.5,251.3 562.5,318.8 605.5,318.8 605.5,251.3 			"/>
			<polyline id="XMLID_118_" class="st9" points="649,245.8 668.5,245.8 668.5,256.8 649,256.8 			"/>
			<polyline id="XMLID_67_" class="st9" points="647,64.8 668.5,64.8 668.5,54.8 647,54.8 			"/>
		</g>
		<g id="First_Floor_1_">
			<polyline id="XMLID_378_" class="st1" points="178.5,171.3 178.5,187.8 167.5,187.8 167.5,154.8 187.5,154.8 187.5,171.3 			"/>
			<polyline id="XMLID_377_" class="st1" points="158,562.8 184.5,562.8 184.5,572.8 158,572.8 			"/>
			<polyline id="XMLID_376_" class="st1" points="159,446.8 184.5,446.8 184.5,457.8 159,457.8 			"/>
			<polyline id="XMLID_375_" class="st1" points="190,442.8 164.5,442.8 164.5,421.8 190,421.8 			"/>
			<polyline id="XMLID_374_" class="st1" points="194.4,251.5 162.5,251.8 162.5,273.3 194.4,273.5 			"/>
		</g>
		<g id="Second_Floor_1_">
			<polyline id="XMLID_115_" class="st1" points="316.5,307.3 316.5,276.8 333.5,276.8 333.5,306.8 326,306.8 325.8,283.8 
				324.7,283.8 324.5,307.3 			"/>
			<polyline id="XMLID_124_" class="st1" points="95.5,477.3 95.5,443.8 115.5,443.8 115.5,476.8 106.5,476.8 106.5,452.2 
				105.5,452.1 105.5,477.3 			"/>
			<polyline id="XMLID_125_" class="st1" points="144.5,717.3 144.5,758.8 123.5,758.8 123.5,716.8 133.5,716.8 133.5,747.8 
				134.5,747.8 134.5,717.3 			"/>
			<polyline id="XMLID_119_" class="st1" points="609,132.8 636.5,132.8 636.5,156.8 595.5,156.8 595.5,144.8 627.5,144.8 
				628.5,144.8 609,144.8 			"/>
		</g>
	</g>
	<g id="Wall">
		<path id="XMLID_259_" class="st10" d="M164,251.3"/>
		<path id="XMLID_258_" class="st10" d="M251,251.3"/>
		<line id="XMLID_257_" class="st10" x1="197" y1="323.3" x2="154" y2="323.3"/>
		<line id="XMLID_256_" class="st10" x1="208" y1="421.3" x2="163" y2="421.3"/>
		<line id="XMLID_255_" class="st10" x1="208" y1="442.3" x2="163" y2="442.3"/>
		<polyline id="XMLID_254_" class="st10" points="47.8,513.8 43.3,474.1 58.5,472.6 62.5,512.3 		"/>
		<line id="XMLID_253_" class="st10" x1="55" y1="562.3" x2="99" y2="562.3"/>
		<line id="XMLID_252_" class="st10" x1="55" y1="578.3" x2="99" y2="578.3"/>
		
			<rect id="XMLID_251_" x="285.3" y="561.3" transform="matrix(0.8921 -0.4518 0.4518 0.8921 -223.0753 196.9557)" class="st5" width="31.3" height="8.5"/>
		<polyline id="XMLID_250_" class="st10" points="24,724.3 24,758.3 200,758.3 200,736.5 160,736.3 		"/>
		<polyline id="XMLID_249_" class="st10" points="185,578.3 221,578.3 221,442.3 217,442.3 		"/>
		<polyline id="XMLID_248_" class="st10" points="24,711.3 24,674.3 24,603.3 		"/>
		<line id="XMLID_247_" class="st10" x1="24" y1="590.3" x2="24" y2="581.3"/>
		<line id="XMLID_246_" class="st10" x1="43.3" y1="634.7" x2="118.3" y2="607.7"/>
		<line id="XMLID_245_" class="st10" x1="49.3" y1="650.7" x2="123" y2="623.2"/>
		<line id="XMLID_244_" class="st10" x1="221" y1="426.3" x2="221" y2="279.3"/>
		<line id="XMLID_243_" class="st10" x1="221" y1="269.3" x2="221" y2="251.3"/>
		<line id="XMLID_242_" class="st10" x1="245" y1="224.3" x2="245" y2="178.3"/>
		<line id="XMLID_241_" class="st10" x1="260" y1="224.3" x2="260" y2="178.3"/>
		<polyline id="XMLID_240_" class="st10" points="267,145.3 307,145.3 307,106.3 		"/>
		<line id="XMLID_239_" class="st10" x1="267" y1="126.3" x2="307" y2="126.3"/>
		<polyline id="XMLID_238_" class="st10" points="315,145.3 326,145.3 326,106.3 		"/>
		<line id="XMLID_237_" class="st10" x1="485" y1="251.3" x2="485" y2="224.3"/>
		<polyline id="XMLID_236_" class="st10" points="485,216.3 485,212.3 533,212.3 		"/>
		<polyline id="XMLID_235_" class="st10" points="543,212.3 548,212.3 548,251.3 		"/>
		<polyline id="XMLID_234_" class="st10" points="440,54.3 628,54.3 638.2,54.3 675,54.3 		"/>
		<line id="XMLID_233_" class="st10" x1="638" y1="71.3" x2="638" y2="54.3"/>
		<line id="XMLID_232_" class="st10" x1="638" y1="82.3" x2="638" y2="159.3"/>
		<line id="XMLID_231_" class="st10" x1="638" y1="173.3" x2="638" y2="208.3"/>
		<polyline id="XMLID_230_" class="st10" points="638,222.3 638,225.3 650,225.3 		"/>
		<line id="XMLID_229_" class="st10" x1="661" y1="225.3" x2="675" y2="225.3"/>
		<line id="XMLID_228_" class="st10" x1="638" y1="238.3" x2="638" y2="248.3"/>
		<line id="XMLID_227_" class="st10" x1="638" y1="229.3" x2="638" y2="226.3"/>
		<line id="XMLID_226_" class="st10" x1="56" y1="839.3" x2="66" y2="839.3"/>
		<line id="XMLID_225_" class="st10" x1="76" y1="839.3" x2="103" y2="839.3"/>
		<polyline id="XMLID_224_" class="st10" points="223,644.3 223,610.3 257,610.3 257,644.3 		"/>
		<polyline id="XMLID_222_" class="st10" points="282,644.3 282,610.3 306,610.3 306,631.3 		"/>
		<polyline id="XMLID_221_" class="st10" points="585,598.3 585,586.3 667,586.3 667,598.3 		"/>
		<polyline id="XMLID_220_" class="st10" points="667,615.3 667,627.3 585,627.3 585,615.3 		"/>
		<line id="XMLID_219_" class="st10" x1="369" y1="54.3" x2="386" y2="54.3"/>
		<line id="XMLID_218_" class="st10" x1="396" y1="54.3" x2="430" y2="54.3"/>
		<line id="XMLID_217_" class="st10" x1="777" y1="62.3" x2="777" y2="30.3"/>
		<line id="XMLID_216_" class="st10" x1="56" y1="799.3" x2="56" y2="758.3"/>
		<line id="XMLID_215_" class="st10" x1="103" y1="769.3" x2="103" y2="758.3"/>
		<line id="XMLID_214_" class="st10" x1="103" y1="782.3" x2="103" y2="790.3"/>
		<line id="XMLID_213_" class="st10" x1="25" y1="772.3" x2="25" y2="782.3"/>
		<line id="XMLID_212_" class="st10" x1="390" y1="644.3" x2="419" y2="644.3"/>
		<line id="XMLID_211_" class="st10" x1="378" y1="644.3" x2="370" y2="644.3"/>
		<line id="XMLID_210_" class="st10" x1="679" y1="623.3" x2="679" y2="627.3"/>
		<line id="XMLID_209_" class="st10" x1="679" y1="582.3" x2="679" y2="611.3"/>
		<line id="XMLID_208_" class="st10" x1="762" y1="611.3" x2="762" y2="582.3"/>
		<line id="XMLID_207_" class="st10" x1="762" y1="623.3" x2="762" y2="629.3"/>
		<line id="XMLID_206_" class="st5" x1="164" y1="138.3" x2="164" y2="107.3"/>
		<line id="XMLID_205_" class="st5" x1="164" y1="94.3" x2="164" y2="88.3"/>
		<line id="XMLID_204_" class="st5" x1="88" y1="107.3" x2="88" y2="138.3"/>
		<line id="XMLID_203_" class="st5" x1="88" y1="94.3" x2="88" y2="88.3"/>
		<polyline id="XMLID_202_" class="st5" points="379,251.3 355,251.3 325,251.3 		"/>
		<line id="XMLID_201_" class="st5" x1="391" y1="251.3" x2="423" y2="251.3"/>
		<line id="XMLID_200_" class="st5" x1="280" y1="247.3" x2="330" y2="247.3"/>
		<line id="XMLID_199_" class="st5" x1="330" y1="230.3" x2="280" y2="230.3"/>
		<line id="XMLID_198_" class="st10" x1="205" y1="247.3" x2="164" y2="247.3"/>
		<line id="XMLID_197_" class="st10" x1="217" y1="251.3" x2="251" y2="251.3"/>
		<line id="XMLID_196_" class="st10" x1="221" y1="323.3" x2="216" y2="323.3"/>
		<line id="XMLID_195_" class="st10" x1="154" y1="371.3" x2="197" y2="371.3"/>
		<line id="XMLID_194_" class="st10" x1="185" y1="322.3" x2="185" y2="301.3"/>
		<line id="XMLID_193_" class="st10" x1="185" y1="288.3" x2="185" y2="292.3"/>
		<line id="XMLID_191_" class="st10" x1="218" y1="289.3" x2="221" y2="289.3"/>
		<line id="XMLID_190_" class="st10" x1="209" y1="289.3" x2="206" y2="289.3"/>
		<polyline id="XMLID_189_" class="st10" points="307,276.3 303,276.3 303,303.3 		"/>
		<polyline id="XMLID_188_" class="st10" points="303,314.3 303,318.3 355,318.3 355,276.3 		"/>
		<line id="XMLID_187_" class="st10" x1="355" y1="267.3" x2="355" y2="251.3"/>
		<line id="XMLID_186_" class="st10" x1="334" y1="297.3" x2="334" y2="251.3"/>
		<line id="XMLID_185_" class="st10" x1="316" y1="276.3" x2="334" y2="276.3"/>
		<line id="XMLID_184_" class="st11" x1="200" y1="736.3" x2="200" y2="714.3"/>
		<circle id="XMLID_182_" class="st5" cx="336" cy="525.8" r="23"/>
		<circle id="XMLID_181_" class="st5" cx="336" cy="370.8" r="23"/>
		<circle id="XMLID_180_" class="st5" cx="336" cy="447.8" r="23"/>
		<circle id="XMLID_179_" class="st5" cx="408.3" cy="370.6" r="18.8"/>
		<circle id="XMLID_178_" class="st5" cx="408.3" cy="525.6" r="18.8"/>
		<circle id="XMLID_177_" class="st5" cx="408.3" cy="447.6" r="18.8"/>
		<line id="XMLID_162_" class="st10" x1="221" y1="438.3" x2="221" y2="442.3"/>
		<line id="XMLID_155_" class="st10" x1="218" y1="421.3" x2="221" y2="421.3"/>
		<rect id="XMLID_154_" x="483.8" y="82.3" class="st12" width="88.8" height="17.2"/>
		<rect id="XMLID_153_" x="490.2" y="68.7" class="st12" width="45.8" height="12.8"/>
		<rect id="XMLID_152_" x="490.2" y="100.2" class="st12" width="45.8" height="12.7"/>
		<line id="XMLID_151_" class="st10" x1="777" y1="17.3" x2="777" y2="13.3"/>
		<polygon id="XMLID_146_" class="st2" points="140,287.7 205.6,288.3 205.5,273.7 163,273 163,138.4 10.7,138.8 11.1,87.9 
			164,87.8 164,55.3 369,55.3 368.7,33.3 636,33.3 636,13.3 861,13.3 861,63.3 776,63.3 776,111.3 662,111.3 662,177.3 720,177.3 
			720,224.7 710,224.3 710,357.3 678,357.3 678,583.3 832,583.3 832,630.3 678,630.3 678,645.3 418,645.3 418,723.3 369,723.3 
			369,645.3 222,645.3 222,791.3 102,791.3 102,917.3 55,917.3 55,816.3 23,816.3 23,783.3 2,783.3 2,580.7 23,580.8 23,442.3 
			162,441.7 162,422.7 153,422.3 153,324.3 140,324.3 		"/>
		<polyline id="XMLID_145_" class="st13" points="480,251.3 554,251.3 554,331.3 679,331.3 679,336.3 689,336.3 689,226.3 
			675,226.3 675,258.3 637,258.3 637,248.3 606,248.3 606,318.3 593,318.3 563,318.3 563,251.3 554,251.3 		"/>
		<polyline id="XMLID_144_" class="st2" points="453,495.3 453,251.3 434,251.3 		"/>
	</g>
</g>
<g id="First_Floor">
	<g id="Floor_2_">
		<polygon id="XMLID_223_" class="st0" points="169,176.3 165,176.3 165,239.3 165,259.3 130,259.3 130,420.3 162,420.3 162,440.3 
			185,440.3 185,578.3 221,578.3 221,226.3 197,226.3 197,176.3 		"/>
	</g>
	<g id="Connector_2_">
		<g id="Ground_Floor_2_">
			<polyline id="XMLID_134_" class="st9" points="176.5,176.3 176.5,162.8 178.5,162.8 178.5,176.8 187.5,176.8 187.5,154.8 
				167.5,154.8 167.5,177.3 			"/>
			<polyline id="XMLID_133_" class="st9" points="191,429.8 162.5,429.8 162.5,420.8 191,420.8 			"/>
			<polyline id="XMLID_132_" class="st9" points="185,446.8 159.5,446.8 159.5,457.8 185,457.8 			"/>
			<polyline id="XMLID_131_" class="st9" points="185,562.8 158.5,562.8 158.5,572.8 185,572.8 			"/>
			<polyline id="XMLID_130_" class="st9" points="167.5,350.5 169.8,349 172.3,350 176.5,349 176.5,352.3 177.5,354.9 175,357.8 
				173.1,356.5 170.9,357.8 170.3,356 167.3,357.2 166.9,355.6 			"/>
			<polyline id="XMLID_129_" class="st9" points="193,249.8 164.5,249.8 164.5,240.8 193,240.8 			"/>
		</g>
		<g id="Second_Floor_2_">
			<polyline id="XMLID_59_" class="st1" points="191,439.8 162.5,439.8 162.5,430.8 191,430.8 			"/>
			<polyline id="XMLID_113_" class="st1" points="193,259.8 164.5,259.8 164.5,250.8 193,250.8 			"/>
		</g>
	</g>
	<g id="Wall_2_">
		<polyline id="XMLID_84_" class="st10" points="185,572.3 185,578.3 221,578.3 221,440.3 218,440.3 		"/>
		<line id="XMLID_83_" class="st10" x1="185" y1="562.3" x2="185" y2="457.3"/>
		<polyline id="XMLID_82_" class="st10" points="185,447.3 185,440.3 208,440.3 		"/>
		<polyline id="XMLID_81_" class="st10" points="189,190.3 189,187.3 165,187.3 		"/>
		<line id="XMLID_78_" class="st10" x1="189" y1="199.3" x2="189" y2="240.3"/>
		<polyline id="XMLID_75_" class="st10" points="176,176.3 197,176.3 197,226.3 221,226.3 221,254.3 221,440.3 		"/>
		<polyline id="XMLID_74_" class="st10" points="208,420.3 162,420.3 162,440.3 		"/>
		<line id="XMLID_73_" class="st10" x1="218" y1="420.3" x2="221" y2="420.3"/>
		<line id="XMLID_72_" class="st10" x1="219" y1="259.3" x2="221" y2="259.3"/>
		<line id="XMLID_70_" class="st10" x1="165" y1="259.3" x2="208" y2="259.3"/>
		<line id="XMLID_69_" class="st10" x1="219" y1="241.3" x2="221" y2="241.3"/>
		<path id="XMLID_68_" class="st10" d="M150,353.3v6c1,0,29,0,29,0v-19h-29v5"/>
		<line id="XMLID_63_" class="st10" x1="157" y1="349.3" x2="157" y2="340.3"/>
		<line id="XMLID_62_" class="st10" x1="165" y1="349.3" x2="165" y2="340.3"/>
		<line id="XMLID_61_" class="st10" x1="172" y1="349.3" x2="172" y2="340.3"/>
		<polygon id="XMLID_60_" class="st5" points="150,340.3 150,322.3 208,322.3 208,359.3 179,359.3 179,340.3 		"/>
		<polyline id="XMLID_58_" class="st5" points="131,359.3 142,359.3 142,350.3 131,350.3 		"/>
		<line id="XMLID_57_" class="st10" x1="143" y1="380.3" x2="178" y2="380.3"/>
		<line id="XMLID_56_" class="st10" x1="143" y1="403.3" x2="178" y2="403.3"/>
		<line id="XMLID_55_" class="st10" x1="188" y1="403.3" x2="221" y2="403.3"/>
		<line id="XMLID_53_" class="st10" x1="188" y1="380.3" x2="221" y2="380.3"/>
		<rect id="XMLID_52_" x="144" y="300.3" class="st5" width="69" height="6"/>
		<rect id="XMLID_51_" x="144" y="276.3" class="st5" width="64" height="6"/>
		<rect id="XMLID_50_" x="149" y="259.3" class="st5" width="56" height="5"/>
		<polyline id="XMLID_49_" class="st10" points="142,342.3 142,322.3 139,322.3 		"/>
		<line id="XMLID_48_" class="st10" x1="133" y1="322.3" x2="130" y2="322.3"/>
		<polyline id="XMLID_47_" class="st10" points="185,440.3 162,440.3 162,420.3 130,420.3 130,259.3 165,259.3 165,241.3 208,241.3 
					"/>
		<polyline id="XMLID_46_" class="st10" points="165,259.3 165,176.3 168,176.3 		"/>
		<line id="XMLID_45_" class="st10" x1="130" y1="259.3" x2="149" y2="259.3"/>
		<line id="XMLID_44_" class="st10" x1="162" y1="420.3" x2="130" y2="420.3"/>
	</g>
</g>
<g id="Second_Floor">
	<g id="Floor_3_">
		<polygon id="XMLID_183_" class="st0" points="101,458.3 220,458.3 220,266.3 332,266.3 332,248.3 162,248.3 162,274.3 158,276.8 
			158,443.3 24,443.3 24,474.3 91,474.3 91,458.3 		"/>
	</g>
	<g id="Wall_3_">
		<polyline id="XMLID_26_" class="st2" points="317,265.3 221,265.3 221,442.3 217,442.3 		"/>
		<polyline id="XMLID_25_" class="st2" points="333,266.3 333,247.3 221,247.3 221,242.3 163,242.3 163,261.3 159,261.3 159,423.1 
			159,442.3 205,442.3 		"/>
		<line id="XMLID_24_" class="st10" x1="205" y1="373.3" x2="205" y2="403.3"/>
		<polyline id="XMLID_23_" class="st10" points="205,411.3 205,421.3 159,421.3 		"/>
		<polyline id="XMLID_21_" class="st10" points="205,362.3 205,355.3 159,355.3 		"/>
		<line id="XMLID_20_" class="st10" x1="205" y1="341.3" x2="205" y2="355.3"/>
		<polyline id="XMLID_19_" class="st10" points="205,331.3 205,314.3 159,314.3 		"/>
		<polyline id="XMLID_18_" class="st10" points="163,262.3 205,262.3 205,294.3 		"/>
		<line id="XMLID_16_" class="st10" x1="205" y1="301.3" x2="205" y2="314.3"/>
		<line id="XMLID_15_" class="st10" x1="221" y1="264.3" x2="221" y2="261.3"/>
		<line id="XMLID_14_" class="st10" x1="221" y1="251.3" x2="221" y2="247.3"/>
		<polyline id="XMLID_13_" class="st2" points="221,442.3 221,458.3 106,458.3 		"/>
		<polyline id="XMLID_12_" class="st2" points="95,458.3 92,458.3 92,473.3 25,473.3 25,442.3 159,442.3 		"/>
		<polyline id="XMLID_11_" class="st10" points="76,462.3 82,462.3 82,442.3 		"/>
		<line id="XMLID_10_" class="st10" x1="66" y1="462.3" x2="25" y2="462.3"/>
		<line id="XMLID_9_" class="st10" x1="205" y1="389.3" x2="182" y2="389.3"/>
	</g>
	<g id="Connector_3_">
		<g id="First_Floor_2_">
			<polyline id="XMLID_143_" class="st11" points="196,262.3 163,262.3 163,242.3 196,242.3 			"/>
			<polyline id="XMLID_141_" class="st11" points="190,441.3 160,441.3 160,421.3 190,421.3 			"/>
		</g>
		<g id="Ground_Floor_3_">
			<polyline id="XMLID_4_" class="st11" points="317,265.3 317,300.3 333,300.3 333,265.3 			"/>
			<polyline id="XMLID_3_" class="st11" points="92,458.3 92,493.3 108,493.3 108,458.3 			"/>
		</g>
	</g>
</g>
</svg>
