<svg xmlns="http://www.w3.org/2000/svg" viewBox="0 0 863 919.333">
	<defs>
		<style>.cls-1{fill:#dff2ff;}.cls-12,.cls-2{fill:#ffffa9;}.cls-10,.cls-11,.cls-12,.cls-13,.cls-14,.cls-2,.cls-3,.cls-4,.cls-5,.cls-6{stroke:#000;}.cls-10,.cls-11,.cls-12,.cls-13,.cls-14,.cls-2,.cls-3,.cls-4,.cls-5,.cls-6,.cls-7,.cls-8,.cls-9{stroke-miterlimit:10;}.cls-11,.cls-3{fill:none;}.cls-14,.cls-3,.cls-5{stroke-width:4px;}.cls-4{fill:#0c0c0b;stroke-width:0.5px;}.cls-11,.cls-12,.cls-13,.cls-6,.cls-7,.cls-8,.cls-9{stroke-width:2px;}.cls-7{fill:#fff;}.cls-7,.cls-8,.cls-9{stroke:#888;}.cls-8{fill:#d1e3e8;}.cls-9{fill:#e9f7ff;}.cls-10{fill:#d3d190;}.cls-13{fill:#020201;}.cls-14{fill:#050502;}</style>
	</defs>
	<g id="Basement" data-name="Basement">
		<g id="Floor">
			<polyline class="cls-1" points="172.333 790 223.333 790 223.333 705 279.333 705 279.333 644 259.333 644 259.333 686 223.333 686 223.333 545 302.333 545 302.333 558 367.333 558 367.333 497 493.333 497 493.333 584 459.333 584 459.333 633 517.333 633 517.633 609 482.333 609 482.333 606 670.333 606 670.333 466 657.333 466 657.333 377 592.333 377 592.333 346 674.333 346 674.333 53 635.333 53 635.333 66 632.333 66 632.333 50.3 635.333 21.7 641.633 2 627.333 2 620.633 20.7 617.333 46.3 617.333 97 632.333 97 632.333 74 635.333 74 635.333 82 656.333 82 656.333 231 634.333 231 634.333 259 656.333 259 656.333 333 592.333 333 592.333 319 605.333 319 605.333 269 561.333 269 561.333 319 572.333 319 572.333 333 487.333 333 487.333 376 458.333 376 458.333 336 303.333 336 303.333 526 222.333 526 222.333 467 189.333 467 189.333 504 204.333 504 204.333 569 166.333 569 166.333 640 203.333 640 203.333 737 172.333 737 172.333 756 204.333 756 204.333 772 172.333 772 172.333 792"/>
		</g>
		<g id="Connector">
			<g id="Connector-Ground_Floor" data-name="Connector Ground Floor">
				<polyline class="cls-2" points="221.5 772.333 221.5 790.833 172.5 790.833 172.5 771.833 205 771.833"/>
				<polyline class="cls-2" points="205 756.833 171.5 756.833 171.5 735.833 205 735.833"/>
				<polyline class="cls-2" points="203 467.833 189.5 467.833 189.5 502.833 202.5 502.833 202.5 479.333"/>
				<polyline class="cls-2" points="570.5 393.333 570.5 442.833 591.5 442.833 591.5 393.333"/>
				<polyline class="cls-2" points="569 318.833 561 318.833 561.333 268.833 605 268.833 605.333 318.833 592 318.833"/>
				<polyline class="cls-2" points="482 608.833 518 608.833 517.333 632.833 458.5 632.833 458.5 609.333"/>
				<polyline class="cls-2" points="259.5 686.333 259.5 644.333 279.5 644 279.5 705.333 259.5 705"/>
				<polyline class="cls-2" points="654 64.833 635.5 64.833 635.333 52.833 662.5 52.833 662.5 65.333"/>
				<polyline class="cls-2" points="634.5 247.333 634.5 258.833 657.5 258.833 657.5 247.833 643 247.833"/>
				<polyline class="cls-2" points="315.5 402.333 315.5 433.833 302.5 433.833 302.5 402.333"/>
				<polyline class="cls-2" points="355.5 415.333 355.5 383.833 366.5 383.833 366.5 415.333"/>
			</g>
		</g>
		<g id="Wall">
			<polyline class="cls-3" points="172.333 790 223.333 790 223.333 705 279.333 705 279.333 644 259.333 644 259.333 686 223.333 686 223.333 545 302.333 545 302.333 558 367.333 558 367.333 497 493.333 497 493.333 584 459.333 584 459.333 633 517.333 633 517.633 609 482.333 609 482.333 606 670.333 606 670.333 466 657.333 466 657.333 377 592.333 377 592.333 346 674.333 346 674.333 53 635.333 53 635.333 66 632.333 66 632.333 50.3 635.333 21.7 641.633 2 627.333 2 620.633 20.7 617.333 46.3 617.333 97 632.333 97 632.333 74 635.333 74 635.333 82 656.333 82 656.333 231 634.333 231 634.333 259 656.333 259 656.333 333 592.333 333 592.333 319 605.333 319 605.333 269 561.333 269 561.333 319 572.333 319 572.333 333 487.333 333 487.333 376 458.333 376 458.333 336 303.333 336 303.333 526 222.333 526 222.333 467 189.333 467 189.333 504 204.333 504 204.333 569 166.333 569 166.333 640 203.333 640 203.333 737 172.333 737 172.333 756 204.333 756 204.333 772 172.333 772 172.333 792"/>
			<circle class="cls-4" cx="335.633" cy="526" r="23.3"/>
			<circle class="cls-4" cx="335.633" cy="371" r="23.3"/>
			<circle class="cls-4" cx="335.633" cy="447.489" r="23.3"/>
			<polygon class="cls-5" points="439.333 394 569.333 394 569.333 442.5 592.333 442.8 592.333 394 639.333 394 639.333 466 493.333 466 493.333 477 367.333 477 367.333 356 439.333 356 439.333 394"/>
			<polygon class="cls-5" points="502.333 348 502.333 376 570.333 376 570.333 345 557.333 345 557.333 350 508.333 350 508.333 345 502.333 345 502.333 348"/>
			<rect class="cls-4" x="627.288" y="565.93" width="42.201" height="13.5" transform="translate(-90.769 1044.937) rotate(-77.08)"/>
			<rect class="cls-4" x="652.809" y="581.685" width="14.2" height="13.5" transform="translate(-67.589 1107.738) rotate(-80.27)"/>
			<rect class="cls-4" x="589.133" y="549.7" width="10.8" height="11.3"/>
			<rect class="cls-4" x="628.644" y="566.892" width="11.9" height="11.5" transform="matrix(0.208, -0.978, 0.978, 0.208, -93.414, 1042.726)"/>
			<rect class="cls-4" x="566.833" y="565" width="7.3" height="7.3"/>
			<rect class="cls-4" x="566.833" y="501" width="7.3" height="7.3"/>
			<rect class="cls-4" x="655.333" y="523" width="12" height="12"/>
			<rect class="cls-4" x="657.933" y="537.9" width="9.8" height="16.5"/>
			<rect class="cls-4" x="654.733" y="555.3" width="12" height="12"/>
		</g>
	</g>
	<g id="Ground_Floor" data-name="Ground Floor">
		<g id="Floor-2" data-name="Floor">
			<polygon class="cls-1" points="141 287.667 206.083 288.333 206.25 273.729 164 273 164 138.371 11.167 138.833 11.833 87.917 165 87.833 165 54.333 369 55.333 368.667 33.333 637 32.333 637 12.333 862 12.333 862 62.333 777 62.333 777 110.333 663 110.333 663 176.333 721 176.333 721.25 224.458 711 224.333 711 356.333 679 356.333 679 582.333 833 582.333 833 629.333 679 629.333 679 644.333 419 644.333 419 722.333 370 722.333 370 644.333 223 644.333 223 790.333 103 790.333 103 916.333 56 916.333 56 815.333 24 815.333 24 782.333 3 782.333 3 580.667 24 580.833 24 442.333 163 441.667 163 422.667 153 422.333 154 323.333 141 323.333 141 287.667"/>
		</g>
		<g id="Obstacles">
			<rect class="cls-6" x="389.5" y="318.333" width="30.5" height="11"/>
			<rect class="cls-6" x="454" y="323.75" width="30.5" height="12" transform="translate(-9.254 -66.774) rotate(4.41)"/>
			<rect class="cls-6" x="432.25" y="262.583" width="11.25" height="27.345"/>
			<rect class="cls-6" x="649" y="428.833" width="15" height="39.5"/>
			<rect class="cls-6" x="515" y="578.5" width="13.5" height="37.5" transform="translate(-190.987 152.112) rotate(-17.436)"/>
			<rect class="cls-6" x="218.75" y="588.333" width="25.25" height="12"/>
			<rect class="cls-6" x="158.5" y="134.25" width="29.75" height="9.5" transform="translate(-16.398 -53.084) rotate(7.491)"/>
			<rect class="cls-6" x="174.25" y="141.833" width="31.25" height="11"/>
			<rect class="cls-6" x="467" y="389.333" width="18.75" height="37"/>
			<rect class="cls-6" x="525.333" y="424.125" width="19" height="37.247" transform="translate(-8.226 -63.222) rotate(3.47)"/>
			<rect class="cls-6" x="352" y="77.583" width="40.25" height="100.75"/>
			<rect class="cls-6" x="414.25" y="77.583" width="40" height="100.75"/>
			<rect class="cls-6" x="266" y="149.333" width="14" height="15.75"/>
			<rect class="cls-6" x="596.167" y="513.333" width="18.167" height="35.333"/>
			<rect class="cls-6" x="627.5" y="508.5" width="18.833" height="36"/>
			<rect class="cls-6" x="591.5" y="480.667" width="32.833" height="16.667"/>
			<rect class="cls-6" x="565.75" y="529.5" width="36.75" height="18.5" transform="translate(-206.034 256.688) rotate(-24.319)"/>
		</g>
		<g id="Ledge">
			<rect class="cls-7" x="303" y="336.333" width="65" height="224"/>
			<polyline class="cls-8" points="488 329.333 488 276.333 498 276.256 498 329.333"/>
			<polyline class="cls-8" points="518 329.333 518 276.333 529 276.256 529 329.333"/>
			<polyline class="cls-9" points="468 156.333 468 170.333 338 170.333 338 156.333"/>
			<polyline class="cls-9" points="348 156.333 348 82.333 379 82.333 379 156.333 427 156.333 427 82.333 459 82.333 459 156.333"/>
			<polyline class="cls-9" points="544 293.333 544 268.333 490 268.333 490 250.333 553 250.333 553 293.333"/>
			<polyline class="cls-8" points="184 524.333 184 444.333 220.333 444.333 219.667 577.333 184 577.333 184 532.333"/>
			<polyline class="cls-9" points="480 121.333 477 121.333 477 60.333 581 60.333 581 121.333 488 121.333"/>
		</g>
		<g id="Connector-2" data-name="Connector">
			<g id="Connector-2-Basement" data-name="Connector Basement">
				<polyline class="cls-10" points="256.5 610.333 256.5 644.833 281.5 644.833 281.5 610.333"/>
				<polyline class="cls-10" points="163 774.833 222.5 774.833 222.5 789.833 163 789.833"/>
				<polyline class="cls-10" points="160 737.833 199.5 737.833 199.5 756.833 160 756.833"/>
				<polyline class="cls-10" points="543 634.833 483.5 634.833 483.5 608.833 543 608.833"/>
				<polyline class="cls-10" points="190.5 500.333 190.5 475.833 201.5 475.833 201.5 500.333"/>
				<polyline class="cls-10" points="303 433.833 312.5 433.833 312.5 402.833 302.5 402.833 302.5 425.333"/>
				<polyline class="cls-10" points="367.5 396.333 367.5 415.833 357.5 415.833 357.5 383.833 367 383.833"/>
				<polyline class="cls-10" points="572.5 464.333 572.5 394.833 591.5 394.833 591.5 464.333"/>
				<polyline class="cls-10" points="562.5 251.333 562.5 318.833 605.5 318.833 605.5 251.333"/>
				<polyline class="cls-10" points="649 245.833 668.5 245.833 668.5 256.833 649 256.833"/>
				<polyline class="cls-10" points="647 64.833 668.5 64.833 668.5 54.833 647 54.833"/>
			</g>
			<g id="Connector-2-First_Floor" data-name="Connector First Floor">
				<polyline class="cls-2" points="178.5 171.333 178.5 187.833 167.5 187.833 167.5 154.833 187.5 154.833 187.5 171.333"/>
				<polyline class="cls-2" points="158 562.833 184.5 562.833 184.5 572.833 158 572.833"/>
				<polyline class="cls-2" points="159 446.833 184.5 446.833 184.5 457.833 159 457.833"/>
				<polyline class="cls-2" points="190 442.833 164.5 442.833 164.5 421.833 190 421.833"/>
				<polyline class="cls-2" points="194.375 251.5 162.5 251.833 162.5 273.333 194.375 273.538"/>
			</g>
			<g id="Connector-2-Second_Floor" data-name="Connector Second Floor">
				<polyline class="cls-2" points="316.5 307.333 316.5 276.833 333.5 276.833 333.5 306.833 326 306.833 325.833 283.833 324.667 283.833 324.5 307.333"/>
				<polyline class="cls-2" points="95.5 477.333 95.5 443.833 115.5 443.833 115.5 476.833 106.5 476.833 106.5 452.208 105.5 452.083 105.5 477.333"/>
				<polyline class="cls-2" points="144.5 717.333 144.5 758.833 123.5 758.833 123.5 716.833 133.5 716.833 133.5 747.833 134.5 747.833 134.5 717.333"/>
				<polyline class="cls-2" points="609 132.833 636.5 132.833 636.5 156.833 595.5 156.833 595.5 144.833 627.5 144.833 628.5 144.833 609 144.833"/>
			</g>
		</g>
		<g id="Wall-2" data-name="Wall">
			<path class="cls-11" d="M200,283" transform="translate(-36 -31.667)"/>
			<path class="cls-11" d="M287,283" transform="translate(-36 -31.667)"/>
			<line class="cls-11" x1="197" y1="323.333" x2="154" y2="323.333"/>
			<line class="cls-11" x1="208" y1="421.333" x2="163" y2="421.333"/>
			<line class="cls-11" x1="208" y1="442.333" x2="163" y2="442.333"/>
			<polyline class="cls-11" points="47.75 513.833 43.25 474.083 58.5 472.583 62.5 512.333"/>
			<line class="cls-11" x1="55" y1="562.333" x2="99" y2="562.333"/>
			<line class="cls-11" x1="55" y1="578.333" x2="99" y2="578.333"/>
			<rect class="cls-6" x="321.25" y="593" width="31.25" height="8.5" transform="translate(-269.499 184.971) rotate(-26.86)"/>
			<polyline class="cls-11" points="24 724.333 24 758.333 200 758.333 200 736.5 160 736.333"/>
			<polyline class="cls-11" points="185 578.333 221 578.333 221 442.333 217 442.333"/>
			<polyline class="cls-11" points="24 711.333 24 674.333 24 603.333"/>
			<line class="cls-11" x1="24" y1="590.333" x2="24" y2="581.333"/>
			<line class="cls-11" x1="43.25" y1="634.667" x2="118.333" y2="607.667"/>
			<line class="cls-11" x1="49.333" y1="650.667" x2="123" y2="623.167"/>
			<line class="cls-11" x1="221" y1="426.333" x2="221" y2="279.333"/>
			<line class="cls-11" x1="221" y1="269.333" x2="221" y2="251.333"/>
			<line class="cls-11" x1="245" y1="224.333" x2="245" y2="178.333"/>
			<line class="cls-11" x1="260" y1="224.333" x2="260" y2="178.333"/>
			<polyline class="cls-11" points="267 145.333 307 145.333 307 106.333"/>
			<line class="cls-11" x1="267" y1="126.333" x2="307" y2="126.333"/>
			<polyline class="cls-11" points="315 145.333 326 145.333 326 106.333"/>
			<line class="cls-11" x1="485" y1="251.333" x2="485" y2="224.333"/>
			<polyline class="cls-11" points="485 216.333 485 212.333 533 212.333"/>
			<polyline class="cls-11" points="543 212.333 548 212.333 548 251.333"/>
			<polyline class="cls-11" points="440 54.333 628 54.333 638.167 54.333 675 54.333"/>
			<line class="cls-11" x1="638" y1="71.333" x2="638" y2="54.333"/>
			<line class="cls-11" x1="638" y1="82.333" x2="638" y2="159.333"/>
			<line class="cls-11" x1="638" y1="173.333" x2="638" y2="208.333"/>
			<polyline class="cls-11" points="638 222.333 638 225.333 650 225.333"/>
			<line class="cls-11" x1="661" y1="225.333" x2="675" y2="225.333"/>
			<line class="cls-11" x1="638" y1="238.333" x2="638" y2="248.333"/>
			<line class="cls-11" x1="638" y1="229.333" x2="638" y2="226.333"/>
			<line class="cls-11" x1="56" y1="839.333" x2="66" y2="839.333"/>
			<line class="cls-11" x1="76" y1="839.333" x2="103" y2="839.333"/>
			<polyline class="cls-11" points="223 644.333 223 610.333 257 610.333 257 644.333"/>
			<polyline class="cls-11" points="282 644.333 282 610.333 306 610.333 306 631.333"/>
			<polyline class="cls-11" points="585 598.333 585 586.333 667 586.333 667 598.333"/>
			<polyline class="cls-11" points="667 615.333 667 627.333 585 627.333 585 615.333"/>
			<line class="cls-11" x1="369" y1="54.333" x2="386" y2="54.333"/>
			<line class="cls-11" x1="396" y1="54.333" x2="430" y2="54.333"/>
			<line class="cls-11" x1="777" y1="62.333" x2="777" y2="30.333"/>
			<line class="cls-11" x1="56" y1="799.333" x2="56" y2="758.333"/>
			<line class="cls-11" x1="103" y1="769.333" x2="103" y2="758.333"/>
			<line class="cls-11" x1="103" y1="782.333" x2="103" y2="790.333"/>
			<line class="cls-11" x1="25" y1="772.333" x2="25" y2="782.333"/>
			<line class="cls-11" x1="390" y1="644.333" x2="419" y2="644.333"/>
			<line class="cls-11" x1="378" y1="644.333" x2="370" y2="644.333"/>
			<line class="cls-11" x1="679" y1="623.333" x2="679" y2="627.333"/>
			<line class="cls-11" x1="679" y1="582.333" x2="679" y2="611.333"/>
			<line class="cls-11" x1="762" y1="611.333" x2="762" y2="582.333"/>
			<line class="cls-11" x1="762" y1="623.333" x2="762" y2="629.333"/>
			<line class="cls-6" x1="164" y1="138.333" x2="164" y2="107.333"/>
			<line class="cls-6" x1="164" y1="94.333" x2="164" y2="88.333"/>
			<line class="cls-6" x1="88" y1="107.333" x2="88" y2="138.333"/>
			<line class="cls-6" x1="88" y1="94.333" x2="88" y2="88.333"/>
			<polyline class="cls-6" points="379 251.333 355 251.333 325 251.333"/>
			<line class="cls-6" x1="391" y1="251.333" x2="423" y2="251.333"/>
			<line class="cls-6" x1="280" y1="247.333" x2="330" y2="247.333"/>
			<line class="cls-6" x1="330" y1="230.333" x2="280" y2="230.333"/>
			<line class="cls-11" x1="205" y1="247.333" x2="164" y2="247.333"/>
			<line class="cls-11" x1="217" y1="251.333" x2="251" y2="251.333"/>
			<line class="cls-11" x1="221" y1="323.333" x2="216" y2="323.333"/>
			<line class="cls-11" x1="154" y1="371.333" x2="197" y2="371.333"/>
			<line class="cls-11" x1="185" y1="322.333" x2="185" y2="301.333"/>
			<line class="cls-11" x1="185" y1="288.333" x2="185" y2="292.333"/>
			<line class="cls-11" x1="218" y1="289.333" x2="221" y2="289.333"/>
			<line class="cls-11" x1="209" y1="289.333" x2="206" y2="289.333"/>
			<polyline class="cls-11" points="307 276.333 303 276.333 303 303.333"/>
			<polyline class="cls-11" points="303 314.333 303 318.333 355 318.333 355 276.333"/>
			<line class="cls-11" x1="355" y1="267.333" x2="355" y2="251.333"/>
			<line class="cls-11" x1="334" y1="297.333" x2="334" y2="251.333"/>
			<line class="cls-11" x1="316" y1="276.333" x2="334" y2="276.333"/>
			<line class="cls-12" x1="200" y1="736.333" x2="200" y2="714.333"/>
			<circle class="cls-6" cx="336" cy="525.833" r="23"/>
			<circle class="cls-6" cx="336" cy="370.833" r="23"/>
			<circle class="cls-6" cx="336" cy="447.833" r="23"/>
			<circle class="cls-6" cx="408.25" cy="370.583" r="18.75"/>
			<circle class="cls-6" cx="408.25" cy="525.583" r="18.75"/>
			<circle class="cls-6" cx="408.25" cy="447.583" r="18.75"/>
			<line class="cls-11" x1="221" y1="438.333" x2="221" y2="442.333"/>
			<line class="cls-11" x1="218" y1="421.333" x2="221" y2="421.333"/>
			<rect class="cls-13" x="483.833" y="82.333" width="88.833" height="17.167"/>
			<rect class="cls-13" x="490.167" y="68.667" width="45.833" height="12.833"/>
			<rect class="cls-13" x="490.167" y="100.167" width="45.833" height="12.667"/>
			<line class="cls-11" x1="777" y1="17.333" x2="777" y2="13.333"/>
			<polygon class="cls-3" points="140 287.667 205.583 288.333 205.5 273.729 163 273 163 138.371 10.667 138.833 11.083 87.917 164 87.833 164 55.333 369 55.333 368.667 33.333 636 33.333 636 13.333 861 13.333 861 63.333 776 63.333 776 111.333 662 111.333 662 177.333 720 177.333 720 224.708 710 224.333 710 357.333 678 357.333 678 583.333 832 583.333 832 630.333 678 630.333 678 645.333 418 645.333 418 723.333 369 723.333 369 645.333 222 645.333 222 791.333 102 791.333 102 917.333 55 917.333 55 816.333 23 816.333 23 783.333 2 783.333 2 580.667 23 580.833 23 442.333 162 441.667 162 422.667 153 422.333 153 324.333 140 324.333 140 287.667"/>
			<polyline class="cls-14" points="480 251.333 554 251.333 554 331.333 679 331.333 679 336.333 689 336.333 689 226.333 675 226.333 675 258.333 637 258.333 637 248.333 606 248.333 606 318.333 593 318.333 563 318.333 563 251.333 554 251.333"/>
			<polyline class="cls-3" points="453 495.333 453 251.333 434 251.333"/>
		</g>
	</g>
	<g id="First_Floor" data-name="First Floor">
		<g id="Floor-3" data-name="Floor">
			<polygon class="cls-1" points="169 176.333 165 176.333 165 239.333 165 259.333 130 259.333 130 420.333 162 420.333 162 440.333 185 440.333 185 578.333 221 578.333 221 226.333 197 226.333 197 176.333 169 176.333"/>
		</g>
		<g id="Connector-3" data-name="Connector">
			<g id="Connector-3-Ground_Floor" data-name="Connector Ground Floor">
				<polyline class="cls-10" points="176.5 176.333 176.5 162.833 178.5 162.833 178.5 176.833 187.5 176.833 187.5 154.833 167.5 154.833 167.5 177.333"/>
				<polyline class="cls-10" points="191 429.833 162.5 429.833 162.5 420.833 191 420.833"/>
				<polyline class="cls-10" points="185 446.833 159.5 446.833 159.5 457.833 185 457.833"/>
				<polyline class="cls-10" points="185 562.833 158.5 562.833 158.5 572.833 185 572.833"/>
				<polyline class="cls-10" points="167.542 350.458 169.833 349 172.25 350 176.5 349 176.5 352.333 177.458 354.875 175.042 357.833 173.146 356.5 170.906 357.833 170.333 356 167.331 357.167 166.915 355.583"/>
				<polyline class="cls-10" points="193 249.833 164.5 249.833 164.5 240.833 193 240.833"/>
			</g>
			<g id="Connector-3-Second_Floor" data-name="Connector Second Floor">
				<polyline class="cls-2" points="191 439.833 162.5 439.833 162.5 430.833 191 430.833"/>
				<polyline class="cls-2" points="193 259.833 164.5 259.833 164.5 250.833 193 250.833"/>
			</g>
		</g>
		<g id="Wall-3" data-name="Wall">
			<polyline class="cls-11" points="185 572.333 185 578.333 221 578.333 221 440.333 218 440.333"/>
			<line class="cls-11" x1="185" y1="562.333" x2="185" y2="457.333"/>
			<polyline class="cls-11" points="185 447.333 185 440.333 208 440.333"/>
			<polyline class="cls-11" points="189 190.333 189 187.333 165 187.333"/>
			<line class="cls-11" x1="189" y1="199.333" x2="189" y2="240.333"/>
			<polyline class="cls-11" points="176 176.333 197 176.333 197 226.333 221 226.333 221 254.333 221 440.333"/>
			<polyline class="cls-11" points="208 420.333 162 420.333 162 440.333"/>
			<line class="cls-11" x1="218" y1="420.333" x2="221" y2="420.333"/>
			<line class="cls-11" x1="219" y1="259.333" x2="221" y2="259.333"/>
			<line class="cls-11" x1="165" y1="259.333" x2="208" y2="259.333"/>
			<line class="cls-11" x1="219" y1="241.333" x2="221" y2="241.333"/>
			<path class="cls-11" d="M186,385v6h29V372H186v5" transform="translate(-36 -31.667)"/>
			<line class="cls-11" x1="157" y1="349.333" x2="157" y2="340.333"/>
			<line class="cls-11" x1="165" y1="349.333" x2="165" y2="340.333"/>
			<line class="cls-11" x1="172" y1="349.333" x2="172" y2="340.333"/>
			<polygon class="cls-6" points="150 340.333 150 322.333 208 322.333 208 359.333 179 359.333 179 340.333 150 340.333"/>
			<polyline class="cls-6" points="131 359.333 142 359.333 142 350.333 131 350.333"/>
			<line class="cls-11" x1="143" y1="380.333" x2="178" y2="380.333"/>
			<line class="cls-11" x1="143" y1="403.333" x2="178" y2="403.333"/>
			<line class="cls-11" x1="188" y1="403.333" x2="221" y2="403.333"/>
			<line class="cls-11" x1="188" y1="380.333" x2="221" y2="380.333"/>
			<rect class="cls-6" x="144" y="300.333" width="69" height="6"/>
			<rect class="cls-6" x="144" y="276.333" width="64" height="6"/>
			<rect class="cls-6" x="149" y="259.333" width="56" height="5"/>
			<polyline class="cls-11" points="142 342.333 142 322.333 139 322.333"/>
			<line class="cls-11" x1="133" y1="322.333" x2="130" y2="322.333"/>
			<polyline class="cls-11" points="185 440.333 162 440.333 162 420.333 130 420.333 130 259.333 165 259.333 165 241.333 208 241.333"/>
			<polyline class="cls-11" points="165 259.333 165 176.333 168 176.333"/>
			<line class="cls-11" x1="130" y1="259.333" x2="149" y2="259.333"/>
			<line class="cls-11" x1="162" y1="420.333" x2="130" y2="420.333"/>
		</g>
	</g>
	<g id="Second_Floor" data-name="Second Floor">
		<g id="Floor-4" data-name="Floor">
			<polygon class="cls-1" points="101 458.333 220 458.333 220 266.333 332 266.333 332 248.333 162 248.333 162 274.333 158 276.833 158 443.333 24 443.333 24 474.333 91 474.333 91 458.333 101 458.333"/>
		</g>
		<g id="Wall-4" data-name="Wall">
			<polyline class="cls-3" points="317 265.333 221 265.333 221 442.333 217 442.333"/>
			<polyline class="cls-3" points="333 266.333 333 247.333 221 247.333 221 242.333 163 242.333 163 261.333 159 261.333 159 423.083 159 442.333 205 442.333"/>
			<line class="cls-11" x1="205" y1="373.333" x2="205" y2="403.333"/>
			<polyline class="cls-11" points="205 411.333 205 421.333 159 421.333"/>
			<polyline class="cls-11" points="205 362.333 205 355.333 159 355.333"/>
			<line class="cls-11" x1="205" y1="341.333" x2="205" y2="355.333"/>
			<polyline class="cls-11" points="205 331.333 205 314.333 159 314.333"/>
			<polyline class="cls-11" points="163 262.333 205 262.333 205 294.333"/>
			<line class="cls-11" x1="205" y1="301.333" x2="205" y2="314.333"/>
			<line class="cls-11" x1="221" y1="264.333" x2="221" y2="261.333"/>
			<line class="cls-11" x1="221" y1="251.333" x2="221" y2="247.333"/>
			<polyline class="cls-3" points="221 442.333 221 458.333 106 458.333"/>
			<polyline class="cls-3" points="95 458.333 92 458.333 92 473.333 25 473.333 25 442.333 159 442.333"/>
			<polyline class="cls-11" points="76 462.333 82 462.333 82 442.333"/>
			<line class="cls-11" x1="66" y1="462.333" x2="25" y2="462.333"/>
			<line class="cls-11" x1="205" y1="389.333" x2="182" y2="389.333"/>
		</g>
		<g id="Connector-4" data-name="Connector">
			<g id="Connector-4-First_Floor" data-name="Connector First Floor">
				<polyline class="cls-12" points="196 262.333 163 262.333 163 242.333 196 242.333"/>
				<polyline class="cls-12" points="190 441.333 160 441.333 160 421.333 190 421.333"/>
			</g>
			<g id="Connector-4-Ground_Floor" data-name="Connector Ground Floor">
				<polyline class="cls-12" points="317 265.333 317 300.333 333 300.333 333 265.333"/>
				<polyline class="cls-12" points="92 458.333 92 493.333 108 493.333 108 458.333"/>
			</g>
		</g>
	</g>
</svg>
