<svg xmlns="http://www.w3.org/2000/svg" xmlns:xlink="http://www.w3.org/1999/xlink" id="svg1" version="1.1" viewBox="0 0 348.92543 488.44792">
  <style id="style_common">
    .trees { fill:#144043 }
    .cement { fill:#c6c2c2 }
    .land { fill:#1f5054 }
    .rock { fill:#dcd5b6 }
    .water { fill:#4a6b96 }
    .wood { fill:#593700 }
    .tarmac { fill:#768089 }
    .gravel { fill:#946d3e }
    .building { fill:#1a2632 }
    .floor { fill:#70777f }
    .locked { fill:#37414c }
    .map_border { fill:none;stroke:#000;stroke-width:2 }
    .fence { fill:none;stroke:#c4e3c3;stroke-width:1 }
    .road_tarmac { fill:none;stroke:#888 }
    .road_gravel { fill:none;stroke:#946d3e }
    .road_small { stroke-width:5 }
    .road_medium { stroke-width:8 }
    .road_large { stroke-width:12 }
    .railroad { fill:none;stroke:#914833;stroke-dasharray:6;stroke-width:3 }
    .powerline { fill:none;stroke:#ffce00;stroke-width:2;stroke-miterlimit:10;stroke-dasharray:6,6 }
    .danger { fill:red;fill-opacity:.4;stroke:red;stroke-dasharray:4,2;stroke-width:2 }
    .task { fill:#000 }
    .stairs { fill:#FFD700 }
    .shadow { filter:drop-shadow(0 0 2px #000) }
  </style>
  <g id="Ground_Level">
    <g id="Ground" class="cement">
      <path id="the_ground" d="M74.7058 12.0655v50.160361H57.642466v3.973855H17.484549V172.74963l2.441351 1.48874-1.952693 4.68285h-4.073221v27.88231h3.410387V269.12h44.746115v-12.17508h10.103418v-14.74527H85.421V217.291h21.134v20.971h6.5v87.884h-7.752l-2.406 4.394v4.99h-7.6826v40.811l7.1966 25.562 23.481 36.485 13.949 6.521h54.312v4.677l12.913 4.063v6.733h4.969l8.334 5.202h53.063v-30.118h11.979v-37.721l-32.032-4.486-24.125-11.716v-26.538h-30.84v-15.61h-7.446v-34.702h12.388v-12.052h43.657v-28.175h24.546v-21.90578h20.2912v-11.95596h-19.12151v-41.48797H283.747V176.782h15.014v-3.117h18.221v-37.997h-33.235V58.615601h-57.58188V33.335957h-9.61376V12.0655Z" />
    </g>
    <g id="Tarmac" class="tarmac">
      <path d="M310.44531 8.916016v22.53125l-.12109.847656-.29883.800781-.46289.685547-.71289.558594-.81445.291015h-85.91993l-7.31054.542969-6.29492 1.085938-7.34766 2.169922-7.16406 3.220703-6.1875 3.763671-5.35743 4.089844L176.99023 54.75l-5.31835 6.189453-3.0254 4.814453-.34179.324219-.50586.324219-.94141.216797h-12.375V43.75h-6.30664v22.869141h-.78711V36.910156l-1.70117-.505859-1.73633-.796875-1.69922-1.048828-1.30468-1.267578H86.234375L84.75 34.957031l-1.158203 1.048828-1.412109.904297-2.207032.580078-2.121094-.0098V59.9375h57.498048v13.919922l.35156 1.048828.83203.904297 1.19336.398437h23.08789l1.23047.507813.94141.759765.57812 1.158204.10547.751953-.21484.839843-1.01172 5.861329-.83203 7.166015-.29102 3.763672-.21679 6.875002-.10743 6.83984v62.95508l-.48047 1.24023-.4414.66407-.66602.49609-.73437.29297-.78711.11328h-1.7461v.22852h-13.35937v7.05273H78.265625v-1.48437h62.791015v-3.55274H42.693359l-1.21289-.0918-.886719-.32812-.771484-.52539-.494141-.72266-.269531-.70117-.08398-.74414v-54.75391l4.824219-3.35742V97.519531l-4.824219-2.857422v-29.33789l.136719-.710938.310547-.828125.486328-.673828.714844-.505859.816406-.269531.714844-.07227h21.775386V49.140625h-3.042969V26.960938H49.140625v22.044921H41.8125l-.671875-.09375-.818359-.392578-.527344-.476562-.445313-.703125-.248047-.673828-.126953-.697266V15.931641h-5.978515V177.45703h-5.117188v-52.14062l-2.804687-11.09571V84.0625l2.851562-19.212891V15.892578h-5.984375V176.09766l-.002.0254-.283203.875-.507812.75781-.716797.53125-.873047.35937-.904297.0762H0v22.32422h18.765625l.835937.13281.863282.33008.789062.65039.490235.89453.197265.90039v109.25781l-.121094.82422-.277343.74805-.484375.69726-.689453.51172-.847657.33398-.927734.082H8.572266v4.97461h10.138672l.974609.13281.804687.3125.697266.48437.441406.64844.285156.70508.02734.13086v90.74805h5.9375V202.47461h5.117188v22.16016l2.916015 11.3164v29.75195l-2.941406 19.76368v129.08008h6.003906v-44.38672l.394532-1.52539 1.136718-1.19141 1.691407-.42578h46.701176v-13.32227H42.269531l-1.724609-.43554-1.13086-1.1543-.439453-1.65235v-61.30078l4.734375-2.76953v-20.11328l-4.734375-3.28906v-58.73438l.15625-.99414.47461-.95898.751953-.74219.876953-.43164.939453-.14062h98.822262v-3.61719H78.226562v-1.60938h64.513668v6.97071h13.40039v.3457h1.9668l1.16016.21289.9043.63672.54882.82422.27539 1.14648v146.73047l-.29297 1.16797-.55468.875-.69141.50586-1.07812.28711h-13.37696l-1.07812-.23633-.85938-.64063-.52148-.875-.16992-1.34765V338.5918H99.3125v28.41992h43.0957v-1.66797l.23633-1.06055.65625-.96093 1.04492-.70704 1.16211-.2539h12.73633l1.19531.27148 1.01172.70703.7168 1.125.75195 8.89454 1.125 7.38085.71289 3.04493 1.39844 4.85546 2.52539 6.11915 2.74414 4.63476 3.37305 4.5 3.95117 4.38867 4.66406 4.39063 5.18555 4.0332 6.22656 3.75781 6.91406 3.21094 2.08399.95899.98828.82226.63086 1.09961.21875 1.20703v56.84375h13.22461v-53.63476l.27344-1.3711.66015-1.01562 1.01563-.65821 1.06836-.27539h86.51367l1.17187.27735 1.00391.67187.63281.89258.22461 1.1543v44.68554h9.23047v-78.94531l25.12891-33.51172-7.33203-5.49804-27.06641 36.0957v17.79883l-.10938.83594-.24218.65234-.54102.76367-.76172.48438-.7832.29687-.79883.14844h-42.875l-.72266-.14453-.54687-.27539-.38672-.5586-.12305-.80859 3.96094-17.24805-10.60547-1.52734-2.58789 18.25195-.19922.78516-.31054.49804-.43555.4336-.64844.37305-.83203.2207h-30.2539l-2.14063-.13086-4.13086-.44531-4.0957-.83789-4.11133-1.35938-3.89063-1.58203-3.74218-2.06641-4.54102-2.92187-4.00195-3.36914-3.94531-3.75781-3.8711-4.61719-.9375-1.50391-.0625-.18555.14844-.20507.61328.0684 2.47852.88671 2.41015.76172 2.35352.63672 2.53515.38672 2.5918.35156 1.97852.125h1.42187v.61524h22.99805v-7.08985h-22.98633v.60938h-.69531l-4.33203-.3418-2.68164-.52148-2.47852-.625-3.35352-1.16016-2.51171-1.2168-2.69532-1.80859-2.20507-2.09961-.21094-.74805-.98633-4.44921-.61328-4.52344-.37305-4.70899-.0644-24.30468v-98.49024l.36328-.68359.46289-.6543.70313-.5039.89062-.34961.85352-.0957h112.67578c.528.058 1.21093.13672 1.21093.13672l.92188.41602.70508.66797.46289.75195.14258.83203v4.44141h-5.67188v35.20117h36.91406v-35.25977h-12.21289v27.10156h-7.13672v-27.10156h-5.18164v-4.73633l.27149-.86914.59765-.71875 1.00391-.53515 1.87109-.32813h27.40821v-9.23047H214.13867l-.30273-.20507-.19336-.36524V228.627l-.5625-1.20507-1.48633-1.32618-1.80859-1.28515-5.3418-3.29493-2.93164-2.25-2.95313-3.15234-1.92773-2.71289-1.125-2.58984-.70313-2.49024-.18164-3.73633.50196-4.9414 1.24609-4.6582 2.39063-7.47266 1.36523-6.38672.3418-6.42773-.1211-6.38672-.16015-4.82032h-20.82813v34.48633h3.45508v8.67578h-3.29492l1.64648 5.86524 1.62891 3.57617 2.08789 3.13281 3.39453 3.27344 3.71484 2.24805 3.57618 1.38672 5.04101 1.36718 1.48633.0195.48242.38086 1.60547 3.39454-.25976.66406-.39649.34765h-11.64062l-1.95313-.27539-2.25781-.75586-2.62305-1.20898-2.55664-1.65234-2.40039-2.02735-2.4375-2.92773-1.70313-2.98242-1.0039-3.28711-.46875-4.11329V97.042969l.15039-5.013672.30273-2.980469.50196-.566406.37695-.002.28906.201172 3.23633 4.912109V149.5312h21.10938v-4.45898l-.16211-6.44727-.2793-6.42773-.52344-6.36719-1.10351-6.4668-1.78907-7.26953-2.75-7.0293-2.67187-4.98242-4.13867-6.386715-2.85157-5.082031-2.71093-6.345703-2.95508-7.332031 1.47266-3.300781 1.6875-2.710938 2.52343-3.121094 3.78516-3.921875 3.68359-3.273437.85742-.632813.63086-.01953 17.9336 12.822266 5.42187-6.644532-11.15429-7.884765-1.81055-1.617188-1.54688-1.15039-.2207-.638672.23047-.525391 1.81641-.853515 4.77539-1.705079 3.82031-1.041015 5.31836-.664063 3.85547-.273437h83.26562l.88672.09766.83203.320313.59571.386718.54882.683594.28125.726563.11914.816406.17774 7.447265.27539 7.259766.26953 2.878906.99805 3.667969 1.17187 2.785156 1.65039 2.917969 1.65235 2.265625 1.97851 2.208985 2.57227 2.054687 2.70703 1.785156 3.3789 1.632813 3.57227 1.037109 3.91797.632813h16.48242v-9.035157l-7.57422-.04687-5.83594-.269531-4.93554-.826172-3.89844-1.630859-2.99414-2.248047-2.19141-3.570313-1.34375-5.357421-.5039-8.142579V8.916015Zm-78.17578 30.349609h52.84375v3.929687h-52.84375ZM84.423828 46.826172h15.16211v2.568359h-15.16211zm20.228512 0h15.01758v2.568359h-15.01758zm20.15625 0h15.23438v2.568359h-15.23438zm41.0586 207.892578h3.91015v52.86523h-3.91015zm-60.66797 96.47852h30.83203v2.61523h-30.82813z" />
    </g>
    <g id="Green" class="land">
      <path d="M44.512 205.726h21.9662v4.96l-21.9662 5.518z" />
      <path d="M50.5243 227.732v4.748l10.6502 2.599v-7.347z" />
      <path d="m61.1745 217.291-10.6502 2.607v4.794h10.6502z" />
      <path d="M66.4576 241.709v5.005H44.4711v-10.507z" />
      <path d="M45.2625 306.744v5.915h7.567v-4.026z" />
      <path d="m65.7196 306.741-7.6134 1.909v4.009h7.6134z" />
      <path d="M58.1062 292.93v3.952l7.6134 1.935v-5.887z" />
      <path d="M45.2625 292.93v5.852l7.567-1.908v-3.944z" />
      <path d="M45.261 328.339v-8.873h19.7046v3.979z" />
      <path d="M46.0058 332.127v4.022h19.7259v-8.959z" />
      <path d="M71.0515 328.744v7.447h10.6184v-4.787z" />
      <path d="M71.0515 324.169v-4.724h10.5971v7.417z" />
      <path d="M88.1297 312.914v9.887l3.0743-.854v-8.18z" />
      <path d="M88.2625 330.259v6.509h6.4712l-.835-3.131h-2.5809v-2.524z" />
      <path d="M108.302 369.405v3.378l9.888-2.479v-.899z" />
      <path d="M98.4292 369.405v5.854l7.6198-1.911v-3.943z" />
      <path d="M144.069 369.379v3.994l7.57 1.906v-5.9z" />
      <path d="M131.955 369.379v.944l9.911 2.495v-3.439z" />
      <path d="M137.778 333.583v2.014h7.038v-2.014z" />
      <path d="M126.381 333.583v2.014h7.057v-2.014z" />
      <path d="M114.606 333.583v2.014h7.039v-2.014z" />
      <path d="M103.243 333.583v2.014h6.988v-2.014z" />
      <path d="M150.846 335.659h7.036v-9.615h-2.049v3.972h-2.947v-1.348h-2.04z" />
      <path d="M150.807 312.784v2.027h5.033v2.503h2.043v-7.025h-2.043v2.495z" />
      <path d="M153.061 299.186h2.784v2.213h2.054v-7.062h-4.838z" />
      <path d="M150.9 203.38h-1.412v1.406h1.412z" />
      <path d="M146.434 203.156h-7.041v1.493h7.041z" />
      <path d="M134.76 203.374h1.38v1.412h-1.38z" />
      <path d="M127.551 203.38h1.381v1.394h-1.381z" />
      <path d="M122.364 203.156v1.512h-9.995v-1.512z" />
      <path d="M107.568 203.374h1.405v1.393h-1.405z" />
      <path d="M94.3324 203.156H104.34v1.506H94.3324Z" />
      <path d="M88.6104 203.368h1.3994v1.406h-1.3994z" />
      <path d="M79.9652 203.374h1.3932v1.4h-1.3932z" />
      <path d="M71.2702 203.138h3.9557v1.53h-3.9557z" />
      <path d="M160.703 364.101h-.795v22.159l.198 1.82.625 1.938.987 1.712 1.313 1.485 1.585 1.214 1.802.824 1.368.317-1.232-2.654-1.494-3.803-1.005-3.233-1.024-3.822-.615-3.595-.689-4.701-.833-9.382z" />
      <path d="m163.998 403.824 2.837.764-.012 6.741-5.056-1.37z" />
      <path d="M168.66 428.53v-7.126l.206-.571.429-.445.46-.174h.318l.508.174.428.445.175.571v7.126l-.159.54-.366.439-.571.243h-.301l-.575-.243-.361-.439z" />
      <path d="M176.856 433.489v-7.126l.207-.571.428-.444.461-.175h.317l.508.175.428.444.175.571v7.126l-.159.54-.366.439-.57.243h-.302l-.575-.243-.361-.439z" />
      <path d="M185.053 428.53v-7.126l.206-.571.429-.445.46-.174h.317l.509.174.428.445.174.571v7.126l-.158.54-.366.439-.571.243h-.301l-.576-.243-.361-.439z" />
      <path d="M197.347 449.297v-7.126l.207-.572.428-.444.46-.175h.318l.508.175.428.444.175.572v7.126l-.159.539-.366.439-.57.244h-.302l-.575-.244-.361-.439z" />
      <path d="M189.238 438.87h7.126l.571.206.444.429.175.46v.318l-.175.508-.444.428-.571.175h-7.126l-.54-.159-.439-.366-.243-.571v-.301l.243-.575.439-.361z" />
      <path d="M203.048 438.107h1.18v15.229h-1.18z" />
      <path d="M193.054 420.352v5.75l.22 1.184.609.896.98.626.981.22h8.574v-1.404l-.186-1.082-.659-1.066-.947-.71s-5.716-2.503-5.784-2.503c-.068 0-3.788-1.911-3.788-1.911z" />
      <path d="M233.287 428.423h7.763v1.143l-3.872 1.038-3.891-1.036z" />
      <path d="M267.376 428.423h7.763v1.143l-3.872 1.038-3.891-1.036z" />
      <path d="M289.04 428.423h7.763v1.143l-3.872 1.038-3.891-1.036z" />
      <path d="M218.666 459.161v-7.763h1.143l1.038 3.872-1.036 3.891z" />
      <path d="M299.363 413.054h-7.027v-2.098h7.027z" />
      <path d="M279.893 409.225h2.701v-3.802h2.006v3.815h.144v4.812h-7.107v-2.098h2.256z" />
      <path d="M282.635 399.967h4.826v-4.862h-4.826z" />
      <path d="M236.312 407.625h8.574v-2.154h-3.77v-2.676h-2.745v-2.224h-2.059z" />
      <path d="M215.263 405.417v-9.535h-15.852v1.222h14.618v8.313z" />
      <path d="M197.504 384.433h22.547v3.262h-22.547z" />
      <path d="M197.521 374.244h21.554v1.244h-21.554z" />
      <path d="M208.559 368.249h15.165v1.356h-15.165z" />
      <path d="M178.142 368.222h19.42v1.43h-19.42z" />
      <path d="M182.57 370.069h6.622v6.566h-6.622z" />
      <path d="M178.307 358.484V340.73h1.349v17.754z" />
      <path d="M178.288 324.924v-17.696h1.388v17.696z" />
      <path d="M178.288 299.19v-8.462h1.381v8.462z" />
      <path d="M178.282 282.1v-8.421h1.378v8.421z" />
      <path d="M178.278 257.827v-8.445h1.382v8.445z" />
      <path d="M182.088 245.543h8.431v1.424h-8.431z" />
      <path d="M196.814 245.488h26.633v1.451h-26.633z" />
      <path d="M234.237 245.474h27.024v1.396h-27.024z" />
      <path d="M270.842 245.44h8.356v12.515h-1.805v-11.122h-6.551z" />
      <path d="M279.107 267.724v12.591h-1.722v-12.591z" />
      <path d="M284.709 284.555h8.788v1.798h-8.788z" />
      <path d="M298.045 284.58h17.884v1.773h-17.884z" />
      <path d="M319.886 284.555h8.84v1.747h-8.84z" />
      <path d="M325.319 278.82h3.636v-30.084h-3.636z" />
      <path d="M312.714 248.736v26.862h-3.238v-26.862z" />
      <path d="M284.44 248.762h3.582v30.065h-3.582z" />
      <path d="M334.589 228.237h7.044v-2.017h-7.044z" />
      <path d="M323.797 228.357h7.044v-2.017h-7.044z" />
      <path d="M314.029 228.342h7.044v-2.017h-7.044z" />
      <path d="M291.497 228.372h7.044v-2.017h-7.044z" />
      <path d="M276.867 228.342h7.044v-2.017h-7.044z" />
      <path d="M258.047 221.691v6.763h-12.471v-6.763z" />
      <path d="M234.656 221.572v6.809h-4.16l-3.573-.356-4.036-1.067-5.156-1.92-4.818-2.311-3.537-1.938-3.965-2.56-2.542-2.258-2.436-2.684 5.885-3.289 1.866 2.24 2.703 2.311 3.715 2.489 3.485 1.849 4.48 1.458 3.52.729 3.805.373z" />
      <path d="m204.647 207.082-5.778 3.431-.605-1.546-.391-2.223.018-3.164.32-3.129.835-3.218 1.707-5.156 1.351-4.587.64-2.4.427-2.364.356-3.236.177-5.724-.053-5.067.249 4.978.32 1.297.711 1.103.942.711 1.12.427 1.227.106 1.173-.284 1.156-.676.853-.96.498-1.351.089-1.44.036-5.387.195 7.663-.018 2.275-.231 1.654-.586 1.689-4.356 10.524-1.636 4.232-.8 2.542-.462 2.08-.231 2.862.107 2.134z" />
      <path d="M209.144 162.352h-2.506v3.787l.462 7.324.142.445.356.249.302.017.427-.124.266-.231.178-.48.409-6.454z" />
      <path d="M212.205 151.093h-8.663l.015-3.799-.148-7.79-.192-6.445-.237-4.14-.561-4.627-.917-5.159-.739-3.474-.65-2.335 3.725-.961.695 3.119.842 2.75 1.479 3.828 5.07 12.226.207 2.838z" />
      <path d="m199.24 110.249-2.453-5.913-2.321-4.7305-3.726-5.6766-2.498-4.1539-1.079-2.0548-.843-2.3948-.384-1.5965-.133-1.0939-.03-1.36.237-1.6557.902-2.8678 1.005-2.0252 1.168-1.6853 1.434-1.5078 6.43 4.5974-1.182 2.247-.725 2.2469-.34 2.6314.296 2.9269.813 3.0452 1.02 2.9122 2.336 5.3661 1.433 3.8137 1.922 5.322.71 2.454z" />
      <path d="m198.93 62.4123 6.77 4.8044-.816 1.1502-6.77-4.8043z" />
      <path d="M221.074 162.192h-6.685v10.08l.125 1.014.32.444.444.196.373-.107.569-.445 1.671-1.902 1.227-1.6 1.013-1.973.641-1.778.248-2.045z" />
      <path d="M221.091 150.574h-6.708l.141-10.203.155-.606.451-.338.422.014.508.338 2.24 2.678 1.255 1.944 1.056 2.453.437 2.029z" />
      <path d="M247.325 215.725v3.53h12.457l1.683-.655 1.566-1.052.607-.981.024-1.099-.421-1.893-.748-2.15-1.87-2.337-10.774-7.994-.514-.07-.444.304-.468 1.005-.608 2.104-.42 3.996v2.618l.42.491.748.117 2.361.023 2.361.327 2.01.701 1.449.935-1.543 3.109-1.145-.608-1.66-.35z" />
      <circle cx="270.0072" cy="223.45987" r="1.978806" />
      <path d="m279.203 223.551 4.956-.924 4.893-.504 4.515-.063 4.41.399-6.846-3.969-2.625-1.029-2.205-.147-1.743.693-2.625 2.142z" />
      <path d="M236.386 212.664h7.807l.584-.328.257-.561.234-4.954.678-4.535.958-3.996 1.028-3.296.07-.841-.397-.771-3.856-2.104-.748.023-.585.468-4.394 9.769-1.612 4.394-.725 3.086-.07 2.664.257.701z" />
      <circle cx="257.20847" cy="194.03192" r="2.759436" />
      <path d="m233.044 215.679-.187 1.402-.397 1.028-.888.678-1.262.304-2.338-.094-3.599-.56-4.955-1.496-3.529-1.73-3.95-2.758-2.758-2.477-1.309-1.636-.023-.421.257-.21 1.192-.211 1.239.047 15.519.281 2.641-.164.491.047 2.314.771.654.444.701.888.327 1.122.094.982-1.753.187-3.132.771-2.851.561-2.338.023-2.01-.304-1.729-.49-1.052 3.459 1.473.467 2.15.397 2.431.187 3.015-.303 2.758-.608 2.197-.538z" />
      <path d="M212.664 205.231h-2.221l-.911-.233-1.356-1.052-.865-1.099-.794-1.869-.094-1.146.538-2.197 2.197-5.889 4.604-11.172.678-1.262 1.239-1.94.28-.094.304.117 2.361 1.706 1.472 1.262.07.327-.21.281-1.052.584-1.379 1.099-1.028 1.425-.515 1.52-.07 1.636.024 9.582-.678-.023-.257-2.407v-2.01l.07-1.753-3.903-.281-.094 3.015.187 3.483.514 3.435.772 3.693z" />
      <path d="m220.119 205.558 1.87.094 3.576.023 5.189-.374 1.753-.303 1.612-1.052 1.333-2.08 5.118-11.219.117-.654-.468-.725-1.869-1.379-2.221-1.893-3.692-3.716-.935-.865-.772-.234h-.935l-1.075.538-1.028.374-1.099.187-1.051.047-2.174-.024-1.8.234-1.565.771-1.192 1.332-.678 1.496-.117 2.221.023 14.958.421 1.309.818.654z" />
      <path d="m221.194 179.826.211.42.374.117 1.168-.14 1.894-.047 1.472.047 1.005-.187 1.028-.467.538-.538.093-.421-.21-.233-2.431.187-3.178.35-1.473.398-.467.28z" />
      <path d="m218.016 176.928 1.613-.912 1.846-.608 2.174-.374 2.571-.257-1.333-2.22-.818-.771s-1.262-.748-1.379-.748c-.117 0-.841-.07-.841-.07l-.561.303-1.496 1.286-2.641 3.225-.117.328.117.327z" />
      <path d="m223.368 162.297-.421 4.37.187 1.052.772.911 1.168.842 1.239 1.145 2.337 3.903 1.847-.14 3.015-.514 2.337-.935 2.15-1.262 2.337-2.548-.701-2.501-.327-2.384-.023-1.916h-.748l-.187 1.776-.585 1.403-.911 1.378-.982 1.005-1.542.959-1.449.561-1.707.233-1.776-.163-1.753-.584-1.309-.842-1.262-1.332-.981-1.519-.538-1.473z" />
      <path d="m231.922 178.564 2.267 2.477 2.805 2.805 2.594 2.314 1.543 1.028.608-.023.514-.398 1.239-2.314 1.893-3.903.14-.794-.234-.702-.958-1.028-1.005-1.543-1.379-2.711-.257-.21-.351.14-1.332 1.356-2.594 1.425-2.688 1.029-2.501.491-.35.21z" />
      <path d="m247.512 181.111-3.273 6.685-.116.654.327.654 3.342 1.987.654.047.398-.327 2.103-9.022-.07-.444-.397-.281-2.314-.374-.421.117z" />
      <path d="m249.358 178.727 1.683.281.561-.164.444-.514.865-4.23.35-2.758.187-4.184-.025-1.828-.304-.558-.601-.062-.332.602-.561 4.183-.701 3.342-.935 3.086-.982 2.197.024.373z" />
      <path d="m247.138 176.951 1.262-3.155.724-2.898.491-3.249.023-3.109-.163-2.384h-1.8l-.491 2.291-1.121 2.688-1.333 2.313-1.168 1.8-.07.421.35.911 1.122 2.525.771 1.308.608.748.514.07z" />
      <path d="M243.749 162.203h-2.384l.14 2.033.304 1.73.163.257.281-.093.958-2.034z" />
      <path d="M241.949 155.332h7.035v2.08h-7.035z" />
      <path d="m223.322 150.514-.161-2.127-.358-1.609.09-.912.411-.661 1.144-.787 1.269-1.144 1.073-1.43 1.662-2.663 1.055-1.609.536-.572.733-.179.751.232 8.044 8.295.304.429-.018.572-.733 4.308h-.733v-1.305l-.322-1.43-.679-1.484-.93-1.072-1.251-.894-1.305-.626-1.662-.536-1.377-.143-1.573.089-1.358.465-1.216.697-1.09.948-.93 1.197-.661 1.109-.447 1.573z" />
      <path d="M215.313 155.332h7.035v2.08h-7.035z" />
      <path d="m240.557 143.973.232-.625-2.803-3.127-5.744-5.767-.463.509z" />
      <path d="m230.343 133.481.486-.44-4.956-5.119-3.752-4.308-1.691-2.363-1.737-2.987-1.297 2.015z" />
      <path d="m223.51 142.421.834-.834 2.687-4.192 1.575-2.084.208-.718-.44-.765-11.789-11.928-1.367 2.432-1.204 2.756-1.089 3.034-.069.556.347 1.066.626 1.297 3.034 4.192 2.779 3.405.95 1.39.996.671 1.112.116z" />
      <path d="m211.489 127.482 1.297-3.104 1.483-2.964 1.853-3.081 1.598-2.293-.486-2.594-.348-2.895-.046-2.455-6.045-.047-1.274.325-1.483 1.065-1.042 1.482-.509 1.645-.047 1.783 1.228 3.59z" />
      <path d="M220.754 108.119v2.015l.255 2.131 2.223-2.154 2.548-2.015z" />
      <path d="m221.449 114.998.301 1.227.927 1.83 1.528 2.27 2.409 2.826 6.717 7.018 3.034-3.104 2.386-2.015 2.131-1.506-5.304-11.719-1.506-1.737-1.39-1.112-.81-.278-1.529.092-1.969.464-1.945 1.158-2.78 2.27z" />
      <path d="m234.952 131.697 5.096 5.258 2.154 2.409 1.274-2.965.903-1.83.533-.648.116-.417-.996-3.358-2.224-4.586-2.177 1.551-3.15 2.988z" />
      <path d="m244.379 141.75 1.32 1.899 1.436 2.872.533 3.914h1.621l.255-2.548.046-2.13-.301-2.409-.602-2.71-.903-2.664-.672-1.621-.44-.232-.417.186-.973 1.436-.764 1.621-.486 1.297.023.649z" />
      <path d="M241.322 150.597h2.733l-.51-2.408-1.112-2.317-.231-.092-.116.162-.51 2.733z" />
      <path d="m242.804 122.327 3.375-1.687 2.993-1.279-.68-3.619-1.442-3.865-1.987-2.912-2.422-2.503-.49-.191-3.51.436-1.769.326-.436.381-.136.653.762 1.769z" />
      <circle cx="257.1434" cy="109.08519" r="1.934992" />
      <path d="m243.811 124.423 3.511 7.429.571.517.599.191 2.449-.245-1.66-10.668z" />
      <path d="m251.17 133.866-1.862.408-.326.354-.082.354.953 2.286.952 2.776.572 2.476.381 2.967.19.653.545.326.517-.136.353-.598-.081-.844z" />
      <path d="m205.914 74.816-4.66 4.3139-2.446-1.7148-.941 1.652-.816 2.6767-.084 2.9695.941 3.8896 1.59 4.0778 1.777 4.0777 3.325 9.1806.753 2.467 1.352-1.337 1.922-.943 1.885-.29 6.237-.109-.077-.864h-10.758z" />
      <path d="m205.61 56.1319 11.599 7.8307h64.805l3.183.4391 3.842 2.0492 2.562 3.1469 1.024 2.8907v2.5249l-1.061 3.1103-2.598 2.9273-3 1.5735-3.879 1.0245h-4.464v9.8432l3.549 2.781 4.757 2.0492 6.733 1.3905 6.623.5851h4.171V88.1498h-4.903V68.0609h4.794v-4.2447h-3.294v-7.2086h3.33V54.156l-.219-.7684-.586-.4757-.915-.366H255.13v3.6994h-8.278v-3.6707h-25.503l-3.269.1721-4.187.5162-4.34 1.2236z" />
      <path d="M193.023 227.517h7.026l-4.589-1.23-2.48-.896-2.906-1.402-2.342-1.648-2.183-1.995-1.98-2.53-1.518-2.573-1.142-2.776-1.59-5.638v5.393l.187 2.862.449 2.038.361 1.07.477 1.142.766 1.316 1.186 1.648 1.518 1.604 1.677 1.244 1.72.983 1.735.694 1.85.506z" />
      <path d="M237.733 231.328h2.609v.732h-2.609z" />
      <path d="M175.551 203.225v2.608h-.732v-2.608z" />
      <path d="M175.551 182.266v2.609h-.732v-2.609z" />
      <path d="M175.551 166.731v2.609h-.732v-2.609z" />
      <path d="M175.551 145.907v2.609h-.732v-2.609z" />
      <path d="M175.551 115.971v2.609h-.732v-2.609z" />
      <path d="m185.739 65.8033-1.729 1.9539-.548-.4851 1.728-1.9538z" />
      <path d="m213.701 49.5969-2.555.5289-.148-.7169 2.554-.529z" />
      <path d="M168.66 428.53v-7.126l.206-.571.429-.445.46-.174h.318l.508.174.428.445.175.571v7.126l-.159.54-.366.439-.571.243h-.301l-.575-.243-.361-.439z" />
      <path d="M180.276 162.011h4.568v1.323h-4.568z" />
      <path d="M195.225 162.011h4.568v1.323h-4.568z" />
      <path d="M195.225 149.646h4.568v1.324h-4.568z" />
      <path d="M180.255 149.646h4.568v1.324h-4.568z" />
      <path d="M166.209 265.063v32.204h3.217v-32.204z" />
      <path d="M242.656 39.6283h32.095v3.1836h-32.095z" />
      <path d="M84.7064 47.1187h14.6198v1.9943H84.7064Z" />
      <path d="M104.86 47.1187h14.62v1.9943h-14.62z" />
      <path d="M125.146 47.1187h14.62v1.9943h-14.62z" />
      <path d="M260.962 25.0575h-6.977v1.9655h6.977z" />
      <path d="M246.45 25.0575h-6.977v1.9655h6.977z" />
      <path d="M232.626 25.0575h-6.977v1.9655h6.977z" />
      <path d="m162.729 58.4341 1.441-2.3542 1.825-2.7009 2.227-2.8103 2.408-2.7374 2.282-2.2994 2.098-1.8797-1.186-.8577-2.099-.8942-2.463-.3468-2.482.3285-2.154.8395-1.934 1.3139-1.314 1.4965-1.077 1.7884-.693 2.1534-.183 2.5184.438 2.3177 1.132 2.2629z" />
      <path d="m175.403 36.5388 13.439-3.6008-.358-1.334-13.438 3.6009z" />
      <path d="m189.422 32.7808 13.439-3.6009-.358-1.3339-13.438 3.6008z" />
      <path d="M147.901 42.4222h8.248v23.4912h-1.253V43.4356h-6.995z" />
      <path d="M125.973 30.8304h11.438v2.0342h-11.438z" />
      <path d="M107.801 30.8304h11.437v2.0342h-11.437z" />
      <path d="M75.4552 61.0661h2.0324V37.6849h-2.0324z" />
      <path d="M134.976 60.2653v2.0348h-9.627v-2.0348z" />
      <path d="M119.134 60.2389v2.0505H95.9694v-2.0505z" />
      <path d="M92.1456 60.2389v2.0505H75.2848v-.9144h2.4938v-1.1361z" />
      <path d="M74.7058 72.8331V37.2922h-8.0429v9.4164h-5.3895v2.0136h5.4257v14.1669h-8.3193V68.17h-4.9313v-1.5192h-6.4987V80.444h1.9773v-7.6109z" />
      <path d="M46.854 48.7143h2.019v-22.194h-2.019z" />
      <path d="M54.4822 81.0778h10.5284v-2.2444h9.6904v4.6137h-1.4992l-2.1391.8648-1.1613 2.1392-.0716.8954h-2.562v-2.3704h-7.0913v2.3704h-5.6943z" />
      <path d="M77.6765 81.1256h7.0095v1.6371h-7.0095z" />
      <path d="M46.9667 85.6787h1.9749v12.0349h-1.9749z" />
      <path d="M54.8615 99.441h7.0121v2.01h-7.0121z" />
      <path d="M46.9643 126.745h1.9418v-7.573h5.2429v-6.865h-7.1847z" />
      <path d="m66.6044 96.8413-.6103 6.6857 1.7003.155.6103-6.6855z" />
      <path d="M52.0707 129.008h4.7866v4.806h-4.7866z" />
      <path d="M46.962 135.603h2.0094v24.66H46.962Z" />
      <path d="M54.8798 150.508h6.9951v2.076h-6.9951z" />
      <path d="M54.586 159.715v9.404h20.8357v-2.974h-1.791l-2.371-1.098-.9638-1.618-.4359-1.458h-5.4519v-2.256z" />
      <path d="M54.7656 174.762h20.518v1.556h-20.518z" />
      <path d="M78.7159 172.962v1.372h12.2803v-3.844h-4.5307v2.472z" />
      <path d="M94.4286 174.716h10.0834v1.586H94.4286Z" />
      <path d="M112.454 174.716h10.084v1.586h-10.084z" />
      <path d="M125.491 174.305h12.342v-4.441h-4.599v2.497h-7.743z" />
      <path d="M139.703 174.755h7.054v1.504h-7.054z" />
      <path d="M148.461 174.044h6.897v-6.897h-6.897z" />
      <path d="M157.443 141.617v-4.47l.106-.271.195-.218.279-.113h.293l.271.113.211.218.12.271v4.47l-.12.285-.2.194-.297.131h-.255l-.29-.131-.214-.194z" />
      <path d="M157.443 108.297v-4.47l.106-.271.195-.219.279-.112h.293l.271.112.211.219.12.271v4.47l-.12.285-.2.193-.297.132h-.255l-.29-.132-.214-.193z" />
      <circle cx="87.600212" cy="65.891052" r="2.14977" />
      <circle cx="116.09936" cy="65.891052" r="2.14977" />
      <circle cx="130.57213" cy="65.891052" r="2.14977" />
      <circle cx="167.7668" cy="59.023674" r="1.310957" />
      <circle cx="176.45442" cy="48.824104" r="1.310957" />
      <circle cx="182.92896" cy="43.616329" r="1.310957" />
      <circle cx="192.19968" cy="37.690025" r="1.310957" />
      <circle cx="202.52724" cy="33.476063" r="1.310957" />
      <circle cx="213.00195" cy="31.415901" r="1.310957" />
      <circle cx="222.94742" cy="30.730005" r="1.310957" />
    </g>
    <g id="Fountain" class="water">
      <path d="M247.292 212.807v1.894c5.53-.039 6.591.251 8.28 1.022v-2.001c-1.593-.669-2.662-.903-8.28-.915z" />
      <path d="m218.994 215.449.586-1.87c6.843 2.039 8.966-.434 13.677-.782v1.926c-3.549.625-8.047 2.639-14.263.726z" />
      <path d="m213.579 204.647 2.01.056c-.339-3.168-1.745-6.894-1.452-13.844l-1.87-.167c-.442 7.134 1.149 10.819 1.312 13.955z" />
      <path d="m217.905 178.159 1.647 1.256c1.972-1.398 4.337-1.743 8.541-1.87l-1.423-1.87c-3.992.369-6.506.698-8.765 2.484z" />
      <path d="M229.349 175.452c4.23-.257 8.203-1.333 11.304-5.192l.754 2.149c-3.08 3.251-6.747 4.521-10.69 4.857z" />
      <path d="m243.137 170.288-.781-2.456c1.079-1.826 1.792-2.864 2.4-5.638l1.982.028c-.694 3.251-2.202 5.756-3.601 8.066z" />
      <path d="m242.719 144.386.781-2.121c1.718 2.417 3.287 5.027 3.294 8.178l-1.898.028c-.013-2.381-.57-3.723-2.177-6.085z" />
      <path d="m241.016 142.349.754-2.121c-2.106-2.382-4.98-5.187-7.592-7.76l-1.256 1.368c4.922 4.921 7.447 7.597 8.094 8.513z" />
      <path d="m231.303 132.245 1.284-1.424c-2.507-2.601-10.588-10.128-11.974-14.96l-1.368 1.842c1.575 4.228 9.718 12.244 12.058 14.542z" />
      <path d="m217.766 108.046 1.954.027c.06 1.735.204 3.435.418 5.108l-1.674 1.926c-.345-2.326-.712-4.646-.698-7.061z" />
      <path d="M225.2574 158.18033h11.58234v-3.6135H225.2574Z" />
      <path d="M224.99416 150.73795h11.89344l-.2393-1.6512-.98115-1.74692-1.29224-1.24439-1.79479-1.00508-1.72299-.31109-1.89051.33502-1.69906.88543-1.14867 1.31618-.7897 1.74693z" />
      <path d="M224.99416 162.08099h11.89344l-.2393 1.6512-.98115 1.74692-1.29224 1.24439-1.79479 1.00508-1.72299.31109-1.89051-.33502-1.69906-.88543-1.14867-1.31618-.7897-1.74693z" />
    </g>
    <g id="Buildings" class="building">
      <path d="M73.1662 83.2652c-.7444.3008-1.4888.6017-2.2332.9027-.4033.743-.8065 1.486-1.2097 2.2291-.5158 5.7934-1.0316 11.5869-1.5474 17.38-1.4576.693-2.9151 1.385-4.3727 2.078-.8175 1.415-1.6351 2.831-2.4527 4.247v10.195h6.7973v22.937c.5109 6.257 1.0217 12.514 1.5326 18.771.1514.506.3005 1.013.4587 1.516.3308.556.6616 1.112.9923 1.668.8198.38 1.6396.759 2.4594 1.139 4.0355-.004 8.071-.008 12.1065-.011 2.7706-3.362 5.5411-6.723 8.3117-10.084 6.591 1.198 13.181 2.397 19.772 3.595h27.438c.926-.436 1.852-.871 2.778-1.308.438-.729.876-1.459 1.314-2.189.824-9.623 1.649-19.245 2.474-28.868-.001-1.869-.001-3.737-.005-5.606-.332-4.17-.663-8.339-.994-12.508h-5.419c-.364-4.094-.729-8.187-1.093-12.2798-.285-.4292-.57-.8585-.856-1.2871-.431-.4449-.863-.8898-1.294-1.3347-.585-.1869-1.168-.3799-1.757-.5555h-21.891V86.668c-.492-.8613-.985-1.7226-1.477-2.5838-.714-.2733-1.429-.5464-2.143-.8195H73.1676Z" />
      <path d="M79.7207 211.613v61.529c3.8722 3.872 7.7444 7.745 11.6166 11.617h1.03v18.401h10.1297v21.878l1.085 1.085h36.209c.319-.319.638-.637.957-.955v-21.826h8.693v-16.519h-.554v-10.457h.537v-6.715h-.537v-7.418c.219-.002.437-.004.656-.005v-31.095l-3.67-.002c-5.306-5.295-10.613-10.59-15.92-15.886l.003-3.639H79.7207Z" />
      <path d="M51.1305-.050978V9.27791l11.9287 8.20739v19.9832l16.9138.0211 2.2075-.579 1.4112-.9046 1.158-1.0495 1.4837-1.6646 7.7784-9.2843h8.8702v2.433h28.858v.2829h5.247l8.025 6.7645 1.774.823 1.775.3601h1.337l13.915-2.7521.926 3.5237 9.337-2.4434.617 2.2376 13.94-3.7294.026.1543 14.069-3.8323-1.312-4.4497 9.26-2.4691 1.131-.5401 1.004-.6945.874-.9002.694-.9774h41.616l5.684 8.0505 1.055.9259.9.643.952.4373 1.414.3601 23.766 2.0576 1.492-.1029 1.311-.4372 1.338-.7202 1.08-.9517.875-1.1316.617-1.2346.386-1.286.025-1.2346V0Z" />
      <path d="M47.0093 287.687h18.6182V261.98h-3.9423v-9.972h-7.222v1.027h-9.011v9.707h1.5571z" />
      <path d="M158.112 340.438h-12.59v12.574h12.59z" />
      <path d="M187.599 488.448v-37.216h10.816v-10.956h-31.453v-28.505l-5.355-1.498.842-2.336-.895-.414-1.637 4.746-10.098-6.191-7.112-11.199-1.3-11.743h5.024v-.813H74.8471v106.125z" />
      <path d="M255.377 432.494v7.794l-2.064-.523v8.747h-17.185v13.031h-4.965v4.063h-7.027v1.896h1.038v20.946h34.893l-.951-3.294.57-.19-.887-2.979-2.281.697-3.422-12.167-6.273-3.295 12.293.317-.063.507 3.041.127.191-2.408 12.42.253 11.596-11.723-1.013-3.612 20.595 4.816v-23.003h-1.859v1.03h-9.842v1.776h-1.264v-1.114h-1.384v1.114h-3.22v-1.114h-1.354v1.114h-1.295v-1.776h-10.051v1.776h-1.264v-1.114h-1.385v1.114h-3.22v-1.114h-1.354v1.114h-1.294v-1.776h-9.812v-1.03z" />
      <path d="m348.925 346.409-13.994-13.903h-55.437l-.083 66.293-.173 2.493-27.831-3.615-27.646-13.402v-24.386h-29.987v-15.937H185.6v-84.044h85.959v26.938h7.979v3.096h55.033v-6.502h1.219v-28.617l.338-1.761.73-1.632 1.16-1.46 1.245-.816 1.503-.473 1.633-.257h6.526z" />
      <path d="m238.991 188.447-9.322-4.511-7.95 16.425 9.321 4.512z" />
      <path d="M290.31 406.317h13.012v-15.984H290.31Z" />
      <path d="M255.672 162.568h-.365v1.04h9.181l-2.093 11.581-.303 1.857-.173 1.728-.043 2.03v2.851l.259 3.498 1.167 6.177 1.641 4.967 1.728 3.671 2.202 3.499 3.845 4.881 12.223.345 5.917 2.678v.907h10.149v3.405l.685.262 1.434.407 2.028.315h1.943l41.828-7.463v-64.182h-21.178v-43.634l-2.236-2.751-3.783-2.4506-7.136.2149-20.506 3.3097v-6.2329h-10.459v-7.8238l3.684-.998 2.85-1.5673 3.853-3.6105 2.113-4.1388.133-1.9594-.463-4.6012-2.091-4.5131-4.029-3.3684-3.346-1.2108-2.598-.5063H213.28l-7.44 7.4393v36.2212h21.921v-.737h21.247l.708.707h11.53v9.976l2.18 5.595 1.269 5.212.453 6.21-.362 5.846-.59 3.672-1.133 4.17-1.631 4.305h-6.11v1.259l.35.004z" />
      <path d="m348.925 376.496-14.616 20.01v4.333h-6.564v9.368h-2.995v45.947h.573v2.166h2.613v9.623h20.989z" />
      <path d="M113.18632 62.509044v4.516426h-13.104v.275651h-4.346794v-5.046524h4.346794v.254447z" />
      <path d="M169.91598 264.81726h-4.2237v-10.27327h4.2237z" />
      <path d="M169.91598 307.74064h-4.2237v-10.27327h4.2237z" />
      <path d="M242.41036 39.093939v4.2237h-10.27327v-4.2237z" />
      <path d="M285.30198 39.093939v4.2237h-10.27327v-4.2237z" />
      <path d="M156.99476 216.1318h-4.44408v2.92605h4.44408z" />
      <path d="M156.99476 244.66873h-4.44408v2.92605h4.44408z" />
      <path d="M156.99476 264.69398h-4.44408v2.92605h4.44408z" />
      <path d="M156.99476 284.68123h-4.44408v2.92605h4.44408z" />
      <path d="M248.01574 409.74519v-4.44407h-2.92605v4.44407z" />
      <path d="M271.53302 410.48905v-4.44407h-2.92605v4.44407z" />
    </g>
    <g id="Roofs" class="building" style="fill-opacity:0.8">
      <path d="M79.338 284.83v-73.39h70.416v91.906h-3.358v26.861l-1.583 1.583H98.3331l-1.6069-1.607v-26.741h-4.6289V284.83Z" />
      <path d="M115.218 160.403h25.902l3.049-1.41 1.557-2.262 2.865-30.251-2.764-34.8231-1.608-2.5125-2.513-1.1558h-26.482v-2.0603l-1.407-2.7135-3.115-1.0552H73.0642l-2.814 1.4572-1.3568 2.211-1.608 18.2912-3.5175 1.608-2.7136 4.372v19.949l6.7336 18.995 1.1055 13.97 1.7085 2.763 2.6633 1.106h37.6378l3.115-1.256 1.2-2.865z" />
      <path d="M158.33 340.243h-16.05v12.987h16.05z" />
      <path d="M192.748 488.448v-9.411h3.778v-17.756h-3.778v-10.049h5.667v-10.956h-30.752v-28.788l-5.969-1.511.755-2.04-5.062-2.342-4.004-3.174-3.552-4.533-2.418-5.365-.982-5.289v-4.987h-2.115v-6.195l-18.361-4.534h-1.889l-18.36 4.609v6.196H61.6553v3.702h-3.1735v10.503h3.1735v15.414h-1.0579v51.908h1.0579v15.414h-3.0979v9.184z" />
      <path d="M224.136 488.448v-22.875h3.422l.507-26.235 9.886.19.063-4.119 3.802 1.014-.19.38 13.751 3.485v-7.794h50.506v23.003l-20.595-4.816 1.013 3.612-11.596 11.723-12.42-.253-.191 2.408-3.041-.127.063-.507-12.293-.317 6.273 3.295 3.422 12.167 2.281-.697.887 2.979-.57.19.951 3.294z" />
      <path d="m348.925 346.409-13.994-13.903h-55.437v19.11l2.248 28.044-1.005 6.035-1.243 15.915-23.488 3.491-24.14-6.035-.946-2.426-7.159-12.365v-16.211H185.6V251.095h93.938v38.847h55.033v-6.502h1.219v-28.617l.338-1.761.73-1.632 1.16-1.46 1.245-.816 1.503-.473 1.633-.257h6.526z" />
      <path d="m238.991 188.447-9.322-4.511-7.95 16.425 9.321 4.512z" />
      <path d="m203.838 58.8623.852 46.6187 39.892 4.719.18.746 2.524.104 2.112 3.219.695 2.961.644 1.005-1.107 1.21-1.674 4.481 5.923 24.621 2.962.335.051 1.081h-2.215l-.772.773v12.155l.759.76h1.559l.154 1.352.335.129-.335 2.344-.85.257-.051.438-.773.335-4.584 18.517-.747 3.657-.541 4.326.567.103h1.339l2.447 1.159 2.369 2.266 1.519.619 1.906 2.42.258 3.374-1.932 3.219-.206.644 4.61 3.4 2.009 1.905 1.288 2.009.283 1.108-.129.875-.541.799-1.365 1.313-.875 1.365-.567 1.494-.257 1.88.154 1.365.464 1.339.566 1.056.953 1.004 1.082.901 1.39.619 1.571.309 1.468-.026 1.674-.412 2.267-.876 1.442-.669 1.622-.979 2.189-1.777 3.117-2.55 2.807-2.446 1.442-1.185 1.133-.438 1.545-.077 1.623.103 1.622.258 1.571 1.519 1.7 1.365 1.545 1.004 1.854.927 1.88.593 1.829.463 2.575.464 3.735.309h3.966l3.966-.283 4.326-.541 4.687-.799 5.28-1.107 6.104-1.365 6.824-1.571 5.398-1.236v-69.985h-14.827v-44.135l-.058-1.881-.636-4.168-1.013-2.5468-1.158-1.7075-1.042-1.2155-1.707-1.4471-2.171-1.2734-2.605-1.0709-2.199-.6077-2.576-.2026-2.634.1157-3.588.4921-4.486 1.0129-12.792 2.952-.955.2894-5.528-.955-2.373-.7525-2.808-1.8523-1.157-1.4181-1.071-1.0998 1.418.029 2.315-.1737 2.431-.6656 2.489-1.1287 1.882-1.3892 1.968-1.8233 1.62-2.4311 1.129-2.5757.579-2.4601v-3.8491l-.434-2.1706-.955-2.2285-1.534-2.2864-1.824-1.9969-1.823-1.3313-2.72-1.4182-2.923-.8682-3.387-.2315z" />
    </g>
    <g id="Fence" class="fence">
      <path d="M46.762322 66.374996V168.762" />
      <path d="M46.762322 157.08774h-9.194906v6.19649" />
      <path d="m29.43541 144.92745-1.296379 11.20986-2.47837 6.59628-2.47837 10.59979-3.256391.90499" />
      <path d="M72.021129 217.23029v-12.32248" />
      <path d="M72.050329 235.04507V260.592" />
    </g>
    <g id="Border" class="map_border">
      <use xlink:href="#the_ground" x="0" y="0" />
    </g>
    <g id="Sniper" class="danger">
      <path d="M45.4522 253.7359H19.329087V276.03H45.4522Z" />
      <path d="m45.242918 148.82-25.746896-.202V46.295403l25.746896.201997Z" />
      <path d="M272.904 253.03741v-32.23779h39.662v32.23779z" />
      <path d="M254.483 398.077v34.417h52.376v-34.417z" />
    </g>
  </g>
  <g id="Underground_Level" class="shadow">
    <g id="Ground-U" class="cement">
      <path d="M163.49219 54.974609v11.716797H162.39062l-.002-4.394531h-6.20117v16.050781h-.68555V114.48047h1.46094v5.66406h-1.46094v6.29102h1.01367v1.01172l-.0293 2.625v1.13281h-.98438V132.60547h1.10352v1.55078h-1.10352v1.87695h-.47656v11.03125h.38672v1.40235h.1504v12.04297h-.0605v1.43164h1.60938v6.58789h-1.60938v5.87304H155.83008V176.81836h-13.53516V173.44926H95.667969V183.55668h10.435551v12.25195H95.667969v8.79493H142.20508v-1.04297h11.6875v-.7168h1.9082v1.9082h-.29883v6.20117h1.3418v5.60547h-1.3418v43.16797h1.3711v4.41211h-1.3711v17.02344h-.32812V291.14848h.32812v9.92773h-.26757V313.12113h.26757V314.28324h24.56446v-20.39062h-.41602v-2.86328l.35352-.004.004-4.61719v-5.63476H178.60752v-1.58008h1.28125v-4.94922h-.20898V264.13862h-1.60938v-4.08398h1.64063V234.38672h12.72851V225.65039h-12.72851v-9.57031h-1.64063V211.40039h1.64063v-43.58594h-1.64063v-4.05468h1.64063v-15.23438h-.86524v-2.05664h.86524v-26.17578H178.45713v-5.8125H179.71104V98.769531H200.51963V87.708984h-20.83984v-3.36914h.71484v-4.53125H180.12705v-.894532H180.39463v-4.5625H179.71104V54.974609h-8.10938z" style=";fill:#c6c2c2" />
    </g>
    <g id="Floor-U" class="floor">
      <path d="M155.50195 296.09723h-.20898v-2.45313l-.42578.0176-3.05469.0215h-2.63086v5.72266H148.88477V293.86094h-4.98047v8.4375h4.98047V301.97031H149.18164v.29883h3.72656v-1.82031h.86524V299.85313h1.51953V298.69102h.20898" />
      <path d="M186.35742 267.32812v.0898h-6.46875v.68555h-.20888v2.65429h.23845v.68555h5.00976V274.1269h3.81446v-2.71484h4.94922V287.123H188.803v.6875h-.26953v-4.53321h-2.44336v-3.36718h-5.45507v.86328h-.44727v5.63476h-.1839v4.61719l.21323.004v1.55078h8.3164v-2.08789h.26953v.6875H193.69171v1.45898h4.02539v-8.10937h5.21679V283.36723h.20899v-4.08399h-.20899V278.12113h-5.21679V276.42192h.26758v.68554h7.90039v-3.96484h-7.90039v.68554h-.26758v-6.5h-5.67969z" />
      <path d="M142.44336 167.48633v6.11133h-.1484v1.52148h.1484v.68945l3.87695-.01 3.875-.01V168.9175h-3.48828v-1.43164h-2.13086z" />
      <path d="M147.00586 162.15039v6.58789h7.90039v-1.3418H156.54492V167.03906H157.11133v-2.98047H156.54492v-.32812h-1.55078v-1.58008H151Z" />
      <path d="M180.1875 146.64844v2.91992h-.47646v9.60156h6.0214v-12.52148H182.959Z" />
      <path d="M142.41406 127.00195v3.42774H136.95898V131.29492h-.23828v-1.10351h-4.77148v3.78515h1.07422v.26953h-.62696V142.17578h3.93555V134.24609h-.68555v-.26953h1.07422v-1.10351h.23828v1.10351h9.65821v-3.51562h2.62304V130.75586l.54493.008h.78906l.24609-.008v-.29688H155.41211v-.38671h1.07416l.0293-2.625h-1.10349v-.44532h-6.5z" />
      <path d="m154.96484 113.86914-3.17968.01-4.10938.006h-.66992V116h-.1797v2.6543h.1797v1.9375h7.95898v-1.75977h1.998v-3.07031h-1.998v-.94727z" />
    </g>
    <g id="Tarmac-U" class="tarmac">
      <path d="M154.83984 24.005859c-.1125-.000162-.22443.0032-.33593.01563-.389.0436-.77239.138841-1.15039.244141-.304.085-.60749.185-.89649.3125-.275.1212-.53797.268336-.79297.427734-.379.2373-.75579.487805-1.09179.783203-.304.2668-.57813.569221-.82813.886719-.241.3043-.45358.630152-.64258.96875-.274.4896-.46908 1.018946-.70508 1.527344-.257.552698-.45009 1.270355-.49609 1.876953v33.048828h6.05078V33.330078h2.35547v21.611328h-.15625v23.373047h-.66016v5.492188h7.5918V115.3418h-6.15234v3.96093h6.15234v16.71289h-8.10156v11.04297h8.10156v16.50391h-6.00195v3.99023h6.00195v11.13086H95.658203v3.63086H155.2793v14.88282H95.658203v3.81054h67.423827v11.13281h-6.24219v3.1504h6.24219v4.14062h-7.62109v11.2832h7.62109v29.22461h-6.24219v4.02149h6.24219v17.13281h-7.80273v10.14258h7.80273v17.13281h-6.51172v3.78125h6.51172v2.13086h9.04688v-2.13086h7.93554v-3.96094h-7.93554v-17.16406h7.875v-10.08203h-7.875v-1.83008h7.75586v-4.86133h-7.75586v-10.32031h5.95507v-3.54102h-5.95507v-44.61914h5.95507v-3.99023h-5.95507v-44.19922h5.92578v-3.54101h-5.92578v-4.89063h7.63671v-9.57227h-7.63671v-30.30468h6.3164v-3.90039h-6.3164V97.248047h28.36914v-7.861328h-28.36914v-5.041016h8.23632v-9.960937h-8.23632l.12304-13.847657.25196-2.099609.8789-2.832031.55469-.904297h-9.26758l-.59375 2.49414-.57422 3.25v6.257813h-1.11133l-.01-17.773437-.01-17.759766c0-.4618-.0885-.923458-.18945-1.222656-.131-.3891-.25016-.78381-.41016-1.16211-.207-.490598-.42307-.980342-.70507-1.43164-.229-.3658-.50293-.705538-.79493-1.023438-.27-.2939-.5629-.5689-.8789-.8125-.305-.2352-.63361-.441694-.97461-.621094-.471-.247898-.9617-.467648-1.4707-.623046-.365-.1114-.74505-.169552-1.12305-.21875-.215-.0278-.43049-.03717-.64649-.04297-.1125-.003-.22539-.0057-.33789-.0059z" />
    </g>
  </g>
  <g id="First_Floor" class="shadow" data-keep-with-group="Ground_Level">
    <g id="Floor-1" class="floor">
      <path d="M75.1573 163.939v-1.67h1.7589v1.342h.1193v-2.624h-7.0954l-.7495-8.563-.7354-8.475 2.1065-.015 2.0914.001v-.716l-4.3229.001v-23.105H61.533v-7.334l15.1-.003 3.4124 3.267.0003 6.447.0003 6.447h-.5659v.894h3.3092v-.297l-.7826-.008-.7825-.008-.0076-3.793-.0076-3.794h4.7106v.596l3.0036.006 4.7104-.004 1.7068-.011v1.112h.2087V122.529h2.5638v-13.117h13.2661v.059H130.012v.686h.269v-.686h6.35V111.32h.328V109.531H146.618v.055l.492 6.199.492 6.144v5.534l-.299 3.265-.312 3.301-.013.038h-10.049v-1.759h-.268v1.759h-1.014v.179h.686v7.93h-3.965v-7.93h.656v-.179H130.281v-.626h-.268v.656h-3.995v9.838h-.656v.268H126.465v3.697h.238v-.686l1.782-.007 1.781-.008.009-.082.01-.082h2.411v-.089h4.419l4.42-.001v6.566l.387-.005.402-.021.023-3.21.008-3.328 1.82-.001 1.819-.001-.448 4.806-.414 4.523-.631 1.053-.632 1.052-1.346.634-1.346.633h-19.542v-2.713h.327l.006-6.352 4.855.002v-.954h-.358v.523l-4.8.01v-1.427h-.238v.834h-2.058v-.447h-.327v-4.084h.327v-.448l1.022.008 1.021.008.008.343.008.344.119-.012.118-.011v-1.07l.157.006.536.002.38-.005v-.268h-.566v-9.838h-5.784v-3.936h13.625v.656h.268v-5.247l-6.201.002V118.445H130.281v-5.664h-.268v.685h-14.221v8.139h-3.965v-8.049l-.454-.002.002.061h-8.939v13.625H95.549V125.779h-.2086v1.282h-9.4208V131.652h7.7708l-.0023 2.594-.0023 2.593h-7.7662v2.854l-2.7129.003-2.713.002v-.533h-.6857l.0032 4.056-2.5969-.002v.716h1.5796l.0077 1.498v7.513l-.0076 6.014h-3.7561v.105l1.8695.008 1.8856.025.0242 3.263.0079 3.247H75.1572zm55.2127-10.047v-.387l-3.25-.002v.772l3.25.004zm8.825.388v-.805l-3.026.015-.016-3.116h-.745v3.22h.567v.722zm-58.7054-18.097h-.6816v1.223h.6804zm.0041-4.65h-.6857v1.043h.6857z" />
      <path d="M273.47 173.166v-10.598h-9.57V159.497h-.298V162.568h-7.93V151.06h7.93v3.13h.298v-3.12l3.153-.02 4.755-.02h1.602l.001-.246.298-48.527h-.358v.894h-.924v.447h-3.936v-.417h.12v-.417h-.716v.417h.119v.417h-52.41V76.2382l-1.26-1.7758-1.259-1.7757-3.063-.0019-3.064-.0018.001-2.5713.001-2.5713 2.693-2.7129 2.692-2.7129 34.081-.0108 34.08-.0108v7.5794l-4.271-.0004-6.245-.0003-1.976.0003v9.1524H263.721v4.3824h2.356v2.4447h-2.356l-.005.7825-.005.9764.005 3.1229.005 2.929H268.014v3.637h-.119v.4174h.716v-.4174h-.12v-1.5204h3.906v.2683h.924V96.98h.417v-1.1328h4.562v2.467l-.001 22.7168.001 20.25H289.211v3.161H302.654l-.003 1.423.002 10.658.003 9.234h5.098V148.884h4.502v9.958l-.001 9.958-1.006-.002h-8.324v.507h-9.451v3.101H278.449v1.788h.411l.018.047.02 2.72.002 2.719-.002 2.064-.002 2.02h-5.426z" />
      <path d="m226.679 202.423-4.179-2.004 1.943-4 2.034-4.143 1.176-.773 1.176-.772 1.351-2.794 1.351-2.794 3.898 1.897 3.175 1.552-.008.038-3.845 7.916-3.867 7.878z" />
      <path d="M45.9709 257.848v-4.263h8.5804l.0024.228.0198.246h.3971l.0185-.716v-.684l6.052.002v9.448l-7.5351.001-7.5351.001z" />
      <path d="M185.881 279.522v-19.408h45.434l.004.052-.005.082-.018.119-.028.209-.025.194-.027.119-.031.209-.032.215-.002.083-.016.076-.036.043.018.089-.01.105-.027.098-.016.17-.105.656-.136.939-.102.701-.089.581-.046.343-.029.209-.036.223-.017.124-.027.194-.045.279-.022.164-.028.149-.039.238-.029.239-.043.253-.046.358-.045.372-.044.313-.047.299-.037.223-.027.095-.023.119-.007.174-.032.128-.007.112.019.073h-.066l.009.097-.016.136-.005.111.018.073h-.067l.019.104.02.105h-.07l.018.088.017.088-.031.02-.032.02.017.084.017.085-.032.02-.019.105-.012.086-.025.045v.045h-.103l-.119-.028-.018-.028-.103.017-.104.016v-.073l-.075.018-.13-.01-.29-.043-.275-.016-.039-.003.022-.034.021-.034-.08.02-.08.02-.275-.045-.588-.092-.656-.09-.581-.086-.634-.094-.395-.077-.024-.013-.44-.041-.475-.07-.223-.033-.373-.048-.313-.042-.388-.059-.335-.046h-.052v3.488h.522l.521.022 1.081.019 1.111.019.283.039.566.038.328.041.76.073.761.077.342.076.343.074.276.059.261.059.037.022.336.055.313.073.357.074.358.074.239.056.232.063.231.078.222.072.223.075.207.071.2.069.233.077.196.063.195.065.224.077.222.069.164.059.306.109.186.071.029.031.03.013.03.012.104.067.105.057.119.073.119.076.073.04.154.093.134.074.107.056.166.092.112.056.223.139.224.141.044.023.045.03.022.026h.059l.089.059.13.074.146.079.1.06.223.142.259.208.103.067.017.03-.018.029.044-.017.044-.016.033.061.078.062.061.045.141.102.205.129.06.097.016.003.038-.022.315.23.416.33.131.1.031.039.104.076.104.074.064.065.064.059.063.073.122.12.142.149.082.097.06.083.059.04.06.057.06.109.029.032.082.055.217.243.245.263.082.113.06.057.06.041.134.159.134.157.119.131.12.146.056.064.227.307.173.313.04.051.04.057.048.082.075.1.086.151.111.193.09.144.037.082.03.043.03.04.06.094.059.076.133.225.119.223.035.039.047.019-.017.045-.018.046.043.016.093.094.059.177.008.098h-.029l-.011.03-.015.03-.016.028-.041.082-.074.143-.047.099-.03.063-.023.074-.023.042-.025.087-.052.067-.011.03-.015.03-.015.03-.015.03-.015.03-.015.029-.016.028-.015.037-.039.06-.046.095-.02.075-.026.072-.025.062-.018.019-.019.029-.014.03-.017.028-.028.072-.045.088-.046.082-.031.078-.015.04-.014.027-.022.067-.041.055-.022.082-.051.067-.011.03-.018.029-.017.02-.016.063-.046.105-.031.08-.031.06-.038.055-.01.037-.017.028-.015.029-.015.03-.015.03-.015.03-.017.026-.027.063-.029.061-.015.043-.031.077-.031.058-.015.027-.032.045-.047.018.017.044-.014.045-.013.027-.031.075-.054.089-.045.088-.038.046.022.036.022.036-.039-.025-.04-.024.019.049.019.05h-.03l-.013.03-.015.03-.014.029-.015.03-.015.03-.015.03-.017.027-.014.038-.039.057-.072.133-.066.049-.031-.021-.029-.015-.025-.018-.064-.04-.08-.04-.04.015v-.038l-.018-.02-.052-.01-.106-.088-.114-.059-.36-.184-.543-.318-.233-.159-.038-.008-.027-.013-.104-.063-.104-.064-.03-.011-.03-.012-.074-.05-.075-.019.02-.031.019-.032-.049.019-.05-.006-.097-.065-.12-.078-.066-.039-.468-.249-.546-.319-.141-.101-.022-.008-.065-.036-.089-.044-.025-.018-.028-.016-.037-.009-.219-.14-.223-.136-.142-.072-.127-.079-.029-.01-.03-.011-.105-.064-.104-.06-.104-.063-.105-.057-.119-.073-.119-.077-.104-.057-.105-.064-.03-.011-.029-.015-.03-.015-.03-.01-.104-.064-.105-.057-.141-.091-.455-.25-.329-.203-.127-.069-.11-.07-.105-.061-.104-.067-.03-.012-.03-.01-.104-.064-.104-.064-.03-.011-.03-.009-.097-.068-.127-.064-.141-.097-.112-.06-.142-.075-.223-.121-.082-.062-.03-.01-.03-.007-.205-.136-.218-.11-.015.037-.639 1.158-.688 1.208-.118.213-.107.126-.643-.354-.711-.416-.231-.137-.135-.077-.21-.119-.224-.119-.447.297-.417.278-.038.027-.654.482-.639.436-.099.071-.947.686-.885.615-.088.068-.158.111-.183.126-.129.082-.17-.081-.149-.104-.04-.023-2.494-1.421-2.498-1.46-.052-.021-.019-.017-.03-.018-.03-.01-.074-.047-.075-.047-.127-.093-.141-.083-.125-.074-.127-.051-.082-.056-.104-.061-.039-.033v-.033l-.044.017-.044.017-.023-.04-.191-.133-.191-.07-.004-.013-.008-.044-.028-.01-.009-.809-.01-.809.038.015.037-.019-.037-.033h-.038v-.224l-.094-.009-.094-.009-.019.248-.011 1.969.01 1.722h-5.382v-2.475H214.054l.003-2.556v-2.579l.919-.022h.921l.016.082.097.583.081.5.12-.009.121-.008.066-.403.088-.492.028-4.713.008-4.624-.138.011-.78.058-.775.057-.343.027-.365.036-.157.018-.003 1.39.002 3.812.005 2.423h-1.196v.149h-1.312v-.149h-2.146v.149h-1.312v-.149h-1.342l.001-.962-.01-2.934-.012-1.973.025-.04.026-.013.04-.007.06-.014.019-.013.112-.07.134-.032.023-.024.022-.024.142-.056.141-.067.193-.081.177-.08.026-.207.021-.202-.085.001-.28-.012-.536-.038-.626-.023-.708.014-.425.04v.024l-.224-.02-.223-.021v.089l-.431.021-.466-.001-.037-.022.023.036.022.037-.189-.002-.435.015-.246.041-.425.047-.634.032-.447.028-.253.044-.447.044-.652.028-.238.037-.02.029-.596.037-.865.05-.342.011-.233.018-.159.018.006 1.034.006 1.034-.138.009-.138.009v.205h.357v1.342h.179v-.686h7.99v3.935h-7.99v-.626h-.169l-.02.47-.019.879v.41h5.455v.895l1.051.001 1.625-.001.574-.003v4.266h-3.25v1.252h-.057l-.072-.037-.015-.038-.002.038-.003.037h-5.247v14.31H188.683v-.239h-.179v.239h-2.623zm2.802 17.351v-.239h.03l.03-.059-.026-.06h-.026l-.001-2.221-.002-2.221h.144v-.268h-.328v5.306h.179zm6.711-2.065.001-2.72-.004-4.938v-4.074l-.045-.017-.044-.017-.001 3.822.001 4.382.002.559h-.628v.268h.626v4.442h-.507v.149h.596zm-4.415 1.767-.026-.06h-.027l-.001-2.221-.001-2.221h.234v-.268H189.995v.268h.741l-.001 2.221-.002 2.221h-.41v.119h.656zm2.242-.813-.004-2.28-.01-1.409h.276v-.268H192.32v.268h.682l-.002 2.221-.001 2.221h-.47v.119h.686zm-2.987-8.161v-.298h-3.906v.596h3.906zm5.187-10.881v-4.234h.358v-.208h-.358l-.003-.962-.023-1.218-.019-.256-2.623-2.672-2.644-2.666-.466.425-.446.417.266.27.245.291.016.02 1.501 1.484 2.638 2.662 1.149 1.202.01.014.152.124.118.134.003 4.084.005 4.703.002.619h.119z" />
      <path d="M117.223 324.256v-1.685h6.827v-.238h-6.842l-.004-3.844-.003-3.843.063-.017 3.052-.017 2.988-.001v-.238l-3.003-.004-3.048-.007-.045-.004-.007-3.913-.006-3.913 3.07.007 3.069.008.001-.686-.001-1.542-.001-.857h11.509v.685h.298v-.775h.239v-.145l.018-.239.019-.093h-.98l-.001-2.982-.001-2.983 1.381.009 1.381.009-.002-.499-.002-.498-.054-.017-.132.002-.077.019v.68h-3.041v-6.231l-4.241-.008-6.715-.01-2.944-.007-.47-.005v-3.041h4.144v-.328h-.732l-.185-.187-.186-.187.001-3.547v-3.547l.228-.201.227-.202h2.167l.224.213.224.212V284.858h.209V279.625l.245-.245.246-.244 2.117-.001h2.601l.485-.001v-.149h-2.123l.01-2.683.013-2.679h-.048l.001.339v.343h-2.415v-2.236h2.415v.656h.053l-.016-1.401-.016-1.402h4.003v4.532l.001 4.531H132.308v.149l.425.001.424.001.172.166.171.165v4.706h.445l.001-7.245.001-7.244h-8.081l.002-1.036.001-2.4-.001-1.364h-.298v.537h-2.676l-.226-.202-.225-.201.001-1.297v-1.296l.212-.187.212-.186h.794v-.179h-2.519v-.119H119.761v.119h-1.525v-3.489l.753.008.772.008v.134H121.143v-.134l2.258-.008 2.259-.007v.149h1.371v-.149h.835v-2.564h-.775v-5.933h.774l.008-1.319.008-1.319.067-.01.067-.009V245.894h-.149v-1.908h.954v-.328H126.855l-9.394-9.447v-1.942H117.175l-.013.537.003.536h-4.95l.002-4.68.002-4.681h4.944l-.007 3.277-.008 3.277.145.01.155-.008.02-3.265-.017-4.61-.026-1.364h3.465v-.447h-3.459V211.788h12.343l-.002 1.766-.001 1.767 8.013 7.996 8.014 7.997h1.781l1.781.001v12.343h-18.841v.328l.276.002.477-.002.201-.004v1.912h-.147l-.008.685-.009.686h.164l-.007 2.124-.008 2.124-.067.01-.067.009v1.363l.067.01.067.009.008 3.317.007 3.317h-.149v1.371h.149v.954h-4.442V261.756l-.686-.009-.685-.008v.134H124.557v.179h1.013v.656h.298v-.656h22.837V269.833h.536v6.35h-.536v10.822h-22.473l-.13-.108-.196-.18-.067-.073v-.921h-.209v.928l-.156.177-.156.177h-.553v.328l4.226.004 5.59-.003 1.364-.008v.789l.02 2.94.02 2.151h.944v1.133h.253l-.008-.485-.008-.484 1.943-.001h1.942l-.019.358-.019.359 3.948-.01 3.947-.009.002 4.131.002 4.131h-5.311l.01-.134.011-.135h-1.289l-1.308-.007-.014.414.005.421-.499.004-.503.011.009.238.013.231h.53v21.719l-.425.425-.426.424h-22.492zm15.115-7.893-.001-6.827.001-.619h2.766l.018-.047.018-1.774v-1.727h-.298v3.28h-2.504v-2.722l-.273.019-.626.02h-.353v.253l.447-.006.447-.006v8.063l-.001 8.063h-5.753V320.186h-.194l.008 1.073.009 1.074h-.717v.238h7.008zm-6.097-.351v-1.162h-.224l-.002 1.11-.012 1.163-.01.052h.248zm0-8.742v-1.051h1.327v-.224h-1.521v2.326h.194zm11.97-4.069.019-.239.017-.067h-1.057l.018.093.019.239v.145h.984zM121.68 226.49l-.33.346 12.757 12.8.437-.435z" />
      <path d="m151.631 352.533-.011-.127-2.748-.001-2.761.006v-.832h-.268v-1.819h.283l.022-8.734h5.478v-.239h6.112v11.866h-6.118z" />
      <path d="m141.456 386.654-1.427.135-1.416.146h-10.099l-10.099.001v3.488H113.228v.835h-.537v-1.282H107.802v7.364h.507v.089h.238v.388h-.238v.089h-.507v2.357l14.491 22.903 7.654 12.11 1.071.5 1.091.499.109-.179.099-.193.086.034.054-.109.062-.09.161.066.135.091-.045.112-.045.086.046.026.045.025-.09.199-.09.223 6.335 3.032.238.102 1.07-2.205 1.029-2.215-.568-.273-.557-.263.117-.233.13-.233.362.164.351.165 1.147-2.343 1.099-2.294 3.165 1.475 6.758-14.28 1.825-3.905 1.616-2.59-.558-.342-3.546-2.172-2.988-1.829-3.618-5.679-3.619-5.678-.479-4.154zm-8.447 4.391.013 2.327-.054.668-.252.827-.593 1.153-.745.979-.84.654-.686-1.055.666-.542.562-.732.451-.947.164-.961-.014-2.364zm-20.318 5.133h.537v.835h2.385v.507h.715v.358h-.536v1.967h2.415v-1.967h-.567v-.358h.686v-.507H120.323v.507h.68l.015.039-.001.119-.015.08h1.319v-.238h.715v-.507h2.295l1.819 2.918-1.52.979 1.582 2.46-.385.238-.141-.158-2.159 1.375-.683.455-.211.225-.233.372-.22.522-.095.288-.013.43-.012.43.035.175.119.365.264.498.759 1.223.581.914-.198.137-1.316-2.07-1.356-2.113-1.908 1.193-1.931 1.215.708 1.18.73 1.158-.125.079-6.82-10.761v-2.862h-.477v-.06h-.239v-.388h.239v-.089h.566v-.581zm27.631 1.339.74 1.147-1.101.711-.74-1.148zm-3.642 2.291.74 1.148-1.101.71-.74-1.147zm-3.641 2.31.74 1.147-1.102.711-.74-1.147zm12.612 3.802.74 1.147-1.101.71-.74-1.147zm-3.659 2.291.74 1.147-1.101.711-.741-1.147zm-3.642 2.31.74 1.147-1.101.71-.74-1.147zm-12.794 1.405 1.251 1.961 1.937 3.039.64 1.004.451.407.371.214.522.201.253.069.537-.003.537-.003 3.115-1.954-.101-.144.385-.266 1.555 2.504 1.577-.942 1.81 2.811-.986 2.096-.327-.17-.085.025-.148.294-.128.279-.25-.105-.302.609-.257.585.089.063.089.05-.121.299-.149.383.42.202-.833 1.749-.446-.199-.141.31-.165.324-.112-.031-.101-.046-.285.577-.273.592.12.068.119.054-.167.315-.166.315.434.208-1.003 2.09.41.222.37.192-.124.233-.143.232-.461-.195-.58-.229-.104.229-.104.229-.057-.018-.056-.018-.038.091-.056.088-.138-.063-.13-.072.027-.104.039-.094-.05-.028-.049-.027.105-.209.105-.209-.277-.13-1.29-.608-1.014-.477-2.75-4.347-8.886-14.008.188-.096.763 1.222.778 1.215 1.156-.716 1.219-.749.059.136-1.157.702-1.216.761 4.511 7.099 3.831-2.47-3.231-5.104-1.234-1.929-.268.166-.301.166-.091-.107.294-.179.293-.179-.101-.162-.102-.178zm19.971 3.16.853.142.622.249 2.078 1.048-.598 1.185-2.111-1.064-.933-.281-1.048-.018-.906.178-.782.355-.639-1.083.959-.462 1.208-.231z" />
      <path d="M264.109 459.753v-3.98h.596v-.268l-15.562-.015v6.054l-6.38.004-6.38.003v-12.753H249.128l.007 1.793.017 1.803 3.928.011h3.993v-.179h.686v-.507h-.686v-2.116h2.981v2.116h-.685v.507h.685v.179h4.434l4.27-.001.001 1.551.001 1.55h-1.431v.269h.658l-.002 7.96h-3.876z" />
    </g>
  </g>
  <g id="Second_Floor" class="shadow">
    <g id="Floor-2" class="floor">
      <path d="M75.1677 163.281v-2.34h-1.0135v-12.103h-5.3323l-.0171-.127-.2098-2.332-.2064-2.303-.0138-.097h10.4595v16.962h-1.8482v1.371h.0596v-.775h1.7886v4.084h-3.6666Z" />
      <path d="M274.296 209.918v-7.274h-.239V216.893h-5.246v-.053l.047-.41.048-.356-.015-.507-.015-.507-.076-.363-.076-.363-.241-.576-.242-.576-.607-1.154-.608-1.153-.619-.918-.619-.918-.708-.805-.708-.805-.56-.511-.561-.512-2.53-2.002-4.189-3.295-1.657-1.293-.45-.416-.449-.415-.318-.404-.318-.404-.285-.523-.284-.523-.174-.515-.174-.515-.185-1.013-.185-1.014.019-1.162.019-1.163.058-.551.312-2.132.253-1.58.269-1.237.561-2.385.294-1.147 5.668-.008 5.668-.007v1.729h.209v-1.55h1.073v-.239h-12.598l2.109-9.218 2.236-9.771h11.204v19.019h-1.938v.209h2.236v-.203l1.795-2.749h1.574l-.001-.469.005-.877h-.089l-.005.288v.283l-1.967-.008v-2.436h1.967v.537h.09v-.835h4.858v5.038h1.342v-2.415H283.865v-3.607h4.888v-1.55h-.238v-1.311h.835v-.096l-.631-.004-5.604-.02h-4.974v-2.891h15.322v4.292h-1.818v1.58h3.994V194.439l-4.538 4.295-4.539 4.294-3.48.002-3.48.002V201.631h-.179v1.282h-1.431v6.319H279.393v3.548H277.992v4.411h-3.696zm0-9.652v-1.424l-.492-.487-8.42-3.059-.001-4.955v-4.956h-.209v10.157l8.577 3.081.306.295V201.691h.239zm5.306-.319v-.701h4.188l2.087-2.014 2.095-2.039-.575-.686h-1.468l-1.468-.001v-8.555H279.274v-1.938H277.933v.464l-1.109 1.721-1.108 1.72h-3.328l-1.554.777-1.554.777.022 1.645.026 1.649 4.252 1.467 4.439 1.531v3.631h1.404v1.252h.179z" />
      <path d="m121.771 238.68-4.393-4.438v-9.211h-.209V227.118h-2.355v-.179h-.238v2.325l-1.289-.004-1.193-.017.097-.012V226.85h-.119v-3.935H117.169v.477h.209v-11.507h12.46v3.428h-.089v.179h-3.283l-2.77 2.77-2.771 2.769v11.276l7.84 7.868h11.331l2.771-2.772 2.771-2.771V231.351h.149v-.119h1.751l1.817.018.066.018.001 6.316.002 6.317-11.246-.002-11.246-.002z" />
      <path d="M193.72 280.954v-6.021h-8.048V250.996h15.024v11.148h-2.981V268.941h.835v-.149H199.593v.149H200.756v-.149h1.073v.149h3.01v-.328h-1.252v-7.631h9.652l.018.071.017 3.815-.002 3.745H212.053v.328h2.832v7.482h-2.116v.388h.566V278.808h-2.414V276.811h.536v-.388h-2.146v.149h-1.312v-.149h-1.908v-3.488h-.655v.209h.447v3.965h-8.049v-3.965h3.458V274.933h-.894v.357H203.319v-.357h-1.162V273.14l.924.004h.775v-.209h-6.129l-.006 2.937-.007 2.936h.269v-.537h5.008v6.141h-5.008v-.477h-.268v3.041h-3.995z" />
      <path d="M134.429 299.913v-3.011H137.172v-1.013h-.269v.745h-3.01l-.001-.768.001-3.13.001-2.362h-14.34v-.358h-.149v-2.355h.149v-.328H128.527v-.238h-.732l-.186-.187-.185-.187v-2.359l.213-.169.213-.168h3.986v-.209H129.093v-.358h-3.309v-10.344H122.879l-.216-.215-.217-.215.001-1.328.001-1.327.246-.213.246-.212 1.415.005 1.489-.006V262.45l.25-.227.251-.228h23.078V287.006h-3.726v-3.19h-.298v3.19h-4.114v-3.19h-.298v3.19h-4.084v-3.19h-3.04v.209h.685v2.648l-.231.211-.231.211h-4.397v.238h6.26V293.236h.954V294.339h.269v-1.074h3.785v.954h2.832v-.387h5.128v8.496H143.73v-5.754h-2.623v2.027h-.03l-.03.043v4.28h-6.618zm12.073-1.848v-1.342h-.238v2.683h.238z" />
      <path d="M116.722 328.739v-2.444h.567v-1.372H122.028v1.372h4.859v-1.372h11.947l.391-.406.391-.407v-11.885H140.957V307.306H139.616v-3.16h1.194l-.087-.984H143.342v5.068h1.729l.001 5.463v5.462l.357.235.358.235v6.786l-2.378 2.379-2.377 2.378-12.155.008-12.155.008z" />
      <path d="M151.123 351.812v-1.044h4.68v-.298h-1.998v-7.482H154.968v-.209H151.749v-2.146l.514-.002.53-.006.449-.108.399-.003h.398l.571.1 1.677.014 1.602.005-.002.095h.073l-.007 5.794-.007 5.791h-.057v.542h-6.766z" />
      <path d="m139.34 439.739-9.353-4.447-22.148-34.981v-20.806h6.811l6.812.022 1.818.022h1.819v-2.578h2.027v7.661h-3.19v-1.52h-.408l-.019.988-.02 1.715v.726l-.566.392 1.088.024h1.088v3.518h-11.864V400.532l6.737 10.631.119-.089-2.147-3.366 7.97-5.064 1.548 2.375.521-.294 6.4 10.077-.492.303 1.759 2.862-7.966 5.03-7.029-11.057-.147.085 11.48 18.178 9.152 4.385 3.17-6.732 1.877-3.987 3.234 1.528-.852 1.781-.042.082.149.057.482-.18 2.948 1.381.03.024.239-.433-1.544-.745 1.365-2.91 4.797 2.263-8.293 17.472z" />
    </g>
  </g>
  <g id="Third_Floor" class="shadow">
    <g id="Floor-3" class="floor">
      <path d="m127.487 416.828-3.182-4.989-1.541-2.44 3.748-2.343 3.825-2.367-1.026-1.565-1.025-1.594 1.28-.818 1.281-.788-.953-1.487-.872-1.364h-5.956v.477h-.477v.298h-.268v.059h.566v1.998H120.442v-1.998h.567v-.059h-.239v-.298h-.477v-.477H118.356v.477H115.583v-.477h-2.176V391.498h9.45v-4.562h1.878v-.298h-.804v-3.518h-8.765v-3.576h11.954v7.094h-.626v.298h6.738v3.101h.447v-2.749l2.017-2.039 2.017-2.039h8.726v3.473l.044.864.091 1.193.148.99.102.662.177.679.227.885.05.205-12.809 3.871-.371-.586-.371-.587-.225.021-.235.031 2.441 3.911 2.462 3.912.145-.06.194-.116.059-.045-1.776-2.813-1.751-2.836 12.454-3.797.214.503.276.745.301.744.201.432.165.359.223.462.212.408.143.254.13.233.29.512.265.429.042.064.521.782.147.229.743.965.733.911.316.339.396.43.33.381-8.445 9.9-3.523-5.563-.182.119-.182.12 4.342 6.897-4.094 2.345-.911-1.375-2.524 1.554-2.002-3.112-2.762 1.766.854 1.345-4.694 2.978z" />
    </g>
  </g>
</svg>