<svg xmlns="http://www.w3.org/2000/svg" xmlns:xlink="http://www.w3.org/1999/xlink" viewBox="0 0 1003 1056"><defs><style>.cls-1{fill:#0c343d;}.cls-2{fill:#0c3450;}.cls-3{fill:#333;}.cls-4{fill:#b4b4b4;}.cls-5{fill:#7d7d7d;}.cls-10,.cls-11,.cls-12,.cls-17,.cls-6,.cls-7,.cls-8,.cls-9{fill:none;stroke-miterlimit:10;}.cls-6,.cls-7,.cls-8{stroke:#b4b4b4;}.cls-11,.cls-6,.cls-9{stroke-width:7px;}.cls-7{stroke-width:11px;}.cls-9{stroke:url(#linear-gradient);}.cls-10,.cls-17{stroke-width:9px;}.cls-10{stroke:url(#linear-gradient-2);}.cls-11{stroke:url(#linear-gradient-3);}.cls-12{stroke:#cb7e54;stroke-width:2px;stroke-dasharray:6;}.cls-13{fill:#cff;}.cls-14{fill:#4b4b4b;}.cls-15{fill:#dff2ff;}.cls-16{fill:#b3b3b3;}.cls-17{stroke:url(#linear-gradient-4);}.cls-18{fill:#666;}</style><linearGradient id="linear-gradient" x1="640.5" y1="818.5" x2="640.5" y2="767.5" gradientTransform="translate(349.5 1428.5) rotate(-90)" gradientUnits="userSpaceOnUse"><stop offset="0" stop-color="#b4b4b4"/><stop offset="1" stop-color="#878787"/></linearGradient><linearGradient id="linear-gradient-2" x1="818" y1="603.5" x2="847" y2="603.5" gradientTransform="translate(349.5 1428.5) rotate(-90)" gradientUnits="userSpaceOnUse"><stop offset="0" stop-color="#616161"/><stop offset="1" stop-color="#b4b4b4"/></linearGradient><linearGradient id="linear-gradient-3" x1="1234.5" y1="816" x2="1234.5" y2="765" xlink:href="#linear-gradient"/><linearGradient id="linear-gradient-4" x1="827" x2="848" xlink:href="#linear-gradient-2"/></defs><g id="Ground_Level" data-name="Ground Level"><g id="Base_Terrain" data-name="Base Terrain"><polygon id="Ground" class="cls-1" points="0 417 0 29 26 29 26 0 79 0 79 27 207 24 207 8 306 6 306 26 618 26 618 50 632 49 632 80 619 84 619 128 653 128 669 141 719 143 719 77 856 76 856 256 811 257 812 509 825 519 824 592 812 605 811 644 848 644 851 703 989 745 989 769 1003 802 1003 907 763 907 608 977 493 1056 239 1056 240 415 0 417"/><path class="cls-2" d="M487.5,292.5c-7.357.092-12.34,15.9-13,18-1.354,4.3-4.3,13.65,0,22,2.531,4.913,4.793,4.085,13,12,1.381,1.332,2.706,2.695,15,18,7,8.709,10.5,13.083,11,14,6.666,12.327,2.795,19.207,9,24,4.76,3.677,12.034,3.487,17,1,10.538-5.278,10.064-20.589,10-22-.682-15.046-13.945-25.733-18-29-8.434-6.8-12.441-5.893-18-13-4.388-5.611-3.712-8.5-8-19C501.222,308.025,494.844,292.408,487.5,292.5Z" transform="translate(-387.5 -11.5)"/></g><g id="Structure"><rect class="cls-3" x="667.5" y="358.5" width="609" height="285" transform="translate(83.5 1461.5) rotate(-90)"/><rect class="cls-3" x="1026.5" y="108.5" width="18" height="158" transform="translate(460.5 1211.5) rotate(-90)"/><rect class="cls-3" x="831" y="471" width="608" height="41" transform="translate(256 1615) rotate(-90)"/><rect class="cls-3" x="1026.5" y="734.5" width="18" height="158" transform="translate(-165.5 1837.5) rotate(-90)"/><rect class="cls-3" x="660.5" y="495.5" width="334" height="8" transform="translate(-59.5 1315.5) rotate(-90)"/></g><g id="Pavement"><g id="Outdoors"><polyline class="cls-4" points="664.333 159.5 647 139 611.667 139 604 162"/><rect class="cls-4" x="1116.5" y="119.5" width="33" height="33" transform="translate(609.5 1257.5) rotate(-90)"/><rect class="cls-4" x="1202" y="126" width="33" height="20" transform="translate(695 1343) rotate(-90)"/><rect class="cls-4" x="1205" y="164" width="27" height="20" transform="translate(657 1381) rotate(-90)"/><rect class="cls-4" x="1210" y="205" width="17" height="20" transform="translate(616 1422) rotate(-90)"/><polygon class="cls-4" points="818.652 552.889 818.652 591.556 816 597 816 512 818.652 518.667 818.652 552.889"/><rect class="cls-4" x="1210" y="229" width="17" height="20" transform="translate(592 1446) rotate(-90)"/><polygon class="cls-4" points="362 793 386 817 386 772 343 772 362 793"/><polyline class="cls-4" points="564.111 843 563 867 510 901 510 843"/><rect class="cls-4" x="718" y="219" width="93" height="68" transform="translate(124 1006) rotate(-90)"/><rect class="cls-4" x="684.5" y="358.5" width="160" height="68" transform="translate(-15.5 1145.5) rotate(-90)"/><rect class="cls-4" x="737" y="473" width="52" height="71" transform="translate(-133 1260) rotate(-90)"/><rect class="cls-4" x="746" y="529" width="34" height="71" transform="translate(-189 1316) rotate(-90)"/><rect class="cls-4" x="711" y="608" width="104" height="71" transform="translate(-268 1395) rotate(-90)"/><rect class="cls-4" x="763.5" y="793.5" width="45" height="25" transform="translate(-407.5 1580.5) rotate(-90)"/><rect class="cls-4" x="726" y="711" width="77" height="68" transform="translate(-368 1498) rotate(-90)"/><rect class="cls-4" x="745" y="863" width="93" height="76" transform="translate(-497 1681) rotate(-90)"/><polygon class="cls-4" points="510 843 510 844.222 510 901 470 901 470 843 510 843"/><rect class="cls-4" x="1143.5" y="548.5" width="85" height="35" transform="translate(232.5 1740.5) rotate(-90)"/><rect class="cls-4" x="1162" y="690" width="100" height="32" transform="translate(118.5 1906.5) rotate(-90)"/></g><g id="Garage"><rect class="cls-5" x="1003" y="167" width="31" height="50" transform="translate(439 1199) rotate(-90)"/><rect class="cls-5" x="964" y="234" width="126" height="67" transform="translate(372 1283) rotate(-90)"/><rect class="cls-5" x="1017.5" y="219.5" width="76" height="46" transform="translate(425.5 1286.5) rotate(-90)"/><rect class="cls-5" x="1068" y="234" width="43" height="50" transform="translate(443 1337) rotate(-90)"/><rect class="cls-5" x="921" y="366" width="45" height="42" transform="translate(169 1319) rotate(-90)"/><rect class="cls-5" x="1075.5" y="236.5" width="119" height="41" transform="translate(490.5 1380.5) rotate(-90)"/><rect class="cls-5" x="964" y="325" width="69" height="90" transform="translate(241 1357) rotate(-90)"/><rect class="cls-5" x="859.5" y="355.5" width="67" height="59" transform="translate(120.5 1266.5) rotate(-90)"/><rect class="cls-5" x="1011.5" y="319.5" width="13" height="29" transform="translate(296.5 1340.5) rotate(-90)"/><rect class="cls-5" x="888.5" y="456.5" width="81" height="93" transform="translate(38.5 1420.5) rotate(-90)"/><rect class="cls-5" x="853.5" y="375.5" width="38" height="120" transform="translate(49.5 1296.5) rotate(-90)"/><rect class="cls-5" x="893.5" y="322.5" width="29" height="29" transform="translate(183.5 1233.5) rotate(-90)"/><rect class="cls-5" x="896" y="440" width="13" height="40" transform="translate(55 1351) rotate(-90)"/><rect class="cls-5" x="846.5" y="232.5" width="120" height="52" transform="translate(260.5 1153.5) rotate(-90)"/><rect class="cls-5" x="825.5" y="266.5" width="37" height="45" transform="translate(167.5 1121.5) rotate(-90)"/><rect class="cls-5" x="865.5" y="268.5" width="55" height="59" transform="translate(207.5 1179.5) rotate(-90)"/><rect class="cls-5" x="853.5" y="509.5" width="38" height="120" transform="translate(-84.5 1430.5) rotate(-90)"/><rect class="cls-5" x="886.5" y="524.5" width="32" height="40" transform="translate(-29.5 1435.5) rotate(-90)"/><rect class="cls-5" x="845.5" y="712.5" width="85" height="73" transform="translate(-248.5 1625.5) rotate(-90)"/><rect class="cls-5" x="819.5" y="718.5" width="37" height="37" transform="translate(-286.5 1563.5) rotate(-90)"/><rect class="cls-5" x="880.5" y="709.5" width="109" height="33" transform="translate(-178.5 1649.5) rotate(-90)"/><rect class="cls-5" x="836" y="623" width="130" height="47" transform="translate(-133 1536) rotate(-90)"/><rect class="cls-5" x="935" y="607" width="26" height="59" transform="translate(-76 1573) rotate(-90)"/><rect class="cls-5" x="953" y="639" width="20" height="29" transform="translate(-78 1605) rotate(-90)"/><rect class="cls-5" x="1040" y="568" width="40" height="151" transform="translate(29 1692) rotate(-90)"/><rect class="cls-5" x="1067" y="559" width="80" height="57" transform="translate(132 1683) rotate(-90)"/><rect class="cls-5" x="1078" y="466" width="77" height="70" transform="translate(228 1606) rotate(-90)"/><rect class="cls-5" x="1052" y="370" width="113" height="54" transform="translate(324 1494) rotate(-90)"/><rect class="cls-5" x="1093.5" y="441.5" width="31" height="31" transform="translate(264.5 1554.5) rotate(-90)"/><rect class="cls-5" x="1096" y="532" width="26" height="31" transform="translate(174 1645) rotate(-90)"/><rect class="cls-5" x="1113" y="594" width="76" height="35" transform="translate(152 1751) rotate(-90)"/><rect class="cls-5" x="1110.5" y="378.5" width="80" height="34" transform="translate(367.5 1534.5) rotate(-90)"/><rect class="cls-5" x="973" y="641" width="15" height="14" transform="translate(-55 1617) rotate(-90)"/><rect class="cls-5" x="923.5" y="589.5" width="33" height="43" transform="translate(-58.5 1539.5) rotate(-90)"/><rect class="cls-5" x="940.5" y="718.5" width="134" height="40" transform="translate(-118.5 1734.5) rotate(-90)"/><rect class="cls-5" x="982.5" y="752.5" width="87" height="19" transform="translate(-123.5 1776.5) rotate(-90)"/><rect class="cls-5" x="1008.5" y="731.5" width="65" height="39" transform="translate(-97.5 1780.5) rotate(-90)"/><rect class="cls-5" x="1066.5" y="712.5" width="49" height="61" transform="translate(-39.5 1822.5) rotate(-90)"/><rect class="cls-5" x="1084.5" y="720.5" width="101" height="41" transform="translate(6.5 1864.5) rotate(-90)"/><rect class="cls-5" x="998.5" y="648.5" width="18" height="40" transform="translate(-48.5 1664.5) rotate(-90)"/><rect class="cls-5" x="896" y="777" width="19" height="38" transform="translate(-278 1690) rotate(-90)"/><rect class="cls-5" x="969" y="616" width="6" height="11" transform="translate(-37 1582) rotate(-90)"/></g></g><g id="Roads"><g id="Normal_Roads" data-name="Normal Roads"><path class="cls-6" d="M667,926a57.669,57.669,0,0,1,11-41" transform="translate(-387.5 -11.5)"/><path class="cls-6" d="M678,885l29-24" transform="translate(-387.5 -11.5)"/><path class="cls-6" d="M731,841c-1.932,6.266-6.821,9.741-10,12,0,0-8.435,6-17.441,5.493-1.19-.066-2.336-.255-2.336-.255s-.611-.1-1.223-.238a27.638,27.638,0,0,1-14-9,24.5,24.5,0,0,1,19-40c9.853-.03,16.276,6.3,18,8C723.867,817.854,734.734,828.887,731,841Z" transform="translate(-387.5 -11.5)"/><path class="cls-6" d="M657,791a74.849,74.849,0,0,0,18-2,78.012,78.012,0,0,0,35-19" transform="translate(-387.5 -11.5)"/><path class="cls-6" d="M712,809c1.486-418.711.953-599.58-1-608a24.2,24.2,0,0,1,0-11c.325-1.364,2.02-8.485,8-12a15.328,15.328,0,0,1,7-2c8.269-.49,44.155-.533,93,0" transform="translate(-387.5 -11.5)"/><path class="cls-6" d="M1025,805v10c0,1.167-.011,2.333,0,3.5.071,7.263.552,8.95,0,12.5a13.785,13.785,0,0,1-1.122,4.513c-3.234,6.084-14.736,5.6-16.878,5.487" transform="translate(-387.5 -11.5)"/><path class="cls-6" d="M821,840l-90,1" transform="translate(-387.5 -11.5)"/><path class="cls-6" d="M1013,841l-192-1" transform="translate(-387.5 -11.5)"/><path class="cls-6" d="M980,843c.01,7.773.006,13.981,0,18-.014,10.18-.042,12.743-1,16-2.35,7.993-8.179,12.955-12,16-30.313,24.153-105.719,64.193-111,67-1.829.972-6.236,4.383-13,7-10.82,4.186-20.114,4.063-26,4-43.877-.47-65.815-.705-70,0-4.8.808-10.274,2-17,0a33.294,33.294,0,0,1-21-20,34.76,34.76,0,0,1-2-11c-1.292-23.08-.3-43.706,0-57,.108-4.871.206-12.509,0-22" transform="translate(-387.5 -11.5)"/><path class="cls-6" d="M821,180V315c0,.576,1.528,4,0,7a7.776,7.776,0,0,1-3,3c-4.731,3.173-4.951,12.382-5,16-1.751,129.681-1,165-1,165V657a20.983,20.983,0,0,0,0,11c1.371,4.627,3.951,6.4,6,10,3.914,6.867,2.417,14.263,2,18-1.316,11.79-.667,65.832,1,144" transform="translate(-387.5 -11.5)"/><path class="cls-6" d="M1171,174c-269.949,1.717-352,2.133-352,2,0-.191,168.9-1.989,381-2h4" transform="translate(-387.5 -11.5)"/><path class="cls-6" d="M1245,852c.636-3.295,6.884-38.4-15-58-8.681-7.776-19.069-10.676-24-12a72.505,72.505,0,0,0-40,1" transform="translate(-387.5 -11.5)"/><path class="cls-6" d="M1341.5,919.5a85.27,85.27,0,0,0-9-37,70.175,70.175,0,0,0-4-7c-5.471-8.1-19.146-20.638-63-24-43.005-3.3-47.724,7.394-65-2-14.558-7.916-27.424-24.325-31-42a52.942,52.942,0,0,1-1-13c.951-22.2.423-256.342-.873-591q-.063-16.1-.127-32.5" transform="translate(-387.5 -11.5)"/><line class="cls-6" x1="411" y1="766.333" x2="432.319" y2="766.333"/><line class="cls-6" x1="411" y1="727" x2="431.5" y2="727"/><line class="cls-6" x1="411" y1="651.667" x2="421.659" y2="651.667"/><line class="cls-6" x1="411" y1="610.667" x2="424.5" y2="610.667"/><line class="cls-6" x1="411" y1="541.667" x2="424.5" y2="541.667"/><line class="cls-6" x1="340" y1="612.333" x2="325.066" y2="612.333"/><line class="cls-6" x1="340" y1="651.667" x2="324.963" y2="651.667"/><line class="cls-6" x1="343" y1="431.667" x2="326.5" y2="431.667"/><line class="cls-6" x1="411" y1="430.333" x2="424.5" y2="430.333"/><line class="cls-6" x1="411.5" y1="325.5" x2="424.5" y2="325.5"/><line class="cls-6" x1="343" y1="325.5" x2="325.258" y2="325.5"/><line class="cls-6" x1="411.5" y1="258.667" x2="432.319" y2="258.667"/><path class="cls-6" d="M918.167,176" transform="translate(-387.5 -11.5)"/><line class="cls-6" x1="523.333" y1="164.235" x2="523.333" y2="186.667"/><path class="cls-6" d="M897.5,840V804.987" transform="translate(-387.5 -11.5)"/><line class="cls-6" x1="502" y1="831.5" x2="502" y2="843"/><line class="cls-6" x1="388.5" y1="831.5" x2="388.5" y2="843"/><line class="cls-6" x1="279.198" y1="910.755" x2="267.467" y2="974"/><path class="cls-6" d="M1202,114h0c-.667,28.667.667,62.333,0,91" transform="translate(-387.5 -11.5)"/><line class="cls-6" x1="424.5" y1="494.5" x2="411" y2="494.5"/><path class="cls-6" d="M1238,113l-55,1" transform="translate(-387.5 -11.5)"/><path class="cls-6" d="M1262,132" transform="translate(-387.5 -11.5)"/><line class="cls-6" x1="768" y1="190.694" x2="781" y2="190.694"/><path class="cls-6" d="M1155,779h12" transform="translate(-387.5 -11.5)"/></g><g id="Highways"><path class="cls-7" d="M714,77a210.2,210.2,0,0,0-29,39,212.458,212.458,0,0,0-26,75" transform="translate(-387.5 -11.5)"/><path class="cls-7" d="M634,1066c.333-345,.667-701,1-1046" transform="translate(-387.5 -11.5)"/><path class="cls-7" d="M577,76a184.692,184.692,0,0,1,27,34,189.477,189.477,0,0,1,27,81" transform="translate(-387.5 -11.5)"/><path class="cls-7" d="M655,1064c0-345-2-699.5-2-1044.5" transform="translate(-387.5 -11.5)"/><path class="cls-8" d="M798.5,777.833" transform="translate(-387.5 -11.5)"/><path class="cls-7" d="M714,77a210.2,210.2,0,0,0-29,39,212.458,212.458,0,0,0-26,75" transform="translate(-387.5 -11.5)"/><path class="cls-7" d="M634,1066c.333-345,.667-701,1-1046" transform="translate(-387.5 -11.5)"/><path class="cls-7" d="M577,76a184.692,184.692,0,0,1,27,34,189.477,189.477,0,0,1,27,81" transform="translate(-387.5 -11.5)"/><path class="cls-7" d="M655,1064c0-345-2-699.5-2-1044.5" transform="translate(-387.5 -11.5)"/><path class="cls-7" d="M798.5,777.833" transform="translate(-387.5 -11.5)"/></g><g id="Ramps"><line class="cls-6" x1="764" y1="265.778" x2="764" y2="305"/><path class="cls-9" d="M1117,788h51" transform="translate(-387.5 -11.5)"/><path class="cls-10" d="M953,581.5v29" transform="translate(-387.5 -11.5)"/><path class="cls-11" d="M1114.5,194h51" transform="translate(-387.5 -11.5)"/></g></g><g id="Train_Tracks" data-name="Train Tracks"><polyline class="cls-12" points="135.343 415.872 133 404 112 373 85 346 68 326 59 306 55 283 55 0"/></g><g id="Buildings"><rect class="cls-13" x="1192.167" y="244.611" width="11.556" height="4.889" transform="translate(1057.5 -962.389) rotate(90)"/><rect class="cls-13" x="1192.167" y="231.611" width="11.556" height="4.889" transform="translate(1044.5 -975.389) rotate(90)"/><rect class="cls-13" x="1231.111" y="214.222" width="7.111" height="5.667" transform="translate(1064.222 -1029.111) rotate(90)"/><rect class="cls-13" x="1157.611" y="114.722" width="33.111" height="42.667" transform="translate(922.722 -1049.611) rotate(90)"/><rect class="cls-13" x="1230.806" y="204.194" width="7.389" height="6" transform="translate(1054.194 -1038.806) rotate(90)"/><rect class="cls-13" x="1219.882" y="192.118" width="10.694" height="9.458" transform="translate(1034.576 -1039.882) rotate(90)"/><rect class="cls-13" x="1206.611" y="191.771" width="10.694" height="9.458" transform="translate(1020.958 -1026.958) rotate(90)"/><rect class="cls-13" x="1220.264" y="97.104" width="10.694" height="9.458" transform="translate(939.944 -1135.278) rotate(90)"/><rect class="cls-13" x="1206.264" y="97.104" width="10.694" height="9.458" transform="translate(925.944 -1121.278) rotate(90)"/></g></g><g id="First_Floor" data-name="First Floor"><g id="Structure-2" data-name="Structure"><rect class="cls-14" x="442" y="185" width="285" height="609"/><rect class="cls-14" x="436" y="321" width="7" height="334"/><rect class="cls-14" x="569" y="790" width="158" height="21"/><rect class="cls-14" x="569" y="167" width="158" height="26"/><rect class="cls-14" x="727" y="305" width="41" height="374"/><rect class="cls-14" x="442" y="185" width="285" height="609"/><rect class="cls-14" x="436" y="321" width="7" height="334"/><rect class="cls-14" x="569" y="790" width="158" height="21"/><rect class="cls-14" x="569" y="167" width="158" height="26"/><rect class="cls-14" x="727" y="305" width="41" height="374"/></g><g id="Floor"><rect class="cls-15" x="902" y="628" width="105" height="242" transform="translate(-182 1692) rotate(-90)"/><rect class="cls-15" x="950" y="572" width="32" height="219" transform="translate(-103 1636) rotate(-90)"/><rect class="cls-15" x="745" y="434" width="324" height="135" transform="translate(18 1397) rotate(-90)"/><rect class="cls-15" x="911.5" y="172.5" width="87" height="243" transform="translate(273.5 1237.5) rotate(-90)"/><rect class="cls-15" x="941" y="116" width="53" height="218" transform="translate(355 1181) rotate(-90)"/><rect class="cls-15" x="834" y="198" width="24" height="25" transform="translate(248 1045) rotate(-90)"/><rect class="cls-15" x="765.5" y="590.5" width="135" height="11" transform="translate(-150.5 1417.5) rotate(-90)"/><rect class="cls-15" x="765" y="402" width="136" height="11" transform="translate(38 1229) rotate(-90)"/><rect class="cls-15" x="901.5" y="641.5" width="6" height="46" transform="translate(-147.5 1557.5) rotate(-90)"/><rect class="cls-15" x="900.5" y="315.5" width="8" height="46" transform="translate(178.5 1231.5) rotate(-90)"/><rect class="cls-15" x="858.5" y="464.5" width="309" height="77" transform="translate(122.5 1504.5) rotate(-90)"/><rect class="cls-15" x="955.5" y="500.5" width="197" height="5" transform="translate(163.5 1545.5) rotate(-90)"/><rect class="cls-15" x="1003.5" y="492.5" width="248" height="20" transform="translate(237.5 1618.5) rotate(-90)"/><rect class="cls-15" x="927.5" y="471.5" width="319" height="61" transform="translate(197.5 1577.5) rotate(-90)"/><rect class="cls-15" x="1098" y="561" width="88" height="9" transform="translate(189 1696) rotate(-90)"/><rect class="cls-15" x="1098.5" y="435.5" width="87" height="9" transform="translate(314.5 1570.5) rotate(-90)"/></g><g id="Enclosed_Spaces" data-name="Enclosed Spaces"><rect class="cls-16" x="765.5" y="401.5" width="136" height="12" transform="translate(38.5 1229.5) rotate(-90)"/><rect class="cls-16" x="874.5" y="489.5" width="52" height="96" transform="translate(-24.5 1426.5) rotate(-90)"/><rect class="cls-16" x="766" y="590" width="135" height="12" transform="translate(-150 1418) rotate(-90)"/><rect class="cls-16" x="840.5" y="590.5" width="62" height="38" transform="translate(-125.5 1469.5) rotate(-90)"/><rect class="cls-16" x="896.5" y="606.5" width="52" height="28" transform="translate(-85.5 1531.5) rotate(-90)"/><rect class="cls-16" x="906" y="550" width="33" height="28" transform="translate(-29 1475) rotate(-90)"/><rect class="cls-16" x="983" y="560" width="13" height="28" transform="translate(28 1552) rotate(-90)"/><rect class="cls-16" x="958" y="523" width="51" height="40" transform="translate(53 1515) rotate(-90)"/><rect class="cls-16" x="938.5" y="558.5" width="7" height="13" transform="translate(-10.5 1495.5) rotate(-90)"/><rect class="cls-16" x="935" y="607" width="40" height="39" transform="translate(-59 1570) rotate(-90)"/><rect class="cls-16" x="986.5" y="582.5" width="20" height="44" transform="translate(4.5 1589.5) rotate(-90)"/><polygon class="cls-16" points="561 557 549 557 549 569 561 557"/><polygon class="cls-16" points="588 569 587.962 557 575.962 557.038 588 569"/><polygon class="cls-16" points="575 595 587 594.996 586.996 582.996 575 595"/><polygon class="cls-16" points="549 583 549.026 595 561.026 594.974 549 583"/><rect class="cls-16" x="875" y="421" width="51" height="96" transform="translate(982 -443) rotate(90)"/><rect class="cls-16" x="840.5" y="378.5" width="62" height="38" transform="translate(881.5 -485.5) rotate(90)"/><rect class="cls-16" x="896.5" y="372.5" width="52" height="28" transform="translate(921.5 -547.5) rotate(90)"/><rect class="cls-16" x="906" y="429" width="33" height="28" transform="translate(978 -491) rotate(90)"/><rect class="cls-16" x="983" y="419" width="13" height="28" transform="translate(1035 -568) rotate(90)"/><rect class="cls-16" x="958.5" y="443.5" width="50" height="40" transform="translate(1059.5 -531.5) rotate(90)"/><rect class="cls-16" x="938.5" y="435.5" width="7" height="13" transform="translate(996.5 -511.5) rotate(90)"/><rect class="cls-16" x="935" y="361" width="40" height="39" transform="translate(948 -586) rotate(90)"/><rect class="cls-16" x="986.5" y="380.5" width="20" height="44" transform="translate(1011.5 -605.5) rotate(90)"/><polygon class="cls-16" points="561 427 549 427 549 415 561 427"/><polygon class="cls-16" points="588 415 587.962 427 575.962 426.962 588 415"/><polygon class="cls-16" points="575 389 587 389.004 586.996 401.004 575 389"/><polygon class="cls-16" points="549 401 549.026 389 561.026 389.026 549 401"/><rect class="cls-16" x="981.5" y="607.5" width="36" height="50" transform="translate(-20.5 1620.5) rotate(-90)"/><rect class="cls-16" x="989" y="560" width="84" height="25" transform="translate(71 1592) rotate(-90)"/><rect class="cls-16" x="1025" y="631" width="36" height="17" transform="translate(16 1671) rotate(-90)"/><rect class="cls-16" x="990" y="421" width="82" height="25" transform="translate(210 1453) rotate(-90)"/><rect class="cls-16" x="981.5" y="349.5" width="36" height="50" transform="translate(237.5 1362.5) rotate(-90)"/><rect class="cls-16" x="816" y="714" width="54" height="19" transform="translate(-268 1555) rotate(-90)"/><rect class="cls-16" x="1023.5" y="357.5" width="37" height="19" transform="translate(287.5 1397.5) rotate(-90)"/><rect class="cls-16" x="823" y="772" width="40" height="19" transform="translate(-326 1613) rotate(-90)"/><rect class="cls-16" x="838.5" y="286.5" width="29" height="39" transform="translate(159.5 1147.5) rotate(-90)"/><rect class="cls-16" x="847" y="185" width="15" height="42" transform="translate(261 1049) rotate(-90)"/><rect class="cls-16" x="925.5" y="183.5" width="16" height="46" transform="translate(339.5 1128.5) rotate(-90)"/><rect class="cls-16" x="1021.5" y="690.5" width="79" height="29" transform="translate(-31.5 1754.5) rotate(-90)"/><rect class="cls-16" x="1119" y="608" width="17" height="20" transform="translate(122 1734) rotate(-90)"/><rect class="cls-16" x="1118.5" y="377.5" width="18" height="20" transform="translate(352.5 1503.5) rotate(-90)"/></g><g id="Ramps-2" data-name="Ramps"><path class="cls-17" d="M953,580.5v21" transform="translate(-387.5 -11.5)"/></g></g><g id="Second_Floor" data-name="Second Floor"><g id="Structure-3" data-name="Structure"><rect class="cls-14" x="667.5" y="358.5" width="609" height="285" transform="translate(83.5 1461.5) rotate(-90)"/><rect class="cls-14" x="943.5" y="487.5" width="374" height="32" transform="translate(239.5 1622.5) rotate(-90)"/><rect class="cls-14" x="659.5" y="496.5" width="334" height="6" transform="translate(-60.5 1314.5) rotate(-90)"/></g><g id="Floor-2" data-name="Floor"><rect class="cls-15" x="765.5" y="406.5" width="315" height="191" transform="translate(33.5 1413.5) rotate(-90)"/><rect class="cls-15" x="1026.5" y="643.5" width="8" height="24" transform="translate(-12.5 1674.5) rotate(-90)"/><rect class="cls-15" x="1026" y="337" width="9" height="24" transform="translate(294 1368) rotate(-90)"/></g><g id="Enclosed_Spaces-2" data-name="Enclosed Spaces"><rect class="cls-16" x="904.5" y="601.5" width="36" height="28" transform="translate(-80.5 1526.5) rotate(-90)"/><rect class="cls-16" x="978.5" y="592.5" width="37" height="43" transform="translate(-4.5 1599.5) rotate(-90)"/><rect class="cls-16" x="942.5" y="600.5" width="27" height="39" transform="translate(-51.5 1564.5) rotate(-90)"/><rect class="cls-16" x="842.5" y="585.5" width="55" height="41" transform="translate(-123.5 1464.5) rotate(-90)"/><rect class="cls-16" x="882.5" y="498.5" width="33" height="99" transform="translate(-36.5 1435.5) rotate(-90)"/><rect class="cls-16" x="916.5" y="556.5" width="13" height="27" transform="translate(-34.5 1481.5) rotate(-90)"/><rect class="cls-16" x="960" y="535" width="58" height="27" transform="translate(53 1526) rotate(-90)"/><rect class="cls-16" x="946.5" y="536.5" width="46" height="12" transform="translate(39.5 1500.5) rotate(-90)"/><rect class="cls-16" x="989" y="566" width="43" height="16" transform="translate(49 1573) rotate(-90)"/><rect class="cls-16" x="899" y="482" width="12" height="87" transform="translate(-8 1419) rotate(-90)"/><rect class="cls-16" x="921.5" y="617.5" width="9" height="75" transform="translate(-116.5 1569.5) rotate(-90)"/><rect class="cls-16" x="987.5" y="620.5" width="19" height="43" transform="translate(-32.5 1627.5) rotate(-90)"/><rect class="cls-16" x="785" y="606" width="96" height="11" transform="translate(-166 1433) rotate(-90)"/><rect class="cls-16" x="838.5" y="651.5" width="8" height="8" transform="translate(-200.5 1486.5) rotate(-90)"/><polygon class="cls-16" points="558 595 549 595 549 586 558 595"/><polygon class="cls-16" points="561 553 549 553 549 565 561 553"/><polygon class="cls-16" points="576 554 588 554 588 566 576 554"/><polygon class="cls-16" points="577 595 588 595 588 584 577 595"/><polygon class="cls-16" points="462 520 474 520 474 508 462 520"/><rect class="cls-16" x="904.5" y="374.5" width="36" height="28" transform="translate(923.5 -545.5) rotate(90)"/><rect class="cls-16" x="978.5" y="368.5" width="37" height="43" transform="translate(999.5 -618.5) rotate(90)"/><rect class="cls-16" x="942.5" y="364.5" width="27" height="39" transform="translate(952.5 -583.5) rotate(90)"/><rect class="cls-16" x="842.5" y="377.5" width="55" height="41" transform="translate(880.5 -483.5) rotate(90)"/><rect class="cls-16" x="882.5" y="406.5" width="33" height="99" transform="translate(967.5 -454.5) rotate(90)"/><rect class="cls-16" x="916.5" y="420.5" width="13" height="27" transform="translate(969.5 -500.5) rotate(90)"/><rect class="cls-16" x="960" y="442" width="58" height="27" transform="translate(1057 -545) rotate(90)"/><rect class="cls-16" x="946.5" y="455.5" width="46" height="12" transform="translate(1043.5 -519.5) rotate(90)"/><rect class="cls-16" x="989" y="422" width="43" height="16" transform="translate(1053 -592) rotate(90)"/><rect class="cls-16" x="899" y="435" width="12" height="87" transform="translate(996 -438) rotate(90)"/><rect class="cls-16" x="921.5" y="311.5" width="9" height="75" transform="translate(887.5 -588.5) rotate(90)"/><rect class="cls-16" x="988" y="341" width="18" height="43" transform="translate(972 -646) rotate(90)"/><rect class="cls-16" x="785" y="387" width="96" height="11" transform="translate(838 -452) rotate(90)"/><rect class="cls-16" x="838.5" y="344.5" width="8" height="8" transform="translate(803.5 -505.5) rotate(90)"/><polygon class="cls-16" points="558 386 549 386 549 395 558 386"/><polygon class="cls-16" points="561 428 549 428 549 416 561 428"/><polygon class="cls-16" points="576 427 588 427 588 415 576 427"/><polygon class="cls-16" points="577 386 588 386 588 397 577 386"/><polygon class="cls-16" points="462 461 474 461 474 473 462 461"/></g><g id="Openings"><rect class="cls-18" x="951.5" y="574.5" width="10" height="24" transform="translate(-17.5 1531.5) rotate(-90)"/><rect class="cls-18" x="944.5" y="581.5" width="24" height="10" transform="translate(-17.5 1531.5) rotate(-90)"/><polygon class="cls-18" points="557 580 564 580 564 587 557 580"/><polygon class="cls-18" points="557 570 564 570 564 563 557 570"/><polygon class="cls-18" points="581 570 574 570 574 563 581 570"/><polygon class="cls-18" points="581 580 574 580 574 587 581 580"/><rect class="cls-18" x="950.5" y="405.5" width="10" height="24" transform="translate(150.5 1361.5) rotate(-90)"/><rect class="cls-18" x="943.5" y="412.5" width="24" height="10" transform="translate(150.5 1361.5) rotate(-90)"/><polygon class="cls-18" points="556 411 563 411 563 418 556 411"/><polygon class="cls-18" points="556 401 563 401 563 394 556 401"/><polygon class="cls-18" points="580 401 573 401 573 394 580 401"/><polygon class="cls-18" points="580 411 573 411 573 418 580 411"/><rect class="cls-18" x="948" y="459" width="14" height="87" transform="translate(65 1446) rotate(-90)"/><rect class="cls-18" x="865.5" y="481.5" width="14" height="42" transform="translate(-17.5 1363.5) rotate(-90)"/><rect class="cls-18" x="954.5" y="489.5" width="3" height="9" transform="translate(74.5 1438.5) rotate(-90)"/><rect class="cls-18" x="954.5" y="506.5" width="3" height="9" transform="translate(57.5 1455.5) rotate(-90)"/><polygon class="cls-18" points="561 498 564 498 564 501 561 498"/><polygon class="cls-18" points="561 484 564 484 564 481 561 484"/><polygon class="cls-18" points="576 484 573 484 573 481 576 484"/><polygon class="cls-18" points="576 498 573 498 573 501 576 498"/></g></g></svg>