<svg xmlns="http://www.w3.org/2000/svg" xmlns:xlink="http://www.w3.org/1999/xlink" xml:space="preserve" id="svg235" width="1066.0038" height="1041.6603" version="1.1">
  <defs id="defs4">
    <style id="style1">
      .cls-14{fill:#4b4b4b}.cls-15{fill:#dff2ff}.cls-16{fill:#b3b3b3}.cls-18{fill:#666}
    </style>
  </defs>
  <g id="Second_Floor" data-name="Second Floor">
    <g id="Structure-2" class="cls-14" data-name="Structure">
      <path d="M658.248 155.375v9.25H511.841V318.51h-9.015v309.566h9.015v149.196h145.504v16.068h161.17V649.941h47.74l5.391-22.873V320.129l-5.391-20.873h-47.359V155.375Z"/>
    </g>
    <g id="Floor-2" class="cls-15" data-name="Floor">
      <path d="M505.31 322.558v301.164h146.037v-1.611h63.557v-6.187h-22.357V331.471h21.713v-7.625h-63.006v-1.288z"/>
    </g>
    <g id="Enclosed_Spaces-2" class="cls-16" data-name="Enclosed Spaces">
      <path d="M640.916 489.926v43.908l11.582 11.455h24.606v17.181h-24.606l-10.617 10.5h-18.338l-8.686-8.591h-27.023v35.491h63.536v16.054h41.178v-94.498h-13.994v-31.5z"/>
      <path d="M530.893 546.086v53.467h36.83v-53.467h-36.83Z"/>
      <path d="m542.474 489.926-11.582 11.453v30.05h57.907v12.905h26.058l9.165-9.361v-45.047z"/>
      <path d="M566.598 614.645v8.914h72.062v-8.914h-72.062Z"/>
      <path d="M505.47 531.441V623.4l21.561-.032v-7.444l-7.751-6.072v-78.411z"/>
      <path d="M651.37 331.471v14.937h-64.342v36.299h27.829l8.686-9.236h18.338l10.617 10.5h25.09v17.181h-25.09l-11.582 11.455v43.908h37.638v-31.5h13.833v-93.544z"/>
      <path d="M531.537 346.57v53.95h36.508v-53.95h-36.508Z"/>
      <path d="M588.799 402.107v11.455h-57.907v31.498l11.582 11.455h83.965v-42.953l-11.582-11.455z"/>
      <path d="M565.471 322.557v9.074h73.189v-9.074h-73.189Z"/>
      <path d="M505.31 322.881v92.279h13.618v-78.284l9.07-6.361v-7.634z"/>
    </g>
    <g id="Openings-2" class="cls-18">
      <path d="m629.334 542.426-6.756 6.681v9.545l6.756 6.682h9.652l6.756-6.682v-9.545l-6.756-6.681z"/>
      <path d="m628.369 381.107-6.756 6.682v9.545l6.756 6.681h9.65l6.756-6.681v-9.545l-6.756-6.682z"/>
      <path d="m629.334 464.152-2.895 2.863H590.73v13.364h35.709l2.895 2.865h8.685l2.897-2.865h33.779v-13.364h-33.779l-2.897-2.863z"/>
      <path d="M532.822 467.02v13.363h40.535V467.02h-40.535Z"/>
    </g>
  </g>
</svg>