<svg xmlns="http://www.w3.org/2000/svg" xmlns:xlink="http://www.w3.org/1999/xlink" xml:space="preserve" id="svg235" width="1066.0038" height="1041.6603" version="1.1">
  <defs id="defs4">
    <linearGradient id="linear-gradient" x1="640.5" x2="640.5" y1="818.5" y2="767.5" gradientTransform="rotate(-90 889 539.5)" gradientUnits="userSpaceOnUse" spreadMethod="pad">
      <stop id="stop1" offset="0" stop-color="#b4b4b4"/>
      <stop id="stop2" offset="1" stop-color="#878787"/>
    </linearGradient>
    <linearGradient id="linear-gradient-2" x1="818" x2="847" y1="603.5" y2="603.5" gradientTransform="rotate(-90 889 539.5)" gradientUnits="userSpaceOnUse">
      <stop id="stop3" offset="0" stop-color="#616161"/>
      <stop id="stop4" offset="1" stop-color="#b4b4b4"/>
    </linearGradient>
    <linearGradient xlink:href="#linear-gradient-2" id="linear-gradient-4" x1="1029.4612" x2="1029.4703" y1="568.98944" y2="551.5318" gradientTransform="matrix(1 0 0 .567859 -395.63618 242.95681)"/>
    <linearGradient xlink:href="#linear-gradient" id="linearGradient115" x1="661.40375" x2="661.40375" y1="518.72058" y2="467.72089" gradientTransform="rotate(-90 889 539.5)" gradientUnits="userSpaceOnUse" spreadMethod="pad"/>
    <linearGradient xlink:href="#linear-gradient" id="linearGradient116" x1="738.36768" x2="777.32471" y1="503.51807" y2="503.82739" gradientTransform="rotate(-90 889 539.5)" gradientUnits="userSpaceOnUse" spreadMethod="pad"/>
    <linearGradient xlink:href="#linear-gradient" id="linearGradient117" x1="1167.3701" x2="1129.3633" y1="503.04306" y2="502.40213" gradientTransform="rotate(-90 889 539.5)" gradientUnits="userSpaceOnUse" spreadMethod="pad"/>
    <linearGradient xlink:href="#linear-gradient" id="linearGradient118" x1="1245.2842" x2="1245.2842" y1="520.14612" y2="469.14615" gradientTransform="rotate(-90 889 539.5)" gradientUnits="userSpaceOnUse" spreadMethod="pad"/>
    <linearGradient xlink:href="#linear-gradient-2" id="linearGradient119" x1="845.55499" x2="874.55499" y1="284.24237" y2="284.24237" gradientTransform="rotate(-90 889 539.5)" gradientUnits="userSpaceOnUse"/>
    <style id="style1">
      .cls-1{fill:#0c343d}.cls-2{fill:#0c3450}.cls-3{fill:#333}.cls-4{fill:#b4b4b4}.cls-5{fill:#7d7d7d}.cls-10,.cls-12,.cls-17,.cls-6,.cls-7,.cls-9{fill:none;stroke-miterlimit:10}.cls-6,.cls-7{stroke:#b4b4b4}.cls-6{stroke-width:8px}.cls-9{stroke-width:13px}.cls-7{stroke-width:16px}.cls-9{stroke:url(#linear-gradient)}.cls-17{stroke-width:9px}.cls-10{stroke:url(#linear-gradient-2);stroke-width:16}.cls-12{stroke:#cb7e54;stroke-width:2px;stroke-dasharray:6}.cls-13{fill:#cff}.cls-14{fill:#4b4b4b}.cls-15{fill:#dff2ff}.cls-16{fill:#b3b3b3}.cls-17{stroke:url(#linear-gradient-4)}.cls-18{fill:#666}
    </style>
  </defs>
  <g id="Ground_Level" data-name="Ground Level">
    <g id="Base_Terrain" data-name="Base Terrain">
      <path id="Ground" d="m889.755 600.456 44.875-.328.047 68.516 100.923 45.609 1.64 32.86 27.78 16.593.98 104.344-68.314 17.391-105.726 2.297-155.984 15.529L622.2 936.532l-120.996 65.428-25.153 19.85-53.282 19.85-154.235-.05 7.168-655.41-191.926.7-1.2012-62.804-15.2652-46.182L.000033 181.86V-.000013L76.7848.088197V16.1106l195.1582.0725.537-14.4985 60.578-.1704v14.5112l348.93 1.2132.657 18.7498-5.033 29.8452 3.282 38.8754 41.02.155 23.416 19.499 61.351.162-.723-48.3891 15.423-22.3354 95.982-.6719 24.447 32.9036.164 154.3158-42.025-.649-13.476 15.102.168 73.009 8.043 5.739.577 59.966-6.643 11.402.496 84.165 10.375 6.39-.344 54.624-9.047 7.094Z" class="cls-1"/>
      <path d="M126.817 223.151c-7.357.092-11.042 6.815-11.702 8.915-1.354 4.3 7.38 11.704 11.68 20.054 2.531 4.913-5.589 12.196 2.618 20.111 1.381 1.332-.539 2.046 11.755 17.351 7 8.709 3.687 27.683 4.187 28.6 6.666 12.327-3.37 36.403 2.835 41.196 4.76 3.677 11.061 9.003 16.027 6.516 10.538-5.278 16.553-12.803 16.489-14.214-.682-15.046-12.972-27.355-17.027-30.622-1.621-19.453 9.622-45.476 4.063-52.583-4.388-5.611-19.286-10.122-23.574-20.622-4.278-10.475-10.007-24.794-17.351-24.702Z" class="cls-2"/>
    </g>
    <g id="Structure" class="cls-3">
      <path d="M657.557 155.349v9.153H511.59l.654 159.154h-9.598V628.55l9.598.327-1.308 148.811 145.967.654v15.365h161.27l.327-143.421h45.251V299.652l-44.924-.327.327-143.993Z"/>
    </g>
    <g id="Pavement">
      <g id="Outdoors" class="cls-4">
        <path d="m753.785 133.705-32.804-27.475-41.434-.218.137 27.642"/>
        <path d="M815.776 127.012V98.1389h39.19v28.8731Z"/>
        <path d="M818.923 299.471V190.253h41.582v109.218Z"/>
        <path d="M912.69 126.401v-22.528h19.012v22.528Z"/>
        <path d="M907.779 164.925v-29.063h18.35v29.063Z"/>
        <path d="M902.62 193.497V180.83h22.889v12.667Z"/>
        <path d="M902.62 215.846v-13.492h23.302v13.492Z"/>
        <path d="M535.01 828.884v64.42h39.864l61.042-29.195.2-35.225Z"/>
        <path d="M391.458 285.373V180.398H466.4v104.975Z"/>
        <path d="M391.458 410.006V295.789h74.503v114.217Z"/>
        <path d="M391.458 478.364v-57.087h74.815v57.087Z"/>
        <path d="M391.458 530.644v-39.915h74.179v39.915Z"/>
        <path d="M391.458 656.237V539.18h74.179v117.057Z"/>
        <path id="polygon13" d="M391.456 664.988v83.42l46.586 48.754h27.086V664.988Z"/>
        <path d="M419.807 828.662v17.871l-3.711 2.75v51.69l3.711 3.299v10.585h84.785v-10.585l3.711-3.299v-51.69l-3.711-2.75v-17.871Z"/>
        <path d="M878.852 489.346v67.59h9.869l9.869-7.707.183-53.276-10.052-6.607Z"/>
        <path d="M889.205 708.29V602.047h43.672V708.29Z"/>
        <path d="M818.529 758.909V650.303h41.736v108.606Z"/>
        <path d="m753.91 156.026-.014-16.809-58.744-.02.136 16.778"/>
      </g>
      <g id="Garage" class="cls-5">
        <path d="m692.117 155.838.344 168.435h-40.488v24.852h-40.272v-48.928h25.615V165.014h-77.617v72.897l-7.414.145.073-12.989-13.646-.09.036-13.773-3.076-9.752h-23.745v141.665h17.352l.004 61.18h-26.694v41.172h78.872l-.26 64.527h-78.54v39.707h73.189l-.366 117.559h-63.555l-.344 57.494h37.899v53.05l57.629.172v-25.294h53.106V633.436h-36.026v-15.944h4.979v7.85h25.478v4.049l40.106.193v164.101h59.762v-30.683h25.437v-20.391h38.755v-44.365h-64.192v-68.662h90.677v-.182h.489V592.65h18.089v-66.486h-18.089v-21.295h17.933v-56.984h-17.933v-20.44h17.993v-66.338h-17.993v-40.008h-57.661V593.73H679.068v11.877h-11.879v-25.783h-7.46v-26.072h-50.467v-18.68l8.151-.17-.146-14.289-8.005-.049v-17.08h62.271v-52.943h-62.271l.033-73.033 51.482-.151v-7.994h68.264v-44.722h27.492v-69.762l62.301-.146v-43l-38.934.146v-21.533h-25.696l-.199-34.508ZM552.285 308.662h38.467v13.42h-38.467Z"/>
      </g>
    </g>
    <g id="Roads">
      <g id="Normal_Roads" class="cls-6" data-name="Normal Roads">
        <path d="M306.097 894.143c14.173-23.955 38.664-40.539 61.542-58.276"/>
        <path d="M398.008 805.671c.256 14.176-16.215 29.939-30.393 29.759-13.822-.177-29.132-15.938-28.882-29.759.241-13.334 15.547-27.514 28.882-27.684 13.703-.174 30.146 13.982 30.393 27.684Z"/>
        <path d="M306.534 689.718c5.422 14.053 19.867 31.343 35.804 31.701 14.453.324 27.717-12.925 33.728-27.267"/>
        <path d="M375.65 778.158c1.486-418.711.17-607.1.144-614.217-.025-7.117 1.145-10.636 3.22-13.723 2.075-3.087 5.589-5.619 9.648-7.986 4.06-2.367 14.45-4.986 19.815-5.278 5.365-.293 30.545-.334 79.39.199"/>
        <path d="M719.081 793.285s.077 7.622-1.22 11.118c-1.08 2.912-2.692 5.951-5.269 7.684-3.328 2.238-11.755 2.56-11.755 2.56"/>
        <path d="m701.226 814.647-303.985-.024"/>
        <path d="M672.137 814.207c.01 7.773.268 13.153.392 19.368.191 9.571 0 16.256-.364 23.075-.315 5.88-2.322 11.326-8.823 15.29-29.85 18.197-72.881 36.454-104.931 54.345-4.297 2.399-17.18 9.174-26.453 11.922-8.408 2.491-17.232 3.946-26 4-22.61.138-40.595.149-68.293-.732-19.792-.63-49.387.946-60.839-4.991-5.931-3.074-7.788-12.349-8.211-18.282-1.064-14.916-.2-30.997-.192-46.495.007-12.322.398-27.473.192-36.964"/>
        <path d="M488.826 137.854s-.136 127.18-.488 158.68c-.056 4.972-.705 8.158-1.988 12.006-1.039 3.119-3.567 5.614-4.549 8.752-1.146 3.659-1.473 7.905-1.463 11.411.141 48.893-.833 90.099-1 135.151-.186 50.333-.379 100.88 0 151 .029 3.791-.165 8.002.828 11.828.956 3.681 2.711 7.712 4.841 10.331 3.975 4.888 3.308 11.476 3.325 17.503.143 52.017-.268 158.071-.268 158.071"/>
        <path d="M485.225 137.153c27.978-.191 319.81-.38 334.071-.272 16.171.123 42.017-.06 42.017-.06"/>
        <path d="M945.199 817.627s-.3-24.966-.539-38.239c-.239-13.272-18.114-29.713-32.88-29.796-14.766-.083-51.855.097-51.855.097"/>
        <path d="M1062.32 1017.63s-35.15-120.687-62.668-175.369c-3.41-6.775-7.113-14.355-13.645-18.21-10.44-6.16-23.997-5.4-36.018-5.017-20.07.641-46.705.609-57.77-2.017-15.201-3.609-15.87-15.424-16.811-25.614-1.339-14.502-1.394-21.382-1.418-28.239-.187-54.646 2.967-267.018 1.671-601.676-.042-10.733-4.435-24.632-14.549-24.66"/>
        <path d="M464.63367 744.51044h21.319"/>
        <path d="M464.69391 700.33441h20.5"/>
        <path d="M464.95578 620.30634h12.61081"/>
        <path d="M464.31989 576.76282h13.5"/>
        <path d="M464.97253 499.49631h13.5"/>
        <path d="M394.6084 576.52124h-14.93399"/>
        <path d="M394.6084 619.67047h-15.03699"/>
        <path d="M395.06491 453.71921h-16.5"/>
        <path d="M464.97253 374.17291h13.5"/>
        <path d="M465.47253 332.92715h13"/>
        <path d="M396.33667 331.6554h-17.742"/>
        <path d="M395.73227 374.7493h-17.74201"/>
        <path d="M466.1084 254.01262h20.819"/>
        <path d="M376.78101 163.22321h112.60778"/>
        <path d="M600.83295 138.00772v26.98224"/>
        <path d="M578.71089 812.80743v-35.013"/>
        <path d="M567.99841 814.57874v17.79858"/>
        <path d="M446.55634 814.85254v15.88165"/>
        <path d="M478.47253 454.23669h-13.5"/>
        <path d="M860.15521 199.15024h17.12311"/>
        <path d="M491.53763 267.04932h20.8193"/>
        <path d="M481.73425 425.14346h20.819"/>
        <path d="M482.05637 526.3291h20.819"/>
        <path d="M490.82047 700.42285h20.81924"/>
        <path d="M840.91241 126.40981v7.57083"/>
        <path d="m903.196 92.7231.206 86.0479" style="stroke-width:5"/>
        <path d="m1065.8 92.4201-190.541.2157" style="stroke-width:5"/>
        <path d="M901.536 131.344c-11.353.291-27.567-2.582-33.978 8.661" style="stroke-width:5"/>
      </g>
      <g id="Highways" class="cls-7">
        <path d="M426.384 40.8165c-27.663 17.1498-48.531 30.8592-66.226 55.7054-22.694 31.8651-45.565 90.4631-46.967 133.1761"/>
        <path d="M281.266 1041.35c.333-344.996 8.739-694.594 9.072-1039.59382"/>
        <path d="M182.022 40.8483c29.665 18.8993 37.29 23.9803 58.158 49.8968 23.219 28.8359 46.123 86.4189 48.637 139.0589"/>
        <path d="M304.534 1041.43c0-345.002 9.527-694.782 9.527-1039.78246"/>
      </g>
      <g id="Ramps" class="cls-9">
        <path d="M633.623 582.683v-29" class="cls-10" style="stroke-width:16;stroke:url(#linearGradient119)"/>
        <path d="m818.539 766.477 52.243.059" style="stroke:url(#linearGradient115)"/>
        <path d="m852.526 299.481.433-38.834" style="stroke:url(#linearGradient117)"/>
        <path d="m818.211 182.563 54.281.06" style="stroke:url(#linearGradient118)"/>
        <path d="m852.791 650.478.287 41.319" style="stroke:url(#linearGradient116)"/>
      </g>
    </g>
    <g id="Train_Tracks" class="cls-12" data-name="Train Tracks">
      <path d="M131.459 1040.69s1.145-700.915-2.343-714.4c-3.351-12.955-7.973-25.772-14.607-37.393-8.087-14.166-19.9833-25.788-30.1967-38.507-7.4771-9.311-16.3111-17.616-22.7534-27.671-4.7636-7.435-9.057-15.367-11.5571-23.835-4.0716-13.792-4.3971-28.464-5.2785-42.818-3.1828-51.831 0-155.785264 0-155.785264"/>
      <path d="M138.259 1040.69s1.145-700.915-2.343-714.4c-3.351-12.955-7.973-25.772-14.607-37.393-8.087-14.166-19.983-25.788-30.1967-38.507-7.4771-9.311-16.3111-17.616-22.7534-27.671-4.7636-7.435-9.057-15.367-11.5571-23.835-4.0716-13.792-4.3971-28.464-5.2785-42.818-3.1828-51.831 0-155.785264 0-155.785264"/>
    </g>
    <g id="Buildings" class="cls-13">
      <path d="M898.43 213.132v7.635h-3.444v-7.635Z"/>
      <path d="M898.637 203.64v8.461h-3.651v-8.461Z"/>
      <path d="M932.652 188.243v5.873h-6.079v-5.873Z"/>
      <path d="M872.736 96.6475v3.7325h-13.064v20.066h32.887v-7.754h2.584V96.6475h-22.407Z"/>
      <path d="M933.478 176.798v5.739h-7.032v-5.739Z"/>
      <path d="M925.523 167.068v5.535h-6.775v-5.535Z"/>
      <path d="M914.316 166.928v5.741h-6.363v-5.741Z"/>
      <path d="M929.926 82.763v5.6452h-6.139V82.763Z"/>
      <path d="M918.893 82.8625v5.5468h-5.398v-5.5468Z"/>
    </g>
  </g>
  <g id="First_Floor" data-name="First Floor">
    <g id="Structure-1" class="cls-14" data-name="Structure">
      <path d="M658.201 155.434v9.25H511.793V318.57h-9.014v309.565h9.014v149.197h145.504V793.4h161.17V650.001h47.74l5.392-22.874V320.188l-5.392-20.872h-47.359V155.434Z"/>
    </g>
    <g id="Floor-1" class="cls-15">
      <path d="M520.268 168.455v29.633h20.91v31.617h-20.754v87.451h54.258v5.756h-64.844v301.154H573.9v5.131h-32.834v31.071h-21.111v112.595h272.379l-.025-143.666H617.084v-5.131h34.326v-2.088h74.028v-53.652h4.529v56.715h61.471v-49.184h41.125v-76.736h-20.969v-52.08h21.047v-77.143h-41.203v-48.054h-61.471v56.523h-4.529v-53.652H651.41v-1.803h-34.482v-5.756h174.275l-.086-148.857z"/>
    </g>
    <g id="Enclosed_Spaces-1" class="cls-16" data-name="Enclosed Spaces">
      <path d="M509.887 323.07V448.9h11.373V323.07h-11.373Z"/>
      <path d="M533.635 482.238v48.244h52.244v15.436h28l12-12v-51.68z"/>
      <path d="M510.043 497.52v126.55h10.904V497.52h-10.904Z"/>
      <path d="M533.791 545.486v59.184h37.373v-59.184h-37.373Z"/>
      <path d="M693.375 499.83v62.121h-39.148l-11.938 11.182-15.456-.267-10.606-10.915h-28v48.09l62.712.156v4.781h49.063v-35.216h18.373V499.83Z"/>
      <path d="M643.227 487.389v48.562l12 12h22.058v-60.562z"/>
      <path d="M586.191 401.148v15.123H533.32v46.776h92.871v-49.899l-12-12z"/>
      <path d="M533.635 342.088v58.088h37.06v-58.088h-37.06Z"/>
      <path d="M651.254 330.523v3.375h-63.027v52h26.591l10.853-12h16.295l10.852 12.001h40.557v59.496h25v-79.34h-19v-35.531z"/>
      <path d="m653.818 399.898-12 12v46.039h35.735v-58.039z"/>
      <path d="M709.063 588.016v33.81h16.375v-33.81h-16.375Z"/>
      <path d="M519.955 660.199v47.899h20.252v-47.899h-20.252Z"/>
      <path d="M707.377 324.717v34.027h18.061v-34.027h-18.061Z"/>
      <path d="M524.648 716.125v30.299h19.313v-30.299h-19.313Z"/>
      <path d="M520.58 268.5v37.449h37.279V268.5H520.58Z"/>
      <path d="M520.268 168.459v24.074h32.925v-24.074h-32.925Z"/>
      <path d="M615.262 169.711v16h49.129v-16h-49.129Z"/>
      <path d="M724.348 651.418v51.619h29.627v-51.619h-29.627Z"/>
      <path d="m791.803 321.742.087 47.769 41.329-.033.183 78.219-21.201-.011v50.831l20.955.022.055 77.963-41.321-.098-.087 49.041h60.271V501.613h17.975v-57.66h-17.975V321.742Z"/>
    </g>
    <g id="Ramps-1" class="cls-17" data-name="Ramps">
      <path d="M633.821 555.306v11.925"/>
    </g>
  </g>
  <g id="Second_Floor" data-name="Second Floor">
    <g id="Structure-2" class="cls-14 shadow" data-name="Structure">
      <path d="M511.8418 164.5509v153.95887h-9.01563v309.5664h9.01563v149.19531l283.73406.0105-.50977-148.39946h59.50301V504.72298h17.07738v-64.25955h-16.82249V317.09789h-60.65147V164.5509Z" style="opacity:1"/>
    </g>
    <g id="Floor-2" class="cls-15" data-name="Floor">
      <path d="M505.31 322.558v301.164h146.037v-1.611h63.557v-6.187h-22.357V331.471h21.713v-7.625h-63.006v-1.288z"/>
    </g>
    <g id="Enclosed_Spaces-2" class="cls-16" data-name="Enclosed Spaces">
      <path d="M640.916 489.926v43.908l11.582 11.455h24.606v17.181h-24.606l-10.617 10.5h-18.338l-8.686-8.591h-27.023v35.491h63.536v16.054h41.178v-94.498h-13.994v-31.5z"/>
      <path d="M530.893 546.086v53.467h36.83v-53.467h-36.83Z"/>
      <path d="m542.474 489.926-11.582 11.453v30.05h57.907v12.905h26.058l9.165-9.361v-45.047z"/>
      <path d="M566.598 614.645v8.914h72.062v-8.914h-72.062Z"/>
      <path d="M505.47 531.441V623.4l21.561-.032v-7.444l-7.751-6.072v-78.411z"/>
      <path d="M651.37 331.471v14.937h-64.342v36.299h27.829l8.686-9.236h18.338l10.617 10.5h25.09v17.181h-25.09l-11.582 11.455v43.908h37.638v-31.5h13.833v-93.544z"/>
      <path d="M531.537 346.57v53.95h36.508v-53.95h-36.508Z"/>
      <path d="M588.799 402.107v11.455h-57.907v31.498l11.582 11.455h83.965v-42.953l-11.582-11.455z"/>
      <path d="M565.471 322.557v9.074h73.189v-9.074h-73.189Z"/>
      <path d="M505.31 322.881v92.279h13.618v-78.284l9.07-6.361v-7.634z"/>
    </g>
    <g id="Openings-2" class="cls-18">
      <path d="m629.334 542.426-6.756 6.681v9.545l6.756 6.682h9.652l6.756-6.682v-9.545l-6.756-6.681z"/>
      <path d="m628.369 381.107-6.756 6.682v9.545l6.756 6.681h9.65l6.756-6.681v-9.545l-6.756-6.682z"/>
      <path d="m629.334 464.152-2.895 2.863H590.73v13.364h35.709l2.895 2.865h8.685l2.897-2.865h33.779v-13.364h-33.779l-2.897-2.863z"/>
      <path d="M532.822 467.02v13.363h40.535V467.02h-40.535Z"/>
    </g>
  </g>
</svg>