<svg xmlns="http://www.w3.org/2000/svg" xmlns:xlink="http://www.w3.org/1999/xlink" xml:space="preserve" id="svg235" version="1.1" viewBox="0 0 977.09998 977.09998">
  <style id="style_common">
    .trees { fill:#144043 }
    .cement { fill:#c6c2c2 }
    .land { fill:#1f5054 }
    .rock { fill:#dcd5b6 }
    .water { fill:#4a6b96 }
    .wood { fill:#593700 }
    .tarmac { fill:#768089 }
    .gravel { fill:#946d3e }
    .building { fill:#1a2632 }
    .floor { fill:#70777f }
    .locked { fill:#37414c }
    .map_border { fill:none;stroke:#000;stroke-width:2 }
    .fence { fill:none;stroke:#c4e3c3;stroke-width:1 }
    .road_tarmac { fill:none;stroke:#888 }
    .road_gravel { fill:none;stroke:#946d3e }
    .road_small { stroke-width:5 }
    .road_medium { stroke-width:8 }
    .road_large { stroke-width:12 }
    .railroad { fill:none;stroke:#914833;stroke-dasharray:6;stroke-width:3 }
    .powerline { fill:none;stroke:#ffce00;stroke-width:2;stroke-miterlimit:10;stroke-dasharray:6,6 }
    .danger { fill:red;fill-opacity:.4;stroke:red;stroke-dasharray:4,2;stroke-width:2 }
    .task { fill:#000 }
    .stairs { fill:#FFD700 }
    .shadow { filter:drop-shadow(0 0 2px #000) }
  </style>
  <style id="style_interchange">
    .structure{ fill:#4b4b4b }
  </style>
  <defs id="defs1">
    <linearGradient id="rampDown_l2r">
      <stop id="stop200" offset="0" style="stop-color:#777777;stop-opacity:0;" />
      <stop id="stop199" offset="1" style="stop-color:#000000;stop-opacity:0.5;" />
    </linearGradient>
    <linearGradient id="rampDown_r2l">
      <stop id="stop84" offset="0" style="stop-color:#000000;stop-opacity:0.5;" />
      <stop id="stop85" offset="1" style="stop-color:#777777;stop-opacity:0;" />
    </linearGradient>
    <linearGradient id="rampUp_l2r">
      <stop id="stop168" offset="0" style="stop-color:#ffffff;stop-opacity:0;" />
      <stop id="stop169" offset="1" style="stop-color:#ffffff;stop-opacity:0.5;" />
    </linearGradient>
    <linearGradient id="rampUp_r2l">
      <stop id="stop176" offset="0" style="stop-color:#ffffff;stop-opacity:0.5;" />
      <stop id="stop175" offset="1" style="stop-color:#ffffff;stop-opacity:0;" />
    </linearGradient>
    <linearGradient xlink:href="#rampDown_l2r" id="linearGradient199" x1="559.72021" x2="580.3277" y1="616.02795" y2="616.02795" gradientUnits="userSpaceOnUse" />
    <linearGradient xlink:href="#rampDown_l2r" id="linearGradient204" x1="615.41016" x2="636.92401" y1="475.4502" y2="475.4502" gradientUnits="userSpaceOnUse" />
    <linearGradient xlink:href="#rampDown_l2r" id="linearGradient208" x1="559.91833" x2="580.39166" y1="335.18094" y2="335.18094" gradientUnits="userSpaceOnUse" />
    <linearGradient xlink:href="#rampDown_l2r" id="linearGradient244" x1="654.29987" x2="666.34497" y1="622.46558" y2="622.46558" gradientUnits="userSpaceOnUse" />
    <linearGradient xlink:href="#rampDown_r2l" id="linearGradient178" x1="534.58289" x2="551.11755" y1="475.25916" y2="475.25916" gradientUnits="userSpaceOnUse" />
    <linearGradient xlink:href="#rampDown_r2l" id="linearGradient183" x1="562.59283" x2="578.76257" y1="648.22321" y2="648.22321" gradientUnits="userSpaceOnUse" />
    <linearGradient xlink:href="#rampDown_r2l" id="linearGradient185" x1="689.42633" x2="716.38831" y1="638.20557" y2="638.20557" gradientUnits="userSpaceOnUse" />
    <linearGradient xlink:href="#rampDown_r2l" id="linearGradient190" x1="653.56561" x2="665.01868" y1="326.37051" y2="326.37051" gradientUnits="userSpaceOnUse" />
    <linearGradient xlink:href="#rampDown_r2l" id="linearGradient192" x1="563.65216" x2="577.10272" y1="216.61259" y2="216.61259" gradientUnits="userSpaceOnUse" />
    <linearGradient xlink:href="#rampDown_r2l" id="linearGradient194" x1="547.94702" x2="578.65472" y1="313.95453" y2="313.95453" gradientUnits="userSpaceOnUse" />
    <linearGradient xlink:href="#rampDown_r2l" id="linearGradient202" x1="675.54742" x2="697.62073" y1="475.55551" y2="475.55551" gradientUnits="userSpaceOnUse" />
    <linearGradient xlink:href="#rampDown_r2l" id="linearGradient206" x1="575.14801" x2="596.96887" y1="475.6763" y2="475.6763" gradientUnits="userSpaceOnUse" />
    <linearGradient xlink:href="#rampDown_r2l" id="linearGradient240" x1="887.88232" x2="887.88232" y1="481.81339" y2="469.19424" gradientUnits="userSpaceOnUse" />
    <linearGradient xlink:href="#rampDown_r2l" id="linearGradient84" x1="655.97345" x2="655.97345" y1="565.0498" y2="554.98608" gradientUnits="userSpaceOnUse" />
    <linearGradient xlink:href="#rampUp_l2r" id="linearGradient169" x1="674.61407" x2="687.49237" y1="475.59064" y2="475.59064" gradientUnits="userSpaceOnUse" />
    <linearGradient xlink:href="#rampUp_l2r" id="linearGradient175" x1="574.55939" x2="586.74683" y1="475.59064" y2="475.59064" gradientUnits="userSpaceOnUse" />
    <linearGradient xlink:href="#rampUp_l2r" id="linearGradient229" x1="566.33783" x2="574.46753" y1="216.59996" y2="216.59996" gradientUnits="userSpaceOnUse" />
    <linearGradient xlink:href="#rampUp_l2r" id="linearGradient231" x1="547.76813" x2="566.72144" y1="314.01965" y2="314.01965" gradientUnits="userSpaceOnUse" />
    <linearGradient xlink:href="#rampUp_l2r" id="linearGradient233" x1="534.90833" x2="545.61707" y1="475.27277" y2="475.27277" gradientUnits="userSpaceOnUse" />
    <linearGradient xlink:href="#rampUp_l2r" id="linearGradient235" x1="563.2301" x2="574.45557" y1="648.18005" y2="648.18005" gradientUnits="userSpaceOnUse" />
    <linearGradient xlink:href="#rampUp_l2r" id="linearGradient237" x1="652.07996" x2="652.07996" y1="570.19727" y2="552.70618" gradientUnits="userSpaceOnUse" />
    <linearGradient xlink:href="#rampUp_l2r" id="linearGradient239" x1="688.47986" x2="705.50806" y1="638.04413" y2="638.04413" gradientUnits="userSpaceOnUse" />
    <linearGradient xlink:href="#rampUp_r2l" id="linearGradient173" x1="624.84644" x2="637.6651" y1="475.40985" y2="475.40985" gradientUnits="userSpaceOnUse" />
    <linearGradient xlink:href="#rampUp_r2l" id="linearGradient180" x1="569.98462" x2="582.73511" y1="615.86151" y2="615.86151" gradientUnits="userSpaceOnUse" />
    <linearGradient xlink:href="#rampUp_r2l" id="linearGradient187" x1="569.39502" x2="583.13763" y1="335.23236" y2="335.23236" gradientUnits="userSpaceOnUse" />
    <linearGradient xlink:href="#rampUp_r2l" id="linearGradient219" x1="887.76825" x2="887.76825" y1="481.87787" y2="469.13779" gradientUnits="userSpaceOnUse" />
    <linearGradient xlink:href="#rampUp_r2l" id="linearGradient221" x1="882.4549" x2="882.4549" y1="298.95959" y2="261.57394" gradientUnits="userSpaceOnUse" />
    <linearGradient xlink:href="#rampUp_r2l" id="linearGradient223" x1="848.27881" x2="886.75024" y1="182.32352" y2="182.32352" gradientUnits="userSpaceOnUse" />
    <linearGradient xlink:href="#rampUp_r2l" id="linearGradient225" x1="882.44916" x2="882.44916" y1="650.49103" y2="691.24506" gradientUnits="userSpaceOnUse" />
    <linearGradient xlink:href="#rampUp_r2l" id="linearGradient227" x1="848.47076" x2="886.86646" y1="767.81689" y2="767.81689" gradientUnits="userSpaceOnUse" />
    <linearGradient xlink:href="#rampUp_r2l" id="linearGradient242" x1="660.83087" x2="668.61353" y1="326.46893" y2="326.46893" gradientUnits="userSpaceOnUse" />
    <linearGradient xlink:href="#rampUp_r2l" id="linearGradient246" x1="660.5708" x2="669.35779" y1="622.61993" y2="622.61993" gradientUnits="userSpaceOnUse" />
  </defs>
  <g id="Ground_Level" data-name="Ground Level">
    <g id="Base_Terrain" class="land" data-name="Base Terrain">
      <path d="m816.069 530.62 2.145 4.638 40.176.043.231 61.355 92.636 41.079.08 27.516 23.521 13.856.018 90.846-37.972 9.438-36.744 7.449-96.386 5.404-71.785 4.546-68.048 10.614-45.401 12.824-38.391 17.498-52.854 29.013-49.816 30.879-17.22 9.853-13.949 6.225-25.19 2.73-161.375.098.085-23.886 6.578-7.562 6.071-536.368-89.927 1.258-46.756-1.014-.439-22.528-5.931-21.96-7.45-11.209-18.054-13.67-33.258-24.122-31.7437-32.266-23.791-38.609-11.67248-43.721L1.79597 28.4899 33.9015 14.8084l-.0751-12.73837 58.9001-.10075V14.7731l10.6355 8.546 139.573.9248 10.325-9.6421.01-12.42659 80.452-.15153V14.3061l10.629 9.6018 294.436-2.6893-.005 22.0342-3.329 21.8968.679 27.5779 37.898.0836 15.306 15.3729 55.157.034-.096-43.9038 4.918-2.6109 11.036-12.2253 32.516-.0803 49.232 2.2141 17.588 17.4057.201 145.2565-32.401.133-11.547 11.464-.123 64.705 2.782 6.141.185 59.389-3.449 2.054.56 73.058 9.544 6.268.131 51.896-4.503.032-4.977 2.732z" />
    </g>
    <g id="Water" class="water">
      <path d="M190.207 334.203c3.412-.247 6.891-1.532 9.604-3.617 1.417-1.09 3.381-2.597 3.118-4.365-.433-2.904-5.161-3.063-6.985-5.363-1.191-1.502-2.005-3.357-2.37-5.239-.19-.98.355-2.022.125-2.993-.395-1.666-1.883-2.891-2.494-4.49-1.142-2.987-.679-6.501-2.121-9.355-.917-1.815-2.786-2.977-3.991-4.615-.841-1.143-.891-3.193-2.245-3.617-1.599-.501-3.289.971-4.615 1.996-2.297 1.774-4.334 4.146-5.363 6.86-.724 1.908-.746 4.104-.374 6.111.657 3.549 3.344 6.431 4.49 9.854.608 1.817.634 3.796 1.247 5.612 1.142 3.384 2.245 6.951 4.49 9.729.915 1.131 2.169 2.013 3.492 2.619 1.239.567 2.633.972 3.992.873z" />
      <path d="M166.634 287.306c2.016-.036 3.853 1.675 5.862 1.497 1.501-.133 2.752-1.23 4.116-1.871 1.464-.688 2.802-1.702 4.365-2.12 2.255-.604 5.197 1.002 6.985-.499 1.312-1.102 1.799-3.366 1.247-4.989-.41-1.205-1.844-1.824-2.994-2.37-2.269-1.077-4.849-1.515-7.358-1.621-4.4-.186-9.219-.343-13.097 1.746-1.842.992-3.673 2.694-4.115 4.739-.34 1.569.55 3.236 1.371 4.615.362.606.814 1.323 1.497 1.497.714.182 1.384-.61 2.121-.624z" />
      <path d="M143.493 251.855c-2.396-1.582-5.677-3.53-8.29-2.341-2.302 1.048-3.809 4.395-3.243 6.86.43 1.874 3.43 2.014 4.49 3.617 1.096 1.658.769 3.942 1.621 5.738.435.917.918 1.908 1.747 2.494 2.148 1.521 5.434.635 7.608 2.121 1.888 1.29 2.195 4.246 4.116 5.488 1.748 1.129 4.355 2.507 6.094 1.363 1.518-.998.456-3.626 1.015-5.355 1.116-3.451 5.359-6.303 4.615-9.853-.284-1.356-1.803-2.329-3.127-2.738-3.121-.966-6.705 2.399-9.732 1.168-3.399-1.381-3.852-6.542-6.914-8.562z" />
      <path d="M195.071 238.663c-1.477.189-2.94 1.294-3.617 2.62-.416.814-.396 1.919 0 2.744.461.959 1.728 1.256 2.494 1.995 1.147 1.105 1.817 2.701 3.119 3.617.947.667 2.085 1.277 3.242 1.247.819-.02 1.728-.362 2.246-.997.617-.759.825-1.911.623-2.869-.349-1.66-2.469-2.503-2.993-4.116-.232-.712.422-1.627 0-2.245-1.032-1.511-3.299-2.228-5.114-1.996z" />
      <path d="M148.915 235.579c-1.646-.143-3.751.596-4.507 2.065-.904 1.758.551 3.931 1.127 5.822.515 1.69.613 3.876 2.066 4.882 1.905 1.32 5.242 1.852 6.948.282 2.189-2.016 1.705-6.258.375-8.92-1.086-2.175-3.587-3.922-6.009-4.131z" />
      <path d="M374.511 73.1909c.011 2.0379 1.084 4.2978 2.762 5.455 1.579 1.0895 4.105-.4229 5.724.6061.842.5347.766 1.9419 1.549 2.5592 2.091 1.6479 4.955 2.2289 7.61 2.4244.976.0719 1.931-.6314 2.896-.4714.753.1248 1.285 1.2835 2.02 1.0775 1.231-.3449 2.013-2.0231 1.953-3.2999-.08-1.7179-2.836-2.4667-3.03-4.1755-.11-.9694.599-1.8851 1.145-2.6938.746-1.1053 1.596-2.3183 2.828-2.8286 1.431-.5927 3.171-.4704 4.647 0 .813.2592 1.286 1.1889 2.088 1.4817 1.016.3709 2.151.2651 3.233.2693 3.579.014 7.569.9121 10.708-.8081.885-.4855 1.913-1.4187 1.818-2.4245-.291-3.0849-4.667-4.0835-6.869-6.2632-.633-.6256-1.043-1.5177-1.819-1.953-.879-.4934-2.357.2-2.963-.6061-.839-1.1164-.255-2.9107.337-4.1755.72-1.5385 1.948-3.385 3.636-3.5693.843-.0919 1.371 1.6653 2.156 1.3469 1.478-.5996 1.463-3.0837 1.144-4.6469-.291-1.4298-1.178-3.3243-2.626-3.502-1.235-.1515-2.098 1.4017-2.896 2.3572-.805.9641-1.025 2.3266-1.818 3.2999-.634.7775-1.305 1.7647-2.29 1.953-1.025.1959-1.964-.7085-2.963-1.0101-1.601-.4833-3.279-1.8535-4.849-1.2796-1.468.5367-1.722 2.6148-2.694 3.8387-1.088 1.3691-2.136 2.8144-3.502 3.9061-1.225.9786-2.669 1.6689-4.108 2.2897-1.643.7086-3.33 1.6722-5.118 1.6163-1.371-.0428-2.948-.4391-3.839-1.4816-.761-.8901.223-2.7694-.741-3.4346-1.233-.8511-3.277-.2653-4.445.6734-1.218.9794-2.249 2.92-1.684 4.3775.4 1.0296 2.471.4933 2.964 1.4817.387.7762-.199 1.7358-.472 2.5591-.591 1.782-2.501 3.1736-2.492 5.051z" />
      <path d="M438.363 52.7748c-.64-.5699-.623-1.7889-.248-2.5592 1.101-2.2574 3.997-3.1848 6.357-4.0452 1.174-.4279 2.466-.448 3.715-.4953 2.424-.0919 4.84.4711 7.265.4128 2.102-.0506 4.187-.9234 6.274-.6605 1.019.1285 2.356.1949 2.889 1.0732.345.569.045 1.3834-.248 1.9813-.82 1.6781-2.886 2.4357-3.962 3.9626-.667.9458-1.104 2.045-1.486 3.1371-.318.9072-.344 1.8995-.661 2.8068-.361 1.0343-1.316 1.8799-1.403 2.972-.124 1.5713.338 3.3083 1.321 4.5405.53.6644 1.72.5572 2.229 1.2383.455.6099-.082 1.7332.495 2.229.314.2694.826.1071 1.239.0825.447-.0266.89-.3704 1.32-.2476 1.255.3577 2.152 1.565 2.89 2.6417.6.8769 1.485 1.9614 1.156 2.9719-.254.7766-1.64.6229-2.064 1.3209-.474.7792-.15 1.8177-.248 2.7243-.143 1.3235.102 2.7728-.495 3.9626-.428.8524-1.136 1.7637-2.064 1.9813-1.966.4608-3.768-1.9976-5.779-1.8162-.588.0531-.98.7691-1.568.8255-1.517.1455-2.889-1.653-4.376-1.3208-2.529.5651-3.21 5.5439-5.779 5.2009-1.46-.195-1.092-3.0245-2.394-3.7149-1.07-.5677-2.483.4643-3.632.0825-.763-.2533-1.164-1.1596-1.899-1.486-1.174-.5217-3.271.5118-3.797-.6604-.942-2.097 1.676-4.6534 3.632-5.8613.776-.4792 1.956.2433 2.724-.2477 1.714-1.0954 2.668-3.2862 3.055-5.2835.111-.5731-.34-1.1571-.248-1.7336.637-3.9986 4.171-7.0288 5.366-10.8972.287-.9295.75-1.9767.413-2.8894-.317-.8597-1.23-1.4366-2.064-1.8162-1.137-.5175-2.468-.4248-3.715-.4953-1.401-.0792-3.162 1.0159-4.21.0826z" />
    </g>
    <g id="Structure" class="structure">
      <path d="m753.2 139.421-143.313.015v10.694H478.383v136.242h-7.971v272.834h7.921v117.698h-1.866v18.947h18.704v-2.246h114.874v13.026h143.412l.29-129.237h40.604V266.772h-41.443z" />
    </g>
    <g id="Roads" class="road_tarmac">
      <g id="Normal_Roads" class="road_medium" data-name="Normal Roads">
        <path d="M297.988 792.235c14.514-25.829 42.63-30.618 61.465-51.118" />
        <path d="M379.821 716.477c.227 12.606-14.117 26.222-26.725 26.062-12.291-.158-24.699-11.961-24.477-26.062.214-13.064 10.305-24.768 24.074-24.92 14.6-.054 26.908 12.735 27.128 24.92z" />
        <path d="M301.997 612.56c.195 11.491 12.638 26.263 26.811 26.582 12.852.288 30.38-12.701 31.501-22.739" />
        <path d="M359.939 691.106c1.321-372.342.972-539.185.949-545.514-.023-6.329.745-9.868 2.59-12.613 1.845-2.745 4.422-5.271 8.032-7.376 3.61-2.105 14.905-3.363 19.675-3.623 4.771-.26 13.585-1.076 68.095-1.173" />
        <path d="M665.64 704.86s.169 6.878-.985 9.987c-.96 2.69-1.992 5.192-4.786 7.135-2.928 2.036-10.856 2.577-10.856 2.577" />
        <path d="m649.46 724.66-270.824.884" />
        <path d="M622.084 723.162c.009 6.913.238 11.697.349 17.224.169 8.511.201 13.852.178 20.922-.28 5.229.651 10.977-5.13 14.502-28.254 16.081-62.396 30.406-91.5 45.511-8.95 4.446-22.016 12.08-30.262 14.524-7.477 2.215-14.419 1.799-22.216 1.847-20.106.123-38.313.233-60.127.154-18.706.042-42.61 1.847-48.871-3.131-6.481-5.55-9.34-12.792-10.319-22.695-.946-13.264-.479-23.843-.472-37.625.006-10.957.957-24.531.774-32.971" />
        <path d="M461.83 121.814s-.121 113.096-.434 141.108c-.05 4.421.283 7.601-1.197 10.89-1.386 3.083-4.262 5.04-5.583 7.926-1.215 2.658-1.666 6.672-1.657 9.79.125 43.479-.741 80.121-.89 120.184-.165 44.759-.337 89.709 0 134.278.026 3.371-.114 9.167.672 12.593.914 3.986 3.991 7.626 5.952 9.899 3.469 4.023 2.682 7.418 2.698 12.778.127 46.257-.239 140.566-.239 140.566" />
        <path d="M458.678 120.766c109.513.22 210.884-.521 320.668-.476" />
        <path d="M865.294 726.364s3.976-21.391.359-35.737c-3.619-14.345-14.901-21.096-30.913-23.378-12.999-1.853-44.156-1.46-44.156-1.46" />
        <path d="M804.108 666.926c-.166-48.595-.157-224.139-1.309-521.737-.584-9.27-6.133-24.868-23.61-24.893" />
        <path d="M928.608 788.664s-1.77-19.587-11.561-40.655c-3.032-6.024-8.537-12.665-14.343-16.093-9.284-5.477-21.34-4.802-32.03-4.461-17.847.57-41.109.451-50.892-2.114-11.832-3.101-15.228-13.359-15.429-22.457-.29-13.025-.224-29.371-.245-35.468" />
        <path d="M440.026 660.637h18.958" />
        <path d="M440.353 622.038h18.23" />
        <path d="M438.953 551.842h11.213" />
        <path d="M438.588 513.321h12.005" />
        <path d="M438.565 442.399h12.005" />
        <path d="M375.792 513.006h-13.28" />
        <path d="M375.792 551.477h-13.371" />
        <path d="M377.003 403.803H362.33" />
        <path d="M438.766 333.368h12.005" />
        <path d="M439.211 294.275h11.56" />
        <path d="M377.731 293.95h-15.777" />
        <path d="M377.395 331.869h-15.777" />
        <path d="M440.38 225.005h18.514" />
        <path d="M360.529 147.078h100.137" />
        <path d="M557.872 121.847v23.994" />
        <path d="M540.512 721.918v-31.135" />
        <path d="M530.987 723.493v15.828" />
        <path d="M419.982 727.628v14.124" />
        <path d="M451.375 403.056H439.37" />
        <path d="M790.79 176.219h15.226" />
        <path d="M462.993 236.599h18.514" />
        <path d="M454.276 377.185h18.513" />
        <path d="M454.562 467.165h18.513" />
        <path d="M462.355 621.979h18.514" />
        <path d="M772.168 109.12v8.945" />
        <path d="m829.667 81.7786.183 78.5304" />
        <path d="m954.165 79.9854-153.021-.1501" />
        <path d="M828.682 118.11c-17.28-.202-32.747-.317-33.909 6.061" />
        <path d="M1192.12 743.125s-48.74 1.164-73 3.289c-20.26 1.774-40.6 3.689-60.5 7.891-28.84 6.091-56.25 17.803-84.838 24.991-23.894 6.006-47.958 11.585-72.341 15.125-21.113 3.067-42.506 3.761-63.789 5.261-41.18 2.903-82.634 2.433-123.636 7.234-22.55 2.641-44.649 6.501-66.595 12.321-18.23 4.834-35.366 11.77-52.545 19.554-34.948 15.836-67.128 36.028-99.653 56.382-28.817 18.034-85.692 57.081-85.692 57.081" />
        <path d="M1060.73 753.004s2.48-254.858 3.26-383.25c.08-12.184-1.07-24.57-4.4-36.288-2.97-10.406-6.74-21.141-13.67-29.446-8.04-9.617-20.55-14.355-30.74-21.642-9.97-7.129-21.986-12.12-29.758-21.599-11.026-13.457-16.753-30.775-21.751-47.439-5.202-17.344-6.625-35.656-8.252-53.69-1.814-20.111-1.672-40.364-1.672-60.5572.009-35.0183-.649-93.39361-.649-93.39361" />
      </g>
      <g id="Highways" class="road_large">
        <path d="M404.624 40.014c-26.897 14.6763-39.424 24.1391-57.743 45.0851-23.053 28.0489-41.54 62.7459-41.782 111.7849" />
        <path d="M274.968 947.923c.148-153.392 2.956-330.318 4.832-484.737.938-77.21 3.189-196.881 3.744-274.029.556-77.149-.585-111.7742-.511-188.472676" />
        <path d="M185.312 39.7551c28.247 16.232 32.586 20.0323 55.308 42.648 24.094 28.6579 44.204 64.6429 42.85 114.4689" />
        <path d="M297.208 947.95c0-153.401 3.694-367.166 5.571-521.626.938-77.23 1.727-154.46 2.281-231.557.553-77.097-.121-117.1442-.121-193.842794" />
      </g>
    </g>
    <g id="Rocks" class="rock">
      <path d="M124.848 199.267c.903.968 2.482 1.57 3.768 1.256 1.812-.443 2.111-3.472 3.894-4.02.981-.301 2.005.814 3.014.629 1.223-.225 3.019-.773 3.14-2.01.142-1.444-1.898-2.264-3.14-3.015-1.02-.616-2.651-.196-3.391-1.13-.287-.363.282-1.163-.125-1.382-1.008-.539-1.874 1.575-3.015 1.633-.543.028-.977-.75-1.507-.628-1.85.427-3.325 2.425-3.768 4.271-.353 1.471.099 3.289 1.13 4.396z" />
      <path d="M219.832 255.386c.233-.97 1.59-1.515 2.587-1.504.729.009 1.14 1.056 1.864 1.143.649.077 1.212-.585 1.865-.601.851-.022 1.904.022 2.466.661.4.456.366 1.211.24 1.804-.174.828-.653 1.65-1.323 2.166-.945.727-2.414 1.649-3.428 1.022-.693-.428.251-1.946-.421-2.406-.591-.404-1.446.7-2.105.421-.989-.418-1.995-1.663-1.745-2.706z" />
      <path d="M219.652 297.127c-.408-.444-.216-1.304.12-1.804.585-.871 2.376-.437 2.827-1.384.23-.483-.636-1.105-.361-1.564.599-.996 2.207-.857 3.368-.902.979-.037 2.444-.332 2.887.542.232.455-.554.883-.661 1.383-.168.784-.256 1.668.06 2.406.112.26.502.336.601.601.311.828.177 1.838-.18 2.647-.269.609-.768 1.188-1.383 1.443-.945.392-2.192.467-3.068-.06-.707-.426-1.04-1.356-1.203-2.165-.071-.356.36-.81.121-1.083-.688-.783-2.423.708-3.128-.06z" />
      <path d="M571.336 40.7443c.964-.6046 2.408-.4036 3.412.1313 1.244.6619 1.848 2.1605 2.494 3.4125.635 1.2294 1.387 2.556 1.313 3.9375-.063 1.1534-.454 2.5551-1.444 3.15-1.277.7676-3.124.3929-4.463-.2625-.835-.409-1.397-1.2804-1.837-2.1-.472-.8791-1.111-1.9438-.788-2.8875.284-.8277 1.739-.7779 2.1-1.575.236-.5196.288-1.3187-.131-1.7063-.385-.3567-1.287.4394-1.575 0-.418-.6394.272-1.6942.919-2.1z" />
      <path d="M582.886 41.9256c-.203.5018.524 1.0496.394 1.575-.268 1.0828-1.678 1.5252-2.232 2.4937-.5.8771-.892 1.8779-.918 2.8876-.05 1.8988.68 3.7733 1.443 5.5125.293.6667.569 1.4442 1.182 1.8375 1.041.6685 2.898-.4381 3.675.525.385.478-.451 1.3132-.131 1.8375.52.8536 1.761 1.0846 2.756 1.1813.623.0606 1.216-.3174 1.837-.3937 1.304-.1601 2.766.461 3.938-.1313.945-.4777 1.843-1.4421 1.969-2.4938.211-1.7689-1.886-3.1087-2.232-4.8563-.212-1.0738.502-2.2513.132-3.2812-.577-1.6034-1.892-3.0385-3.413-3.8063-.824-.4159-1.91.106-2.756-.2625-.483-.2104-1-.5553-1.181-1.05-.213-.581.667-1.3701.262-1.8375-.373-.4297-1.188.235-1.706 0-.424-.1922-.459-.9821-.919-1.0501-.817-.1206-1.791.5471-2.1 1.3126z" />
      <path d="M899.989 677.837c.766-1.033 1.863-2.249 3.15-2.231.437.006.613.761 1.05.787.958.057 1.56-1.669 2.493-1.443.708.171 1.188 1.109 1.182 1.837-.009.789-.658 1.53-1.313 1.969-.556.372-1.379.078-1.969.394-.654.35-.884 1.302-1.575 1.575-1.221.482-3.187.946-3.937-.132-.553-.795.342-1.978.919-2.756z" />
    </g>
    <g id="Pavement" class="cement">
      <g id="Outdoors">
        <path d="m697.319 116.767-23.967-23.931-38.201.0569-2.152 4.5459.06 19.3832" />
        <path d="M750.017 84.0801v26.1779h40.763V84.0801Z" />
        <path d="M753.27 266.653V156.656h37.83v109.997z" />
        <path d="M836.617 108.941V89.3741h16.313v19.5669z" />
        <path d="M833.325 147.552v-26.03h16.411v26.03z" />
        <path d="M827.27 171.602v-10.717h21.225v10.717z" />
        <path d="M826.876 191.159v-10.788h21.746v10.788z" />
        <path d="M500.329 739.078v55.964h35.574l52.986-24.776.175-31.188z" />
        <path d="M374.1 159.958v94.911h67.476v-94.911zm29.993 13.414c2.631.058 5.28.645 7.842 1.245 2.963.695 6.116 1.36 8.56 3.172 1.334.988 2.651 2.344 3.014 3.963.39 1.74-.457 3.572-1.11 5.231-.902 2.295-2.926 4.039-3.805 6.342-.806 2.111-1.153 4.402-1.268 6.659-.124 2.437.099 4.912.634 7.292.433 1.926 1.587 3.635 2.06 5.55.395 1.604 1.133 3.34.635 4.915-.495 1.57-2.031 2.634-3.329 3.646-1.94 1.511-4.553 1.988-6.501 3.487-1.718 1.323-3.034 3.106-4.439 4.757-1.734 2.037-2.781 4.728-4.914 6.342-2.136 1.616-4.822 3.527-7.451 3.012-2.676-.526-5.025-3.113-5.867-5.708-.861-2.652.081-5.803 1.428-8.245 1.753-3.177 5.944-4.361 8.085-7.291 1.813-2.483 3.13-5.403 3.805-8.402.64-2.836.678-5.861.159-8.721-.59-3.244-1.872-6.416-3.646-9.195-1.488-2.332-4.218-3.695-5.709-6.025-.921-1.438-2.131-3.064-1.902-4.756.223-1.644 1.688-2.962 3.011-3.963 2.31-1.746 5.219-2.785 8.087-3.171.869-.118 1.744-.156 2.621-.136z" />
        <path d="M372.54 365.491V262.363h68.645v103.128z" />
        <path d="M372.853 426.591v-53.676h68.817v53.676z" />
        <path d="M372.54 473.186v-37.991h68.98v37.991z" />
        <path d="M372.452 584.402V480.308h69.224v104.094z" />
        <path d="M372.261 591.856v75.385l43.839 44.058h25.488V591.856Z" />
        <path d="M398.917 739.835v15.024l-3.084 2.312v43.457l3.084 2.772v8.899h70.467V803.4l3.084-2.772v-43.457l-3.084-2.312v-15.024z" />
        <path d="M807.415 433.295v58.902h8.776l4.716-2.908 4.607-.012-.001-51.637-9.322-4.345z" />
        <path d="M825.573 631.894v-95.446h31.733v95.446z" />
        <path d="M753.564 689.211V577.41h37.322v111.801z" />
        <path d="m694.997 139.56-.013-15.547h-52.238l.121 15.547" />
      </g>
      <g id="Garage">
        <path d="m640.058 139.454.306 147.744h-59.291v11.087h23.662v9.911H569.85V265.52h22.778V150.123h-70.597v59.451l-6.407.131.064-10.44-3.871-.08.033-12.249-9.61-8.672h-23.792v124.959h16.532l.003 54.312h-24.575v37.724h71.244v55.185h-71.244v38.149h66.334l-.325 103.897h-35.889v-9.508h11.127v-12.404h-33.28v74.297h34.136v48.654l53.259.153v-23.595h47.224v-97.231h24.856v-10.437h-24.856v-.009h-6.569v-2.862h-25.838v-12.111h22.823v1.042h-21.715v10.016l61.362.171v-12.372h.361v12.374h.288v147.835H695.5v-29.25h25.546v-18.657h32.886v-38.553H696.85v-61.058h80.636v-.161h.434v-32.682h16.315v-59.124H777.92v-18.937h16.315v-50.673H777.92v-18.176h16.315v-58.991H777.92v-35.578h-51.274v242.439h-83.191v11.765h-.474v-6.464h-22.89v-20.234h-5.35v-21.634H567.68v-14.247l5.064-.152-.128-12.706-4.936-.044v-15.511h54.179v-49.984H567.68l.029-63.067 45.782-.133v-7.109h60.703V286.56h24.449v-60.784l55.401-.13v-38.238l-32.696.129v-18.281h-24.777l-.176-29.802zM515.851 272.319h33.902v13.217h-33.902z" />
        <path d="M464.694 408.354h7.064v6.801h14.375v15.2h-14.476v7.164h-6.66z" />
      </g>
    </g>
    <g id="Ramps" class="road_small road_tarmac" transform="translate(-.000027 .187718) scale(.889258)">
      <g id="Big_Ramps" class="road_medium">
        <path d="M887.774 182.359h-40.707" style="stroke:url(#linearGradient223)" />
        <path d="M882.511 261.056v38.665" style="stroke:url(#linearGradient221)" />
        <path d="M882.425 692.379V649.25" style="stroke:url(#linearGradient225)" />
        <path d="M887.865 767.758h-40.459" style="stroke:url(#linearGradient227)" />
      </g>
      <path d="M655.935 571.142v-19.26" style="stroke:url(#linearGradient237);stroke-width:12" />
      <path d="M546.722 313.967h21.117" style="stroke:url(#linearGradient231)" />
      <path d="M565.164 216.675h10.421" style="stroke:url(#linearGradient229)" />
      <path d="M533.862 475.348h12.745" style="stroke:url(#linearGradient233)" />
      <path d="M562.426 648.287h12.938" style="stroke:url(#linearGradient235)" />
      <path d="M687.449 638.098h18.962" style="stroke:url(#linearGradient239)" />
      <path d="M887.832 468.502v14.181" style="stroke:url(#linearGradient219)" />
      <path d="M669.87 326.436h-10.201" style="stroke:url(#linearGradient242)" />
      <path d="M670.155 622.504H659.9" style="stroke:url(#linearGradient246)" />
    </g>
    <g id="Train_Tracks" class="railroad" data-name="Train Tracks">
      <path d="m2.54158 776.146 70.97202-6.723 34.6764-13.434 29.825-25.398 21.634-32.581 7.143-38.784 3.372-309.83-3.879-21.637-10.66-23.604-20.353-23.011-17.624-15.649-29.1074-26.277-16.0255-20.699-9.2251-21.195-4.0928-25.753-.9258-169.51207" />
      <path d="m3.08401 781.34 71.88099-6.983 36.494-13.564 31.904-26.176 23.599-35.278 7.224-40.113 3.533-309.96-3.23-21.766-10.271-23.735-18.924-23.14-17.884-16.168-29.3667-26.148-16.675-19.79-10.0043-21.195-4.8719-25.753-.1465-169.51207" />
      <path d="M3.69387 922.704 1188.62 923.967" />
      <path d="M3.69387 929.756 1188.62 931.019" />
    </g>
    <g id="Buildings" class="building">
      <path d="M823.895 190.235v6.416h-2.97v-6.416z" />
      <path d="M823.8 182.724v6.965h-2.875v-6.965z" />
      <path d="M856.188 168.381v5.781h-4.661v-5.781z" />
      <path d="M799.816 85.9569v2.9803h-8.694v18.4368h27.889V91.1579h.561v-5.201z" />
      <path d="M856.178 157.924v5.755h-4.577v-5.755z" />
      <path d="M851.338 148.713v6.319h-6.024v-6.319z" />
      <path d="M840.348 148.681v6.222h-6.03v-6.222z" />
      <path d="M852.833 69.0342v6.3334h-6.264v-6.3334z" />
      <path d="M843.238 69.0618v6.3017h-6.457v-6.3017z" />
      <path d="m372.231 443.004 7.447-7.388 4.744 4.78-7.447 7.389z" />
      <path d="M418.735 251.076h13.931v-9.243h-13.931z" />
      <path d="M637.137 528.687h-10.462v3.731h10.462z" />
      <path d="m933.863 770.275 10.279-2.946-1.502-5.241-10.279 2.947z" />
      <path d="m934.754 772.4 10.073-2.878 1.542 5.394-10.074 2.878z" />
      <path d="M78.0108 71.1693V85.09h9.2345V71.1693Z" />
      <path d="M348.959 715.574v3.164l6.329 1.26v-5.659z" />
      <path d="m531.245 80.8757 1.638-5.0988-6.476-.7444-.93 2.9774z" />
      <path d="M331.51335 474.82411v3.164l6.329 1.26v-5.659z" />
    </g>
    <g id="Limit" class="map_border">
      <path d="m816.069 530.62 2.145 4.638 40.176.043.231 61.355 92.636 41.079.08 27.516 23.521 13.856.018 90.846-37.972 9.438-36.744 7.449-96.386 5.404-71.785 4.546-68.048 10.614-45.401 12.824-38.391 17.498-52.854 29.013-49.816 30.879-17.22 9.853-13.949 6.225-25.19 2.73-161.375.098.085-23.886 6.578-7.562 6.071-536.368-89.927 1.258-46.756-1.014-.439-22.528-5.931-21.96-7.45-11.209-18.054-13.67-33.258-24.122-31.7437-32.266-23.791-38.609-11.67248-43.721L1.79597 28.4899 33.9015 14.8084l-.0751-12.73837 58.9001-.10075V14.7731l10.6355 8.546 139.573.9248 10.325-9.6421.01-12.42659 80.452-.15153V14.3061l10.629 9.6018 294.436-2.6893-.005 22.0342-3.329 21.8968.679 27.5779 37.898.0836 15.306 15.3729 55.157.034-.096-43.9038 4.918-2.6109 11.036-12.2253 32.516-.0803 49.232 2.2141 17.588 17.4057.201 145.2565-32.401.133-11.547 11.464-.123 64.705 2.782 6.141.185 59.389-3.449 2.054.56 73.058 9.544 6.268.131 51.896-4.503.032-4.977 2.732z" />
    </g>
    <g id="Powerline_Towers" class="building">
      <path d="m206.713 166.32 6.246.056-.056 6.186-6.246-.057z" />
      <path d="M226.406 166.376h6.133v6.414h-6.133z" />
      <path d="M210.129 351.863h6.138v5.99h-6.138z" />
      <path d="M229.878 351.765h5.742v5.989h-5.742z" />
      <path d="M210.062 537.267h5.785v5.784h-5.785z" />
      <path d="M229.66 537.381h5.898v5.974h-5.898z" />
      <path d="M210.11 722.77h6.118v5.934h-6.118z" />
      <path d="M229.579 722.724h6.164v6.027h-6.164z" />
      <path d="M209.878 903.647h6.285v6.181h-6.285z" />
      <path d="M229.509 903.674h6.286v6.234h-6.286z" />
      <path d="m872.869 908.191 6.292-.524.52 6.269-6.294.516z" />
      <path d="m863.191 749.083 6.169-.411.412 6.168-6.17.41z" />
      <path d="m860.229 562.697 5.862-.288.285 5.763-5.863.289z" />
      <path d="m860.009 405.48 6.08-.25.242 5.886-6.08.25z" />
      <path d="m860.361 240.737 5.864-.308.305 5.805-5.863.308z" />
      <path d="M897.839 96.7896h6.056v6.1644h-6.056z" />
      <path d="M1034.99 96.7531h6.22v6.0749h-6.22z" />
    </g>
    <g id="Powerlines" class="powerline">
      <path d="M212.849 947.372v-40.417l-.157-181.374V354.778l-3-185.797V0" />
      <path d="M232.639 946.554v-39.59l-.15-181.239V354.733l-3.137-185.57V.325741" />
      <path d="m844.643 98.6446 56.353.8617h292.184" />
      <path d="m837.239 185.53 26.394 57.828-.398 164.86v157.168l3.448 186.877 9.708 158.943v33.009" />
    </g>
  </g>
  <g id="First_Floor" data-name="First Floor">
    <g id="Structure-1" class="structure shadow" data-name="Structure">
      <path d="M609.974 139.454v10.948H478.506v136.724h-7.951v272.502h7.927v134.083h131.534v12.817h143.553V579.065h37.599l4.791-20.333V285.9l-4.791-18.552h-37.824V139.454Z" />
    </g>
    <g id="Floor-1" class="cement">
      <path d="M479.903 151.86v26.347h21.001v29.366h-21.001v67.157h6.541v9.871h43.575v3.838h-57.823v119.585h-7.502v30.201h7.404v119.927h52.122v1.363h-5.651v2.241H499.67v27.765h-19.838v103.135H723.2V561.869h-78.838v-2.443h-63.107v-1.457h86.482v-50.078h2.88v50.078h106.75V448.405h17.38v-50.434h-17.444V288.1H669.279v49.694h-1.903V288.1h-97.584v-3.424H723.88V151.86Zm204.271 22.568h13.283v87.454h-13.54v-.947h12.455v-85.571h-12.198ZM548.19 249.982h.754v6.561l7.3 7.3h15.626v.643h-16.028l-7.652-7.653z" />
    </g>
    <g id="Enclosed_Spaces-1" class="building" data-name="Enclosed Spaces">
      <path d="M472.262 288.496v113.42h10.519V301.098l8.859-5.114v-7.488z" />
      <path d="M472.156 444.455v113.731h19.63v-7.442l-9.203-5.314V444.455Z" />
      <path d="M494.931 488.431v51.814h32.956v-51.814z" />
      <path d="M637.593 447.566v53.928h-36.872l-11.143 10.543H576.45l-9.966-9.932h-23.768v43.027l57.262.139v4.666h42.209v-33.172h16.601v-69.199z" />
      <path d="M590.296 436.714v41.659l10.503 10.667h21.975v-52.326z" />
      <path d="M543.087 359.037v13.073h-48.198v43.919h81.549v-47.43l-9.285-9.562z" />
      <path d="M494.685 305.879v52.405h33.411v-52.405z" />
      <path d="M600.239 296.535v4.595h-57.152v42.749h23.54l9.647-9.186h13.631l11.023 10.565h36.356v54.295h21.484v-70.91h-16.98v-32.107z" />
      <path d="m600.903 357.649-10.667 10.667v41.758h32.501v-52.425z" />
      <path d="M649.639 525.195v16.742h18.132v-16.742z" />
      <path d="M479.793 589.324V633.1h19.921v-43.776z" />
      <path d="M649.426 304.899v16.785h17.936v-16.785z" />
      <path d="M486.043 641.035v26.131h18.526v-22.392h-9.324v-3.739z" />
      <path d="M479.961 240.494v34.199h40.797v-17.737h-4.93v-16.462z" />
      <path d="M479.851 151.684v21.058h36.098v-21.058z" />
      <path d="M565.051 151.736v8.284h7.72v5.426h34.183v-13.71z" />
      <path d="M665.304 584.742v43.455h25.401v-43.455z" />
      <path d="m724.573 286.847.08 45.361 36.196-.029.167 67.751-18.505-.01v46.387l18.485.019.051 68.072-36.432-.088-.079 45.203h54.489V449.311h16.46v-52.742h-17.104V286.847Z" />
      <path d="M576.552 431.182v46.893l-9.472 9.472h-24.364v-12.983h-47.885l.079-43.382z" />
    </g>
    <g id="Ramps-1" class="road_tarmac road_small" data-name="Ramps" transform="translate(.339458 .675452) scale(.888877)">
      <path d="M655.957 554.108v11.925" style="stroke:url(#linearGradient84);stroke-width:12" />
      <path d="M583.691 335.255H568.87" style="stroke:url(#linearGradient187)" />
      <path d="M652.432 326.343h13.403" style="stroke:url(#linearGradient190)" />
      <path d="M579.816 313.94h-33.074" style="stroke:url(#linearGradient194)" />
      <path d="M563.053 216.585h17.896" style="stroke:url(#linearGradient192)" />
      <path d="M717.221 638.191h-28.934" style="stroke:url(#linearGradient185)" />
      <path d="M561.802 648.207h18.351" style="stroke:url(#linearGradient183)" />
      <path d="M583.585 615.841h-14.653" style="stroke:url(#linearGradient180)" />
      <path d="M533.691 475.249h18.362" style="stroke:url(#linearGradient178)" />
      <path d="M573.383 475.528h14.56" style="stroke:url(#linearGradient175)" />
      <path d="M638.579 475.435h-14.653" style="stroke:url(#linearGradient173)" />
      <path d="M673.541 475.528h14.838" style="stroke:url(#linearGradient169)" />
      <path d="M887.832 468.502v14.181" style="stroke:url(#linearGradient240)" />
      <path d="M652.985 622.444h14.07" style="stroke:url(#linearGradient244)" />
    </g>
  </g>
  <g id="Second_Floor" data-name="Second Floor">
    <g id="Structure-2" class="structure shadow" data-name="Structure">
      <path d="M478.391 150.707v136.225h-7.941v272.691h8.001v134.16l245.835.01-.453-133.83h55.112V449.782h16.527v-53.269h-17.089V286.785h-54.232V150.707Zm101.016 190.75h8.169l5.72 5.748v8.211l-5.72 5.749h-8.169l-5.721-5.749v-8.211zm.457 73.049h7.368l2.522 2.522h28.601l2.815 2.791v7.215l-2.878 2.876h-28.653l-2.589 2.588h-7.232l-2.587-2.588h-28.387l-2.961-2.961v-7.13l2.793-2.791h28.646zm-81.455 2.522h30.392l2.815 2.791v7.215l-2.878 2.876H498.58l-2.961-2.961v-7.13zm80.918 68.909h8.152l5.706 5.741v8.202l-5.706 5.744h-8.152l-5.707-5.744v-8.202z" />
    </g>
    <g id="Floor-2" class="cement" data-name="Floor">
      <path d="M472.049 288.252v270.324h127.979v-.96H660.3v-6.669h-23.032v-254.34h23.033v-7.21h-60.193v-1.145z" />
    </g>
    <g id="Enclosed_Spaces-2" class="building" data-name="Enclosed Spaces">
      <path d="M590.315 437.982v41.026l10.292 10.179h21.313v11.945h-21.313l-9.434 9.331h-16.296l-7.719-7.634h-24.297v33.9h56.744v13.475h37.571v-83.953h-14.591v-28.269z" />
      <path d="M495.451 489.342v47.582h31.759v-47.582z" />
      <path d="m503.735 438.051-8.354 9.416v27.258h47.928v12.921h23.503l9.39-9.148v-40.447z" />
      <path d="M523.58 548.17v10.345h65.631V548.17Z" />
      <path d="M471.959 474.044v84.349l19.852-.029v-7.659l-9.265-5.224v-71.437z" />
      <path d="M600.013 296.802v12.535h-57.792v34.64h24.73l7.719-8.208h16.296l9.434 9.331h21.616v12.885H600.4l-10.292 10.18v40.806h32.426v-28.418h14.69v-83.751z" />
      <path d="M495.47 310.104v47.666h31.681v-47.666z" />
      <path d="M543.197 359.27v12.902h-47.715v27.48l8.165 9.159h72.488v-40.212l-9.357-9.329z" />
      <path d="M523.41 288.419v10.209h65.87v-10.209z" />
      <path d="M472.068 288.672v84.208h10.539v-71.437l8.973-5.291v-7.48z" />
    </g>
    <g id="Ramps-2" class="road_tarmac road_small" transform="translate(.294605 .974665) scale(.888648)">
      <path d="M558.473 335.185h23.139" style="stroke:url(#linearGradient208)" />
      <path d="M598.056 475.547h-24.22" style="stroke:url(#linearGradient206)" />
      <path d="M613.831 475.454h24.313" style="stroke:url(#linearGradient204)" />
      <path d="M698.707 475.56h-24.605" style="stroke:url(#linearGradient202)" />
      <path d="M558.541 615.899h22.873" style="stroke:url(#linearGradient199)" />
    </g>
  </g>
</svg>