<svg xmlns="http://www.w3.org/2000/svg" xmlns:xlink="http://www.w3.org/1999/xlink" viewBox="0 0 1056 1003"><defs><style>.cls-1{fill:#0c343d;}.cls-2{fill:#0c3450;}.cls-3{fill:#333;}.cls-4{fill:#b4b4b4;}.cls-5{fill:#7d7d7d;}.cls-10,.cls-11,.cls-12,.cls-6,.cls-7,.cls-8,.cls-9{fill:none;stroke-miterlimit:10;}.cls-6,.cls-7,.cls-8{stroke:#b4b4b4;}.cls-11,.cls-6,.cls-9{stroke-width:7px;}.cls-7{stroke-width:11px;}.cls-9{stroke:url(#linear-gradient);}.cls-10{stroke-width:19px;stroke:url(#linear-gradient-2);}.cls-11{stroke:url(#linear-gradient-3);}.cls-12{stroke:#cb7e54;stroke-width:2px;stroke-dasharray:6;}.cls-13{fill:#cff;}.cls-14{opacity:0.5;}</style><linearGradient id="linear-gradient" x1="640.5" y1="818.5" x2="640.5" y2="767.5" gradientUnits="userSpaceOnUse"><stop offset="0" stop-color="#b4b4b4"/><stop offset="1" stop-color="#878787"/></linearGradient><linearGradient id="linear-gradient-2" x1="805.5" y1="584.5" x2="836.5" y2="584.5" gradientUnits="userSpaceOnUse"><stop offset="0" stop-color="#616161"/><stop offset="1" stop-color="#b4b4b4"/></linearGradient><linearGradient id="linear-gradient-3" x1="1234.5" y1="816" x2="1234.5" y2="765" xlink:href="#linear-gradient"/></defs><g id="Base_Terrain" data-name="Base Terrain"><polygon id="Ground" class="cls-1" points="639 0 1027 0 1027 26 1056 26 1056 79 1029 79 1032 207 1048 207 1050 306 1030 306 1030 618 1006 618 1007 632 976 632 972 619 928 619 928 653 915 669 913 719 979 719 980 856 800 856 799 811 547 812 537 825 464 824 451 812 412 811 412 848 353 851 311 989 287 989 254 1003 149 1003 149 763 79 608 0 493 0 239 641 240 639 0"/><path class="cls-2" d="M1136,138c-.09-7.36-15.9-12.34-18-13-4.3-1.35-13.65-4.3-22,0-4.91,2.53-4.09,4.79-12,13-1.33,1.38-2.69,2.71-18,15-8.71,7-13.08,10.5-14,11-12.33,6.67-19.21,2.8-24,9-3.68,4.76-3.49,12-1,17,5.28,10.54,20.59,10.06,22,10,15-.68,25.73-13.94,29-18,6.8-8.43,5.89-12.44,13-18,5.61-4.39,8.5-3.71,19-8S1136.09,145.34,1136,138Z" transform="translate(-361 -38)"/></g><g id="Structure"><rect class="cls-3" x="262" y="442" width="609" height="285"/><rect class="cls-3" x="871" y="569" width="18" height="158"/><rect class="cls-3" x="272" y="727" width="608" height="41"/><rect class="cls-3" x="245" y="569" width="18" height="158"/><rect class="cls-3" x="401" y="436" width="334" height="8"/></g><g id="Pavement"><g id="Outdoors"><polyline class="cls-4" points="896.5 664.33 917 647 917 611.67 894 604"/><rect class="cls-4" x="915" y="729" width="33" height="33"/><rect class="cls-4" x="915" y="821" width="33" height="20"/><rect class="cls-4" x="880" y="821" width="27" height="20"/><rect class="cls-4" x="844" y="821" width="17" height="20"/><polygon class="cls-4" points="503.11 818.65 464.44 818.65 459 816 544 816 537.33 818.65 503.11 818.65"/><rect class="cls-4" x="820" y="821" width="17" height="20"/><polygon class="cls-4" points="263 362 239 386 284 386 284 343 263 362"/><polyline class="cls-4" points="213 564.11 189 563 155 510 213 510"/><rect class="cls-4" x="768" y="343" width="93" height="68"/><rect class="cls-4" x="595" y="343" width="160" height="68"/><rect class="cls-4" x="533" y="340" width="52" height="71"/><rect class="cls-4" x="486" y="340" width="34" height="71"/><rect class="cls-4" x="372" y="340" width="104" height="71"/><rect class="cls-4" x="239" y="386" width="45" height="25"/><rect class="cls-4" x="284" y="343" width="77" height="68"/><rect class="cls-4" x="120" y="366" width="93" height="76"/><polygon class="cls-4" points="213 510 211.78 510 155 510 155 470 213 470 213 510"/><rect class="cls-4" x="459" y="781" width="85" height="35"/><rect class="cls-4" x="311.5" y="808.5" width="100" height="32"/></g><g id="Garage"><rect class="cls-5" x="860" y="606" width="31" height="50"/><rect class="cls-5" x="737" y="606" width="126" height="67"/><rect class="cls-5" x="787" y="645" width="76" height="46"/><rect class="cls-5" x="787" y="677" width="43" height="50"/><rect class="cls-5" x="658" y="535" width="45" height="42"/><rect class="cls-5" x="751" y="727" width="119" height="41"/><rect class="cls-5" x="663" y="566" width="69" height="90"/><rect class="cls-5" x="649" y="476" width="67" height="59"/><rect class="cls-5" x="727" y="616" width="13" height="29"/><rect class="cls-5" x="524" y="495" width="81" height="93"/><rect class="cls-5" x="613" y="425" width="38" height="120"/><rect class="cls-5" x="716" y="506" width="29" height="29"/><rect class="cls-5" x="601" y="495" width="13" height="40"/><rect class="cls-5" x="749" y="493" width="120" height="52"/><rect class="cls-5" x="760" y="434" width="37" height="45"/><rect class="cls-5" x="742" y="476" width="55" height="59"/><rect class="cls-5" x="479" y="425" width="38" height="120"/><rect class="cls-5" x="507" y="495" width="32" height="40"/><rect class="cls-5" x="276" y="464" width="85" height="73"/><rect class="cls-5" x="312" y="432" width="37" height="37"/><rect class="cls-5" x="287" y="531" width="109" height="33"/><rect class="cls-5" x="356" y="490" width="130" height="45"/><rect class="cls-5" x="418" y="531" width="26" height="59"/><rect class="cls-5" x="404" y="561" width="20" height="29"/><rect class="cls-5" x="404" y="597" width="40" height="151"/><rect class="cls-5" x="440" y="691" width="80" height="57"/><rect class="cls-5" x="528" y="694" width="77" height="70"/><rect class="cls-5" x="614" y="694" width="113" height="54"/><rect class="cls-5" x="595" y="706" width="31" height="31"/><rect class="cls-5" x="507" y="706" width="26" height="31"/><rect class="cls-5" x="418" y="746" width="76" height="35"/><rect class="cls-5" x="632" y="746" width="80" height="34"/><rect class="cls-5" x="412" y="586" width="15" height="14"/><rect class="cls-5" x="440" y="531" width="33" height="29"/><rect class="cls-5" x="262" y="600" width="134" height="40"/><rect class="cls-5" x="262" y="629" width="87" height="19"/><rect class="cls-5" x="284" y="634" width="65" height="39"/><rect class="cls-5" x="300" y="673" width="49" height="61"/><rect class="cls-5" x="276" y="727" width="101" height="41"/><rect class="cls-5" x="390" y="600" width="18" height="40"/><rect class="cls-5" x="262" y="499" width="19" height="38"/></g></g><g id="Roads"><g id="Normal_Roads" data-name="Normal Roads"><path class="cls-6" d="M502.5,317.5a57.67,57.67,0,0,1,41,11" transform="translate(-361 -38)"/><path class="cls-6" d="M543.5,328.5l24,29" transform="translate(-361 -38)"/><path class="cls-6" d="M587.5,381.5c-6.27-1.93-9.74-6.82-12-10,0,0-6-8.44-5.49-17.44.06-1.19.25-2.34.25-2.34s.1-.61.24-1.22a27.63,27.63,0,0,1,9-14,24.5,24.5,0,0,1,40,19c0,9.85-6.3,16.28-8,18C610.65,374.37,599.61,385.23,587.5,381.5Z" transform="translate(-361 -38)"/><path class="cls-6" d="M637.5,307.5a74.91,74.91,0,0,0,2,18,78,78,0,0,0,19,35" transform="translate(-361 -38)"/><path class="cls-6" d="M619.5,362.5c418.71,1.49,599.58.95,608-1a24.29,24.29,0,0,1,11,0c1.36.32,8.49,2,12,8a15.26,15.26,0,0,1,2,7c.49,8.27.53,44.15,0,93" transform="translate(-361 -38)"/><path class="cls-6" d="M623.5,675.5H610c-7.26.07-9,.55-12.5,0a13.8,13.8,0,0,1-4.51-1.12c-6.09-3.24-5.61-14.74-5.49-16.88" transform="translate(-361 -38)"/><path class="cls-6" d="M588.5,471.5q-.5-45-1-90" transform="translate(-361 -38)"/><path class="cls-6" d="M587.5,663.5q.5-96,1-192" transform="translate(-361 -38)"/><path class="cls-6" d="M585.5,630.5h-18c-10.18,0-12.74,0-16-1-8-2.35-13-8.18-16-12-24.15-30.31-64.19-105.72-67-111-1-1.83-4.38-6.24-7-13-4.19-10.82-4.06-20.11-4-26,.47-43.88.7-65.82,0-70-.81-4.8-2-10.27,0-17a33.28,33.28,0,0,1,20-21,34.74,34.74,0,0,1,11-2c23.08-1.29,43.71-.3,57,0,4.87.11,12.51.21,22,0" transform="translate(-361 -38)"/><path class="cls-6" d="M1248.5,471.5h-135c-.58,0-4,1.53-7,0a7.78,7.78,0,0,1-3-3c-3.17-4.73-12.38-4.95-16-5-129.68-1.75-165-1-165-1h-151a21,21,0,0,0-11,0c-4.63,1.37-6.4,3.95-10,6-6.87,3.91-14.26,2.42-18,2-11.79-1.32-65.83-.67-144,1" transform="translate(-361 -38)"/><path class="cls-6" d="M1254.5,821.5c-1.72-270-2.13-352-2-352s2,168.9,2,381v4" transform="translate(-361 -38)"/><path class="cls-6" d="M576.5,895.5c3.29.64,38.4,6.88,58-15,7.78-8.68,10.68-19.07,12-24a72.51,72.51,0,0,0-1-40" transform="translate(-361 -38)"/><path class="cls-6" d="M509,992a85.3,85.3,0,0,0,37-9,69.74,69.74,0,0,0,7-4c8.1-5.47,20.64-19.15,24-63,3.3-43-7.39-47.72,2-65,7.92-14.56,24.32-27.42,42-31a52.72,52.72,0,0,1,13-1c22.2,1,256.34.42,591-.87l32.5-.13" transform="translate(-361 -38)"/><line class="cls-6" x1="289.67" y1="411" x2="289.67" y2="432.32"/><line class="cls-6" x1="329" y1="411" x2="329" y2="431.5"/><line class="cls-6" x1="404.33" y1="411" x2="404.33" y2="421.66"/><line class="cls-6" x1="445.33" y1="411" x2="445.33" y2="424.5"/><line class="cls-6" x1="514.33" y1="411" x2="514.33" y2="424.5"/><line class="cls-6" x1="443.67" y1="340" x2="443.67" y2="325.07"/><line class="cls-6" x1="404.33" y1="340" x2="404.33" y2="324.96"/><line class="cls-6" x1="624.33" y1="343" x2="624.33" y2="326.5"/><line class="cls-6" x1="625.67" y1="411" x2="625.67" y2="424.5"/><line class="cls-6" x1="730.5" y1="411.5" x2="730.5" y2="424.5"/><line class="cls-6" x1="730.5" y1="343" x2="730.5" y2="325.26"/><line class="cls-6" x1="797.33" y1="411.5" x2="797.33" y2="432.32"/><path class="cls-6" d="M1252.5,568.67" transform="translate(-361 -38)"/><line class="cls-6" x1="891.77" y1="523.33" x2="869.33" y2="523.33"/><path class="cls-6" d="M588.5,548h35" transform="translate(-361 -38)"/><line class="cls-6" x1="224.5" y1="502" x2="213" y2="502"/><line class="cls-6" x1="224.5" y1="388.5" x2="213" y2="388.5"/><line class="cls-6" x1="145.24" y1="279.2" x2="82" y2="267.47"/><path class="cls-6" d="M1314.5,852.5h0c-28.67-.67-62.33.67-91,0" transform="translate(-361 -38)"/><line class="cls-6" x1="561.5" y1="424.5" x2="561.5" y2="411"/><path class="cls-6" d="M1315.5,888.5q-.49-27.5-1-55" transform="translate(-361 -38)"/><path class="cls-6" d="M1296.5,912.5" transform="translate(-361 -38)"/><line class="cls-6" x1="865.31" y1="768" x2="865.31" y2="781"/><path class="cls-6" d="M649.5,805.5v12" transform="translate(-361 -38)"/></g><g id="Highways"><path class="cls-7" d="M1351.5,364.5a210.21,210.21,0,0,0-39-29,212.6,212.6,0,0,0-75-26" transform="translate(-361 -38)"/><path class="cls-7" d="M362.5,284.5l1046,1" transform="translate(-361 -38)"/><path class="cls-7" d="M1352.5,227.5a184.69,184.69,0,0,1-34,27,189.54,189.54,0,0,1-81,27" transform="translate(-361 -38)"/><path class="cls-7" d="M364.5,305.5c345,0,699.5-2,1044.5-2" transform="translate(-361 -38)"/><path class="cls-8" d="M650.67,449" transform="translate(-361 -38)"/><path class="cls-7" d="M1351.5,364.5a210.21,210.21,0,0,0-39-29,212.6,212.6,0,0,0-75-26" transform="translate(-361 -38)"/><path class="cls-7" d="M362.5,284.5l1046,1" transform="translate(-361 -38)"/><path class="cls-7" d="M1352.5,227.5a184.69,184.69,0,0,1-34,27,189.54,189.54,0,0,1-81,27" transform="translate(-361 -38)"/><path class="cls-7" d="M364.5,305.5c345,0,699.5-2,1044.5-2" transform="translate(-361 -38)"/><path class="cls-7" d="M650.67,449" transform="translate(-361 -38)"/></g><g id="Ramps"><line class="cls-6" x1="790.22" y1="764" x2="751" y2="764"/><path class="cls-9" d="M640.5,767.5v51" transform="translate(-361 -38)"/><path class="cls-10" d="M836.5,584.5h-31" transform="translate(-361 -38)"/><path class="cls-11" d="M1234.5,765v51" transform="translate(-361 -38)"/></g></g><g id="Train_Tracks" data-name="Train Tracks"><polyline class="cls-12" points="640.13 135.34 652 133 683 112 710 85 730 68 750 59 773 55 1056 55"/></g><g id="Buildings"><rect class="cls-13" x="1175.67" y="846" width="11.56" height="4.89" transform="translate(2001.89 1658.89) rotate(180)"/><rect class="cls-13" x="1188.67" y="846" width="11.56" height="4.89" transform="translate(2027.89 1658.89) rotate(180)"/><rect class="cls-13" x="1207.89" y="882.33" width="7.11" height="5.67" transform="translate(2061.89 1732.33) rotate(180)"/><rect class="cls-13" x="1275.89" y="803.33" width="33.11" height="42.67" transform="translate(2223.89 1611.33) rotate(180)"/><rect class="cls-13" x="1217.61" y="882" width="7.39" height="6" transform="translate(2081.61 1732) rotate(180)"/><rect class="cls-13" x="1226.31" y="871" width="10.69" height="9.46" transform="translate(2102.31 1713.46) rotate(180)"/><rect class="cls-13" x="1226.65" y="857.73" width="10.69" height="9.46" transform="translate(2103 1686.92) rotate(180)"/><rect class="cls-13" x="1321.32" y="871.38" width="10.69" height="9.46" transform="translate(2292.33 1714.22) rotate(180)"/><rect class="cls-13" x="1321.32" y="857.38" width="10.69" height="9.46" transform="translate(2292.33 1686.22) rotate(180)"/></g></svg>