<svg xmlns="http://www.w3.org/2000/svg" xmlns:xlink="http://www.w3.org/1999/xlink" xml:space="preserve" id="svg235" version="1.1" viewBox="0 0 977.09998 977.09998">
  <style id="style_common">
    .trees { fill:#144043 }
    .cement { fill:#c6c2c2 }
    .land { fill:#1f5054 }
    .rock { fill:#dcd5b6 }
    .water { fill:#4a6b96 }
    .wood { fill:#593700 }
    .tarmac { fill:#768089 }
    .gravel { fill:#946d3e }
    .building { fill:#1a2632 }
    .floor { fill:#70777f }
    .locked { fill:#37414c }
    .map_border { fill:none;stroke:#000;stroke-width:2 }
    .fence { fill:none;stroke:#c4e3c3;stroke-width:1 }
    .road_tarmac { fill:none;stroke:#888 }
    .road_gravel { fill:none;stroke:#946d3e }
    .road_small { stroke-width:5 }
    .road_medium { stroke-width:8 }
    .road_large { stroke-width:12 }
    .railroad { fill:none;stroke:#914833;stroke-dasharray:6;stroke-width:3 }
    .powerline { fill:none;stroke:#ffce00;stroke-width:2;stroke-miterlimit:10;stroke-dasharray:6,6 }
    .danger { fill:red;fill-opacity:.4;stroke:red;stroke-dasharray:4,2;stroke-width:2 }
    .task { fill:#000 }
    .stairs { fill:#FFD700 }
    .shadow { filter:drop-shadow(0 0 2px #000) }
  </style>
  <style id="style_interchange">
    .structure{ fill:#4b4b4b }
  </style>
  <defs id="defs1">
    <linearGradient id="rampDown_l2r">
      <stop id="stop200" offset="0" style="stop-color:#777777;stop-opacity:0;"/>
      <stop id="stop199" offset="1" style="stop-color:#000000;stop-opacity:0.5;"/>
    </linearGradient>
    <linearGradient id="rampDown_r2l">
      <stop id="stop84" offset="0" style="stop-color:#000000;stop-opacity:0.5;"/>
      <stop id="stop85" offset="1" style="stop-color:#777777;stop-opacity:0;"/>
    </linearGradient>
    <linearGradient id="rampUp_l2r">
      <stop id="stop168" offset="0" style="stop-color:#ffffff;stop-opacity:0;"/>
      <stop id="stop169" offset="1" style="stop-color:#ffffff;stop-opacity:0.5;"/>
    </linearGradient>
    <linearGradient id="rampUp_r2l">
      <stop id="stop176" offset="0" style="stop-color:#ffffff;stop-opacity:0.5;"/>
      <stop id="stop175" offset="1" style="stop-color:#ffffff;stop-opacity:0;"/>
    </linearGradient>
    <linearGradient xlink:href="#rampDown_l2r" id="linearGradient199" x1="559.72021" x2="580.3277" y1="616.02795" y2="616.02795" gradientUnits="userSpaceOnUse"/>
    <linearGradient xlink:href="#rampDown_l2r" id="linearGradient204" x1="615.41016" x2="636.92401" y1="475.4502" y2="475.4502" gradientUnits="userSpaceOnUse"/>
    <linearGradient xlink:href="#rampDown_l2r" id="linearGradient208" x1="559.91833" x2="580.39166" y1="335.18094" y2="335.18094" gradientUnits="userSpaceOnUse"/>
    <linearGradient xlink:href="#rampDown_l2r" id="linearGradient244" x1="654.29987" x2="666.34497" y1="622.46558" y2="622.46558" gradientUnits="userSpaceOnUse"/>
    <linearGradient xlink:href="#rampDown_r2l" id="linearGradient178" x1="534.58289" x2="551.11755" y1="475.25916" y2="475.25916" gradientUnits="userSpaceOnUse"/>
    <linearGradient xlink:href="#rampDown_r2l" id="linearGradient183" x1="562.59283" x2="578.76257" y1="648.22321" y2="648.22321" gradientUnits="userSpaceOnUse"/>
    <linearGradient xlink:href="#rampDown_r2l" id="linearGradient185" x1="689.42633" x2="716.38831" y1="638.20557" y2="638.20557" gradientUnits="userSpaceOnUse"/>
    <linearGradient xlink:href="#rampDown_r2l" id="linearGradient190" x1="653.56561" x2="665.01868" y1="326.37051" y2="326.37051" gradientUnits="userSpaceOnUse"/>
    <linearGradient xlink:href="#rampDown_r2l" id="linearGradient192" x1="563.65216" x2="577.10272" y1="216.61259" y2="216.61259" gradientUnits="userSpaceOnUse"/>
    <linearGradient xlink:href="#rampDown_r2l" id="linearGradient194" x1="547.94702" x2="578.65472" y1="313.95453" y2="313.95453" gradientUnits="userSpaceOnUse"/>
    <linearGradient xlink:href="#rampDown_r2l" id="linearGradient202" x1="675.54742" x2="697.62073" y1="475.55551" y2="475.55551" gradientUnits="userSpaceOnUse"/>
    <linearGradient xlink:href="#rampDown_r2l" id="linearGradient206" x1="575.14801" x2="596.96887" y1="475.6763" y2="475.6763" gradientUnits="userSpaceOnUse"/>
    <linearGradient xlink:href="#rampDown_r2l" id="linearGradient240" x1="887.88232" x2="887.88232" y1="481.81339" y2="469.19424" gradientUnits="userSpaceOnUse"/>
    <linearGradient xlink:href="#rampDown_r2l" id="linearGradient84" x1="655.97345" x2="655.97345" y1="565.0498" y2="554.98608" gradientUnits="userSpaceOnUse"/>
    <linearGradient xlink:href="#rampUp_l2r" id="linearGradient169" x1="674.61407" x2="687.49237" y1="475.59064" y2="475.59064" gradientUnits="userSpaceOnUse"/>
    <linearGradient xlink:href="#rampUp_l2r" id="linearGradient175" x1="574.55939" x2="586.74683" y1="475.59064" y2="475.59064" gradientUnits="userSpaceOnUse"/>
    <linearGradient xlink:href="#rampUp_l2r" id="linearGradient229" x1="566.33783" x2="574.46753" y1="216.59996" y2="216.59996" gradientUnits="userSpaceOnUse"/>
    <linearGradient xlink:href="#rampUp_l2r" id="linearGradient231" x1="547.76813" x2="566.72144" y1="314.01965" y2="314.01965" gradientUnits="userSpaceOnUse"/>
    <linearGradient xlink:href="#rampUp_l2r" id="linearGradient233" x1="534.90833" x2="545.61707" y1="475.27277" y2="475.27277" gradientUnits="userSpaceOnUse"/>
    <linearGradient xlink:href="#rampUp_l2r" id="linearGradient235" x1="563.2301" x2="574.45557" y1="648.18005" y2="648.18005" gradientUnits="userSpaceOnUse"/>
    <linearGradient xlink:href="#rampUp_l2r" id="linearGradient237" x1="652.07996" x2="652.07996" y1="570.19727" y2="552.70618" gradientUnits="userSpaceOnUse"/>
    <linearGradient xlink:href="#rampUp_l2r" id="linearGradient239" x1="688.47986" x2="705.50806" y1="638.04413" y2="638.04413" gradientUnits="userSpaceOnUse"/>
    <linearGradient xlink:href="#rampUp_r2l" id="linearGradient173" x1="624.84644" x2="637.6651" y1="475.40985" y2="475.40985" gradientUnits="userSpaceOnUse"/>
    <linearGradient xlink:href="#rampUp_r2l" id="linearGradient180" x1="569.98462" x2="582.73511" y1="615.86151" y2="615.86151" gradientUnits="userSpaceOnUse"/>
    <linearGradient xlink:href="#rampUp_r2l" id="linearGradient187" x1="569.39502" x2="583.13763" y1="335.23236" y2="335.23236" gradientUnits="userSpaceOnUse"/>
    <linearGradient xlink:href="#rampUp_r2l" id="linearGradient219" x1="887.76825" x2="887.76825" y1="481.87787" y2="469.13779" gradientUnits="userSpaceOnUse"/>
    <linearGradient xlink:href="#rampUp_r2l" id="linearGradient221" x1="882.4549" x2="882.4549" y1="298.95959" y2="261.57394" gradientUnits="userSpaceOnUse"/>
    <linearGradient xlink:href="#rampUp_r2l" id="linearGradient223" x1="848.27881" x2="886.75024" y1="182.32352" y2="182.32352" gradientUnits="userSpaceOnUse"/>
    <linearGradient xlink:href="#rampUp_r2l" id="linearGradient225" x1="882.44916" x2="882.44916" y1="650.49103" y2="691.24506" gradientUnits="userSpaceOnUse"/>
    <linearGradient xlink:href="#rampUp_r2l" id="linearGradient227" x1="848.47076" x2="886.86646" y1="767.81689" y2="767.81689" gradientUnits="userSpaceOnUse"/>
    <linearGradient xlink:href="#rampUp_r2l" id="linearGradient242" x1="660.83087" x2="668.61353" y1="326.46893" y2="326.46893" gradientUnits="userSpaceOnUse"/>
    <linearGradient xlink:href="#rampUp_r2l" id="linearGradient246" x1="660.5708" x2="669.35779" y1="622.61993" y2="622.61993" gradientUnits="userSpaceOnUse"/>
  </defs>
  <g id="Ground_Level" data-name="Ground Level">
    <g id="Base_Terrain" class="land" data-name="Base Terrain">
      <path d="m816.069 530.62 2.145 4.638 40.176.043.231 61.355 92.636 41.079.08 27.516 23.521 13.856.018 90.846-37.972 9.438-36.744 7.449-96.386 5.404-71.785 4.546-68.048 10.614-45.401 12.824-38.391 17.498-52.854 29.013-49.816 30.879-17.22 9.853-13.949 6.225-25.19 2.73-161.375.098.085-23.886 6.578-7.562 6.071-536.368-89.927 1.258-46.756-1.014-.439-22.528-5.931-21.96-7.45-11.209-18.054-13.67-33.258-24.122-31.7437-32.266-23.791-38.609-11.67248-43.721L1.79597 28.4899 33.9015 14.8084l-.0751-12.73837 58.9001-.10075V14.7731l10.6355 8.546 139.573.9248 10.325-9.6421.01-12.42659 80.452-.15153V14.3061l10.629 9.6018 294.436-2.6893-.005 22.0342-3.329 21.8968.679 27.5779 37.898.0836 15.306 15.3729 55.157.034-.096-43.9038 4.918-2.6109 11.036-12.2253 32.516-.0803 49.232 2.2141 17.588 17.4057.201 145.2565-32.401.133-11.547 11.464-.123 64.705 2.782 6.141.185 59.389-3.449 2.054.56 73.058 9.544 6.268.131 51.896-4.503.032-4.977 2.732z"/>
    </g>
    <g id="Water" class="water">
      <path d="M190.207 334.203c3.412-.247 6.891-1.532 9.604-3.617 1.417-1.09 3.381-2.597 3.118-4.365-.433-2.904-5.161-3.063-6.985-5.363-1.191-1.502-2.005-3.357-2.37-5.239-.19-.98.355-2.022.125-2.993-.395-1.666-1.883-2.891-2.494-4.49-1.142-2.987-.679-6.501-2.121-9.355-.917-1.815-2.786-2.977-3.991-4.615-.841-1.143-.891-3.193-2.245-3.617-1.599-.501-3.289.971-4.615 1.996-2.297 1.774-4.334 4.146-5.363 6.86-.724 1.908-.746 4.104-.374 6.111.657 3.549 3.344 6.431 4.49 9.854.608 1.817.634 3.796 1.247 5.612 1.142 3.384 2.245 6.951 4.49 9.729.915 1.131 2.169 2.013 3.492 2.619 1.239.567 2.633.972 3.992.873z"/>
      <path d="M166.634 287.306c2.016-.036 3.853 1.675 5.862 1.497 1.501-.133 2.752-1.23 4.116-1.871 1.464-.688 2.802-1.702 4.365-2.12 2.255-.604 5.197 1.002 6.985-.499 1.312-1.102 1.799-3.366 1.247-4.989-.41-1.205-1.844-1.824-2.994-2.37-2.269-1.077-4.849-1.515-7.358-1.621-4.4-.186-9.219-.343-13.097 1.746-1.842.992-3.673 2.694-4.115 4.739-.34 1.569.55 3.236 1.371 4.615.362.606.814 1.323 1.497 1.497.714.182 1.384-.61 2.121-.624z"/>
      <path d="M143.493 251.855c-2.396-1.582-5.677-3.53-8.29-2.341-2.302 1.048-3.809 4.395-3.243 6.86.43 1.874 3.43 2.014 4.49 3.617 1.096 1.658.769 3.942 1.621 5.738.435.917.918 1.908 1.747 2.494 2.148 1.521 5.434.635 7.608 2.121 1.888 1.29 2.195 4.246 4.116 5.488 1.748 1.129 4.355 2.507 6.094 1.363 1.518-.998.456-3.626 1.015-5.355 1.116-3.451 5.359-6.303 4.615-9.853-.284-1.356-1.803-2.329-3.127-2.738-3.121-.966-6.705 2.399-9.732 1.168-3.399-1.381-3.852-6.542-6.914-8.562z"/>
      <path d="M195.071 238.663c-1.477.189-2.94 1.294-3.617 2.62-.416.814-.396 1.919 0 2.744.461.959 1.728 1.256 2.494 1.995 1.147 1.105 1.817 2.701 3.119 3.617.947.667 2.085 1.277 3.242 1.247.819-.02 1.728-.362 2.246-.997.617-.759.825-1.911.623-2.869-.349-1.66-2.469-2.503-2.993-4.116-.232-.712.422-1.627 0-2.245-1.032-1.511-3.299-2.228-5.114-1.996z"/>
      <path d="M148.915 235.579c-1.646-.143-3.751.596-4.507 2.065-.904 1.758.551 3.931 1.127 5.822.515 1.69.613 3.876 2.066 4.882 1.905 1.32 5.242 1.852 6.948.282 2.189-2.016 1.705-6.258.375-8.92-1.086-2.175-3.587-3.922-6.009-4.131z"/>
      <path d="M374.511 73.1909c.011 2.0379 1.084 4.2978 2.762 5.455 1.579 1.0895 4.105-.4229 5.724.6061.842.5347.766 1.9419 1.549 2.5592 2.091 1.6479 4.955 2.2289 7.61 2.4244.976.0719 1.931-.6314 2.896-.4714.753.1248 1.285 1.2835 2.02 1.0775 1.231-.3449 2.013-2.0231 1.953-3.2999-.08-1.7179-2.836-2.4667-3.03-4.1755-.11-.9694.599-1.8851 1.145-2.6938.746-1.1053 1.596-2.3183 2.828-2.8286 1.431-.5927 3.171-.4704 4.647 0 .813.2592 1.286 1.1889 2.088 1.4817 1.016.3709 2.151.2651 3.233.2693 3.579.014 7.569.9121 10.708-.8081.885-.4855 1.913-1.4187 1.818-2.4245-.291-3.0849-4.667-4.0835-6.869-6.2632-.633-.6256-1.043-1.5177-1.819-1.953-.879-.4934-2.357.2-2.963-.6061-.839-1.1164-.255-2.9107.337-4.1755.72-1.5385 1.948-3.385 3.636-3.5693.843-.0919 1.371 1.6653 2.156 1.3469 1.478-.5996 1.463-3.0837 1.144-4.6469-.291-1.4298-1.178-3.3243-2.626-3.502-1.235-.1515-2.098 1.4017-2.896 2.3572-.805.9641-1.025 2.3266-1.818 3.2999-.634.7775-1.305 1.7647-2.29 1.953-1.025.1959-1.964-.7085-2.963-1.0101-1.601-.4833-3.279-1.8535-4.849-1.2796-1.468.5367-1.722 2.6148-2.694 3.8387-1.088 1.3691-2.136 2.8144-3.502 3.9061-1.225.9786-2.669 1.6689-4.108 2.2897-1.643.7086-3.33 1.6722-5.118 1.6163-1.371-.0428-2.948-.4391-3.839-1.4816-.761-.8901.223-2.7694-.741-3.4346-1.233-.8511-3.277-.2653-4.445.6734-1.218.9794-2.249 2.92-1.684 4.3775.4 1.0296 2.471.4933 2.964 1.4817.387.7762-.199 1.7358-.472 2.5591-.591 1.782-2.501 3.1736-2.492 5.051z"/>
      <path d="M438.363 52.7748c-.64-.5699-.623-1.7889-.248-2.5592 1.101-2.2574 3.997-3.1848 6.357-4.0452 1.174-.4279 2.466-.448 3.715-.4953 2.424-.0919 4.84.4711 7.265.4128 2.102-.0506 4.187-.9234 6.274-.6605 1.019.1285 2.356.1949 2.889 1.0732.345.569.045 1.3834-.248 1.9813-.82 1.6781-2.886 2.4357-3.962 3.9626-.667.9458-1.104 2.045-1.486 3.1371-.318.9072-.344 1.8995-.661 2.8068-.361 1.0343-1.316 1.8799-1.403 2.972-.124 1.5713.338 3.3083 1.321 4.5405.53.6644 1.72.5572 2.229 1.2383.455.6099-.082 1.7332.495 2.229.314.2694.826.1071 1.239.0825.447-.0266.89-.3704 1.32-.2476 1.255.3577 2.152 1.565 2.89 2.6417.6.8769 1.485 1.9614 1.156 2.9719-.254.7766-1.64.6229-2.064 1.3209-.474.7792-.15 1.8177-.248 2.7243-.143 1.3235.102 2.7728-.495 3.9626-.428.8524-1.136 1.7637-2.064 1.9813-1.966.4608-3.768-1.9976-5.779-1.8162-.588.0531-.98.7691-1.568.8255-1.517.1455-2.889-1.653-4.376-1.3208-2.529.5651-3.21 5.5439-5.779 5.2009-1.46-.195-1.092-3.0245-2.394-3.7149-1.07-.5677-2.483.4643-3.632.0825-.763-.2533-1.164-1.1596-1.899-1.486-1.174-.5217-3.271.5118-3.797-.6604-.942-2.097 1.676-4.6534 3.632-5.8613.776-.4792 1.956.2433 2.724-.2477 1.714-1.0954 2.668-3.2862 3.055-5.2835.111-.5731-.34-1.1571-.248-1.7336.637-3.9986 4.171-7.0288 5.366-10.8972.287-.9295.75-1.9767.413-2.8894-.317-.8597-1.23-1.4366-2.064-1.8162-1.137-.5175-2.468-.4248-3.715-.4953-1.401-.0792-3.162 1.0159-4.21.0826z"/>
    </g>
    <g id="Structure" class="structure">
      <path d="m753.2 139.421-143.313.015v10.694H478.383v136.242h-7.971v272.834h7.921v117.698h-1.866v18.947h18.704v-2.246h114.874v13.026h143.412l.29-129.237h40.604V266.772h-41.443z"/>
    </g>
    <g id="Roads" class="road_tarmac">
      <g id="Normal_Roads" class="road_medium" data-name="Normal Roads">
        <path d="M297.988 792.235c14.514-25.829 42.63-30.618 61.465-51.118"/>
        <path d="M379.821 716.477c.227 12.606-14.117 26.222-26.725 26.062-12.291-.158-24.699-11.961-24.477-26.062.214-13.064 10.305-24.768 24.074-24.92 14.6-.054 26.908 12.735 27.128 24.92z"/>
        <path d="M301.997 612.56c.195 11.491 12.638 26.263 26.811 26.582 12.852.288 30.38-12.701 31.501-22.739"/>
        <path d="M359.939 691.106c1.321-372.342.972-539.185.949-545.514-.023-6.329.745-9.868 2.59-12.613 1.845-2.745 4.422-5.271 8.032-7.376 3.61-2.105 14.905-3.363 19.675-3.623 4.771-.26 13.585-1.076 68.095-1.173"/>
        <path d="M665.64 704.86s.169 6.878-.985 9.987c-.96 2.69-1.992 5.192-4.786 7.135-2.928 2.036-10.856 2.577-10.856 2.577"/>
        <path d="m649.46 724.66-270.824.884"/>
        <path d="M622.084 723.162c.009 6.913.238 11.697.349 17.224.169 8.511.201 13.852.178 20.922-.28 5.229.651 10.977-5.13 14.502-28.254 16.081-62.396 30.406-91.5 45.511-8.95 4.446-22.016 12.08-30.262 14.524-7.477 2.215-14.419 1.799-22.216 1.847-20.106.123-38.313.233-60.127.154-18.706.042-42.61 1.847-48.871-3.131-6.481-5.55-9.34-12.792-10.319-22.695-.946-13.264-.479-23.843-.472-37.625.006-10.957.957-24.531.774-32.971"/>
        <path d="M461.83 121.814s-.121 113.096-.434 141.108c-.05 4.421.283 7.601-1.197 10.89-1.386 3.083-4.262 5.04-5.583 7.926-1.215 2.658-1.666 6.672-1.657 9.79.125 43.479-.741 80.121-.89 120.184-.165 44.759-.337 89.709 0 134.278.026 3.371-.114 9.167.672 12.593.914 3.986 3.991 7.626 5.952 9.899 3.469 4.023 2.682 7.418 2.698 12.778.127 46.257-.239 140.566-.239 140.566"/>
        <path d="M458.678 120.766c109.513.22 210.884-.521 320.668-.476"/>
        <path d="M865.294 726.364s3.976-21.391.359-35.737c-3.619-14.345-14.901-21.096-30.913-23.378-12.999-1.853-44.156-1.46-44.156-1.46"/>
        <path d="M804.108 666.926c-.166-48.595-.157-224.139-1.309-521.737-.584-9.27-6.133-24.868-23.61-24.893"/>
        <path d="M928.608 788.664s-1.77-19.587-11.561-40.655c-3.032-6.024-8.537-12.665-14.343-16.093-9.284-5.477-21.34-4.802-32.03-4.461-17.847.57-41.109.451-50.892-2.114-11.832-3.101-15.228-13.359-15.429-22.457-.29-13.025-.224-29.371-.245-35.468"/>
        <path d="M440.026 660.637h18.958"/>
        <path d="M440.353 622.038h18.23"/>
        <path d="M438.953 551.842h11.213"/>
        <path d="M438.588 513.321h12.005"/>
        <path d="M438.565 442.399h12.005"/>
        <path d="M375.792 513.006h-13.28"/>
        <path d="M375.792 551.477h-13.371"/>
        <path d="M377.003 403.803H362.33"/>
        <path d="M438.766 333.368h12.005"/>
        <path d="M439.211 294.275h11.56"/>
        <path d="M377.731 293.95h-15.777"/>
        <path d="M377.395 331.869h-15.777"/>
        <path d="M440.38 225.005h18.514"/>
        <path d="M360.529 147.078h100.137"/>
        <path d="M557.872 121.847v23.994"/>
        <path d="M540.512 721.918v-31.135"/>
        <path d="M530.987 723.493v15.828"/>
        <path d="M419.982 727.628v14.124"/>
        <path d="M451.375 403.056H439.37"/>
        <path d="M790.79 176.219h15.226"/>
        <path d="M462.993 236.599h18.514"/>
        <path d="M454.276 377.185h18.513"/>
        <path d="M454.562 467.165h18.513"/>
        <path d="M462.355 621.979h18.514"/>
        <path d="M772.168 109.12v8.945"/>
        <path d="m829.667 81.7786.183 78.5304"/>
        <path d="m954.165 79.9854-153.021-.1501"/>
        <path d="M828.682 118.11c-17.28-.202-32.747-.317-33.909 6.061"/>
        <path d="M1192.12 743.125s-48.74 1.164-73 3.289c-20.26 1.774-40.6 3.689-60.5 7.891-28.84 6.091-56.25 17.803-84.838 24.991-23.894 6.006-47.958 11.585-72.341 15.125-21.113 3.067-42.506 3.761-63.789 5.261-41.18 2.903-82.634 2.433-123.636 7.234-22.55 2.641-44.649 6.501-66.595 12.321-18.23 4.834-35.366 11.77-52.545 19.554-34.948 15.836-67.128 36.028-99.653 56.382-28.817 18.034-85.692 57.081-85.692 57.081"/>
        <path d="M1060.73 753.004s2.48-254.858 3.26-383.25c.08-12.184-1.07-24.57-4.4-36.288-2.97-10.406-6.74-21.141-13.67-29.446-8.04-9.617-20.55-14.355-30.74-21.642-9.97-7.129-21.986-12.12-29.758-21.599-11.026-13.457-16.753-30.775-21.751-47.439-5.202-17.344-6.625-35.656-8.252-53.69-1.814-20.111-1.672-40.364-1.672-60.5572.009-35.0183-.649-93.39361-.649-93.39361"/>
      </g>
      <g id="Highways" class="road_large">
        <path d="M404.624 40.014c-26.897 14.6763-39.424 24.1391-57.743 45.0851-23.053 28.0489-41.54 62.7459-41.782 111.7849"/>
        <path d="M274.968 947.923c.148-153.392 2.956-330.318 4.832-484.737.938-77.21 3.189-196.881 3.744-274.029.556-77.149-.585-111.7742-.511-188.472676"/>
        <path d="M185.312 39.7551c28.247 16.232 32.586 20.0323 55.308 42.648 24.094 28.6579 44.204 64.6429 42.85 114.4689"/>
        <path d="M297.208 947.95c0-153.401 3.694-367.166 5.571-521.626.938-77.23 1.727-154.46 2.281-231.557.553-77.097-.121-117.1442-.121-193.842794"/>
      </g>
    </g>
    <g id="Rocks" class="rock">
      <path d="M124.848 199.267c.903.968 2.482 1.57 3.768 1.256 1.812-.443 2.111-3.472 3.894-4.02.981-.301 2.005.814 3.014.629 1.223-.225 3.019-.773 3.14-2.01.142-1.444-1.898-2.264-3.14-3.015-1.02-.616-2.651-.196-3.391-1.13-.287-.363.282-1.163-.125-1.382-1.008-.539-1.874 1.575-3.015 1.633-.543.028-.977-.75-1.507-.628-1.85.427-3.325 2.425-3.768 4.271-.353 1.471.099 3.289 1.13 4.396z"/>
      <path d="M219.832 255.386c.233-.97 1.59-1.515 2.587-1.504.729.009 1.14 1.056 1.864 1.143.649.077 1.212-.585 1.865-.601.851-.022 1.904.022 2.466.661.4.456.366 1.211.24 1.804-.174.828-.653 1.65-1.323 2.166-.945.727-2.414 1.649-3.428 1.022-.693-.428.251-1.946-.421-2.406-.591-.404-1.446.7-2.105.421-.989-.418-1.995-1.663-1.745-2.706z"/>
      <path d="M219.652 297.127c-.408-.444-.216-1.304.12-1.804.585-.871 2.376-.437 2.827-1.384.23-.483-.636-1.105-.361-1.564.599-.996 2.207-.857 3.368-.902.979-.037 2.444-.332 2.887.542.232.455-.554.883-.661 1.383-.168.784-.256 1.668.06 2.406.112.26.502.336.601.601.311.828.177 1.838-.18 2.647-.269.609-.768 1.188-1.383 1.443-.945.392-2.192.467-3.068-.06-.707-.426-1.04-1.356-1.203-2.165-.071-.356.36-.81.121-1.083-.688-.783-2.423.708-3.128-.06z"/>
      <path d="M571.336 40.7443c.964-.6046 2.408-.4036 3.412.1313 1.244.6619 1.848 2.1605 2.494 3.4125.635 1.2294 1.387 2.556 1.313 3.9375-.063 1.1534-.454 2.5551-1.444 3.15-1.277.7676-3.124.3929-4.463-.2625-.835-.409-1.397-1.2804-1.837-2.1-.472-.8791-1.111-1.9438-.788-2.8875.284-.8277 1.739-.7779 2.1-1.575.236-.5196.288-1.3187-.131-1.7063-.385-.3567-1.287.4394-1.575 0-.418-.6394.272-1.6942.919-2.1z"/>
      <path d="M582.886 41.9256c-.203.5018.524 1.0496.394 1.575-.268 1.0828-1.678 1.5252-2.232 2.4937-.5.8771-.892 1.8779-.918 2.8876-.05 1.8988.68 3.7733 1.443 5.5125.293.6667.569 1.4442 1.182 1.8375 1.041.6685 2.898-.4381 3.675.525.385.478-.451 1.3132-.131 1.8375.52.8536 1.761 1.0846 2.756 1.1813.623.0606 1.216-.3174 1.837-.3937 1.304-.1601 2.766.461 3.938-.1313.945-.4777 1.843-1.4421 1.969-2.4938.211-1.7689-1.886-3.1087-2.232-4.8563-.212-1.0738.502-2.2513.132-3.2812-.577-1.6034-1.892-3.0385-3.413-3.8063-.824-.4159-1.91.106-2.756-.2625-.483-.2104-1-.5553-1.181-1.05-.213-.581.667-1.3701.262-1.8375-.373-.4297-1.188.235-1.706 0-.424-.1922-.459-.9821-.919-1.0501-.817-.1206-1.791.5471-2.1 1.3126z"/>
      <path d="M899.989 677.837c.766-1.033 1.863-2.249 3.15-2.231.437.006.613.761 1.05.787.958.057 1.56-1.669 2.493-1.443.708.171 1.188 1.109 1.182 1.837-.009.789-.658 1.53-1.313 1.969-.556.372-1.379.078-1.969.394-.654.35-.884 1.302-1.575 1.575-1.221.482-3.187.946-3.937-.132-.553-.795.342-1.978.919-2.756z"/>
    </g>
    <g id="Pavement" class="cement">
      <g id="Outdoors">
        <path d="m697.319 116.767-23.967-23.931-38.201.0569-2.152 4.5459.06 19.3832"/>
        <path d="M750.017 84.0801v26.1779h40.763V84.0801Z"/>
        <path d="M753.27 266.653V156.656h37.83v109.997z"/>
        <path d="M836.617 108.941V89.3741h16.313v19.5669z"/>
        <path d="M833.325 147.552v-26.03h16.411v26.03z"/>
        <path d="M827.27 171.602v-10.717h21.225v10.717z"/>
        <path d="M826.876 191.159v-10.788h21.746v10.788z"/>
        <path d="M500.329 739.078v55.964h35.574l52.986-24.776.175-31.188z"/>
        <path d="M374.1 159.958v94.911h67.476v-94.911zm29.993 13.414c2.631.058 5.28.645 7.842 1.245 2.963.695 6.116 1.36 8.56 3.172 1.334.988 2.651 2.344 3.014 3.963.39 1.74-.457 3.572-1.11 5.231-.902 2.295-2.926 4.039-3.805 6.342-.806 2.111-1.153 4.402-1.268 6.659-.124 2.437.099 4.912.634 7.292.433 1.926 1.587 3.635 2.06 5.55.395 1.604 1.133 3.34.635 4.915-.495 1.57-2.031 2.634-3.329 3.646-1.94 1.511-4.553 1.988-6.501 3.487-1.718 1.323-3.034 3.106-4.439 4.757-1.734 2.037-2.781 4.728-4.914 6.342-2.136 1.616-4.822 3.527-7.451 3.012-2.676-.526-5.025-3.113-5.867-5.708-.861-2.652.081-5.803 1.428-8.245 1.753-3.177 5.944-4.361 8.085-7.291 1.813-2.483 3.13-5.403 3.805-8.402.64-2.836.678-5.861.159-8.721-.59-3.244-1.872-6.416-3.646-9.195-1.488-2.332-4.218-3.695-5.709-6.025-.921-1.438-2.131-3.064-1.902-4.756.223-1.644 1.688-2.962 3.011-3.963 2.31-1.746 5.219-2.785 8.087-3.171.869-.118 1.744-.156 2.621-.136z"/>
        <path d="M372.54 365.491V262.363h68.645v103.128z"/>
        <path d="M372.853 426.591v-53.676h68.817v53.676z"/>
        <path d="M372.54 473.186v-37.991h68.98v37.991z"/>
        <path d="M372.452 584.402V480.308h69.224v104.094z"/>
        <path d="M372.261 591.856v75.385l43.839 44.058h25.488V591.856Z"/>
        <path d="M398.917 739.835v15.024l-3.084 2.312v43.457l3.084 2.772v8.899h70.467V803.4l3.084-2.772v-43.457l-3.084-2.312v-15.024z"/>
        <path d="M807.415 433.295v58.902h8.776l4.716-2.908 4.607-.012-.001-51.637-9.322-4.345z"/>
        <path d="M825.573 631.894v-95.446h31.733v95.446z"/>
        <path d="M753.564 689.211V577.41h37.322v111.801z"/>
        <path d="m694.997 139.56-.013-15.547h-52.238l.121 15.547"/>
      </g>
      <g id="Garage">
        <path d="m640.058 139.454.306 147.744h-59.291v11.087h23.662v9.911H569.85V265.52h22.778V150.123h-70.597v59.451l-6.407.131.064-10.44-3.871-.08.033-12.249-9.61-8.672h-23.792v124.959h16.532l.003 54.312h-24.575v37.724h71.244v55.185h-71.244v38.149h66.334l-.325 103.897h-35.889v-9.508h11.127v-12.404h-33.28v74.297h34.136v48.654l53.259.153v-23.595h47.224v-97.231h24.856v-10.437h-24.856v-.009h-6.569v-2.862h-25.838v-12.111h22.823v1.042h-21.715v10.016l61.362.171v-12.372h.361v12.374h.288v147.835H695.5v-29.25h25.546v-18.657h32.886v-38.553H696.85v-61.058h80.636v-.161h.434v-32.682h16.315v-59.124H777.92v-18.937h16.315v-50.673H777.92v-18.176h16.315v-58.991H777.92v-35.578h-51.274v242.439h-83.191v11.765h-.474v-6.464h-22.89v-20.234h-5.35v-21.634H567.68v-14.247l5.064-.152-.128-12.706-4.936-.044v-15.511h54.179v-49.984H567.68l.029-63.067 45.782-.133v-7.109h60.703V286.56h24.449v-60.784l55.401-.13v-38.238l-32.696.129v-18.281h-24.777l-.176-29.802zM515.851 272.319h33.902v13.217h-33.902z"/>
        <path d="M464.694 408.354h7.064v6.801h14.375v15.2h-14.476v7.164h-6.66z"/>
      </g>
    </g>
    <g id="Ramps" class="road_small road_tarmac" transform="translate(-.000027 .187718) scale(.889258)">
      <g id="Big_Ramps" class="road_medium">
        <path d="M887.774 182.359h-40.707" style="stroke:url(#linearGradient223)"/>
        <path d="M882.511 261.056v38.665" style="stroke:url(#linearGradient221)"/>
        <path d="M882.425 692.379V649.25" style="stroke:url(#linearGradient225)"/>
        <path d="M887.865 767.758h-40.459" style="stroke:url(#linearGradient227)"/>
      </g>
      <path d="M655.935 571.142v-19.26" style="stroke:url(#linearGradient237);stroke-width:12"/>
      <path d="M546.722 313.967h21.117" style="stroke:url(#linearGradient231)"/>
      <path d="M565.164 216.675h10.421" style="stroke:url(#linearGradient229)"/>
      <path d="M533.862 475.348h12.745" style="stroke:url(#linearGradient233)"/>
      <path d="M562.426 648.287h12.938" style="stroke:url(#linearGradient235)"/>
      <path d="M687.449 638.098h18.962" style="stroke:url(#linearGradient239)"/>
      <path d="M887.832 468.502v14.181" style="stroke:url(#linearGradient219)"/>
      <path d="M669.87 326.436h-10.201" style="stroke:url(#linearGradient242)"/>
      <path d="M670.155 622.504H659.9" style="stroke:url(#linearGradient246)"/>
    </g>
    <g id="Train_Tracks" class="railroad" data-name="Train Tracks">
      <path d="m2.54158 776.146 70.97202-6.723 34.6764-13.434 29.825-25.398 21.634-32.581 7.143-38.784 3.372-309.83-3.879-21.637-10.66-23.604-20.353-23.011-17.624-15.649-29.1074-26.277-16.0255-20.699-9.2251-21.195-4.0928-25.753-.9258-169.51207"/>
      <path d="m3.08401 781.34 71.88099-6.983 36.494-13.564 31.904-26.176 23.599-35.278 7.224-40.113 3.533-309.96-3.23-21.766-10.271-23.735-18.924-23.14-17.884-16.168-29.3667-26.148-16.675-19.79-10.0043-21.195-4.8719-25.753-.1465-169.51207"/>
      <path d="M3.69387 922.704 1188.62 923.967"/>
      <path d="M3.69387 929.756 1188.62 931.019"/>
    </g>
    <g id="Buildings" class="building">
      <path d="M823.895 190.235v6.416h-2.97v-6.416z"/>
      <path d="M823.8 182.724v6.965h-2.875v-6.965z"/>
      <path d="M856.188 168.381v5.781h-4.661v-5.781z"/>
      <path d="M799.816 85.9569v2.9803h-8.694v18.4368h27.889V91.1579h.561v-5.201z"/>
      <path d="M856.178 157.924v5.755h-4.577v-5.755z"/>
      <path d="M851.338 148.713v6.319h-6.024v-6.319z"/>
      <path d="M840.348 148.681v6.222h-6.03v-6.222z"/>
      <path d="M852.833 69.0342v6.3334h-6.264v-6.3334z"/>
      <path d="M843.238 69.0618v6.3017h-6.457v-6.3017z"/>
      <path d="m372.231 443.004 7.447-7.388 4.744 4.78-7.447 7.389z"/>
      <path d="M418.735 251.076h13.931v-9.243h-13.931z"/>
      <path d="M637.137 528.687h-10.462v3.731h10.462z"/>
      <path d="m933.863 770.275 10.279-2.946-1.502-5.241-10.279 2.947z"/>
      <path d="m934.754 772.4 10.073-2.878 1.542 5.394-10.074 2.878z"/>
      <path d="M78.0108 71.1693V85.09h9.2345V71.1693Z"/>
      <path d="M348.959 715.574v3.164l6.329 1.26v-5.659z"/>
      <path d="m531.245 80.8757 1.638-5.0988-6.476-.7444-.93 2.9774z"/>
      <path d="M331.51335 474.82411v3.164l6.329 1.26v-5.659z"/>
    </g>
    <g id="Limit" class="map_border">
      <path d="m816.069 530.62 2.145 4.638 40.176.043.231 61.355 92.636 41.079.08 27.516 23.521 13.856.018 90.846-37.972 9.438-36.744 7.449-96.386 5.404-71.785 4.546-68.048 10.614-45.401 12.824-38.391 17.498-52.854 29.013-49.816 30.879-17.22 9.853-13.949 6.225-25.19 2.73-161.375.098.085-23.886 6.578-7.562 6.071-536.368-89.927 1.258-46.756-1.014-.439-22.528-5.931-21.96-7.45-11.209-18.054-13.67-33.258-24.122-31.7437-32.266-23.791-38.609-11.67248-43.721L1.79597 28.4899 33.9015 14.8084l-.0751-12.73837 58.9001-.10075V14.7731l10.6355 8.546 139.573.9248 10.325-9.6421.01-12.42659 80.452-.15153V14.3061l10.629 9.6018 294.436-2.6893-.005 22.0342-3.329 21.8968.679 27.5779 37.898.0836 15.306 15.3729 55.157.034-.096-43.9038 4.918-2.6109 11.036-12.2253 32.516-.0803 49.232 2.2141 17.588 17.4057.201 145.2565-32.401.133-11.547 11.464-.123 64.705 2.782 6.141.185 59.389-3.449 2.054.56 73.058 9.544 6.268.131 51.896-4.503.032-4.977 2.732z"/>
    </g>
    <g id="Powerline_Towers" class="building">
      <path d="m206.713 166.32 6.246.056-.056 6.186-6.246-.057z"/>
      <path d="M226.406 166.376h6.133v6.414h-6.133z"/>
      <path d="M210.129 351.863h6.138v5.99h-6.138z"/>
      <path d="M229.878 351.765h5.742v5.989h-5.742z"/>
      <path d="M210.062 537.267h5.785v5.784h-5.785z"/>
      <path d="M229.66 537.381h5.898v5.974h-5.898z"/>
      <path d="M210.11 722.77h6.118v5.934h-6.118z"/>
      <path d="M229.579 722.724h6.164v6.027h-6.164z"/>
      <path d="M209.878 903.647h6.285v6.181h-6.285z"/>
      <path d="M229.509 903.674h6.286v6.234h-6.286z"/>
      <path d="m872.869 908.191 6.292-.524.52 6.269-6.294.516z"/>
      <path d="m863.191 749.083 6.169-.411.412 6.168-6.17.41z"/>
      <path d="m860.229 562.697 5.862-.288.285 5.763-5.863.289z"/>
      <path d="m860.009 405.48 6.08-.25.242 5.886-6.08.25z"/>
      <path d="m860.361 240.737 5.864-.308.305 5.805-5.863.308z"/>
      <path d="M897.839 96.7896h6.056v6.1644h-6.056z"/>
      <path d="M1034.99 96.7531h6.22v6.0749h-6.22z"/>
    </g>
    <g id="Powerlines" class="powerline">
      <path d="M212.849 947.372v-40.417l-.157-181.374V354.778l-3-185.797V0"/>
      <path d="M232.639 946.554v-39.59l-.15-181.239V354.733l-3.137-185.57V.325741"/>
      <path d="m844.643 98.6446 56.353.8617h292.184"/>
      <path d="m837.239 185.53 26.394 57.828-.398 164.86v157.168l3.448 186.877 9.708 158.943v33.009"/>
    </g>
  </g>
  <g id="First_Floor" data-name="First Floor">
    <g id="Structure-1" class="shadow building" data-name="Structure">
      <path d="M609.974 139.454v10.948H478.506v136.724h-7.951v272.502h7.927v134.083h131.534v12.817h143.553V579.065h37.599l4.791-20.333V285.9l-4.791-18.552h-37.824V139.454Z"/>
    </g>
    <g id="Floor-1" class="floor">
      <path d="M480.47461 151.96875v21.63086h9.875v-13.5918h1.7207v.82813h8.96875v-.82813h1.72071v2.54883h-10.68946v12.76367h-11.5957v2.23047h21.96289v4.50195l1.63477 4.90625h11.5664v1.72071h-12.81055l-1.92382-5.78125v20.3125l1.9414-5.37305h12.79297v1.7207h-11.58398l-1.61719 4.47266v3.9668h-22.42773v33.31836h30.70507v1.7207h-28.60937v9.45703h2.48437v-2.51562h1.72071v4.23632h-4.20508v1.24024h6.67383v-8.66406H490.5v.80859h9.71484v1.7207h-1.5957v.65821h-1.7207v-.65821H490.5v13.99024h6.39844v-12.30664h11.14648v13.09179h7.625v-14.77539h-10.58203v-1.7207h10.58203v-4.5625h-.83008v-1.7207h2.55078v14.51171h3.85157l1.96093 1.96485v1.5625h-1.7207v-.85156l-.95508-.95508h-3.13672v8.26758h-9.3457v6.13476h13.4375v-7.78125h1.7207v9.50196h-9.41992v3.99023H486.5v4.11719h27.2832v2.79882h16.28516v3.9375h-37.58398v8.77149l-9.14258 4.96094v4.44922h-1.72071v-5.47266l9.14258-4.96094v-7.74805H472.2168v83.47852h9.40429v-14.40039h1.72071V388.16016h-1.72071v-14.44532h-5.32617v7.73438h-2.68359v-1.7207h.96289v-6.01368h-2.35742v26.89844h9.40429v-7.88476h1.72071v7.88476h2.2207v13.89063h2.82617v1.7207h-12.95312v-1.7207h8.40625v-12.16993h-11.625v5.62891h-.0215v.0605h-6.73242v3.35937l-2.70703 4.86524v15l2.70703 3.6875v3.74804h5.45313l3.96679-8.2539h13.50586v1.7207h-12.40039l-3.77148 7.82617v3.7168h11.125v9.08789h-1.72071v-7.36719h-9.40429v26.60938h9.40429v-14.67383h1.72071v31.06836h-1.72071v-14.67383h-9.40429v41.22852h9.40429v-12.88282h1.72071v23.27344h-1.72071v-8.66992h-9.40429v41.33789h18.54687v-7.125l-9.14258-5.74805v-5.82617h1.72071v4.875l9.14258 5.74805v8.07617h31.80664v3.68359l-24.33594.041v7.16211h16.46484v1.7207h-16.75v11.90821h16.75v1.7207h-16.46484v7.31836h-1.7207v-.56836h-9.03321v7.58594h-2.07812v-1.72071h.35742v-5.86523h-7.64844v5.86523h5.39844v1.72071h-5.39844v1.77343h1.89063v1.72071h-1.89063v3.85742h3.2793v-4.71875h1.7207v4.71875h4.12695v-3.85742h-1.83593v-1.72071h3.55664v8.77539h-1.72071v-1.47656h-9.12695v7.54688h9.12695v-3.91016h1.72071v8.09961h-1.72071v-2.46875h-9.12695v7.99805h9.12695v-3.36914h1.72071v7.73437h-1.72071v-2.64453h-9.12695v6.50781h9.12695v-2.01758h1.72071v2.01758h.49023v1.7207h-11.33789v7.81641h2.07227v1.7207h-2.07227v32.8418h4.47656v.0644h10.2168v1.72071h-4.08984v4.22265h-1.72071v-4.22265h-4.40625v7.00976h13.55079v-7.00976h-1.35743v-1.72071h3.07813v10.45118h-6.66797v1.09179h-1.7207v-1.09179h-6.88282v.0215h-4.47656v4.72656h11.35938v-2h1.7207v2h10.7129v-13.42968h1.7207v13.42968h154.01758v-32.88086h1.7207v15.19141h8.10547v-15.19141h1.72071v15.19141h7.64843v-15.19141h1.72071v15.19141h1.41601v1.7207H661.08398v15.96875h61.3615V575.6875h1.42383v-9.95508h-1.42383v-3.86328h-24.83806v9.91602h-1.7207v-.29297h-1.7168v-1.72071h1.7168v-7.90234h-4.2461v7.90234h.36133v1.72071h-.36133v8.63867h-20.73437v.73633h-1.72266v-2.45703h3.74805v-.56836h1.7207v.56836h3.75977v-4.02539h1.7207v4.02539h9.78711v-6.91797h-16.98828v-6.44727h1.7207v4.72656h15.26758v-7.90234h-9.78711v4.72852h-1.7207v-4.72852h-3.75977v.56055h-1.7207v-.56055h-11.84766v3.17578h-1.7207v-3.17578h-15.00195v-1.50781h-6.03321v5.58203h-26.08007v4.03711h26.08007v5.47656h-27.80078v-15.0957h-29.38281v-2.33008h.11133v-.0625h17.125v-.88477h49.08984v-.94921h1.10157v-10.95313h1.7207v2.79688h7.09765v1.7207h-7.09765v6.43555h6.23828v-2.99415h-4.08789v-1.7207h5.80859v4.71485h1.78907v-6.43555h-.71485v-1.7207h.71485v-7.47657h7.54492v-15.7539h-4.17188v-1.72071h4.17188v-14.00781h-2.78125v-1.7207h3.28515v.004h2.59961v50.76368h52.19336V512.9082h15.02344v1.72071h-13.30273v12.79101h24.08398v-6.56445h1.7207v8.28515h-25.80468v28.91211h39.62304v1.23274h11.60352v-1.23274h1.43554V448.24219h3.57422v1.26953h9.75196v-1.26953h2.96484v-16.41797h-8.39648v-3.22461h1.7207v1.50391h6.67578v-13.1211h-6.67578v7.95899h-1.7207v-9.67969h8.39648v-17.10547h-2.96484v-1.29102h-9.75196v1.29102h-3.57422v-111.3125h-14.59766v1.25195H724.3164v.0664h-.42579v29.41016h26.67188v7.7832h-1.7207v-6.0625h-24.95118v12.51172h17.38868v1.7207h-19.10938V288.1621h-49.24609l-3.64453 3.64453v45.98828h-1.90235v-13.92773h-3.77734v-1.72071h3.77734v-15.74609h-7.61914v-15.52734h-2.20898v4.41015h-5.16211v-1.7207h3.4414v-2.68945h-6.48046v5.65039h7.64453v1.7207h-7.64453v2.94336h-1.72071v-10.31445h-13.00586v-1.31055h-34.12695v.99805h-1.7207l-.02343-2.40234h-28.95117v-.0586h-.006v-3.42383h.006v-.0977h2.00781v-3.27734h1.7207v3.27734h18.14258v-7.5332h1.7207v7.5332h38.87305v-7.5332h1.72071v7.5332h18.0371v-5.87695h1.72071v5.87695h25.84375v-5.87695h1.7207v5.87695h41.28906v-3.27734h1.28516v-8.71094h-1.28516V151.96875h-41.28906v5.97656h-1.7207v-5.97656h-25.84375v4.99609h-1.72071v-4.99609h-10.4746v.53906h-1.72071v-.53906h-4.09179v8.41602h-1.72071v-8.41602h-19.66015v.53906h-1.72071v-.53906h-5.0332v7.28906h-1.7207v-7.28906h-17.83594v1.28906h-1.7207v-1.28906H566.4043v3.35156h-1.72071v-3.35156h-14.41211v6.35156h-1.7207v-6.35156h-19.53125v10.66602h-1.7207v-10.66602h-16.66016v.72461h-1.7207v-.72461h-14.21875v.72461h-1.7207v-.72461zm28.44336 2.22656h1.7207v2.36133h-7.8789v1.20117h-1.72071v-1.20117h-8.96875v.63867h-1.7207v-2.35937h18.56836zm9.67383 2.14063h5.92382v6.29883h-1.7207v-4.57813h-4.20312zm67.73047.85937h1.7207v6.83008h17.83594v-1.95508h1.7207v3.67578h-35.10352v-4.50195h-7.8125v-2.92383h1.72071v1.20313h7.8125v4.50195h12.10547zm-70.65235 3.93946h1.7207v16.82617h-1.7207zm163.91602 0h1.7207v2.0625h-1.7207zm0 4.875h1.7207v10.09765h12.38086v86.17188h-12.38086v7.25586h-1.7207v-8.97657h12.3789v-82.72851h-12.3789zm-27.56446.63281h1.72071v102.89258h-1.72071v-20.21485h-34.2832v-1.7207h34.2832v-16.07813h-10.58789v-1.7207h10.58789zm-27.91601 6.95703h12.23633v41.3125h-1.72071v-10.85352h-5.92968v-1.7207h5.92968v-27.01758h-10.51562zm-75.55469.85937h1.7207v4.30274h4.30274v1.7207h-4.30274v1.93555h-1.7207zm60.69141 1.64844h6.20898v1.72266h-4.48828v36.2207h9.32422v1.7207h-9.32422v23.58594h-1.7207v-23.58594h-8.20703v-1.7207h8.20703V183.2793h-7.54492v-1.72071h7.54492zm-43.69727 2.6543h6.02149v2.79687h22.23632v1.72071h-5.75976v7.09765h-1.7207v-7.09765h-14.75586v7.09765h-1.72071v-9.89453h-4.30078zm-33.55664.55859h4.15625v4.75196h-4.15625zm1.7207 1.72071v1.31054h.71485v-1.31054zm36.13672 14.49804h1.72071v9.25h29.46875v1.72071h-29.46875v23.29101h6.10547v1.7207h-6.10547v16.07813h29.46875v1.7207h-14.70508v16.86914h10.27344v1.72071h-11.99414V258.375l-5.13672-9.05469h-9.62696zm-37.85742 10.63086h4.15625v4.16016h-4.15625zm1.7207 1.7207v.71876h.71485v-.71876zm-28.54296 24.16016h4.72265v4.34766h-4.72265zm1.7207 1.7207v.90625h1.28125v-.90625zm41.0664 15.92383h3.29102v6.13672l8.81055 5.38281h14.83203v6.69532h-4.41211v-2.09375H556.5918l-.25-.23243-8.38868-7.84765zm62.05274 8.45313h1.7207v8.04101h20.53711v-7.47851h1.72071v7.47851h8.04492v1.72071h-27.75782v6.46289h-1.7207v-6.46289h-8.56055v-1.72071h6.01563zm-78.58008.34765h4.71875v4.43946h-4.71875zm1.7207 1.72071v.99804h1.27735v-.99804zm146.43946 13.20508h1.7207v2.25195h-1.7207zm-131.63282 10.20507h5.07227v5.28321h-5.07227zm1.72071 1.72071v1.84179h1.63086v-1.84179zm-69.20117 5.68554h1.7207v2.28125h-7.82031v-1.7207h6.09961zm154.78906 3.38868h1.7207v1.34765h5.89844v.53125h.008v32.02344h17.54297v9.44336h-1.61328v16.62695h-22.91211v-24.34961h-42.91602v3.11914l2.11719 2.11719-2.97656 2.98047-2.42188-2.42188h-12.65625l-2.42382 2.42188-3.27735-3.28125 1.81446-1.81641v-3.11914h-28.92579v13.39649h15.76172v1.7207h-17.48242l-.0215-43.7168h56.27539v-6.72265h1.7207v1.04687h9.94531v1.7207h-1.00586v.61524h-1.72265v-.61524h-7.2168v3.79883h5.01172v1.72071h-5.03516v9.78711h7.70508V299.9668h10.35938v12.83008h7.18359v-9.78711h-4.86914v-1.72071h4.86914v-3.79883h-6.99805v.61524H617v-.61524h-.67578v-1.7207H629.52344v1.7207h-.77539v7.18946h3.51562v-7.18946h-1.2832v-1.7207h4.28125zm12.36523 9.76757h1.72071v.54102h7.64453v1.7207h-.53907v6.8086h-3.0625v-1.72266h1.3418v-5.08594h-5.38476v5.08594h1.63672v1.72266h-1.63672v1.9414h-1.72071v-9.60937zm-153.66015 2.32227h11.10351v1.72266h-9.38281v10.32226h31.03516v-10.32226h-8.69922v-1.72266h10.41992v51.94336h-2.05078v-1.7207h.33008v-10.01172h-13.96875v10.01172h10.16211v1.7207l-28.94336.0527-.006-23.74804h1.7207v9.19335h13.51367v-21.32028H495.6875v7.94141h-1.7207v-11.42383zm15.64843 0h3.53125v1.72266h-3.53125zm-27.99414 4.7539h1.72071v4.17774h-1.72071zm166.00586 6.4375h1.72071v4.44336h11.04687v1.72071h-12.76758zm-166.00586 2.43946h1.72071v22.84765h-1.72071zm267.22071 8.86523h1.7207v2.79688h9.43164v26.02734h-1.72266v-24.30664h-9.42968zm-4.33594 2.79688h1.50586v1.7207h-1.50586zm-270.89453 8.80664h2.68359v7.97851h-2.68359v-1.7207h.96289v-4.53711h-.96289zm108.76758 4.00781h4.22265l3.36524 3.36524V354.75l-2.85742 2.86133h-5.75977l-3.2793-3.28125 1.21485-1.2168 2.77734 2.77734h4.33398l1.84961-1.85156v-5.34179l-2.35742-2.35743h-3.50976zm-2.79493.92383 1.2168 1.2168-2.18945 2.18945-1.2168-1.2168zm-97.96289 3.31836h1.72071v4.04883h-1.72071zm118.94141 7.75586h21.55664v10.1289h-1.7207v-8.4082h-19.125l-2.17188 2.17188-1.21679-1.21875zm35.34375 1.51953h22.91211l-.0156 10.12305h-1.7207v-2.03125h-19.4375v1.66992h-1.7207zm-94.0918.9043h10.95313v1.7207h-9.23242v2.29687h-1.72071zm13.98047 0h10.62305l5.44336 5.44921-1.2168 1.21485-4.94141-4.94336h-9.9082zm202.47656 4.38281h1.72266v17.42383h-1.72266zm-216.45703 2.29687h1.72071v6.73828h31.52343v-2.74609l-1.88476-1.88672 1.21679-1.21679L576.7793 369v31.20117h-1.72071v-6.76758h-28.56054v21.02539h8.29101v1.72071h-18.68359v-1.72071h6.39258v-21.02539h-46.79688v21.02539h7.84766v1.72071h-9.56836v-44.18555h9.56836v1.7207h-7.84766v14.8711h28.80274v-14.8711h-6.02344v-1.7207h23.33398zm49.96094.39649 1.17578 1.25586-2.00781 1.88281v6.51172h29.45508v-2.91406h1.7207l.0176 37.21289-32.91406-.0137V401.25h1.7207v7.08203h11.70117v-11.9375H589.2051v-4.68164h13.43945v-9.89844h-11.70117v5.60547h-1.7207v-18.91015zm-81.37891 5.87695h2.51758v1.7207h-2.51758zm125.52735.85938h1.7207v2.91406h19.4375v-2.91406h1.7207v29.11328l-2.58398 2.55078-1.20898-1.22461 2.07226-2.04492v-1.20508h-21.17578zm122.34765 14.01562h1.72266v13.55078h-16.34766v7.31446h-1.7207v-9.03516h16.3457zm-183.21289 19.29492h1.72071v10.01563h-7.94336v-1.72071h6.22265zm-64.66211 8.29492h19.88086v1.72071h-19.88086zm48.89649 0h3.71289v1.72071h-3.71289zm73.88281 1.59375 1.21875 1.2168-.98633.98633v7.08594h.37891v1.7207h-2.09961v-9.51953zm3.57227 0 1.49023 1.49024v9.0293h.99024v3.4707h-1.72071v-2.98047h-1.36914v-1.7207h.37891v-7.08594l-.98828-.98633zm105.17773 1.14649h1.7207v11.40039h-1.7207zm-98.72266 7.64453h10.02735v7.0625h15.12305v1.7207h-16.84375v-7.0625h-8.30665zm-149.22265 5.76758h9.56836v1.7207h-7.84766v9.07813h-1.7207zm16.41601 0h19.08399v1.7207h-19.08399zm25.17969 0h17.75391v1.7207h-6.83203V453h28.76367v-6.68555h1.7207v19.48047h-1.7207v-7.88672h-45.84961v16.40235l-11.12891-.0195v-1.72071h6.22071V457.9082h-28.80274v14.66211h7.84766v1.72071h-9.56836v-27.97657h1.7207V453h46.11328v-20.66797h-6.23828zm21.73047 0h6.49414v1.7207h-6.49414zm10.86524 0h8.81054v9.60742h-1.7207v-7.88672h-7.08984zm76.02929 2.90039h1.72071v7.18945h-1.72071zm-6.69336.49414h1.72071v3.34766h-1.72071zm-48.32422 1.61719H610.61523v1.7207h-4.34375v26.5918h14.13868v-13.44727h1.72265v23.78906h-1.72265v-5.43359H590.9043v9.04297l2.8457 2.8457-1.2168 1.2168-3.34961-3.34961v-27.74219h1.72071v13.07813h13.64648v-26.5918H590.9043v8.43164h-1.72071zm25.02344 0h7.92578v9.41406h-1.72265v-7.69336h-6.20313zm127.89844 3.06836h1.7207v6.05664h17.21289v69.88086H750.4082v2.51367h-1.7207v-2.51367h-3.36133v-1.72071h13.99219v-66.43945h-17.21289zm-90.5957.77343h16.84375v1.72071h-15.12305v6.65234h5.58984v3.93164h-1.7207v-2.21094h-6.79883v-1.7207h1.20899zm-14.00196 2.84375h1.72071v3.4668h-1.72071zm-1.5957 5.5293h9.5625v1.7207h-7.8418v2.21094h-1.7207zm0 8.46094h1.71875v1.48437h19.4668v-1.48437h1.7207v16.87305h-8.88672v3.30664h7.82031v1.7207h-7.82031v7.3789H657.75195v1.72071h-4.40039v5.14062h4.40039v1.72071h-4.40039v5.27539h4.40039v1.7207h-4.40039v6.14844h5.95703v-.006H661.75v1.7207h-1.56836v9.71875H643.0957v31.21484h-11.28906v-8.66015h-3.0625v8.66015h-3.31641v-.0215h-9.12109v-1.7207h9.12109v-2.85352h-4.75v-1.7207h4.75v-9.40625h-6.47851v12.75781h-11.51758v-12.75781h-6.48242v9.40625h4.41797v1.7207h-4.97657v2.85352h9.89454v1.7207h-9.89454v.88086h-1.7207v-6.10352h-1.79883v.004h-5.49804v-1.7207h5.3457v-21.7461h-54.9043v-20.01757h22.45117v1.7207h-20.73046v14.06836h29.49414v-3.39063l-2.52539-2.6582 3.45898-3.1875 2.99805 3.50586h12.29101l3.94922-4.58203v3.60156h5.23047v2.50391h-1.7207v-.78321h-3.50977v4.99024h3.50977v-1.33789h1.7207v1.33789h37.47461v-14.06836h-36.0625v-1.7207h36.0625zm-60.65039 14.66211h1.7207v7.11328l-9.3125 9.32031h-8.63867v-1.7207h7.92383l8.30664-8.3125zm-66.73633 1.60937h4.48828v1.72071h-4.48828zm27.05078 0h7.95899v13.10352h9.79492v1.7207h-11.51563v-13.10351h-6.23828zm84.83399 6.04297h1.72265v10.27734h-23.02734l-3.10156-3.0996 1.21679-1.2168 2.59571 2.5957h20.59375zm-126.42969 9.21875h11.22461v1.7207h-9.50391v8.78516h30.82422v-8.78516h-8.79297v-1.7207h10.51367v10.50586h.0254l-.0254 41.33399h-10.51367v-1.72071h8.79297v-9.86914h-30.82422v9.86914h8.71289v1.72071h-10.43359v-23.8379h1.7207v7.79102H510.375v-20.83398h-14.67383v8.05664h-1.7207zm15.71484 0h3.31836v1.7207h-3.31836zm68.77735 2.17578h1.7207v2.47852l-1.26172 1.25586v6.95898l-.86523.86914 1.62109 1.62305h7.10547l1.12891-1.12695-1.99219-1.98829 1.70117-1.69335v-8.37696h1.7207v9.08985l-.98437.98046 1.99219 1.98829-2.85352 2.84765h-8.5293l-3.34179-3.34179 1.57617-1.58204v-6.96289l1.26172-1.25586zm70.09961 33.01953h12.25976v1.72071h-10.53906v3.65625h-1.7207zm-106.67969 2.80078h1.7207v17.12891h9.04102v1.72266h-10.76172zm106.67969 5.37305h1.7207v2.36524h.64453v1.7207h-.64453v4.94727h4.08594v-4.94727h-1.07422v-1.7207h2.79687v6.66797h1.28906v1.7207h-7.09765v.21484h-1.7207V534.42773zm-139.26758 6.75h4.09961v1.72071h-4.09961zm58.20508 5.04102h6.32031v1.7207h-6.32031zm91.85351 24.6289h1.7207v11.65039h-1.7207zm13.56836 5.17579h1.7207v3.3164h-1.7207zm22.95508 2.74023h1.7207V676.56445h-6.68554v-1.7207h4.96484v-38.61523h-5.95703v-1.72071h5.95703v-48.33203h-1.7168v-1.7207h1.7168zm-36.52344 6.71484h1.7207v52.25586h21.46094v1.72071h-2.26562v15.18554h-1.72071v-15.18554h-17.47461v15.61132h-1.7207v-16.4707zm9.82031 1.21289h1.72071v.99024h21.09765v1.7207h-.36133v2.75391h-1.7207v-2.75391h-11.19726v20.45117h11.19726v-15.41406h1.7207v29.61133h-1.7207v-12.47656h-11.29687v20.74023h11.29687v-5.86328h1.7207v7.58398l-27.60156-.008.0215-37.66016h1.7207v13.43165h11.2207v-20.39649h-11.2207v4.43555h-1.7207v-6.15625h5.12304zm-141.95507 4.92383 1.21484 1.2168-6.79102 6.79297-1.21679-1.2168zm-28.99414 6.14649h1.7207v3.01953h-4.5957v6.10351h3.63671v1.72071h-3.63671v5.39062h3.63671v1.7207h-3.63671v5.56836h3.63671v1.72071h-3.63671v5.5664h3.63671v1.72071h-3.63671v5.20507h3.63671v1.72071h-3.63671v.89843h-2.39063v-1.7207h.66992V595.83394h4.59571zm15.58398 7.44336 1.2168 1.21679-1.67969 1.67969v31.22852h-1.7207v-31.94141zm171.2832 32.52929h2.12891v1.72071h-2.12891zm-15.91211 6.32813h1.72071v10.57812h-1.72071zm-184.58789 1.87109h10.48828v5.49024h16.54493v-4.17774h1.7207v5.89844h-8.00977v25.95312h-1.7207v-5.4375h-18.26172V648.42969h1.7207v6.69726h6.28516v-.75976h1.7207v5.3457h.40039v1.7207h-2.12109v-4.58593h-6.28516v11.86523H503.625v-7.2793h-5.70508v-1.7207h5.70508v-9.79492h-8.53516v2.28906h-1.7207v-7.7793h-6.28516v.94336h-1.7207v-.94336h-.76172zm200.5 32.13672h2.12891v1.7207h-2.12891z"/>
    </g>
    <g id="Ramps-1" class="road_tarmac road_small" data-name="Ramps" transform="translate(.339458 .675452) scale(.888877)">
      <path d="M655.957 554.108v11.925" style="stroke:url(#linearGradient84);stroke-width:12"/>
      <path d="M583.691 335.255H568.87" style="stroke:url(#linearGradient187)"/>
      <path d="M652.432 326.343h13.403" style="stroke:url(#linearGradient190)"/>
      <path d="M579.816 313.94h-33.074" style="stroke:url(#linearGradient194)"/>
      <path d="M563.053 216.585h17.896" style="stroke:url(#linearGradient192)"/>
      <path d="M717.221 638.191h-28.934" style="stroke:url(#linearGradient185)"/>
      <path d="M561.802 648.207h18.351" style="stroke:url(#linearGradient183)"/>
      <path d="M583.585 615.841h-14.653" style="stroke:url(#linearGradient180)"/>
      <path d="M533.58644 475.528h18.362" style="stroke:url(#linearGradient178)"/>
      <path d="M573.383 475.528h14.56" style="stroke:url(#linearGradient175)"/>
      <path d="M638.579 475.435h-14.653" style="stroke:url(#linearGradient173)"/>
      <path d="M673.541 475.528h14.838" style="stroke:url(#linearGradient169)"/>
      <path d="M887.832 468.502v14.181" style="stroke:url(#linearGradient240)"/>
      <path d="M652.985 622.444h14.07" style="stroke:url(#linearGradient244)"/>
    </g>
  </g>
  <g id="Second_Floor" data-name="Second Floor">
    <g id="Structure-2" class="shadow building" data-name="Structure">
      <path d="M478.391 150.707v136.225h-7.941v272.691h8.001v134.16l245.50536.01v-133.83H778.945V449.782h16.527v-53.269h-17.089V286.785h-54.42664V150.707Zm101.016 190.75h8.169l5.72 5.748v8.211l-5.72 5.749h-8.169l-5.721-5.749v-8.211zm.457 73.049h7.368l2.522 2.522h28.601l2.815 2.791v7.215l-2.878 2.876h-28.653l-2.589 2.588h-7.232l-2.587-2.588h-28.387l-2.961-2.961v-7.13l2.793-2.791h28.646zm-81.455 2.522h30.392l2.815 2.791v7.215l-2.878 2.876H498.58l-2.961-2.961v-7.13zm80.918 68.909h8.152l5.706 5.741v8.202l-5.706 5.744h-8.152l-5.707-5.744v-8.202z"/>
    </g>
    <g id="Floor-2" class="floor" data-name="Floor">
      <path d="M492.61705 288.89528v8.0165l-8.93987 6.43083v28.93832l-.005 11.44555h-1.71913v-11.40526l-8.62508.005-1.25997-.0202v39.17174h9.88505v-13.14708h1.71915v14.86621H472.068v35.37083h-7.37931v5.13222l-2.24378 4.16863v11.87113l2.24378 4.17277v5.45375h7.37938v33.68693h10.59018v16.55514h-1.71914v-14.836h-8.87104v39.05843h8.87104v-12.45035h1.71914v12.45035l.0428.56912v4.41285l-.0428.56914v7.70423h-1.71914v-8.27367h-8.87104v40.22355h18.5454v-8.44882l-9.67436-5.03402v-5.55699h1.71914v4.51358l9.67436 5.03235v9.4939h31.12502v-11.67305h5.45374v1.71913h-3.7346v9.95392h27.26954v-9.95392h-4.64118v-1.71913h4.64118l.6027-.026h35.81321v11.69941h9.88926v-5.69047h1.71914v5.69047h34.85542v-3.34007h1.71913v3.34007h23.35447v-8.98268h-7.91241v3.17555h3.96292v1.71914h-5.68207v-4.89469H637.157v.83775l-.11159.50281v1.58149h-1.71914v-2.0843h-3.70438v-8.95245h-3.32245v6.96721h.8428v1.71914h-13.96367v-1.71914h9.92368v-14.08386h-6.88077v12.45453h-10.61621v-12.45453h-7.13426v14.08386h9.88926v1.71914h-9.88926v.74374h-1.71918V536.3047l-45.94002-.0218v-1.71913h4.67643v-13.08666h-13.64112v13.08664h6.12024v1.71913h-7.83938v-34.41723h8.8064v1.71913h-7.08726v13.50886h29.9515v-4.67652l-1.24571-1.24236 1.21633-1.21632 1.20373 1.20373h15.06991l11.5656-11.56559h24.13875v-9.91528h4.64117v1.71916h-2.92202v8.19612h3.35686v-4.60339h-1.63772v-1.71913h4.98954v1.71913h-1.63268v4.60339h3.7942v-8.19612h-3.5365v-1.71916h3.5365v-23.32842h-2.67694v-1.71916h2.67694v-82.70341h-3.65318v-1.71915h3.65318v-23.0187h-2.85322v-1.71914h2.85322v-8.05931h-4.06954v4.70666h1.21632v1.71914h-3.99312v-1.71914h1.05766v-4.70666h-2.59214v8.05931h2.81123v1.71914l-4.53037-.00066v-9.77759h-3.54574v.6195l-1.71913-.00067v-2.00286h-20.09999l-10.11673-10.11255h-14.64381l-1.86939 1.87024-1.21631-1.21213.7731-.77311v-5.6913h-30.4283v12.75674h8.39761v1.71914l-10.11675-.00066v-34.08398l8.20454.00066v1.71914h-6.4854v13.34601h14.03266v-13.34667h-3.08153v-1.71914l44.60282.009v-15.782h1.71913v1.6503h9.30502v1.71914h-9.30502l.0427 15.39253h7.06544v-13.64568h10.34506v13.64568h7.22074V298.0993h-9.76922v-1.71914h13.97221v1.71914l-.60186.0336v6.93616h3.29641v-6.96977h-.63124v-1.71914l3.96208.00067v-1.65115h1.71915v2.50652h22.4949v-8.34138h-7.11246v2.92287h4.09135v1.71915h-5.81048v-4.64202h-13.66331v2.96401h-1.71915v-2.96401h-34.9024v2.96401h-1.71914v-2.96401h-10.47435v10.16039h-34.12839l-.50198.12256h-6.8606v-1.71914h5.42352v-8.5635h-26.80954v8.5638h16.93791v1.71914H523.8537v-10.28294zm4.25411 6.03772h21.97949v7.8523h-21.97949v-1.71914h20.26035v-4.41401h-20.26035zm-1.79208 14.97391h10.34926v1.71999h-8.63012v9.55096h12.29673v-10.66572h4.54296v10.66572h12.96659v-9.55096h-8.61333v-1.71999h10.33247v22.8953h-1.71914v-7.86625h-9.57196v4.31633h-1.71914v-4.31633h-1.67549v18.35654h12.96659v-6.84634h1.71914v22.50413l-1.05264.0209h-18.17605v-10.82267h-12.29673v8.92728h7.71935v1.71913h-9.43849v-21.61432h1.71914v6.11186h12.29673v-18.35654h-12.29673v7.31978h-1.71914zm23.8875 17.39371h1.71914v12.54101h3.28383v1.71914l-5.00297-.00067zm-3.65318 4.95513h1.71914v8.44545h-1.71914zm52.92403 8.62592 1.21632 1.21633-2.48805 2.48805-8.81563.00067v-1.71914h8.10213zm11.16957.57533h8.169l5.72 5.748v8.211l-5.72 5.749h-8.169l-5.721-5.749v-8.211zm-97.45316 7.36227h1.71914v3.96292h-1.71914zm139.01791 7.51369h1.71913v3.09328l-21.57068.00066-1.58147 1.58148-1.21633-1.21214 2.08429-2.08932 20.56506.00067zm-78.60286 3.00347h24.04615l9.10272 9.1027-.0511 26.07589h-1.71915v-2.32606h-27.28719v15.58056h7.02682v1.71915h-17.8873v-1.71915h5.58302v-10.24264h-19.03983v10.24264h6.45517v1.71915l-25.1332-.001-1.91305-1.91221 1.21633-1.21633 1.41359 1.41024h11.79391v-8.26077h-.62369v-1.71915h.62369v-23.96891h-.62369v-1.71915l27.01687-.0177zm49.01231 7.46198 1.21632 1.21632-1.18611 1.18611v9.76418l5.14065-.0608v-9.22695h11.77544v1.5949h6.09925v-1.5949h7.70172v6.60627h-1.71913v-4.88713h-4.26345v4.88713h-1.71914v-3.29223h-6.09925v3.29223h-1.71914v-4.88713h-8.33717v7.50781h8.33717v-.70847h1.71914v.70847h6.09925v-.70847h1.71914v.70847h4.26345v-.70847h1.71913v2.01545h2.57452v1.71915h-2.57452v16.85647h-1.71913v-16.38388h-9.00872v3.55833l-.0763.53387h-1.68556l-.10072-.53387h-2.58541v14.51867h2.68615v-1.21632h1.71914v2.93547h-4.40529v5.57041h13.45681v-5.63421h1.71914v7.35251h-32.43627v-20.11766h1.71916v18.39933h11.15341V382.4029l-11.15343.0608v1.85682h-1.71914v-15.82061zm-95.75566 5.30229 17.11419.00066v1.71916h-.6195v3.79922h-1.71914v-3.79922h-1.9206v3.79922h-1.71914v-3.79922h-9.41666v5.44114l14.77554-.00067v7.45327h-1.71914v-5.73328h-1.9206v5.73328h-1.71914v-5.73328h-9.41666v7.37519l14.77554-.001v6.99744h-1.71914v-5.27746h-1.9206v5.27746h-1.71914v-5.27746h-9.41666v7.7143h16.30162v1.71915h-16.30162l.0235.62956 1.08537 1.08539-1.21213 1.21632-1.61589-1.61673zm114.01314 16.62901h1.71914v8.90125h-1.71914zm-35.89127 8.90125h1.71915v11.85686l-6.87237.00067v-1.71916h5.15322zm-14.58248 10.13856h3.83785v1.71915h-3.83785zM579.864 414.506h7.368l2.522 2.522h28.601l2.815 2.791.0292 1.53949H599.334v4.34904l21.86518.0942-.0292 1.23227-2.878 2.876h-28.653l-2.589 2.588h-7.232l-2.587-2.588h-28.387l-2.961-2.961-.1087-1.24147h21.60569v-4.36059l-21.49697-.08265V419.819l2.793-2.791h28.646zm-51.063 2.522 2.815 2.791v1.52794h-21.38318v4.44324H531.616v1.24382l-2.878 2.876H498.58l-2.961-2.961v-7.13l2.79-2.791zm-25.33607 20.16419h50.02214v1.71913h-7.02682v5.24304h1.62428v1.71916h-1.62428v8.64691h2.50987v-5.45794h-1.37078v-1.71915h4.34067v1.71915h-1.25075v5.45794h2.58291v-8.64691h-3.15035v-1.71916h4.86949v3.18898h8.87104v2.34199h6.97981v1.71916h-6.97981v1.53026h-1.71914v-3.87226h-7.1519v5.45794h14.25595v-2.1355h1.71913v2.1355h2.94387v-15.60911h-5.68961v-1.71913h7.40875v42.50509l-8.3892 8.39424h-8.07527v-1.71914h7.35755l7.38778-7.38273v-20.37704h-5.50914v4.74442l-.026.60272v9.02464h-4.11738v-1.71913h2.39824v-7.90823h-2.7936v4.58998h1.20792v1.71915h-4.135v-1.71915h1.20793v-4.58998h-2.9229v8.08451h3.22758v1.71915h-4.94673v-5.69046h-2.55269v-1.71914h2.55269l-.0127-2.9296v-4.20888h-13.40046v4.74442l-.0176.90407v1.48999h7.86959v1.71914h-9.58874v-3.61457h-6.92777l-.13431-.49863-.33408-.30133v-4.44309h-14.29456v3.52391h.82935v1.71914h-.82935v8.6041h9.25717v1.71914h-14.62109v-1.71914h.67909V450.2444h-19.1683v6.34353h9.95809v-4.57739h1.71914v4.57739h2.54849v-4.57739h1.71914v6.29652h-15.94486v7.44403h9.95809v-5.19185h1.71914v5.19185h2.54849v-5.19185h1.71914v6.91099h-15.94486v4.98953h9.95809v-3.0639h1.71914v3.0639h2.54849v-3.0639h1.71914v4.78304h-17.66397v-27.84539l1.52104-1.52187 1.21632 1.21632-1.01822 1.01906v1.47824h7.82176v-.6917h1.71914v.6917h9.62736v-2.93966h-9.62736l-.2342.39956h-1.48494v-2.11872h11.3465v-4.95512h-11.79727l-1.41023 1.4094-1.21634-1.21633zm55.7 0h3.28299v1.71913h-3.28299zm29.49569 0h33.29997v7.22408h-1.71914v-5.50495h-13.28893v6.19328h3.56756v2.41083h-1.71913v-.6917h-1.84843v14.81417h1.84843v-.87636h1.71913v3.87226h9.72137v-16.43088h1.71914v16.43088h2.66433v1.71916h-3.69598v.7731h-1.71915v-.7731h-2.92623v2.321h-1.71914v-2.321h-17.03276v8.34218h9.46368v-4.99036h1.71913v4.99036h5.84995v-2.7508h1.71914v2.7508h2.92623v-4.99036h1.71915v6.7095h-25.11642v-10.06132h-5.43276v10.83108l2.2354 2.23876-1.21634 1.21211-2.7382-2.734v-15.5923h1.71914v2.32519h5.43276v-9.20596h2.23455v-3.61456h1.71914v3.61456h1.54789v1.71914h-3.78244v7.48682h5.03318v-11.96094h-1.25074v-1.71914h1.25074v-12.0424h-12.18508v19.09524h-1.71914zm20.14033 12.3857h1.71913v8.94407h-1.71913zm-85.07651 12.55863h8.6041v1.71914h-8.6041zm11.69905 10.32324h8.42363v13.91262h9.63995v1.71914h-11.35909V474.1789h-6.70449zM579.327 485.937h8.152l5.706 5.741v8.202l-5.706 5.744h-8.152l-5.707-5.744v-8.202zm20.18571-.14971 1.46899 1.46564h20.97889v3.28803h-1.71914v-1.56888h-19.97243l-1.96844-1.96845zm-104.29596 2.5401h18.02999v10.37948h14.23412v4.09136h-14.23412v14.45406h4.9333v2.11451h-1.71914l-.2342-.39538h-2.97996v2.86245h3.21416v-.98466h1.71914v.98466h7.67234v-8.39844h1.71914v23.22602h-10.25106v-1.71914h8.53192v-9.01709h-12.60564v10.37948h-4.38851v-10.37948h-12.05078v9.01709h8.03665v1.71914h-9.75579v-22.63676h1.71914v7.80918h12.05078v-19.03564h-2.66013v10.39712h1.24234v1.71914h-2.96149v-12.11626h-7.6715v5.54188h-1.71914v-19.98669zm-14.27693 5.39834h1.71914v4.02253h-1.71914zm75.47012 8.13991h10.12598l2.29499 2.29498-1.21634 1.21213-1.79132-1.78798h-9.41331zm-75.47012 28.94168h1.71914v6.12443h-1.71914zm15.4867 13.52209h22.24642v7.89488h-22.24642v-1.71914h20.52727v-4.4566h-20.52727zm35.89362 3.03386h9.97572v1.71914h-9.97572z" style="display:inline;fill-opacity:1;stroke:none;stroke-width:1.62439;stroke-dasharray:none;stroke-opacity:1"/>
    </g>
    <g id="Ramps-2" class="road_tarmac road_small" transform="translate(.294605 .974665) scale(.888648)">
      <path d="M558.473 335.185h23.139" style="stroke:url(#linearGradient208)"/>
      <path d="M598.056 475.547h-24.22" style="stroke:url(#linearGradient206)"/>
      <path d="M613.831 475.454h24.313" style="stroke:url(#linearGradient204)"/>
      <path d="M698.707 475.56h-24.605" style="stroke:url(#linearGradient202)"/>
      <path d="M558.541 615.899h22.873" style="stroke:url(#linearGradient199)"/>
    </g>
  </g>
</svg>
