<svg xmlns="http://www.w3.org/2000/svg" xml:space="preserve" id="svg1266" version="1.1" viewBox="0 0 720 586">
  <g id="First-Level">
    <g id="Rooms">
      <path d="M328.046 264.181h8v3h1v3h9v-6h24v6h36v-6h21v6h57v66h3v48h-3v66h-42v-20c0-1.061-.42-2.078-1.17-2.828-.75-.751-1.77-1.172-2.83-1.172h-48.34c-1.06 0-2.08-.421-2.83-1.172-2.3-2.295-7.36-7.361-9.66-9.656-.75-.751-1.77-1.172-2.83-1.172h-26.68c-1.06 0-2.08.421-2.83 1.172-2.3 2.295-7.36 7.361-9.66 9.656-.75.751-1.17 1.768-1.17 2.829v22.343h-24v-22.343c0-1.061-.42-2.078-1.17-2.829-2.3-2.295-7.36-7.361-9.66-9.656-.75-.751-1.77-1.172-2.83-1.172h-26.68c-1.06 0-2.08.421-2.83 1.172-2.3 2.295-7.36 7.361-9.66 9.656-.75.751-1.77 1.172-2.83 1.172h-48.34c-1.06 0-2.08.421-2.83 1.172-.75.75-1.17 1.767-1.17 2.828v20h-42v-180h54v-6h24v6h36v-6h24v6h9v-3h1v-3h8v3h2v-3h8v3h2Zm-1 78h-10v24h10Zm115-36h-30v18h30Z" style="fill:#595959"/>
      <path d="M328.046 264.181h8v3h1v3h9v-6h24v6h36v-6h21v6h57v66h3v48h-3v66h-42v-20c0-1.061-.42-2.078-1.17-2.828-.75-.751-1.77-1.172-2.83-1.172h-48.34c-1.06 0-2.08-.421-2.83-1.172l-9.66-9.656c-.75-.751-1.77-1.172-2.83-1.172h-26.68c-1.06 0-2.08.421-2.83 1.172l-9.66 9.656c-.75.751-1.17 1.768-1.17 2.829v22.343h-24v-22.343c0-1.061-.42-2.078-1.17-2.829l-9.66-9.656c-.75-.751-1.77-1.172-2.83-1.172h-26.68c-1.06 0-2.08.421-2.83 1.172l-9.66 9.656c-.75.751-1.77 1.172-2.83 1.172h-48.34c-1.06 0-2.08.421-2.83 1.172-.75.75-1.17 1.767-1.17 2.828v20h-42v-180h54v-6h24v6h36v-6h24v6h9v-3h1v-3h8v3h2v-3h8v3h2Zm8 4h-1v-3h-6v3h-4v-3h-6v3h-4v-3h-6v3h-1v3h-11v-6h-22v6h-38v-6h-22v6h-54v178h40v-19c0-1.326.53-2.598 1.46-3.536.94-.937 2.21-1.464 3.54-1.464h48.34c.8 0 1.56-.316 2.12-.879l9.66-9.657c.94-.937 2.21-1.464 3.54-1.464h26.68c1.33 0 2.6.527 3.54 1.464l9.66 9.657c.93.938 1.46 2.21 1.46 3.536v21.343h22v-21.343c0-1.326.53-2.598 1.46-3.536l9.66-9.657c.94-.937 2.21-1.464 3.54-1.464h26.68c1.33 0 2.6.527 3.54 1.464l9.66 9.657c.56.563 1.32.879 2.12.879h48.34c1.33 0 2.6.527 3.54 1.464.93.938 1.46 2.21 1.46 3.536v19h40v-66h3v-46h-3v-66h-57v-6h-19v6h-38v-6h-22v6h-11Z"/>
      <path d="M235.045 54.181h30v59.998h-30Z" style="fill:#595959"/>
      <path d="M265.043 114.179h-29.998V54.181h29.998Zm-.992-.999v-58h-28v58Z"/>
      <path d="M247.046 67.1817h17.999v10h-17.999Zm0 14h17.999v10h-17.999Z" style="fill:#264a73"/>
      <path d="M82.0461 432.185h12v18h-12Z" style="fill:#595959"/>
      <path d="M94.0461 432.185v18h-12v-18Zm-1 1h-10v16.001h10Z"/>
      <path d="M82.0461 450.181h12v7h-24v-43h12Z" style="fill:#595959"/>
      <path d="M82.0461 450.181h12v7h-24v-43h12Zm-1 0v-35h-10v41h22v-5h-12Z"/>
      <path d="M94.0441 450.18h17.9999v60H94.0441Z" style="fill:#435570"/>
      <path d="M112.044 450.18v60H94.0441v-60Zm-1.001 1H95.0454v58h15.9976Z"/>
      <path d="M154.05 468.182h24v42h-24Z" style="fill:#435570"/>
      <path d="M178.05 468.182v42h-24v-42Zm-1 1h-22v39.999h22Z"/>
      <path d="M154.05 450.181h24v18h-24Z" style="fill:#435570"/>
      <path d="M178.05 450.181v18h-24v-18Zm-1 1h-22v16h22Z"/>
      <path d="M133.046 492.184h21v18h-21Z" style="fill:#595959"/>
      <path d="M154.046 492.184v18h-21v-18Zm-1.002 1h-18.996v16.001h18.996Z"/>
      <path d="M112.048 496.181h21v14h-21Z" style="fill:#595959"/>
      <path d="M133.048 496.181v14h-21v-14Zm-.997 1h-19.005v12h19.005Z"/>
      <path d="M112.048 450.18h42.001v21h-42.001Z" style="fill:#595959"/>
      <path d="M154.049 450.18v21h-42.001v-21Zm-.998 1h-40.005v19h40.005Z"/>
      <path d="M112.046 496.181v-25h42v21h-21v4Z" style="fill:#595959"/>
      <path d="M112.046 496.181v-25h42v21h-21v4Zm1-4v3h19v-4h21v-19h-40Z"/>
      <path d="M112.05 390.182h48v60h-48Z" style="fill:#6b6348"/>
      <path d="M160.05 390.182v60h-48v-60Zm-1 1h-46v57.999h46Z"/>
      <path d="M94.0461 408.184h17.9999v42H94.0461Z" style="fill:#404040"/>
      <path d="M112.046 408.184v42H94.0461v-42Zm-1 1H95.0461v40h15.9999Z"/>
      <path d="M331.046 552.179h18v24h-18Z" style="fill:#404040"/>
      <path d="M349.046 552.179v24h-18v-24Zm-1 1h-16v22h16Z"/>
      <path d="M283.046 552.179h18v24h-18Z" style="fill:#404040"/>
      <path d="M301.046 552.179v24h-18v-24Zm-1 1h-16v22h16Z"/>
      <path d="M94.0461 312.176h17.9999v-42H94.0461Z" style="fill:#404040"/>
      <path d="M112.046 312.176H94.0461v-42h17.9999Zm-1-1v-40H95.0461v40Z"/>
      <path d="M514.046 108.178h18V66.1775h-18Z" style="fill:#404040"/>
      <path d="M532.046 108.178h-18V66.1775h18Zm-1-1V67.1776h-16v40.0004Z"/>
      <path d="M532.046 270.175h18v-42h-18Z" style="fill:#404040"/>
      <path d="M550.046 270.175h-18v-42h18Zm-1-1v-40h-16v40Z"/>
      <path d="M94.0461 390.181h17.9999v18H94.0461Z" style="fill:#404040"/>
      <path d="M112.046 390.181v18H94.0461v-18Zm-1 1H95.0461v16h15.9999Z"/>
      <path d="M331.046 534.179h18v18h-18Z" style="fill:#404040"/>
      <path d="M349.046 534.179v18h-18v-18Zm-1 1h-16v16h16Z"/>
      <path d="M283.046 534.179h18v18h-18Z" style="fill:#404040"/>
      <path d="M301.046 534.179v18h-18v-18Zm-1 1h-16v16h16Z"/>
      <path d="M532.046 210.182h18v18h-18Z" style="fill:#404040"/>
      <path d="M550.046 210.182v18h-18v-18Zm-1 1h-16v16h16Z"/>
      <path d="M94.0461 330.18h17.9999v-18H94.0461Z" style="fill:#404040"/>
      <path d="M112.046 330.18H94.0461v-18h17.9999Zm-1-1v-16H95.0461v16Z"/>
      <path d="M514.046 126.181h18v-18h-18Z" style="fill:#404040"/>
      <path d="M532.046 126.181h-18v-18h18Zm-1-1v-16h-16v16Z"/>
      <path d="M70.0456 510.181H179.045v23.998H70.0456Z" style="fill:#435570"/>
      <path d="M179.045 534.181H70.0456v-24H179.045Zm-.999-1v-22H71.0447v22Z"/>
      <path d="M178.046 450.179h24v36.999h-24Z" style="fill:#435570"/>
      <path d="M178.046 450.179h24v36.999h-24Zm1 1v34.999h22v-34.999Z"/>
      <path d="M70.0453 456.178h24v59.999h-24Z" style="fill:#337bcc"/>
      <path d="M94.0453 456.178v59.999h-24v-59.999Zm-1.0014.999H71.0467v58.001h21.9972Z"/>
      <path d="M76.0462 456.179h12v1h-12Zm0 58.998h12v1h-12Z" style="fill:#337bcc"/>
      <path d="M334.046 510.181h30v24h-139v-24h85v-60h24Z" style="fill:#435570"/>
      <path d="M334.046 510.181h30v24h-139v-24h85v-60h24Zm-1 0v-59h-22v60h-85v22h137v-22h-30Z"/>
      <path d="M292.046 486.183h18v24h-18Z" style="fill:#435570"/>
      <path d="M310.046 486.183v24h-18v-24Zm-1.002 1h-15.996v21.998h15.996Z"/>
      <path d="M292.046 450.181h18v24h-18Z" style="fill:#435570"/>
      <path d="M310.046 450.181v24h-18v-24Zm-1.002 1h-15.996v21.998h15.996Z"/>
      <path d="M292.046 474.179h18v12.002h-18Z" style="fill:#595959"/>
      <path d="M310.046 474.179v12.002h-18v-12.002Zm-1.005 1h-15.99v10.002h15.99Z"/>
      <path d="M262.046 450.181h29.999v60h-29.999Z" style="fill:#595959"/>
      <path d="M292.045 450.181v60h-29.999v-60Zm-1 1h-27.999v58h27.999Z"/>
      <path d="M94.0461 330.181h65.9999v60H94.0461v24h-24v-108h24Z" style="fill:#6b6348"/>
      <path d="M94.0461 330.181h65.9999v60H94.0461v24h-24v-108h24Zm-1 0v-23h-22v106h22v-24h65.9999v-58H93.0461Z"/>
      <path d="M334.046 450.181h30v12h-30Z" style="fill:#595959"/>
      <path d="M364.046 450.181v12h-30v-12Zm-1 1h-28v10h28Z"/>
      <path d="M334.046 462.182h18v18h-18Z" style="fill:#595959"/>
      <path d="M352.046 462.182v18h-18v-18Zm-.99 1.001h-16.02v15.999h16.02Z"/>
      <path d="M364.111 450.18h138.001v78H364.111Z" style="fill:#595959"/>
      <path d="M502.112 450.18v78H364.111v-78Zm-1.035.999H365.146v76.001h135.931Z"/>
      <path d="M166.046 270.181h-18v60h-12v-72h18v-18h12Z" style="fill:#595959"/>
      <path d="M166.046 270.181h-18v60h-12v-72h18v-18h12Zm-1-1v-28h-10v18h-18v70h10v-60Z"/>
      <path d="M22.0502 162.18h36.0001v36H22.0502Z" style="fill:#595959"/>
      <path d="M58.0503 162.18v36H22.0502v-36Zm-.996 1H23.0462v34h34.0081Z"/>
      <path d="M190.047 240.181H58.0467v-120H190.047v30h21v60h-21Z" style="fill:#595959"/>
      <path d="M190.047 240.181H58.0467v-120H190.047v30h21v60h-21Zm-1-1v-30h21v-58h-21v-30H59.0467v118Z"/>
      <path d="M139.046 175.181h6v10h-6Zm-36 0h6v10h-6Z"/>
      <path d="M190.05 102.183h24v48h-24Z" style="fill:#6b6348"/>
      <path d="M214.05 102.183v48h-24v-48Zm-1 1h-22v46h22Z"/>
      <path d="M190.05 210.183h24v48h-24Z" style="fill:#6b6348"/>
      <path d="M214.05 210.183v48h-24v-48Zm-1 1h-22v46h22Z"/>
      <path d="M334.046 486.179h24v24h-24Z" style="fill:#ccc"/>
      <path d="M358.046 486.179v24h-24v-24Zm-3 3h-18v18h18Z" style="fill:#0d79f2"/>
      <path d="M334.046 486.179h24v24h-24Z" style="fill:none;stroke:#000;stroke-width:2"/>
      <path d="M70.0457 534.18h24v24h-24Z" style="fill:#ccc"/>
      <path d="M94.0457 534.18v24h-24v-24Zm-3 3.006h-18v17.989h18Z" style="fill:#2c8217"/>
      <path d="M94.0457 534.18v24h-24v-24Zm-.9997 1.002H71.0453v21.997H93.046Z"/>
      <path d="M272.046 364.183h8v16h-8Zm95 3h8v16h-8Z" style="fill:#ccc"/>
      <path d="M151.046 54.1821h18v30.0001h-18Z" style="fill:#ccc;stroke:#000;stroke-width:2"/>
      <path d="M259.046 42.1813h18v12h-42v-18h-21v65.9997h-48v18h-12V84.1813h42v-66h63Z" style="fill:#595959"/>
      <path d="M259.046 42.1813h18v12h-42v-18h-21v65.9997h-48v18h-12V84.1813h42v-66h63Zm-23 4v7h40v-10h-18v-24h-61v66h-42v33.9997h10v-18h48V35.1813h23Z"/>
      <path d="M277.032 18.1782h90V126.178h-90Z" style="fill:#6b6348"/>
      <path d="M367.032 18.1782V126.178h-90V18.1782Zm-.99 1.0028h-88.02v105.994h88.02Z"/>
      <path d="M277.046 126.181h-42v-12h30V54.1813h12Z" style="fill:#595959"/>
      <path d="M277.046 126.181h-42v-12h30V54.1813h12Zm-1-1V55.1813h-10v59.9997h-30v10Z"/>
      <path d="M409.049 111.18v15h-42V66.1802h11.995V111.18Z" style="fill:#595959"/>
      <path d="M409.049 111.18v15h-42V66.1802h11.995V111.18Zm-1.004 1h-29.994V67.1802h-9.998V125.18h39.992Z"/>
      <path d="M379.048 66.1791h30v44.9999h-30Z" style="fill:#404040"/>
      <path d="M409.048 66.1791v44.9999h-30V66.1791Zm-.995.9998h-28.011v43.0001h28.011Z"/>
      <path d="M427.053 108.182h21v18h-21Z" style="fill:#ccc"/>
      <path d="M448.053 108.182v18h-21v-18Zm-1.003 1h-18.994v15.999h18.994Z"/>
      <path d="M316.046 264.181h-8v-3h-1v-3h-5v-6h-4v12h-24v-12h-36v12h-24v-162h21v24h174V96.1813h18V264.181h-21v-12h-36v12h-24v-12h-4v6h-5v2.965l-1 .035v3h-8v-3h-2v3h-8v-3h-2Z" style="fill:#595959"/>
      <path d="M316.046 264.181h-8v-3h-1v-3h-5v-6h-4v12h-24v-12h-36v12h-24v-162h21v24h174V96.1813h18V264.181h-21v-12h-36v12h-24v-12h-4v6h-5v2.965l-1 .035v3h-8v-3h-2v3h-8v-3h-2Zm-8-4h1v3h6v-3h4v3h6v-3h4v3h6v-2.965l1-.036v-2.999h5v-6h6v12h22v-12h38v12h19V97.1813h-16v29.9997h-176v-24h-19v160h22v-12h38v12h22v-12h6v6h5Z"/>
      <path d="M234.046 147.183h176v87h-176Z" style="fill:#6b6348"/>
      <path d="M178.046 486.179h24v24.002h24v24h-48Z" style="fill:#337bcc"/>
      <path d="M178.046 486.179h24v24.002h24v24h-48Zm1 1v46.002h46v-22h-24v-24.002Z"/>
      <path d="M427.044 126.182h56.999v72h-56.999Z" style="fill:#404040"/>
      <path d="M484.043 126.182v72h-56.999v-72Zm-.995 1.001h-55.009v69.999h55.009Z"/>
      <path d="M427.046 210.179h45v60h-45Z" style="fill:#404040"/>
      <path d="M472.046 210.179v60h-45v-60Zm-1 1.001h-43v57.999h43Z"/>
      <path d="M514.047 144.181h30v24h-30Z" style="fill:#404040"/>
      <path d="M544.047 144.181v24h-30v-24Zm-1 1h-28v22h28Z"/>
      <path d="M544.047 144.181h30v24h-30Z" style="fill:#404040"/>
      <path d="M574.047 144.181v24h-30v-24Zm-1 1h-28v22h28Z"/>
      <path d="M514.047 168.181h30v24h-30Z" style="fill:#404040"/>
      <path d="M544.047 168.181v24h-30v-24Zm-1 1h-28v22h28Z"/>
      <path d="M544.047 168.181h30v24h-30Z" style="fill:#404040"/>
      <path d="M574.047 168.181v24h-30v-24Zm-1 1h-28v22h28Z"/>
      <path d="M550.046 210.181h-45v6h6v27h-9v-12h-18v39h-12v-60h-45v-12h57v-72h-18v-18h-39V96.1813h87v29.9997h24v18h-24v48h36Z" style="fill:#6b6348"/>
      <path d="M550.046 210.181h-45v6h6v27h-9v-12h-18v39h-12v-60h-45v-12h57v-72h-18v-18h-39V96.1813h87v29.9997h24v18h-24v48h36Zm-1-1v-16h-36v-50h24v-16h-24V97.1813h-85v9.9997h39v18h18v74h-57v10h45v60h10v-39h20v12h7v-25h-6v-8Z"/>
      <path d="M484.041 240.184h18v12h-18Z" style="fill:#0dcaf2"/>
      <path d="M502.041 240.184v12h-18v-12Zm-1.003 1h-15.994v10h15.994Z"/>
      <path d="M484.041 231.181h18v9h-18Z" style="fill:#2f6020"/>
      <path d="M502.041 231.181v9h-18v-9Zm-1.003 1h-15.994v7h15.994Z"/>
      <path d="M490.046 336.181v-66h156v180h-156v-66h-3v-48Z" style="fill:#595959"/>
      <path d="M490.046 336.181v-66h156v180h-156v-66h-3v-48Zm0 1h-2v46h3v66h154v-178h-154v66Z"/>
      <path d="M532.047 246.181v24h-48v-18h18v-9h9v9h9l6-6Z" style="fill:#595959"/>
      <path d="M532.047 246.181v24h-48v-18h18v-9h9v9h9l6-6Zm-1 1h-4.59l-6 6h-10.41v-9h-7v9h-18v16h46Z"/>
      <path d="M697.046 336.181h12v48h-12v24h-18v-24h-33v-48h33v-24h18Z" style="fill:#595959"/>
      <path d="M697.046 336.181h12v48h-12v24h-18v-24h-33v-48h33v-24h18Zm-1-23h-16v24h-33v46h33v24h16v-24h12v-46h-12Z"/>
      <path d="M512.047 235.181h19v10h-6l-6 6v2h-7ZM81.0441 401.18H93.044v12H81.0441Zm0-94.001H93.044v12H81.0441Zm110.0019-65.996h22v16h-22Zm0-138.001h22v16h-22Z" style="fill:#ccc"/>
      <path d="M58.0459 360.182h12v12h-12Z" style="fill:#595959"/>
      <path d="M70.0459 360.182v11.998h-12v-11.998Zm-.9998.994H59.0456v10.002h10.0005Z"/>
      <path d="M58.0459 348.182h12v12h-12Z" style="fill:#595959"/>
      <path d="M70.0459 348.182v11.998h-12v-11.998Zm-.9998.994H59.0456v10.001h10.0005Z"/>
      <path d="M467.046 108.181h-19v18h18v-10h1" style="fill:#ccc;stroke:#000;stroke-width:2"/>
      <path d="M365.047 465.179h10v18h-10Zm125.999 0h10v18h-10Z" style="fill:#ccc"/>
      <path d="M603.046 449.181v1h7v54h30v24h-138v-18h42v-6h36v-54h6v-1" style="fill:#595959;stroke:#000;stroke-width:2"/>
      <path d="M503.049 511.178h22v16h-22ZM249.044 55.1814h17v8h-17Zm0 39.9999h17v7.9997h-17ZM429.05 506.179h8v8h-8ZM278.046 95.1823h9v29.9997h-9Zm-40 54.9987h9v24h-9Zm159.001 0h9v24h-9Zm-159.001 60h9v24h-9Zm159.001 0h9v24h-9Zm-54.997 179h12v24h-12Zm106 11.999h12v24h-12Zm-264.004 0h12v24h-12ZM448.05 294.181h12v24h-12Zm-264.004 0h12v24h-12Zm158.004 12h12v24h-12Zm-52.001 83h12v24h-12Zm0-83h12v24h-12Zm66.997-210.9987h9v29.9997h-9Zm-43.995 0h18v29.9997h-18Zm0 114.9987h18v24h-18Zm215.995 111h9v12h-9Zm0 66h9v12h-9Z" style="fill:#ccc"/>
      <path d="M442.046 306.181h-30l-12 .002 12 .043v17.955h30Z" style="fill:#595959"/>
      <path d="M442.046 306.181h-30l-12 .002 12 .043v17.955h30Z" style="fill:none;stroke:#000;stroke-width:2"/>
      <path d="M208.046 372.182h18v36h-18Z" style="fill:#595959;stroke:#000;stroke-width:1.3796145544246985"/>
      <path d="M227.509 367.578c-2.049 1.631-4.643 2.605-7.463 2.605-6.623 0-12-5.377-12-12s5.377-12 12-12c5.706 0 10.487 3.992 11.702 9.332" style="fill:#6b6348;stroke:#000;stroke-width:2"/>
      <path d="M501.046 474.181h13v37" style="fill:none;stroke:#ccc;stroke-dasharray:2,2;stroke-opacity:.6;stroke-width:2"/>
      <circle id="circle193" cx="322.045346" cy="171.180965" r="8.999993"/>
      <path d="M626.045 329.183h6v8h-6Zm0 54h6v8h-6Zm-50-54.002h6v8h-6Zm0 54h6v8h-6Zm-53-54h6v8h-6Zm0 54h6v8h-6Z"/>
      <path d="M427.045 387.181h15v15h-15Z" style="fill:#595959"/>
      <path d="M429.048 402.181h-2.003v-2h3.998v2Zm-2.003-14h.998v-1h2.002v2h-.997v1h-2.003Zm0 4h2.003v2h-2.003Zm0 4h2.003v2h-2.003Zm6 6v-2h2.003v2Zm3.998 0v-2h2.002v2Zm3.015 0-.015-.011v-.989h1.005v-1h.997v2Zm1.987-3h-2.002v-2h2.002Zm0-4h-2.002v-2h2.002Zm0-4h-2.002v-4c0 1.885 2.002 2 2.002 2Zm-3.997-4v2h-2.003v-2Zm-4.005 0v2h-1.995v-2Z"/>
      <path d="M406.045 387.181h15v15h-15Z" style="fill:#595959"/>
      <path d="M408.048 402.181h-2.003v-2h3.998v2Zm-2.003-14h.998v-1h2.002v2h-.997v1h-2.003Zm0 4h2.003v2h-2.003Zm0 4h2.003v2h-2.003Zm6 6v-2h2.003v2Zm3.998 0v-2h2.002v2Zm3 0v-1h1.005v-1h.997v2Zm2.002-3h-2.002v-2h2.002Zm0-4h-2.002v-2h2.002Zm0-4h-2.002v-4c0 1.885 2.002 2 2.002 2Zm-3.997-4v2h-2.003v-2Zm-4.005 0v2h-1.995v-2Z"/>
      <path d="M385.046 387.181h15v15h-15Z" style="fill:#595959"/>
      <path d="M387.048 402.181h-2.002v-2h3.997v2Zm-2.002-14h.997v-1h2.003v2h-.998v1h-2.002Zm0 4h2.002v2h-2.002Zm0 4h2.002v2h-2.002Zm6 6v-2h2.002v2Zm3.997 0v-2h2.003v2Zm3 0v-1h1.005v-1h.998v2Zm2.003-3h-2.003v-2h2.003Zm0-4h-2.003v-2h2.003Zm0-4h-2.003v-4c0 1.885 2.003 2 2.003 2Zm-3.998-4v2h-2.002v-2Zm-4.005 0v2h-1.995v-2Z"/>
      <path d="M413.042 372.18h29v14.999h-29Z" style="fill:#404040"/>
      <path d="M442.048 372.18v14.999h-29.006V372.18Zm-1.008.999h-26.99v13.001h26.99Z"/>
      <path d="M428.044 364.184h14v7.999h-14Z" style="fill:#404040"/>
      <path d="M442.047 364.184v7.999h-14.003v-7.999Zm-1.002 1h-11.999v6.001l11.999-.002Z"/>
      <path d="M264.046 352.185h8v51h-8Z" style="fill:#404040"/>
      <path d="M272.046 352.185v51h-8v-51Zm-1 .998h-6v49.004h6Z"/>
      <path d="M202.474 348.816c3.362-6.323 10.017-10.632 17.671-10.632 4.713 0 9.047 1.633 12.467 4.365l-3.814 4.69c-2.395-1.912-5.429-3.055-8.727-3.055-5.358 0-10.017 3.016-12.37 7.443Z" style="fill:#404040;stroke:#000;stroke-width:1.00000029094"/>
      <path d="M435.046 371.183h6v2h-6Zm-5-5.999v6h-2v-6Zm-164.997 36h6v2h-6Zm0-49.002h6v2h-6Zm-31.701-8.35-3.162 3.938-1.56-1.252 3.163-3.939Zm-30.057 4.51 4.311 2.531-1.013 1.725-4.311-2.531Z" style="fill:#404040"/>
      <path d="M184.046 486.177h12v1h-12Zm-6.001 42.005v-12h1v12Zm47.001 0v-12h1v12Z" style="fill:#337bcc"/>
    </g>
    <g id="Arrows">
      <path d="m533.546 322.181 7 10h-14Z" style="fill:#0bb300"/>
      <path d="m533.546 322.181 7 10h-14Zm0 1.744-5.08 7.256h10.159Z"/>
      <path d="m533.546 388.181 7 10h-14Z" style="fill:#0bb300"/>
      <path d="m533.546 388.181 7 10h-14Zm0 1.744-5.08 7.256h10.159Z"/>
      <path d="m82.0463 556.174-7.0002-10h14Z" style="fill:red"/>
      <path d="m82.0463 556.174-7.0002-10h14Zm0-1.744 5.0793-7.256H76.967Z"/>
      <path d="m346.044 508.174-7-10h14Z" style="fill:red"/>
      <path d="m346.044 508.174-7-10h14Zm0-1.744 5.08-7.256h-10.159Z"/>
      <path d="m276.044 377.181-7-10h14Z" style="fill:red"/>
      <path d="m276.044 377.181-7-10h14Zm0-1.744 5.08-7.256h-10.159Z"/>
      <path d="m371.044 380.181-7-10h14Z" style="fill:red"/>
      <path d="m371.044 380.181-7-10h14Zm0-1.744 5.08-7.256h-10.159Z"/>
      <path d="m160.044 74.181-7-9.9999h14Z" style="fill:red"/>
      <path d="m160.044 74.181-7-9.9999h14Zm0-1.7438 5.08-7.2562h-10.159Z"/>
      <path d="m257.044 64.181-7-9.9999h14Z" style="fill:red"/>
      <path d="m257.044 64.181-7-9.9999h14Zm0-1.7438 5.08-7.2562h-10.159Z"/>
      <path d="m257.044 104.181-7-9.9999h14Z" style="fill:red"/>
      <path d="m257.044 104.181-7-9.9999h14Zm0-1.744 5.08-7.256h-10.159Z"/>
      <path d="m457.044 122.181-7-10h14Z" style="fill:red"/>
      <path d="m457.044 122.181-7-10h14Zm0-1.744 5.08-7.256h-10.159Z"/>
      <path d="m82.0457 536.179 7.0002 10h-14Z" style="fill:#0bb300"/>
      <path d="m82.0457 536.179 7.0002 10h-14Zm0 1.744-5.0793 7.256H87.125Z"/>
      <path d="m346.046 488.179 7 10h-14Z" style="fill:#0bb300"/>
      <path d="m346.046 488.179 7 10h-14Zm0 1.744-5.08 7.256h10.159Z"/>
      <path d="m87.0457 308.181 7.0002 10h-14Z" style="fill:#0bb300"/>
      <path d="m87.0457 308.181 7.0002 10h-14Zm0 1.744-5.0793 7.256H92.125Z"/>
      <path d="m87.0457 402.181 7.0002 10h-14Z" style="fill:#0bb300"/>
      <path d="m87.0457 402.181 7.0002 10h-14Zm0 1.744-5.0793 7.256H92.125Z"/>
      <path d="m437.546 112.181 7 10h-14Z" style="fill:#0bb300"/>
      <path d="m437.546 112.181 7 10h-14Zm0 1.744-5.08 7.256h10.159Z"/>
      <path d="m514.046 514.181 7 10h-14Z" style="fill:#0bb300"/>
      <path d="m514.046 514.181 7 10h-14Zm0 1.744-5.08 7.256h10.159Z"/>
      <path d="m521.046 235.181 7 10h-14Z" style="fill:#0bb300"/>
      <path d="m521.046 235.181 7 10h-14Zm0 1.744-5.08 7.256h10.159Z"/>
      <path d="m202.046 244.181 7 10h-14Z" style="fill:#0bb300"/>
      <path d="m202.046 244.181 7 10h-14Zm0 1.744-5.08 7.256h10.159Z"/>
      <path d="m202.046 106.181 7 10h-14Z" style="fill:#0bb300"/>
      <path d="m202.046 106.181 7 10h-14Zm0 1.744-5.08 7.256h10.159Z"/>
      <path d="m370.046 469.181 7 10h-14Z" style="fill:#0bb300"/>
      <path d="m370.046 469.181 7 10h-14Zm0 1.744-5.08 7.256h10.159Z"/>
      <path d="m496.046 469.181 7 10h-14Z" style="fill:#0bb300"/>
      <path d="m496.046 469.181 7 10h-14Zm0 1.744-5.08 7.256h10.159Z"/>
      <path d="m433.042 514.18-4-6h8Z" style="fill:red"/>
      <path d="m433.042 514.18-4-6h8Zm0-1.803 2.131-3.197h-4.263Z"/>
      <path d="m322.046 105.181 7 10h-14Z" style="fill:#0bb300"/>
      <path d="m322.046 105.181 7 10h-14Zm0 1.744-5.08 7.256h10.159Z"/>
      <path d="m322.046 217.181 7 10h-14Z" style="fill:#0bb300"/>
      <path d="m322.046 217.181 7 10h-14Zm0 1.744-5.08 7.256h10.159Z"/>
      <path d="m282.546 105.181 7 10h-14Z" style="fill:#0bb300"/>
      <path d="m282.546 105.181 7 10h-14Zm0 1.744-5.08 7.256h10.159Z"/>
      <path d="m242.546 157.181 7 10h-14Z" style="fill:#0bb300"/>
      <path d="m242.546 157.181 7 10h-14Zm0 1.744-5.08 7.256h10.159Z"/>
      <path d="m401.546 157.181 7 10h-14Z" style="fill:#0bb300"/>
      <path d="m401.546 157.181 7 10h-14Zm0 1.744-5.08 7.256h10.159Z"/>
      <path d="m242.546 217.181 7 10h-14Z" style="fill:#0bb300"/>
      <path d="m242.546 217.181 7 10h-14Zm0 1.744-5.08 7.256h10.159Z"/>
      <path d="m401.546 217.181 7 10h-14Z" style="fill:#0bb300"/>
      <path d="m401.546 217.181 7 10h-14Zm0 1.744-5.08 7.256h10.159Z"/>
      <path d="m348.046 396.181 7 10h-14Z" style="fill:#0bb300"/>
      <path d="m348.046 396.181 7 10h-14Zm0 1.744-5.08 7.256h10.159Z"/>
      <path d="m454.046 408.181 7 10h-14Z" style="fill:#0bb300"/>
      <path d="m454.046 408.181 7 10h-14Zm0 1.744-5.08 7.256h10.159Z"/>
      <path d="m190.046 408.181 7 10h-14Z" style="fill:#0bb300"/>
      <path d="m190.046 408.181 7 10h-14Zm0 1.744-5.08 7.256h10.159Z"/>
      <path d="m454.046 301.181 7 10h-14Z" style="fill:#0bb300"/>
      <path d="m454.046 301.181 7 10h-14Zm0 1.744-5.08 7.256h10.159Z"/>
      <path d="m190.046 301.181 7 10h-14Z" style="fill:#0bb300"/>
      <path d="m190.046 301.181 7 10h-14Zm0 1.744-5.08 7.256h10.159Z"/>
      <path d="m348.046 313.181 7 10h-14Z" style="fill:#0bb300"/>
      <path d="m348.046 313.181 7 10h-14Zm0 1.744-5.08 7.256h10.159Z"/>
      <path d="m296.046 396.181 7 10h-14Z" style="fill:#0bb300"/>
      <path d="m296.046 396.181 7 10h-14Zm0 1.744-5.08 7.256h10.159Z"/>
      <path d="m296.046 313.181 7 10h-14Z" style="fill:#0bb300"/>
      <path d="m296.046 313.181 7 10h-14Zm0 1.744-5.08 7.256h10.159Z"/>
      <path d="m361.546 105.181 7 10h-14Z" style="fill:#0bb300"/>
      <path d="m361.546 105.181 7 10h-14Zm0 1.744-5.08 7.256h10.159Z"/>
    </g>
    <g id="Doors">
      <path d="M366.027 125.18v2h-87.999v-2Zm-50.985 138v2h-6v-2Zm20 0v2h-6v-2Zm-10 0v2h-6v-2Zm-96 0v2h-6v-2Zm186 0v2h-6v-2ZM189.045 129.184h2v12h-2Zm0 90h2v12h-2Zm24-90h2v12h-2Zm0 90h2v12h-2Zm-4.997-10.004v2h-9v-2Zm0-60v2h-9v-2Z" style="fill:#595959"/>
      <path d="M546.045 152.181v8h-4v-8Zm0 24v8h-4v-8Zm-117-29v12h-4v-12Zm0 74v8h-4v-8Zm45 0v8h-4v-8Z" style="fill:#8c737c"/>
      <path d="M486.045 354.184h2v12h-2Zm159-6.005h2v24h-2ZM57.046 168.182h2v24h-2Z" style="fill:#595959"/>
      <path d="M290.046 484.18v-8h4v8Zm-150 6.001h7v4h-7Zm-11-21h8v4h-8Z" style="fill:#8c737c"/>
      <path d="M297.046 484.18h8v4h-8Zm0-12.001h8v4h-8Z" style="fill:#f30000"/>
      <path d="M486.045 156.181v12h-4v-12Zm30-4v8h-4v-8Zm0 24v8h-4v-8Zm-418.999 332h12v4h-12Zm-19 23.998h8v4h-8Zm82-23.998h12v4h-12Zm2-42h8v4h-8Zm-39 28h8v4h-8Z" style="fill:#8c737c"/>
      <path d="M114.046 499.181v8h-4v-8Z" style="fill:#f30000"/>
      <path d="M85.0465 448.181h6v4h-6Zm-13.0005-36h8v4h-8Zm27-24h8v4h-8Zm0 18h8v4h-8Zm0-78h8v4h-8Zm0-18h8v4h-8Z" style="fill:#8c737c"/>
      <path d="M69.0452 363.181h2v6h-2ZM147.05 329.18v2h-10v-2Z" style="fill:#595959"/>
      <path d="M279.046 44.181v8h-4v-8Zm-123 38h8v4h-8Zm0 36h8v4h-8Zm0 120h8v4h-8Zm132 293.998h8v4h-8Zm0 17.995h8v4h-8Zm48-17.995h8v4h-8Zm0 17.995h8v4h-8Zm6-41.993h8v4h-8Zm23.999 5v12h-4v-12Zm0-61v8h-4v-8Zm-29.999 0v8h-4v-8Zm3 8h8v4h-8Zm-27 32v12h-4v-12Zm0-36v12h-4v-12Zm-176-68h12v4h-12Zm26 44v8h-4v-8Zm266.999-232v8h-4v-8Zm0-102v8h-4v-8Zm0 15v8h-4v-8Zm-18 0v8h-4v-8Zm-30-43v8h-4v-8Zm-143.999 46v8h-4v-8Zm162-7h8v4h-8Zm-120-46v12h-4v-12Zm89.999 9v12h-4v-12Zm150.005 52h8v4h-8Zm0-18h8v4h-8Zm18 102h8v4h-8Zm0 18h8v4h-8Zm-43.003 42h12v4h-12Zm22 0h12v4h-12Z" style="fill:#8c737c"/>
      <path d="M510.046 242.18v2h-7v-2Zm-26.996 27v2h-10v-2Zm-324.005 62.001h2v58h-2Zm42.003 117.999v2h-22v-2Zm132 0v2h-22v-2Z" style="fill:#595959"/>
      <path d="M428.045 128.181v17h-2v-17Zm0 33v34.999h-2v-34.999Zm-236.999-12h6v2h-6Zm0 60h6v2h-6Zm0-88v6h-2v-6Zm0 90v6h-2v-6Zm24 0v6h-2v-6Zm-24 22v6h-2v-6Zm24 0v6h-2v-6Zm0-112v6h-2v-6Zm0 22v6h-2v-6Zm-24 0v6h-2v-6Zm40 120h6v2h-6Zm-16 0h6v2h-6Zm201.996 0h9v2h-9Z" style="fill:#4da1b3"/>
      <path d="M228.046 394.181v12h-4v-12Z" style="fill:#8c737c"/>
      <path d="M431.046 322.181h8v4h-8Zm-17-7v8h-4v-8Z" style="fill:#f30000"/>
    </g>
    <g id="Details">
      <path d="M382.04 465.178h45v21h-45Z" style="fill:#595959"/>
      <path d="M427.04 465.178v21h-45v-21Zm-1.003 1h-42.994v19h42.994Z"/>
      <path d="M382.04 498.178h45v21h-45Z" style="fill:#595959"/>
      <path d="M427.04 498.178v21h-45v-21Zm-1.003 1h-42.994v19h42.994Z"/>
      <path d="M439.04 498.178h45v21h-45Z" style="fill:#595959"/>
      <path d="M484.04 498.178v21h-45v-21Zm-1.003 1h-42.994v19h42.994Z"/>
      <path d="M439.04 465.178h45v21h-45Z" style="fill:#595959"/>
      <path d="M484.04 465.178v21h-45v-21Zm-1.003 1h-42.994v19h42.994Z"/>
      <path d="M435.046 357.181h6l6-9.998v-12" style="fill:none;stroke:#000;stroke-width:2"/>
      <path d="M74.0442 121.181h79.9998v20H74.0442Zm0 98h79.9998v20H74.0442Z" style="fill:#404040"/>
      <path d="M208.046 342.183v-12m45.997-18h18m-45.996 59.996 14.999 9.999v12.001m15.005-31.996h8m7.992 31.996h10l8-3.996m-25.997-8.009h-12v12m-20.484-42.844 10.488 4.851m-34.004-33.998v-12h12m52 53.998v-11h12m-56.003-42.998h12v12m149.003 8.001v-19l-5-5h-14l-5 5v14.001l4 4.999m6 17.999h8l6-6.002m21 15.001h10l5-5v-14l-5-5h-14l-5 5v10.001" style="fill:none;stroke:#000;stroke-width:2"/>
    </g>
  </g>
</svg>