<svg xmlns="http://www.w3.org/2000/svg" xmlns:xlink="http://www.w3.org/1999/xlink" xml:space="preserve" version="1.1" viewBox="0 0 720 586">
  <style>
    .shadow{filter:drop-shadow(0 0 8px #000)}
  </style>
  <g id="Technical_Level" class="shadow">
    <g id="Rooms">
      <path d="M296.607 143.179h4.347v215.983h-4.347Zm45.647 0h4.347v205.984h-4.347Z" style="fill:#1a1a1a"/>
      <path d="M438.98 180.177h58.689v53.995H438.98Z" style="fill:#404040;stroke:#000;stroke-width:2"/>
      <path d="M406.376 498.148h39.125v23.998h-39.125Z" style="fill:#435570"/>
      <path d="M406.376 498.148h39.125v23.998h-39.125Zm1.087 1v21.999h36.951v-21.999Z" style="display:inline"/>
      <path d="M158.581 444.155h71.73v11.999h-71.73Z" style="fill:#4c3333;stroke:#000;stroke-width:2"/>
      <path d="M73.8089 444.155h19.5628v89.993H73.8089Z" style="fill:#6b4848;stroke:#000;stroke-width:2"/>
      <path d="M93.3717 444.155h32.6043v11.999H93.3717Z" style="fill:#4c3333;stroke:#000;stroke-width:2"/>
      <path d="M307.475 498.151h-45.646v17.996h-26.084v-59.993h71.73Zm-48.907-29.998h-13.042v17.998h13.042Z" style="fill:#595959;stroke:#000;stroke-width:2"/>
      <path d="M261.829 498.147h45.646v17.998h-45.646Z" style="fill:#595959;stroke:#000;stroke-width:2"/>
      <path d="M93.3717 516.146h84.7723v17.999H93.3717Zm104.3343 0h163.023v17.999H197.706Z" style="fill:#6b4848;stroke:#000;stroke-width:2"/>
      <path d="M178.143 456.154h19.563v77.993h-19.563Z" style="fill:#6b4848;stroke:#000;stroke-width:2"/>
      <path d="M348.774 258.17h92.38v11.999h-92.38Z" style="fill:#6b6348"/>
      <path d="M441.154 258.17v11.999h-92.38V258.17Zm-1.087.999h-90.206v10h90.206Z"/>
      <path d="M578.093 443.154h27.171v19.999h-27.171Z" style="fill:#595959"/>
      <path d="M578.093 443.154h27.171v19.999h-27.171Z" style="fill:none;stroke:#000;stroke-width:2"/>
      <path d="M471.588 132.18h26.083v47.996h-26.083Z" style="fill:#435570;stroke:#000;stroke-width:2"/>
      <path d="M223.79 48.1882h45.646v71.9938H223.79Z" style="fill:#595959"/>
      <path d="M269.436 48.1882v71.9938H223.79V48.1882Zm-1.087.9997h-43.472v69.9951h43.472Z"/>
      <path d="M64.0275 120.182H171.623v23.998H64.0275Z" style="fill:#435570"/>
      <path d="M171.623 120.182v23.998H64.0275v-23.998Zm-1.087.999H65.1145v21.999H170.536Z"/>
      <path d="M155.321 180.176h13.041v23.998h-45.646v-29.997H90.1113v-29.998h65.2097Z" style="fill:#595959"/>
      <path d="M155.321 180.176h13.041v23.998h-45.646v-29.997H90.1113v-29.998h65.2097Zm-1.087 0v-34.997H91.1981v27.998h32.6049v29.997h43.473v-21.998h-13.042Z"/>
      <path d="M139.018 204.174h26.084v23.998h-26.084Z" style="fill:#435570"/>
      <path d="M165.102 204.174v23.998h-26.084v-23.998Zm-1.088 1h-23.909v21.998h23.909Z"/>
      <path d="M197.707 216.173h32.605v11.999h-32.605Z" style="fill:#435570"/>
      <path d="M230.312 216.173v11.999h-32.605v-11.999Zm-1.087 1h-30.432v9.999h30.432Z"/>
      <path d="M344.427 11.1899h17.389v13.9988h-17.389Z" style="fill:#ccc;stroke:#000;stroke-width:2"/>
      <path d="M344.427 360.162h-45.646v41.996h45.646Zm-11.955 10.999h-21.736v19.998h21.736Z" style="fill:#435570;stroke:#000;stroke-width:2"/>
      <path d="M310.735 371.161h21.737v19.998h-21.737Z" style="fill:#595959"/>
      <path d="M310.735 371.161h21.737v19.998h-21.737Z" style="fill:none;stroke:#000;stroke-width:2"/>
      <path d="M125.976 438.155h32.605v17.999h-32.605Z" style="fill:#4c3333;stroke:#000;stroke-width:2"/>
      <path d="M306.39 534.148h17.389v13.999H306.39Z" style="fill:#ccc;stroke:#000;stroke-width:2"/>
      <path d="M289.001 534.148h17.389v13.999h-17.389Z" style="fill:#595959"/>
      <path d="M289.001 534.148h17.389v13.999h-17.389Z" style="fill:none;stroke:#000;stroke-width:2"/>
      <path d="M282.477 378.16h13.042v23.998h-13.042Z" style="fill:#595959"/>
      <path d="M282.477 378.16h13.042v23.998h-13.042Z" style="fill:none;stroke:#000;stroke-width:2"/>
      <path d="M334.646 492.149h26.084v23.998h-26.084Z" style="fill:#ccc"/>
      <path d="M360.73 492.149v23.998h-26.084v-23.998Zm-3.261 2.999h-19.563v17.999h19.563Z" style="fill:#0d79f2"/>
      <path d="M334.646 492.149h26.084v23.998h-26.084Z" style="fill:none;stroke:#000;stroke-width:2"/>
      <path d="M70.5486 534.147h26.0837v23.998H70.5486Z" style="fill:#ccc"/>
      <path d="M96.6323 534.147v23.998H70.5486v-23.998Zm-3.2604 3.005H73.8091v17.988h19.5628Z" style="fill:#2c8217"/>
      <path d="M96.6323 534.147v23.998H70.5486v-23.998Zm-1.0864 1.001H71.6351v21.995h23.9108Z"/>
      <path d="M266.175 360.165h32.604v17.998h-32.604Zm78.251 0h32.604v17.998h-32.604ZM158.581 54.1877h19.563v29.9976h-19.563Z" style="fill:#ccc;stroke:#000;stroke-width:2"/>
      <path d="M406.376 522.149h39.126v11.999H360.73v-17.999h45.646Z" style="fill:#6b4848"/>
      <path d="M406.376 522.149h39.126v11.999H360.73v-17.999h45.646Zm-1.087 10.999h39.126v-9.999h-39.126v-6h-43.473v15.999Z"/>
      <path d="M243.353 258.17h51.081v11.999h-51.081v47.996h51.081v11.999h-51.081v47.996h-13.042v-47.996h-13.042v-11.999h13.042v-47.996h-13.042V258.17h13.042v-41.996h13.042Z" style="fill:#6b6348;stroke:#000;stroke-width:2"/>
      <path d="M184.665 204.174v-59.995h13.042v83.993h-32.605v-23.998Z" style="fill:#435570"/>
      <path d="M184.665 204.174v-59.995h13.042v83.993h-32.605v-23.998Zm11.955 2v-60.995h-10.869v59.995h-19.562v21.998h30.431Z"/>
      <path d="M239.007 49.1874h17.389v7.9994h-17.389Zm0 39.9965h17.389v7.9994h-17.389Z" style="fill:#ccc"/>
      <path d="M295.519 54.1864h52.167V84.184h-52.167Z" style="fill:#595959"/>
      <path d="M347.686 54.1864V84.184h-52.167V54.1864Zm-1.087.9999h-49.993v27.9978h49.993Z"/>
      <path d="M471.585 132.18v11.999H321.604v-23.998h26.084V90.1835H295.52v5.9995h6.521v17.999h-6.521v5.999h26.084v23.998H171.623v-23.998h39.125V84.184h-32.604V72.1849h45.646v47.9961h45.647V40.1875h-15.216 14.129v7.9994h-23.91v-4.9996h-1.087v4.9996H223.79V30.1883h45.647v-5.9995h52.167v29.9976H295.52V84.184h52.168V54.1864h-26.084V24.1888h52.167v95.9922h39.126V96.183h84.772v35.997Zm0-23.998h-32.604v23.998h32.604Z" style="fill:#435570"/>
      <path d="M471.585 144.179H171.623v-23.998h39.125V84.184h-32.604V72.1849h45.646v47.9961h45.647V40.1875h-1.087v7.9994h-23.91v-4.9996h-1.087v4.9996H223.79V30.1883h45.647v-5.9995h104.334v95.9922h39.126V96.183h84.772v35.997h-26.084v-23.998h-32.604v23.998h32.604ZM254.221 41.1874v-1.9998h16.302v81.9934h-47.82V73.1849h-43.472v9.9992h32.604v37.9969H172.71v21.998h147.807v-21.998h-26.083v-7.999h6.52V97.1829h-6.52v-7.9993h54.341v31.9974h-26.084v21.998h147.807v-9.999h-32.604v-25.998h34.778v23.998h23.91V97.1829h-82.598v23.9981h-41.299V25.1887h-49.994v27.9978h26.084v31.9974h-54.341V53.1865h26.083V25.1887h-49.994v5.9996h-45.646V47.187h17.389v-4.9996h3.261v4.9996h21.736v-5.9996Zm93.467 12.999H295.52V84.184h52.168ZM295.52 120.181h52.168V90.1835H295.52v5.9995h6.521v17.999h-6.521Z"/>
      <path d="M394.421 348.163v59.997h6.521v11.997h-6.521v41.997h6.521v11.997h-6.521v41.998h-13.042V360.162h-32.604v-11.999Z" style="fill:#6b6348"/>
      <path d="M394.421 348.163v59.997h6.521v11.997h-6.521v41.997h6.521v11.997h-6.521v41.998h-13.042V360.162h-32.604v-11.999Zm-1.087 1h-43.473v9.999h32.605v155.987h10.868v-41.998h6.521v-9.997h-6.521v-43.997h6.521v-9.997h-6.521Z"/>
      <path d="M230.311 378.16h52.167v77.994h-52.167v-11.999h32.605V390.16h-32.605Z" style="fill:#4c3333;stroke:#000;stroke-width:2"/>
      <path d="M466.151 366.161h31.518v11.999H394.421v-11.999h58.688v-5.999h13.042Z" style="fill:#6b6348"/>
      <path d="M466.151 366.161h31.518v11.999H394.421v-11.999h58.688v-5.999h13.042Zm-1.087 0v-4.999h-10.868v5.999h-58.688v10h101.074v-10h-31.518Z"/>
      <path d="M423.765 300.167h24.997v23.998h23.91v35.997h-26.084v-23.998h-24.997v-23.998h-53.254v-41.997h55.428Z" style="fill:#595959"/>
      <path d="M423.765 300.167h24.997v23.998h23.91v35.997h-26.084v-23.998h-24.997v-23.998h-53.254v-41.997h55.428Zm-1.087 0v-28.998h-53.254v39.997h53.254v23.998h24.997v23.998h23.91v-33.997h-23.91v-23.998h-24.997Z"/>
      <path d="M454.196 258.17h43.473v11.999h-56.515v-35.997h13.042Z" style="fill:#6b6348"/>
      <path d="M454.196 258.17h43.473v11.999h-56.515v-35.997h13.042Zm-1.087 0v-22.998h-10.868v33.997h54.341v-9.999h-43.473Z"/>
      <path d="M530.274 414.158h-19.563" style="fill:none;stroke:#000;stroke-width:1"/>
      <path d="M510.711 210.174v-80.993h-13.042v-17.999h32.605v98.992Z" style="fill:#6b6348"/>
      <path d="M510.711 210.174v-80.993h-13.042v-17.999h32.605v98.992Zm1.087-1h17.389v-96.992h-30.431v15.999h13.042Z"/>
      <path d="M530.274 210.174v107.991h-19.563v-44.996h-13.042V255.17h13.042v-44.996Z" style="fill:#6b6348"/>
      <path d="M530.274 210.174v107.991h-19.563v-44.996h-13.042V255.17h13.042v-44.996Zm-1.087 1h-17.389v44.996h-13.042v15.999h13.042v44.996h17.389Z"/>
      <path d="M559.618 462.154c-46.722 0-48.907-28.358-48.907-47.996V381.16h-13.042v-17.998h13.042v-44.997h19.563v95.993c0 22.292 11.828 29.997 29.344 29.997v-11.999h45.646v11.999H579.18v17.999h26.084v11.999h-45.646Z" style="fill:#6b6348"/>
      <path d="M559.618 462.154c-46.722 0-48.907-28.358-48.907-47.996V381.16h-13.042v-17.998h13.042v-44.997h19.563v95.993c0 22.292 11.828 29.997 29.344 29.997v-11.999h45.646v11.999H579.18v17.999h26.084v11.999h-45.646Zm1.086 10.999h43.473v-9.999h-26.083v-19.999h26.083v-9.999h-43.473v11.999h-1.086c-9.081 0-16.671-2.044-22.007-6.93-5.307-4.86-8.424-12.573-8.424-24.067v-94.993h-17.389v44.997h-13.042v15.998h13.042v33.998c0 11.551.686 26.201 11.197 36.057 6.995 6.558 18.333 10.939 36.623 10.939h1.086Z"/>
      <path d="M452.022 108.182h19.563v23.998h-19.563Z" style="fill:#ccc"/>
      <path d="M471.585 108.182v23.998h-19.563v-23.998Zm-1.087 1h-17.389v21.999h17.389Z"/>
      <path d="M344.427 144.179v204.984m-45.646-204.984v213.983" style="fill:none;stroke:#333;stroke-dasharray:3.99,2,0,0;stroke-opacity:.6;stroke-width:4.169616113370807"/>
      <path d="M347.688 359.162h-24.997v-57.995h-2.174v57.995h-18.476v-29.998h-6.521v-9.999h6.521v-49.996h-6.521v-9.999h6.521V143.179h18.476v80.994h2.174v-80.994h18.476V259.17h6.521v9.999h-6.521v79.994h6.521Zm-24.997-71.994v-48.996h-2.174v48.996Z" style="fill:#595959"/>
    </g>
    <g id="Arrows" style="display:inline">
      <path d="m461.803 115.181 7.608 9.999h-15.215z" style="fill:#0bb300"/>
      <path d="m461.803 115.181 7.608 9.999h-15.215zm0 1.744-5.52 7.255h11.041z"/>
      <path d="m168.362 64.1853 7.608 9.9992h-15.216z" style="fill:#0bb300"/>
      <path d="m168.362 64.1853 7.608 9.9992h-15.216zm0 1.7437-5.52 7.2556h11.04z"/>
      <path d="m83.59 541.145 7.6079 9.999H75.9825Z" style="fill:#0bb300"/>
      <path d="m83.59 541.145 7.6079 9.999H75.9825Zm0 1.743-5.5203 7.256h11.0407z"/>
      <path d="m347.687 499.148 7.608 9.999H340.08Z" style="fill:#0bb300"/>
      <path d="m347.687 499.148 7.608 9.999H340.08Zm0 1.744-5.52 7.255h11.041z"/>
      <path d="m282.478 364.161 7.608 9.999h-15.215z" style="fill:#0bb300"/>
      <path d="m282.478 364.161 7.608 9.999h-15.215zm0 1.744-5.52 7.255h11.04z"/>
      <path d="m360.729 364.161 7.608 9.999h-15.215z" style="fill:#0bb300"/>
      <path d="m360.729 364.161 7.608 9.999h-15.215zm0 1.744-5.52 7.255h11.04z"/>
      <path d="m247.7 47.1867 7.608 9.9991h-15.216z" style="fill:#0bb300"/>
      <path d="m247.7 47.1867 7.608 9.9991h-15.216zm0 1.7437-5.52 7.2556h11.04z"/>
      <path d="m247.7 87.1834 7.608 9.9992h-15.216z" style="fill:#0bb300"/>
      <path d="m247.7 87.1834 7.608 9.9992h-15.216zm0 1.7437-5.52 7.2556h11.04z"/>
    </g>
    <g id="Doors" style="display:inline">
      <path d="M181.404 454.154h13.042v3.999h-13.042zm14.129 76.993v-11.999h4.347v11.999zm-19.563 0v-11.999h4.347v11.999zm-84.7718 0v-11.999h4.3472v11.999zm267.3578 0v-11.999h4.347v11.999zm33.691-152.987v-11.999h4.348v11.999zm60.862-19.998h13.042v3.999h-13.042zm-76.077-89.993h13.042v4h-13.042zm64.122-35.997h13.042v3.999h-13.042zm14.129-101.992h13.042v4h-13.042zm-135.853 7.999V126.18h4.348v11.999zm-149.981 0V126.18h4.347v11.999zM79.243 532.147h8.6946v4H79.243Zm16.3023-85.993v8h-4.3472v-8zm32.6047 0v8h-4.347v-8zm32.605 0v8h-4.348v-8zm71.73 0v8h-4.348v-8zm31.517 56.994v7.999h-4.347v-7.999zm-18.476 10.999h8.695v4h-8.695zm65.21 18h8.694v4h-8.694zm-43.473-77.993h8.694v3.999h-8.694zm-34.778-77.994h8.694v4h-8.694zM343.34 514.147h8.695v4h-8.695zm40.213 0h8.694v4h-8.694zm46.733 5.999h8.694v4h-8.694zM300.954 365.161v7.999h-4.347v-7.999zm45.647 0v7.999h-4.348v-7.999zm-40.213-6.999h8.695v3.999h-8.695zm209.757-149.988h8.694v3.999h-8.694zm0 107.991h8.694v4h-8.694zm-16.303 51.996v7.999h-4.347v-7.999zm-148.894-17.999v7.999h-4.347v-7.999zm-54.341-29.997v7.999h-4.347v-7.999zm0-59.996v8h-4.347v-8zm54.341 0v8h-4.347v-8zm-118.463-41.975v7.999h-4.348v-7.999zm-32.605-.021v7.999h-4.347v-7.999zm-32.605-9.999v7.999h-4.347v-7.999zm19.563-65.995h8.695v4h-8.695zm-76.077 0h8.694v4h-8.694zm32.604 59.995h8.695v4h-8.695zm36.952-127.9895v7.9993h-4.347v-7.9993zm47.82-27.9977h8.695v3.9997h-8.695zm72.817 5.9995h8.695v3.9997h-8.695zm32.605 0h8.694v3.9997h-8.694zm15.215-29.9975h8.695v3.9997h-8.695zM484.627 130.18h8.694v4h-8.694zm-8.695 47.996h8.695v4h-8.695zm23.91-61.995v7.999h-4.347v-7.999zm0 143.988v8h-4.347v-8zm-56.514 0v8h-4.348v-8z" style="fill:#8c737c"/>
      <path d="M323.778 33.1875v11.999h-4.347v-11.999z" style="fill:red"/>
      <path d="M284.652 390.159v7.999h-4.347v-7.999zm8.695 141.986h8.694v4h-8.694z" style="fill:#f30000"/>
    </g>
    <g id="Details" style="display:inline">
      <path d="M281.391 468.152h19.563v8.999h-19.563z" style="fill:#337bcc"/>
      <path d="M449.85 190.179h26.084v11.999H449.85Z" style="fill:#337bcc"/>
      <path d="M281.391 483.151h19.563v8.999h-19.563z" style="fill:#337bcc"/>
      <path d="M449.85 212.177h26.084v11.999H449.85Z" style="fill:#337bcc"/>
      <path d="M236.831 61.1866h19.563v9.9992h-19.563z" style="fill:#337bcc"/>
      <path d="M236.831 75.1852h19.563v9.9992h-19.563z" style="fill:#337bcc"/>
    </g>
  </g>
  <g id="First_Level">
    <g id="Rooms">
      <path d="M328.046 264.181h8v3h1v3h9v-6h24v6h36v-6h21v6h57v66h3v48h-3v66h-42v-20c0-1.061-.42-2.078-1.17-2.828-.75-.751-1.77-1.172-2.83-1.172h-48.34c-1.06 0-2.08-.421-2.83-1.172-2.3-2.295-7.36-7.361-9.66-9.656-.75-.751-1.77-1.172-2.83-1.172h-26.68c-1.06 0-2.08.421-2.83 1.172-2.3 2.295-7.36 7.361-9.66 9.656-.75.751-1.17 1.768-1.17 2.829v22.343h-24v-22.343c0-1.061-.42-2.078-1.17-2.829-2.3-2.295-7.36-7.361-9.66-9.656-.75-.751-1.77-1.172-2.83-1.172h-26.68c-1.06 0-2.08.421-2.83 1.172-2.3 2.295-7.36 7.361-9.66 9.656-.75.751-1.77 1.172-2.83 1.172h-48.34c-1.06 0-2.08.421-2.83 1.172-.75.75-1.17 1.767-1.17 2.828v20h-42v-180h54v-6h24v6h36v-6h24v6h9v-3h1v-3h8v3h2v-3h8v3h2Zm-1 78h-10v24h10Zm115-36h-30v18h30Z" style="fill:#595959"/>
      <path d="M328.046 264.181h8v3h1v3h9v-6h24v6h36v-6h21v6h57v66h3v48h-3v66h-42v-20c0-1.061-.42-2.078-1.17-2.828-.75-.751-1.77-1.172-2.83-1.172h-48.34c-1.06 0-2.08-.421-2.83-1.172l-9.66-9.656c-.75-.751-1.77-1.172-2.83-1.172h-26.68c-1.06 0-2.08.421-2.83 1.172l-9.66 9.656c-.75.751-1.17 1.768-1.17 2.829v22.343h-24v-22.343c0-1.061-.42-2.078-1.17-2.829l-9.66-9.656c-.75-.751-1.77-1.172-2.83-1.172h-26.68c-1.06 0-2.08.421-2.83 1.172l-9.66 9.656c-.75.751-1.77 1.172-2.83 1.172h-48.34c-1.06 0-2.08.421-2.83 1.172-.75.75-1.17 1.767-1.17 2.828v20h-42v-180h54v-6h24v6h36v-6h24v6h9v-3h1v-3h8v3h2v-3h8v3h2Zm8 4h-1v-3h-6v3h-4v-3h-6v3h-4v-3h-6v3h-1v3h-11v-6h-22v6h-38v-6h-22v6h-54v178h40v-19c0-1.326.53-2.598 1.46-3.536.94-.937 2.21-1.464 3.54-1.464h48.34c.8 0 1.56-.316 2.12-.879l9.66-9.657c.94-.937 2.21-1.464 3.54-1.464h26.68c1.33 0 2.6.527 3.54 1.464l9.66 9.657c.93.938 1.46 2.21 1.46 3.536v21.343h22v-21.343c0-1.326.53-2.598 1.46-3.536l9.66-9.657c.94-.937 2.21-1.464 3.54-1.464h26.68c1.33 0 2.6.527 3.54 1.464l9.66 9.657c.56.563 1.32.879 2.12.879h48.34c1.33 0 2.6.527 3.54 1.464.93.938 1.46 2.21 1.46 3.536v19h40v-66h3v-46h-3v-66h-57v-6h-19v6h-38v-6h-22v6h-11Z"/>
      <path d="M235.045 54.181h30v59.998h-30Z" style="fill:#595959"/>
      <path d="M265.043 114.179h-29.998V54.181h29.998Zm-.992-.999v-58h-28v58Z"/>
      <path d="M247.046 67.1817h17.999v10h-17.999Zm0 14h17.999v10h-17.999Z" style="fill:#264a73"/>
      <path d="M82.0461 432.185h12v18h-12Z" style="fill:#595959"/>
      <path d="M94.0461 432.185v18h-12v-18Zm-1 1h-10v16.001h10Z"/>
      <path d="M82.0461 450.181h12v7h-24v-43h12Z" style="fill:#595959"/>
      <path d="M82.0461 450.181h12v7h-24v-43h12Zm-1 0v-35h-10v41h22v-5h-12Z"/>
      <path d="M94.0441 450.18h17.9999v60H94.0441Z" style="fill:#435570"/>
      <path d="M112.044 450.18v60H94.0441v-60Zm-1.001 1H95.0454v58h15.9976Z"/>
      <path d="M154.05 468.182h24v42h-24Z" style="fill:#435570"/>
      <path d="M178.05 468.182v42h-24v-42Zm-1 1h-22v39.999h22Z"/>
      <path d="M154.05 450.181h24v18h-24Z" style="fill:#435570"/>
      <path d="M178.05 450.181v18h-24v-18Zm-1 1h-22v16h22Z"/>
      <path d="M133.046 492.184h21v18h-21Z" style="fill:#595959"/>
      <path d="M154.046 492.184v18h-21v-18Zm-1.002 1h-18.996v16.001h18.996Z"/>
      <path d="M112.048 496.181h21v14h-21Z" style="fill:#595959"/>
      <path d="M133.048 496.181v14h-21v-14Zm-.997 1h-19.005v12h19.005Z"/>
      <path d="M112.048 450.18h42.001v21h-42.001Z" style="fill:#595959"/>
      <path d="M154.049 450.18v21h-42.001v-21Zm-.998 1h-40.005v19h40.005Z"/>
      <path d="M112.046 496.181v-25h42v21h-21v4Z" style="fill:#595959"/>
      <path d="M112.046 496.181v-25h42v21h-21v4Zm1-4v3h19v-4h21v-19h-40Z"/>
      <path d="M112.05 390.182h48v60h-48Z" style="fill:#6b6348"/>
      <path d="M160.05 390.182v60h-48v-60Zm-1 1h-46v57.999h46Z"/>
      <path d="M94.0461 408.184h17.9999v42H94.0461Z" style="fill:#404040"/>
      <path d="M112.046 408.184v42H94.0461v-42Zm-1 1H95.0461v40h15.9999Z"/>
      <path d="M331.046 552.179h18v24h-18Z" style="fill:#404040"/>
      <path d="M349.046 552.179v24h-18v-24Zm-1 1h-16v22h16Z"/>
      <path d="M283.046 552.179h18v24h-18Z" style="fill:#404040"/>
      <path d="M301.046 552.179v24h-18v-24Zm-1 1h-16v22h16Z"/>
      <path d="M94.0461 312.176h17.9999v-42H94.0461Z" style="fill:#404040"/>
      <path d="M112.046 312.176H94.0461v-42h17.9999Zm-1-1v-40H95.0461v40Z"/>
      <path d="M514.046 108.178h18V66.1775h-18Z" style="fill:#404040"/>
      <path d="M532.046 108.178h-18V66.1775h18Zm-1-1V67.1776h-16v40.0004Z"/>
      <path d="M532.046 270.175h18v-42h-18Z" style="fill:#404040"/>
      <path d="M550.046 270.175h-18v-42h18Zm-1-1v-40h-16v40Z"/>
      <path d="M94.0461 390.181h17.9999v18H94.0461Z" style="fill:#404040"/>
      <path d="M112.046 390.181v18H94.0461v-18Zm-1 1H95.0461v16h15.9999Z"/>
      <path d="M331.046 534.179h18v18h-18Z" style="fill:#404040"/>
      <path d="M349.046 534.179v18h-18v-18Zm-1 1h-16v16h16Z"/>
      <path d="M283.046 534.179h18v18h-18Z" style="fill:#404040"/>
      <path d="M301.046 534.179v18h-18v-18Zm-1 1h-16v16h16Z"/>
      <path d="M532.046 210.182h18v18h-18Z" style="fill:#404040"/>
      <path d="M550.046 210.182v18h-18v-18Zm-1 1h-16v16h16Z"/>
      <path d="M94.0461 330.18h17.9999v-18H94.0461Z" style="fill:#404040"/>
      <path d="M112.046 330.18H94.0461v-18h17.9999Zm-1-1v-16H95.0461v16Z"/>
      <path d="M514.046 126.181h18v-18h-18Z" style="fill:#404040"/>
      <path d="M532.046 126.181h-18v-18h18Zm-1-1v-16h-16v16Z"/>
      <path d="M70.0456 510.181H179.045v23.998H70.0456Z" style="fill:#435570"/>
      <path d="M179.045 534.181H70.0456v-24H179.045Zm-.999-1v-22H71.0447v22Z"/>
      <path d="M178.046 450.179h24v36.999h-24Z" style="fill:#435570"/>
      <path d="M178.046 450.179h24v36.999h-24Zm1 1v34.999h22v-34.999Z"/>
      <path d="M70.0453 456.178h24v59.999h-24Z" style="fill:#337bcc"/>
      <path d="M94.0453 456.178v59.999h-24v-59.999Zm-1.0014.999H71.0467v58.001h21.9972Z"/>
      <path d="M76.0462 456.179h12v1h-12Zm0 58.998h12v1h-12Z" style="fill:#337bcc"/>
      <path d="M334.046 510.181h30v24h-139v-24h85v-60h24Z" style="fill:#435570"/>
      <path d="M334.046 510.181h30v24h-139v-24h85v-60h24Zm-1 0v-59h-22v60h-85v22h137v-22h-30Z"/>
      <path d="M292.046 486.183h18v24h-18Z" style="fill:#435570"/>
      <path d="M310.046 486.183v24h-18v-24Zm-1.002 1h-15.996v21.998h15.996Z"/>
      <path d="M292.046 450.181h18v24h-18Z" style="fill:#435570"/>
      <path d="M310.046 450.181v24h-18v-24Zm-1.002 1h-15.996v21.998h15.996Z"/>
      <path d="M292.046 474.179h18v12.002h-18Z" style="fill:#595959"/>
      <path d="M310.046 474.179v12.002h-18v-12.002Zm-1.005 1h-15.99v10.002h15.99Z"/>
      <path d="M262.046 450.181h29.999v60h-29.999Z" style="fill:#595959"/>
      <path d="M292.045 450.181v60h-29.999v-60Zm-1 1h-27.999v58h27.999Z"/>
      <path d="M94.0461 330.181h65.9999v60H94.0461v24h-24v-108h24Z" style="fill:#6b6348"/>
      <path d="M94.0461 330.181h65.9999v60H94.0461v24h-24v-108h24Zm-1 0v-23h-22v106h22v-24h65.9999v-58H93.0461Z"/>
      <path d="M334.046 450.181h30v12h-30Z" style="fill:#595959"/>
      <path d="M364.046 450.181v12h-30v-12Zm-1 1h-28v10h28Z"/>
      <path d="M334.046 462.182h18v18h-18Z" style="fill:#595959"/>
      <path d="M352.046 462.182v18h-18v-18Zm-.99 1.001h-16.02v15.999h16.02Z"/>
      <path d="M364.111 450.18h138.001v78H364.111Z" style="fill:#595959"/>
      <path d="M502.112 450.18v78H364.111v-78Zm-1.035.999H365.146v76.001h135.931Z"/>
      <path d="M166.046 270.181h-18v60h-12v-72h18v-18h12Z" style="fill:#595959"/>
      <path d="M166.046 270.181h-18v60h-12v-72h18v-18h12Zm-1-1v-28h-10v18h-18v70h10v-60Z"/>
      <path d="M22.0502 162.18h36.0001v36H22.0502Z" style="fill:#595959"/>
      <path d="M58.0503 162.18v36H22.0502v-36Zm-.996 1H23.0462v34h34.0081Z"/>
      <path d="M190.047 240.181H58.0467v-120H190.047v30h21v60h-21Z" style="fill:#595959"/>
      <path d="M190.047 240.181H58.0467v-120H190.047v30h21v60h-21Zm-1-1v-30h21v-58h-21v-30H59.0467v118Z"/>
      <path d="M139.046 175.181h6v10h-6Zm-36 0h6v10h-6Z"/>
      <path d="M190.05 102.183h24v48h-24Z" style="fill:#6b6348"/>
      <path d="M214.05 102.183v48h-24v-48Zm-1 1h-22v46h22Z"/>
      <path d="M190.05 210.183h24v48h-24Z" style="fill:#6b6348"/>
      <path d="M214.05 210.183v48h-24v-48Zm-1 1h-22v46h22Z"/>
      <path d="M334.046 486.179h24v24h-24Z" style="fill:#ccc"/>
      <path d="M358.046 486.179v24h-24v-24Zm-3 3h-18v18h18Z" style="fill:#0d79f2"/>
      <path d="M334.046 486.179h24v24h-24Z" style="fill:none;stroke:#000;stroke-width:2"/>
      <path d="M70.0457 534.18h24v24h-24Z" style="fill:#ccc"/>
      <path d="M94.0457 534.18v24h-24v-24Zm-3 3.006h-18v17.989h18Z" style="fill:#2c8217"/>
      <path d="M94.0457 534.18v24h-24v-24Zm-.9997 1.002H71.0453v21.997H93.046Z"/>
      <path d="M272.046 364.183h8v16h-8Zm95 3h8v16h-8Z" style="fill:#ccc"/>
      <path d="M151.046 54.1821h18v30.0001h-18Z" style="fill:#ccc;stroke:#000;stroke-width:2"/>
      <path d="M259.046 42.1813h18v12h-42v-18h-21v65.9997h-48v18h-12V84.1813h42v-66h63Z" style="fill:#595959"/>
      <path d="M259.046 42.1813h18v12h-42v-18h-21v65.9997h-48v18h-12V84.1813h42v-66h63Zm-23 4v7h40v-10h-18v-24h-61v66h-42v33.9997h10v-18h48V35.1813h23Z"/>
      <path d="M277.032 18.1782h90V126.178h-90Z" style="fill:#6b6348"/>
      <path d="M367.032 18.1782V126.178h-90V18.1782Zm-.99 1.0028h-88.02v105.994h88.02Z"/>
      <path d="M277.046 126.181h-42v-12h30V54.1813h12Z" style="fill:#595959"/>
      <path d="M277.046 126.181h-42v-12h30V54.1813h12Zm-1-1V55.1813h-10v59.9997h-30v10Z"/>
      <path d="M409.049 111.18v15h-42V66.1802h11.995V111.18Z" style="fill:#595959"/>
      <path d="M409.049 111.18v15h-42V66.1802h11.995V111.18Zm-1.004 1h-29.994V67.1802h-9.998V125.18h39.992Z"/>
      <path d="M379.048 66.1791h30v44.9999h-30Z" style="fill:#404040"/>
      <path d="M409.048 66.1791v44.9999h-30V66.1791Zm-.995.9998h-28.011v43.0001h28.011Z"/>
      <path d="M427.053 108.182h21v18h-21Z" style="fill:#ccc"/>
      <path d="M448.053 108.182v18h-21v-18Zm-1.003 1h-18.994v15.999h18.994Z"/>
      <path d="M316.046 264.181h-8v-3h-1v-3h-5v-6h-4v12h-24v-12h-36v12h-24v-162h21v24h174V96.1813h18V264.181h-21v-12h-36v12h-24v-12h-4v6h-5v2.965l-1 .035v3h-8v-3h-2v3h-8v-3h-2Z" style="fill:#595959"/>
      <path d="M316.046 264.181h-8v-3h-1v-3h-5v-6h-4v12h-24v-12h-36v12h-24v-162h21v24h174V96.1813h18V264.181h-21v-12h-36v12h-24v-12h-4v6h-5v2.965l-1 .035v3h-8v-3h-2v3h-8v-3h-2Zm-8-4h1v3h6v-3h4v3h6v-3h4v3h6v-2.965l1-.036v-2.999h5v-6h6v12h22v-12h38v12h19V97.1813h-16v29.9997h-176v-24h-19v160h22v-12h38v12h22v-12h6v6h5Z"/>
      <path d="M234.046 147.183h176v87h-176Z" style="fill:#6b6348"/>
      <path d="M178.046 486.179h24v24.002h24v24h-48Z" style="fill:#337bcc"/>
      <path d="M178.046 486.179h24v24.002h24v24h-48Zm1 1v46.002h46v-22h-24v-24.002Z"/>
      <path d="M427.044 126.182h56.999v72h-56.999Z" style="fill:#404040"/>
      <path d="M484.043 126.182v72h-56.999v-72Zm-.995 1.001h-55.009v69.999h55.009Z"/>
      <path d="M427.046 210.179h45v60h-45Z" style="fill:#404040"/>
      <path d="M472.046 210.179v60h-45v-60Zm-1 1.001h-43v57.999h43Z"/>
      <path d="M514.047 144.181h30v24h-30Z" style="fill:#404040"/>
      <path d="M544.047 144.181v24h-30v-24Zm-1 1h-28v22h28Z"/>
      <path d="M544.047 144.181h30v24h-30Z" style="fill:#404040"/>
      <path d="M574.047 144.181v24h-30v-24Zm-1 1h-28v22h28Z"/>
      <path d="M514.047 168.181h30v24h-30Z" style="fill:#404040"/>
      <path d="M544.047 168.181v24h-30v-24Zm-1 1h-28v22h28Z"/>
      <path d="M544.047 168.181h30v24h-30Z" style="fill:#404040"/>
      <path d="M574.047 168.181v24h-30v-24Zm-1 1h-28v22h28Z"/>
      <path d="M550.046 210.181h-45v6h6v27h-9v-12h-18v39h-12v-60h-45v-12h57v-72h-18v-18h-39V96.1813h87v29.9997h24v18h-24v48h36Z" style="fill:#6b6348"/>
      <path d="M550.046 210.181h-45v6h6v27h-9v-12h-18v39h-12v-60h-45v-12h57v-72h-18v-18h-39V96.1813h87v29.9997h24v18h-24v48h36Zm-1-1v-16h-36v-50h24v-16h-24V97.1813h-85v9.9997h39v18h18v74h-57v10h45v60h10v-39h20v12h7v-25h-6v-8Z"/>
      <path d="M484.041 240.184h18v12h-18Z" style="fill:#0dcaf2"/>
      <path d="M502.041 240.184v12h-18v-12Zm-1.003 1h-15.994v10h15.994Z"/>
      <path d="M484.041 231.181h18v9h-18Z" style="fill:#2f6020"/>
      <path d="M502.041 231.181v9h-18v-9Zm-1.003 1h-15.994v7h15.994Z"/>
      <path d="M490.046 336.181v-66h156v180h-156v-66h-3v-48Z" style="fill:#595959"/>
      <path d="M490.046 336.181v-66h156v180h-156v-66h-3v-48Zm0 1h-2v46h3v66h154v-178h-154v66Z"/>
      <path d="M532.047 246.181v24h-48v-18h18v-9h9v9h9l6-6Z" style="fill:#595959"/>
      <path d="M532.047 246.181v24h-48v-18h18v-9h9v9h9l6-6Zm-1 1h-4.59l-6 6h-10.41v-9h-7v9h-18v16h46Z"/>
      <path d="M697.046 336.181h12v48h-12v24h-18v-24h-33v-48h33v-24h18Z" style="fill:#595959"/>
      <path d="M697.046 336.181h12v48h-12v24h-18v-24h-33v-48h33v-24h18Zm-1-23h-16v24h-33v46h33v24h16v-24h12v-46h-12Z"/>
      <path d="M512.047 235.181h19v10h-6l-6 6v2h-7ZM81.0441 401.18H93.044v12H81.0441Zm0-94.001H93.044v12H81.0441Zm110.0019-65.996h22v16h-22Zm0-138.001h22v16h-22Z" style="fill:#ccc"/>
      <path d="M58.0459 360.182h12v12h-12Z" style="fill:#595959"/>
      <path d="M70.0459 360.182v11.998h-12v-11.998Zm-.9998.994H59.0456v10.002h10.0005Z"/>
      <path d="M58.0459 348.182h12v12h-12Z" style="fill:#595959"/>
      <path d="M70.0459 348.182v11.998h-12v-11.998Zm-.9998.994H59.0456v10.001h10.0005Z"/>
      <path d="M467.046 108.181h-19v18h18v-10h1" style="fill:#ccc;stroke:#000;stroke-width:2"/>
      <path d="M365.047 465.179h10v18h-10Zm125.999 0h10v18h-10Z" style="fill:#ccc"/>
      <path d="M603.046 449.181v1h7v54h30v24h-138v-18h42v-6h36v-54h6v-1" style="fill:#595959;stroke:#000;stroke-width:2"/>
      <path d="M503.049 511.178h22v16h-22ZM249.044 55.1814h17v8h-17Zm0 39.9999h17v7.9997h-17ZM429.05 506.179h8v8h-8ZM278.046 95.1823h9v29.9997h-9Zm-40 54.9987h9v24h-9Zm159.001 0h9v24h-9Zm-159.001 60h9v24h-9Zm159.001 0h9v24h-9Zm-54.997 179h12v24h-12Zm106 11.999h12v24h-12Zm-264.004 0h12v24h-12ZM448.05 294.181h12v24h-12Zm-264.004 0h12v24h-12Zm158.004 12h12v24h-12Zm-52.001 83h12v24h-12Zm0-83h12v24h-12Zm66.997-210.9987h9v29.9997h-9Zm-43.995 0h18v29.9997h-18Zm0 114.9987h18v24h-18Zm215.995 111h9v12h-9Zm0 66h9v12h-9Z" style="fill:#ccc"/>
      <path d="M442.046 306.181h-30l-12 .002 12 .043v17.955h30Z" style="fill:#595959"/>
      <path d="M442.046 306.181h-30l-12 .002 12 .043v17.955h30Z" style="fill:none;stroke:#000;stroke-width:2"/>
      <path d="M208.046 372.182h18v36h-18Z" style="fill:#595959;stroke:#000;stroke-width:1.3796145544246985"/>
      <path d="M227.509 367.578c-2.049 1.631-4.643 2.605-7.463 2.605-6.623 0-12-5.377-12-12s5.377-12 12-12c5.706 0 10.487 3.992 11.702 9.332" style="fill:#6b6348;stroke:#000;stroke-width:2"/>
      <path d="M501.046 474.181h13v37" style="fill:none;stroke:#ccc;stroke-dasharray:2,2;stroke-opacity:.6;stroke-width:2"/>
      <circle id="circle193" cx="322.045346" cy="171.180965" r="8.999993"/>
      <path d="M626.045 329.183h6v8h-6Zm0 54h6v8h-6Zm-50-54.002h6v8h-6Zm0 54h6v8h-6Zm-53-54h6v8h-6Zm0 54h6v8h-6Z"/>
      <path d="M427.045 387.181h15v15h-15Z" style="fill:#595959"/>
      <path d="M429.048 402.181h-2.003v-2h3.998v2Zm-2.003-14h.998v-1h2.002v2h-.997v1h-2.003Zm0 4h2.003v2h-2.003Zm0 4h2.003v2h-2.003Zm6 6v-2h2.003v2Zm3.998 0v-2h2.002v2Zm3.015 0-.015-.011v-.989h1.005v-1h.997v2Zm1.987-3h-2.002v-2h2.002Zm0-4h-2.002v-2h2.002Zm0-4h-2.002v-4c0 1.885 2.002 2 2.002 2Zm-3.997-4v2h-2.003v-2Zm-4.005 0v2h-1.995v-2Z"/>
      <path d="M406.045 387.181h15v15h-15Z" style="fill:#595959"/>
      <path d="M408.048 402.181h-2.003v-2h3.998v2Zm-2.003-14h.998v-1h2.002v2h-.997v1h-2.003Zm0 4h2.003v2h-2.003Zm0 4h2.003v2h-2.003Zm6 6v-2h2.003v2Zm3.998 0v-2h2.002v2Zm3 0v-1h1.005v-1h.997v2Zm2.002-3h-2.002v-2h2.002Zm0-4h-2.002v-2h2.002Zm0-4h-2.002v-4c0 1.885 2.002 2 2.002 2Zm-3.997-4v2h-2.003v-2Zm-4.005 0v2h-1.995v-2Z"/>
      <path d="M385.046 387.181h15v15h-15Z" style="fill:#595959"/>
      <path d="M387.048 402.181h-2.002v-2h3.997v2Zm-2.002-14h.997v-1h2.003v2h-.998v1h-2.002Zm0 4h2.002v2h-2.002Zm0 4h2.002v2h-2.002Zm6 6v-2h2.002v2Zm3.997 0v-2h2.003v2Zm3 0v-1h1.005v-1h.998v2Zm2.003-3h-2.003v-2h2.003Zm0-4h-2.003v-2h2.003Zm0-4h-2.003v-4c0 1.885 2.003 2 2.003 2Zm-3.998-4v2h-2.002v-2Zm-4.005 0v2h-1.995v-2Z"/>
      <path d="M413.042 372.18h29v14.999h-29Z" style="fill:#404040"/>
      <path d="M442.048 372.18v14.999h-29.006V372.18Zm-1.008.999h-26.99v13.001h26.99Z"/>
      <path d="M428.044 364.184h14v7.999h-14Z" style="fill:#404040"/>
      <path d="M442.047 364.184v7.999h-14.003v-7.999Zm-1.002 1h-11.999v6.001l11.999-.002Z"/>
      <path d="M264.046 352.185h8v51h-8Z" style="fill:#404040"/>
      <path d="M272.046 352.185v51h-8v-51Zm-1 .998h-6v49.004h6Z"/>
      <path d="M202.474 348.816c3.362-6.323 10.017-10.632 17.671-10.632 4.713 0 9.047 1.633 12.467 4.365l-3.814 4.69c-2.395-1.912-5.429-3.055-8.727-3.055-5.358 0-10.017 3.016-12.37 7.443Z" style="fill:#404040;stroke:#000;stroke-width:1.00000029094"/>
      <path d="M435.046 371.183h6v2h-6Zm-5-5.999v6h-2v-6Zm-164.997 36h6v2h-6Zm0-49.002h6v2h-6Zm-31.701-8.35-3.162 3.938-1.56-1.252 3.163-3.939Zm-30.057 4.51 4.311 2.531-1.013 1.725-4.311-2.531Z" style="fill:#404040"/>
      <path d="M184.046 486.177h12v1h-12Zm-6.001 42.005v-12h1v12Zm47.001 0v-12h1v12Z" style="fill:#337bcc"/>
    </g>
    <g id="Arrows">
      <path d="m533.546 322.181 7 10h-14Z" style="fill:#0bb300"/>
      <path d="m533.546 322.181 7 10h-14Zm0 1.744-5.08 7.256h10.159Z"/>
      <path d="m533.546 388.181 7 10h-14Z" style="fill:#0bb300"/>
      <path d="m533.546 388.181 7 10h-14Zm0 1.744-5.08 7.256h10.159Z"/>
      <path d="m82.0463 556.174-7.0002-10h14Z" style="fill:red"/>
      <path d="m82.0463 556.174-7.0002-10h14Zm0-1.744 5.0793-7.256H76.967Z"/>
      <path d="m346.044 508.174-7-10h14Z" style="fill:red"/>
      <path d="m346.044 508.174-7-10h14Zm0-1.744 5.08-7.256h-10.159Z"/>
      <path d="m276.044 377.181-7-10h14Z" style="fill:red"/>
      <path d="m276.044 377.181-7-10h14Zm0-1.744 5.08-7.256h-10.159Z"/>
      <path d="m371.044 380.181-7-10h14Z" style="fill:red"/>
      <path d="m371.044 380.181-7-10h14Zm0-1.744 5.08-7.256h-10.159Z"/>
      <path d="m160.044 74.181-7-9.9999h14Z" style="fill:red"/>
      <path d="m160.044 74.181-7-9.9999h14Zm0-1.7438 5.08-7.2562h-10.159Z"/>
      <path d="m257.044 64.181-7-9.9999h14Z" style="fill:red"/>
      <path d="m257.044 64.181-7-9.9999h14Zm0-1.7438 5.08-7.2562h-10.159Z"/>
      <path d="m257.044 104.181-7-9.9999h14Z" style="fill:red"/>
      <path d="m257.044 104.181-7-9.9999h14Zm0-1.744 5.08-7.256h-10.159Z"/>
      <path d="m457.044 122.181-7-10h14Z" style="fill:red"/>
      <path d="m457.044 122.181-7-10h14Zm0-1.744 5.08-7.256h-10.159Z"/>
      <path d="m82.0457 536.179 7.0002 10h-14Z" style="fill:#0bb300"/>
      <path d="m82.0457 536.179 7.0002 10h-14Zm0 1.744-5.0793 7.256H87.125Z"/>
      <path d="m346.046 488.179 7 10h-14Z" style="fill:#0bb300"/>
      <path d="m346.046 488.179 7 10h-14Zm0 1.744-5.08 7.256h10.159Z"/>
      <path d="m87.0457 308.181 7.0002 10h-14Z" style="fill:#0bb300"/>
      <path d="m87.0457 308.181 7.0002 10h-14Zm0 1.744-5.0793 7.256H92.125Z"/>
      <path d="m87.0457 402.181 7.0002 10h-14Z" style="fill:#0bb300"/>
      <path d="m87.0457 402.181 7.0002 10h-14Zm0 1.744-5.0793 7.256H92.125Z"/>
      <path d="m437.546 112.181 7 10h-14Z" style="fill:#0bb300"/>
      <path d="m437.546 112.181 7 10h-14Zm0 1.744-5.08 7.256h10.159Z"/>
      <path d="m514.046 514.181 7 10h-14Z" style="fill:#0bb300"/>
      <path d="m514.046 514.181 7 10h-14Zm0 1.744-5.08 7.256h10.159Z"/>
      <path d="m521.046 235.181 7 10h-14Z" style="fill:#0bb300"/>
      <path d="m521.046 235.181 7 10h-14Zm0 1.744-5.08 7.256h10.159Z"/>
      <path d="m202.046 244.181 7 10h-14Z" style="fill:#0bb300"/>
      <path d="m202.046 244.181 7 10h-14Zm0 1.744-5.08 7.256h10.159Z"/>
      <path d="m202.046 106.181 7 10h-14Z" style="fill:#0bb300"/>
      <path d="m202.046 106.181 7 10h-14Zm0 1.744-5.08 7.256h10.159Z"/>
      <path d="m370.046 469.181 7 10h-14Z" style="fill:#0bb300"/>
      <path d="m370.046 469.181 7 10h-14Zm0 1.744-5.08 7.256h10.159Z"/>
      <path d="m496.046 469.181 7 10h-14Z" style="fill:#0bb300"/>
      <path d="m496.046 469.181 7 10h-14Zm0 1.744-5.08 7.256h10.159Z"/>
      <path d="m433.042 514.18-4-6h8Z" style="fill:red"/>
      <path d="m433.042 514.18-4-6h8Zm0-1.803 2.131-3.197h-4.263Z"/>
      <path d="m322.046 105.181 7 10h-14Z" style="fill:#0bb300"/>
      <path d="m322.046 105.181 7 10h-14Zm0 1.744-5.08 7.256h10.159Z"/>
      <path d="m322.046 217.181 7 10h-14Z" style="fill:#0bb300"/>
      <path d="m322.046 217.181 7 10h-14Zm0 1.744-5.08 7.256h10.159Z"/>
      <path d="m282.546 105.181 7 10h-14Z" style="fill:#0bb300"/>
      <path d="m282.546 105.181 7 10h-14Zm0 1.744-5.08 7.256h10.159Z"/>
      <path d="m242.546 157.181 7 10h-14Z" style="fill:#0bb300"/>
      <path d="m242.546 157.181 7 10h-14Zm0 1.744-5.08 7.256h10.159Z"/>
      <path d="m401.546 157.181 7 10h-14Z" style="fill:#0bb300"/>
      <path d="m401.546 157.181 7 10h-14Zm0 1.744-5.08 7.256h10.159Z"/>
      <path d="m242.546 217.181 7 10h-14Z" style="fill:#0bb300"/>
      <path d="m242.546 217.181 7 10h-14Zm0 1.744-5.08 7.256h10.159Z"/>
      <path d="m401.546 217.181 7 10h-14Z" style="fill:#0bb300"/>
      <path d="m401.546 217.181 7 10h-14Zm0 1.744-5.08 7.256h10.159Z"/>
      <path d="m348.046 396.181 7 10h-14Z" style="fill:#0bb300"/>
      <path d="m348.046 396.181 7 10h-14Zm0 1.744-5.08 7.256h10.159Z"/>
      <path d="m454.046 408.181 7 10h-14Z" style="fill:#0bb300"/>
      <path d="m454.046 408.181 7 10h-14Zm0 1.744-5.08 7.256h10.159Z"/>
      <path d="m190.046 408.181 7 10h-14Z" style="fill:#0bb300"/>
      <path d="m190.046 408.181 7 10h-14Zm0 1.744-5.08 7.256h10.159Z"/>
      <path d="m454.046 301.181 7 10h-14Z" style="fill:#0bb300"/>
      <path d="m454.046 301.181 7 10h-14Zm0 1.744-5.08 7.256h10.159Z"/>
      <path d="m190.046 301.181 7 10h-14Z" style="fill:#0bb300"/>
      <path d="m190.046 301.181 7 10h-14Zm0 1.744-5.08 7.256h10.159Z"/>
      <path d="m348.046 313.181 7 10h-14Z" style="fill:#0bb300"/>
      <path d="m348.046 313.181 7 10h-14Zm0 1.744-5.08 7.256h10.159Z"/>
      <path d="m296.046 396.181 7 10h-14Z" style="fill:#0bb300"/>
      <path d="m296.046 396.181 7 10h-14Zm0 1.744-5.08 7.256h10.159Z"/>
      <path d="m296.046 313.181 7 10h-14Z" style="fill:#0bb300"/>
      <path d="m296.046 313.181 7 10h-14Zm0 1.744-5.08 7.256h10.159Z"/>
      <path d="m361.546 105.181 7 10h-14Z" style="fill:#0bb300"/>
      <path d="m361.546 105.181 7 10h-14Zm0 1.744-5.08 7.256h10.159Z"/>
    </g>
    <g id="Doors">
      <path d="M366.027 125.18v2h-87.999v-2Zm-50.985 138v2h-6v-2Zm20 0v2h-6v-2Zm-10 0v2h-6v-2Zm-96 0v2h-6v-2Zm186 0v2h-6v-2ZM189.045 129.184h2v12h-2Zm0 90h2v12h-2Zm24-90h2v12h-2Zm0 90h2v12h-2Zm-4.997-10.004v2h-9v-2Zm0-60v2h-9v-2Z" style="fill:#595959"/>
      <path d="M546.045 152.181v8h-4v-8Zm0 24v8h-4v-8Zm-117-29v12h-4v-12Zm0 74v8h-4v-8Zm45 0v8h-4v-8Z" style="fill:#8c737c"/>
      <path d="M486.045 354.184h2v12h-2Zm159-6.005h2v24h-2ZM57.046 168.182h2v24h-2Z" style="fill:#595959"/>
      <path d="M290.046 484.18v-8h4v8Zm-150 6.001h7v4h-7Zm-11-21h8v4h-8Z" style="fill:#8c737c"/>
      <path d="M297.046 484.18h8v4h-8Zm0-12.001h8v4h-8Z" style="fill:#f30000"/>
      <path d="M486.045 156.181v12h-4v-12Zm30-4v8h-4v-8Zm0 24v8h-4v-8Zm-418.999 332h12v4h-12Zm-19 23.998h8v4h-8Zm82-23.998h12v4h-12Zm2-42h8v4h-8Zm-39 28h8v4h-8Z" style="fill:#8c737c"/>
      <path d="M114.046 499.181v8h-4v-8Z" style="fill:#f30000"/>
      <path d="M85.0465 448.181h6v4h-6Zm-13.0005-36h8v4h-8Zm27-24h8v4h-8Zm0 18h8v4h-8Zm0-78h8v4h-8Zm0-18h8v4h-8Z" style="fill:#8c737c"/>
      <path d="M69.0452 363.181h2v6h-2ZM147.05 329.18v2h-10v-2Z" style="fill:#595959"/>
      <path d="M279.046 44.181v8h-4v-8Zm-123 38h8v4h-8Zm0 36h8v4h-8Zm0 120h8v4h-8Zm132 293.998h8v4h-8Zm0 17.995h8v4h-8Zm48-17.995h8v4h-8Zm0 17.995h8v4h-8Zm6-41.993h8v4h-8Zm23.999 5v12h-4v-12Zm0-61v8h-4v-8Zm-29.999 0v8h-4v-8Zm3 8h8v4h-8Zm-27 32v12h-4v-12Zm0-36v12h-4v-12Zm-176-68h12v4h-12Zm26 44v8h-4v-8Zm266.999-232v8h-4v-8Zm0-102v8h-4v-8Zm0 15v8h-4v-8Zm-18 0v8h-4v-8Zm-30-43v8h-4v-8Zm-143.999 46v8h-4v-8Zm162-7h8v4h-8Zm-120-46v12h-4v-12Zm89.999 9v12h-4v-12Zm150.005 52h8v4h-8Zm0-18h8v4h-8Zm18 102h8v4h-8Zm0 18h8v4h-8Zm-43.003 42h12v4h-12Zm22 0h12v4h-12Z" style="fill:#8c737c"/>
      <path d="M510.046 242.18v2h-7v-2Zm-26.996 27v2h-10v-2Zm-324.005 62.001h2v58h-2Zm42.003 117.999v2h-22v-2Zm132 0v2h-22v-2Z" style="fill:#595959"/>
      <path d="M428.045 128.181v17h-2v-17Zm0 33v34.999h-2v-34.999Zm-236.999-12h6v2h-6Zm0 60h6v2h-6Zm0-88v6h-2v-6Zm0 90v6h-2v-6Zm24 0v6h-2v-6Zm-24 22v6h-2v-6Zm24 0v6h-2v-6Zm0-112v6h-2v-6Zm0 22v6h-2v-6Zm-24 0v6h-2v-6Zm40 120h6v2h-6Zm-16 0h6v2h-6Zm201.996 0h9v2h-9Z" style="fill:#4da1b3"/>
      <path d="M228.046 394.181v12h-4v-12Z" style="fill:#8c737c"/>
      <path d="M431.046 322.181h8v4h-8Zm-17-7v8h-4v-8Z" style="fill:#f30000"/>
    </g>
    <g id="Details">
      <path d="M382.04 465.178h45v21h-45Z" style="fill:#595959"/>
      <path d="M427.04 465.178v21h-45v-21Zm-1.003 1h-42.994v19h42.994Z"/>
      <path d="M382.04 498.178h45v21h-45Z" style="fill:#595959"/>
      <path d="M427.04 498.178v21h-45v-21Zm-1.003 1h-42.994v19h42.994Z"/>
      <path d="M439.04 498.178h45v21h-45Z" style="fill:#595959"/>
      <path d="M484.04 498.178v21h-45v-21Zm-1.003 1h-42.994v19h42.994Z"/>
      <path d="M439.04 465.178h45v21h-45Z" style="fill:#595959"/>
      <path d="M484.04 465.178v21h-45v-21Zm-1.003 1h-42.994v19h42.994Z"/>
      <path d="M435.046 357.181h6l6-9.998v-12" style="fill:none;stroke:#000;stroke-width:2"/>
      <path d="M74.0442 121.181h79.9998v20H74.0442Zm0 98h79.9998v20H74.0442Z" style="fill:#404040"/>
      <path d="M208.046 342.183v-12m45.997-18h18m-45.996 59.996 14.999 9.999v12.001m15.005-31.996h8m7.992 31.996h10l8-3.996m-25.997-8.009h-12v12m-20.484-42.844 10.488 4.851m-34.004-33.998v-12h12m52 53.998v-11h12m-56.003-42.998h12v12m149.003 8.001v-19l-5-5h-14l-5 5v14.001l4 4.999m6 17.999h8l6-6.002m21 15.001h10l5-5v-14l-5-5h-14l-5 5v10.001" style="fill:none;stroke:#000;stroke-width:2"/>
    </g>
  </g>
  <g id="Second_Level" class="shadow">
    <g id="Rooms">
      <path d="M490.001 332.767h49v12h-25v30h25v12h-49Z" style="fill:#595959"/>
      <path d="M490.001 332.767h49v12h-25v30h25v12h-49Zm1 1v52h47v-10h-25v-32h25v-10Z"/>
      <path d="M527.001 89.7669V209.767h32v57h-75v-15h39v-6h15v7h3v-25h-32V89.7669Z" style="fill:#595959"/>
      <path d="M559.001 209.767v57h-75v-15h39v-6h15v7h3v-25h-32V89.7669h18V209.767Zm-1 1h-32V90.7669h-16V226.767h32v27h-5v-7h-13v6h-39v13h73Z"/>
      <path d="M532.001 503.767h-30v24h24v-16h6Z" style="fill:#595959"/>
      <path d="M532.001 503.767v8h-6v16h-24v-24Zm-1 1h-28v22h22v-16h6Z"/>
      <path d="M214.001 263.768v6h-54v180h324v-66h3v-48h-3v-66h-5v-3h-14v3h-29v-6h-30v6h-74v-6h-9v3h-2v-3h-9v6h-74v-6Zm-30 30h66l12 12h120l12-12h66v29l-9 9v56l9 9v29h-66l-12-12h-120l-12 12h-66v-29l9-9v-56l-9-9Z" style="display:inline;fill:#595959"/>
      <path d="M184.001 293.768v29l9 9v56l-9 9v29h66l12-12h120l12 12h66v-29l-9-9v-56l9-9v-29h-66l-12 12h-120l-12-12Z" style="display:inline;fill:none;stroke:#000"/>
      <path d="M183.001 426.767v-30.414l9-9v-55.172l-9-9v-30.414h67.41l12 12h119.18l12-12h67.41v30.414l-9 9v55.172l9 9v30.414h-67.41l-12-12h-119.18l-12 12Z" style="display:inline;fill:none;stroke:#000;stroke-opacity:1"/>
      <path d="M317.001 267.767h-2v-3h-2v6h-76v-6h-22v6H161v178h322.001v-66h3v-46h-3v-66h-5v-3h-12v3h-31v-6h-28v6h-76v-6h-2v3h-2v-3h-3v3h-4v-3h-3Z" style="display:inline;fill:none;stroke:#000;stroke-opacity:1"/>
      <path d="M323.001 263.767h9v6h74v-6h30v6h29v-3h14v3h5v66h3v48h-3v66H160v-180h54.001v-6h24v6h74v-6h9v3h2Z" style="display:inline;fill:none;stroke:#000;stroke-opacity:1"/>
      <path d="M93.998 473.766h18v36h-18Z" style="fill:#435570"/>
      <path d="M111.998 473.766v36h-18v-36Zm-1.001 1H94.9993v34.002h15.9977Z"/>
      <path d="M93.998 449.767h18v24h-18Z" style="fill:#435570"/>
      <path d="M111.998 449.767v24h-18v-24Zm-1.001 1H94.9993v22h15.9977Z"/>
      <path d="M154.004 449.767h24v60h-24Z" style="fill:#435570"/>
      <path d="M178.004 449.767v60h-24v-60Zm-1 1h-22v58h22Z"/>
      <path d="M132.999 494.766h21v15h-21Z" style="fill:#435570"/>
      <path d="M153.999 494.766v15h-21v-15Zm-1.002 1h-18.996v13h18.996Z"/>
      <path d="M112 509.767v-60h42v15h-21v45Z" style="fill:#435570"/>
      <path d="M112 509.767v-60h42v15h-21v45Zm1-51v50h19v-45h21v-13h-40Z"/>
      <path d="M132.999 479.767h21v15h-21Z" style="fill:#435570"/>
      <path d="M153.999 479.767v15h-21v-15Zm-1.002 1h-18.996v13h18.996Z"/>
      <path d="M132.999 464.767h21v15h-21Z" style="fill:#435570"/>
      <path d="M153.999 464.767v15h-21v-15Zm-1.002 1h-18.996v13h18.996Z"/>
      <path d="M94.0041 389.768h65.9999v60H94.0041Z" style="fill:#6b6348"/>
      <path d="M160.004 389.768v60H94.0041v-60Zm-1.008 1H95.0124v57.999h63.9836Z"/>
      <path d="M94.0041 269.767h65.9999v60H94.0041Z" style="fill:#6b6348"/>
      <path d="M160.004 269.767v60H94.0041v-60Zm-1.008 1.001H95.0124v57.999h63.9836Z"/>
      <path d="M51.9952 491.767v18H9.99515v-18Z" style="fill:#404040"/>
      <path d="M51.9952 509.767H9.99515v-18H51.9952Zm-1-1v-16h-40v16Z"/>
      <path d="M51.9952 473.767v18H9.99515v-18Z" style="fill:#404040"/>
      <path d="M51.9952 491.767H9.99515v-18H51.9952Zm-1-1v-16h-40v16Z"/>
      <path d="M69.9985 491.767v18h-18v-18Z" style="fill:#404040"/>
      <path d="M69.9985 509.767h-18v-18h18Zm-1-1v-16h-16v16Z"/>
      <path d="M69.9985 473.767v18h-18v-18Z" style="fill:#404040"/>
      <path d="M69.9985 491.767h-18v-18h18Zm-1-1v-16h-16v16Z"/>
      <path d="M70.0004 473.762v-30h24v30Z" style="fill:#404040"/>
      <path d="M70.0004 443.762h24v30h-24Zm1 1v28h22v-28Z"/>
      <path d="M70.0004 443.764v-30h24v30Z" style="fill:#404040"/>
      <path d="M70.0004 413.764h24v30h-24Zm1 1v28h22v-28Z"/>
      <path d="M94.0005 509.767h85.0005v23.998H70.0005v-59.998h24Z" style="fill:#435570"/>
      <path d="M94.0005 509.767h85.0005v23.998H70.0005v-59.998h24Zm-23 0v22.998H178.001v-21.998H93.0005v-36h-22Z"/>
      <path d="M178.001 449.764h24v24.999h-24Z" style="fill:#435570"/>
      <path d="M178.001 449.764h24v24.999h-24Zm1 1v22.999h22v-22.999Z"/>
      <path d="M334.001 509.767h30v24h-139v-24h85v-60h24Z" style="fill:#435570"/>
      <path d="M334.001 509.767h30v24h-139v-24h85v-60h24Zm-1 0v-59h-22v60h-85v22h137v-22h-30Z"/>
      <path d="M202.005 451.769h76.001v58h-76.001Z" style="fill:#595959"/>
      <path d="M278.016 509.769h-76.011v-58h76.011Zm-1.003-.996v-56.004h-74.005v56.004Z"/>
      <path d="M160 363.767v26H94.0005v12h-24v-31H152.76Z" style="fill:#595959"/>
      <path d="M160 363.767v26H94.0005v12h-24v-31H152.76Zm-1 2.357-5.84 5.643H71.0005v29h22v-12H159Z"/>
      <path d="M70.0005 348.767v-31h24v12H160v26l-7.24-7Z" style="fill:#595959"/>
      <path d="M70.0005 348.767v-31h24v12H160v26l-7.24-7Zm1-1H153.16l5.84 5.643v-22.643H93.0005v-12h-22Z"/>
      <path d="m160.001 352.768.118.121c.567.563.877 1.325.877 2.122v9.513c0 .797-.31 1.559-.877 2.122l-.118.121Z" style="fill:#4b8edb"/>
      <path d="M334.001 461.769h18v24h-18Z" style="fill:#595959"/>
      <path d="M352.001 461.769v24h-18v-24Zm-.99.998h-16.02v22.003h16.02Z"/>
      <path d="M364.024 451.767h138.001v14H364.024Z" style="fill:#595959"/>
      <path d="M502.025 451.767v14H364.024v-14Zm-1.035 1H365.059v12H500.99Z"/>
      <path d="M189.997 119.767h21v30h-21Z" style="fill:#595959"/>
      <path d="M210.997 119.767v30h-21v-30Zm-1.003 1H191v28h18.994Z"/>
      <path d="M189.997 209.767h21v30h-21Z" style="fill:#595959"/>
      <path d="M210.997 209.767v30h-21v-30Zm-1.003 1H191v28h18.994Z"/>
      <path d="M333.996 485.764h24v24h-24Z" style="fill:#ccc"/>
      <path d="M357.996 485.764v24h-24v-24Zm-3 3h-18v18h18Z" style="fill:#0d79f2"/>
      <path d="M333.996 485.764h24v24h-24Z" style="fill:none;stroke:#000;stroke-width:2"/>
      <path d="M69.9967 533.765h24v24h-24Z" style="fill:#ccc"/>
      <path d="M93.9967 533.765v24h-24v-24Zm-3 3.006h-18v17.989h18Z" style="fill:#2c8217"/>
      <path d="M93.9967 533.765v24h-24v-24Zm-.9996 1.002H70.9964v21.997h22.0007Z"/>
      <path d="M94.0025 533.765h24.0005v24H94.0025Z" style="fill:#ccc"/>
      <path d="M118.003 533.765v24H94.0025v-24Zm-1 1.002H95.0021v21.997h22.0009Z"/>
      <path d="M235 53.7672h42v71.9998h-42Z" style="fill:#6b6348"/>
      <path d="M277 125.767h-42V53.7672h42Zm-1-1V54.7672h-40v69.9998Z"/>
      <path d="M406.001 89.7656v36.0004H390v-24h-22.998V53.7656h14.997v36Z" style="fill:#595959"/>
      <path d="M406.001 89.7656v36.0004H390v-24h-22.998V53.7656h14.997v36Zm-.994 1h-24.001v-36h-13v46.0004h22.998v24h14.003Z"/>
      <path d="M367.004 125.767v-24h23v24h-16.996v-12h-6.004Z" style="fill:#595959"/>
      <path d="M367.004 113.767v-12h23v24h-16.996v-12Zm1.005-1.001h5.992v12H389v-21.999h-20.991Z"/>
      <path d="M382 53.7668h23.999v36H382Z" style="fill:#595959"/>
      <path d="M405.999 53.7668v36H382v-36Zm-.997 1.0002h-22.005v33.9996h22.005Z"/>
      <path d="M178.001 473.765h24v36.002h36v24h-60Z" style="fill:#337bcc"/>
      <path d="M178.001 473.765h24v36.002h36v24h-60Zm1 1v58.002h58v-22h-36v-36.002Z"/>
      <path d="M184.004 473.766h12v1h-12Zm-6.003 53.998v-12h1v12Zm58.999 0v-12h1v12Z" style="fill:#337bcc"/>
      <path d="M483.996 239.769h17.999v12h-17.999Z" style="fill:#0dcaf2"/>
      <path d="M501.995 239.769v12h-17.999v-12Zm-1.002 1h-15.995v10h15.995Z"/>
      <path d="M490.001 386.767v-54" style="fill:none;stroke:#000;stroke-width:1.00000029094"/>
      <path d="M490.001 335.767v-3h49v12h-25v30h25v12h-49v-3h-3v-48Z" style="fill:#595959"/>
      <path d="M490.001 335.767v-3h49v12h-25v30h25v12h-49v-3h-3v-48Zm0 1h-2v46h3v3h47v-10h-25v-32h25v-10h-47v3Z"/>
      <path d="M80.9976 400.765h12v12h-12Zm0-94h12v12h-12ZM365 464.765h10v18h-10Zm126 0h10v18h-10Zm12.002 45.998h22v16h-22Z" style="fill:#ccc"/>
      <path d="M501.999 451.765h30v52h-30Z" style="fill:#595959"/>
      <path d="M531.999 451.765v52h-30v-52Zm-.998 1h-28.005v50h28.005Z"/>
      <path d="M460 233.767h24v33h-24Z" style="fill:#595959"/>
      <path d="M484 233.767v33h-24v-33Zm-1.004 1h-21.993v31.001h21.993Z"/>
      <path d="M436 233.767h24v33h-24Z" style="fill:#595959"/>
      <path d="M460 233.767v33h-24v-33Zm-1.004 1h-21.993v31.001h21.993Z"/>
      <path d="M436.005 209.767h48v24h-48Z" style="fill:#595959"/>
      <path d="M484.005 209.767v24h-48v-24Zm-1.003 1h-45.993v22h45.993Z"/>
      <path d="M465.999 149.766h18v60h-18Z" style="fill:#595959"/>
      <path d="M483.999 149.766v60h-18v-60Zm-.998 1h-16.004v58h16.004Z"/>
      <path d="M447.999 107.767h18v18h-18Z" style="fill:#404040"/>
      <path d="M465.999 107.767v18h-18v-18Zm-.998 1h-16.004v16h16.004Z"/>
      <path d="M405.999 107.767h18v18h-18Z" style="fill:#404040"/>
      <path d="M423.999 107.767v18h-18v-18Zm-.998 1h-16.004v16h16.004Z"/>
      <path d="M447.999 65.7677h18v42.0003h-18Z" style="fill:#404040"/>
      <path d="M465.999 65.7677v42.0003h-18V65.7677Zm-.998 1.001h-16.004v39.9983h16.004Z"/>
      <path d="M405.999 65.7677h18v42.0003h-18Z" style="fill:#404040"/>
      <path d="M423.999 65.7677v42.0003h-18V65.7677Zm-.998 1.001h-16.004v39.9983h16.004Z"/>
      <path d="M514 344.765h15v30h-15Z" style="fill:#595959"/>
      <path d="M529 344.765v30h-15v-30Zm-1.003 1h-12.994v28h12.994Z"/>
      <path d="M424.001 149.766h42v60h-42Z" style="fill:#6b6348"/>
      <path d="M466.001 149.766v60h-42v-60Zm-1 1h-40v58h40Z"/>
      <path d="M483.999 125.767h25v24h-25Z" style="fill:#6b6348"/>
      <path d="M508.999 125.767v24h-25v-24Zm-1 1h-23v22h23Z"/>
      <path d="M373.001 125.767h-6Zm-5.001-12h5v11h-5Z" style="fill:#595959"/>
      <path d="M368 113.767h5v11h-5Z" style="fill:none"/>
      <path d="M214.001 229.767v-100h-3v-10h3v-18h21v24h249v24h-60v60h12v54h-30v-12h-74v12h-4v-4 4h-5v-3h-2v3h-5v-4 4h-4v-12h-74v12h-24v-24h-3v-10Zm87.89-79h-63.89v82h8.63c.67 0 1.29-.337 1.67-.897 5.88-8.906 53.59-81.103 53.59-81.103Zm58.73 82c.74 0 1.41-.4 1.76-1.043.35-.643.32-1.426-.08-2.041-5.17-8.021-18.93-29.342-22.94-35.554-.28-.448-.74-.762-1.26-.872-.52-.11-1.07-.008-1.51.284-4.22 2.686-9.22 4.226-14.59 4.226-5.41 0-10.45-1.564-14.69-4.281-.45-.294-.99-.397-1.51-.287-.52.11-.98.424-1.26.872-4.02 6.236-17.71 27.593-22.86 35.616-.39.616-.42 1.398-.07 2.039.35.642 1.02 1.041 1.76 1.041Zm-18.64-82s47.83 72.207 53.72 81.104c.37.56 1 .896 1.67.896h8.63v-82Z" style="fill:#595959"/>
      <path d="M321.001 263.767h-9v-12h-74v12h-24v-24h-3v-10h3v-100h-3v-10h3v-18h21v24h249v24h-60v60h12v54h-30v-12h-74v12h-9v-3h-2Zm6-4h2v3h2v-12h76v12h28v-52h-12v-62h60v-22h-249v-24h-19v18h-3v8h3v102h-3v8h3v24h22v-12h76v12h2v-3h2v3h3v-3h4v3h3Zm-24.27-108.449-53.6 81.103c-.56.84-1.5 1.346-2.5 1.346h-9.63v-84h64.89Zm-.84-.551h-63.89v82h8.63c.67 0 1.29-.337 1.67-.897Zm58.73 83h-77.25c-1.1 0-2.11-.599-2.64-1.561-.52-.962-.48-2.135.11-3.058 5.15-8.024 18.84-29.381 22.85-35.617.44-.673 1.12-1.146 1.9-1.311.78-.164 1.59-.011 2.26.425 4.08 2.616 8.94 4.122 14.15 4.122 5.17 0 9.99-1.482 14.05-4.07.67-.432 1.48-.583 2.26-.418.78.165 1.46.636 1.89 1.307l22.94 35.555c.6.922.64 2.097.12 3.061-.53.965-1.54 1.565-2.64 1.565Zm0-1c.74 0 1.41-.4 1.76-1.043.35-.643.32-1.426-.08-2.041l-22.94-35.554c-.28-.448-.74-.762-1.26-.872-.52-.11-1.07-.008-1.51.284-4.22 2.686-9.22 4.226-14.59 4.226-5.41 0-10.45-1.564-14.69-4.281-.45-.294-.99-.397-1.51-.287-.52.11-.98.424-1.26.872-4.02 6.236-17.71 27.593-22.86 35.616-.39.616-.42 1.398-.07 2.039.35.642 1.02 1.041 1.76 1.041Zm-18.64-83h65.02v84h-9.63c-1 0-1.95-.504-2.5-1.343l-53.72-81.105Zm0 1 53.72 81.104c.37.56 1 .896 1.67.896h8.63v-82Z"/>
      <path d="M341.004 390.766h12v24h-12Zm107 12.001h12v24h-12Zm-264 0h12v24h-12Zm107-12.001h12v24h-12ZM278.001 96.7675h9v30.0005h-9Zm-40 52.9985h9v24h-9Zm158.999 0h9v24h-9Zm-158.999 60h9v24h-9Zm158.999 0h9v24h-9Zm51.004 83h12v24h-12Zm-264 0h12v24h-12Zm157 12h12v24h-12Zm-50 0h12v24h-12Zm65.997-207.9985h9v30.0005h-9Zm-44.003 0h18v30.0005h-18Zm0 112.9985h18v24h-18Z" style="fill:#ccc"/>
      <path d="M309.988 341.766h24v36h-24Z" style="fill:#595959"/>
      <path d="M333.988 341.766v36h-24v-36Zm-1.013 1h-21.973v34h21.973Z"/>
      <path d="M297.991 377.767v-42.735c0-1.405.74-2.707 1.95-3.43 2.06-1.24 5.41-3.249 8.2-4.922 3.01-1.807 4.85-5.062 4.85-8.575v-12.338h18v12.338c0 3.513 1.85 6.768 4.86 8.575 2.79 1.673 6.14 3.682 8.2 4.922 1.21.723 1.94 2.025 1.94 3.43v42.735h-12v-36h-24v36Z" style="fill:#595959"/>
      <path d="M297.991 377.767v-42.735c0-1.405.74-2.707 1.95-3.43l8.2-4.922c3.01-1.807 4.85-5.062 4.85-8.575v-12.338h18v12.338c0 3.513 1.85 6.768 4.86 8.575l8.2 4.922c1.21.723 1.94 2.025 1.94 3.43v42.735h-12v-36h-24v36Zm1-1h10v-36h26v36h10v-41.735c0-1.054-.55-2.031-1.45-2.573l-8.2-4.921c-3.32-1.988-5.35-5.569-5.35-9.433v-11.338h-16v11.338c0 3.864-2.02 7.445-5.34 9.433l-8.2 4.921c-.9.542-1.46 1.519-1.46 2.573Z"/>
      <path d="M297.993 377.766h48v12h-48Z" style="fill:#595959"/>
      <path d="M345.993 377.766v12h-48v-12Zm-1.014 1h-45.973v10h45.973Z"/>
      <path d="M529.001 321.767h9v12h-9Zm0 64h9v12h-9Zm1-141h-18v-8h25v10h-7Zm-339-142h24v8h-2v8h-22Zm22 146h2v8h-24v-16h22Zm226-124h-14v-16h22v18h-8Z" style="fill:#ccc"/>
      <path d="M278 451.767h32v18h-32Z" style="fill:#595959"/>
      <path d="M310 451.767v18h-32v-18Zm-1 1h-30v16h30Z"/>
      <path d="M278 469.767h32v40h-32Z" style="fill:#595959"/>
      <path d="M310 469.767v40h-32v-40Zm-1 1h-30v38h30Z"/>
    </g>
    <g id="Arrows">
      <path d="m81.9983 550.767-7.0002-10h14Z" style="fill:red"/>
      <path d="m81.9983 550.767-7.0002-10h14Zm0-1.744 5.0793-7.256H76.919Z"/>
      <path d="m345.998 502.767-7-10h14Z" style="fill:red"/>
      <path d="m345.998 502.767-7-10h14Zm0-1.744 5.08-7.256h-10.159Z"/>
      <path d="m296.998 407.767-7-10h14Z" style="fill:red"/>
      <path d="m296.998 407.767-7-10h14Zm0-1.744 5.08-7.256h-10.159Z"/>
      <path d="m189.998 419.767-7-10h14Z" style="fill:red"/>
      <path d="m189.998 419.767-7-10h14Zm0-1.744 5.08-7.256h-10.159Z"/>
      <path d="m86.9983 411.767-7.0002-10h14Z" style="fill:red"/>
      <path d="m86.9983 411.767-7.0002-10h14Zm0-1.744 5.0793-7.256H81.919Z"/>
      <path d="m86.9983 317.766-7.0002-10h14Z" style="fill:red"/>
      <path d="m86.9983 317.766-7.0002-10h14Zm0-1.744 5.0793-7.256H81.919Z"/>
      <path d="m189.998 309.766-7-10h14Z" style="fill:red"/>
      <path d="m189.998 309.766-7-10h14Zm0-1.744 5.08-7.256h-10.159Z"/>
      <path d="m296.998 321.766-7-10h14Z" style="fill:red"/>
      <path d="m296.998 321.766-7-10h14Zm0-1.744 5.08-7.256h-10.159Z"/>
      <path d="m346.998 321.766-7-10h14Z" style="fill:red"/>
      <path d="m346.998 321.766-7-10h14Zm0-1.744 5.08-7.256h-10.159Z"/>
      <path d="m346.998 407.767-7-10h14Z" style="fill:red"/>
      <path d="m346.998 407.767-7-10h14Zm0-1.744 5.08-7.256h-10.159Z"/>
      <path d="m453.998 419.767-7-10h14Z" style="fill:red"/>
      <path d="m453.998 419.767-7-10h14Zm0-1.744 5.08-7.256h-10.159Z"/>
      <path d="m369.998 478.767-7-10h14Z" style="fill:red"/>
      <path d="m369.998 478.767-7-10h14Zm0-1.744 5.08-7.256h-10.159Z"/>
      <path d="m495.998 478.767-7-10h14Z" style="fill:red"/>
      <path d="m495.998 478.767-7-10h14Zm0-1.744 5.08-7.256h-10.159Z"/>
      <path d="m513.998 523.767-7-10h14Z" style="fill:red"/>
      <path d="m513.998 523.767-7-10h14Zm0-1.744 5.08-7.256h-10.159Z"/>
      <path d="m533.498 396.767-7-10h14Z" style="fill:red"/>
      <path d="m533.498 396.767-7-10h14Zm0-1.744 5.08-7.256h-10.159Z"/>
      <path d="m533.498 332.766-7-10h14Z" style="fill:red"/>
      <path d="m533.498 332.766-7-10h14Zm0-1.744 5.08-7.256h-10.159Z"/>
      <path d="m524.498 245.766-7-10h14Z" style="fill:red"/>
      <path d="m524.498 245.766-7-10h14Zm0-1.744 5.08-7.256h-10.159Z"/>
      <path d="m401.498 226.766-7-10h14Z" style="fill:red"/>
      <path d="m401.498 226.766-7-10h14Zm0-1.744 5.08-7.256h-10.159Z"/>
      <path d="m321.998 226.766-7-10h14Z" style="fill:red"/>
      <path d="m321.998 226.766-7-10h14Zm0-1.744 5.08-7.256h-10.159Z"/>
      <path d="m202.998 253.766-7-10h14Z" style="fill:red"/>
      <path d="m202.998 253.766-7-10h14Zm0-1.744 5.08-7.256h-10.159Z"/>
      <path d="m242.498 226.766-7-10h14Z" style="fill:red"/>
      <path d="m242.498 226.766-7-10h14Zm0-1.744 5.08-7.256h-10.159Z"/>
      <path d="m242.498 166.766-7-10h14Z" style="fill:red"/>
      <path d="m242.498 166.766-7-10h14Zm0-1.744 5.08-7.256h-10.159Z"/>
      <path d="m202.998 115.766-7-10h14Z" style="fill:red"/>
      <path d="m202.998 115.766-7-10h14Zm0-1.744 5.08-7.256h-10.159Z"/>
      <path d="m282.498 116.766-7-10h14Z" style="fill:red"/>
      <path d="m282.498 116.766-7-10h14Zm0-1.744 5.08-7.256h-10.159Z"/>
      <path d="m321.998 116.766-7-10h14Z" style="fill:red"/>
      <path d="m321.998 116.766-7-10h14Zm0-1.744 5.08-7.256h-10.159Z"/>
      <path d="m361.498 116.766-7-10h14Z" style="fill:red"/>
      <path d="m361.498 116.766-7-10h14Zm0-1.744 5.08-7.256h-10.159Z"/>
      <path d="m401.498 166.766-7-10h14Z" style="fill:red"/>
      <path d="m401.498 166.766-7-10h14Zm0-1.744 5.08-7.256h-10.159Z"/>
      <path d="m435.998 122.766-7-10h14Z" style="fill:red"/>
      <path d="m435.998 122.766-7-10h14Zm0-1.744 5.08-7.256h-10.159Z"/>
      <path d="m453.998 309.766-7-10h14Z" style="fill:red"/>
      <path d="m453.998 309.766-7-10h14Zm0-1.744 5.08-7.256h-10.159Z"/>
    </g>
    <g id="Doors">
      <path d="M327.003 262.765v2h-3v-2Zm-7 0v2h-3v-2Zm-91.007 0v2h-6v-2Zm195 0v2h-6v-2Z" style="fill:#595959"/>
      <path d="M134.999 483.766v7h-4v-7Zm0-15v7h-4v-7Zm21-15v7h-4v-7Zm-77.995 78.001h8v4h-8Zm81.997-24h12v4h-12Zm-43 0h12v4h-12Zm-38.997-36.001h8v4h-8Zm21 0h8v4h-8Zm-21-30h8v4h-8Zm56.995 56.997v7h-4v-7Zm-66.998 5.999v-8h4v8Zm-18 0v-8h4v8Zm18-18v-8h4v8Zm24 0v-8h4v8Zm-42 0v-8h4v8Zm292.003 21.005h8v4h-8Zm-6.005-32.001v8h-4v-8Zm180-112v8h-4v-8Zm-62.995-240h8v4h-8Zm-42 0h8v4h-8Zm-17 0h8v4h-8Zm-130 0h8v4h-8Zm209 24h8v4h-8Zm-20-42h8v4h-8Zm-42 0h8v4h-8Zm57.997 102h12v4h-12Zm-1.002-34v12h-4v-12Zm-1.998 58h12v4h-12Zm0 33h12v4h-12Zm-4.002-21v12h-4v-12Z" style="fill:#8c737c"/>
      <path d="M158.999 330.764h2v58h-2Zm42.003 118.001v2h-22v-2Zm132 0v2h-22v-2Z" style="fill:#595959"/>
      <path d="M424.999 152.766v54h-2v-54ZM214.998 262.767h6v2h-6Zm191.998 0h9v2h-9Z" style="fill:#4da1b3"/>
      <path d="M435.002 208.765v2h-9v-2Zm0-60v2h-9v-2Z" style="fill:#595959"/>
      <path d="M447.004 207.766h8v4h-8Z" style="fill:#8c737c"/>
      <path d="M482.996 129.764h2v16h-2Zm25 0h2v16h-2Z" style="fill:#595959"/>
      <path d="M380.998 99.7663h8v3.9997h-8ZM375 116.767v4.999h-3v-4.999Zm18.998-29.0007h8v4h-8Z" style="fill:#f30000"/>
      <path d="M212.999 120.766v8h-4v-8Z" style="fill:#8c737c"/>
      <path d="M485.996 338.769h2v12.001h-2Zm0 20.997h2v21h-2Z" style="fill:#595959"/>
      <path d="M213 230.766v8h-4v-8Z" style="fill:#f30000"/>
      <path d="M482.996 252.764h2v13h-2Z" style="fill:#595959"/>
      <path d="M213.999 170.766v18h-2v-18Z" style="fill:#4da1b3"/>
      <path d="M370.001 448.766h12v4h-12Zm72 0h12v4h-12Z" style="fill:#8c737c"/>
      <path d="M311.997 454.766v12h-4v-12Z" style="fill:red"/>
      <path d="M311.999 343.766v8h-4v-8Zm24 0v8h-4v-8Z" style="fill:#8c737c"/>
      <path d="M310.999 353.766v21h-2v-21Zm24 0v21h-2v-21Z" style="fill:#4da1b3"/>
      <path d="M299.998 375.766h8v4h-8Zm36 0h8v4h-8Z" style="fill:#f30000"/>
      <path d="M96.9952 388.767h11.9998v2H96.9952Zm0-60h11.9998v2H96.9952Zm47.9998 60h12v2h-12Zm0-60h12v2h-12Z" style="fill:#4da1b3"/>
      <path d="M113.001 387.766h12v4h-12Zm0-60h12v4h-12Zm16 60h12v4h-12Zm0-60h12v4h-12Z" style="fill:#8c737c"/>
      <path d="M160.999 392.766v54h-2v-54Zm0-120v54h-2v-54Z" style="fill:#4da1b3"/>
      <path d="M330.002 304.765v2h-16v-2Z" style="fill:#595959"/>
      <path d="M279.999 454.766v12h-4v-12Zm0 31v8h-4v-8Zm-179.998 46.001h12v4h-12Z" style="fill:#8c737c"/>
    </g>
    <g id="Details">
      <circle cx="321.994646" cy="170.76686" r="26.000052" style="fill:#6b6348"/>
      <circle cx="321.993327" cy="170.766832" r="8.999997" style="fill:#8c8573"/>
    </g>
  </g>
</svg>