<svg xmlns="http://www.w3.org/2000/svg" xml:space="preserve" id="svg1266" version="1.1" viewBox="0 0 720 586">
  <style id="style1266">
    .shadow{filter:drop-shadow(0 0 8px #000)}
  </style>
  <g id="Second-Level" class="shadow" style="display:inline">
    <g id="Rooms">
      <path d="M490.001 332.767h49v12h-25v30h25v12h-49Z" style="fill:#595959"/>
      <path d="M490.001 332.767h49v12h-25v30h25v12h-49Zm1 1v52h47v-10h-25v-32h25v-10Z"/>
      <path d="M527.001 89.7669V209.767h32v57h-75v-15h39v-6h15v7h3v-25h-32V89.7669Z" style="fill:#595959"/>
      <path d="M559.001 209.767v57h-75v-15h39v-6h15v7h3v-25h-32V89.7669h18V209.767Zm-1 1h-32V90.7669h-16V226.767h32v27h-5v-7h-13v6h-39v13h73Z"/>
      <path d="M532.001 503.767h-30v24h24v-16h6Z" style="fill:#595959"/>
      <path d="M532.001 503.767v8h-6v16h-24v-24Zm-1 1h-28v22h22v-16h6Z"/>
      <path d="M214.001 263.768v6h-54v180h324v-66h3v-48h-3v-66h-5v-3h-14v3h-29v-6h-30v6h-74v-6h-9v3h-2v-3h-9v6h-74v-6Zm-30 30h66l12 12h120l12-12h66v29l-9 9v56l9 9v29h-66l-12-12h-120l-12 12h-66v-29l9-9v-56l-9-9Z" style="display:inline;fill:#595959"/>
      <path d="M184.001 293.768v29l9 9v56l-9 9v29h66l12-12h120l12 12h66v-29l-9-9v-56l9-9v-29h-66l-12 12h-120l-12-12Z" style="display:inline;fill:none;stroke:#000"/>
      <path d="M183.001 426.767v-30.414l9-9v-55.172l-9-9v-30.414h67.41l12 12h119.18l12-12h67.41v30.414l-9 9v55.172l9 9v30.414h-67.41l-12-12h-119.18l-12 12Z" style="display:inline;fill:none;stroke:#000;stroke-opacity:1"/>
      <path d="M317.001 267.767h-2v-3h-2v6h-76v-6h-22v6H161v178h322.001v-66h3v-46h-3v-66h-5v-3h-12v3h-31v-6h-28v6h-76v-6h-2v3h-2v-3h-3v3h-4v-3h-3Z" style="display:inline;fill:none;stroke:#000;stroke-opacity:1"/>
      <path d="M323.001 263.767h9v6h74v-6h30v6h29v-3h14v3h5v66h3v48h-3v66H160v-180h54.001v-6h24v6h74v-6h9v3h2Z" style="display:inline;fill:none;stroke:#000;stroke-opacity:1"/>
      <path d="M93.998 473.766h18v36h-18Z" style="fill:#435570"/>
      <path d="M111.998 473.766v36h-18v-36Zm-1.001 1H94.9993v34.002h15.9977Z"/>
      <path d="M93.998 449.767h18v24h-18Z" style="fill:#435570"/>
      <path d="M111.998 449.767v24h-18v-24Zm-1.001 1H94.9993v22h15.9977Z"/>
      <path d="M154.004 449.767h24v60h-24Z" style="fill:#435570"/>
      <path d="M178.004 449.767v60h-24v-60Zm-1 1h-22v58h22Z"/>
      <path d="M132.999 494.766h21v15h-21Z" style="fill:#435570"/>
      <path d="M153.999 494.766v15h-21v-15Zm-1.002 1h-18.996v13h18.996Z"/>
      <path d="M112 509.767v-60h42v15h-21v45Z" style="fill:#435570"/>
      <path d="M112 509.767v-60h42v15h-21v45Zm1-51v50h19v-45h21v-13h-40Z"/>
      <path d="M132.999 479.767h21v15h-21Z" style="fill:#435570"/>
      <path d="M153.999 479.767v15h-21v-15Zm-1.002 1h-18.996v13h18.996Z"/>
      <path d="M132.999 464.767h21v15h-21Z" style="fill:#435570"/>
      <path d="M153.999 464.767v15h-21v-15Zm-1.002 1h-18.996v13h18.996Z"/>
      <path d="M94.0041 389.768h65.9999v60H94.0041Z" style="fill:#6b6348"/>
      <path d="M160.004 389.768v60H94.0041v-60Zm-1.008 1H95.0124v57.999h63.9836Z"/>
      <path d="M94.0041 269.767h65.9999v60H94.0041Z" style="fill:#6b6348"/>
      <path d="M160.004 269.767v60H94.0041v-60Zm-1.008 1.001H95.0124v57.999h63.9836Z"/>
      <path d="M51.9952 491.767v18H9.99515v-18Z" style="fill:#404040"/>
      <path d="M51.9952 509.767H9.99515v-18H51.9952Zm-1-1v-16h-40v16Z"/>
      <path d="M51.9952 473.767v18H9.99515v-18Z" style="fill:#404040"/>
      <path d="M51.9952 491.767H9.99515v-18H51.9952Zm-1-1v-16h-40v16Z"/>
      <path d="M69.9985 491.767v18h-18v-18Z" style="fill:#404040"/>
      <path d="M69.9985 509.767h-18v-18h18Zm-1-1v-16h-16v16Z"/>
      <path d="M69.9985 473.767v18h-18v-18Z" style="fill:#404040"/>
      <path d="M69.9985 491.767h-18v-18h18Zm-1-1v-16h-16v16Z"/>
      <path d="M70.0004 473.762v-30h24v30Z" style="fill:#404040"/>
      <path d="M70.0004 443.762h24v30h-24Zm1 1v28h22v-28Z"/>
      <path d="M70.0004 443.764v-30h24v30Z" style="fill:#404040"/>
      <path d="M70.0004 413.764h24v30h-24Zm1 1v28h22v-28Z"/>
      <path d="M94.0005 509.767h85.0005v23.998H70.0005v-59.998h24Z" style="fill:#435570"/>
      <path d="M94.0005 509.767h85.0005v23.998H70.0005v-59.998h24Zm-23 0v22.998H178.001v-21.998H93.0005v-36h-22Z"/>
      <path d="M178.001 449.764h24v24.999h-24Z" style="fill:#435570"/>
      <path d="M178.001 449.764h24v24.999h-24Zm1 1v22.999h22v-22.999Z"/>
      <path d="M334.001 509.767h30v24h-139v-24h85v-60h24Z" style="fill:#435570"/>
      <path d="M334.001 509.767h30v24h-139v-24h85v-60h24Zm-1 0v-59h-22v60h-85v22h137v-22h-30Z"/>
      <path d="M202.005 451.769h76.001v58h-76.001Z" style="fill:#595959"/>
      <path d="M278.016 509.769h-76.011v-58h76.011Zm-1.003-.996v-56.004h-74.005v56.004Z"/>
      <path d="M160 363.767v26H94.0005v12h-24v-31H152.76Z" style="fill:#595959"/>
      <path d="M160 363.767v26H94.0005v12h-24v-31H152.76Zm-1 2.357-5.84 5.643H71.0005v29h22v-12H159Z"/>
      <path d="M70.0005 348.767v-31h24v12H160v26l-7.24-7Z" style="fill:#595959"/>
      <path d="M70.0005 348.767v-31h24v12H160v26l-7.24-7Zm1-1H153.16l5.84 5.643v-22.643H93.0005v-12h-22Z"/>
      <path d="m160.001 352.768.118.121c.567.563.877 1.325.877 2.122v9.513c0 .797-.31 1.559-.877 2.122l-.118.121Z" style="fill:#4b8edb"/>
      <path d="M334.001 461.769h18v24h-18Z" style="fill:#595959"/>
      <path d="M352.001 461.769v24h-18v-24Zm-.99.998h-16.02v22.003h16.02Z"/>
      <path d="M364.024 451.767h138.001v14H364.024Z" style="fill:#595959"/>
      <path d="M502.025 451.767v14H364.024v-14Zm-1.035 1H365.059v12H500.99Z"/>
      <path d="M189.997 119.767h21v30h-21Z" style="fill:#595959"/>
      <path d="M210.997 119.767v30h-21v-30Zm-1.003 1H191v28h18.994Z"/>
      <path d="M189.997 209.767h21v30h-21Z" style="fill:#595959"/>
      <path d="M210.997 209.767v30h-21v-30Zm-1.003 1H191v28h18.994Z"/>
      <path d="M333.996 485.764h24v24h-24Z" style="fill:#ccc"/>
      <path d="M357.996 485.764v24h-24v-24Zm-3 3h-18v18h18Z" style="fill:#0d79f2"/>
      <path d="M333.996 485.764h24v24h-24Z" style="fill:none;stroke:#000;stroke-width:2"/>
      <path d="M69.9967 533.765h24v24h-24Z" style="fill:#ccc"/>
      <path d="M93.9967 533.765v24h-24v-24Zm-3 3.006h-18v17.989h18Z" style="fill:#2c8217"/>
      <path d="M93.9967 533.765v24h-24v-24Zm-.9996 1.002H70.9964v21.997h22.0007Z"/>
      <path d="M94.0025 533.765h24.0005v24H94.0025Z" style="fill:#ccc"/>
      <path d="M118.003 533.765v24H94.0025v-24Zm-1 1.002H95.0021v21.997h22.0009Z"/>
      <path d="M235 53.7672h42v71.9998h-42Z" style="fill:#6b6348"/>
      <path d="M277 125.767h-42V53.7672h42Zm-1-1V54.7672h-40v69.9998Z"/>
      <path d="M406.001 89.7656v36.0004H390v-24h-22.998V53.7656h14.997v36Z" style="fill:#595959"/>
      <path d="M406.001 89.7656v36.0004H390v-24h-22.998V53.7656h14.997v36Zm-.994 1h-24.001v-36h-13v46.0004h22.998v24h14.003Z"/>
      <path d="M367.004 125.767v-24h23v24h-16.996v-12h-6.004Z" style="fill:#595959"/>
      <path d="M367.004 113.767v-12h23v24h-16.996v-12Zm1.005-1.001h5.992v12H389v-21.999h-20.991Z"/>
      <path d="M382 53.7668h23.999v36H382Z" style="fill:#595959"/>
      <path d="M405.999 53.7668v36H382v-36Zm-.997 1.0002h-22.005v33.9996h22.005Z"/>
      <path d="M178.001 473.765h24v36.002h36v24h-60Z" style="fill:#337bcc"/>
      <path d="M178.001 473.765h24v36.002h36v24h-60Zm1 1v58.002h58v-22h-36v-36.002Z"/>
      <path d="M184.004 473.766h12v1h-12Zm-6.003 53.998v-12h1v12Zm58.999 0v-12h1v12Z" style="fill:#337bcc"/>
      <path d="M483.996 239.769h17.999v12h-17.999Z" style="fill:#0dcaf2"/>
      <path d="M501.995 239.769v12h-17.999v-12Zm-1.002 1h-15.995v10h15.995Z"/>
      <path d="M490.001 386.767v-54" style="fill:none;stroke:#000;stroke-width:1.00000029094"/>
      <path d="M490.001 335.767v-3h49v12h-25v30h25v12h-49v-3h-3v-48Z" style="fill:#595959"/>
      <path d="M490.001 335.767v-3h49v12h-25v30h25v12h-49v-3h-3v-48Zm0 1h-2v46h3v3h47v-10h-25v-32h25v-10h-47v3Z"/>
      <path d="M80.9976 400.765h12v12h-12Zm0-94h12v12h-12ZM365 464.765h10v18h-10Zm126 0h10v18h-10Zm12.002 45.998h22v16h-22Z" style="fill:#ccc"/>
      <path d="M501.999 451.765h30v52h-30Z" style="fill:#595959"/>
      <path d="M531.999 451.765v52h-30v-52Zm-.998 1h-28.005v50h28.005Z"/>
      <path d="M460 233.767h24v33h-24Z" style="fill:#595959"/>
      <path d="M484 233.767v33h-24v-33Zm-1.004 1h-21.993v31.001h21.993Z"/>
      <path d="M436 233.767h24v33h-24Z" style="fill:#595959"/>
      <path d="M460 233.767v33h-24v-33Zm-1.004 1h-21.993v31.001h21.993Z"/>
      <path d="M436.005 209.767h48v24h-48Z" style="fill:#595959"/>
      <path d="M484.005 209.767v24h-48v-24Zm-1.003 1h-45.993v22h45.993Z"/>
      <path d="M465.999 149.766h18v60h-18Z" style="fill:#595959"/>
      <path d="M483.999 149.766v60h-18v-60Zm-.998 1h-16.004v58h16.004Z"/>
      <path d="M447.999 107.767h18v18h-18Z" style="fill:#404040"/>
      <path d="M465.999 107.767v18h-18v-18Zm-.998 1h-16.004v16h16.004Z"/>
      <path d="M405.999 107.767h18v18h-18Z" style="fill:#404040"/>
      <path d="M423.999 107.767v18h-18v-18Zm-.998 1h-16.004v16h16.004Z"/>
      <path d="M447.999 65.7677h18v42.0003h-18Z" style="fill:#404040"/>
      <path d="M465.999 65.7677v42.0003h-18V65.7677Zm-.998 1.001h-16.004v39.9983h16.004Z"/>
      <path d="M405.999 65.7677h18v42.0003h-18Z" style="fill:#404040"/>
      <path d="M423.999 65.7677v42.0003h-18V65.7677Zm-.998 1.001h-16.004v39.9983h16.004Z"/>
      <path d="M514 344.765h15v30h-15Z" style="fill:#595959"/>
      <path d="M529 344.765v30h-15v-30Zm-1.003 1h-12.994v28h12.994Z"/>
      <path d="M424.001 149.766h42v60h-42Z" style="fill:#6b6348"/>
      <path d="M466.001 149.766v60h-42v-60Zm-1 1h-40v58h40Z"/>
      <path d="M483.999 125.767h25v24h-25Z" style="fill:#6b6348"/>
      <path d="M508.999 125.767v24h-25v-24Zm-1 1h-23v22h23Z"/>
      <path d="M373.001 125.767h-6Zm-5.001-12h5v11h-5Z" style="fill:#595959"/>
      <path d="M368 113.767h5v11h-5Z" style="fill:none"/>
      <path d="M214.001 229.767v-100h-3v-10h3v-18h21v24h249v24h-60v60h12v54h-30v-12h-74v12h-4v-4 4h-5v-3h-2v3h-5v-4 4h-4v-12h-74v12h-24v-24h-3v-10Zm87.89-79h-63.89v82h8.63c.67 0 1.29-.337 1.67-.897 5.88-8.906 53.59-81.103 53.59-81.103Zm58.73 82c.74 0 1.41-.4 1.76-1.043.35-.643.32-1.426-.08-2.041-5.17-8.021-18.93-29.342-22.94-35.554-.28-.448-.74-.762-1.26-.872-.52-.11-1.07-.008-1.51.284-4.22 2.686-9.22 4.226-14.59 4.226-5.41 0-10.45-1.564-14.69-4.281-.45-.294-.99-.397-1.51-.287-.52.11-.98.424-1.26.872-4.02 6.236-17.71 27.593-22.86 35.616-.39.616-.42 1.398-.07 2.039.35.642 1.02 1.041 1.76 1.041Zm-18.64-82s47.83 72.207 53.72 81.104c.37.56 1 .896 1.67.896h8.63v-82Z" style="fill:#595959"/>
      <path d="M321.001 263.767h-9v-12h-74v12h-24v-24h-3v-10h3v-100h-3v-10h3v-18h21v24h249v24h-60v60h12v54h-30v-12h-74v12h-9v-3h-2Zm6-4h2v3h2v-12h76v12h28v-52h-12v-62h60v-22h-249v-24h-19v18h-3v8h3v102h-3v8h3v24h22v-12h76v12h2v-3h2v3h3v-3h4v3h3Zm-24.27-108.449-53.6 81.103c-.56.84-1.5 1.346-2.5 1.346h-9.63v-84h64.89Zm-.84-.551h-63.89v82h8.63c.67 0 1.29-.337 1.67-.897Zm58.73 83h-77.25c-1.1 0-2.11-.599-2.64-1.561-.52-.962-.48-2.135.11-3.058 5.15-8.024 18.84-29.381 22.85-35.617.44-.673 1.12-1.146 1.9-1.311.78-.164 1.59-.011 2.26.425 4.08 2.616 8.94 4.122 14.15 4.122 5.17 0 9.99-1.482 14.05-4.07.67-.432 1.48-.583 2.26-.418.78.165 1.46.636 1.89 1.307l22.94 35.555c.6.922.64 2.097.12 3.061-.53.965-1.54 1.565-2.64 1.565Zm0-1c.74 0 1.41-.4 1.76-1.043.35-.643.32-1.426-.08-2.041l-22.94-35.554c-.28-.448-.74-.762-1.26-.872-.52-.11-1.07-.008-1.51.284-4.22 2.686-9.22 4.226-14.59 4.226-5.41 0-10.45-1.564-14.69-4.281-.45-.294-.99-.397-1.51-.287-.52.11-.98.424-1.26.872-4.02 6.236-17.71 27.593-22.86 35.616-.39.616-.42 1.398-.07 2.039.35.642 1.02 1.041 1.76 1.041Zm-18.64-83h65.02v84h-9.63c-1 0-1.95-.504-2.5-1.343l-53.72-81.105Zm0 1 53.72 81.104c.37.56 1 .896 1.67.896h8.63v-82Z"/>
      <path d="M341.004 390.766h12v24h-12Zm107 12.001h12v24h-12Zm-264 0h12v24h-12Zm107-12.001h12v24h-12ZM278.001 96.7675h9v30.0005h-9Zm-40 52.9985h9v24h-9Zm158.999 0h9v24h-9Zm-158.999 60h9v24h-9Zm158.999 0h9v24h-9Zm51.004 83h12v24h-12Zm-264 0h12v24h-12Zm157 12h12v24h-12Zm-50 0h12v24h-12Zm65.997-207.9985h9v30.0005h-9Zm-44.003 0h18v30.0005h-18Zm0 112.9985h18v24h-18Z" style="fill:#ccc"/>
      <path d="M309.988 341.766h24v36h-24Z" style="fill:#595959"/>
      <path d="M333.988 341.766v36h-24v-36Zm-1.013 1h-21.973v34h21.973Z"/>
      <path d="M297.991 377.767v-42.735c0-1.405.74-2.707 1.95-3.43 2.06-1.24 5.41-3.249 8.2-4.922 3.01-1.807 4.85-5.062 4.85-8.575v-12.338h18v12.338c0 3.513 1.85 6.768 4.86 8.575 2.79 1.673 6.14 3.682 8.2 4.922 1.21.723 1.94 2.025 1.94 3.43v42.735h-12v-36h-24v36Z" style="fill:#595959"/>
      <path d="M297.991 377.767v-42.735c0-1.405.74-2.707 1.95-3.43l8.2-4.922c3.01-1.807 4.85-5.062 4.85-8.575v-12.338h18v12.338c0 3.513 1.85 6.768 4.86 8.575l8.2 4.922c1.21.723 1.94 2.025 1.94 3.43v42.735h-12v-36h-24v36Zm1-1h10v-36h26v36h10v-41.735c0-1.054-.55-2.031-1.45-2.573l-8.2-4.921c-3.32-1.988-5.35-5.569-5.35-9.433v-11.338h-16v11.338c0 3.864-2.02 7.445-5.34 9.433l-8.2 4.921c-.9.542-1.46 1.519-1.46 2.573Z"/>
      <path d="M297.993 377.766h48v12h-48Z" style="fill:#595959"/>
      <path d="M345.993 377.766v12h-48v-12Zm-1.014 1h-45.973v10h45.973Z"/>
      <path d="M529.001 321.767h9v12h-9Zm0 64h9v12h-9Zm1-141h-18v-8h25v10h-7Zm-339-142h24v8h-2v8h-22Zm22 146h2v8h-24v-16h22Zm226-124h-14v-16h22v18h-8Z" style="fill:#ccc"/>
      <path d="M278 451.767h32v18h-32Z" style="fill:#595959"/>
      <path d="M310 451.767v18h-32v-18Zm-1 1h-30v16h30Z"/>
      <path d="M278 469.767h32v40h-32Z" style="fill:#595959"/>
      <path d="M310 469.767v40h-32v-40Zm-1 1h-30v38h30Z"/>
    </g>
    <g id="Arrows">
      <path d="m81.9983 550.767-7.0002-10h14Z" style="fill:red"/>
      <path d="m81.9983 550.767-7.0002-10h14Zm0-1.744 5.0793-7.256H76.919Z"/>
      <path d="m345.998 502.767-7-10h14Z" style="fill:red"/>
      <path d="m345.998 502.767-7-10h14Zm0-1.744 5.08-7.256h-10.159Z"/>
      <path d="m296.998 407.767-7-10h14Z" style="fill:red"/>
      <path d="m296.998 407.767-7-10h14Zm0-1.744 5.08-7.256h-10.159Z"/>
      <path d="m189.998 419.767-7-10h14Z" style="fill:red"/>
      <path d="m189.998 419.767-7-10h14Zm0-1.744 5.08-7.256h-10.159Z"/>
      <path d="m86.9983 411.767-7.0002-10h14Z" style="fill:red"/>
      <path d="m86.9983 411.767-7.0002-10h14Zm0-1.744 5.0793-7.256H81.919Z"/>
      <path d="m86.9983 317.766-7.0002-10h14Z" style="fill:red"/>
      <path d="m86.9983 317.766-7.0002-10h14Zm0-1.744 5.0793-7.256H81.919Z"/>
      <path d="m189.998 309.766-7-10h14Z" style="fill:red"/>
      <path d="m189.998 309.766-7-10h14Zm0-1.744 5.08-7.256h-10.159Z"/>
      <path d="m296.998 321.766-7-10h14Z" style="fill:red"/>
      <path d="m296.998 321.766-7-10h14Zm0-1.744 5.08-7.256h-10.159Z"/>
      <path d="m346.998 321.766-7-10h14Z" style="fill:red"/>
      <path d="m346.998 321.766-7-10h14Zm0-1.744 5.08-7.256h-10.159Z"/>
      <path d="m346.998 407.767-7-10h14Z" style="fill:red"/>
      <path d="m346.998 407.767-7-10h14Zm0-1.744 5.08-7.256h-10.159Z"/>
      <path d="m453.998 419.767-7-10h14Z" style="fill:red"/>
      <path d="m453.998 419.767-7-10h14Zm0-1.744 5.08-7.256h-10.159Z"/>
      <path d="m369.998 478.767-7-10h14Z" style="fill:red"/>
      <path d="m369.998 478.767-7-10h14Zm0-1.744 5.08-7.256h-10.159Z"/>
      <path d="m495.998 478.767-7-10h14Z" style="fill:red"/>
      <path d="m495.998 478.767-7-10h14Zm0-1.744 5.08-7.256h-10.159Z"/>
      <path d="m513.998 523.767-7-10h14Z" style="fill:red"/>
      <path d="m513.998 523.767-7-10h14Zm0-1.744 5.08-7.256h-10.159Z"/>
      <path d="m533.498 396.767-7-10h14Z" style="fill:red"/>
      <path d="m533.498 396.767-7-10h14Zm0-1.744 5.08-7.256h-10.159Z"/>
      <path d="m533.498 332.766-7-10h14Z" style="fill:red"/>
      <path d="m533.498 332.766-7-10h14Zm0-1.744 5.08-7.256h-10.159Z"/>
      <path d="m524.498 245.766-7-10h14Z" style="fill:red"/>
      <path d="m524.498 245.766-7-10h14Zm0-1.744 5.08-7.256h-10.159Z"/>
      <path d="m401.498 226.766-7-10h14Z" style="fill:red"/>
      <path d="m401.498 226.766-7-10h14Zm0-1.744 5.08-7.256h-10.159Z"/>
      <path d="m321.998 226.766-7-10h14Z" style="fill:red"/>
      <path d="m321.998 226.766-7-10h14Zm0-1.744 5.08-7.256h-10.159Z"/>
      <path d="m202.998 253.766-7-10h14Z" style="fill:red"/>
      <path d="m202.998 253.766-7-10h14Zm0-1.744 5.08-7.256h-10.159Z"/>
      <path d="m242.498 226.766-7-10h14Z" style="fill:red"/>
      <path d="m242.498 226.766-7-10h14Zm0-1.744 5.08-7.256h-10.159Z"/>
      <path d="m242.498 166.766-7-10h14Z" style="fill:red"/>
      <path d="m242.498 166.766-7-10h14Zm0-1.744 5.08-7.256h-10.159Z"/>
      <path d="m202.998 115.766-7-10h14Z" style="fill:red"/>
      <path d="m202.998 115.766-7-10h14Zm0-1.744 5.08-7.256h-10.159Z"/>
      <path d="m282.498 116.766-7-10h14Z" style="fill:red"/>
      <path d="m282.498 116.766-7-10h14Zm0-1.744 5.08-7.256h-10.159Z"/>
      <path d="m321.998 116.766-7-10h14Z" style="fill:red"/>
      <path d="m321.998 116.766-7-10h14Zm0-1.744 5.08-7.256h-10.159Z"/>
      <path d="m361.498 116.766-7-10h14Z" style="fill:red"/>
      <path d="m361.498 116.766-7-10h14Zm0-1.744 5.08-7.256h-10.159Z"/>
      <path d="m401.498 166.766-7-10h14Z" style="fill:red"/>
      <path d="m401.498 166.766-7-10h14Zm0-1.744 5.08-7.256h-10.159Z"/>
      <path d="m435.998 122.766-7-10h14Z" style="fill:red"/>
      <path d="m435.998 122.766-7-10h14Zm0-1.744 5.08-7.256h-10.159Z"/>
      <path d="m453.998 309.766-7-10h14Z" style="fill:red"/>
      <path d="m453.998 309.766-7-10h14Zm0-1.744 5.08-7.256h-10.159Z"/>
    </g>
    <g id="Doors">
      <path d="M327.003 262.765v2h-3v-2Zm-7 0v2h-3v-2Zm-91.007 0v2h-6v-2Zm195 0v2h-6v-2Z" style="fill:#595959"/>
      <path d="M134.999 483.766v7h-4v-7Zm0-15v7h-4v-7Zm21-15v7h-4v-7Zm-77.995 78.001h8v4h-8Zm81.997-24h12v4h-12Zm-43 0h12v4h-12Zm-38.997-36.001h8v4h-8Zm21 0h8v4h-8Zm-21-30h8v4h-8Zm56.995 56.997v7h-4v-7Zm-66.998 5.999v-8h4v8Zm-18 0v-8h4v8Zm18-18v-8h4v8Zm24 0v-8h4v8Zm-42 0v-8h4v8Zm292.003 21.005h8v4h-8Zm-6.005-32.001v8h-4v-8Zm180-112v8h-4v-8Zm-62.995-240h8v4h-8Zm-42 0h8v4h-8Zm-17 0h8v4h-8Zm-130 0h8v4h-8Zm209 24h8v4h-8Zm-20-42h8v4h-8Zm-42 0h8v4h-8Zm57.997 102h12v4h-12Zm-1.002-34v12h-4v-12Zm-1.998 58h12v4h-12Zm0 33h12v4h-12Zm-4.002-21v12h-4v-12Z" style="fill:#8c737c"/>
      <path d="M158.999 330.764h2v58h-2Zm42.003 118.001v2h-22v-2Zm132 0v2h-22v-2Z" style="fill:#595959"/>
      <path d="M424.999 152.766v54h-2v-54ZM214.998 262.767h6v2h-6Zm191.998 0h9v2h-9Z" style="fill:#4da1b3"/>
      <path d="M435.002 208.765v2h-9v-2Zm0-60v2h-9v-2Z" style="fill:#595959"/>
      <path d="M447.004 207.766h8v4h-8Z" style="fill:#8c737c"/>
      <path d="M482.996 129.764h2v16h-2Zm25 0h2v16h-2Z" style="fill:#595959"/>
      <path d="M380.998 99.7663h8v3.9997h-8ZM375 116.767v4.999h-3v-4.999Zm18.998-29.0007h8v4h-8Z" style="fill:#f30000"/>
      <path d="M212.999 120.766v8h-4v-8Z" style="fill:#8c737c"/>
      <path d="M485.996 338.769h2v12.001h-2Zm0 20.997h2v21h-2Z" style="fill:#595959"/>
      <path d="M213 230.766v8h-4v-8Z" style="fill:#f30000"/>
      <path d="M482.996 252.764h2v13h-2Z" style="fill:#595959"/>
      <path d="M213.999 170.766v18h-2v-18Z" style="fill:#4da1b3"/>
      <path d="M370.001 448.766h12v4h-12Zm72 0h12v4h-12Z" style="fill:#8c737c"/>
      <path d="M311.997 454.766v12h-4v-12Z" style="fill:red"/>
      <path d="M311.999 343.766v8h-4v-8Zm24 0v8h-4v-8Z" style="fill:#8c737c"/>
      <path d="M310.999 353.766v21h-2v-21Zm24 0v21h-2v-21Z" style="fill:#4da1b3"/>
      <path d="M299.998 375.766h8v4h-8Zm36 0h8v4h-8Z" style="fill:#f30000"/>
      <path d="M96.9952 388.767h11.9998v2H96.9952Zm0-60h11.9998v2H96.9952Zm47.9998 60h12v2h-12Zm0-60h12v2h-12Z" style="fill:#4da1b3"/>
      <path d="M113.001 387.766h12v4h-12Zm0-60h12v4h-12Zm16 60h12v4h-12Zm0-60h12v4h-12Z" style="fill:#8c737c"/>
      <path d="M160.999 392.766v54h-2v-54Zm0-120v54h-2v-54Z" style="fill:#4da1b3"/>
      <path d="M330.002 304.765v2h-16v-2Z" style="fill:#595959"/>
      <path d="M279.999 454.766v12h-4v-12Zm0 31v8h-4v-8Zm-179.998 46.001h12v4h-12Z" style="fill:#8c737c"/>
    </g>
    <g id="Details">
      <circle cx="321.994646" cy="170.76686" r="26.000052" style="fill:#6b6348"/>
      <circle cx="321.993327" cy="170.766832" r="8.999997" style="fill:#8c8573"/>
    </g>
  </g>
</svg>