<svg xmlns="http://www.w3.org/2000/svg" xmlns:xlink="http://www.w3.org/1999/xlink" xml:space="preserve" id="svg1266" version="1.1" viewBox="0 0 720 586">
  <g id="First-Level" transform="translate(-581.95428 -403.82125)">
    <g transform="translate(.240232 -439.773) scale(.839363)">
      <g transform="translate(-510.197 416.715) scale(1.19138)">
        <path d="M1338 758h8v3h1v3h9v-6h24v6h36v-6h21v6h57v66h3v48h-3v66h-42v-20c0-1.061-.42-2.078-1.17-2.828-.75-.751-1.77-1.172-2.83-1.172h-48.34c-1.06 0-2.08-.421-2.83-1.172-2.3-2.295-7.36-7.361-9.66-9.656-.75-.751-1.77-1.172-2.83-1.172h-26.68c-1.06 0-2.08.421-2.83 1.172-2.3 2.295-7.36 7.361-9.66 9.656-.75.751-1.17 1.768-1.17 2.829V944h-24v-22.343c0-1.061-.42-2.078-1.17-2.829-2.3-2.295-7.36-7.361-9.66-9.656-.75-.751-1.77-1.172-2.83-1.172h-26.68c-1.06 0-2.08.421-2.83 1.172-2.3 2.295-7.36 7.361-9.66 9.656-.75.751-1.77 1.172-2.83 1.172H1216c-1.06 0-2.08.421-2.83 1.172-.75.75-1.17 1.767-1.17 2.828v20h-42V764h54v-6h24v6h36v-6h24v6h9v-3h1v-3h8v3h2v-3h8v3h2zm-1 78h-10v24h10zm115-36h-30v18h30z" style="fill:#595959"/>
        <path d="M1338 758h8v3h1v3h9v-6h24v6h36v-6h21v6h57v66h3v48h-3v66h-42v-20c0-1.061-.42-2.078-1.17-2.828-.75-.751-1.77-1.172-2.83-1.172h-48.34c-1.06 0-2.08-.421-2.83-1.172l-9.66-9.656c-.75-.751-1.77-1.172-2.83-1.172h-26.68c-1.06 0-2.08.421-2.83 1.172l-9.66 9.656c-.75.751-1.17 1.768-1.17 2.829V944h-24v-22.343c0-1.061-.42-2.078-1.17-2.829l-9.66-9.656c-.75-.751-1.77-1.172-2.83-1.172h-26.68c-1.06 0-2.08.421-2.83 1.172l-9.66 9.656c-.75.751-1.77 1.172-2.83 1.172H1216c-1.06 0-2.08.421-2.83 1.172-.75.75-1.17 1.767-1.17 2.828v20h-42V764h54v-6h24v6h36v-6h24v6h9v-3h1v-3h8v3h2v-3h8v3h2zm8 4h-1v-3h-6v3h-4v-3h-6v3h-4v-3h-6v3h-1v3h-11v-6h-22v6h-38v-6h-22v6h-54v178h40v-19c0-1.326.53-2.598 1.46-3.536.94-.937 2.21-1.464 3.54-1.464h48.34c.8 0 1.56-.316 2.12-.879l9.66-9.657c.94-.937 2.21-1.464 3.54-1.464h26.68c1.33 0 2.6.527 3.54 1.464l9.66 9.657c.93.938 1.46 2.21 1.46 3.536V943h22v-21.343c0-1.326.53-2.598 1.46-3.536l9.66-9.657c.94-.937 2.21-1.464 3.54-1.464h26.68c1.33 0 2.6.527 3.54 1.464l9.66 9.657c.56.563 1.32.879 2.12.879H1448c1.33 0 2.6.527 3.54 1.464.93.938 1.46 2.21 1.46 3.536v19h40v-66h3v-46h-3v-66h-57v-6h-19v6h-38v-6h-22v6h-11z"/>
      </g>
      <g transform="matrix(1.5163 0 0 5.36121 -891.979 -2168.58)">
        <path d="M1230 604h23.571v13.333H1230Z" style="fill:#595959"/>
        <use xlink:href="#P" width="30" height="60" x="817" y="458.00201" transform="matrix(.785714 0 0 .222222 588.071 502.222)"/>
        <path d="M1253.57 617.333H1230V604h23.57zm-.78-.222v-12.889h-22v12.889z"/>
      </g>
      <path d="M429 912h20v10h-20z" style="fill:#264a73" transform="matrix(1.07224 0 0 1.19138 527.376 -1.4589)"/>
      <path d="M429 912h20v10h-20z" style="fill:#264a73" transform="matrix(1.07224 0 0 1.19138 527.376 15.2204)"/>
      <use xlink:href="#Q" width="108" height="36" x="784" y="818.00201" transform="matrix(1.191376 0 0 1.191378 -.2916659 523.93503)"/>
      <use xlink:href="#R" width="108" height="36" x="916" y="818.00201" transform="matrix(1.191376 0 0 1.191378 -.2698588 523.93503)"/>
      <g transform="matrix(1.19138 0 0 1.42966 -510.197 221.806)">
        <path d="M1092 908h12v15h-12z" style="fill:#595959"/>
        <path d="M1104 908v15h-12v-15zm-1 .833h-10v13.334h10z"/>
      </g>
      <g transform="translate(-510.197 416.715) scale(1.19138)">
        <path d="M1092 944h12v7h-24v-43h12z" style="fill:#595959"/>
        <path d="M1092 944h12v7h-24v-43h12zm-1 0v-35h-10v41h22v-5h-12z"/>
      </g>
      <g transform="matrix(1.3403 0 0 1.08307 -674.607 525.456)">
        <path d="M1104 938h16v66h-16z" style="fill:#435570"/>
        <path d="M1120 938v66h-16v-66zm-.89 1.1h-14.22v63.8h14.22z"/>
      </g>
      <g transform="matrix(1.58851 0 0 .833966 -981.983 775.559)">
        <path d="M1170 944h18v60h-18z" style="fill:#435570"/>
        <path d="M1188 944v60h-18v-60zm-.75 1.429h-16.5v57.141h16.5z"/>
      </g>
      <g transform="matrix(1.58851 0 0 1.19138 -981.983 416.715)">
        <path d="M1170 944h18v18h-18z" style="fill:#435570"/>
        <path d="M1188 944v18h-18v-18zm-.75 1h-16.5v16h16.5z"/>
      </g>
      <g transform="matrix(.521228 0 0 .357414 266.732 1254.02)">
        <path d="M1122 944h48v60h-48z" style="fill:#595959"/>
        <clipPath id="t">
          <path d="M1122 944h48v60h-48z"/>
        </clipPath>
        <g clip-path="url(#t)">
          <use xlink:href="#S" width="21" height="18" x="715" y="896.00201" transform="matrix(2.28571 0 0 3.33333 -512.286 -2042.67)"/>
        </g>
        <path d="M1170 944v60h-48v-60zm-2.29 3.333h-43.42v53.337h43.42z"/>
      </g>
      <g transform="matrix(1.04246 0 0 .794253 -343.106 815.43)">
        <path d="M1122 983h24v21h-24z" style="fill:#595959"/>
        <clipPath id="T">
          <path d="M1122 983h24v21h-24z"/>
        </clipPath>
        <g clip-path="url(#T)">
          <use xlink:href="#U" width="21" height="14" x="694" y="900.00201" transform="matrix(1.14286 0 0 1.5 328.857 -367.003)"/>
        </g>
        <path d="M1146 983v21h-24v-21zm-1.14 1.5h-21.72v18h21.72z"/>
      </g>
      <g transform="matrix(1.04246 0 0 1.08778 -343.106 514.512)">
        <path d="M1122 944h48v23h-48z" style="fill:#595959"/>
        <clipPath id="v">
          <path d="M1122 944h48v23h-48z"/>
        </clipPath>
        <g clip-path="url(#v)">
          <use xlink:href="#V" width="42" height="21" x="694" y="854.00201" transform="matrix(1.14286 0 0 1.09524 328.857 8.66448)"/>
        </g>
        <path d="M1170 944v23h-48v-23zm-1.14 1.095h-45.72v20.81h45.72z"/>
      </g>
      <g transform="translate(-510.197 416.715) scale(1.19138)">
        <path d="M1122 990v-25h42v21h-21v4z" style="fill:#595959"/>
        <clipPath id="W">
          <path d="M1122 990v-25h42v21h-21v4z"/>
        </clipPath>
        <g clip-path="url(#W)">
          <use xlink:href="#X" width="42" height="25" x="694" y="875.00201" transform="translate(428 89.998)"/>
        </g>
        <path d="M1122 990v-25h42v21h-21v4zm1-4v3h19v-4h21v-19h-40z"/>
      </g>
      <g transform="matrix(1.58851 0 0 1.78707 -974.834 -145.616)">
        <path d="M1134 904h36v40h-36z" style="fill:#6b6348"/>
        <path d="M1170 904v40h-36v-40zm-.75.667h-34.5v38.666h34.5z"/>
      </g>
      <g transform="matrix(1.19138 0 0 1.35238 -510.197 264.734)">
        <path d="M1104 907h18v37h-18z" style="fill:#404040"/>
        <path d="M1122 907v37h-18v-37zm-1 .881h-16v35.238h16z"/>
      </g>
      <g transform="matrix(1.19138 0 0 .772787 -227.84 961.978)">
        <path d="M1104 907h18v37h-18z" style="fill:#404040"/>
        <path d="M1122 907v37h-18v-37zm-1 1.542h-16v33.916h16z"/>
      </g>
      <g transform="matrix(1.19138 0 0 .772787 -285.026 961.978)">
        <path d="M1104 907h18v37h-18z" style="fill:#404040"/>
        <path d="M1122 907v37h-18v-37zm-1 1.542h-16v33.916h16z"/>
      </g>
      <g transform="matrix(1.19138 0 0 -1.35238 -510.197 2603.57)">
        <path d="M1104 907h18v37h-18z" style="fill:#404040"/>
        <path d="M1122 907h-18v37h18zm-1 .881v35.238h-16v-35.238z"/>
      </g>
      <g transform="matrix(1.19138 0 0 -1.35238 -9.81724 2360.53)">
        <path d="M1104 907h18v37h-18z" style="fill:#404040"/>
        <path d="M1122 907h-18v37h18zm-1 .881v35.238h-16v-35.238z"/>
      </g>
      <g transform="matrix(1.19138 0 0 -1.35238 11.6276 2553.53)">
        <path d="M1104 907h18v37h-18z" style="fill:#404040"/>
        <path d="M1122 907h-18v37h18zm-1 .881v35.238h-16v-35.238z"/>
      </g>
      <g transform="translate(-510.197 416.715) scale(1.19138)">
        <path d="M1104 884h18v18h-18z" style="fill:#404040"/>
        <path d="M1122 884v18h-18v-18zm-1 1h-16v16h16z"/>
      </g>
      <g transform="translate(-227.84 588.271) scale(1.19138)">
        <path d="M1104 884h18v18h-18z" style="fill:#404040"/>
        <path d="M1122 884v18h-18v-18zm-1 1h-16v16h16z"/>
      </g>
      <g transform="translate(-285.026 588.271) scale(1.19138)">
        <path d="M1104 884h18v18h-18z" style="fill:#404040"/>
        <path d="M1122 884v18h-18v-18zm-1 1h-16v16h16z"/>
      </g>
      <g transform="translate(11.6276 202.267) scale(1.19138)">
        <path d="M1104 884h18v18h-18z" style="fill:#404040"/>
        <path d="M1122 884v18h-18v-18zm-1 1h-16v16h16z"/>
      </g>
      <g transform="matrix(1.19138 0 0 -1.19138 -510.197 2451.59)">
        <path d="M1104 884h18v18h-18z" style="fill:#404040"/>
        <path d="M1122 884h-18v18h18zm-1 1v16h-16v-16z"/>
      </g>
      <g transform="matrix(1.19138 0 0 -1.19138 -9.81724 2208.55)">
        <path d="M1104 884h18v18h-18z" style="fill:#404040"/>
        <path d="M1122 884h-18v18h18zm-1 1v16h-16v-16z"/>
      </g>
      <g transform="matrix(1.20241 0 0 1.19138 -522.11 416.715)">
        <path d="M1080 1004h108v23.998h-108z" style="fill:#435570"/>
        <path d="M1188 1028h-108v-24h108zm-.99-1v-22h-106.02v22z"/>
      </g>
      <g transform="matrix(1.19138 0 0 1.24112 -510.197 369.757)">
        <path d="M1188 944h24v35.517h-24z" style="fill:#435570"/>
        <path d="M1188 944h24v35.517h-24zm1 .96v33.597h22V944.96Z"/>
      </g>
      <g transform="matrix(.985969 0 0 2.04236 -288.354 -348.831)">
        <path d="M1080 929h29v35h-29z" style="fill:#337bcc"/>
        <path d="M1109 929v35h-29v-35zm-1.21.583h-26.58v33.834h26.58z"/>
      </g>
      <path d="M1080 929h29v35h-29z" style="fill:#337bcc" transform="matrix(.492985 0 0 .0340394 251.218 1516.9)"/>
      <path d="M1080 929h29v35h-29z" style="fill:#337bcc" transform="matrix(.492985 0 0 .0340394 251.218 1587.19)"/>
      <g transform="translate(-510.197 416.715) scale(1.19138)">
        <path d="M1344 1004h30v24h-139v-24h85v-60h24z" style="fill:#435570"/>
        <path d="M1344 1004h30v24h-139v-24h85v-60h24zm-1 0v-59h-22v60h-85v22h137v-22h-30z"/>
      </g>
      <g transform="matrix(.714828 0 0 1.68195 133.863 -75.815)">
        <path d="M1269 987h30v17h-30z" style="fill:#435570"/>
        <path d="M1299 987v17h-30v-17zm-1.67.708h-26.66v15.582h26.66z"/>
      </g>
      <g transform="matrix(.714828 0 0 1.68195 133.863 -118.707)">
        <path d="M1269 987h30v17h-30z" style="fill:#435570"/>
        <path d="M1299 987v17h-30v-17zm-1.67.708h-26.66v15.582h26.66z"/>
      </g>
      <g transform="matrix(1.78707 0 0 1.19138 -1258.98 416.715)">
        <path d="M1287 967.99799h12v12.002h-12z" style="fill:#595959"/>
        <clipPath id="w">
          <path d="M1287 967.99799h12v12.002h-12z"/>
        </clipPath>
        <g clip-path="url(#w)">
          <use xlink:href="#Y" width="18" height="13" x="874" y="878" transform="matrix(.666667 0 0 1 704.333 89.998)"/>
        </g>
        <path d="M1299 967.998V980h-12v-12.002zm-.67 1h-10.66V979h10.66z"/>
      </g>
      <g transform="matrix(.850985 0 0 1.19138 -54.2387 416.715)">
        <path d="M1245 944h42v60h-42z" style="fill:#595959"/>
        <clipPath id="Z">
          <path d="M1245 944h42v60h-42z"/>
        </clipPath>
        <g clip-path="url(#Z)">
          <use xlink:href="#aa" width="30" height="60" x="844" y="854.00201" transform="matrix(1.4 0 0 1 63.4 89.998)"/>
        </g>
        <path d="M1287 944v60h-42v-60zm-1.4 1h-39.2v58h39.2z"/>
      </g>
      <g transform="translate(-510.197 416.715) scale(1.19138)">
        <path d="M1104 824h66v60h-66v24h-24V800h24z" style="fill:#6b6348"/>
        <path d="M1104 824h66v60h-66v24h-24V800h24zm-1 0v-23h-22v106h22v-24h66v-58h-66z"/>
      </g>
      <g transform="translate(-485.178 416.715) scale(1.19138)">
        <path d="M1323 944h30v12h-30z" style="fill:#595959"/>
        <path d="M1353 944v12h-30v-12zm-1 1h-28v10h28z"/>
      </g>
      <g transform="matrix(3.57414 0 0 4.28897 -3637.57 -2544.58)">
        <path d="M1323 956h6v5h-6z" style="fill:#595959"/>
        <path d="M1329 956v5h-6v-5zm-.33.278h-5.34v4.444h5.34z"/>
      </g>
      <g transform="matrix(13.7009 0 0 1.93599 -17698.2 -286.199)">
        <path d="M1374 944h12v48h-12z" style="fill:#595959"/>
        <path d="M1386 944v48h-12v-48zm-.09.615h-11.82v46.77h11.82z"/>
      </g>
      <g transform="translate(-510.197 416.715) scale(1.19138)">
        <path d="M1176 764h-18v60h-12v-72h18v-18h12z" style="fill:#595959"/>
        <path d="M1176 764h-18v60h-12v-72h18v-18h12zm-1-1v-28h-10v18h-18v70h10v-60z"/>
      </g>
      <g transform="matrix(1.42966 0 0 1.3403 -751.808 317.682)">
        <path d="M1029 657h30v32h-30z" style="fill:#595959"/>
        <path d="M1059 657v32h-30v-32zm-.83.889h-28.34v30.222h28.34z"/>
      </g>
      <g transform="translate(-503.048 416.715) scale(1.19138)">
        <path d="M1194 734h-132V614h132v30h21v60h-21z" style="fill:#595959"/>
        <path d="M1194 734h-132V614h132v30h21v60h-21zm-1-1v-30h21v-58h-21v-30h-130v118z"/>
      </g>
      <path d="M858.69841 1213.7477h7.14828v11.9138h-7.14828zm-42.89 0h7.14828v11.9138h-7.14828z"/>
      <g transform="matrix(1.58851 0 0 1.90621 -977.217 -43.6337)">
        <path d="M1194 614h18v30h-18z" style="fill:#6b6348"/>
        <path d="M1212 614v30h-18v-30zm-.75.625h-16.5v28.75h16.5z"/>
      </g>
      <g transform="matrix(1.58851 0 0 1.90621 -977.217 85.0352)">
        <path d="M1194 614h18v30h-18z" style="fill:#6b6348"/>
        <path d="M1212 614v30h-18v-30zm-.75.625h-16.5v28.75h16.5z"/>
      </g>
      <g transform="matrix(.571862 0 0 .922358 814.236 710.791)">
        <path d="M484 947h50v31h-50z" style="fill:#ccc"/>
        <path d="M534 947v31h-50v-31zm-6.25 3.875h-37.5v23.25h37.5z" style="fill:#0d79f2"/>
        <path d="M484 947h50v31h-50z" style="fill:none;stroke:#000;stroke-width:3.11px"/>
      </g>
      <g transform="translate(597.475 395.786) scale(1.24318)">
        <path d="M144 1002h23v23h-23z" style="fill:#ccc"/>
        <path d="M167 1002v23h-23v-23zm-2.875 2.88h-17.25v17.24h17.25z" style="fill:#2c8217"/>
        <path d="M167 1002v23h-23v-23zm-.958.96h-21.084v21.08h21.084z"/>
      </g>
      <path d="M442 785h23v19h-23z" style="fill:#ccc" transform="matrix(.414393 0 0 1.00327 833.99 651.354)"/>
      <path d="M511 785h23v19h-23z" style="fill:#ccc" transform="matrix(.414393 0 0 1.00327 918.578 654.928)"/>
      <path d="M279 469h23v34h-23z" style="fill:#ccc;stroke:#000;stroke-width:2.4px" transform="matrix(.932384 0 0 1.05122 612.86 576.57)"/>
      <g transform="translate(-510.197 416.715) scale(1.19138)">
        <path d="M1269 536h18v12h-42v-18h-21v66h-48v18h-12v-36h42v-66h63z" style="fill:#595959"/>
        <path d="M1269 536h18v12h-42v-18h-21v66h-48v18h-12v-36h42v-66h63zm-23 4v7h40v-10h-18v-24h-61v66h-42v34h10v-18h48v-66h23z"/>
      </g>
      <g transform="matrix(10.7224 0 0 9.19064 -12615.8 -4542.83)">
        <path d="M1272 606h10v14h-10z" style="fill:#6b6348"/>
        <path d="M1282 606v14h-10v-14zm-.11.13h-9.78v13.74h9.78z"/>
      </g>
      <g transform="translate(-492.326 416.715) scale(1.19138)">
        <path d="M1272 620h-42v-12h30v-60h12z" style="fill:#595959"/>
        <path d="M1272 620h-42v-12h30v-60h12zm-1-1v-70h-10v60h-30v10z"/>
      </g>
      <g transform="matrix(1.22044 0 0 1.98563 -531.903 -75.7215)">
        <path d="M1403 611v9h-41v-36h11.71v27z" style="fill:#595959"/>
        <path d="M1403 611v9h-41v-36h11.71v27zm-.98.6h-29.28v-27h-9.76v34.8h39.04z"/>
      </g>
      <g transform="matrix(1.88113 0 0 1.44897 -1438.16 272.462)">
        <path d="M1373 560h19v37h-19z" style="fill:#404040"/>
        <path d="M1392 560v37h-19v-37zm-.63.822h-17.74v35.356h17.74z"/>
      </g>
      <g transform="matrix(2.77989 0 0 1.78707 -2734.5 47.3877)">
        <path d="M1416 608h9v12h-9z" style="fill:#ccc"/>
        <path d="M1425 608v12h-9v-12zm-.43.667h-8.14v10.666h8.14z"/>
      </g>
      <g transform="translate(-492.326 416.715) scale(1.19138)">
        <path d="M1311 758h-8v-3h-1v-3h-5v-6h-4v12h-24v-12h-36v12h-24V596h21v24h174v-30h18v168h-21v-12h-36v12h-24v-12h-4v6h-5v2.965l-1 .035v3h-8v-3h-2v3h-8v-3h-2z" style="fill:#595959"/>
        <path d="M1311 758h-8v-3h-1v-3h-5v-6h-4v12h-24v-12h-36v12h-24V596h21v24h174v-30h18v168h-21v-12h-36v12h-24v-12h-4v6h-5v2.965l-1 .035v3h-8v-3h-2v3h-8v-3h-2zm-8-4h1v3h6v-3h4v3h6v-3h4v3h6v-2.965l1-.036V751h5v-6h6v12h22v-12h38v12h19V591h-16v30h-176v-24h-19v160h22v-12h38v12h22v-12h6v6h5z"/>
      </g>
      <path d="M836 631h176v87H836Z" style="fill:#6b6348" transform="translate(-24.1138 428.631) scale(1.19138)"/>
      <g transform="translate(-510.197 416.715) scale(1.19138)">
        <path d="M1188 979.998h24V1004h24v24h-48z" style="fill:#337bcc"/>
        <path d="M1188 979.998h24V1004h24v24h-48zm1 1V1027h46v-22h-24v-24.002z"/>
      </g>
      <g transform="matrix(1.01356 0 0 1.86477 -233.388 -.785508)">
        <path d="M1416 620h67v46h-67z" style="fill:#404040"/>
        <path d="M1483 620v46h-67v-46zm-1.17.639h-64.66v44.722h64.66z"/>
      </g>
      <g transform="matrix(1.19138 0 0 1.55397 -485.178 161.449)">
        <path d="M1416 704h45v46h-45z" style="fill:#404040"/>
        <path d="M1461 704v46h-45v-46zm-1 .767h-43v44.466h43z"/>
      </g>
      <g transform="matrix(1.19138 0 0 .529502 -447.053 838.993)">
        <path d="M1471 638h30v54h-30z" style="fill:#404040"/>
        <path d="M1501 638v54h-30v-54zm-1 2.25h-28v49.5h28z"/>
      </g>
      <g transform="matrix(1.19138 0 0 .529502 -411.312 838.993)">
        <path d="M1471 638h30v54h-30z" style="fill:#404040"/>
        <path d="M1501 638v54h-30v-54zm-1 2.25h-28v49.5h28z"/>
      </g>
      <g transform="matrix(1.19138 0 0 .529502 -447.053 867.586)">
        <path d="M1471 638h30v54h-30z" style="fill:#404040"/>
        <path d="M1501 638v54h-30v-54zm-1 2.25h-28v49.5h28z"/>
      </g>
      <g transform="matrix(1.19138 0 0 .529502 -411.312 867.586)">
        <path d="M1471 638h30v54h-30z" style="fill:#404040"/>
        <path d="M1501 638v54h-30v-54zm-1 2.25h-28v49.5h28z"/>
      </g>
      <g transform="translate(-510.197 416.715) scale(1.19138)">
        <path d="M1560 704h-45v6h6v27h-9v-12h-18v39h-12v-60h-45v-12h57v-72h-18v-18h-39v-12h87v30h24v18h-24v48h36z" style="fill:#6b6348"/>
        <path d="M1560 704h-45v6h6v27h-9v-12h-18v39h-12v-60h-45v-12h57v-72h-18v-18h-39v-12h87v30h24v18h-24v48h36zm-1-1v-16h-36v-50h24v-16h-24v-30h-85v10h39v18h18v74h-57v10h45v60h10v-39h20v12h7v-25h-6v-8z"/>
      </g>
      <g transform="matrix(1.53177 0 0 1.58851 -983.515 120.459)">
        <path d="M1471 737h14v9h-14z" style="fill:#0dcaf2"/>
        <use xlink:href="#ab" width="18" height="12" x="1066" y="644.00201" transform="matrix(.777778 0 0 .75 641.889 253.998)"/>
        <path d="M1485 737v9h-14v-9zm-.78.75h-12.44v7.5h12.44z"/>
      </g>
      <g transform="matrix(1.53177 0 0 1.19138 -983.515 413.141)">
        <path d="M1471 728h14v9h-14z" style="fill:#2f6020"/>
        <use xlink:href="#ac" width="18" height="9" x="1066" y="635.00201" transform="matrix(.777778 0 0 1 641.889 92.998)"/>
        <path d="M1485 728v9h-14v-9zm-.78 1h-12.44v7h12.44z"/>
      </g>
      <g transform="translate(-510.197 416.715) scale(1.19138)">
        <path d="M1500 830v-66h156v180h-156v-66h-3v-48z" style="fill:#595959"/>
        <path d="M1500 830v-66h156v180h-156v-66h-3v-48zm0 1h-2v46h3v66h154V765h-154v66z"/>
      </g>
      <g transform="translate(-478.029 416.715) scale(1.19138)">
        <path d="M1515 740v24h-48v-18h18v-9h9v9h9l6-6z" style="fill:#595959"/>
        <path d="M1515 740v24h-48v-18h18v-9h9v9h9l6-6zm-1 1h-4.59l-6 6H1493v-9h-7v9h-18v16h46z"/>
      </g>
      <g transform="translate(-510.197 416.715) scale(1.19138)">
        <path d="M1707 830h12v48h-12v24h-18v-24h-33v-48h33v-24h18z" style="fill:#595959"/>
        <path d="M1707 830h12v48h-12v24h-18v-24h-33v-48h33v-24h18zm-1-23h-16v24h-33v46h33v24h16v-24h12v-46h-12z"/>
      </g>
      <path d="M1519 729h19v10h-6l-6 6v2h-7z" style="fill:#ccc" transform="translate(-506.622 416.715) scale(1.19138)"/>
      <path d="M1090 894h14v14h-14z" style="fill:#ccc" transform="translate(-323.49 570.063) scale(1.02118)"/>
      <path d="M1090 894h14v14h-14z" style="fill:#ccc" transform="translate(-323.49 458.073) scale(1.02118)"/>
      <path d="M1200 736h18v17h-18z" style="fill:#ccc" transform="matrix(1.45613 0 0 1.1213 -826.706 467.104)"/>
      <path d="M1200 736h18v17h-18z" style="fill:#ccc" transform="matrix(1.45613 0 0 1.1213 -826.706 302.693)"/>
      <g transform="matrix(.893534 0 0 1.02104 443.205 384.525)">
        <path d="M357 1028h16v14.002h-16z" style="fill:#595959"/>
        <path d="M373 1028v14h-16v-14zm-1.333 1.16h-13.334v11.67h13.334z"/>
      </g>
      <g transform="matrix(.893534 0 0 1.02104 443.205 370.228)">
        <path d="M357 1028h16v14.002h-16z" style="fill:#595959"/>
        <use xlink:href="#ad" width="12" height="12" x="640" y="751.99799" transform="matrix(1.33333 0 0 1.16683 -496.333 150.542)"/>
        <path d="M373 1028v14h-16v-14zm-1.333 1.16h-13.334v11.67h13.334z"/>
      </g>
      <path d="M510.278 585.101H486V620h23v-19.388h1.278" style="fill:#ccc;stroke:#000;stroke-width:3.02px" transform="matrix(.932384 0 0 .614482 773.696 774.391)"/>
      <path d="M1377 966h10v21h-10z" style="fill:#ccc" transform="matrix(1.19138 0 0 1.02118 -512.579 572.786)"/>
      <path d="M1377 966h10v21h-10z" style="fill:#ccc" transform="matrix(1.19138 0 0 1.02118 -362.466 572.786)"/>
      <path d="M1613 943v1h7v54h30v24h-138v-18h42v-6h36v-54h6v-1" style="fill:#595959;stroke:#000;stroke-width:2px" transform="translate(-510.197 416.715) scale(1.19138)"/>
      <path d="M1500 1004h24v18h-24z" style="fill:#ccc" transform="matrix(1.0921 0 0 1.059 -345.786 550.812)"/>
      <path d="M381 481h14v8h-14z" style="fill:#ccc" transform="matrix(1.44667 0 0 1.19138 438.567 497.729)"/>
      <path d="M381 481h14v8h-14z" style="fill:#ccc" transform="matrix(1.44667 0 0 1.19138 438.567 545.384)"/>
      <g transform="matrix(1.059 0 0 1.19138 -342.609 416.715)">
        <path d="M1248 746h36v3h-36z" style="fill:#6ba659"/>
        <use xlink:href="#ae" width="32" height="3" x="822" y="656.00201" transform="matrix(1.125 0 0 1 323.25 89.998)"/>
        <path d="M1248 746h36v3h-36z" style="fill:none"/>
      </g>
      <g transform="matrix(1.059 0 0 1.19138 -185.347 416.715)">
        <path d="M1248 746h36v3h-36z" style="fill:#6ba659"/>
        <use xlink:href="#ae" width="32" height="3" x="954" y="656.00201" transform="matrix(1.125 0 0 1 174.75 89.998)"/>
        <path d="M1248 746h36v3h-36z" style="fill:none"/>
      </g>
      <g transform="matrix(1.059 0 0 1.19138 -342.609 434.586)">
        <path d="M1248 746h36v3h-36z" style="fill:#6ba659"/>
        <use xlink:href="#ae" width="32" height="3" x="822" y="671.00201" transform="matrix(1.125 0 0 1 323.25 74.998)"/>
        <path d="M1248 746h36v3h-36z" style="fill:none"/>
      </g>
      <g transform="matrix(1.059 0 0 1.19138 -185.347 434.586)">
        <path d="M1248 746h36v3h-36z" style="fill:#6ba659"/>
        <use xlink:href="#ae" width="32" height="3" x="954" y="671.00201" transform="matrix(1.125 0 0 1 174.75 74.998)"/>
        <path d="M1248 746h36v3h-36z" style="fill:none"/>
      </g>
      <g transform="matrix(1.19138 0 0 .501633 -510.197 881.353)">
        <path d="M1222 646h2v57h-2z" style="fill:#6ba659"/>
        <use xlink:href="#af" width="2" height="24" x="794" y="572.00201" transform="matrix(1 0 0 2.375 428 -712.505)"/>
        <path d="M1222 646h2v57h-2z" style="fill:none"/>
      </g>
      <path d="M1440 1002.5h7v6.5h-7z" style="fill:#ccc" transform="matrix(1.36158 0 0 1.46631 -756.472 138.116)"/>
      <path d="M1288 588h9v32h-9z" style="fill:#ccc" transform="matrix(1.19138 0 0 1.11692 -510.197 461.69)"/>
      <path d="M1288 588h9v32h-9z" style="fill:#ccc" transform="matrix(1.19138 0 0 .893534 -557.852 658.565)"/>
      <path d="M1288 588h9v32h-9z" style="fill:#ccc" transform="matrix(1.19138 0 0 .893534 -368.422 658.565)"/>
      <path d="M1288 588h9v32h-9z" style="fill:#ccc" transform="matrix(1.19138 0 0 .893534 -557.852 730.048)"/>
      <path d="M1288 588h9v32h-9z" style="fill:#ccc" transform="matrix(1.19138 0 0 .893534 -368.422 730.048)"/>
      <path d="M1288 588h9v32h-9z" style="fill:#ccc" transform="matrix(1.58851 0 0 .893534 -945.447 943.305)"/>
      <path d="M1288 588h9v32h-9z" style="fill:#ccc" transform="matrix(1.58851 0 0 .893534 -819.161 957.601)"/>
      <path d="M1288 588h9v32h-9z" style="fill:#ccc" transform="matrix(1.58851 0 0 .893534 -1133.69 957.601)"/>
      <path d="M1288 588h9v32h-9z" style="fill:#ccc" transform="matrix(1.58851 0 0 .893534 -819.161 830.124)"/>
      <path d="M1288 588h9v32h-9z" style="fill:#ccc" transform="matrix(1.58851 0 0 .893534 -1133.69 830.124)"/>
      <path d="M1288 588h9v32h-9z" style="fill:#ccc" transform="matrix(1.58851 0 0 .893534 -945.447 844.42)"/>
      <path d="M1288 588h9v32h-9z" style="fill:#ccc" transform="matrix(1.58851 0 0 .893534 -1007.4 943.305)"/>
      <path d="M1288 588h9v32h-9z" style="fill:#ccc" transform="matrix(1.58851 0 0 .893534 -1007.4 844.42)"/>
      <path d="M1288 588h9v32h-9z" style="fill:#ccc" transform="matrix(1.19138 0 0 1.11692 -416.078 461.69)"/>
      <path d="M1288 588h9v32h-9z" style="fill:#ccc" transform="matrix(2.38276 0 0 1.11692 -2002.99 461.69)"/>
      <path d="M1288 588h9v32h-9z" style="fill:#ccc" transform="matrix(2.38276 0 0 .893534 -2002.99 730.048)"/>
      <path d="M1539 815h9v12h-9zm0 66h9v12h-9z" style="fill:#ccc" transform="translate(-510.197 416.715) scale(1.19138)"/>
      <g transform="matrix(1.0068 0 0 1.19138 -240.173 416.715)">
        <path d="M1450 800h-35.5l-14.2.002 14.2.043V818h35.5z" style="fill:#595959"/>
        <clipPath id="y">
          <path d="M1450 800h-35.5l-14.2.002 14.2.043V818h35.5z"/>
        </clipPath>
        <g clip-path="url(#y)">
          <use xlink:href="#ag" width="42" height="18" x="982" y="710.00201" transform="matrix(1.18333 0 0 1 238.267 89.998)"/>
        </g>
        <path d="M1450 800h-35.5l-14.2.002 14.2.043V818h35.5z" style="fill:none;stroke:#000;stroke-width:2.16px"/>
      </g>
      <path d="M1414.5 800h35.5v18h-35.5z" style="fill:#595959;stroke:#000;stroke-width:1.37px" transform="matrix(.60408 0 0 2.38276 86.4328 -457.757)"/>
      <path d="M840.817 829.875C837.572 832.457 833.465 834 829 834c-10.486 0-19-8.514-19-19s8.514-19 19-19c9.035 0 16.605 6.32 18.528 14.776" style="fill:#6b6348;stroke:#000;stroke-width:3.17px" transform="translate(331.419 818.526) scale(.75245)"/>
      <path d="M1511 968h13v37" style="fill:none;stroke:#ccc;stroke-width:2px;stroke-dasharray:2,2;stroke-opacity:.6" transform="translate(-510.197 416.715) scale(1.19138)"/>
      <g transform="translate(-111.68 611.208) scale(.893534)">
        <circle cx="1330" cy="669" r="12"/>
        <clipPath id="ah">
          <path d="M1330 655.667c7.36 0 13.33 5.974 13.33 13.333s-5.97 13.333-13.33 13.333-13.33-5.974-13.33-13.333 5.97-13.333 13.33-13.333zm0 2.666c-5.89 0-10.67 4.78-10.67 10.667s4.78 10.667 10.67 10.667 10.67-4.78 10.67-10.667-4.78-10.667-10.67-10.667z"/>
        </clipPath>
        <g clip-path="url(#ah)">
          <use xlink:href="#ai" width="20" height="20" x="894" y="565.00201" transform="translate(124.667 -97.6693) scale(1.33333)"/>
        </g>
      </g>
      <path d="M1438.8993 1397.2227h7.1483v9.5311h-7.1483zm0 64.334h7.1483v9.5311h-7.1483zm-59.569-64.337h7.1483v9.5311h-7.1483zm0 64.335h7.1483v9.5311h-7.1483zm-63.143-64.335h7.1483v9.5311h-7.1483zm0 64.335h7.1483v9.5311h-7.1483z"/>
      <g transform="matrix(.893534 0 0 .776987 -68.7905 775.579)">
        <path d="M1422 889h20v23h-20z" style="fill:#595959"/>
        <path d="M1424.67 912H1422v-3.067h5.33V912Zm-2.67-21.467h1.33V889h2.67v3.067h-1.33v1.533H1422Zm0 6.134h2.67v3.066H1422Zm0 6.133h2.67v3.067H1422Zm8 9.2v-3.067h2.67V912Zm5.33 0v-3.067h2.67V912Zm4.02 0-.02-.017v-1.516h1.34v-1.534h1.33V912Zm2.65-4.6h-2.67v-3.067h2.67zm0-6.133h-2.67V898.2h2.67zm0-6.134h-2.67V889c0 2.89 2.67 3.067 2.67 3.067zm-5.33-6.133v3.067H1434V889Zm-5.34 0v3.067h-2.66V889Z"/>
      </g>
      <g transform="matrix(.893534 0 0 .776987 -93.8095 775.579)">
        <path d="M1422 889h20v23h-20z" style="fill:#595959"/>
        <path d="M1424.67 912H1422v-3.067h5.33V912Zm-2.67-21.467h1.33V889h2.67v3.067h-1.33v1.533H1422Zm0 6.134h2.67v3.066H1422Zm0 6.133h2.67v3.067H1422Zm8 9.2v-3.067h2.67V912Zm5.33 0v-3.067h2.67V912Zm4 0v-1.533h1.34v-1.534h1.33V912Zm2.67-4.6h-2.67v-3.067h2.67zm0-6.133h-2.67V898.2h2.67zm0-6.134h-2.67V889c0 2.89 2.67 3.067 2.67 3.067zm-5.33-6.133v3.067H1434V889Zm-5.34 0v3.067h-2.66V889Z"/>
      </g>
      <g transform="matrix(.893534 0 0 .776987 -118.828 775.579)">
        <path d="M1422 889h20v23h-20z" style="fill:#595959"/>
        <path d="M1424.67 912H1422v-3.067h5.33V912Zm-2.67-21.467h1.33V889h2.67v3.067h-1.33v1.533H1422Zm0 6.134h2.67v3.066H1422Zm0 6.133h2.67v3.067H1422Zm8 9.2v-3.067h2.67V912Zm5.33 0v-3.067h2.67V912Zm4 0v-1.533h1.34v-1.534h1.33V912Zm2.67-4.6h-2.67v-3.067h2.67zm0-6.133h-2.67V898.2h2.67zm0-6.134h-2.67V889c0 2.89 2.67 3.067 2.67 3.067zm-5.33-6.133v3.067H1434V889Zm-5.34 0v3.067h-2.66V889Z"/>
      </g>
      <g transform="matrix(1.17784 0 0 4.38929 -162.706 -1966.41)">
        <path d="M1144.33 777.99799h29.333v4.071h-29.333z" style="fill:#404040"/>
        <path d="M1173.67 777.998v4.071h-29.34v-4.071zm-1.02.271h-27.3v3.529h27.3z"/>
      </g>
      <g transform="matrix(.568613 0 0 2.34096 552.324 -382.34)">
        <path d="M1144.33 777.99799h29.333v4.071h-29.333z" style="fill:#404040"/>
        <path d="M1173.67 777.998v4.071h-29.34v-4.071zm-2.1.509h-25.14v3.054l25.14-.001z"/>
      </g>
      <g transform="matrix(.794253 0 0 8.68005 279.291 -6300.6)">
        <path d="M917 889.99799h12v7h-12z" style="fill:#404040"/>
        <path d="M929 889.998v7h-12v-7zm-1.5.137h-9v6.726h9z"/>
      </g>
      <path d="M804.428 826.632C807.79 820.309 814.445 816 822.099 816c4.713 0 9.047 1.633 12.467 4.365l-3.814 4.69c-2.395-1.912-5.429-3.055-8.727-3.055-5.358 0-10.017 3.016-12.37 7.443z" style="fill:#404040;stroke:#000;stroke-width:1px" transform="translate(-24.1138 435.78) scale(1.19138)"/>
      <path d="M1037 855h6v2h-6z" style="fill:#404040" transform="translate(-24.1138 428.631) scale(1.19138)"/>
      <path d="M1037 855h6v2h-6z" style="fill:#404040" transform="rotate(90 1009.684 1214.336) scale(1.19138)"/>
      <path d="M868 886h5v2h-5z" style="fill:#404040" transform="matrix(1.42966 0 0 1.19138 -232.129 427.44)"/>
      <path d="M868 886h5v2h-5z" style="fill:#404040" transform="matrix(1.42966 0 0 1.19138 -232.129 369.06)"/>
      <path d="M868 886h5v2h-5z" style="fill:#404040" transform="matrix(-.753551 .938478 -.928972 -.745919 2448.2 1260.96)"/>
      <path d="M868 886h5v2h-5z" style="fill:#404040" transform="matrix(1.02714 .603086 -.603228 1.02738 578.141 -13.6887)"/>
      <g transform="matrix(1.19138 0 0 1.31679 -509.005 307.359)">
        <clipPath id="z">
          <path d="M1534 796h2v37.095h118v1.81h-120z"/>
        </clipPath>
        <g clip-path="url(#z)">
          <use xlink:href="#aj" width="120" height="43" x="1107" y="698.00201" transform="matrix(1 0 0 .904762 427 164.474)"/>
        </g>
      </g>
      <g transform="matrix(1.19138 0 0 -1.31679 -509.005 2560.95)">
        <clipPath id="ak">
          <path d="M1536 796h-2v38.905h120v-1.81h-118z"/>
        </clipPath>
        <g clip-path="url(#ak)">
          <use xlink:href="#al" width="120" height="43" x="1107" y="787.00201" transform="matrix(1 0 0 -.904762 427 1546.95)"/>
        </g>
      </g>
      <path d="M1080 929h29v35h-29z" style="fill:#337bcc" transform="matrix(.492985 0 0 .0340394 379.887 1552.64)"/>
      <path d="M1080 929h29v35h-29z" style="fill:#337bcc" transform="matrix(0 -.492985 .0340394 0 873.539 2166.73)"/>
      <path d="M1080 929h29v35h-29z" style="fill:#337bcc" transform="matrix(0 -.492985 .0340394 0 929.534 2166.73)"/>
    </g>
    <g transform="translate(-20 -78.996)">
      <g transform="matrix(.350323 0 0 .250231 841.248 718.659)">
        <path d="M839.944 345.037 859.926 385h-39.963z" style="fill:#0bb300"/>
        <path d="M839.944 345.037 859.926 385h-39.963zm0 6.969-14.499 28.998h28.998z"/>
      </g>
      <g transform="matrix(.350323 0 0 .250231 841.248 784.659)">
        <path d="M839.944 345.037 859.926 385h-39.963z" style="fill:#0bb300"/>
        <path d="M839.944 345.037 859.926 385h-39.963zm0 6.969-14.499 28.998h28.998z"/>
      </g>
      <g transform="matrix(-.350323 0 0 -.250231 978.252 1125.33)">
        <path d="M839.944 345.037 859.926 385h-39.963z" style="fill:red"/>
        <path d="M839.944 345.037 859.926 385h-39.963zm0 6.969-14.499 28.998h28.998z"/>
      </g>
      <g transform="matrix(-.350323 0 0 -.250231 1242.25 1077.33)">
        <path d="M839.944 345.037 859.926 385h-39.963z" style="fill:red"/>
        <path d="M839.944 345.037 859.926 385h-39.963zm0 6.969-14.499 28.998h28.998z"/>
      </g>
      <g transform="matrix(-.350323 0 0 -.250231 1172.25 946.337)">
        <path d="M839.944 345.037 859.926 385h-39.963z" style="fill:red"/>
        <path d="M839.944 345.037 859.926 385h-39.963zm0 6.969-14.499 28.998h28.998z"/>
      </g>
      <g transform="matrix(-.350323 0 0 -.250231 1267.25 949.337)">
        <path d="M839.944 345.037 859.926 385h-39.963z" style="fill:red"/>
        <path d="M839.944 345.037 859.926 385h-39.963zm0 6.969-14.499 28.998h28.998z"/>
      </g>
      <g transform="matrix(-.350323 0 0 -.250231 1056.25 643.337)">
        <path d="M839.944 345.037 859.926 385h-39.963z" style="fill:red"/>
        <path d="M839.944 345.037 859.926 385h-39.963zm0 6.969-14.499 28.998h28.998z"/>
      </g>
      <g transform="matrix(-.350323 0 0 -.250231 1153.25 633.337)">
        <path d="M839.944 345.037 859.926 385h-39.963z" style="fill:red"/>
        <path d="M839.944 345.037 859.926 385h-39.963zm0 6.969-14.499 28.998h28.998z"/>
      </g>
      <g transform="matrix(-.350323 0 0 -.250231 1153.25 673.337)">
        <path d="M839.944 345.037 859.926 385h-39.963z" style="fill:red"/>
        <path d="M839.944 345.037 859.926 385h-39.963zm0 6.969-14.499 28.998h28.998z"/>
      </g>
      <g transform="matrix(-.350323 0 0 -.250231 1353.25 691.337)">
        <path d="M839.944 345.037 859.926 385h-39.963z" style="fill:red"/>
        <path d="M839.944 345.037 859.926 385h-39.963zm0 6.969-14.499 28.998h28.998z"/>
      </g>
      <g transform="matrix(.350323 0 0 .250231 389.748 932.657)">
        <path d="M839.944 345.037 859.926 385h-39.963z" style="fill:#0bb300"/>
        <path d="M839.944 345.037 859.926 385h-39.963zm0 6.969-14.499 28.998h28.998z"/>
      </g>
      <g transform="matrix(.350323 0 0 .250231 653.748 884.657)">
        <path d="M839.944 345.037 859.926 385h-39.963z" style="fill:#0bb300"/>
        <path d="M839.944 345.037 859.926 385h-39.963zm0 6.969-14.499 28.998h28.998z"/>
      </g>
      <g transform="matrix(.350323 0 0 .250231 394.748 704.659)">
        <path d="M839.944 345.037 859.926 385h-39.963z" style="fill:#0bb300"/>
        <path d="M839.944 345.037 859.926 385h-39.963zm0 6.969-14.499 28.998h28.998z"/>
      </g>
      <g transform="matrix(.350323 0 0 .250231 394.748 798.659)">
        <path d="M839.944 345.037 859.926 385h-39.963z" style="fill:#0bb300"/>
        <path d="M839.944 345.037 859.926 385h-39.963zm0 6.969-14.499 28.998h28.998z"/>
      </g>
      <g transform="matrix(.350323 0 0 .250231 745.248 508.659)">
        <path d="M839.944 345.037 859.926 385h-39.963z" style="fill:#0bb300"/>
        <path d="M839.944 345.037 859.926 385h-39.963zm0 6.969-14.499 28.998h28.998z"/>
      </g>
      <g transform="matrix(.350323 0 0 .250231 821.748 910.659)">
        <path d="M839.944 345.037 859.926 385h-39.963z" style="fill:#0bb300"/>
        <path d="M839.944 345.037 859.926 385h-39.963zm0 6.969-14.499 28.998h28.998z"/>
      </g>
      <g transform="matrix(.350323 0 0 .250231 828.748 631.659)">
        <path d="M839.944 345.037 859.926 385h-39.963z" style="fill:#0bb300"/>
        <path d="M839.944 345.037 859.926 385h-39.963zm0 6.969-14.499 28.998h28.998z"/>
      </g>
      <g transform="matrix(.350323 0 0 .250231 509.748 640.659)">
        <path d="M839.944 345.037 859.926 385h-39.963z" style="fill:#0bb300"/>
        <path d="M839.944 345.037 859.926 385h-39.963zm0 6.969-14.499 28.998h28.998z"/>
      </g>
      <g transform="matrix(.350323 0 0 .250231 509.748 502.659)">
        <path d="M839.944 345.037 859.926 385h-39.963z" style="fill:#0bb300"/>
        <path d="M839.944 345.037 859.926 385h-39.963zm0 6.969-14.499 28.998h28.998z"/>
      </g>
      <g transform="matrix(.350323 0 0 .250231 677.748 865.659)">
        <path d="M839.944 345.037 859.926 385h-39.963z" style="fill:#0bb300"/>
        <path d="M839.944 345.037 859.926 385h-39.963zm0 6.969-14.499 28.998h28.998z"/>
      </g>
      <g transform="matrix(.350323 0 0 .250231 803.748 865.659)">
        <path d="M839.944 345.037 859.926 385h-39.963z" style="fill:#0bb300"/>
        <path d="M839.944 345.037 859.926 385h-39.963zm0 6.969-14.499 28.998h28.998z"/>
      </g>
      <g transform="matrix(-.200185 0 0 -.150138 1203.14 1048.8)">
        <path d="M839.944 345.037 859.926 385h-39.963z" style="fill:red"/>
        <path d="M839.944 345.037 859.926 385h-39.963zm0 12.007-10.647 21.295h21.295z"/>
      </g>
      <g transform="matrix(.350323 0 0 .250231 629.748 501.659)">
        <path d="M839.944 345.037 859.926 385h-39.963z" style="fill:#0bb300"/>
        <path d="M839.944 345.037 859.926 385h-39.963zm0 6.969-14.499 28.998h28.998z"/>
      </g>
      <g transform="matrix(.350323 0 0 .250231 629.748 613.659)">
        <path d="M839.944 345.037 859.926 385h-39.963z" style="fill:#0bb300"/>
        <path d="M839.944 345.037 859.926 385h-39.963zm0 6.969-14.499 28.998h28.998z"/>
      </g>
      <g transform="matrix(.350323 0 0 .250231 590.248 501.659)">
        <path d="M839.944 345.037 859.926 385h-39.963z" style="fill:#0bb300"/>
        <path d="M839.944 345.037 859.926 385h-39.963zm0 6.969-14.499 28.998h28.998z"/>
      </g>
      <g transform="matrix(.350323 0 0 .250231 550.248 553.659)">
        <path d="M839.944 345.037 859.926 385h-39.963z" style="fill:#0bb300"/>
        <path d="M839.944 345.037 859.926 385h-39.963zm0 6.969-14.499 28.998h28.998z"/>
      </g>
      <g transform="matrix(.350323 0 0 .250231 709.248 553.659)">
        <path d="M839.944 345.037 859.926 385h-39.963z" style="fill:#0bb300"/>
        <path d="M839.944 345.037 859.926 385h-39.963zm0 6.969-14.499 28.998h28.998z"/>
      </g>
      <g transform="matrix(.350323 0 0 .250231 550.248 613.659)">
        <path d="M839.944 345.037 859.926 385h-39.963z" style="fill:#0bb300"/>
        <path d="M839.944 345.037 859.926 385h-39.963zm0 6.969-14.499 28.998h28.998z"/>
      </g>
      <g transform="matrix(.350323 0 0 .250231 709.248 613.659)">
        <path d="M839.944 345.037 859.926 385h-39.963z" style="fill:#0bb300"/>
        <path d="M839.944 345.037 859.926 385h-39.963zm0 6.969-14.499 28.998h28.998z"/>
      </g>
      <g transform="matrix(.350323 0 0 .250231 655.748 792.659)">
        <path d="M839.944 345.037 859.926 385h-39.963z" style="fill:#0bb300"/>
        <path d="M839.944 345.037 859.926 385h-39.963zm0 6.969-14.499 28.998h28.998z"/>
      </g>
      <g transform="matrix(.350323 0 0 .250231 761.748 804.659)">
        <path d="M839.944 345.037 859.926 385h-39.963z" style="fill:#0bb300"/>
        <path d="M839.944 345.037 859.926 385h-39.963zm0 6.969-14.499 28.998h28.998z"/>
      </g>
      <g transform="matrix(.350323 0 0 .250231 497.748 804.659)">
        <path d="M839.944 345.037 859.926 385h-39.963z" style="fill:#0bb300"/>
        <path d="M839.944 345.037 859.926 385h-39.963zm0 6.969-14.499 28.998h28.998z"/>
      </g>
      <g transform="matrix(.350323 0 0 .250231 761.748 697.659)">
        <path d="M839.944 345.037 859.926 385h-39.963z" style="fill:#0bb300"/>
        <path d="M839.944 345.037 859.926 385h-39.963zm0 6.969-14.499 28.998h28.998z"/>
      </g>
      <g transform="matrix(.350323 0 0 .250231 497.748 697.659)">
        <path d="M839.944 345.037 859.926 385h-39.963z" style="fill:#0bb300"/>
        <path d="M839.944 345.037 859.926 385h-39.963zm0 6.969-14.499 28.998h28.998z"/>
      </g>
      <g transform="matrix(.350323 0 0 .250231 655.748 709.659)">
        <path d="M839.944 345.037 859.926 385h-39.963z" style="fill:#0bb300"/>
        <path d="M839.944 345.037 859.926 385h-39.963zm0 6.969-14.499 28.998h28.998z"/>
      </g>
      <g transform="matrix(.350323 0 0 .250231 603.748 792.659)">
        <path d="M839.944 345.037 859.926 385h-39.963z" style="fill:#0bb300"/>
        <path d="M839.944 345.037 859.926 385h-39.963zm0 6.969-14.499 28.998h28.998z"/>
      </g>
      <g transform="matrix(.350323 0 0 .250231 603.748 709.659)">
        <path d="M839.944 345.037 859.926 385h-39.963z" style="fill:#0bb300"/>
        <path d="M839.944 345.037 859.926 385h-39.963zm0 6.969-14.499 28.998h28.998z"/>
      </g>
      <g transform="matrix(.350323 0 0 .250231 669.248 501.659)">
        <path d="M839.944 345.037 859.926 385h-39.963z" style="fill:#0bb300"/>
        <path d="M839.944 345.037 859.926 385h-39.963zm0 6.969-14.499 28.998h28.998z"/>
      </g>
    </g>
    <g transform="translate(-20 -79.996)">
      <path d="M1496 849h6v7h-6z" style="fill:#595959" transform="matrix(0 .333333 -12.5714 0 11641.1 110.331)"/>
      <path d="M1496 849h6v7h-6z" style="fill:#595959" transform="matrix(0 .333333 -.857143 0 1644.71 248.331)"/>
      <path d="M1496 849h6v7h-6z" style="fill:#595959" transform="matrix(0 .333333 -.857143 0 1664.71 248.331)"/>
      <path d="M1496 849h6v7h-6z" style="fill:#595959" transform="matrix(0 .333333 -.857143 0 1654.71 248.331)"/>
      <path d="M1496 849h6v7h-6z" style="fill:#595959" transform="matrix(0 .333333 -.857143 0 1558.71 248.331)"/>
      <path d="M1496 849h6v7h-6z" style="fill:#595959" transform="matrix(0 .333333 -.857143 0 1744.71 248.331)"/>
      <path d="M1496 849h6v7h-6z" style="fill:#595959" transform="matrix(.333333 0 0 1.71429 292.333 -842.431)"/>
      <path d="M1496 849h6v7h-6z" style="fill:#595959" transform="matrix(.333333 0 0 1.71429 292.333 -752.431)"/>
      <path d="M1496 849h6v7h-6z" style="fill:#595959" transform="matrix(.333333 0 0 1.71429 316.333 -842.431)"/>
      <path d="M1496 849h6v7h-6z" style="fill:#595959" transform="matrix(.333333 0 0 1.71429 316.333 -752.431)"/>
      <path d="M1496 849h6v7h-6z" style="fill:#595959" transform="matrix(0 .333333 -1.28571 0 1901.57 194.331)"/>
      <path d="M1496 849h6v7h-6z" style="fill:#595959" transform="matrix(0 .333333 -1.28571 0 1901.57 134.331)"/>
      <path d="M425 306h215v37H425Z" style="fill:#8c737c" transform="matrix(0 .0372093 -.108108 0 1181.08 620.184)"/>
      <path d="M425 306h215v37H425Z" style="fill:#8c737c" transform="matrix(0 .0372093 -.108108 0 1181.08 644.184)"/>
      <path d="M425 306h215v37H425Z" style="fill:#8c737c" transform="matrix(0 .055814 -.108108 0 1064.08 607.277)"/>
      <path d="M425 306h215v37H425Z" style="fill:#8c737c" transform="matrix(0 .0372093 -.108108 0 1064.08 689.184)"/>
      <path d="M425 306h215v37H425Z" style="fill:#8c737c" transform="matrix(0 .0372093 -.108108 0 1109.08 689.184)"/>
      <path d="M1496 849h6v7h-6z" style="fill:#595959" transform="matrix(.333333 0 0 1.71429 589.333 -617.431)"/>
      <path d="M1496 849h6v7h-6z" style="fill:#595959" transform="matrix(.333333 0 0 3.42857 748.333 -2078.86)"/>
      <path d="M1067 656h2v36h-2z" style="fill:#595959" transform="matrix(1 0 0 .666667 -408 214.665)"/>
      <path d="M425 306h215v37H425Z" style="fill:#8c737c" transform="matrix(0 -.0372093 .108108 0 858.919 983.811)"/>
      <path d="M425 306h215v37H425Z" style="fill:#8c737c" transform="matrix(.0325581 0 0 .108108 728.163 940.917)"/>
      <path d="M425 306h215v37H425Z" style="fill:#8c737c" transform="matrix(.0372093 0 0 .108108 715.186 919.917)"/>
      <path d="M218 1036h31v8h-31z" style="fill:#f30000" transform="matrix(.258065 0 0 .5 842.742 449.997)"/>
      <path d="M218 1036h31v8h-31z" style="fill:#f30000" transform="matrix(.258065 0 0 .5 842.742 437.996)"/>
      <path d="M425 306h215v37H425Z" style="fill:#8c737c" transform="matrix(0 .055814 -.108108 0 1121.08 616.277)"/>
      <path d="M425 306h215v37H425Z" style="fill:#8c737c" transform="matrix(0 .0372093 -.108108 0 1151.08 620.184)"/>
      <path d="M425 306h215v37H425Z" style="fill:#8c737c" transform="matrix(0 .0372093 -.108108 0 1151.08 644.184)"/>
      <path d="M425 306h215v37H425Z" style="fill:#8c737c" transform="matrix(.055814 0 0 .108108 675.279 958.917)"/>
      <path d="M425 306h215v37H425Z" style="fill:#8c737c" transform="matrix(.0372093 0 0 .108108 664.186 982.915)"/>
      <path d="M425 306h215v37H425Z" style="fill:#8c737c" transform="matrix(.055814 0 0 .108108 738.279 958.917)"/>
      <path d="M425 306h215v37H425Z" style="fill:#8c737c" transform="matrix(.0372093 0 0 .108108 748.186 916.917)"/>
      <path d="M425 306h215v37H425Z" style="fill:#8c737c" transform="matrix(.0372093 0 0 .108108 709.186 944.917)"/>
      <path d="M218 1036h31v8h-31z" style="fill:#f30000" transform="matrix(0 .258065 -.5 0 1234 926.74)"/>
      <path d="M425 306h215v37H425Z" style="fill:#8c737c" transform="matrix(.027907 0 0 .108108 675.14 898.917)"/>
      <path d="M425 306h215v37H425Z" style="fill:#8c737c" transform="matrix(.0372093 0 0 .108108 658.186 862.917)"/>
      <path d="M425 306h215v37H425Z" style="fill:#8c737c" transform="matrix(.0372093 0 0 .108108 685.186 838.917)"/>
      <path d="M425 306h215v37H425Z" style="fill:#8c737c" transform="matrix(.0372093 0 0 .108108 685.186 856.917)"/>
      <path d="M425 306h215v37H425Z" style="fill:#8c737c" transform="matrix(.0372093 0 0 .108108 685.186 778.917)"/>
      <path d="M425 306h215v37H425Z" style="fill:#8c737c" transform="matrix(.0372093 0 0 .108108 685.186 760.917)"/>
      <path d="M1496 849h6v7h-6z" style="fill:#595959" transform="matrix(.333333 0 0 .857143 172.333 119.284)"/>
      <path d="M1496 849h6v7h-6z" style="fill:#595959" transform="matrix(0 .333333 -1.42857 0 1961.86 314.331)"/>
      <path d="M425 306h215v37H425Z" style="fill:#8c737c" transform="matrix(0 .0372093 -.108108 0 914.081 512.184)"/>
      <path d="M425 306h215v37H425Z" style="fill:#8c737c" transform="matrix(.0372093 0 0 .108108 742.186 532.917)"/>
      <path d="M425 306h215v37H425Z" style="fill:#8c737c" transform="matrix(.0372093 0 0 .108108 742.186 568.917)"/>
      <path d="M425 306h215v37H425Z" style="fill:#8c737c" transform="matrix(.0372093 0 0 .108108 742.186 688.917)"/>
      <path d="M425 306h215v37H425Z" style="fill:#8c737c" transform="matrix(.0372093 0 0 .108108 874.186 982.915)"/>
      <path d="M425 306h215v37H425Z" style="fill:#8c737c" transform="matrix(.0372093 0 0 .108108 874.186 1000.91)"/>
      <path d="M425 306h215v37H425Z" style="fill:#8c737c" transform="matrix(.0372093 0 0 .108108 922.186 982.915)"/>
      <path d="M425 306h215v37H425Z" style="fill:#8c737c" transform="matrix(.0372093 0 0 .108108 922.186 1000.91)"/>
      <path d="M425 306h215v37H425Z" style="fill:#8c737c" transform="matrix(.0372093 0 0 .108108 928.186 958.917)"/>
      <path d="M425 306h215v37H425Z" style="fill:#8c737c" transform="matrix(0 .055814 -.108108 0 1001.08 973.277)"/>
      <path d="M425 306h215v37H425Z" style="fill:#8c737c" transform="matrix(0 .0372093 -.108108 0 1001.08 920.184)"/>
      <path d="M425 306h215v37H425Z" style="fill:#8c737c" transform="matrix(0 .0372093 -.108108 0 971.081 920.184)"/>
      <path d="M425 306h215v37H425Z" style="fill:#8c737c" transform="matrix(.0372093 0 0 .108108 925.186 910.917)"/>
      <path d="M425 306h215v37H425Z" style="fill:#8c737c" transform="matrix(0 .055814 -.108108 0 947.081 952.277)"/>
      <path d="M425 306h215v37H425Z" style="fill:#8c737c" transform="matrix(0 .055814 -.108108 0 947.081 916.277)"/>
      <path d="M425 306h215v37H425Z" style="fill:#8c737c" transform="matrix(.055814 0 0 .108108 714.279 838.917)"/>
      <path d="M425 306h215v37H425Z" style="fill:#8c737c" transform="matrix(0 .0372093 -.108108 0 797.081 900.184)"/>
      <path d="M425 306h215v37H425Z" style="fill:#8c737c" transform="matrix(0 .0372093 -.108108 0 1064.08 668.184)"/>
      <path d="M425 306h215v37H425Z" style="fill:#8c737c" transform="matrix(0 .0372093 -.108108 0 1064.08 566.184)"/>
      <path d="M425 306h215v37H425Z" style="fill:#8c737c" transform="matrix(0 .0372093 -.108108 0 1064.08 581.184)"/>
      <path d="M425 306h215v37H425Z" style="fill:#8c737c" transform="matrix(0 .0372093 -.108108 0 1046.08 581.184)"/>
      <path d="M425 306h215v37H425Z" style="fill:#8c737c" transform="matrix(0 .0372093 -.108108 0 1016.08 538.184)"/>
      <path d="M425 306h215v37H425Z" style="fill:#8c737c" transform="matrix(0 .0372093 -.108108 0 872.081 584.184)"/>
      <path d="M425 306h215v37H425Z" style="fill:#8c737c" transform="matrix(.0372093 0 0 .108108 985.186 559.917)"/>
      <path d="M425 306h215v37H425Z" style="fill:#8c737c" transform="matrix(0 .055814 -.108108 0 914.081 523.277)"/>
      <path d="M425 306h215v37H425Z" style="fill:#8c737c" transform="matrix(0 .055814 -.108108 0 1004.08 532.277)"/>
      <path d="M425 306h215v37H425Z" style="fill:#8c737c" transform="matrix(.0372093 0 0 .108108 1105.19 574.917)"/>
      <path d="M425 306h215v37H425Z" style="fill:#8c737c" transform="matrix(.0372093 0 0 .108108 1105.19 556.917)"/>
      <path d="M425 306h215v37H425Z" style="fill:#8c737c" transform="matrix(.0372093 0 0 .108108 1123.19 658.917)"/>
      <path d="M425 306h215v37H425Z" style="fill:#8c737c" transform="matrix(.0372093 0 0 .108108 1123.19 676.917)"/>
      <path d="M425 306h215v37H425Z" style="fill:#8c737c" transform="matrix(.055814 0 0 .108108 1072.28 718.917)"/>
      <path d="M425 306h215v37H425Z" style="fill:#8c737c" transform="matrix(.055814 0 0 .108108 1094.28 718.917)"/>
      <path d="M1496 849h6v7h-6z" style="fill:#595959" transform="matrix(0 .333333 -1 0 1961 227.331)"/>
      <path d="M1496 849h6v7h-6z" style="fill:#595959" transform="matrix(0 .333333 -1.42857 0 2297.86 254.331)"/>
      <path d="M1496 849h6v7h-6z" style="fill:#595959" transform="matrix(.333333 0 0 8.28571 262.333 -6219.57)"/>
      <path d="M1496 849h6v7h-6z" style="fill:#595959" transform="matrix(0 .333333 -3.14286 0 3471.29 434.331)"/>
      <path d="M1496 849h6v7h-6z" style="fill:#595959" transform="matrix(0 .333333 -3.14286 0 3603.29 434.331)"/>
      <g transform="matrix(1.66667 0 0 1 -1170 -148.002)">
        <path d="M1287 757h18v2h-18z" style="fill:#0dcaf2"/>
        <use xlink:href="#am" width="30" height="2" x="955" y="529.00201" transform="matrix(.6 0 0 1 714 227.998)"/>
      </g>
      <path d="M347 426h262.29501v70H347Z" style="fill:#4da1b3" transform="matrix(0 .0648124 -.0285714 0 1042.17 589.508)"/>
      <path d="M347 426h262.29501v70H347Z" style="fill:#4da1b3" transform="matrix(0 .133437 -.0285714 0 1042.17 598.695)"/>
      <g transform="rotate(90 983.001 668.999)">
        <path d="M1287 757h18v2h-18z" style="fill:#0dcaf2"/>
        <use xlink:href="#an" width="2" height="18" x="873" y="893.00201" transform="rotate(-90 1012.999 619.001)"/>
      </g>
      <g transform="rotate(90 1001.001 650.999)">
        <path d="M1287 757h18v2h-18z" style="fill:#0dcaf2"/>
        <use xlink:href="#an" width="2" height="18" x="873" y="857.00201" transform="rotate(-90 1030.999 601.001)"/>
      </g>
      <g transform="matrix(0 .944444 -1 0 1472 -258.502)">
        <path d="M1287 757h18v2h-18z" style="fill:#0dcaf2"/>
        <use xlink:href="#ao" width="2" height="17" x="693" y="877.00201" transform="matrix(0 -1 1.05882 0 358.41 1452)"/>
      </g>
      <g transform="matrix(0 .944444 -1 0 1472 -279.502)">
        <path d="M1287 757h18v2h-18z" style="fill:#0dcaf2"/>
        <use xlink:href="#ap" width="2" height="17" x="693" y="856.00201" transform="matrix(0 -1 1.05882 0 380.645 1452)"/>
      </g>
      <g transform="matrix(.722222 0 0 1 -213.5 196.998)">
        <path d="M1287 757h18v2h-18z" style="fill:#0dcaf2"/>
        <use xlink:href="#aq" width="13" height="2" x="696" y="874.00201" transform="matrix(1.38462 0 0 1 323.308 -117.002)"/>
      </g>
      <g transform="matrix(.666667 0 0 1 -116.5 196.998)">
        <path d="M1287 757h18v2h-18z" style="fill:#0dcaf2"/>
        <use xlink:href="#ar" width="12" height="2" x="721.5" y="874.00201" transform="matrix(1.5 0 0 1 204.75 -117.002)"/>
      </g>
      <g transform="matrix(.222222 0 0 1 450 217.998)">
        <path d="M1287 757h18v2h-18z" style="fill:#0dcaf2"/>
        <use xlink:href="#as" width="4" height="2" x="716" y="895.00201" transform="matrix(4.5 0 0 1 -1935 -138.002)"/>
      </g>
      <g transform="matrix(.222222 0 0 1 465 217.998)">
        <path d="M1287 757h18v2h-18z" style="fill:#0dcaf2"/>
        <use xlink:href="#as" width="4" height="2" x="731" y="895.00201" transform="matrix(4.5 0 0 1 -2002.5 -138.002)"/>
      </g>
      <path d="M347 426h262.29501v70H347Z" style="fill:#4da1b3" transform="matrix(.022875 0 0 .0285714 785.062 620.827)"/>
      <path d="M347 426h262.29501v70H347Z" style="fill:#4da1b3" transform="matrix(.022875 0 0 .0285714 785.062 680.827)"/>
      <path d="M347 426h262.29501v70H347Z" style="fill:#4da1b3" transform="matrix(0 .022875 -.0285714 0 805.171 597.06)"/>
      <path d="M347 426h262.29501v70H347Z" style="fill:#4da1b3" transform="matrix(0 .022875 -.0285714 0 805.171 687.06)"/>
      <path d="M347 426h262.29501v70H347Z" style="fill:#4da1b3" transform="matrix(0 .022875 -.0285714 0 829.171 687.06)"/>
      <path d="M347 426h262.29501v70H347Z" style="fill:#4da1b3" transform="matrix(0 .022875 -.0285714 0 805.171 709.06)"/>
      <path d="M347 426h262.29501v70H347Z" style="fill:#4da1b3" transform="matrix(0 .022875 -.0285714 0 829.171 709.06)"/>
      <path d="M347 426h262.29501v70H347Z" style="fill:#4da1b3" transform="matrix(0 .022875 -.0285714 0 829.171 597.06)"/>
      <path d="M347 426h262.29501v70H347Z" style="fill:#4da1b3" transform="matrix(0 .022875 -.0285714 0 829.171 619.06)"/>
      <path d="M347 426h262.29501v70H347Z" style="fill:#4da1b3" transform="matrix(0 .022875 -.0285714 0 805.171 619.06)"/>
      <path d="M347 426h262.29501v70H347Z" style="fill:#4da1b3" transform="matrix(.022875 0 0 .0285714 825.062 734.827)"/>
      <path d="M347 426h262.29501v70H347Z" style="fill:#4da1b3" transform="matrix(.022875 0 0 .0285714 809.062 734.827)"/>
      <g transform="translate(-408 -10.002)">
        <path d="M1287 757h18v2h-18z" style="fill:#0dcaf2"/>
        <use xlink:href="#at" width="18" height="2" x="859" y="667.00201" transform="translate(428 89.998)"/>
      </g>
      <g transform="translate(-336 -10.002)">
        <path d="M1287 757h18v2h-18z" style="fill:#0dcaf2"/>
        <use xlink:href="#at" width="18" height="2" x="931" y="667.00201" transform="translate(356 89.998)"/>
      </g>
      <path d="M347 426h262.29501v70H347Z" style="fill:#4da1b3" transform="matrix(.0343124 0 0 .0285714 1007.09 734.827)"/>
      <path d="M425 306h215v37H425Z" style="fill:#8c737c" transform="matrix(0 .055814 -.108108 0 863.081 854.277)"/>
      <path d="M218 1036h31v8h-31z" style="fill:#f30000" transform="matrix(.258065 0 0 .5 976.742 287.998)"/>
      <path d="M218 1036h31v8h-31z" style="fill:#f30000" transform="matrix(0 .258065 -.5 0 1534 742.74)"/>
    </g>
    <g transform="translate(-20 -79.996)">
      <g transform="translate(-465 94.998)">
        <clipPath id="B">
          <path d="M1322 622h20v2h-20z"/>
        </clipPath>
        <g clip-path="url(#B)">
          <use xlink:href="#au" width="20" height="2" x="837" y="637.00201" transform="translate(485 -15.002)"/>
        </g>
      </g>
      <g transform="translate(-351 94.998)">
        <clipPath id="av">
          <path d="M1322 622h20v2h-20z"/>
        </clipPath>
        <g clip-path="url(#av)">
          <use xlink:href="#au" width="20" height="2" x="951" y="637.00201" transform="translate(371 -15.002)"/>
        </g>
      </g>
      <g transform="matrix(1.28571 0 0 1.10526 -810.857 -113.16)">
        <path d="M1396 961h35v19h-35z" style="fill:#595959"/>
        <use xlink:href="#aw" width="45" height="21" x="964" y="869.00201" transform="matrix(.777778 0 0 .904762 646.222 174.76)"/>
        <path d="M1431 961v19h-35v-19zm-.78.905h-33.44v17.19h33.44z"/>
      </g>
      <g transform="matrix(1.28571 0 0 1.10526 -810.857 -80.1599)">
        <path d="M1396 961h35v19h-35z" style="fill:#595959"/>
        <use xlink:href="#ax" width="45" height="21" x="964" y="902.00201" transform="matrix(.777778 0 0 .904762 646.222 144.903)"/>
        <path d="M1431 961v19h-35v-19zm-.78.905h-33.44v17.19h33.44z"/>
      </g>
      <g transform="matrix(1.28571 0 0 1.10526 -753.857 -80.1599)">
        <path d="M1396 961h35v19h-35z" style="fill:#595959"/>
        <use xlink:href="#ay" width="45" height="21" x="1021" y="902.00201" transform="matrix(.777778 0 0 .904762 601.889 144.903)"/>
        <path d="M1431 961v19h-35v-19zm-.78.905h-33.44v17.19h33.44z"/>
      </g>
      <g transform="matrix(1.28571 0 0 1.10526 -753.857 -113.16)">
        <path d="M1396 961h35v19h-35z" style="fill:#595959"/>
        <use xlink:href="#az" width="45" height="21" x="1021" y="869.00201" transform="matrix(.777778 0 0 .904762 601.889 174.76)"/>
        <path d="M1431 961v19h-35v-19zm-.78.905h-33.44v17.19h33.44z"/>
      </g>
      <g transform="matrix(2.6 0 0 .941176 -2521 30.7039)">
        <clipPath id="C">
          <path d="M1319.23 862h1.54v14.875h8.46V862h1.54v19.125h-11.54z"/>
        </clipPath>
        <g clip-path="url(#C)">
          <use xlink:href="#aA" width="30" height="18" x="889" y="762.00201" transform="matrix(.384615 0 0 1.0625 977.308 52.3729)"/>
        </g>
      </g>
      <g transform="translate(-408 -20.002)">
        <clipPath id="aB">
          <path d="M1317 840h4v12h-4z"/>
        </clipPath>
        <g clip-path="url(#aB)">
          <use xlink:href="#aC" width="4" height="12" x="889" y="740.00201" transform="translate(428 99.998)"/>
        </g>
      </g>
      <g transform="translate(-408 -20.002)">
        <clipPath id="E">
          <path d="M1343 840h4v12h-4z"/>
        </clipPath>
        <g clip-path="url(#E)">
          <use xlink:href="#aD" width="4" height="12" x="915" y="740.00201" transform="translate(428 99.998)"/>
        </g>
      </g>
      <g transform="matrix(.545455 0 0 1.47368 517.818 -380.525)">
        <clipPath id="aE">
          <path d="M1148 777.99799h18.333v19H1148Z"/>
        </clipPath>
        <g clip-path="url(#aE)">
          <use xlink:href="#aF" width="10" height="28" x="1124" y="686.00201" transform="matrix(1.83333 0 0 .678571 -912.667 312.497)"/>
        </g>
      </g>
      <g transform="matrix(.545455 0 0 -1.47368 517.818 2068.52)">
        <clipPath id="F">
          <path d="M1148 777.99799h18.333v19H1148Z"/>
        </clipPath>
        <g clip-path="url(#F)">
          <use xlink:href="#aG" width="10" height="28" x="1124" y="814.00201" transform="matrix(1.83333 0 0 -.678571 -912.667 1349.36)"/>
        </g>
      </g>
      <g transform="matrix(.545455 0 0 2.21053 539.818 -953.787)">
        <clipPath id="aH">
          <path d="M1148 777.99799h18.333v19H1148Z"/>
        </clipPath>
        <g clip-path="url(#aH)">
          <use xlink:href="#aI" width="10" height="42" x="1146" y="686.00201" transform="matrix(1.83333 0 0 .452381 -953 467.664)"/>
        </g>
      </g>
      <g transform="matrix(.545455 0 0 -2.21053 539.818 2641.78)">
        <clipPath id="H">
          <path d="M1148 777.99799h18.333v19H1148Z"/>
        </clipPath>
        <g clip-path="url(#H)">
          <use xlink:href="#aJ" width="10" height="42" x="1146" y="800.00201" transform="matrix(1.83333 0 0 -.452381 -953 1158.9)"/>
        </g>
      </g>
      <g transform="matrix(.613636 0 0 1.96491 483.795 -745.7)">
        <clipPath id="aK">
          <path d="M1144.33 777.99799h29.333v4.071h-29.333z"/>
        </clipPath>
        <g clip-path="url(#aK)">
          <use xlink:href="#aL" width="18" height="8" x="1166" y="703.00201" transform="matrix(1.62963 0 0 .508929 -755.815 420.22)"/>
        </g>
      </g>
      <g transform="matrix(.613636 0 0 2.45614 390.795 -987.874)">
        <clipPath id="I">
          <path d="M1144.33 777.99799h29.333v4.071h-29.333z"/>
        </clipPath>
        <g clip-path="url(#I)">
          <use xlink:href="#aM" width="18" height="10" x="1073" y="843.00201" transform="matrix(1.62963 0 0 .407143 -604.259 434.776)"/>
        </g>
      </g>
      <g transform="matrix(.613636 0 0 1.96491 469.795 -669.698)">
        <clipPath id="aN">
          <path d="M1144.33 777.99799h29.333v4.071h-29.333z"/>
        </clipPath>
        <g clip-path="url(#aN)">
          <use xlink:href="#aO" width="18" height="8" x="1152" y="779.00403" transform="matrix(1.62963 0 0 .508929 -733 381.541)"/>
        </g>
      </g>
      <g transform="matrix(.613636 0 0 1.96491 451.795 -669.698)">
        <clipPath id="K">
          <path d="M1144.33 777.99799h29.333v4.071h-29.333z"/>
        </clipPath>
        <g clip-path="url(#K)">
          <use xlink:href="#aP" width="18" height="8" x="1134" y="779.00403" transform="matrix(1.62963 0 0 .508929 -703.667 381.541)"/>
        </g>
      </g>
      <g transform="matrix(.613636 0 0 1.96491 460.795 -677.698)">
        <clipPath id="aQ">
          <path d="M1144.33 777.99799h29.333v4.071h-29.333z"/>
        </clipPath>
        <g clip-path="url(#aQ)">
          <use xlink:href="#aR" width="18" height="8" x="1143" y="771.00403" transform="matrix(1.62963 0 0 .508929 -718.333 385.612)"/>
        </g>
      </g>
      <g transform="matrix(.613636 0 0 1.96491 466.795 -705.797)">
        <clipPath id="L">
          <path d="M1144.33 777.99799h29.333v4.071h-29.333z"/>
        </clipPath>
        <g clip-path="url(#L)">
          <use xlink:href="#aS" width="18" height="8" x="1149" y="742.90503" transform="matrix(1.62963 0 0 .508929 -728.111 399.913)"/>
        </g>
      </g>
      <g transform="matrix(.602666 .115514 -.369886 1.92978 785.534 -766.179)">
        <clipPath id="aT">
          <path d="M1144.33 777.99799h29.333v4.071h-29.333z"/>
        </clipPath>
        <g clip-path="url(#aT)">
          <use xlink:href="#aU" width="20" height="12" x="1165.91" y="787.37903" transform="matrix(1.6005 -.0958034 .30677 .49983 -965.651 496.284)"/>
        </g>
      </g>
      <g transform="matrix(.401777 .0770094 -.462357 2.41223 1062.34 -1156.86)">
        <clipPath id="aV">
          <path d="M1144.33 777.99799h29.333v4.071h-29.333z"/>
        </clipPath>
        <g clip-path="url(#aV)">
          <use xlink:href="#aW" width="14" height="13" x="1140.52" y="727.97998" transform="matrix(2.40074 -.0766427 .460155 .399864 -1933.25 574.462)"/>
        </g>
      </g>
      <g transform="matrix(.389841 -.124013 .744563 2.34057 126.356 -853.552)">
        <clipPath id="N">
          <path d="M1144.33 777.99799h29.333v4.071h-29.333z"/>
        </clipPath>
        <g clip-path="url(#N)">
          <use xlink:href="#aX" width="15" height="14" x="1131.73" y="741.85699" transform="matrix(2.32942 .123423 -.741017 .387985 -939.523 349.076)"/>
        </g>
      </g>
      <g transform="matrix(.228728 -.148538 1.33771 2.05989 -174.952 -574.262)">
        <clipPath id="aY">
          <path d="M1144.33 777.99799h29.333v4.071h-29.333z"/>
        </clipPath>
        <g clip-path="url(#aY)">
          <use xlink:href="#aZ" width="13" height="13" x="1107.53" y="774" transform="matrix(3.07513 .221746 -1.99701 .341459 -707.058 266.632)"/>
        </g>
      </g>
      <g transform="matrix(.337864 .230658 -1.24636 1.82565 1774.52 -860.503)">
        <clipPath id="P">
          <path d="M1144.33 777.99799h29.333v4.071h-29.333z"/>
        </clipPath>
        <g clip-path="url(#P)">
          <use xlink:href="#ba" width="15" height="15" x="1166.41" y="743.80499" transform="matrix(2.01884 -.255066 1.37825 .373617 -2245.86 798.905)"/>
        </g>
      </g>
      <g transform="matrix(-.389537 .124964 -.675246 -2.10487 2207.09 2357.93)">
        <clipPath id="Q">
          <path d="M1144.33 777.99799h29.333v4.071h-29.333z"/>
        </clipPath>
        <g clip-path="url(#Q)">
          <use xlink:href="#bb" width="15" height="13" x="1201.8101" y="774.78699" transform="matrix(-2.32761 -.138188 .746701 -.430758 3389.74 1283.47)"/>
        </g>
      </g>
      <g transform="matrix(.613636 0 0 5.89474 483.795 -3690.1)">
        <clipPath id="R">
          <path d="M1144.33 777.99799h29.333v4.071h-29.333z"/>
        </clipPath>
        <g clip-path="url(#R)">
          <use xlink:href="#bc" width="18" height="24" x="1166" y="816.00201" transform="matrix(1.62963 0 0 .169643 -755.815 639.569)"/>
        </g>
      </g>
      <g transform="matrix(.545455 0 0 2.94737 516.818 -1422.05)">
        <clipPath id="bd">
          <path d="M1144.33 777.99799h29.333v4.071h-29.333z"/>
        </clipPath>
        <g clip-path="url(#bd)">
          <use xlink:href="#be" width="16" height="12" x="1121" y="791.00201" transform="matrix(1.83333 0 0 .339286 -910.833 509.622)"/>
        </g>
      </g>
      <g transform="matrix(.361887 -.19077 .916291 1.73819 -282.745 -244.743)">
        <clipPath id="S">
          <path d="M1144.33 777.99799h29.333v4.071h-29.333z"/>
        </clipPath>
        <g clip-path="url(#S)">
          <use xlink:href="#bf" width="15" height="13" x="824.24701" y="803.66602" transform="matrix(2.16239 .237327 -1.13991 .450205 284.478 218.049)"/>
        </g>
      </g>
      <g transform="matrix(.285592 .292903 -1.40685 1.37173 1723.39 -552.476)">
        <clipPath id="bg">
          <path d="M1144.33 777.99799h29.333v4.071h-29.333z"/>
        </clipPath>
        <g clip-path="url(#bg)">
          <use xlink:href="#bh" width="15" height="15" x="929.94702" y="769.914" transform="matrix(1.7065 -.364386 1.75019 .35529 -1799.89 845.402)"/>
        </g>
      </g>
      <path d="M1029.5 840.998h6l6-9.998v-12" style="fill:none;stroke:#000;stroke-width:2px" transform="translate(7.5)"/>
      <g transform="matrix(0 .545455 -2.94737 0 3419.05 250.816)">
        <clipPath id="U">
          <path d="M1144.33 777.99799h29.333v4.071h-29.333z"/>
        </clipPath>
        <g clip-path="url(#U)">
          <use xlink:href="#bi" width="12" height="16" x="1094" y="795.00201" transform="matrix(0 -.339286 1.83333 0 -313.17 1153.25)"/>
        </g>
      </g>
      <g transform="matrix(-.19716 .508575 -2.74809 -1.06536 3483.55 1086.23)">
        <clipPath id="bj">
          <path d="M1144.33 777.99799h29.333v4.071h-29.333z"/>
        </clipPath>
        <g clip-path="url(#bj)">
          <use xlink:href="#bk" width="17" height="20" x="1082.95" y="755.02502" transform="matrix(-.662678 -.316346 1.70938 -.122638 575.194 1219.08)"/>
        </g>
      </g>
      <g transform="matrix(-.19716 .508575 -2.74809 -1.06536 3495.67 1090.92)">
        <clipPath id="V">
          <path d="M1144.33 777.99799h29.333v4.071h-29.333z"/>
        </clipPath>
        <g clip-path="url(#V)">
          <use xlink:href="#bl" width="17" height="20" x="1095.08" y="759.724" transform="matrix(-.662678 -.316346 1.70938 -.122638 575.194 1223.49)"/>
        </g>
      </g>
      <g transform="matrix(.606874 .0908489 -.290905 1.94326 718.549 -849.103)">
        <clipPath id="bm">
          <path d="M1144.33 777.99799h29.333v4.071h-29.333z"/>
        </clipPath>
        <g clip-path="url(#bm)">
          <use xlink:href="#bn" width="19" height="11" x="1165.51" y="686.71399" transform="matrix(1.61167 -.0753469 .241267 .50332 -901.67 520.268)"/>
        </g>
      </g>
      <g transform="matrix(.545455 0 0 2.21053 608.818 -953.787)">
        <clipPath id="X">
          <path d="M1151.67 777.99799h18.333v19h-18.333z"/>
        </clipPath>
        <g clip-path="url(#X)">
          <use xlink:href="#bo" width="10" height="42" x="1217" y="686.00201" transform="matrix(1.83333 0 0 .452381 -1079.5 467.664)"/>
        </g>
      </g>
      <g transform="matrix(.545455 0 0 -2.21053 608.818 2641.78)">
        <clipPath id="bp">
          <path d="M1151.67 777.99799h18.333v19h-18.333z"/>
        </clipPath>
        <g clip-path="url(#bp)">
          <use xlink:href="#bq" width="10" height="42" x="1217" y="800.00201" transform="matrix(1.83333 0 0 -.452381 -1079.5 1158.9)"/>
        </g>
      </g>
      <g transform="matrix(.545455 0 0 2.21053 586.818 -953.787)">
        <clipPath id="Y">
          <path d="M1151.67 777.99799h18.333v19h-18.333z"/>
        </clipPath>
        <g clip-path="url(#Y)">
          <use xlink:href="#br" width="10" height="42" x="1195" y="686.00201" transform="matrix(1.83333 0 0 .452381 -1039.17 467.664)"/>
        </g>
      </g>
      <g transform="matrix(.545455 0 0 -2.21053 586.818 2641.78)">
        <clipPath id="bs">
          <path d="M1151.67 777.99799h18.333v19h-18.333z"/>
        </clipPath>
        <g clip-path="url(#bs)">
          <use xlink:href="#bt" width="10" height="42" x="1195" y="800.00201" transform="matrix(1.83333 0 0 -.452381 -1039.17 1158.9)"/>
        </g>
      </g>
      <g transform="matrix(.984127 0 0 1.16667 -385.508 -137.502)">
        <clipPath id="aa">
          <path d="M1351.97 765h4.06v10.286h57.92v3.428h-61.98z"/>
        </clipPath>
        <g clip-path="url(#aa)">
          <use xlink:href="#bu" width="61" height="16" x="925" y="675.00201" transform="matrix(1.01613 0 0 .857143 412.048 186.427)"/>
        </g>
      </g>
      <g transform="matrix(-.984127 0 0 1.16667 2233.51 -137.502)">
        <clipPath id="ab">
          <path d="M1356.03 765h-4.06v13.714h61.98v-3.428h-57.92z"/>
        </clipPath>
        <g clip-path="url(#ab)">
          <use xlink:href="#bv" width="61" height="16" x="822" y="675.00201" transform="matrix(-1.01613 0 0 .857143 2249.21 186.427)"/>
        </g>
      </g>
      <use xlink:href="#bw" width="463" height="397" x="668" y="445.19901" transform="translate(20 79.996)"/>
      <g transform="matrix(.6 0 0 .6 48.2 299.198)">
        <clipPath id="ac">
          <circle cx="1223" cy="793" r="5"/>
        </clipPath>
        <g clip-path="url(#ac)">
          <use xlink:href="#bx" width="6" height="6" x="759" y="692.00201" transform="translate(-47 -365.337) scale(1.66667)"/>
        </g>
      </g>
      <g transform="matrix(.6 0 0 .6 94.2 299.198)">
        <clipPath id="ad">
          <circle cx="1223" cy="793" r="5"/>
        </clipPath>
        <g clip-path="url(#ad)">
          <use xlink:href="#bx" width="6" height="6" x="805" y="692.00201" transform="translate(-123.667 -365.337) scale(1.66667)"/>
        </g>
      </g>
      <g transform="matrix(.6 0 0 .6 102.2 186.198)">
        <clipPath id="ae">
          <circle cx="1223" cy="793" r="5"/>
        </clipPath>
        <g clip-path="url(#ae)">
          <use xlink:href="#bx" width="6" height="6" x="813" y="579.00201" transform="translate(-137 -177.003) scale(1.66667)"/>
        </g>
      </g>
      <g transform="matrix(.6 0 0 .6 174.2 155.198)">
        <clipPath id="af">
          <circle cx="1223" cy="793" r="5"/>
        </clipPath>
        <g clip-path="url(#af)">
          <use xlink:href="#bx" width="6" height="6" x="885" y="548.00201" transform="translate(-257 -125.337) scale(1.66667)"/>
        </g>
      </g>
      <g transform="matrix(.6 0 0 .6 174.2 245.198)">
        <clipPath id="by">
          <circle cx="1223" cy="793" r="5"/>
        </clipPath>
        <g clip-path="url(#by)">
          <use xlink:href="#bx" width="6" height="6" x="885" y="638.00201" transform="translate(-257 -275.337) scale(1.66667)"/>
        </g>
      </g>
      <g transform="matrix(.6 0 0 .6 168.2 112.198)">
        <clipPath id="ag">
          <circle cx="1223" cy="793" r="5"/>
        </clipPath>
        <g clip-path="url(#ag)">
          <use xlink:href="#bx" width="6" height="6" x="879" y="505.00201" transform="translate(-247 -53.67) scale(1.66667)"/>
        </g>
      </g>
      <g transform="matrix(.6 0 0 .6 168.2 56.198)">
        <clipPath id="bz">
          <circle cx="1223" cy="793" r="5"/>
        </clipPath>
        <g clip-path="url(#bz)">
          <use xlink:href="#bx" width="6" height="6" x="879" y="449.00201" transform="translate(-247 39.6633) scale(1.66667)"/>
        </g>
      </g>
      <g transform="matrix(.6 0 0 .6 212.2 112.198)">
        <clipPath id="ai">
          <circle cx="1223" cy="793" r="5"/>
        </clipPath>
        <g clip-path="url(#ai)">
          <use xlink:href="#bx" width="6" height="6" x="923" y="505.00201" transform="translate(-320.333 -53.67) scale(1.66667)"/>
        </g>
      </g>
      <g transform="matrix(.6 0 0 .6 212.2 56.198)">
        <clipPath id="bA">
          <circle cx="1223" cy="793" r="5"/>
        </clipPath>
        <g clip-path="url(#bA)">
          <use xlink:href="#bx" width="6" height="6" x="923" y="449.00201" transform="translate(-320.333 39.6633) scale(1.66667)"/>
        </g>
      </g>
      <g transform="matrix(.6 0 0 .6 206.2 155.198)">
        <clipPath id="aj">
          <circle cx="1223" cy="793" r="5"/>
        </clipPath>
        <g clip-path="url(#aj)">
          <use xlink:href="#bx" width="6" height="6" x="917" y="548.00201" transform="translate(-310.333 -125.337) scale(1.66667)"/>
        </g>
      </g>
      <g transform="matrix(.6 0 0 .6 206.2 245.198)">
        <clipPath id="bB">
          <circle cx="1223" cy="793" r="5"/>
        </clipPath>
        <g clip-path="url(#bB)">
          <use xlink:href="#bx" width="6" height="6" x="917" y="638.00201" transform="translate(-310.333 -275.337) scale(1.66667)"/>
        </g>
      </g>
      <g transform="matrix(.6 0 0 .6 278.2 186.198)">
        <clipPath id="al">
          <circle cx="1223" cy="793" r="5"/>
        </clipPath>
        <g clip-path="url(#al)">
          <use xlink:href="#bx" width="6" height="6" x="989" y="579.00201" transform="translate(-430.333 -177.003) scale(1.66667)"/>
        </g>
      </g>
      <g transform="matrix(.6 0 0 .6 102.2 215.198)">
        <clipPath id="am">
          <circle cx="1223" cy="793" r="5"/>
        </clipPath>
        <g clip-path="url(#am)">
          <use xlink:href="#bx" width="6" height="6" x="813" y="608.00201" transform="translate(-137 -225.337) scale(1.66667)"/>
        </g>
      </g>
      <g transform="matrix(.6 0 0 .6 278.2 215.198)">
        <clipPath id="an">
          <circle cx="1223" cy="793" r="5"/>
        </clipPath>
        <g clip-path="url(#an)">
          <use xlink:href="#bx" width="6" height="6" x="989" y="608.00201" transform="translate(-430.333 -225.337) scale(1.66667)"/>
        </g>
      </g>
      <g transform="matrix(.6 0 0 .6 102.2 233.198)">
        <clipPath id="ao">
          <circle cx="1223" cy="793" r="5"/>
        </clipPath>
        <g clip-path="url(#ao)">
          <use xlink:href="#bx" width="6" height="6" x="813" y="626.00201" transform="translate(-137 -255.337) scale(1.66667)"/>
        </g>
      </g>
      <g transform="matrix(.6 0 0 .6 278.2 233.198)">
        <clipPath id="ap">
          <circle cx="1223" cy="793" r="5"/>
        </clipPath>
        <g clip-path="url(#ap)">
          <use xlink:href="#bx" width="6" height="6" x="989" y="626.00201" transform="translate(-430.333 -255.337) scale(1.66667)"/>
        </g>
      </g>
      <g transform="matrix(.6 0 0 .6 121.2 242.198)">
        <clipPath id="aq">
          <circle cx="1223" cy="793" r="5"/>
        </clipPath>
        <g clip-path="url(#aq)">
          <use xlink:href="#bx" width="6" height="6" x="832" y="635.00201" transform="translate(-168.667 -270.337) scale(1.66667)"/>
        </g>
      </g>
      <g transform="matrix(.6 0 0 .6 145.2 242.198)">
        <clipPath id="ar">
          <circle cx="1223" cy="793" r="5"/>
        </clipPath>
        <g clip-path="url(#ar)">
          <use xlink:href="#bx" width="6" height="6" x="856" y="635.00201" transform="translate(-208.667 -270.337) scale(1.66667)"/>
        </g>
      </g>
      <g transform="matrix(.6 0 0 .6 259.2 242.198)">
        <clipPath id="as">
          <circle cx="1223" cy="793" r="5"/>
        </clipPath>
        <g clip-path="url(#as)">
          <use xlink:href="#bx" width="6" height="6" x="970" y="635.00201" transform="translate(-398.667 -270.337) scale(1.66667)"/>
        </g>
      </g>
      <g transform="matrix(.6 0 0 .6 235.2 242.198)">
        <clipPath id="at">
          <circle cx="1223" cy="793" r="5"/>
        </clipPath>
        <g clip-path="url(#at)">
          <use xlink:href="#bx" width="6" height="6" x="946" y="635.00201" transform="translate(-358.667 -270.337) scale(1.66667)"/>
        </g>
      </g>
      <g transform="matrix(.6 0 0 .6 286.2 299.198)">
        <clipPath id="bC">
          <circle cx="1223" cy="793" r="5"/>
        </clipPath>
        <g clip-path="url(#bC)">
          <use xlink:href="#bx" width="6" height="6" x="997" y="692.00201" transform="translate(-443.667 -365.337) scale(1.66667)"/>
        </g>
      </g>
      <g transform="matrix(-.6 0 0 .6 1799.8 299.198)">
        <clipPath id="au">
          <circle cx="1223" cy="793" r="5"/>
        </clipPath>
        <g clip-path="url(#au)">
          <use xlink:href="#bD" width="6" height="6" x="1043" y="692.00201" transform="matrix(-1.66667 0 0 1.66667 2966.33 -365.337)"/>
        </g>
      </g>
      <g transform="matrix(.6 0 0 .6 55.2 341.198)">
        <clipPath id="bE">
          <circle cx="1223" cy="793" r="5"/>
        </clipPath>
        <g clip-path="url(#bE)">
          <use xlink:href="#bx" width="6" height="6" x="766" y="734.00201" transform="translate(-58.6667 -435.337) scale(1.66667)"/>
        </g>
      </g>
      <g transform="matrix(-.6 0 0 .6 1792.8 341.198)">
        <clipPath id="aw">
          <circle cx="1223" cy="793" r="5"/>
        </clipPath>
        <g clip-path="url(#aw)">
          <use xlink:href="#bD" width="6" height="6" x="1036" y="734.00201" transform="matrix(-1.66667 0 0 1.66667 2954.67 -435.337)"/>
        </g>
      </g>
      <g transform="matrix(.6 0 0 .6 55.2 394.198)">
        <clipPath id="ax">
          <circle cx="1223" cy="793" r="5"/>
        </clipPath>
        <g clip-path="url(#ax)">
          <use xlink:href="#bx" width="6" height="6" x="766" y="787.00201" transform="translate(-58.6667 -523.67) scale(1.66667)"/>
        </g>
      </g>
      <g transform="matrix(.6 0 0 .6 28.2 380.198)">
        <clipPath id="ay">
          <circle cx="1223" cy="793" r="5"/>
        </clipPath>
        <g clip-path="url(#ay)">
          <use xlink:href="#bx" width="6" height="6" x="739" y="773.00201" transform="translate(-13.6667 -500.337) scale(1.66667)"/>
        </g>
      </g>
      <g transform="matrix(.6 0 0 .6 -35.8 383.198)">
        <clipPath id="az">
          <circle cx="1223" cy="793" r="5"/>
        </clipPath>
        <g clip-path="url(#az)">
          <use xlink:href="#bx" width="6" height="6" x="675" y="776.00201" transform="translate(93 -505.337) scale(1.66667)"/>
        </g>
      </g>
      <g transform="matrix(.6 0 0 .6 28.2 356.198)">
        <clipPath id="bF">
          <circle cx="1223" cy="793" r="5"/>
        </clipPath>
        <g clip-path="url(#bF)">
          <use xlink:href="#bx" width="6" height="6" x="739" y="749.00201" transform="translate(-13.6667 -460.337) scale(1.66667)"/>
        </g>
      </g>
      <g transform="matrix(.6 0 0 .6 -35.8 353.198)">
        <clipPath id="aA">
          <circle cx="1223" cy="793" r="5"/>
        </clipPath>
        <g clip-path="url(#aA)">
          <use xlink:href="#bx" width="6" height="6" x="675" y="746.00201" transform="translate(93 -455.337) scale(1.66667)"/>
        </g>
      </g>
      <g transform="matrix(-.6 0 0 .6 1792.8 394.198)">
        <clipPath id="bG">
          <circle cx="1223" cy="793" r="5"/>
        </clipPath>
        <g clip-path="url(#bG)">
          <use xlink:href="#bD" width="6" height="6" x="1036" y="787.00201" transform="matrix(-1.66667 0 0 1.66667 2954.67 -523.67)"/>
        </g>
      </g>
      <g transform="matrix(.6 0 0 .6 48.2 436.198)">
        <clipPath id="aC">
          <circle cx="1223" cy="793" r="5"/>
        </clipPath>
        <g clip-path="url(#aC)">
          <use xlink:href="#bx" width="6" height="6" x="759" y="829.00201" transform="translate(-47 -593.67) scale(1.66667)"/>
        </g>
      </g>
      <g transform="matrix(-.6 0 0 .6 1799.8 436.198)">
        <clipPath id="bH">
          <circle cx="1223" cy="793" r="5"/>
        </clipPath>
        <g clip-path="url(#bH)">
          <use xlink:href="#bD" width="6" height="6" x="1043" y="829.00201" transform="matrix(-1.66667 0 0 1.66667 2966.33 -593.67)"/>
        </g>
      </g>
      <g transform="translate(-408 -11.002)">
        <clipPath id="aD">
          <path d="M1323 620h18v6h-18z"/>
        </clipPath>
        <g clip-path="url(#aD)">
          <use xlink:href="#cT" width="18" height="6" x="895" y="529.00201" transform="translate(428 90.998)"/>
        </g>
      </g>
      <g transform="matrix(1.33333 0 0 1 -852 -63.002)">
        <clipPath id="bI">
          <path d="M1323 620h18v6h-18z"/>
        </clipPath>
        <g clip-path="url(#bI)">
          <use xlink:href="#cV" width="24" height="6" x="892" y="477.00201" transform="matrix(.75 0 0 1 654 142.998)"/>
        </g>
      </g>
      <g transform="matrix(.333333 0 0 3 480 -1337)">
        <clipPath id="aF">
          <path d="M1323 620h18v6h-18z"/>
        </clipPath>
        <g clip-path="url(#aF)">
          <use xlink:href="#cX" width="6" height="18" x="901" y="443.00201" transform="matrix(3 0 0 .333333 -1380 472.333)"/>
        </g>
      </g>
      <g transform="translate(-408 -10.002)">
        <clipPath id="bJ">
          <path d="M1245 650h-2v-10h20v2h-18z"/>
        </clipPath>
        <g clip-path="url(#bJ)">
          <use xlink:href="#cZ" width="20" height="10" x="815" y="550.00201" transform="translate(428 89.998)"/>
        </g>
      </g>
      <g transform="matrix(-1 0 0 1 2256 -10.002)">
        <clipPath id="aG">
          <path d="M1243 650h2v-8h18v-2h-20z"/>
        </clipPath>
        <g clip-path="url(#aG)">
          <use xlink:href="#db" width="20" height="10" x="973" y="550.00201" transform="matrix(-1 0 0 1 2236 89.998)"/>
        </g>
      </g>
      <g transform="matrix(.6 0 0 .6 102.2 164.198)">
        <clipPath id="bK">
          <circle cx="1223" cy="793" r="5"/>
        </clipPath>
        <g clip-path="url(#bK)">
          <use xlink:href="#bx" width="6" height="6" x="813" y="557.00201" transform="translate(-137 -140.337) scale(1.66667)"/>
        </g>
      </g>
      <g transform="matrix(.6 0 0 .6 121.2 155.198)">
        <clipPath id="aI">
          <circle cx="1223" cy="793" r="5"/>
        </clipPath>
        <g clip-path="url(#aI)">
          <use xlink:href="#bx" width="6" height="6" x="832" y="548.00201" transform="translate(-168.667 -125.337) scale(1.66667)"/>
        </g>
      </g>
      <g transform="matrix(.6 0 0 .6 278.2 164.198)">
        <clipPath id="bL">
          <circle cx="1223" cy="793" r="5"/>
        </clipPath>
        <g clip-path="url(#bL)">
          <use xlink:href="#bx" width="6" height="6" x="989" y="557.00201" transform="translate(-430.333 -140.337) scale(1.66667)"/>
        </g>
      </g>
      <g transform="matrix(.6 0 0 .6 259.2 155.198)">
        <clipPath id="aJ">
          <circle cx="1223" cy="793" r="5"/>
        </clipPath>
        <g clip-path="url(#aJ)">
          <use xlink:href="#bx" width="6" height="6" x="970" y="548.00201" transform="translate(-398.667 -125.337) scale(1.66667)"/>
        </g>
      </g>
      <g transform="matrix(.6 0 0 .6 212.2 202.198)">
        <clipPath id="bM">
          <circle cx="1223" cy="793" r="5"/>
        </clipPath>
        <g clip-path="url(#bM)">
          <use xlink:href="#bx" width="6" height="6" x="923" y="595.00201" transform="translate(-320.333 -203.67) scale(1.66667)"/>
        </g>
      </g>
      <g transform="matrix(.6 0 0 .6 168.2 202.198)">
        <clipPath id="aL">
          <circle cx="1223" cy="793" r="5"/>
        </clipPath>
        <g clip-path="url(#aL)">
          <use xlink:href="#bx" width="6" height="6" x="879" y="595.00201" transform="translate(-247 -203.67) scale(1.66667)"/>
        </g>
      </g>
      <g transform="matrix(.6 0 0 .6 159.2 186.198)">
        <clipPath id="bN">
          <circle cx="1223" cy="793" r="5"/>
        </clipPath>
        <g clip-path="url(#bN)">
          <use xlink:href="#bx" width="6" height="6" x="870" y="579.00201" transform="translate(-232 -177.003) scale(1.66667)"/>
        </g>
      </g>
      <g transform="matrix(.6 0 0 .6 221.2 185.198)">
        <clipPath id="aM">
          <circle cx="1223" cy="793" r="5"/>
        </clipPath>
        <g clip-path="url(#aM)">
          <use xlink:href="#bx" width="6" height="6" x="932" y="578.00201" transform="translate(-335.333 -175.337) scale(1.66667)"/>
        </g>
      </g>
      <path d="M682 603.99799h62v26.002h-62z" style="fill:#404040" transform="matrix(1.29032 0 0 .769172 -204 140.42)"/>
      <g transform="matrix(.193548 0 0 .230751 655 499.625)">
        <clipPath id="bO">
          <path d="M682 603.99799h62v26.002h-62z"/>
        </clipPath>
        <g clip-path="url(#bO)">
          <use xlink:href="#dl" width="12" height="6" x="767" y="559.00201" transform="matrix(5.16667 0 0 4.33367 -3280.83 -1818.53)"/>
        </g>
      </g>
      <g transform="matrix(.193548 0 0 .230751 557 499.625)">
        <clipPath id="aO">
          <path d="M682 603.99799h62v26.002h-62z"/>
        </clipPath>
        <g clip-path="url(#aO)">
          <use xlink:href="#dn" width="12" height="6" x="669" y="559.00201" transform="matrix(5.16667 0 0 4.33367 -2774.5 -1818.53)"/>
        </g>
      </g>
      <g transform="matrix(.193548 0 0 .230751 618 509.625)">
        <clipPath id="bP">
          <path d="M682 603.99799h62v26.002h-62z"/>
        </clipPath>
        <g clip-path="url(#bP)">
          <use xlink:href="#dp" width="12" height="6" x="730" y="569.00201" transform="matrix(5.16667 0 0 4.33367 -3089.67 -1861.87)"/>
        </g>
      </g>
      <g transform="matrix(0 .193548 -.230751 0 877.373 540.998)">
        <clipPath id="aP">
          <path d="M682 603.99799h62v26.002h-62z"/>
        </clipPath>
        <g clip-path="url(#aP)">
          <use xlink:href="#dr" width="6" height="12" x="712" y="593.00201" transform="matrix(0 -4.33367 5.16667 0 -2381.84 3715.57)"/>
        </g>
      </g>
      <g transform="matrix(0 .193548 -.230751 0 857.373 510.998)">
        <clipPath id="bQ">
          <path d="M682 603.99799h62v26.002h-62z"/>
        </clipPath>
        <g clip-path="url(#bQ)">
          <use xlink:href="#dr" width="6" height="12" x="692" y="563.00201" transform="matrix(0 -4.33367 5.16667 0 -2226.84 3628.9)"/>
        </g>
      </g>
      <g transform="matrix(0 .193548 -.230751 0 808.373 474.998)">
        <clipPath id="aR">
          <path d="M682 603.99799h62v26.002h-62z"/>
        </clipPath>
        <g clip-path="url(#aR)">
          <use xlink:href="#du" width="6" height="12" x="643" y="527.00201" transform="matrix(0 -4.33367 5.16667 0 -2040.84 3416.55)"/>
        </g>
      </g>
      <g transform="matrix(0 .193548 -.230751 0 813.373 572.998)">
        <clipPath id="bR">
          <path d="M682 603.99799h62v26.002h-62z"/>
        </clipPath>
        <g clip-path="url(#bR)">
          <use xlink:href="#dw" width="6" height="12" x="648" y="625.00201" transform="matrix(0 -4.33367 5.16667 0 -2547.18 3438.22)"/>
        </g>
      </g>
      <g transform="matrix(-.114559 .156004 -.18599 -.136579 975.436 658.037)">
        <clipPath id="aS">
          <path d="M682 603.99799h62v26.002h-62z"/>
        </clipPath>
        <g clip-path="url(#aS)">
          <use xlink:href="#dy" width="12" height="14" x="753.03101" y="598.39001" transform="matrix(-3.0581 -3.49302 4.16443 -2.56505 514.606 4820.06)"/>
        </g>
      </g>
      <g transform="matrix(0 .193548 -.230751 0 867.373 540.998)">
        <clipPath id="bS">
          <path d="M682 603.99799h62v26.002h-62z"/>
        </clipPath>
        <g clip-path="url(#bS)">
          <use xlink:href="#dr" width="6" height="12" x="702" y="593.00201" transform="matrix(0 -4.33367 5.16667 0 -2381.84 3672.23)"/>
        </g>
      </g>
      <g transform="matrix(0 .193548 -.230751 0 867.373 510.998)">
        <clipPath id="aU">
          <path d="M682 603.99799h62v26.002h-62z"/>
        </clipPath>
        <g clip-path="url(#aU)">
          <use xlink:href="#dr" width="6" height="12" x="702" y="563.00201" transform="matrix(0 -4.33367 5.16667 0 -2226.84 3672.23)"/>
        </g>
      </g>
      <g transform="matrix(0 .193548 -.230751 0 850.373 540.998)">
        <clipPath id="bT">
          <path d="M682 603.99799h62v26.002h-62z"/>
        </clipPath>
        <g clip-path="url(#bT)">
          <use xlink:href="#dC" width="6" height="12" x="685" y="593.00201" transform="matrix(0 -4.33367 5.16667 0 -2381.84 3598.56)"/>
        </g>
      </g>
      <g transform="matrix(.193548 0 0 .230751 655 509.625)">
        <clipPath id="aW">
          <path d="M682 603.99799h62v26.002h-62z"/>
        </clipPath>
        <g clip-path="url(#aW)">
          <use xlink:href="#dl" width="12" height="6" x="767" y="569.00201" transform="matrix(5.16667 0 0 4.33367 -3280.83 -1861.87)"/>
        </g>
      </g>
      <g transform="matrix(.193548 0 0 .230751 557 509.625)">
        <clipPath id="bU">
          <path d="M682 603.99799h62v26.002h-62z"/>
        </clipPath>
        <g clip-path="url(#bU)">
          <use xlink:href="#dn" width="12" height="6" x="669" y="569.00201" transform="matrix(5.16667 0 0 4.33367 -2774.5 -1861.87)"/>
        </g>
      </g>
      <g transform="matrix(.113794 .156563 -.186656 .135667 717.031 489.662)">
        <clipPath id="aX">
          <path d="M682 603.99799h62v26.002h-62z"/>
        </clipPath>
        <g clip-path="url(#aX)">
          <use xlink:href="#dG" width="12" height="14" x="657.04602" y="598.38501" transform="matrix(3.03768 -3.50553 4.17935 2.54793 -3829.49 1399.67)"/>
        </g>
      </g>
      <g transform="matrix(.193548 0 0 .230751 618 533.625)">
        <clipPath id="bV">
          <path d="M682 603.99799h62v26.002h-62z"/>
        </clipPath>
        <g clip-path="url(#bV)">
          <use xlink:href="#dI" width="12" height="6" x="730" y="593.00201" transform="matrix(5.16667 0 0 4.33367 -3089.67 -1965.88)"/>
        </g>
      </g>
      <path d="M682 603.99799h62v26.002h-62z" style="fill:#404040" transform="matrix(1.29032 0 0 .769172 -204 238.42)"/>
      <g transform="matrix(-1 0 0 -.833333 1845 1636.16)">
        <clipPath id="aZ">
          <path d="m922 875 6 12h-12z"/>
        </clipPath>
        <g clip-path="url(#aZ)">
          <use xlink:href="#dK" width="12" height="10" x="897" y="817.00201" transform="matrix(-1 0 0 -1.2 1825 1867.4)"/>
        </g>
      </g>
      <g transform="matrix(-1 0 0 -.833333 1846 1535.16)">
        <clipPath id="bW">
          <path d="m922 875 6 12h-12z"/>
        </clipPath>
        <g clip-path="url(#bW)">
          <use xlink:href="#dK" width="12" height="10" x="898" y="716.00201" transform="matrix(-1 0 0 -1.2 1826 1746.2)"/>
        </g>
      </g>
      <g transform="matrix(1.5 0 0 1 -490.5 -118)">
        <clipPath id="ba">
          <path d="M917 889.99799h12v7h-12z"/>
        </clipPath>
        <g clip-path="url(#ba)">
          <use xlink:href="#dN" width="18" height="7" x="865" y="692.00201" transform="matrix(.666667 0 0 1 340.333 197.996)"/>
        </g>
      </g>
      <g transform="matrix(.666667 0 0 3.42857 244.667 -2247.42)">
        <clipPath id="bX">
          <path d="M917 889.99799h12v7h-12z"/>
        </clipPath>
        <g clip-path="url(#bX)">
          <use xlink:href="#dP" width="8" height="24" x="836" y="724.00201" transform="matrix(1.5 0 0 .291667 -337 678.831)"/>
        </g>
      </g>
      <g transform="matrix(.666667 0 0 3.42857 262.667 -2247.42)">
        <clipPath id="bb">
          <path d="M917 889.99799h12v7h-12z"/>
        </clipPath>
        <g clip-path="url(#bb)">
          <use xlink:href="#dR" width="8" height="24" x="854" y="724.00201" transform="matrix(1.5 0 0 .291667 -364 678.831)"/>
        </g>
      </g>
      <g transform="matrix(.5 0 0 1.42857 519.5 -419.428)">
        <clipPath id="bY">
          <path d="M917 889.99799h12v7h-12z"/>
        </clipPath>
        <g clip-path="url(#bY)">
          <use xlink:href="#dT" width="6" height="10" x="958" y="772.00201" transform="matrix(2 0 0 .7 -999 349.597)"/>
        </g>
      </g>
      <g transform="matrix(.916667 0 0 .857143 148.417 102.143)">
        <clipPath id="bc">
          <path d="M917 889.99799h12v7h-12z"/>
        </clipPath>
        <g clip-path="url(#bc)">
          <use xlink:href="#dV" width="11" height="6" x="969" y="785.00201" transform="matrix(1.09091 0 0 1.16667 -140.091 -25.8377)"/>
        </g>
      </g>
      <g transform="matrix(.833333 0 0 .857143 240.833 93.1426)">
        <clipPath id="bZ">
          <path d="M917 889.99799h12v7h-12z"/>
        </clipPath>
        <g clip-path="url(#bZ)">
          <use xlink:href="#dX" width="10" height="6" x="985" y="776.00201" transform="matrix(1.2 0 0 1.16667 -265 -15.3377)"/>
        </g>
      </g>
      <g transform="matrix(1 0 0 2.57143 40 -1416.57)">
        <clipPath id="be">
          <path d="M917 889.99799h12v7h-12z"/>
        </clipPath>
        <g clip-path="url(#be)">
          <use xlink:href="#dZ" width="12" height="18" x="937" y="792.00201" transform="matrix(1 0 0 .388889 -20 581.997)"/>
        </g>
      </g>
      <g transform="matrix(.666667 0 0 .571429 379.667 348.428)">
        <clipPath id="ca">
          <path d="M917 889.99799h12v7h-12z"/>
        </clipPath>
        <g clip-path="url(#ca)">
          <use xlink:href="#eb" width="8" height="4" x="971" y="777.00201" transform="matrix(1.5 0 0 1.75 -539.5 -469.755)"/>
        </g>
      </g>
      <g transform="matrix(.5 0 0 1.14286 556.5 -169.143)">
        <clipPath id="bf">
          <path d="M917 889.99799h12v7h-12z"/>
        </clipPath>
        <g clip-path="url(#bf)">
          <use xlink:href="#ed" width="6" height="8" x="995" y="768.00201" transform="matrix(2 0 0 .875 -1073 217.996)"/>
        </g>
      </g>
      <path d="M817 812v-13.002" style="fill:none;stroke:#000;stroke-width:2.08px" transform="matrix(1 0 0 .922935 -7 76.5768)"/>
      <path d="M817 812v-13.002" style="fill:none;stroke:#000;stroke-width:1.66px" transform="matrix(0 1 -1.3844 0 1980.13 -21)"/>
      <path d="m817.28 812.085-.416-13.018 9.829-4.974" style="fill:none;stroke:#000;stroke-width:1.66px" transform="matrix(-.573755 .819027 -1.13386 -.794308 2217.71 831.667)"/>
      <path d="M817 812v-13.002" style="fill:none;stroke:#000;stroke-width:2.41px" transform="matrix(0 1 -.61529 0 1357.62 29)"/>
      <path d="M816.834 812v-10.835l-3.996-8.668" style="fill:none;stroke:#000;stroke-width:2.08px" transform="matrix(0 1 -.922935 0 1623.42 61.1618)"/>
      <path d="M805 812.18h12v-13.002" style="fill:none;stroke:#000;stroke-width:2.08px" transform="matrix(-1 0 0 -.922935 1671 1615.58)"/>
      <path d="m817 812 .197-12.519" style="fill:none;stroke:#000;stroke-width:2.08px" transform="matrix(-.404318 .914619 -.844133 -.373159 1849.28 390.908)"/>
      <path d="M817 812v-13.002h12" style="fill:none;stroke:#000;stroke-width:2.08px" transform="matrix(1 0 0 .922935 -7 56.5768)"/>
      <path d="M817 810.917v-11.919h12" style="fill:none;stroke:#000;stroke-width:2.08px" transform="matrix(1 0 0 .922935 57 99.5748)"/>
      <path d="M817 812v-13.002h12" style="fill:none;stroke:#000;stroke-width:2.08px" transform="matrix(0 1 -.922935 0 1579.42 -23)"/>
      <path d="M986 811v-16.627l-4.167-4.375h-11.666L966 794.373v12.252l3.333 4.375" style="fill:none;stroke:#000;stroke-width:1.71px" transform="matrix(1.2 0 0 1.14275 -192.2 -112.769)"/>
      <path d="M981 832h8l6-6.002" style="fill:none;stroke:#000;stroke-width:2px" transform="translate(-4)"/>
      <path d="M1012 840h10l5-4.167v-11.668l-5-4.167h-14l-5 4.167v8.335" style="fill:none;stroke:#000;stroke-width:1.81px" transform="matrix(1 0 0 1.19988 0 -166.9)"/>
    </g>
  </g>
</svg>
