<svg xmlns="http://www.w3.org/2000/svg" id="svg1" version="1.1" viewBox="0 0 2776 2246">
  <style id="style2">
    .bunker{fill:#c3e7ec;filter: drop-shadow(0px 0px 30px black);}
  </style>
  <g id="Bunkers" class="bunker">
    <path id="path142" d="M1970 769h220l-.2373 45.0678L2229 814v94h-41v155h24v4h7v-37h84v259h-84v-34h-8v3h-16v5h-19v25h-17v-25h-18v-3h-81v14h-25l-1.6 16.98-4.4 1.02v14h87l1.02 16.69 21.5054-.3002L2139 1341h-21v20h-6v16h-5v14h33v80h-258v-80h37v-16h-3v-15h-4v-18h-53v76h-13v59h-26l-7 29 204.6607 57.4156-13.8147 54.6407L1998 1616l-20.23 82.78 244.17 74.94-9.0756 36.5173-75.7627-22.661L2143 1769l-33.0648-10.2848L2105 1774l-56.1864-15.2373-5.4636 17.2073L1993 1761l3.8943-13.0624-21.3143-6.3676 5.2451-16.9616L1976 1723l-23 74 45 13-8.43 30.43-11.0954-3.091-5.9387 18.0036L1938 1846l-10.971 40.0508L1935.86 1898l4.14 17-1.09 15-5.03 12v13.28l-6.88 2.99-20.91 4.51-9.74-12.57-14.35-9.23-12.2881-.7737L1848 1947l4 17-14.0508 3.9492L1831 1947l-58.7119 17.4746 2.7219 14.8054-41.58 10.68L1725 1956l35.2712-9.0192 7.7288.9492 100.424-32.9704 9.706-17.9496 12.56-12.05L1902 1846l-15.1615-4.1896-3.6512 9.485-39.4373-12.4054 10.56-32.86 29.9275 8.4078-1.9494 5.3249L1907 1827l18-70-168.78-47.82 14.99-47.54 42.2137 11.0719 6.1609-16.6556L1957 1694l22-83-179.7231-49.7279L1810 1525l-18.66-6.48 14.6446-58.251L1821 1460v-32l-2.62-13 .62-57h-10v-17h3v-14h-3v-152h-42v18h-88v-80h88v36h43v-35h-8v-25l8.0343-.01L1810 1022h-16v-29h16v-28h-110v-56h-128v-82h188v82h-35v26h122v58h12v-21h44v21l112.2983.061L2015 908h-139V781l93.7627-.1694zm199 139h-131v85h131zm-296 114h-36v66h5v-52h27v53h-3v63h9v-101.036l28.219-.1787L1903 1049h-30zm190 0h-141v27l-8.0167.036.017 1.964h149zm88 0h-64v41h40v3h14v-3h10zm68 62h-5v3h-19v147h16v4h8zm-78 24h-22v105h-56v6h-24v15h101zm-154 105h-147v114h72v-21h81v-34h14v-53h-20zm100 148h-147v14h-4v16h155l-1-13h-3z"/>
    <path id="p1" d="M800 228h248v468h75v128h-61v-93h33v-4h-51v122h-58v125H860V849h-59V684H685v4h29v82h-54v48h38v19h-56V688h20v-4h-56v-30l194 1z"/>
  </g>
</svg>
