<svg id="Calque_1" data-name="Calque 1" xmlns="http://www.w3.org/2000/svg" viewBox="0 0 837.48 520.82"><defs><style>.cls-1{fill:#00333c;}.cls-10,.cls-13,.cls-2,.cls-3,.cls-9{fill:none;}.cls-2{stroke:#c57c58;stroke-dasharray:6;}.cls-10,.cls-13,.cls-2,.cls-3,.cls-4,.cls-9{stroke-miterlimit:10;}.cls-2,.cls-9{stroke-width:3px;}.cls-3,.cls-4{stroke:#a8abab;stroke-width:8px;}.cls-4{fill:#fff;}.cls-5{fill:#a8abab;}.cls-6{fill:#b0b3b3;}.cls-7{fill:#c3e7ec;}.cls-8{fill:#aaccce;}.cls-9{stroke:#c4e3c3;}.cls-10{stroke:#414042;stroke-linecap:square;stroke-width:11px;}.cls-11{fill:#f1f2f2;}.cls-12{fill:#414042;}.cls-13{stroke:#6d6e71;stroke-width:5px;}.cls-14{fill:#6d6e71;}</style></defs><title>ReserveBasement</title><g id="Floor"><polygon id="ground" class="cls-1" points="751.87 320.17 801.36 304.25 837.48 266.59 837.16 41.49 555.87 41.21 553.76 18.83 339.06 13.76 339.65 0 0 0 5.64 349.73 377.61 351.87 379.25 414.1 450.37 414.83 474.89 496.31 491.91 520.82 602.78 480.26 630.3 442.2 647.63 349.29 697.58 316.9 751.87 320.17"/><g id="rails"><path class="cls-2" d="M663.36,103.08c-15.51,23.77-27.85,33.23-40.51,46.4-23.25,24.18-56.62,40.51-88.27,46.76-44.79,8.84-430.67,6.69-503,1.73" transform="translate(-2.13 -61.77)"/><path class="cls-2" d="M10.09,175.2c181.11,1.63,516.57,8.87,557.84-3.17,24.44-7.13,46.81-13.82,62.8-30.67" transform="translate(-2.13 -61.77)"/></g><g id="roads"><polyline class="cls-3" points="540.6 18.52 542.33 285.7 654.82 286.49 655.92 198.68 541.09 197.19"/><path class="cls-3" d="M756.33,248.81l-25.69,5.76s-22.87-55.58,6.1-80.44" transform="translate(-2.13 -61.77)"/><line class="cls-4" x1="720.67" y1="139.26" x2="541.38" y2="138.65"/><path class="cls-3" d="M578.77,510.89s37.13-28.08,37.14-36.62c.06-23.6-87.06,2.37-87.38-18.92C528.24,436,606,442.57,609,422.5c2.09-14-85.57-7.25-85.57-7.25l-1.16-67.94,22.15.16" transform="translate(-2.13 -61.77)"/><polyline class="cls-3" points="541.74 195.02 43.37 192.63 40.99 84.71 541.02 84.47"/><line class="cls-3" x1="439.37" y1="194.53" x2="440.2" y2="84.51"/><line class="cls-3" x1="214.4" y1="193.45" x2="213.57" y2="84.62"/><line class="cls-3" x1="402.83" y1="284.72" x2="526.41" y2="285.59"/><polygon class="cls-5" points="723.8 104.65 738.02 119.24 739.99 116.26 747.49 120.12 761.89 107.42 738.04 90.67 723.8 104.65"/></g><g id="pavement"><polygon class="cls-6" points="427.7 162.71 223.11 161.86 223.88 146.32 427.49 149.22 427.7 162.71"/><polygon class="cls-6" points="427.41 136.38 225.79 135.68 226.53 120.58 427.21 123.29 427.41 136.38"/><polygon class="cls-6" points="428.12 114.1 222.7 113.52 223.88 94.74 427.87 97.8 428.12 114.1"/></g><g id="buildings"><polygon class="cls-7" points="677.27 290.79 677.54 219 704.04 219.14 702.62 290.97 677.27 290.79"/><polygon class="cls-7" points="646.98 299.6 573.94 299.07 572.41 319.48 644.16 320.04 646.98 299.6"/><polygon class="cls-7" points="679.88 166.11 597.67 165.35 597.53 153.07 566.86 152.95 567.18 185.68 598.29 185.82 598.33 190.34 678.85 190.71 679.88 166.11"/><polygon class="cls-8" points="679.88 166.11 679.33 147.52 597.55 147.22 597.67 165.35 679.88 166.11"/><polygon class="cls-7" points="470.12 160.29 470.06 181.62 525.84 181.89 524.27 159.91 470.12 160.29"/><polygon class="cls-7" points="480.66 212.4 510.82 212.55 511.45 223.21 532.28 223.33 532.45 276.76 454.13 276.22 452.93 230.27 469.31 230.53 469.36 218.68 480.42 218.74 480.66 212.4"/><polygon class="cls-7" points="396.75 202.08 365.67 201.93 365.83 256.87 396.45 257.06 396.75 202.08"/><polygon class="cls-7" points="395.3 268.91 363.56 267.19 363.21 282.23 395.21 283.64 395.3 268.91"/><polygon class="cls-7" points="357.26 331.11 357.33 309.56 325.27 309.32 325.21 331.44 357.26 331.11"/><path class="cls-7" d="M786.08,275.59c.06.32-43.88,6.79-43.88,6.79l-5.53,17.77,2.37,3.61,17.54,15,37.1-7.75s9.06-8.18,9.13-7.86-3.52-16-3.52-16Z" transform="translate(-2.13 -61.77)"/><polygon class="cls-7" points="776.66 167.01 777.65 159.9 769.58 156.49 769.57 139.43 775.16 141.16 774.03 129.81 797.06 129.89 804.58 136.88 806.24 165.32 776.66 167.01"/><polygon class="cls-7" points="782.32 104.8 779.99 94.58 772.15 89.14 749 81.25 750.72 63.03 759.49 53.08 776.39 53.89 801.65 72.58 801.77 94.17 793.56 101.57 782.32 104.8"/><path class="cls-7" d="M718.18,149.87c.14.73.47-27.87.47-27.87l-31.31-.75-8.56,8-.2,20.59,9.47,3.3,24.89.05Z" transform="translate(-2.13 -61.77)"/><polygon class="cls-7" points="558.84 74.21 569.14 75.04 571.68 46.75 559.37 46.73 558.84 74.21"/><polygon class="cls-7" points="533.97 107.94 534.36 95.99 519.34 95.27 518.56 107.9 533.97 107.94"/><polygon class="cls-7" points="532 74.97 532.86 66.77 518.05 66.74 517.72 74.32 532 74.97"/><polygon class="cls-7" points="380.32 162.71 380.55 147.75 320.59 148.7 319.89 162.46 380.32 162.71"/><polygon class="cls-7" points="314.9 149.27 314.94 162.44 257.01 163.2 255.28 149.05 314.9 149.27"/><polygon class="cls-7" points="380.72 135.94 380.02 123.91 318.18 123.72 318.44 135.73 380.72 135.94"/><polygon class="cls-7" points="313.56 135.71 312.06 122.38 253.08 121.25 253.54 135.51 313.56 135.71"/><polygon class="cls-7" points="379.92 112.05 380.13 98.89 319.5 98.74 317.64 111.88 379.92 112.05"/><polygon class="cls-7" points="313.42 111.83 310.29 98.71 255.08 99.47 255.56 111.67 313.42 111.83"/><polygon class="cls-7" points="315.91 67.38 315.4 5.86 225.93 5.85 226.41 67.23 237.77 76.12 298.75 76.23 315.91 67.38"/><polygon class="cls-7" points="207.52 64.76 206.94 5.85 121.73 5.83 120.92 65.97 135.02 76.23 191.11 75.46 207.52 64.76"/><polygon class="cls-7" points="89.33 29.43 88.88 12.19 50.21 12.18 51.33 29.4 89.33 29.43"/><polygon class="cls-7" points="42.04 34.77 22.46 34.75 23.08 70.24 42.88 70.62 42.04 34.77"/><polygon class="cls-7" points="9.99 11.19 15.64 11.19 14.83 3.23 8.93 3.23 9.99 11.19"/><polygon class="cls-7" points="26.2 98.57 25.48 86.97 11.77 86.94 12.38 98.53 26.2 98.57"/><polygon class="cls-7" points="135.9 158.21 134.87 104.9 151.47 104.94 151.66 97.29 60.66 97.09 61.04 104.72 66.88 104.74 66.11 159.88 135.9 158.21"/><polygon class="cls-7" points="512.85 68.07 513.73 55.55 487.94 56.22 486.76 66.69 512.85 68.07"/><polygon class="cls-7" points="480.29 65.71 481.52 55.51 455.45 55.47 455.79 66.64 480.29 65.71"/><polygon class="cls-7" points="288.12 333.66 261.92 333.44 258.4 202.64 289.06 201.54 288.12 333.66"/><path class="cls-7" d="M227.07,381.7s.05-15.57.12-15.45-7.18-5.84-7.18-5.84l-11.73,7.79-7.56.17s-8.58-8.29-9.39-7.6-7.13,3-7.13,3l-1,13.28,12.05,12.74,21.87.18Z" transform="translate(-2.13 -61.77)"/><path class="cls-7" d="M148.39,378l.36-18.14-10.42-6.27-13.77-.1c-.24,0-11.33,4.27-11.33,4.27l-.78,24.66,27.61,2.11Z" transform="translate(-2.13 -61.77)"/><polygon class="cls-7" points="83.67 291.46 83.36 295.92 79.1 302.34 70.13 307.95 62.33 305.22 51.43 291.23 52.4 273.94 59.83 267.74 68.3 272.26 68.16 282.82 72.07 288.87 83.67 291.46"/><path class="cls-7" d="M74.14,311.52s-1-6.95-.58-6.95,6-1.05,6-1.05l-.83-11.17-4.68,0,0-8.08-21.64-.12.91,27.26Z" transform="translate(-2.13 -61.77)"/><polygon class="cls-7" points="205.63 183.47 205.07 170.79 182.47 170.7 182.22 183.97 205.63 183.47"/><polygon class="cls-7" points="573.37 466.83 569.78 458.03 555.58 462.2 559.87 473.33 573.37 466.83"/><polygon class="cls-7" points="566.11 452.29 560.76 439.74 549.49 441.96 554.09 455.42 566.11 452.29"/><polygon class="cls-7" points="541.15 476.42 535.63 459.97 518.82 465.02 525.5 478.35 541.15 476.42"/><polygon class="cls-7" points="519.75 494.3 511.7 475.4 517.25 472.73 507.98 449.12 479.44 456.81 498.7 500.54 519.75 494.3"/><path class="cls-7" d="M429.83,457.31l-.07-8.17,4.29,1.95,1.16-12-5.52-.05-.05-7.14s-21.72-1.07-22-.2-.52,21.57-.09,21.95,4.26,5.55,4.26,5.55Z" transform="translate(-2.13 -61.77)"/><polygon class="cls-7" points="396.61 377.8 396.75 361.33 385.07 360.73 383.54 378.43 396.61 377.8"/><polygon class="cls-7" points="316.14 164.57 316.16 173.19 296.64 173.69 296.05 164.43 316.14 164.57"/></g><g id="fencing"><polyline class="cls-9" points="254.01 333.37 254.18 280.96 236.66 280.83 235.99 260.88"/><polyline class="cls-9" points="235.99 250.78 235.12 208.6 242.78 208.64"/><polyline class="cls-9" points="203.28 203.71 203.09 213.03 110.46 213.44"/><line class="cls-9" x1="93.78" y1="213.35" x2="31.86" y2="214.07"/><line class="cls-9" x1="187.01" y1="206.32" x2="159.91" y2="205.36"/><line class="cls-9" x1="140.83" y1="205.26" x2="63.47" y2="204.86"/><polyline class="cls-9" points="45.09 204.77 9.13 204.59 8.69 154.55"/><line class="cls-9" x1="8.92" y1="142.93" x2="8.45" y2="122.21"/><line class="cls-9" x1="7.96" y1="105.67" x2="6.84" y2="59.02"/><line class="cls-9" x1="6.46" y1="47.81" x2="5.96" y2="1.77"/><line class="cls-9" x1="320.06" y1="180.19" x2="264.72" y2="180.65"/><line class="cls-9" x1="432.12" y1="179.57" x2="330.72" y2="179.12"/><line class="cls-9" x1="256.1" y1="180.61" x2="226.02" y2="180.48"/><polyline class="cls-9" points="533.2 146.16 455.42 145.88 455.97 164.95"/><line class="cls-9" x1="455.58" y1="170.9" x2="456.04" y2="186.91"/><line class="cls-9" x1="374.75" y1="343.07" x2="393.4" y2="343.22"/><polyline class="cls-9" points="405.22 343.32 508.64 344.2 508.93 328.03"/><polyline class="cls-9" points="508.96 313.55 509.76 295.59 414.83 294.89"/></g><g id="citern"><polygon class="cls-5" points="488.16 333.02 478.84 332.94 478.64 327.79 487.93 327.86 488.16 333.02"/><polygon class="cls-5" points="487.17 310.32 487.42 303.08 478.83 303.01 478.74 309.09 487.17 310.32"/><polygon class="cls-5" points="474.64 333.99 474.35 314.22 470.06 314.19 470.07 333.95 474.64 333.99"/><polygon class="cls-5" points="465.51 334.58 465.31 314.8 461.02 314.77 460.94 334.54 465.51 334.58"/><polygon class="cls-5" points="456.77 334.51 456.67 314.73 452.38 314.7 452.2 334.47 456.77 334.51"/><polygon class="cls-5" points="436.86 330.02 436.73 322.44 431.12 322.4 431.22 329.98 436.86 330.02"/><polygon class="cls-5" points="436.59 313.67 436.47 306.22 430.91 306.18 431.01 313.62 436.59 313.67"/><polygon class="cls-5" points="425.34 313.58 425.27 306.14 419.71 306.1 419.76 313.54 425.34 313.58"/><polygon class="cls-5" points="425.52 330.5 425.44 322.92 419.83 322.88 419.88 330.45 425.52 330.5"/></g><g id="random"><polygon class="cls-5" points="428.12 64.39 423.28 64.38 423 37.48 427.75 37.49 428.12 64.39"/><polygon class="cls-5" points="421.19 61.03 416.37 61.02 416.22 37.48 420.97 37.48 421.19 61.03"/><polygon class="cls-5" points="411.3 51.84 406.51 51.84 406.51 38.49 411.26 38.5 411.3 51.84"/><polygon class="cls-5" points="405.81 52.62 401.01 52.61 401.06 38.49 405.81 38.49 405.81 52.62"/><polygon class="cls-5" points="385.6 69.26 380.78 69.87 379.36 48.61 384.12 48.01 385.6 69.26"/><polygon class="cls-5" points="378.31 63.2 373.49 63.6 372.75 42.27 377.5 41.88 378.31 63.2"/><polygon class="cls-5" points="400.96 68.23 396.12 68.22 396.21 53.82 401.01 53.83 400.96 68.23"/><polygon class="cls-5" points="395.44 64.33 390.61 64.33 390.71 53.82 395.51 53.82 395.44 64.33"/><polygon class="cls-5" points="369.55 63.98 364.74 64.44 363.82 39.78 368.56 39.33 369.55 63.98"/><polygon class="cls-5" points="432.36 29.87 430.83 35.29 415.44 28.53 417.02 23.16 432.36 29.87"/><polygon class="cls-5" points="443.48 33.28 437.24 36.3 434.71 28.9 440.92 25.91 443.48 33.28"/><polygon class="cls-5" points="357.71 35.73 353.8 41.4 345.21 32.64 349.13 27.04 357.71 35.73"/></g><g id="heli"><path d="M613.6,299.43c0,8-2.77,21.27-5.51,21.27L608,332c-1.26.07-1.63.14-2.9.2l-.2-11.4c-3.27.14-4.54-14.14-4.61-21s1.87-19.9,5.76-19.88C609.65,279.87,613.59,289.25,613.6,299.43Z" transform="translate(-2.13 -61.77)"/><rect x="602.82" y="330.14" width="7.27" height="2.7" transform="translate(1210.78 601.2) rotate(180)"/><rect x="605.13" y="275.48" width="2.63" height="49.52" transform="translate(904.57 -367.97) rotate(90)"/><rect x="605.13" y="275.48" width="2.63" height="49.52" transform="translate(1245.45 21.96) rotate(135)"/><rect x="605.13" y="275.48" width="2.63" height="49.52" transform="translate(387.8 -402.65) rotate(45)"/></g></g><g id="basement"><g id="basement_outline"><polyline class="cls-10" points="634.67 306.26 634.67 285.18 584.53 285.14 584.53 306.26"/><polyline class="cls-10" points="684.5 278.22 656.07 278.22 656.07 227.47 683.28 227.47"/><polyline class="cls-10" points="656.07 179.17 656.07 227.47 640.17 227.47"/><polyline class="cls-10" points="519.05 184.36 519.05 194.61 546 194.61 546 203.32 656.07 203.32"/><polyline class="cls-10" points="584.53 285.14 546.85 286.09 546 203.32"/><line class="cls-10" x1="656.07" y1="278.22" x2="619.76" y2="278.22"/><line class="cls-10" x1="619.76" y1="285.18" x2="619.76" y2="272.8"/><line class="cls-10" x1="625.5" y1="203.32" x2="625.5" y2="233.59"/><line class="cls-10" x1="525.27" y1="257.66" x2="555.33" y2="260"/><polyline class="cls-10" points="528.85 468.75 582.58 443.18 584.53 340.44 539.46 340.44 539.46 325.81 546.22 325.81 546.85 286.09"/><polyline class="cls-10" points="631 380.52 619.99 380.52 619.99 373.37 590.41 373.37 590.41 380.52 578.26 380.52"/><polyline class="cls-10" points="190.74 178.5 155.74 178.5 155.74 126.28 277.88 128.08 276.65 169.8 302.64 168.65"/><rect class="cls-11" x="676.75" y="220.12" width="23.67" height="67.96"/><path class="cls-12" d="M700.54,283.89v64H680.88v-64h19.66m4-4H676.88v72h27.66v-72Z" transform="translate(-2.13 -61.77)"/><polygon class="cls-11" points="573.36 318.44 573.36 298.86 643.77 298.34 640.66 318.44 573.36 318.44"/><path class="cls-12" d="M643.56,362.12l-2.48,16.09h-63.6v-15.6l66.08-.49m4.68-4-4.71,0-66.08.48-4,0v23.57h71l.53-3.39,2.49-16.08.72-4.65Z" transform="translate(-2.13 -61.77)"/><polygon class="cls-11" points="569.28 182.72 569.28 157.26 597.56 157.72 597.56 150.04 672.9 152.16 672.9 186.44 569.28 182.72"/><path class="cls-12" d="M601.69,213.86l71.34,2v30.26l-99.62-3.58V221.06l28.28.46v-7.66m-4-4.11v7.7l-24.22-.39-4.06-.07v29.42l3.85.14,99.62,3.58,4.15.15V212l-3.89-.11-71.34-2-4.11-.12Z" transform="translate(-2.13 -61.77)"/><polygon class="cls-11" points="544.74 275.88 544.2 222.87 550.75 222.87 552.82 213.68 643.36 214.64 645.93 275.88 544.74 275.88"/><path class="cls-12" d="M556.54,277.47l87,.91L646,335.64H548.85l-.5-49h6.13l2.06-9.17m-3.19-4-.71,3.16-1.36,6.05h-7l0,4,.5,49,0,3.95H650.14l-.18-4.16-2.4-57.26-.16-3.8-3.79,0-87-.91-3.23,0Z" transform="translate(-2.13 -61.77)"/><rect class="cls-11" x="544" y="337.83" width="42.52" height="21.12"/><path class="cls-12" d="M586.66,401.59v17.13H548.13V401.59h38.53m4-4H544.13v25.13h46.53V397.59Z" transform="translate(-2.13 -61.77)"/><rect class="cls-11" x="542.09" y="371.37" width="43.81" height="18.3"/><path class="cls-12" d="M586,435.14v14.3H546.22v-14.3H586m4-4H542.22v22.3H590v-22.3Z" transform="translate(-2.13 -61.77)"/><path class="cls-11" d="M582.53,517.25a15.73,15.73,0,1,1,15.73-15.73A15.74,15.74,0,0,1,582.53,517.25Z" transform="translate(-2.13 -61.77)"/><path class="cls-12" d="M582.53,487.8a13.73,13.73,0,1,1-13.72,13.72,13.72,13.72,0,0,1,13.72-13.72m0-4a17.73,17.73,0,1,0,17.73,17.72,17.74,17.74,0,0,0-17.73-17.72Z" transform="translate(-2.13 -61.77)"/><rect class="cls-11" x="581.69" y="394.13" width="17.43" height="14.35"/><path class="cls-12" d="M599.25,457.89v10.35H585.82V457.89h13.43m4-4H581.82v18.35h21.43V453.89Z" transform="translate(-2.13 -61.77)"/><rect class="cls-11" x="566.64" y="405.72" width="17.43" height="11.47"/><path class="cls-12" d="M584.2,469.49V477H570.77v-7.47H584.2m4-4H566.77V481H588.2V465.49Z" transform="translate(-2.13 -61.77)"/><rect class="cls-11" x="190.79" y="124.27" width="42.31" height="39.22"/><path class="cls-12" d="M233.23,188v35.22H194.92V188h38.31m4-4H190.92v43.22h46.31V184Z" transform="translate(-2.13 -61.77)"/><rect class="cls-11" x="170.33" y="18.4" width="84.71" height="126.12"/><path class="cls-12" d="M255.17,82.16V204.29H174.46V82.16h80.71m4-4H170.46V208.29h88.71V78.16Z" transform="translate(-2.13 -61.77)"/><rect class="cls-11" x="141.97" y="18.4" width="137.91" height="26.18"/><path class="cls-12" d="M280,82.16v22.19H146.1V82.16H280m4-4H142.1v30.19H284V78.16Z" transform="translate(-2.13 -61.77)"/></g><g id="basement-2" data-name="basement"><polyline class="cls-13" points="634.67 306.26 634.67 285.18 584.53 285.14 584.53 306.26"/><polyline class="cls-13" points="684.5 278.22 656.07 278.22 656.07 227.47 683.28 227.47"/><polyline class="cls-13" points="656.07 179.17 656.07 227.47 640.17 227.47"/><polyline class="cls-13" points="519.05 184.36 519.05 194.61 546 194.61 546 203.32 656.07 203.32"/><polyline class="cls-13" points="584.53 285.14 546.85 286.09 546 203.32"/><line class="cls-13" x1="656.07" y1="278.22" x2="619.76" y2="278.22"/><line class="cls-13" x1="619.76" y1="285.18" x2="619.76" y2="272.8"/><line class="cls-13" x1="625.5" y1="203.32" x2="625.5" y2="233.59"/><line class="cls-13" x1="525.27" y1="257.66" x2="555.33" y2="260"/><polyline class="cls-13" points="528.85 468.75 582.58 443.18 584.53 340.44 539.46 340.44 539.46 325.81 546.22 325.81 546.85 286.09"/><polyline class="cls-13" points="631 380.52 619.99 380.52 619.99 373.37 590.41 373.37 590.41 380.52 578.26 380.52"/><polyline class="cls-13" points="190.74 178.5 155.74 178.5 155.74 126.28 277.88 128.08 276.65 169.8 302.64 168.65"/><rect class="cls-14" x="678.75" y="222.12" width="19.66" height="63.96"/><polygon class="cls-14" points="638.95 316.44 641.44 300.36 575.36 300.85 575.36 316.44 638.95 316.44"/><polygon class="cls-14" points="670.9 184.36 670.9 154.11 599.56 152.1 599.56 159.75 571.28 159.29 571.28 180.79 670.9 184.36"/><polygon class="cls-14" points="643.84 273.88 546.72 273.88 546.22 224.87 552.35 224.87 554.41 215.7 641.44 216.62 643.84 273.88"/><rect class="cls-14" x="548.13" y="401.59" width="38.52" height="17.12" transform="translate(1132.66 758.54) rotate(180)"/><rect class="cls-14" x="546.22" y="435.14" width="39.81" height="14.3" transform="translate(1130.13 822.82) rotate(180)"/><circle class="cls-14" cx="580.41" cy="439.76" r="13.73"/><rect class="cls-14" x="585.82" y="457.89" width="13.43" height="10.35" transform="translate(1182.95 864.37) rotate(180)"/><rect class="cls-14" x="570.77" y="469.49" width="13.43" height="7.47" transform="translate(1152.84 884.68) rotate(180)"/><rect class="cls-14" x="194.92" y="188.04" width="38.31" height="35.22" transform="translate(426.02 349.54) rotate(180)"/><rect class="cls-14" x="174.46" y="82.16" width="80.71" height="122.12" transform="translate(427.5 224.69) rotate(180)"/><rect class="cls-14" x="146.1" y="82.16" width="133.91" height="22.18" transform="translate(423.97 124.75) rotate(180)"/></g></g></svg>