<svg xmlns="http://www.w3.org/2000/svg" id="svg1" version="1.1" viewBox="0 0 2776 2246">
  <style id="style_common">
    .cement { fill:#c6c2c2 }
    .land { fill:#0c343c }
    .rock { fill:#ffffcd }
    .water { fill:#0056ab }
    .wood { fill:#593700 }
    .tarmac { fill:#888 }
    .gravel { fill:#946d3e }
    .building { fill:#88d1fd }
    .map_border { fill:none;stroke:#000;stroke-width:8 }
    .fence { fill:none;stroke:#c4e3c3;stroke-width:4 }
    .road_tarmac { fill:none;stroke:#888;stroke-width:16 }
    .road_gravel { fill:none;stroke:#946d3e;stroke-width:12 }
    .road_rail { fill:none;stroke:#914833;stroke-dasharray:15;stroke-width:7 }
    .danger { fill:red;fill-opacity:.4;stroke:red;stroke-dasharray:8,4;stroke-width:4 }
  </style>
  <style id="style_reserve">
    .misc{fill:gray}
    .chopper{fill:#000}
    .bunker{fill:#c3e7ec;filter: drop-shadow(0px 0px 30px black);}
  </style>
  <g id="Bunkers" class="bunker">
    <path d="M1970 769h220l-.2373 45.0678L2229 814v94h-41v155h24v4h7v-37h84v259h-84v-34h-8v3h-16v5h-19v25h-17v-25h-18v-3h-81v14h-25l-1.6 16.98-4.4 1.02v14h87l1.02 16.69 21.5054-.3002L2139 1341h-21v20h-6v16h-5v14h33v80h-258v-80h37v-16h-3v-15h-4v-18h-53v76h-13v59h-26l-7 29 204.6607 57.4156-13.8147 54.6407L1998 1616l-20.23 82.78 244.17 74.94-9.0756 36.5173-75.7627-22.661L2143 1769l-33.0648-10.2848L2105 1774l-56.1864-15.2373-5.4636 17.2073L1993 1761l3.8943-13.0624-21.3143-6.3676 5.2451-16.9616L1976 1723l-23 74 45 13-8.43 30.43-11.0954-3.091-5.9387 18.0036L1938 1846l-10.971 40.0508L1935.86 1898l4.14 17-1.09 15-5.03 12v13.28l-6.88 2.99-20.91 4.51-9.74-12.57-14.35-9.23-12.2881-.7737L1848 1947l4 17-14.0508 3.9492L1831 1947l-58.7119 17.4746 2.7219 14.8054-41.58 10.68L1725 1956l35.2712-9.0192 7.7288.9492 100.424-32.9704 9.706-17.9496 12.56-12.05L1902 1846l-15.1615-4.1896-3.6512 9.485-39.4373-12.4054 10.56-32.86 29.9275 8.4078-1.9494 5.3249L1907 1827l18-70-168.78-47.82 14.99-47.54 42.2137 11.0719 6.1609-16.6556L1957 1694l22-83-179.7231-49.7279L1810 1525l-18.66-6.48 14.6446-58.251L1821 1460v-32l-2.62-13 .62-57h-10v-17h3v-14h-3v-152h-42v18h-88v-80h88v36h43v-35h-8v-25l8.0343-.01L1810 1022h-16v-29h16v-28h-110v-56h-128v-82h188v82h-35v26h122v58h12v-21h44v21l112.2983.061L2015 908h-139V781l93.7627-.1694zm199 139h-131v85h131zm-296 114h-36v66h5v-52h27v53h-3v63h9v-101.036l28.219-.1787L1903 1049h-30zm190 0h-141v27l-8.0167.036.017 1.964h149zm88 0h-64v41h40v3h14v-3h10zm68 62h-5v3h-19v147h16v4h8zm-78 24h-22v105h-56v6h-24v15h101zm-154 105h-147v114h72v-21h81v-34h14v-53h-20zm100 148h-147v14h-4v16h155l-1-13h-3z"/>
    <path d="M800 228h248v468h75v128h-61v-93h33v-4h-51v122h-58v125H860V849h-59V684H685v4h29v82h-54v48h38v19h-56V688h20v-4h-56v-30l194 1z"/>
  </g>
  <g id="Ground_Level">
    <g id="Terrains" class="land">
      <path d="M25 29h1132v117h633v61c16.88.05 21.97 2.22 32.83 15 8.83 10.39 17.17 19 17.17 19h12l149 13.09 137 7.91h61l64-6h481.3313l.7625 732 7.9062 22.375 3.4075 126.1438L2769.01 1160c3.98 6.8 6.87 8.82 6.99 17v18c0 2.09.11 5.07-.6 7-1.81 4.91-15.76 15.56-20.4 19.41-20.84 17.35-38.33 31.3-54.29 53.59l-21.25 26-14.46 19-14.58 17c-20.43 24.93-32.83 43.29-57.42 65.91l-23 15.98-21 17.67-22 16.86-57 52.32-44 32.73-45.89 38.96c-5.04 4.83-6.73 12.92-8.11 19.57l-7.42 32c-7.59 25.97-17.54 49.38-30.72 73-4.45 7.98-8.24 15.63-13.75 23-13.15 17.56-26.76 28-45.11 39.42-6.91 4.31-12.41 7.91-20 11.15-12.46 5.33-26.34 6.13-38 12.89-8.62 5-23.81 20.73-30.83 28.54-10.13 11.27-21.05 24.91-26.72 39l-11.17 42-10.4 28c-4.91 16.04-2.98 24.37-12.19 41-6.79 12.26-18.29 18.49-29.69 25.68-14.36 9.05-29.11 18.96-40.83 31.36-20.49 21.66-40.22 44.36-58.51 67.96-9.69 12.51-16.33 27.4-27.95 38.56-7.39 7.1-17.42 11.48-25.71 17.6l-24 20.32-53 27.77-8.83 4.71c-9.21 6.52-23.86 21.69-32.17 30.04-6.32 6.35-10.48 14.82-20 15h-204c-2.14 0-4.96.09-7-.51-4.28-1.26-14.15-9.41-18-12.49-15.09-12.07-33.92-29.4-46.42-44-11.84-13.82-17.22-22.58-27.3-37l-28.76-40-39.24-49-19.32-22-20.96-20.09-21-19.47c-6.86-5.79-15.42-12.69-23-17.38l-22-12.58c-13.6-9.12-26.86-20.12-42-26.61l-40-10.74-14.59-3.61c-2.35-1.36-4.9-7.9-6.1-10.52-4.86-10.61-10.9109-18.4839-10.9109-18.4839l-.3005-290.929L907 1610l-52.8087 8.7022L24 1620Z"/>
    </g>
    <g id="Dirty_roads" class="gravel">
      <path d="M694 973c25.9332.005 51.8665-.0204 77.7997.0403-10.9628 5.9263-14.9821 19.9473-11.762 31.4896 2.5493 20.3749 4.6014 40.8208 6.8054 61.2273-.5305 12.0985-3.7151 23.9042-5.367 35.8829-1.9309 12.5955-5.2579 25.111-4.455 37.9444-.0734 16.0736-.5703 32.2165 2.022 48.1429 1.0735 9.1833 2.531 18.3895 1.1271 27.6194.43 9.9084-6.8844 19.132-2.4028 28.9184 3.5984 11.1231 3.0149 23.4057-1.208 34.2819-.6988 10.0544 6.7173 18.1141 8.9778 27.3352 1.2127 9.888-3.9792 18.4872-9.3331 26.1474-2.8664 10.0863-1.4745 20.8024-2.483 31.1554-1.3046 10.5971 9.5913 14.1355 17.1914 17.6248 6.0854 4.4422 8.0943 15.8477 3.2525 21.7054-9.1844-1.3161-13.0605 9.155-18.3762 15.124-4.0956 6.9849-11.2143 12.6483-19.7297 10.4334-15.7971.1648-31.6284 1.0987-47.406.6735-5.5606-1.4523-15.515-11.9298-10.5366-15.8975 9.5804-2.2747 10.341-15.2184 7.328-22.8403-3.8565-7.9118-16.2065-10.7156-14.558-21.2221.7941-12.9202 16.5589-15.6871 21.2227-26.3715 4.9885-10.3205-12.423-16.7841-17.1261-7.2426-1.1413 5.2147-4.2265 20.4314-11.4634 12.6053-1.3348-9.0219-10.0117-13.2255-16.8362-17.7211-4.4884-5.1202-11.4787-5.0671-17.5085-3.2227-10.3 1.9214-21.6186 8.9653-21.9966 20.5304-.5737 10.0776 1.3587 20.1005 1.152 30.1914.5816 18.6298 1.9645 37.2438 2.7765 55.847-1.3145 9.4291-6.443 17.7793-9.6135 26.6556-3.7583 8.5451-6.7835 17.423-10.047 26.1256-7.339 12.9259-15.7744 26.2181-28.6558 34.2183-9.0735 4.3406-18.8662-.207-28.0381-1.4544-11.0582.3646-21.5575 4.52-32.514 5.8348-9.7424.6758-18.4519 5.0499-27.7852 7.0585-7.8065.8992-17.177-1.6525-19.4297-10.1774-3.9776-7.7463-8.695-15.2498-10.5358-23.8913-3.5718-7.6103-12.0283-11.0927-19.0953-14.7722-7.8306-3.7021-16.68-4.1859-25.1079-2.7373-9.2572 1.713-15.3809-6.3827-13.2287-14.9261-.1518-23.3093-12.8599-44.0992-25.3007-62.9479-7.2448-9.3618-9.5423-21.2828-14.6966-31.7242-4.9172-9.3456-16.0334-7.3076-23.6383-9.7245-10.2354 3.3227-4.4667 16.2006-12.061 21.8484-5.6099 6.0643-16.913 6.4089-22.5087.1051-6.4492-8.587-11.2364-18.3599-17.136-27.3526-5.127-8.8155-11.043-17.2467-15.5267-26.3919-.8893-7.7881 2.566-18.0983 7.7153-23.1223 3.78 5.3835 7.4443 17.4316 16.3935 11.3549 6.2265-6.2283 9.546-15.5004 19.244-17.742 10.9448-4.1283 23.144-6.3884 31.7042-15.0502 7.3805-5.5951 14.6532-15.6186 9.1387-24.9156-5.6853-9.1008-2.8513-21.354-10.2143-29.6014-5.3917-7.6246-4.4436-19.4764-13.766-24.1125-9.6196-5.7245-21.305-7.3789-30.0029-14.7852-7.6456-5.0003-13.7216-12.0199-20.4152-18.0285-6.6159-3.0602-11.7192-9.5712-19.6044-9.1872-9.925.051-20.8107-1.391-29.3026 4.9617-8.276 5.0927-16.3574 10.9236-25.5725 14.1702-7.3194 1.4187-14.345-2.4347-21.4775-3.6382-6.715-1.0658-13.4476-4.8042-20.265-3.0442-8.503 2.5962-19.4648 5.4016-26.557-1.7724-6.9547-8.7794-12.1338-19.7486-11.2807-31.2147.1916-7.9876 2.2544-16.486 8.862-21.642 6.3226-5.3213 13.4516-9.6079 19.6253-15.1155 9.3488-6.0458 20.8726-6.6775 31.5559-8.446 11.7833.4202 23.4624 2.544 35.1956 3.7589 9.6213 1.0657 19.4521 3.2003 28.9378.061 14.1316-3.559 30.0025-8.6458 43.7665-1.0369 9.092 4.7325 17.4654 10.7762 26.869 14.9136 7.8107 4.9066 16.2097 9.9058 20.775 18.229 5.6226 7.68 12.8786 14.0301 19.7466 20.5749 7.7408 6.4566 16.4701 11.8867 23.5831 19.01 7.5624 10.5719 10.5833 24.5411 21.031 32.8871 9.2331 5.8006 20.5611 4.1701 30.911 4.3711 11.332-1.6324 17.4475-13.6168 28.6758-15.5349 9.62-3.021 19.9755-4.3842 28.457-10.2081 7.859-4.1173 15.2635-9.3676 23.5385-12.5293 16.2378-4.1634 32.706-7.873 47.866-15.2721 12.721-4.6471 16.2917-19.9032 27.8905-26.1217 7.6832-7.196 18.3186-2.2517 27.2185-1.6867 13.3503-1.2716 25.911-6.4309 38.6996-10.1465 12.35-3.4476 21.2844-13.0162 31.2661-20.448 7.7155-6.5225 16.2152-12.3345 22.9588-19.8819 5.194-9.0191 6.2437-19.7969 8.3397-29.8394 1.2648-15.0622-1.2681-30.1059-2.2231-45.1133-.8804-10.8207-2.6338-22.583-10.8768-30.4595-.1982-.2481-.3967-.4971-.5949-.7452Zm3 196.29c-9.1958.4239-20.1606 1.2989-24.4646 10.9381-6.4883 8.4447-17.3758 5.0329-26.1956 3.9408-9.805-2.6901-19.1245 3.3107-22.9107 12.2755-3.1324 10.0804 8.7343 17.1217 13.9813 24.3493 8.2384 6.2883 19.1445 8.1906 29.1644 10.022 10.1374-.012 18.9407-6.1238 28.372-9.1166 8.9065-3.6859 16.9793-11.7435 16.7548-21.9714 1.1884-9.5746 2.6882-21.737-5.8336-28.5083-2.6074-1.6827-5.82-2.1586-8.868-1.9294zm-109 49.99c-18.9997 1.367-38.1186 1.6482-57.0393 3.759-14.3986 3.1212-28.182 8.6189-41.8654 13.9326-9.9528 5.2358-16.6987 14.6785-22.487 24.0171-1.82 9.5199 8.903 15.5794 15.9158 19.5466 7.776 3.8308 16.7869 7.1 25.345 3.8954 10.2846-2.7204 21.7911-4.2164 31.4795 1.3274 10.7433 5.0932 19.9523 14.5608 32.2275 15.6615 16.3487-1.0162 26.3863-15.5565 39.093-23.8445 7.318-4.9658 15.619-8.5329 22.4552-14.1509 6.5007-7.7629 3.1709-18.684 1.6014-27.5865-4.039-8.3152-14.0956-10.5125-22.0437-13.5681-7.9716-2.3899-16.3572-3.6439-24.682-2.9896zm-173 106.04c-11.5168 3.415-23.0148 7.888-32.432 15.5331-5.0417 7.0418-6.8219 15.8307-9.0545 24.0266-2.8826 21.3018 6.706 41.7962 17.073 59.7699 3.8788 7.3335 10.7806 13.1377 19.3206 12.9998 9.8536 2.5609 8.8283 15.5435 17.1982 19.3171 9.6734 2.4459 13.8558-9.4149 22.845-10.0426 8.8817-1.311 17.2776-5.3847 23.0346-12.4217 5.9611-6.4206 10.7312-14.8239 10.9187-23.773 3.6817-10.38 17.6477-12.1774 20.713-23.0754 2.7924-8.9613 5.3928-18.207 6.3121-27.553.034-13.7231-10.8223-26.1357-24.316-28.3148-13.435-2.6707-27.1279-3.8541-40.7028-5.6361-10.2562-1.0845-20.6129-1.7412-30.9099-.8299Zm176 27.59c-8.4777 4.8096-12.379 14.3755-18.8456 21.2807-4.7689 8.1148-16.0656 14.8472-14.462 25.2077 3.0902 7.7268 11.336 11.2414 17.2588 16.4746 6.4778 2.7553 11.4359 12.6567 19.2869 9.3242 3.0653-8.4258 1.5362-18.6135-2.3213-26.7737-.009-6.7425 15.4955-8.9819 9.5437-18.5997-1.5294-8.5312.7162-19.2673-6.7768-25.4825-1.1085-.7316-2.3772-1.2073-3.6837-1.4313zM572 1422c-8.1685.5317-18.9231-1.3034-24.0335 6.8034-2.1253 8.9773 5.2415 17.2813 10.1406 23.9895 8.3529 4.7576 18.0092-2.3227 22.0454-9.647-.098-7.121-.9458-16.5394-8.2136-18.9029l.0869-1.1998zm7.02 34.53c-12.0579 3.6506 4.5575 18.4715 9.0383 7.9233 1.6163-4.8748-4.9916-8.3568-9.0383-7.9233zm-27.02 6c-8.0236 1.6882-18.3472 4.3197-20.9726 13.2117-1.0944 8.3918 5.0556 17.9635 13.4695 19.8337 8.705-1.3553 15.9807-8.0286 22.773-13.4316 6.585-7.712-3.5053-17.1538-10.5376-19.861-1.5714-.2763-3.1916-.1327-4.7323.2472z"/>
      <path d="M2299.8524 680.5905c8.8026-7.692 18.8892-15.0254 23.3627-26.263 4.1439-9.9467 7.6587-20.639 7.5793-31.4942-2.0655-15.2256-4.5116-30.43-6.3392-45.6688 1.0582-5.709.292-11.4262-1.7346-16.8032-2.0068-7.4719-5.4902-14.7643-4.7594-22.6938-1.335-10.2313-5.2231-20.056-9.6142-29.3385-6.3801-9.6998-11.6852-20.5888-12.1878-32.396-1.0904-11.67 2.5294-23.1221 1.8408-34.7892-.1859-9.0972-.1876-19.124 6.4375-26.215 7.1258-7.602 16.57-12.5997 25.7775-17.2373 10.7113-4.9612 21.358 3.521 32.2383 3.1575 7.858-1.3128 14.8204 3.444 16.8067 11.151 3.1658 5.8559 5.7528 12.1168 5.6285 18.8986 1.4289 15.1753 2.0203 30.581-.3342 45.6864-1.3716 10.6166-9.5855 18.5749-11.5193 29.0226-2.3441 9.9932-6.4278 20.3583-3.4185 30.6802 2.4991 9.7216 5.6339 19.9076 12.4835 27.5022 7.4362 5.1557 16.728 7.3342 25.6509 8.0657 11.8516-.4944 18.8421-11.944 29.5985-15.3627 7.0768-3.0833 14.3827-5.7528 21.3137-9.0993 8.8344-8.2401 13.6143-19.7917 18.558-30.5905 2.2521-6.1429 3.7787-12.7493 8.3807-17.6974 6.386-8.5255 17.1261-13.797 20.1702-24.6756 3.7053-10.1695 5.4304-20.899 5.7255-31.684.5217-7.3818 6.8286-12.7495 13.9883-13.2665 7.8696-1.1504 15.4713-4.6754 23.5142-4.1597 6.8806 2.7145 12.0802 8.3459 18.1243 12.4988 7.864 6.3177 16.5279 11.6807 23.7745 18.7175 3.4203 4.6111 1.6671 10.7352 2.1012 16.1055-.2615 6.011.6483 12.1843-.74 18.0582-5.5449 3.0369-13.8432 3.0523-17.5238 10.08-6.2224 7.8829-15.2314 14.7958-25.8111 14.1133-10.9856-.1194-20.2318 8.0096-26.0354 16.656-7.0393 10.7593-12.4354 22.5135-20.12 32.8538-4.5268 6.2592-6.7813 13.8006-10.5391 20.5157-6.3097 11.8745-11.0077 24.8373-20.3194 34.8358-7.6543 8.4607-11.272 19.8948-12.6315 31.009.7305 7.3486 5.7845 14.4555 2.8008 21.995-3.595 4.8954-5.6501 13.3316 2.3293 15.1287 8.1922 2.3784 17.1094 2.8247 25.5027 1.3352 15.7567-4.2004 26.1958-20.2741 43.1641-21.1863 1.2556 7.4015-11.967 11.2157-17.8035 15.5773-10.3709 7.1061-18.4784 19.5904-15.8311 32.5763 1.8742 9.8255 6.9746 18.6455 10.893 27.7414 4.361 7.4882 13.0269 12.6217 21.665 12.8088 6.9636-1.6078 11.6985-8.1166 18.8791-9.4114 8.7001-2.7835 17.5982-5.0733 26.173-8.1695 9.1403-4.7765 18.575-9.0284 27.5116-14.1684 5.0711-3.4093 10.154-7.3314 16.4377-7.9014 11.5111-2.5407 23.2543-4.1901 34.3922-8.1834 5.5585-1.9676 15.854-1.6475 15.0226 6.5428-.9504 8.0784-2.7365 16.0768-2.5732 24.2624-.1206 10.0183-1.1521 20.0574-.5368 30.0599 1.0476 9.4164 7.8338 18.0476 4.9667 27.8367-1.9573 7.7697-4.731 16.8617-12.3827 20.7341-7.5233 2.426-15.2849 4.0666-22.7642 6.6828-6.6795 2.048-13.4211 3.9352-19.6124 7.2495-7.3625 3.3172-14.4982 7.2266-22.399 9.1379-8.4336 2.412-16.7273 5.2205-24.784 8.7-8.0358 3.08-15.8249 6.9159-24.3228 8.5804-7.1739 2.0314-14.6035 3.2956-21.5824 5.913-10.3236 5.2409-19.636 12.2534-29.1784 18.7554-9.3957 6.2512-10.0882 18.727-8.6255 28.8518 1.1092 10.063 2.7208 20.3697 8.3872 29.015 3.7403 6.1796 9.8432 10.7738 12.1706 17.8492 3.5922 7.7967 4.1125 16.4374 3.8771 24.8865-.2523 10.5483 9.4181 16.8475 15.6905 23.8776 9.4829 9.3418 18.2456 19.523 24.5566 31.3049 4.5782 5.2655 2.9523 12.2722.035 17.8802-1.7962 7.4055-6.7958 12.9555-14.6771 13.5694-17.1265 4.6668-34.1651 9.6794-51.2842 14.3472-7.7844 1.9322-13.8006-5.6142-17.9311-11.1304 3.3448-2.082 12.3994-5.5316 13.0016-12.4622.8415-8.3804-6.7865-14.859-6.1756-23.2702-.6628-10.7675-1.6427-21.5241-1.159-32.3222 1.3162-8.1461-3.874-14.4714-10.1092-18.8828-5.8834-4.4294-8.0265-11.4685-9.082-18.3862-2.8615-7.6484-7.4075-14.5593-11.0252-21.876-5.5401-11.089-7.1523-23.6721-7.1905-35.9382-.5583-7.5654-1.5855-15.5068-6.3626-21.6684-13.701-21.697-26.455-44.7286-46.3091-61.511-8.3451-5.8317-16.6898-11.6634-25.0345-17.495 10.4604-2.0467 20.6725-5.5486 29.5662-11.5416 13.3616-8.774 26.6679-20.436 30.9038-36.4584 1.8737-14.2713-1.8015-28.6576-6.1824-42.1552-3.8687-11.6619-12.8133-21.232-24.1357-25.9814-20.7763-9.5465-44.0872-9.9385-66.4649-11.954l-21.8346-1.319zM2382 620.37c-7.9681.5059-10.2089 9.3431-6.8298 15.4636 2.8243 7.3282 5.779 14.7162 6.2387 22.6487-.1346 9.2909 11.5714 9.468 14.3011 1.5177 5.5021-7.796 12.6998-15.1543 14.7906-24.7345-.067-6.996-8.041-9.9424-13.5182-12.0993-4.8196-1.6075-9.872-2.846-14.9824-2.7962zm79.16 82.8c-5.1266 3.6499.158 9.8171 1.3222 14.3084 2.1519 6.2184 4.2055 12.566 8.6045 17.6456 5.1715 7.202 11.8415 15.0893 21.5042 15.1085 5.0291-.9385 2.3211-6.6298.6888-9.5113-3.0622-5.591-4.4215-11.9188-7.1141-17.6452-5.0357-6.9596-12.6151-11.46-18.9313-17.14-1.8202-1.2966-3.8545-2.3711-6.0743-2.766zM2435 778.43c-8.6703 2.5462-7.6887 12.8745-5.1332 19.546 2.8754 8.693 8.452 19.2171 18.704 19.9741 8.2667.048 13.7384-7.7609 17.2571-14.3126 4.1008-6.2341 1.1157-14.2393-5.7147-16.9451-7.549-4.5274-15.9584-9.3704-25.1132-8.2624zm177 17.71c-10.8878 2.3106-21.6151 5.5249-32.7407 6.4976-11.0732 1.5711-22.1979 2.663-33.3293 3.6711-11.2265 1.2233-20.4808 8.7242-26.8678 17.643-4.9803 6.8374-13.7079 12.4839-13.0942 21.9831.2228 9.3888 11.1537 11.1827 18.5117 9.9357 9.5185-.8645 16.997-7.8214 26.3034-9.5679 7.7445-2.3372 15.8185-3.7705 23.0111-7.6214 11.0592-5.198 22.6698-9.1792 33.335-15.2032 7.1605-3.8374 14.4289-7.4377 22.0881-10.1796 6.4598-2.978 14.0106-4.3708 19.1627-9.5084 4.5854-6.6681-5.9554-8.2702-10.5584-7.65H2612z"/>
    </g>
    <g id="Roads" class="tarmac">
      <path d="M1792 0h45v230l-1 15v153c.02 10.76 4.67 37.2 8.87 47 2.02 4.7 5.28 11.57 10.13 13.79 3.35 1.53 7.64-.23 11-1.21l24-7.91c34.61-11.53 28.92-8.38 63-25.42 11.63-5.82 27.05-14.85 35.91-24.26 5.1-5.42 12.96-19.81 15.34-26.99l6.05-19.94c2.66-4.75 10.67-5.29 13.87-.76 2.82 3.98-1.97 16.35-3.59 20.7l-6.39 16c-5.52 10.98-17.31 26.06-27.19 33.22l-17 10.06c-15.76 8.96-40.91 20.42-58 26.67l-38 13.1c-10.2 3.73-28.48 8.07-33.72 17.95-2.26 4.25-2.27 8.35-2.28 13v73l1 15v76c.06 4.57.34 8.4 4.13 11.57 3.29 2.75 6.88 2.42 10.87 2.43h168l15-1h257l14 1h4l21 1.91c20.44 1.43 53.7 4.21 68.91 19.19 12.79 12.6 17.3 37.5 17.09 54.9-.13 10.79-6.7 20.49-14.01 28-2.73 2.8-6.99 7.16-9.99 9.47-3.36 2.59-6.37 3.87-10 5.84-10.48 5.68-18.72 9.54-31 9.69h-4l-15 1h-9l-15 1.04h-13l-12 .96-36 1-17 .99-13-.99h-30.1687v-31c0-1.94-.25-5.72.99-7.26 1.71-2.12 6.51-1.74 9.01-1.74H2281l15-1h37l21-1c11.82-.14 22.92-2.28 26.57-15 .86-3 1.5-5.85 1.24-9-.55-6.66-4.46-16.29-9.85-20.36-13.01-9.83-42.93-7.66-58.96-7.64l-17 1h-195l-15 1h-185l-17 1h-33c-9.66.07-10.98 2.93-11 12v45l-1 15v102c0 8.56-2.46 30.11 5.11 35.15 3.13 2.08 7.29 1.84 10.89 1.85h267c7.05.01 28.92 2.74 35 5.36 22.41 9.64 33.96 31.92 34 55.64v316c-.04 23.13-16.25 43.62-38 50.9-3.34 1.12-17.02 2.09-21 2.1h-50l-17 1h-221l-17 1h-68c-4 .05-16.85.6-19.26 3.43-2.05 2.41-1.74 6.58-1.74 9.57v210c.01 4.7.41 17.43 3.43 20.72 3.95 4.31 11.17 2.99 16.57 3.7l25 1.75 21 2.83 164 24.92c12.87 2.17 25.42 6.95 37 12.84 6.42 3.26 13.34 7.97 15.61 15.24 2.28 7.31 1.47 19.2-4.82 24.35-2.61 2.14-8.42 3.59-11.79 4.63l-26 6.57-52 8.86-36 6.29-10 .89-23 3.87-13 2.93-9 .98-36 6.71-44 9.68c-5.76 2.08-9.58 6.92-8.77 13.24.84 6.61 5.61 9.75 11.77 10.85 9.03 1.24 21.45.26 31 0l15-.85h208c16.48.03 34.19 10.05 41.62 25 1.8 3.61 2.83 8.06 3.73 12 .99 4.32 1.86 8.54 1.61 13-.39 6.75-4.43 9.62-9.96 12.69l-30 13.59-43 12.6-65 18.78-32 10.56c-13.02 7.64-25.83 31.44-24.68 46.78l3.1 26c.42 3.02 1.82 10.36.52 12.89-1.67 3.28-5.7 4.31-8.94 5.25l-21 5.73c-3.36.8-7.57 2.04-10.07-1.18l-7.45-25.69-20.48-72 28-8.26 62-18.4 55-17.92 51-18.09c6.08-2.03 18.77-5.5 22.57-10.38 4.5-5.79-.21-10.71-5.57-13.39-6.26-3.15-12.27-2.55-19-2.56l-15-1h-210c-16.36 0-35.03 1.06-51-1.42-3.81-.6-13.87-1.43-16.27-4.09-1.67-1.86-2.31-6.04-2.69-8.49v-10l-1.04-11-.84-15c.85-6.49 8.54-9.7 13.84-12l13-6.13c5.94-2.5 17.31-4.6 24-6.24l81-15.88 49-8.48 37-4.69 50-6.3c4.38-.58 14.9-2.39 12.6-9.26-1.85-5.55-8.88-5.73-13.6-6.1l-17-1.83-21-1.26-68-4.92-14-1.2c-5.62-.69-7.79-1.63-14-1.71l-26-1.83-19-1.34-22-1.83h-53l-17 1h-42l-15 1h-209l-15-1h-100l-15-1h-76v8c-.16 9.09-6.54 8.99-14 9h-47l-17 1h-80l-15 1h-67l-15 1h-48l-17 1h-38l-17 1h-38l-17 1h-35l-12 .91-39 3-70 5.18-38 2.91h-20l-17 1h-28l-15 1h-22l-15 1h-14l-15 1.04h-16l-12 .96-37 1-17 1-86 4.91-120 8.18-51 4c-33.9 2.33-67.99 6.91-102 6.91v-44l36-2.91 63-4.18 20-1.82 85-6.09h9l62-4.09 75-3.91 15-1h17l16-1h15l16-1h14l16-1h15l15-1h17l15-1 60-2.91 41-2.18 38-2.91h9l26-2 33-1 17-1.04h16l12-1h15l12-.96 39-1 13-1h21l17-1h24l17-1h27c2.97-.04 15.82-1.03 17.9-2.17 3.8-2.1 4.18-6 9.12-7.94L1007 1618h24l15-1h23l15-1 60-1 34-2h14l16-1h34l17-1h274l17-1h119c9.31-.02 20.15-3.54 23.99-13 1.39-3.4 2-13.09 2.01-17v-185c.01-6.55 3.64-23.07-2.15-27.15-2.95-2.08-7.39-1.84-10.85-1.85h-333c-5.97 0-21.79 1.69-25.4-3.15-1.87-2.5-1.59-5.89-1.6-8.85v-22c.04-2.92-.07-5.76 2.25-7.91 2.59-2.42 6.47-2.08 9.75-2.09h176l15 1h245c5.22 0 21.03 1.37 24.26-2.43 2.05-2.41 1.74-6.58 1.74-9.57v-168l1-15V988c-.02-12.06-5.08-12.98-16-13h-567l-15-1h-169l-15-1H673l-15-1h-48l-17-1h-47l-17-1H373l-15 1H206c-21.69-.03-43.47-14.04-53.82-33-5.53-10.14-10.16-33.32-10.18-45V792l1-15v-69l1-15v-68l1-15V488c.08-6.46 1.57-12.92 3.69-19 4.25-12.17 12.45-24.67 23.31-31.9 7.69-5.12 14.32-6.3 23-8.47 12.92-3.23 41.73-6.61 55-6.59h15l12 .96h27l16 1h25l16 1h25l17 1h388l15 1h72l15 1h79l15 1h85l15 1h28l15-1h514l14-1h114c12.44-.02 17.98-1.63 18-15l-.8643-163.1189-.1525-43.2348L1791 91l1-15ZM236 460.19c-16.64 2.49-35.9-.78-46.96 14.81-1.99 2.81-3.76 5.67-4.74 9-1.22 4.18-1.29 7.72-1.3 12v165l-1 15v223c.04 7.79.88 16.91 6.33 22.9 7.6 8.35 22.13 8.98 32.67 9.1l13 1h4l32 2h343l15-1h34l15-1h19c10.75-.02 11.98-2.68 12-13v-35l2-28v-28l-1-17v-31l1-17v-59l1-17V562l1-17v-54c.1-7.98 2.55-13.31-2.08-20.98-4.1-6.8-14.67-8.01-21.92-8.02H389l-15-1H271l-10-.81zm1369 4.95c-8.61 1.38-20.05.86-29 .86h-52c-6.4.08-17.81.8-22.82 4.8-4.85 3.87-8.11 12.24-9.38 18.2-1.79 8.46-4.79 30.68-4.8 39v46l1 17v22l1 17v65l1 17v198c.09 7.73.54 18.02 9 21.26 2.27.87 5.56.74 8 .74h31l17 1h219c4.62 0 11.97.59 16-1.45 6.73-3.42 6.99-7.88 7-14.55v-22l-1-17v-37l-1-17v-37l-1-17v-64l-1-15v-64l-1-15v-64l-1-17v-53c-.02-2.57.16-5.59-1.6-7.69-2.87-3.42-15.9-4.3-20.4-4.31h-121l-14-.86zm-846.99.94c-5.39 2.14-6.78 4.22-6.99 9.92l.98 16v197l1 15v211c.04 3.5.46 10.05 2.59 12.85 2.68 3.52 6.48 3.14 10.41 3.15h88l15 1h546c8.16 0 26.41 2.12 30.83-6.05 1.38-2.56 1.17-6.1 1.17-8.95v-69l-1-17V660l1-15V539l1-15v-29c0-9.84.87-23.63-11-27.35-2.41-.76-5.47-.65-8-.65h-47l-17-.92H782Zm1090.99 509c-3.46 1.1-6.77 2.15-8.91 5.25-3.27 4.72-2.09 22.29-2.09 28.67v298c.01 3.45-.26 7.75 1.85 10.67 3.23 4.44 8.27 4.32 13.15 4.33h286c9.13-.13 8.99-2.82 9-11V986c-.02-9.85-1.15-10.98-11-10.92h-254z"/>
    </g>
    <g id="Fence_ext" class="map_border">
      <path d="M1214.0313 1901.5797v-291.634H906.7158l-53.9879 8.998H24.222V27.6861h1132.3608v118.358h632.627v60.2172c20.9852 1.402 37.5843 10.4794 46.3741 33.2233l146.7363 15.2274 204.8769 9.69 78.9054-8.9979h478.9692v733.6812l7.6137 20.7645 2.7686 125.9717 10.8875 18.7816"/>
    </g>
    <g id="Fences_int" class="fence">
      <path d="m50.3476 273.434.6993-213.9918 590.2257 1.3986"/>
      <path d="M658.7556 60.1415h237.7686"/>
      <path d="M921.6997 60.8408h213.2925"/>
      <path d="M1135.6915 78.3238v192.3128"/>
      <path d="M1121.7051 415.3958h34.9659V306.3019m-20.2802-14.6857v103.4993h-16.7837"/>
      <path d="M1155.9717 290.2176V149.172"/>
      <path d="M50.3476 297.2108V555.959"/>
      <path d="M51.047 589.5263V695.823"/>
      <path d="M51.7462 714.0052v297.2108H186.715"/>
      <path d="M692.323 979.7467v55.9455H313.2916m215.3904-25.8748h125.8776l.6993-29.3714m-444.068 30.77h302.8054"/>
      <path d="M288.8155 1034.9929H61.5367"/>
      <path d="M42.655 1035.6922H27.1412"/>
      <path d="M855.9637 1599.3437v-352.457h-52.449v-72.0299m-17.483 35.6653v52.4489h53.8476v336.3727"/>
      <path d="M802.8154 1155.2758V995.1317h25.1755m.6993-13.9864h-42.6585v211.1945-.6993"/>
      <path d="M1188.8398 1572.0703h28.6721"/>
      <path d="M1233.5962 1572.0703h104.1987v-183.2217h9.7904"/>
      <path d="M1360.8724 1388.8486h64.3374"/>
      <path d="M1446.1894 1389.5479h231.4747v95.1075"/>
      <path d="M1677.6641 1520.3206v70.6313h-53.8476"/>
      <path d="M1611.2287 1590.9519h-358.7509"/>
      <path d="M1237.7921 1590.9519h-48.9523"/>
      <path d="M765.0521 909.1154h332.1768"/>
      <path d="M1121.2829 909.4878h314.237"/>
      <path d="M1434.8278 890.1075h-320.4664"/>
      <path d="M1090.136 889.4154H879.7218"/>
      <path d="M860.3416 889.4154h-95.517"/>
      <path d="M1498.5058 914.3328V805.665"/>
      <path d="M1779.5195 690.7677v35.2998h-263.0178v92.0562m-17.9959-28.3782v-80.9818h264.4021v-15.2273"/>
      <path d="M1516.5017 834.7354v79.5974"/>
      <path d="M1788.5175 209.2018v167.329"/>
      <path d="M1788.5175 388.2973v37.3762l-5.5373 52.6036"/>
    </g>
    <g id="Rocks" class="rock">
      <path d="M1627 1978h1l-1 1z"/>
      <path d="m367 1964 3 3z"/>
      <path d="M2057 2246c-2.5057-9.073 1.8093-18.1036 5.5762-26.1525 3.623-8.5571 12.6406-12.337 19.8719-17.2199 12.8047-7.5948 25.6108-15.4787 36.1098-26.1813 5.5221-5.3197 11.6031-10.0224 18.4192-13.5504 14.0151-8.2221 28.3613-15.8993 41.8991-24.9072 8.6367-5.1164 16.6101-12.1554 26.8299-13.7462 8.4754-.7181 15.4746 5.1786 22.9012 8.3012 10.0654 4.4721 17.5079 12.7389 25.4359 20.072 5.7307 5.4339 13.6908 8.6224 21.6161 7.1142 9.7227-.7524 18.1728-7.9226 20.9116-17.2118 2.9809-7.8085 1.9436-16.2657 2.93-24.364 3.3498-12.9327 15.3656-20.6322 26.1359-27.0761 8.6809-4.835 17.8446-11.562 28.3858-9.504 10.5668 1.1136 17.3801-8.489 26.2302-12.3439 6.5509-3.277 14.9519-.8485 20.5462-6.396 4.888-4.6843 10.7445-8.301 17.3833-9.843 6.858-2.4532 14.9204-3.4467 20.2162-8.8534 3.611-5.1377 3.1658-11.8889 6.1872-17.3434 4.804-11.116 11.8451-23.3032 24.2835-26.8317 8.3604-1.9391 17.8755-2.0845 24.413-8.4591 6.7407-6.7687 14.5144-12.3708 22.9572-16.8265 11.2576-6.3238 22.3169-13.4794 34.7953-17.1517 9.5687-1.2674 19.284.6181 28.697 2.3244 9.6462 2.297 20.5625 6.1069 24.8159 15.9383 3.6629 7.6042 4.7252 16.1534 8.5926 23.6794 4.5837 10.397 8.8991 20.9325 13.6504 31.2429 5.7016 8.6541 16.0311 12.8981 21.4619 21.8349 6.0639 7.6324 6.2921 17.8104 7.9267 26.9995 1.6314 9.592-.1157 19.2561-.4512 28.8809-.3144 6.2922-.9695 12.6281-1.0728 18.8931 2.4845 7.6229 5.4531 15.161 6.022 23.2475.9983 9.8811 3.52 21.1065-3.0088 29.734-8.6825 13.0299-18.8464 26.557-34.1322 32.08-11.9446 4.4323-25.0008 2.3287-37.2119.323-7.9938-.9343-12.2818-8.4885-17.973-13.2173-3.8712-4.2774-10.6766-8.2099-15.4605-2.7992-5.4368 5.1448-11.8228 9.6214-19.5168 10.295-8.7047 1.1202-17.6326 2.9297-26.3872 1.4043-6.6943-1.7546-12.164-8.9179-19.678-6.5319-10.2891 3.3518-19.3427 10.1844-30.2267 11.7905-5.3371 1.0526-10.6198 2.5485-15.9911 3.3217-5.1576-.6102-10.657-1.2959-15.2852 1.7298-6.1173 3.1356-11.5137 9.9892-19.139 7.9054-4.9546-1.9645-10.5131-.9704-14.1497 3.0616-6.1052 4.8908-10.4122 12.0623-17.4498 15.7077-6.2821 1.1762-12.7698.4082-19.1488.6292H2057z"/>
      <path d="M1643 1952h1l-1 1z"/>
      <path d="M629 1860.43c16.1347-1.911 31.688 3.9955 47.0862 7.83 9.0696 2.4777 16.5046 8.4121 24.5207 13.0433 8.2379 4.9667 16.3108 10.2317 24.6535 15.0089 7.1931 3.47 14.2748 7.208 21.5375 10.5108 7.7266 2.6884 15.647 4.9519 22.7664 9.1047 11.0943 5.8053 21.5381 13.1979 33.829 16.3492 6.701 2.4449 14.1814 2.5638 20.4926 6.0154 5.1236 3.1651 4.8712 9.7562 4.8212 15.0349.4037 7.7023 7.9586 11.9469 14.5652 13.8278 6.2031 2.3558 14.222 2.5319 18.2647 8.5186 3.0558 5.7937.002 12.3671-1.8862 18.056-3.7 9.8955-11.83 17.2949-20.8452 22.3971-12.0311 6.7256-22.1604 16.3748-34.4555 22.6438-8.8336 4.9745-19.5312 4.9687-28.3301 9.9295-6.4575 4.0987-7.3383 12.7319-13.3576 17.2781-6.0052 4.9577-12.904 9.9961-20.901 10.6713-7.3133.1085-12.444-7.0489-19.8621-6.6136-4.2503.3027-8.4171-.8565-11.9273-3.2605-8.1125-4.0681-17.4943-2.381-26.2356-2.8339-15.8785-.1474-32.0451.1511-47.2982 5.0977-12.2557 3.7576-24.5693 7.7266-36.0133 13.565-6.117 2.8977-9.0252 10.0643-15.7442 11.9708-5.2807 2.0762-10.7746 3.6819-15.9151 6.0674-8.4505 4.5545-16.8285 9.2606-25.3244 13.7204-7.3176 3.072-15.5488 4.1514-22.2422 8.5767-9.5664 8.6221-16.812 19.7975-27.8259 26.8183-5.2387 3.5581-11.5087 5.7032-17.871 5.2023-8.1346-.5199-16.5692 2.4046-24.363-.9328-6.1154-2.8028-10.418-9.1889-10.2641-15.9772.5304-5.322-5.226-10.0638-10.2006-7.4808-6.0883 2.4002-12.6996 7.334-19.4153 4.0929-8.8839-4.9415-14.7236-14.4358-16.5241-24.3121-.853-5.758-5.3017-9.6751-8.4427-14.2167-3.8667-5.0607-.2085-11.1701 3.608-14.9363 5.1084-5.3739 7.1676-12.861 12.0364-18.4264 4.071-4.6703 8.579-9.6599 8.9345-16.1881 1.187-10.6697 5.3318-20.7303 9.1034-30.6929 4.0275-10.3714 15.2454-14.4055 22.8932-21.4983 5.9325-5.03 9.516-12.1362 11.5201-19.5431 3.577-10.6559 5.5124-21.8849 10.1533-32.162 2.2313-5.2474 7.229-8.6952 12.7868-9.5015 7.7807-1.5954 15.7237-2.5095 23.672-2.2747 6.6984-.9611 7.9086-9.9096 14.646-10.7293 6.0669-.2604 12.368-1.2621 17.267-5.1691 11.79-8.8929 19.047-22.5387 31.3632-30.8672 18.817-13.9048 41.9636-20.049 64.7238-23.7144z"/>
      <path d="M2011 1852.46c18.71-2.4 12.06 21.18 8.64 31.54-2.2 6.69-5.91 15.27-11.64 19.51-4.31 3.18-11.05 4.91-16 7.27-4.13 1.98-9.78 5.88-14 6.65-6.22 1.14-10.76-3.25-16-5.36-5.66-2.28-11.18.29-14.69-2.67-2.93-2.47-2.35-7.88-2.31-11.4.03-2.5.05-4.58.85-7 .78-2.35 8.02-14.9 9.68-16.98 8.01-10.1 21.97-10.63 33.47-13.93z"/>
      <path d="M1610 1843.72c10.18.46 10.37 4.36 18 7.15 6.32 2.31 15.26.19 21 1.69 5.69 1.48 9.45 6.34 15 7.21 4.53.72 7.64-1.02 11-1.41 3.92-.46 7.13 1.05 11 1.47 4.19.45 10.37-.51 13.99 1.34 5.78 2.98 16.26 18.33 3.99 24.76-4.99 2.48-13.55.32-18.98 0-7.54-.18-8.57 1.45-15 2.61l-11 .9c-5.35.83-8.43 2.27-14 .8-10.11-2.67-19.17-14.91-26.94-9.64-4.61 3.13-3.54 6.88-4.85 11.4-1.22 4.21-3.57 7.59-6.23 11-11.46 14.7-17.45 13.11-25.81 22.04-8.56 9.14-4.57 11.44-8.18 16.85-3.06 4.6-9.8 5.15-10.86 10.15-1.68 7.93 15.41 9.47 13.04 19.96-1.08 4.79-5.21 8.88-5.75 14-.36 3.35 1.11 6.61 1.39 10 .44 5.31-1.57 7.19-.59 13l3.35 12c.2 3.13-1.81 6.98-5.45 5.6-3.95-1.5-4.49-8.17-5.73-11.6-3.19-8.81-11.01-8.71-10.22-19 .27-3.45.98-5.12.74-9-1.07-17.29-18.83-16.01-17.73-31 .26-3.48 2.36-18.63 3.83-20.96 2.51-3.98 7.27-6.03 10.99-8.8 3.42-2.54 9.01-8.04 11.9-11.24 4.98-5.53 6.71-12.85 10.85-19 4.22-6.28 11.61-12.95 14.57-19 2.24-4.6 1.28-7.37 2.15-12 2.32-12.36 7.34-20.37 20.53-21.28z"/>
      <path d="M1485.02 1829.84c9.45-.81 19.08 13.24 8.96 17.43-2.43 1-13.67 3.83-15.83 2.67-5.66-3.04.31-14.54 3.26-17.71 1.51-1.63 1.83-1.49 3.61-2.39z"/>
      <path d="M1318 1817.71c10.88-1.85 12.71 10.3 4.96 13.24-5.26 2-12.68-2.58-11.12-7.86.87-2.93 3.65-4.23 6.16-5.38z"/>
      <path d="M375 1802.43c7.29-.9 23.08-.5 28.9 4.14 6.25 4.98 5.21 13.55 12.14 16.69 2.8 1.27 6.86.67 9.96.76 10.91.3 15.81 10.14 13.47 19.98-1.13 4.75-4.73 9.35-7.91 12.96-11.67 13.25-19.57 13.04-35.56 16.24-5.1 1.02-13.06 3.01-18 2.71-3.78-.23-7.39-1.46-11-2.49-16.08-4.59-31.65-12.12-43.98-23.59-8.5-7.91-11.42-22.28-3.63-31.79 5.01-6.11 11.45-7.22 18.61-8.92z"/>
      <path d="m1818 1800.64 24 3.4 9 2.54c4.4.41 7.75-2.17 12-2.23 5.95-.07 9.99 4.16 16 3.42 5.03-.61 8.24-4.2 15-4.67l19 2.46c9.59.36 24.45 10.69 22.53 21.44-.64 3.6-2.23 7.08-4.86 9.66-2.96 2.92-6.03 3.64-9.67 5.21-7.17 3.1-13.04 6.43-21 2.44-6.93-3.46-14.39-15.5-24-12.48-10.82 3.4-1.21 14.88-11.04 22.75-5.16 4.14-11.75 3.64-15.96 5.5-8.58 3.81-10.08 11.44-22 10.39-6.61-.58-10.91-3.86-18-3.37l-39 11.44c-5.69 1.01-12.27-.68-18-1.62-4.42-.73-11.56-.49-14.77-3.35-5.94-5.28-1.1-15.64 3.1-20.53l7.14-7.13c3.49-4.28 3.4-8.75 8.55-11.82 5.9-3.53 22.7-3.98 30.98-9.22 8.72-5.52 22.46-21.54 31-24.23z"/>
      <path d="M1692 1797.46c4.13-.57 13.35-1.11 17 .71 4.1 2.05 7.13 6.89 12 9.38 5.04 2.58 11.42 1.42 16.44 7.55 8.15 9.94.96 26.89-8.44 28.58h-10c-5.9.78-13.5 5.04-19 2.3-2.84-1.42-6.23-5.42-9-7.59-7.42-5.82-12.01-4.01-19.22-19.39-1.41-3.02-3.14-6.6-1.89-9.96 2.45-6.53 15.82-10.18 22.11-11.58z"/>
      <path d="M1470.06 1776.02c11.19-3.79 15.49 7.6 6.92 11.95-6.51 3.31-15.86-4.97-6.92-11.95z"/>
      <path d="M1439.04 1731.87c10.01-.36 11.31 13.26 0 17.39-4.07 1.46-8.78-.41-8.36-5.26.38-4.54 4.56-10.07 8.36-12.13z"/>
      <path d="M2175 1721.44c6.88-.54 23.86 4.98 23.63 13.56-.11 4.07-7.77 12-10.67 15-9.98 10.29-13.57 8.67-26.05 11.35-4.92 1.05-10.97 2.9-15.91 2.55-14.91-1.04-14.4-10.41-13.16-21.9.66-6.23 1.05-11.15 6.26-15.61 5.25-4.48 12.49-3.38 18.9-3.39 5.72-.01 11.34-.78 17-1.56z"/>
      <path d="M1609 1701.51c11.4-1.78 11.79 2.52 20 4.86l10 .95c3.26.55 6.89 2.08 10 3.26 9.33 3.52 20.14 8.97 20.58 20.42.16 4.16-.32 6.13 2.14 10 3.46 5.44 12.27 12.28 8.74 19.95-2.1 4.55-7.16 5.55-11.46 3.62-6.67-3-10.04-12.19-17.82-4.46-4.35 4.34-8.85 14.29-19.18 19.99-8.58 4.73-19.59 3.06-26.58 11.07-4.78 5.47-1.23 8.51-.64 13.83.7 6.32-3.25 10.2-6.58 15-9.17 13.25-13.26 19.77-30.2 23.06-9.98 1.94-24.77-7.65-25.61-18.06-.48-5.89 2.86-13.81 2.49-16-.88-5.12-7.16-6.06-7.79-16-.93-14.78 7.86-21.4 16.02-32l13.51-18 9.53-11c3.61-5.42 5.64-16.27 14.86-23.61 4.52-3.59 12.37-5.46 17.99-6.88z"/>
      <path d="M1519.99 1689.67c13.28 1.2 4.6 18.91-3.97 16.49-5.45-1.54-6.18-9.13-3.28-12.77 1.81-2.27 4.56-3.07 7.25-3.72z"/>
      <path d="M1470.22 1686.04c6.83-1.95 6.33 3.07 7.46 7.96.89 3.87 3.28 8.39-.91 11.36-3.81 2.7-7.43-1.03-8.97-4.38-2.32-5.05-1.74-11.17 2.42-14.94z"/>
      <path d="M2077 1666.24h4c7.79-.51 19.25 3.87 17.48 13.76-.61 3.45-3.72 6.26-5.41 10-1.69 3.75-1.31 7.04-3.98 12l-8.4 12c-2.95 5.89-1.52 17.98-12.69 24.09-5.6 3.05-20.13 7.4-26 4.46-7.06-3.54-10.74-14.19-17.96-11.77-3.96 1.33-6.35 6.61-10.13 10-5.43 4.86-8.7 3.02-14.91 6.7-5.63 3.34-8.41 7.94-13 8.86-5.11 1.03-8.67-3.45-17-5.58l-23-1.08c-5.46-.91-11.47-4.57-17-3.57-4.85.87-11.66 6.61-16 9.35l-21 9.74c-2.47.74-4.47.77-7 .8-7.32.08-18.66.92-25-2.56-4.67-2.55-7.93-6.76-12-10.07-3.98-3.23-9.4-6.27-11.26-11.37-1.19-3.27-.24-6.29 2.41-8.49 3.06-2.55 7.15-2.44 10.68-4.58 8.59-5.21 9.24-12.41 22.17-11.89 7.59.3 14.74 3.4 22 5.26l23 2.98 17 2.25c7.38-.38 22.25-11.22 32-14.43 6.41-2.11 8.91.44 15 .81 6.9.42 27.58-7.54 35-10.33 7.67-2.9 20.27-7.64 25.67-13.67 5.35-5.98 4.71-11.72 10.43-16.11 5.03-3.85 18.4-6.16 24.9-7.56z"/>
      <path d="M1774 1656.56c2.38-.41 4.64-.82 7 0 6.38 2.36 13.61 14.79 13.96 21.44.21 3.97-1.14 14.44-2.66 18-1.28 3.01-3.66 5.48-6.3 7.35-3.07 2.18-22.87 9.83-27 10.89-3.79.97-7.55 1.15-11-.98-4.27-2.63-6.57-7.16-12-7.92h-9c-3.92-.32-6.66-1.95-11-1.24-4.44.72-11.27 5.21-18 4.68-4.47-.36-16.85-6.65-21-9.13-1.48-.89-2.68-1.71-3.98-2.86-9.17-8.12-2.87-13.77-3.58-20.79-.63-6.31-4.7-10.27 1.67-15.57 8.75-7.29 15.56.15 23.89.94 4.24.4 7.05-1.47 13 2.48 5.44 3.62 7.53 8.61 12.01 9.16 5.05.63 12.03-6.77 18.99-9.53 7.12-2.82 9-.07 15-.79 6.75-.81 13.4-4.4 20-6.13z"/>
      <path d="M2176 1634.78c7.37 1.04 9.09 5.58 14 6.24 2.7.37 5.35-1.13 8-1.64 5.88-1.15 11.58.48 15.79 4.81 9.31 9.57 1.34 19.74-6.79 26.48-10.38 8.6-17.33 6.41-29 9.49-8.91 2.34-19.62 7.29-29 6.75-19.5-1.14-23.89-19.56-13.36-33.89 5.4-7.37 16.15-8.94 24.36-12.45 6.12-2.62 9.1-5.26 16-5.79z"/>
      <path d="M2025.02 1616.85c11.77-3.25 23.36 1.05 33.98 5.85 4.49 2.02 9.08 3.3 11.15 8.32 2.21 5.37-1.36 9.35-1.23 16.07.05 2.76.43 6.24-1.52 8.48-2.03 2.34-5.53 2.49-8.4 2.39-5.39-.19-19.85-4.93-23.79-8.49-4.65-4.2-3.3-7.89-7.6-13.47-5.09-6.61-14.31-12.51-2.59-19.15z"/>
      <path d="M2166 1599.53c6-.98 22.23-.8 26.95 2.9 7.36 5.77 8.56 16.83-1.95 19.85l-20 2.62c-4.82 1.15-10.1 4.02-15 2.21-6.81-2.52-11.85-11.27-7.11-17.81 3.17-4.37 11.98-8.26 17.11-9.77z"/>
      <path d="M2271 1573.7c9.28-1.97 12.01 4.91 17.09 11.3 2.78 3.5 6.55 8.13 5.56 13-.77 3.75-3.85 5.99-7.65 5.41-3.81-.58-8.5-4.25-12-6.09-3.72-1.95-8.82-2.9-11.61-5.71-7.16-7.22 2.13-14.99 8.61-17.91z"/>
      <path d="M2775 1533c2.0021 6.1419.7255 12.6822 1 19.0179-.021 31.613.043 63.227-.032 94.8394.1202 3.9679-1.2545 7.8794-4.0616 10.7175-5.1456 6.4967-9.31 13.6951-13.953 20.5501-4.9391 8.0409-11.5054 14.9091-17.8453 21.843-5.5146 5.572-11.1514 12.2019-19.3754 13.4113-4.0741.6746-9.2988 1.6281-10.6959 6.1907-1.4232 5.6349 2.4715 11.0146 1.2567 16.6958-.7001 6.3568-5.2772 12.3766-11.7081 13.7116-5.5786 1.5761-11.4496 2.1931-16.7253 4.7231-7.5145 2.9652-14.9525 6.1665-22.5153 8.9828-6.9626 1.6694-15.3356 1.7368-20.2789 7.7067-5.8494 6.627-11.4821 13.4549-17.4752 19.9485-3.7076 3.8558-8.5822 7.0153-10.6097 12.1507-1.2782 4.8541 1.0405 9.9563-.7373 14.7789-1.8615 6.9943-6.4145 13.1729-12.7173 16.788-7.6869 4.4299-15.2942 9.0174-22.6791 13.9386-5.0766 3.7358-10.5405 7.63-17.1115 7.785-10.4269.4532-21.2244.6793-31.2123-2.7838-6.1573-1.9957-11.5061-7.4828-11.4317-14.2578.1176-5.7317 1.7614-11.3625 3.6584-16.738 1.445-3.0045 4.6532-6.8306 1.6798-9.9783-3.7821-3.5909-8.8664-6.1365-10.9583-11.224-2.5155-5.7144-.5413-12.3849-3.5093-18.01-3.4254-7.8506-11.6159-12.8884-13.3884-21.6003-2.0185-6.8005 1.4589-13.8257-.3649-20.6009-2.3002-5.2961-6.2577-9.7023-8.6572-14.9715-3.1751-6.3324-5.834-13.1681-5.6312-20.3677-.4623-5.8797-2.8789-11.3422-4.4116-16.9873-.9456-2.9546-1.9238-5.9023-2.0633-9.0274-1.1196-9.6479-2.4147-19.283-3.424-28.9389.1484-12.9713 7.0171-25.1873 16.315-33.9114 4.7683-4.2856 10.8993-8.4613 17.6534-7.0823 2.8913.9759 8.4186 1.032 7.4315-3.533-2.0766-4.9204-6.6476-9.0272-6.3697-14.7808-.4537-5.3401 2.4071-9.9961 4.881-14.4627 2.0007-4.2849 3.0667-8.9726 5.0465-13.2556 5.7723-8.9279 15.4031-14.4173 24.8158-18.7921 5.7954-2.6593 12.5494-4.8099 18.784-2.236 7.7586 2.7532 15.3695 6.3426 21.8624 11.4542 5.6155 4.8892 10.2036 10.809 15.1373 16.3523 3.4419 3.9784 5.7298 9.0395 5.4222 14.3894-.4659 11.0781 3.088 21.9387 2.2591 33.0178-.5544 5.4087-4.4401 9.6273-5.7269 14.7691l-.9632 12.7774c-.6293 4.0718-5.8518 6.6214-4.6154 11.0338 1.7391 3.843 5.1388 7.9092 3.0995 12.3496-3.0848 7.5675-13.6689 8.2168-16.2547 16.1741-1.8377 7.3515-3.0101 14.9988-2.6478 22.5951-.068 5.0626 3.5878 9.019 7.6595 11.5108 4.0723 2.2933 7.5553 5.9196 12.1889 7.0566 5.2348.6599 5.9739-5.8882 6.1929-9.6641.4329-6.7815.6465-13.9789 4.7002-19.7751 4.3261-6.8644 9.3066-14.7246 17.8698-16.5061 6.0035-1.4238 12.1678-.4917 18.2371-.1747 4.7741-.2872 7.0064-5.371 5.934-9.5755-.7621-5.2132-2.8815-10.6701-.6215-15.8272 3.0994-8.691 11.9742-12.8165 18.9579-17.8892 7.6255-5.3086 14.6198-13.2677 14.7571-23.0468-.064-5.1673 1.0949-10.7721 5.2934-14.2038 5.6932-4.8647 12.7569-7.6911 18.9488-11.8306 7.5185-4.7631 15.5982-8.656 24.2289-10.9158 7.746-2.5109 15.9081-4.3078 22.9115-8.6105 3.7922-2.0147 4.6994-6.7748 2.6024-10.3416-1.8555-3.7024-2.5338-8.7569.8573-11.8275 5.5724-5.5387 12.6261-9.2392 19.1302-13.5315z"/>
      <path d="M457.04 1500.74c8.28-2.01 9.13 1.74 15.96 2.41 3.77.37 6.15-1.2 8.96-.63 4.84.99 7.76 7.57 3.73 10.87-1.87 1.52-3.53 1.13-5.69 1.11-6.51-.06-13.5 4.42-19 3.06-7.1-1.77-13.17-11.45-3.96-16.82z"/>
      <path d="M441.33 1482.41c4.55-.06 7.69 3.1 8.44 7.59.3 1.78.36 5.5-2.02 5.95-3.16.59-10.94-9.34-6.42-13.54z"/>
      <path d="M422.1 1442.78c11.31-1.61 8.84 9.7 9.26 13.22.53 4.44 3.44 9.77-2.47 12.26-5.36 2.26-9.67-1.38-11.41-6.26-2.44-6.84-2.19-15.17 4.62-19.22z"/>
      <path d="M558.21 1411.9c.51.07 1.02-.52 2.64 0 2.78.43 10.52 7.09 10.52 10.1 0 2.84-3.11 5.23-5.37 6.43-11.19 5.94-15.96-9.26-7.79-16.53z"/>
      <path d="M430 1409.44c4.09-.43 9.44-.24 12.49 2.99 5.85 6.17-.22 15.31-7.49 16.33-9.37 1.32-19.88-9.31-12.69-16.33 2.09-2.04 4.96-2.45 7.69-2.99z"/>
      <path d="M311.01 1396.76c12.06-2.03 4.46 12.3-1.01 13.75-3.28.87-5.52-2.6-5.38-5.51.19-3.97 3.22-6.52 6.39-8.24z"/>
      <path d="M466.02 1395.79c4.03.4 6.52 2.21 7.93 6.21 1.68 4.76-1.88 7.4-5.95 6.53-6.05-1.3-10.64-9.86-1.98-12.74z"/>
      <path d="M481.06 1386.04c9.27-2.66 12.53 7.97 6.71 11.51-7.7 4.68-15.61-4.64-6.71-11.51z"/>
      <path d="M2287 1383.57c9.31-1.69 19.23 1.48 22.35 11.43.78 2.49.68 6.34.65 9-.08 6.77-2.26 16.72-10 18.55-10.9 2.58-10.28-11.64-12.16-15.55-3.26-6.8-14.6-13.97-4.78-21.49 1.54-1.18 2.26-1.28 3.94-1.94z"/>
      <path d="M322.01 1361.08c8.96-1.73 8.44 10.39 1.95 13.74-4.77 2.46-8.29-.84-7.69-5.82.47-3.89 2.73-5.87 5.74-7.92z"/>
      <path d="M2457 1323.69c10.43-.04 16.81 6.27 22.19 14.31 2.05 3.06 4.41 6.14 4.44 10 .03 3.84-3.55 10.68-5.55 14-1.75 2.89-6.97 10.52-9.26 12.67-4.59 4.31-14.46 8.35-20.82 7.8-6.8-.58-17.39-3.42-21.15-9.49-2.13-3.44-1.35-6.04-4.41-10.98-4.97-8.04-9.99-10.2-9.4-21 .7-12.63 14.03-17.58 24.96-16.91l10 1.56c2.96-.05 6.07-1.37 9-1.96z"/>
      <path d="M2521 1273.65c6.26-.97 17.27 3.53 16.36 11.35-.79 6.78-10.07 11.39-16.36 10.89-3.14-.25-15.6-3.57-17.87-5.4-4.12-3.32-5.49-9.3-.98-12.98 4.06-3.31 7.23-1.1 10.85-1.36 2.46-.18 5.58-1.67 8-2.5z"/>
      <path d="M2435.02 1264.08c6.74.34 13.95 10.2 13.57 16.92-.28 4.91-5.59 9.71-10.59 8.67-8.99-1.87-13.67-21.02-2.98-25.59z"/>
      <path d="M2506.04 1246.78c4.66-.8 11.5.77 13.93 5.32 2.87 5.37-3.08 11.7-9.97 10.66-6.88-1.04-13.06-10.84-3.96-15.98z"/>
      <path d="M2499.04 1207.03c14.48-4.57 29.59 19.71 8.96 21.77-11.91 1.19-20.51-13.21-8.96-21.77z"/>
      <path d="M2481.02 1195.83c9.14-.97 9.41 7.47 3.92 9.39-4.87 1.71-13.09-4.56-3.92-9.39z"/>
      <path d="M241.09 1177.05c5.2.79 7.44 7.5 9.37 11.95 1.06 2.45 1.82 5.87-1.69 6.66-7.92 1.79-12.42-13.07-10.55-16.43.95-1.72 1.47-1.48 2.87-2.18z"/>
      <path d="M264.94 1173.07c7.81 3.54.57 13.97-4.88 12.27-5.77-1.78-5.52-11.91 4.88-12.27z"/>
      <path d="M858 2246c1.88-10.03 8.56-14.28 8.95-23 .26-5.61-1.73-11.31-.77-19 .91-7.23 5.28-9.9 7.14-18l1.12-19 9.19-35c2.24-8.98 7.02-32.21 12.02-38.96 5.22-7.04 21.77-11.93 30.35-12.04 6.8-.08 16.48-.66 21.79 4.28 3.41 3.16 7.97 12.98 12.38 15.98 5.54 3.76 10.22-2.27 18.81 3.59 3.73 2.54 5.36 5.41 7.62 9.15 9.58 15.85 6.54 20.14 12.2 29.96 2.56 4.45 4.07 4.42 7.62 7.47 14.97 12.83 20.16 10.93 34.58 20.27 4.99 3.23 11.17 9.95 17 10.14 4.19.13 7.61-2.27 9.55-5.88l4.32-12.96c2.28-5.32 9.8-18.07 13.16-23 2.93-4.3 7.07-10.41 10.98-13.66 4.48-3.72 28.23-14.19 34.99-17.2 10.46-4.66 15.11-8.27 27-8.14 11.72.14 23.15 3.48 34 7.58 5.09 1.92 9.72 3.34 13.47 7.6 7.74 8.79 6.2 22.65 14.55 24.98 5.9 1.64 12.75-9.12 15.98-13.16 3.61-4.51 14.16-16.61 15.86-21 1.81-4.68.75-9.23 1.32-14 .55-4.48 4.52-14.21 6.95-18 4.78-7.46 16.48-11.63 17.2-21 .39-5.04-4.84-7.32-8.33-9.77l-8-5.7c-6.25-3.54-10.3-2.58-16.61-10.53-8.96-11.29-2.84-19.05-7.51-31-2.21-5.66-6.77-10.5-10.73-15-6.81-7.74-14.42-18.83-25.15-20.99-5.05-1.01-8.35.91-13 1.83h-15l-14-.86c-5.72.44-10.11 2.11-16 0-7.63-3.02-12.48-10.53-16.17-13.28l-12.83-6.42c-3.61-2.11-9.76-7.58-12.91-10.56l-7.13-7.72-12.79-13c-7.25-8.05-11-14.59-20.17-21.59-10.62-8.11-26.01-12.73-39-15.15-11.15-2.08-22.71-2.81-32.96-8.16-4.85-2.53-8.19-7.81-11.41-12.1-4.77-6.34-13.55-16.85-20.63-20.31-5.02-2.45-9.92-.33-15 .94-16.66 4.17-20.62 9.55-34 13.22-5.17 1.41-9.72 2.92-15 1.02-6.27-2.26-15.42-8.75-19.67-13.87-4.81-5.79-5.25-9.71-12.33-15.79-4.23-3.63-11.57-6.87-17-8.17-3.58-.86-7.86-.84-10.9-2.93-5.57-3.84-7.31-13.76-7.06-20.11l2.8-28c.38-3.6.64-9.83 2.33-12.96 1.6-2.95 13.02-10.21 16.83-13.47 5.33-4.56 9.74-9.54 16-13.04 4.22-2.37 12.92-4.51 18-6.2 5.71-1.89 13.01-4.5 19-4.29 4.67.17 8.49 1.95 13 2.95l25 4.76 30 5.15c6.38.28 17.26-2.82 23-1.51 12.38 2.83 15.12 19.05 15 29.61-.11 9.15-6.16 23.11-12.46 29.7-2.88 3.01-10.26 7.2-8.58 10.36 1.58 2.97 9.05 3.97 12.04 3.37 6.98-1.39 11.32-10.96 23-5.9 8.37 3.63 18.33 16.73 25 23.47 10.35 10.45 19.8 16.03 33 22.22 4.64 2.18 20.76 8.36 24.05 2.63 1.34-2.32.11-6.15 0-8.85-.16-3.41.12-6.79 1.35-10 .89-2.32 1.92-4.05 3.73-5.78 3.12-2.97 6.63-4.17 10.87-3.56 11.24 1.61 16.54 12.62 23.29 20.34 1.95 2.24 5.03 5.54 7.71 6.81 6.29 2.99 13.47-4.56 22.96 2.04 5.69 3.96 6.37 8.12 8.77 13.87L1194 1882c3.31 8.31 4.78 14.33 14 18.02 7.59 3.04 19.15.1 27-1.27l52-9.5c3.6-1.18 9.65-4.21 13-6.12 15.3-8.76 23.07-21.9 43-21.09 12.07.49 21.36 6.06 29.98 14.13 7.07 6.61 5.51 11.63 9.11 11.63 3.06 0 4.14-4.6 5-6.8 1.66-4.23 3.99-8.08 8.91-8.74 8.86-1.18 21.17 9.48 29 8.51 7.74-.95 17.48-11.29 21.1-17.77 2.79-5.01 4.74-12.58 11.9-12.58 8.68 0 10.47 11.3 17.02 19.58 2 2.53 5.12 6.91 8.89 5.6 3.74-1.3 5.49-7.71 11.09-10.06 4.89-1.68 9.38 1.11 14 0 5.42-1.74 10.46-7.84 15-10.09 6.6-3.27 37.6-3.12 35.44 15.55-.7 6.09-4.83 9.33-7.75 24-1.78 9.92 1.29 12.77 0 18-1.12 3.7-4.02 6.42-7.69 7.43-2.73.75-5.48.37-8-.88l-11-7.99c-6.03-3.31-15.99-4.58-19.87 2.48-3.65 6.61 3.2 10.46 4.6 16.96.89 4.15-.12 5.15 2.63 10 3.16 5.55 7.44 7.6 10.28 14 2.84 6.41 1.23 10.89 4.84 17 3.48 5.89 10.1 9.87 11.18 17 1.44 9.57-8.41 13.35-13.24 23-3.8 7.61-1.15 13.21-.6 21 .52 7.33-3.24 11.82-3.16 16 .12 5.85 6.39 11.92 12.34 10.71 6.15-1.25 11.8-7.55 16-9.55 5.61-2.67 13.12-.34 17.98 2.95 10.63 7.19 5.38 14.09 5.39 18.89 0 5.8 4.61 14.6 9.67 17.58 3.76 2.22 15.71 2.99 21.96 4.86 11.62 3.47 14.12 7.69 21 9.96 6.11 2.02 7.32 1 13 .69 7.78-.42 15.88 3.45 20.3 9.91 3.07 4.47 1.83 6.87 10.7 14.83 5.7 5.11 19.64 14.03 23.26 19.21 4.98 6.81.58 14.39 0 21.96-.62 6 1.74 11.09 1.19 16-.78 6.86-4.92 10.61-6.06 16-2.06 9.67 3.81 14.43 9.29 21 1.66 2 4.39 6.21 6.41 7.46 2.58 1.6 4.47.65 6.19-1.59l4.2-8.87 7.38-10c4.23-6.88 1.95-11.4 5.55-18 3.74-6.84 11.41-9.41 16.46-15.02 5.21-5.78 7.65-16.68 17.13-23.33 7.24-5.08 15.56-2.94 22.98-8.3 2.53-1.82 5.69-4.94 5.28-8.35-.81-6.83-14.56-12.56-20.26-15-6.78-2.9-24.17-9.28-28.96-13.34-2.84-2.4-5.2-5.68-7.41-8.66-4.32-5.84-5.54-7.68-5.63-15-.1-8.5 2.25-23.15 7.42-30l17.49-17c6.42-6.92 11.31-15.51 20.09-20.01 9.85-5.04 18.79-3.05 24-5.22 7.16-2.98 11.02-10.24 21-12.73 4.71-1.17 12.2-2.33 17-1.87 6.4.61 12.64 3.08 19 .87 9.45-3.29 20.75-11.67 32-14.56 14-3.6 16.69.77 24-1.27l16-6.84c4.07-1.41 15.77-.81 20 0 3.86 1.04 12.32 5.44 16 7.49 8.33 4.65 28.34 19.29 36 25.56 4.06 3.32 14.59 14.56 19.9 12.16 9.29-4.21-.29-17.41 1.33-26.58 2.13-12.05 14.37-6.36 17.27-15.02 1.06-3.16-1.36-7.19-2.75-9.98-3.16-6.38-5-8.59-4.71-16l9.16-50c1.18-6.26 1.23-17.65 3.41-23 4.67-11.42 17.33-11.39 21.56-19.02 2.61-4.7-1.53-8.34-.99-15.98.57-7.97.7-20.98 7.92-25.85 5.59-3.77 11.18-.44 16.2-7.25 4.68-6.36 3.56-20.07 6.98-25.86 7.32-12.4 29.9-8.17 41.72-8.04 6.88.08 23.68 2.05 30 4.25 6.26 2.18 8.99 6.85 16 7.55 12.88 1.29 19.65-12.34 26.61-20.8 6.85-8.31 14.96-17.2 26.39-17.91 3.88-.24 5.55.47 9 .74h2.98c10.96-1.47-1.78-11.28 6.17-17.09 7.99-5.85 19.36 5.39 26.7 1.08 3.1-1.81 3.08-4.65 3.15-7.82l1-17v-15l-1-19-1-17v-23c.17-13.92 3-16.86 14-24.85 3.27-2.37 7.12-5.17 11-6.35 5.11-1.57 13.64-1.29 18-3.37 3.92-1.87 6.47-5.02 8.99-8.43l18.1-25c3.14-6.81.87-9.75 3.02-16 1.7-4.98 10.34-17.44 13.79-22 10.05-13.31 22.66-24.82 34.01-37l38.05-40 18.04-18.96 22-18.13c9.22-8.65 10.46-14.22 13.37-25.91.97-3.88 2.26-9.07 2.54-13l1-12c.55-8.04-1.32-11.95 4.43-19 5.89-7.21 23.52-18.76 31.66-25.46l20-19.37c11.91-10.63 20.51-15.66 35-21.75 6.95-2.91 19.15-8.41 26-9.99 11.07-2.56 27.81-4.12 37.06-11.22 10.21-8.08.87-14.05 0-23.21-.02-2.35.48-4.69.86-7 1.86-11.26 4.54-14.86 14.08-21.56l22-12.36 15-11.02c4.59-2.85 9.92-4.72 13.98-8.27 6.28-5.48 6.22-9.3 10.55-14.78 3.38-4.28 13.22-11.78 18.47-13.36 2.57-.78 6.27-.68 8.99-.64 5.23.09 18.06 3.5 21.02 7.64 1.24 1.74.99 5.25.99 7.35v137l-9-2.67-21-1.33c-9.5-.11-18.91-2.14-28 1.46-2.83 1.12-7.72 3.48-8.7 6.58-1.13 3.57 5.7 11.96 7.84 14.96 11.16 15.67 12.66 21.55 20.6 38 2.68 5.56 8.46 19.23 9.09 25 .64 5.9-.38 8.66-.79 14v11l-5 33c-.37 11.51 7.37 20.11 3.64 26.91-2.51 4.58-10.05 6.89-14.68 8.95-11.89 5.29-24.86 15.08-38 15.14h-7l-45 5.99c-9.13-.21-15.31-3.98-20-4.35-4.99-.4-15.5 3.86-20 6.25-13.89 7.36-19.52 15.09-31 23.63l-37 22.9c-11.57 7.21-20.65 14.89-35 14.57-4.9-.12-11.97-2.19-16-1.15-4.71 1.21-10.86 6.55-15 9.44-6.9 4.82-8.44 5.05-16 7.91-6.53 2.48-19.65 5.77-23.22 11.85-2.66 4.53 1.34 8.28 3.68 11.96 5.04 7.96 6.99 16.11 9.54 25l18.87 73 5.55 25c1.02 4.6 2.73 10.35 2.4 15l-1.65 15-3.45 33-3.68 22 2.77 30c-.58 6.96-6.91 18.68-9.47 26-2.2 6.33-3.02 13.85-7.67 18.82-4.37 4.67-20.16 13.76-26.67 13.84-10.78.14-18.48-5.56-29 .82-2.3 1.39-4.79 3.28-6.34 5.56-2.75 4.36-.93 9.29 0 13.96 1.36 7.98 2.68 14.35-.92 22-9.5 20.18-21.15 25.49-36.74 40.09-10.44 9.77-7.99 12.21-13.53 18.82-3.23 3.85-6.81 5.11-10.08 9.13-7.07 8.67-2.99 22.16-14.39 26.82-5.49 2.24-19.26 4.14-25 2.51-4.09-1.17-8.54-4.56-14-5.61-3.45-.77-9.82.23-14 0h-17c-8.15-1.36-24.53-4.61-32-3.98-9.18.78-20.18 8.2-29 6.54-6.39-1.21-16.65-5.84-22-9.53-7.27-5.01-16.3-12.36-26-10.71-6.86 1.16-8.63 7.97-12.05 12.92-3.14 4.54-9.22 10.84-13.95 13.65-7.2 4.28-17.3 5.47-17.09 16.35.11 5.86 4.04 10.13 8.09 13.91 7.78 7.25 19.3 13.25 25.49 22.09 3.88 5.54 1.59 10.85 1.51 17-.05 4.33.39 8.87-1.13 13-2.73 7.44-10.58 12.7-15.51 20l-13.57 23.96c-4.56 5.07-21.93 14.06-28.79 18.24-12.59 7.69-21.39 17.19-36 21.37-11.46 3.29-13.26 3.48-25 3.43l-11-.63c-3.43.17-11.37.4-13.58 2.94-2.61 3.01-.3 6.02 1.47 8.69 7.5 11.35 6.11 11.99 6.11 25zm1339.04-415.39c-2.59 1.52-3.72 2.14-4.12 5.39v8c-.04 5.13-3.23 15.27 3.14 17.85 3.39 1.37 6.26-1.75 8.36-3.94 4.07-4.22 7.39-7.97 13.58-8.72 12.28-1.49 29.76 13.05 42 15.8 3.7.83 8.37 2.11 12 .75 9.12-3.42 11.73-14 6.35-21.74-4.9-7.04-10.2-8.96-18.35-9l-30 1.04c-4.73.21-7.95 1.4-13 .78-8.89-1.1-11.68-7.56-19.96-6.21z"/>
      <path d="M2459 1133.91c3.26.29 4.96.78 7.2 3.43 4.68 5.53.66 10.63-2.52 15.66-1.83 2.89-3.96 7.04-7.7 7.58-5.25.75-9.06-4.77-8.75-9.58.41-6.6 5.28-15.28 11.77-17.09z"/>
      <path d="M2446 1098.83c11.11-1.42 15.7 9.86 5.98 12.6-8.55 2.41-17.35-6.87-5.98-12.6z"/>
      <path d="M2570.01 925.84c9.06-.58 9.82 9.92 2.95 12.4-4.43 1.6-8.87-2.18-8.38-6.24.39-3.3 2.79-4.82 5.43-6.16z"/>
      <path d="M2572.06 906.07c8.56-2.04 9.35 7.24 2.92 9.09-4.09 1.17-10.03-3.64-2.92-9.09z"/>
      <path d="M131 875c-.42 2.16-.84 5.01-1.98 6.9-.83 1.36-1.74 2.23-3.08 3.09-13.84 9.01-15.24-13.07-.94-12.28 2.33.13 4.02 1.23 6 2.29z"/>
      <path d="M1689 861h1l-1 1z"/>
      <path d="M2722 849.78c12.82 2.1 6.91 15.84-1 15.65-5.1-.12-10.46-6.26-7.67-11.24 1.9-3.4 5.15-4.08 8.67-4.41z"/>
      <path d="M2706 830.61c12.05-.92 8.44 14.47.98 15.9-4.63.89-9.15-3.97-8.22-8.51.82-4.04 3.69-6.03 7.24-7.39z"/>
      <path d="M219.98 812.29c12.01 3.9-2.4 19.24-7.95 19.26-4.66.02-6.19-4.7-4.78-8.55 2.03-5.5 7.13-9.49 12.73-10.71z"/>
      <path d="M2447.09 786.87c13.19-2.7 12.95 19.71 1.91 16.91-6.32-1.6-10.57-11.62-1.91-16.91z"/>
      <path d="M98 661.79c11.11-1.41 6.6 12.71 1.89 14.07-4.77 1.38-11.24-4.75-9.27-9.59 1.02-2.51 5.03-3.65 7.38-4.48z"/>
      <path d="M1099.98 383.87c6.93 1.55 4.25 10.76 1.32 15.13-5.93 8.83-10.75 5.58-16.3 8.85-3.06 1.81-5.4 5.1-9 5.79-2.83.55-18.14-3.68-13.38-8.83l6.38-4.2 8-6.76c3.47-2.31 7.22-3.1 11-4.72 4.1-1.76 7.6-4.29 11.98-5.26z"/>
      <path d="M535 347.58c12.11-1.53 8.96 10.31 1.98 12.23-4.75 1.31-8.94-3.28-7.36-7.76.99-2.81 2.9-3.47 5.38-4.47z"/>
      <path d="M437.24 353c-2.3-.37-8.55-1.1-9.93-2.02-3.15-2.12-3.38-11.93 0-13.91 5.66-3.31 7.36 4.58 8.56 7.93.6 1.66 1.52 3.19 1.37 5 .33 1.65-.06 2.12 0 3z"/>
      <path d="M771 326.66c6.86-1.06 9.15 2.21 15 4.83 4.6 2.05 10.35 2.86 12.01 8.51 1.28 4.41-3.43 14.79-9.01 12.83-2.94-1.03-6.76-6.06-8.08-8.83-.7-1.46-1.23-4.25-2.5-5.18-3.3-2.4-6.25 4.4-11.38 3.62-3.54-.54-5.27-4.15-4.57-7.44.94-4.39 4.72-6.76 8.53-8.34z"/>
      <path d="M874 320.69c13.05-1.36 18.25 15.93 3 17.94-12.06 1.59-16.8-12.34-3-17.94z"/>
      <path d="M532 304.54c13.2-1.47 12.73 9.23 10.37 18.46-3.07 12.01-4.54 17.55-18.37 16.98-5.68-.23-11.58-4.66-9.39-10.89.91-2.58 3.34-3.9 3.83-6.18.49-2.25-1.29-4.36-.99-6.91.7-5.77 9.61-10.02 14.55-11.46z"/>
      <path d="M968.31 297.04c9.42-3 13.36 9.81 8.38 12.92-5.41 3.38-14.78-6.12-8.38-12.92z"/>
      <path d="M447.06 295.75c7.72-1.5 7.68 3.85 3.79 5.51-4.06 1.74-10.4-1.38-3.79-5.51z"/>
      <path d="M990.23 292.08c7.6-1.56 12.77 10.19 6.62 13.6-7.41 4.12-13.76-7.28-6.62-13.6z"/>
      <path d="M546.32 291.15c6.26-1 17.59 6.74 24.68 7.01 4.65.18 8.43-3.48 11.85-1.95 4.28 1.9 4.45 10.85-1.87 13.19-5.38 1.99-10.01-2.63-13.98-3.23-5.13-.77-9.51 4.46-15.91-.6-3.88-3.07-8.98-10.09-4.77-14.42z"/>
      <path d="M1096.14 278.13c7.25-1.22 9.66 6.98 4.71 9.68-5.16 2.81-11.28-4.23-4.71-9.68z"/>
      <path d="M446.2 245.17c4.55-.45 5.84 2.95 7.33 6.83 2.6 6.76.04 14.06-6.54 17.42-5.17 2.63-7.74-.29-7.93-5.42-.21-5.77 2.61-15.23 7.14-18.83z"/>
      <path d="M619.04 231.05c4.16.6 8.61 5.29 7.26 9.89-1.7 5.78-10.52 3.75-13.78 6.8-2.52 2.36-1.04 6.58-4.67 7.13-4.29.65-7.33-4.06-6.52-7.86 1.09-5.06 6.11-5.52 9.49-8.42 3.75-3.23 3.12-5.31 8.22-7.54z"/>
      <path d="M1043 180.03c5.61-1.69 9.44.79 8.77 6.97-.56 5.14-5.21 15.04-9.81 17.77-7.74 4.59-10.4-3.49-9.85-9.77.56-6.49 5.75-11.56 10.89-14.97z"/>
      <path d="M1028.06 133.03c7.19-2.31 13.51 2.19 8.62 5.59-1.65 1.15-8.44 4.28-10.37 3.65-4.84-1.57-.53-7.47 1.75-9.24z"/>
      <path d="M790.21 103.85c1.44-.22 1.92-.79 3.65 0 1.95.47 2.79 2.19 2.41 4.17-.45 2.38-3.01 4.7-3.96 7.98l-1.23 15c-.17 1.96.04 4.62-1.68 5.98-2.21 1.75-12.29 1.79-11.87-5 .14-2.17 2.14-5.6 2.84-7.98l1.27-6c1.27-4.05 5.39-11.26 8.57-14.15z"/>
      <path d="M952 98.61c4.9-.11 8.53 1.85 10.83 6.39 2 3.96 1.26 9.67-3.85 10.43H954c-5.41-.06-8.07 1.34-13.98-1.28-2.81-1.25-5.43-3.67-4.36-7.05 1.44-4.58 12.04-7.5 16.34-8.49z"/>
      <path d="M802.28 78.08c5.49.33 4.67 4.33 2.44 5.04-2.42.77-6.37-2.33-2.44-5.04z"/>
    </g>
    <g id="Railroad" class="road_rail">
      <path d="M.493 573.4285s1715.2425 2.7997 1778.6513.9948c63.4088-1.8049 136.9573-30.6797 169.5685-46.0508 32.6112-15.3712 98.0664-43.0336 136.6416-101.4664 38.5752-58.4328 105.2124-166.0293 147.5172-236.9217C2275.1764 119.0919 2340.157 1.7386 2340.157 1.7386"/>
      <path d="m96.812 636.0024 586.3534 2.4824"/>
      <path d="m96.812 734.3072 586.3534 1.986"/>
      <path d="m467.6892 636.4988 172.2817 51.1384"/>
      <path d="m466.6962 735.3002 172.7782-47.663"/>
      <path d="M96.812 687.1407s1501.182.524 1568.9051.4965c67.7231-.0275 117.6932-10.4279 173.7711-33.7612 56.0779-23.3334 94.7276-45.8551 130.5766-81.4242 35.849-35.5691 103.9773-126.138 103.9773-126.138"/>
    </g>
    <g id="Concrete" class="cement">
      <path d="M1885.23 984.74c5.09-1.35 16.01-.74 21.77-.74h215c3.44 0 13.02-.58 15.57 1.17 2.9 2 2.42 6.71 2.43 9.83v307c-.02 10.15-.85 10.98-11 11h-229c-3.44 0-13.02.58-15.57-1.17-2.9-2-2.42-6.71-2.43-9.83v-297c0-3.45-.42-15.3.74-17.77.81-1.74 1.17-1.54 2.49-2.49z"/>
      <path d="M986 976h224c3.44 0 13.02-.58 15.57 1.17 2.9 2 2.42 6.71 2.43 9.83v263h-6v80h6v108l-1.74 7.26-9.26 1.74h-120v85h17v75H988l-5.98-1.6-1.02-9.4h3v-415h-3v-26h5z"/>
      <path d="M265 803.02c5.68-1.9 18.46-1.02 25-1.02h255c8.36.16 11.38 5.37 17 11 6.57 6.58 7.98 6.73 8 16v47c-.02 9.81-2.08 10.08-9 17s-7.19 8.98-17 9H273c-9.22-.06-10.71-3.71-17-10-6.92-6.93-8.98-7.18-9-17v-47c0-2.09-.12-5.06.6-7 1.56-4.26 13.39-15.31 17.4-17.98z"/>
      <path d="M836 791h-70c-11.75-.02-12.98-4.15-13-15v-53c0-5.71-1.07-16.42 2.51-20.87 3.94-4.89 12.69-5.12 18.49-5.13h650c2.94.04 6.17-.02 8.26 2.43 2.05 2.41 1.74 6.58 1.74 9.57v72c-.08 4.27-.53 7.47-5.02 9.26-2.7 1.08-10.7.74-13.98.74h-28c0 14.29 1.44 16.93-9 17h-53c-8.74-.06-8.98-1.76-9-10v-7h-149c0 3.61.82 13.98-1.6 16.4-1.92 1.92-5.86 1.59-8.4 1.6h-40c0 3.61.82 13.98-1.6 16.4-1.92 1.92-5.86 1.59-8.4 1.55h-44.98c-8.57-1.48-2.6-10.87-6.62-15.64-2.27-2.69-6.22-2.3-9.4-2.31h-29c-2.73-.02-6.25.27-7.98-2.31-1.57-2.36-1.02-12.42-1.02-15.69H908c0 3.96 1.14 14.68-2.31 16.98-1.85 1.23-5.5 1.02-7.69 1.02h-54c-9.62-.18-8-3.96-8-18z"/>
      <path d="M896 563H764c-3.04-.06-5.36-.08-7.72-2.31-3.54-3.34-3.27-8.24-3.28-12.69v-53c0-5.71-1.07-16.42 2.51-20.87 3.94-4.89 12.69-5.12 18.49-5.13h650c2.94.04 6.17-.02 8.26 2.43 2.05 2.41 1.74 6.58 1.74 9.57v70c-.02 10.75-2.68 11.98-13 12h-84v21h73c5.36 0 19.87-1.61 22.83 3.23 1.39 2.27 1.17 6.14 1.17 8.77v70c-.02 10.75-2.68 11.98-13 12H782c-4.04 0-20.29.43-22.98-.6-1.85-.7-3.09-1.81-4.17-3.46-2.07-3.19-1.84-7.29-1.85-10.94v-53c0-5.71-1.07-16.42 2.51-20.87 3.94-4.89 12.69-5.12 18.49-5.13h122zm426 0H911v21h411z"/>
      <path d="M1415.31 268.02 1437 267l6.4 1.6 1.6 8.4v113l-1.6 6.4-8.4 1.6h-14l-6.4-1.6-1.52-8.4V271.06z"/>
      <path d="M1225.31 221.02c4.68-1.78 16.22-1.12 21.69-1.02 2.14.04 4.77-.04 6.4 1.6 1.92 1.92 1.59 5.86 1.6 8.4v162c-.02 2.35.19 5.61-1.6 7.4-1.92 1.92-5.86 1.59-8.4 1.6h-12c-2.54-.01-6.48.32-8.4-1.6-1.92-1.92-1.59-5.86-1.6-8.4V234c0-4.63-1-9.43 2.31-12.98z"/>
    </g>
    <g id="Bunker_entr" class="building">
      <path d="m661 1396 17.71 21.04c1.82 2.4 6.39 9.43 8.8 10.82 1.54.44 6.56.14 8.49 0h23l20-.86c9.79-.07 10.99-4.68 16.65-12l12.35-16 6 3-14 38h-77l-7.62-1.02-13.43-19.98-5.86-11z"/>
      <path d="M327 1386.96c-4.04 8.83-5.91 7.36-14 9.44l-11 3.34c-3.42.88-8.5 3-11.83 1.22-2.86-1.52-11.73-14.54-14.17-17.96l-29.29-40c-2.29-3.2-10.28-13.8-10.87-17-.7-3.82 3.7-8.19 5.96-11l10.6-13c1.46-1.79 3.5-4.59 5.77-5.31 2.35-.74 4.71.44 6.83 1.31l-4.05 15-4.02 13 7.87 15 18.2 30 10.3 13.98 10.7 1.06 8 .92z"/>
      <path d="m2558 1039 5.1 6-1.75 11-5.35 24-34 8.13-44 10.87-16-19c-4.33-5.03-7.43-7.12-6-14l16 11.1 10 6.7 15-3.38 33-9.28 15.5-5.57 5.1-10.57z"/>
      <path d="M2512 433c-.38-2.64-.92-4.47.64-6.91 1.49-2.33 6.01-5.24 8.36-6.97 7.31-5.39 13.39-12.78 23-10.91 5.94 1.16 19.58 13.49 25 17.79l28 22.2c5.83 4.64 10.46 5.57 9.95 13.8-.25 3.89-1.17 4.83-1.69 8l-.69 10c-1.64 6.28-7.21 10.11-12.57 13v-28c-.15-7.91-4.03-9.35-10-13.87l-17-13c-3.14-2.38-14.27-11.63-17.28-12.03-2.36-.32-9.06 1.64-11.72 2.25z"/>
      <path d="M771 359.3843h300V404h-33v-4h-62v3H852v-4h-63v4h-18z"/>
      <path d="M440 359.3843h288V403H440Z"/>
    </g>
    <g id="Buildings" class="building">
      <path d="M1735 2012.72c7.03-1.06 8.15 4.12 11.75 9.28 4.75 7.69 10.31 12.75 0 18.64-1.04.75-2.3 1.46-3.75 1.85-7.37 1.98-12.04-8.11-15.17-13.49-1.36-2.32-2.98-5.16-2.46-7.96.77-4.18 6.12-6.8 9.63-8.32z"/>
      <path d="m1767 1948 10.1862 39.9779L1724.72 2001l-9.12-39.7z"/>
      <path d="M1832 1936.52c1.86-.23 3.75-.7 5.44.51 1.69 1.21 2.6 5 3.22 6.97l5.36 18c.85 2.75 2.72 7.82 1.4 10.57-1.05 2.2-4.28 2.78-6.42 3.45l-19 5.51c-7.13 1.19-7.01-2.84-8.72-8.53-2.54-8.44-5.94-16.09-3.24-25 .53-1.74 1.28-3.93 2.66-5.18 1.95-1.78 15.96-5.46 19.3-6.3z"/>
      <path d="m1592.8159 1927.296 12.2928-3.9884s9.7691-11.4324 21.8913-16.8476c8.69-3.4 15.92-3.5 25-3.46l15 1.65c4.85-.1 14.5199-3.5381 14.5199-3.5381S1685.07 1912.06 1686.85 1915c2.76 4.56 8.38 7.9 13.84 20 4.14 9.18 4.36 17.22 4.31 27l-1.04 11.58c.07 3.74 3.7581 16.0862 3.7581 16.0862S1701.5 1992.51 1698 1993.68c-4.26 1.43-10.96 6.47-11.17 11.32 17.9349 69.3806 19.17 74 19.17 74l-69.4079 17.1841L1622.15 2040l-8.85-34c-1.72-4.04-7.23-8.72-10.26-13-7.02-9.94-10.02-19.9-9.96-32v-10c.54-4.54 2.48-9.74 2.08-14z"/>
      <path d="m1789 1885 20-5.86c2.52-.72 7.38-2.37 9.86-1.79 3.28.77 3.92 4.86 4.8 7.65l6.32 21c.63 2.29 1.63 6.19 0 8.28-1.31 1.74-8.62 3.61-10.98 4.3-4.68 1.36-10.17 3.35-15 1.72-7.42-2.51-8.5-8.71-10.42-15.3-2.09-7.15-4.41-12.4-4.58-20z"/>
      <path d="M1216 1669h39v46h-39z"/>
      <path d="M699 1588h31v26h-31z"/>
      <path d="M42 1561h41v40H42z"/>
      <path d="m1118 1562 25-6 4 18-25 6z"/>
      <path d="M1097 1447h182v45h-60c-4.17 0-16.63-1.2-18.98 2.31-1.23 1.85-1.02 5.5-1.02 7.69v30h-102z"/>
      <path d="M2274 1421h20v26h-20z"/>
      <path d="M1771 1401h30v34h-30z"/>
      <path d="M1882 1391h258v80h-258z"/>
      <path d="M1222 1250h76v32c.05 2.52-.05 5.4 2.31 6.98 1.71 1.14 4.69 1.01 6.69 1.02h24v36h-24c-4.67.03-6.54-.36-9 4h-76z"/>
      <path d="M883 1181h101v415H883z"/>
      <path d="M1470 1146.78c1.98-.37 2.8-.88 4.96 0 3.66 1.04 10.79 10.31 13.69 13.46l15.11 16.71c1.89 2.25 4.29 4.88 3.82 8.06-.58 3.94-5.73 7.5-8.58 10.06-2.01 1.81-4.39 4.29-7 5.17-6.74 2.29-15.27-10.79-19.34-15.24l-13.18-14.83c-2.38-2.76-5.08-5.1-4.15-9.15.76-3.28 5.18-6.7 7.67-8.95 2.82-2.54 3.7-3.28 7-5.29z"/>
      <path d="M1887 1140h23v38h-23z"/>
      <path d="M1406 1139h26v53h-26z"/>
      <path d="M2709 1047h27v30h-27z"/>
      <path d="M2219 1030h84v259h-84z"/>
      <path d="M1568 992h123v30c0 2.78-.42 9.52 1.02 11.69 1.84 2.76 6.07 2.3 8.98 2.31h66v157h-55v35h-200v-125h23c2.91-.01 7.14.45 8.98-2.31 1.51-2.27 1.02-10.66 1.02-13.69v-32c18.12 0 22.81 2.14 23-8z"/>
      <path d="M1231 978h116v175h-26c-2.52.05-5.4-.05-6.98 2.31-1.23 1.85-1.02 5.5-1.02 7.69v32h-69v-32c-.01-2.54.32-6.48-1.6-8.4-2.17-2.18-8.39-1.6-11.4-1.6z"/>
      <path d="M859 976h127v179H859z"/>
      <path d="M2277 917h32v43h-32z"/>
      <path d="M62 909h28v30H62z"/>
      <path d="M1572 827h188v82h-188z"/>
      <path d="M643 819h67v46h-67z"/>
      <path d="M1115 809h17v18h-17z"/>
      <path d="M1970 769h220v37c.12 6.28 1.72 7.88 8 8h31v94h-31c-2.52.05-5.4-.05-6.98 2.31-1.58 2.38-1.02 13.31-1.02 16.69h-30c0-4.07 1.17-15.65-2.31-17.98-1.85-1.23-5.5-1.02-7.69-1.02h-102c-2.14.04-4.77-.04-6.4 1.6-1.92 1.92-1.59 5.86-1.6 8.4v9h-30c0-4.07 1.17-15.65-2.31-17.98-1.85-1.23-5.5-1.02-7.69-1.02h-124V781h72c17.43 0 21.81 2.02 22-8z"/>
      <path d="M1100 699h155v91h-155z"/>
      <path d="M921 699h155v91H921z"/>
      <path d="M1100 587h155v91h-155z"/>
      <path d="M921 586h155v91H921z"/>
      <path d="M87 507h39v35H87z"/>
      <path d="M1735 479h54v29h-54z"/>
      <path d="M1100 472h155v91h-155z"/>
      <path d="M921 472h155v91H921z"/>
      <path d="M239 469h240v49c.18 9.38 4.15 8 14 8v18c-3.13 0-10.17-.64-12.4 1.6-1.92 1.92-1.59 5.86-1.6 8.4v22c.01 2-.12 4.98 1.02 6.69 1.58 2.36 4.46 2.26 6.98 2.31h23v42h-23l-6.4 1.6-1.6 8.4v75H255v-63c0-4.27 1.23-17.62-2.31-19.98-1.85-1.23-5.5-1.02-7.69-1.02h-25v-41h26c2.35-.02 5.61.19 7.4-1.6 1.92-1.92 1.59-5.86 1.6-8.4v-56c-.01-7.22.15-9.85-8-10h-8z"/>
      <path d="M1754 396h36l-1 17h-35z"/>
      <path d="M1653 338h84v51h-84z"/>
      <path d="M1530 338h84v51h-84z"/>
      <path d="M2210.53 311.99c7.5-2.87 19.64 6.32 26.47 9.76 2.36 1.19 7.36 3.17 8.41 5.64 1.06 2.47-.34 5.43-1.45 7.61-1.87 3.66-8.99 18.29-11.57 19.83-2.42 1.79-5.92.81-8.39 0l-19-10.08c-2.61-1.32-6.33-2.88-7.36-5.85-.9-2.62.51-5.6 1.68-7.9 2.26-4.42 8.11-16.06 11.21-19.01z"/>
      <path d="M2704 262h37v42h-37z"/>
      <path d="m1853 244.2993 84.7007 8.5987L1938 308l-49.0818.2993L1889 331h-36z"/>
      <path d="M118 233h66v133h-66z"/>
      <path d="M1719 181h43v40h-43z"/>
      <path d="M211 123h132v62H211z"/>
      <path d="M71 70h43v41H71z"/>
      <path d="M1091 66h42v40h-42z"/>
      <path d="M690 61h30v27h-30z"/>
    </g>
    <g id="Misc" class="misc">
      <path d="M1578 1529h27v16h-27z"/>
      <path d="M1428 1499h13v33h-13z"/>
      <path d="M1395 1499h13v33h-13z"/>
      <path d="M1549 1483h14v53h-14z"/>
      <path d="M1528 1483h14v53h-14z"/>
      <path d="M1507 1483h14v53h-14z"/>
      <path d="M1428 1447h13v33h-13z"/>
      <path d="M1395 1447h13v33h-13z"/>
      <path d="M1578 1446h27v16h-27z"/>
      <path d="m1089 1337 22-4c2.43-.47 7.16-1.66 9.27 0 4.24 3.33 1.32 10.01 1.51 14.09.14 2.95 1.88 4.93 2.22 11.91l-32 5-3.6-14.91zm2 31 22-4c2.43-.47 7.16-1.66 9.27 0 2.25 1.77 2.6 8.27 2.73 11l-32 5z"/>
      <path d="m1350 1240 31-8 2 12-31 8z"/>
      <path d="M1067 1096h32v12.06c1.7-.31 3.92-.89 5.49 0 2.68 1.66 4.4 8.56 1.93 10.86-1.37 1.28-6.45 2.76-8.42 3.41-6.85 2.29-13.73 5.31-21 5.67l-2-12 24-8h-32z"/>
      <path d="m1078 1024 3.41-23 2.33-8H1095l-4 32z"/>
      <path d="M1099 983h12v32h-12z"/>
      <path d="M524 861h28v15h-28z"/>
      <path d="M264 859h28v15h-28z"/>
      <path d="M524 832h28v15h-28z"/>
      <path d="M264 830h28v15h-28z"/>
      <path d="M469 825h16v54h-16z"/>
      <path d="M448 825h16v54h-16z"/>
      <path d="M427 825h16v54h-16z"/>
      <path d="M372 825h16v54h-16z"/>
      <path d="M351 825h16v54h-16z"/>
      <path d="M330 825h16v54h-16z"/>
      <path d="M1634 792h32.25c-.25 2.42-.38 5.71 0 8 1.46 4.42 7.43 13.76 11.76 15.4 2.72 1.03 18.01.6 21.99.6v12h-32c0-9.09.73-10.12-4.67-18-1.48-2.16-2.88-4.39-5.42-5.4-2.62-1.05-19.84-.6-23.91-.6z"/>
      <path d="M1339.96 516.07c5.69-1.34 10.32 5.13 8.89 8.93-.74 1.97-3.37 4.48-4.85 6-2.87 2.92-10.8 11.29-13.99 12.81-5.68 2.71-11.32-4.92-9.86-8.81 1.4-3.72 16.02-16.45 19.81-18.93z"/>
      <path d="M1873 478.17c6.56-.62 12.39 7.23 17 11.25 1.98 1.73 4.85 4.16 5.93 6.58 1.61 3.59-1.62 8.66-5.02 9.85-3.64 1.27-8.32-4.03-10.91-6.27l-7-6.3c-6.82-6.02-9.45-9.31 0-15.11z"/>
      <path d="M1864.51 400.88c4.27-.73 10.89 3.13 9.36 8.11-.64 2.1-3.69 5.05-5.21 6.75-2.24 2.51-10.9 13.03-13.27 14.26-3.84 2.01-11.21-3.71-9.25-8.72.74-1.86 4.28-5.6 5.72-7.2 3.78-4.18 8.12-10.1 12.65-13.2z"/>
      <path d="M1343 357h12v32h-12z"/>
      <path d="M1343 324h12v32h-12z"/>
      <path d="M1329 324h12v32h-12z"/>
      <path d="M1348 275h12v32h-12z"/>
      <path d="M1362 273h12v32h-12z"/>
      <path d="M1357.95 213.66c6.09.65 6.54 9.28 4.46 11.26-1.37 1.3-5.51 2.39-7.41 2.94l-17.96 4.79c-6 .4-8.07-8.91-4.71-11.37 2.01-1.48 22.1-6.93 25.62-7.62z"/>
      <path d="m1473 206 23-6c.82 2.81 3.41 10.17 2.36 12.7-1.23 2.99-12.12 5.49-15.36 6.26-1.73.45-3.81 1.06-5.44 0-2.29-1.54-4.13-10.18-4.56-12.96z"/>
      <path d="M1353.95 199.66c6.09.65 6.54 9.28 4.46 11.26-1.37 1.3-5.51 2.39-7.41 2.94l-17.96 4.79c-6 .4-8.07-8.91-4.71-11.37 2.01-1.48 22.1-6.93 25.62-7.62z"/>
    </g>
    <path id="Chopper" d="m2021 1108 5.52-14c.25-2.71-4.6-14.61-5.84-18l-16.29-45c-.69-3.24-.5-13.36 5.39-10.83 2.15.92 2.97 3.87 3.8 5.83l5.82 15 5.8 15 8.8 24h2c1.71-4.58 5.37-13.53 9.13-16.49 5.06-3.99 15.9-1 18.85 4.53 1.63 3.06 1.02 14.9 1.02 18.96 5.6-2.65 9.67-7.67 14-12l22-22c2.66-2.65 10.54-11.89 14.69-9.85 1.14.57 1.7 1.72 1.95 2.91 1.28 5.99-5.95 12.17-9.63 15.94l-10.02 11-23.27 24c-5.01 5.7-7.1 6.05-6.71 14 .08 1.67.14 3.37 1.01 4.86 2.24 3.83 10.71 4.62 14.98 5.67l20 3.97 24 5.58 13.94 3.32c1.83.78 4 2.03 2.89 4.38-.55 1.17-1.79 1.93-2.89 2.5-6.82 3.57-11.37.29-17.94-.97l-24-4.85-18-2.92c-3.72-.71-12.51-3.96-15.77-2.35-3.28 1.61-5.14 13.42-4.53 16.81.75 4.2 4.54 11.93 6.3 16l5.76 15 5.98 14 5.41 14c.62 2.35.75 5.08-2.3 5.58-6.06 1-10.37-8.08-12.26-12.58l-12.8-29c-2.57-5.62-2.89-9.89-8.79-13l-7.95 29-6.05 21c3.88.32 13.75 1.64 16.69 3.93 3.51 2.73 2.1 9.78-1.83 11.47-2.14.92-11.02.59-13.86.6-5.09.01-8.41-.65-10.17 5.02-.41 1.31-.93 3.59-.72 4.94.46 3.02 3.38 4.64 2.98 6.82-.32 1.73-2.74 2.18-4.11 2.7-8.92 3.42-5.83 1.99-13.98-2.48-.61 1.86-1.86 6.88-3.5 7.83-3.49 2.03-3.29-4.19-3.03-5.83l4.09-17.68c1.33-2.39 3.89-2.16 4.6 0 .72 1.42-.02 5.9 0 7.68h2.84l1-11c-4.09-1.45-17.98-7.57-20.39-10.55-2.3-2.85-1.02-9.46 2.53-10.81 3.08-1.18 14.31 2.14 18.86 2.36l.91-10 2.26-27 1.83-15c-6.17 2.78-26.98 21.48-33 27.09l-8 7.49c-6.45 4.85-15.21 4.27-13.34-1.43.95-2.92 9.69-10.1 12.34-12.43l28-25.76c7.36-7.08 7.42-7.52 9.5-16.96.38-1.76 1.21-4.12.72-5.89-1.22-4.35-14.03-6.66-18.22-7.82l-38-8.78c-5.83-1.24-13.26-1.63-17.68-6.19-2.6-2.69-2.25-6.17 1.74-6.84 2.57-.43 12.49 2.12 15.94 2.65z" class="chopper"/>
  </g>
</svg>
