<svg xmlns="http://www.w3.org/2000/svg" viewBox="0 0 837.483 520.816"><defs><style>.cls-1,.cls-14,.cls-4,.cls-7,.cls-8{fill:none;}.cls-1{stroke:#414042;stroke-linecap:square;stroke-width:11px;}.cls-1,.cls-14,.cls-4,.cls-7,.cls-8,.cls-9{stroke-miterlimit:10;}.cls-2{fill:#f1f2f2;}.cls-3{fill:#414042;}.cls-4{stroke:#6d6e71;stroke-width:5px;}.cls-5{fill:#6d6e71;}.cls-6{fill:#00333c;}.cls-7{stroke:#c57c58;stroke-dasharray:6;}.cls-14,.cls-7{stroke-width:3px;}.cls-8,.cls-9{stroke:#a8abab;stroke-width:8px;}.cls-9{fill:#fff;}.cls-10{fill:#a8abab;}.cls-11{fill:#b0b3b3;}.cls-12{fill:#c3e7ec;}.cls-13{fill:#aaccce;}.cls-14{stroke:#c4e3c3;}</style></defs><g id="Bunkers"><g id="basement_outline"><polyline class="cls-1" points="634.668 306.262 634.668 285.184 584.527 285.14 584.527 306.262"/><polyline class="cls-1" points="684.502 278.224 656.069 278.224 656.069 227.472 683.279 227.472"/><polyline class="cls-1" points="656.069 179.166 656.069 227.472 640.171 227.472"/><polyline class="cls-1" points="519.048 184.364 519.048 194.612 546.005 194.612 546.005 203.319 656.069 203.319"/><polyline class="cls-1" points="584.527 285.14 546.846 286.086 546.005 203.319"/><line class="cls-1" x1="656.069" y1="278.224" x2="619.763" y2="278.224"/><line class="cls-1" x1="619.763" y1="285.184" x2="619.763" y2="272.797"/><line class="cls-1" x1="625.496" y1="203.319" x2="625.496" y2="233.587"/><line class="cls-1" x1="525.274" y1="257.663" x2="555.33" y2="260.002"/><polyline class="cls-1" points="528.849 468.753 582.583 443.181 584.527 340.44 539.463 340.44 539.463 325.805 546.224 325.805 546.846 286.086"/><polyline class="cls-1" points="630.999 380.525 619.992 380.525 619.992 373.374 590.413 373.374 590.413 380.525 578.26 380.525"/><polyline class="cls-1" points="190.744 178.497 155.741 178.497 155.741 126.275 277.878 128.078 276.655 169.8 302.642 168.652"/><rect class="cls-2" x="676.748" y="220.122" width="23.665" height="67.964"/><path class="cls-3" d="M700.541,283.887v63.964H680.876V283.887h19.665m4-4H676.876v71.964h27.665V279.887Z" transform="translate(-2.128 -61.765)"/><polygon class="cls-2" points="573.356 318.44 573.356 298.863 643.772 298.342 640.661 318.44 573.356 318.44"/><path class="cls-3" d="M643.564,362.125l-2.488,16.081H577.484V362.613l66.08-.488m4.672-4.035-4.7.035-66.08.489-3.97.029v23.563h71.021l.524-3.389,2.488-16.08.719-4.647Z" transform="translate(-2.128 -61.765)"/><polygon class="cls-2" points="569.278 182.717 569.278 157.261 597.56 157.72 597.56 150.041 672.897 152.163 672.897 186.437 569.278 182.717"/><path class="cls-3" d="M601.688,213.863l71.337,2.009v30.257l-99.618-3.576V221.059l28.281.459v-7.655m-4-4.114v7.7l-24.217-.392-4.064-.066v29.418l3.856.139,99.619,3.576,4.143.149V211.983l-3.887-.109L601.8,209.865l-4.112-.116Z" transform="translate(-2.128 -61.765)"/><polygon class="cls-2" points="544.742 275.879 544.203 222.873 550.749 222.873 552.817 213.684 643.355 214.639 645.926 275.879 544.742 275.879"/><path class="cls-3" d="M556.541,277.467l87.023.917,2.4,57.26H548.85l-.5-49.006h6.125l2.064-9.171m-3.192-4.034-.71,3.156-1.362,6.049h-6.965l.041,4.041.5,49.006.041,3.959H650.139l-.175-4.167-2.4-57.261-.159-3.792-3.795-.04-87.023-.917-3.234-.034Z" transform="translate(-2.128 -61.765)"/><rect class="cls-2" x="544.005" y="337.829" width="42.522" height="21.121"/><path class="cls-3" d="M586.656,401.594v17.121H548.133V401.594h38.523m4-4H544.133v25.121h46.523V397.594Z" transform="translate(-2.128 -61.765)"/><rect class="cls-2" x="542.095" y="371.374" width="43.81" height="18.303"/><path class="cls-3" d="M586.032,435.139v14.3H546.223v-14.3h39.809m4-4H542.223v22.3h47.809v-22.3Z" transform="translate(-2.128 -61.765)"/><path class="cls-2" d="M582.535,517.25a15.726,15.726,0,1,1,15.726-15.726A15.744,15.744,0,0,1,582.535,517.25Z" transform="translate(-2.128 -61.765)"/><path class="cls-3" d="M582.535,487.8a13.726,13.726,0,1,1-13.726,13.726A13.727,13.727,0,0,1,582.535,487.8m0-4a17.726,17.726,0,1,0,17.726,17.726A17.746,17.746,0,0,0,582.535,483.8Z" transform="translate(-2.128 -61.765)"/><rect class="cls-2" x="581.692" y="394.128" width="17.433" height="14.351"/><path class="cls-3" d="M599.253,457.893v10.351H585.821V457.893h13.432m4-4H581.821v18.351h21.432V453.893Z" transform="translate(-2.128 -61.765)"/><rect class="cls-2" x="566.64" y="405.723" width="17.432" height="11.469"/><path class="cls-3" d="M584.2,469.489v7.468H570.768v-7.468H584.2m4-4H566.768v15.468H588.2V465.489Z" transform="translate(-2.128 -61.765)"/><rect class="cls-2" x="190.791" y="124.275" width="42.306" height="39.221"/><path class="cls-3" d="M233.226,188.04v35.221H194.919V188.04h38.307m4-4H190.919v43.221h46.307V184.04Z" transform="translate(-2.128 -61.765)"/><rect class="cls-2" x="170.331" y="18.4" width="84.713" height="126.122"/><path class="cls-3" d="M255.173,82.165V204.287H174.46V82.165h80.713m4-4H170.46V208.287h88.713V78.165Z" transform="translate(-2.128 -61.765)"/><rect class="cls-2" x="141.967" y="18.4" width="137.911" height="26.181"/><path class="cls-3" d="M280.006,82.165v22.181H146.1V82.165H280.006m4-4H142.1v30.181H284.006V78.165Z" transform="translate(-2.128 -61.765)"/></g><g id="basement"><polyline class="cls-4" points="634.668 306.262 634.668 285.184 584.527 285.14 584.527 306.262"/><polyline class="cls-4" points="684.502 278.224 656.069 278.224 656.069 227.472 683.279 227.472"/><polyline class="cls-4" points="656.069 179.166 656.069 227.472 640.171 227.472"/><polyline class="cls-4" points="519.048 184.364 519.048 194.612 546.005 194.612 546.005 203.319 656.069 203.319"/><polyline class="cls-4" points="584.527 285.14 546.846 286.086 546.005 203.319"/><line class="cls-4" x1="656.069" y1="278.224" x2="619.763" y2="278.224"/><line class="cls-4" x1="619.763" y1="285.184" x2="619.763" y2="272.797"/><line class="cls-4" x1="625.496" y1="203.319" x2="625.496" y2="233.587"/><line class="cls-4" x1="525.274" y1="257.663" x2="555.33" y2="260.002"/><polyline class="cls-4" points="528.849 468.753 582.583 443.181 584.527 340.44 539.463 340.44 539.463 325.805 546.224 325.805 546.846 286.086"/><polyline class="cls-4" points="630.999 380.525 619.992 380.525 619.992 373.374 590.413 373.374 590.413 380.525 578.26 380.525"/><polyline class="cls-4" points="190.744 178.497 155.741 178.497 155.741 126.275 277.878 128.078 276.655 169.8 302.642 168.652"/><rect class="cls-5" x="678.748" y="222.122" width="19.665" height="63.964"/><polygon class="cls-5" points="638.948 316.44 641.436 300.36 575.355 300.848 575.355 316.44 638.948 316.44"/><polygon class="cls-5" points="670.897 184.364 670.897 154.107 599.559 152.098 599.559 159.752 571.278 159.294 571.278 180.788 670.897 184.364"/><polygon class="cls-5" points="643.84 273.879 546.722 273.879 546.224 224.873 552.349 224.873 554.413 215.702 641.436 216.619 643.84 273.879"/><rect class="cls-5" x="548.133" y="401.594" width="38.522" height="17.121" transform="translate(1132.661 758.544) rotate(180)"/><rect class="cls-5" x="546.223" y="435.139" width="39.81" height="14.302" transform="translate(1130.127 822.815) rotate(180)"/><circle class="cls-5" cx="580.406" cy="439.759" r="13.726"/><rect class="cls-5" x="585.821" y="457.893" width="13.432" height="10.351" transform="translate(1182.946 864.372) rotate(180)"/><rect class="cls-5" x="570.768" y="469.489" width="13.432" height="7.468" transform="translate(1152.839 884.681) rotate(180)"/><rect class="cls-5" x="194.919" y="188.04" width="38.306" height="35.221" transform="translate(426.017 349.536) rotate(180)"/><rect class="cls-5" x="174.46" y="82.165" width="80.713" height="122.122" transform="translate(427.504 224.686) rotate(180)"/><rect class="cls-5" x="146.095" y="82.165" width="133.911" height="22.181" transform="translate(423.973 124.745) rotate(180)"/></g></g><g id="Ground_Level" data-name="Ground Level"><polygon id="ground" class="cls-6" points="751.869 320.173 801.364 304.246 837.483 266.591 837.162 41.493 555.873 41.209 553.763 18.827 339.062 13.756 339.654 0 0 0 5.637 349.728 377.613 351.865 379.254 414.104 450.366 414.831 474.887 496.311 491.914 520.816 602.78 480.26 630.296 442.197 647.633 349.292 697.575 316.897 751.869 320.173"/><g id="rails"><path class="cls-7" d="M663.364,103.081c-15.518,23.77-27.849,33.225-40.513,46.4C599.6,173.664,566.227,190,534.58,196.242c-44.792,8.843-430.666,6.687-503,1.723" transform="translate(-2.128 -61.765)"/><path class="cls-7" d="M10.087,175.2c181.109,1.628,516.574,8.869,557.845-3.172,24.443-7.131,46.8-13.825,62.8-30.67" transform="translate(-2.128 -61.765)"/></g><g id="roads"><polyline class="cls-8" points="540.595 18.516 542.332 285.702 654.819 286.492 655.919 198.681 541.092 197.189"/><path class="cls-8" d="M756.334,248.809l-25.692,5.761s-22.871-55.581,6.095-80.435" transform="translate(-2.128 -61.765)"/><line class="cls-9" x1="720.668" y1="139.259" x2="541.376" y2="138.648"/><path class="cls-8" d="M578.768,510.889s37.128-28.083,37.147-36.624c.051-23.592-87.061,2.371-87.381-18.914-.291-19.34,77.5-12.784,80.5-32.854,2.089-13.975-85.561-7.25-85.561-7.25l-1.167-67.935,22.152.155" transform="translate(-2.128 -61.765)"/><polyline class="cls-8" points="541.742 195.018 43.365 192.63 40.991 84.707 541.023 84.468"/><line class="cls-8" x1="439.371" y1="194.528" x2="440.199" y2="84.513"/><line class="cls-8" x1="214.398" y1="193.449" x2="213.569" y2="84.624"/><line class="cls-8" x1="402.834" y1="284.722" x2="526.405" y2="285.59"/><polygon class="cls-10" points="723.797 104.654 738.019 119.236 739.993 116.256 747.485 120.119 761.889 107.417 738.045 90.669 723.797 104.654"/></g><g id="pavement"><polygon class="cls-11" points="427.7 162.707 223.113 161.864 223.881 146.319 427.493 149.222 427.7 162.707"/><polygon class="cls-11" points="427.412 136.385 225.793 135.683 226.527 120.584 427.211 123.289 427.412 136.385"/><polygon class="cls-11" points="428.117 114.096 222.697 113.516 223.879 94.737 427.867 97.801 428.117 114.096"/></g><g id="buildings"><polygon class="cls-12" points="677.266 290.79 677.54 218.999 704.042 219.141 702.623 290.97 677.266 290.79"/><polygon class="cls-12" points="646.976 299.603 573.937 299.066 572.41 319.48 644.157 320.043 646.976 299.603"/><polygon class="cls-12" points="679.88 166.112 597.671 165.346 597.535 153.067 566.859 152.951 567.183 185.677 598.295 185.819 598.332 190.336 678.85 190.712 679.88 166.112"/><polygon class="cls-13" points="679.88 166.112 679.328 147.518 597.555 147.222 597.671 165.346 679.88 166.112"/><polygon class="cls-12" points="470.121 160.288 470.056 181.624 525.844 181.888 524.267 159.913 470.121 160.288"/><polygon class="cls-12" points="480.661 212.396 510.821 212.554 511.455 223.213 532.283 223.327 532.452 276.756 454.133 276.223 452.926 230.271 469.307 230.525 469.355 218.677 480.423 218.736 480.661 212.396"/><polygon class="cls-12" points="396.746 202.082 365.674 201.927 365.827 256.871 396.446 257.065 396.746 202.082"/><polygon class="cls-12" points="395.302 268.908 363.56 267.188 363.206 282.226 395.213 283.644 395.302 268.908"/><polygon class="cls-12" points="357.262 331.108 357.334 309.565 325.268 309.32 325.21 331.444 357.262 331.108"/><path class="cls-12" d="M786.076,275.588c.068.319-43.878,6.792-43.878,6.792l-5.528,17.767,2.369,3.616,17.537,15,37.1-7.748s9.06-8.187,9.133-7.858-3.523-15.964-3.523-15.964Z" transform="translate(-2.128 -61.765)"/><polygon class="cls-12" points="776.665 167.008 777.652 159.903 769.582 156.489 769.567 139.426 775.159 141.156 774.033 129.815 797.058 129.888 804.581 136.876 806.243 165.32 776.665 167.008"/><polygon class="cls-12" points="782.318 104.803 779.989 94.583 772.146 89.139 749.002 81.247 750.719 63.033 759.486 53.078 776.391 53.89 801.651 72.585 801.766 94.172 793.561 101.567 782.318 104.803"/><path class="cls-12" d="M718.182,149.867c.139.732.467-27.865.467-27.865l-31.308-.752-8.564,7.965-.2,20.58,9.469,3.3,24.9.056Z" transform="translate(-2.128 -61.765)"/><polygon class="cls-12" points="558.84 74.213 569.145 75.038 571.683 46.749 559.365 46.734 558.84 74.213"/><polygon class="cls-12" points="533.968 107.937 534.357 95.99 519.341 95.266 518.561 107.896 533.968 107.937"/><polygon class="cls-12" points="531.998 74.97 532.864 66.768 518.055 66.744 517.718 74.317 531.998 74.97"/><polygon class="cls-12" points="380.318 162.707 380.545 147.753 320.586 148.704 319.891 162.464 380.318 162.707"/><polygon class="cls-12" points="314.898 149.268 314.938 162.444 257.013 163.202 255.279 149.048 314.898 149.268"/><polygon class="cls-12" points="380.724 135.94 380.024 123.907 318.182 123.718 318.435 135.731 380.724 135.94"/><polygon class="cls-12" points="313.56 135.714 312.061 122.376 253.081 121.255 253.538 135.513 313.56 135.714"/><polygon class="cls-12" points="379.918 112.048 380.128 98.885 319.5 98.737 317.642 111.876 379.918 112.048"/><polygon class="cls-12" points="313.419 111.831 310.287 98.714 255.083 99.47 255.559 111.671 313.419 111.831"/><polygon class="cls-12" points="315.908 67.383 315.403 5.862 225.931 5.849 226.415 67.234 237.771 76.12 298.75 76.235 315.908 67.383"/><polygon class="cls-12" points="207.521 64.758 206.945 5.846 121.731 5.834 120.922 65.972 135.021 76.235 191.11 75.457 207.521 64.758"/><polygon class="cls-12" points="89.332 29.428 88.875 12.194 50.212 12.183 51.331 29.401 89.332 29.428"/><polygon class="cls-12" points="42.037 34.768 22.46 34.751 23.082 70.236 42.885 70.623 42.037 34.768"/><polygon class="cls-12" points="9.987 11.19 15.645 11.191 14.828 3.227 8.931 3.227 9.987 11.19"/><polygon class="cls-12" points="26.197 98.568 25.48 86.972 11.767 86.943 12.385 98.534 26.197 98.568"/><polygon class="cls-12" points="135.9 158.21 134.87 104.9 151.472 104.94 151.661 97.288 60.655 97.086 61.038 104.722 66.883 104.736 66.111 159.883 135.9 158.21"/><polygon class="cls-12" points="512.852 68.067 513.729 55.553 487.936 56.217 486.756 66.693 512.852 68.067"/><polygon class="cls-12" points="480.286 65.708 481.519 55.509 455.447 55.473 455.79 66.642 480.286 65.708"/><polygon class="cls-12" points="288.124 333.656 261.918 333.44 258.397 202.636 289.065 201.545 288.124 333.656"/><path class="cls-12" d="M227.069,381.7s.055-15.571.124-15.455-7.179-5.84-7.179-5.84L208.277,368.2l-7.554.175s-8.586-8.286-9.392-7.6-7.131,2.951-7.131,2.951L183.158,377l12.056,12.745,21.868.178Z" transform="translate(-2.128 -61.765)"/><path class="cls-12" d="M148.392,378.019l.36-18.141-10.42-6.273-13.767-.1c-.24,0-11.336,4.271-11.336,4.271l-.78,24.666,27.611,2.111Z" transform="translate(-2.128 -61.765)"/><polygon class="cls-12" points="83.668 291.459 83.365 295.922 79.104 302.339 70.126 307.951 62.328 305.222 51.431 291.225 52.398 273.938 59.83 267.739 68.295 272.256 68.159 282.824 72.069 288.867 83.668 291.459"/><path class="cls-12" d="M74.136,311.524s-1.038-6.956-.572-6.954,5.948-1.045,5.948-1.045l-.834-11.172L74,292.326l-.018-8.072-21.646-.119.907,27.259Z" transform="translate(-2.128 -61.765)"/><polygon class="cls-12" points="205.63 183.47 205.075 170.794 182.473 170.698 182.216 183.972 205.63 183.47"/><polygon class="cls-12" points="573.366 466.831 569.777 458.032 555.579 462.203 559.869 473.329 573.366 466.831"/><polygon class="cls-12" points="566.106 452.29 560.762 439.744 549.485 441.96 554.094 455.419 566.106 452.29"/><polygon class="cls-12" points="541.146 476.424 535.633 459.973 518.816 465.02 525.498 478.345 541.146 476.424"/><polygon class="cls-12" points="519.751 494.3 511.698 475.4 517.251 472.734 507.975 449.124 479.445 456.805 498.704 500.537 519.751 494.3"/><path class="cls-12" d="M429.826,457.313l-.061-8.169,4.284,1.95,1.156-12.013-5.516-.051-.053-7.142s-21.712-1.071-21.969-.2-.513,21.569-.087,21.956,4.261,5.546,4.261,5.546Z" transform="translate(-2.128 -61.765)"/><polygon class="cls-12" points="396.607 377.798 396.746 361.33 385.071 360.731 383.543 378.431 396.607 377.798"/><polygon class="cls-12" points="316.142 164.573 316.156 173.192 296.638 173.687 296.054 164.429 316.142 164.573"/></g><g id="fencing"><polyline class="cls-14" points="254.013 333.374 254.176 280.957 236.659 280.835 235.99 260.883"/><polyline class="cls-14" points="235.988 250.777 235.117 208.604 242.785 208.644"/><polyline class="cls-14" points="203.283 203.707 203.086 213.025 110.462 213.44"/><line class="cls-14" x1="93.783" y1="213.351" x2="31.863" y2="214.069"/><line class="cls-14" x1="187.013" y1="206.325" x2="159.913" y2="205.355"/><line class="cls-14" x1="140.832" y1="205.258" x2="63.47" y2="204.864"/><polyline class="cls-14" points="45.087 204.77 9.13 204.587 8.69 154.554"/><line class="cls-14" x1="8.92" y1="142.927" x2="8.448" y2="122.208"/><line class="cls-14" x1="7.958" y1="105.667" x2="6.843" y2="59.017"/><line class="cls-14" x1="6.459" y1="47.81" x2="5.958" y2="1.773"/><line class="cls-14" x1="320.057" y1="180.188" x2="264.721" y2="180.649"/><line class="cls-14" x1="432.118" y1="179.572" x2="330.724" y2="179.123"/><line class="cls-14" x1="256.098" y1="180.611" x2="226.025" y2="180.476"/><polyline class="cls-14" points="533.204 146.159 455.419 145.88 455.974 164.952"/><line class="cls-14" x1="455.577" y1="170.9" x2="456.037" y2="186.906"/><line class="cls-14" x1="374.75" y1="343.065" x2="393.395" y2="343.223"/><polyline class="cls-14" points="405.224 343.323 508.643 344.199 508.929 328.031"/><polyline class="cls-14" points="508.959 313.547 509.762 295.586 414.833 294.895"/></g><g id="citern"><polygon class="cls-10" points="488.157 333.019 478.843 332.943 478.644 327.786 487.932 327.861 488.157 333.019"/><polygon class="cls-10" points="487.167 310.323 487.424 303.077 478.832 303.013 478.742 309.086 487.167 310.323"/><polygon class="cls-10" points="474.642 333.991 474.346 314.222 470.056 314.189 470.068 333.953 474.642 333.991"/><polygon class="cls-10" points="465.511 334.578 465.31 314.8 461.02 314.767 460.937 334.54 465.511 334.578"/><polygon class="cls-10" points="456.775 334.506 456.666 314.733 452.378 314.7 452.203 334.468 456.775 334.506"/><polygon class="cls-10" points="436.858 330.021 436.734 322.445 431.124 322.401 431.224 329.975 436.858 330.021"/><polygon class="cls-10" points="436.591 313.665 436.47 306.221 430.908 306.179 431.007 313.622 436.591 313.665"/><polygon class="cls-10" points="425.342 313.578 425.266 306.137 419.707 306.095 419.761 313.535 425.342 313.578"/><polygon class="cls-10" points="425.516 330.497 425.438 322.92 419.829 322.875 419.884 330.451 425.516 330.497"/></g><g id="random"><polygon class="cls-10" points="428.117 64.387 423.282 64.379 422.998 37.483 427.751 37.487 428.117 64.387"/><polygon class="cls-10" points="421.19 61.03 416.367 61.023 416.219 37.476 420.971 37.481 421.19 61.03"/><polygon class="cls-10" points="411.304 51.844 406.511 51.838 406.509 38.491 411.262 38.496 411.304 51.844"/><polygon class="cls-10" points="405.807 52.619 401.013 52.613 401.059 38.486 405.811 38.491 405.807 52.619"/><polygon class="cls-10" points="385.601 69.261 380.777 69.87 379.36 48.609 384.12 48.014 385.601 69.261"/><polygon class="cls-10" points="378.309 63.197 373.493 63.599 372.748 42.275 377.501 41.881 378.309 63.197"/><polygon class="cls-10" points="400.961 68.234 396.122 68.225 396.212 53.824 401.009 53.831 400.961 68.234"/><polygon class="cls-10" points="395.437 64.335 390.61 64.328 390.712 53.817 395.507 53.823 395.437 64.335"/><polygon class="cls-10" points="369.554 63.977 364.737 64.438 363.816 39.783 368.559 39.333 369.554 63.977"/><polygon class="cls-10" points="432.357 29.87 430.829 35.29 415.445 28.527 417.019 23.155 432.357 29.87"/><polygon class="cls-10" points="443.479 33.283 437.244 36.302 434.708 28.904 440.918 25.912 443.479 33.283"/><polygon class="cls-10" points="357.708 35.733 353.795 41.404 345.213 32.644 349.134 27.036 357.708 35.733"/></g><g id="heli"><path d="M615.767,301.487c.007,5.874-2.032,15.591-4.043,15.591l-.071,8.271c-.927.049-1.2.1-2.126.147l-.145-8.36c-2.4.107-3.329-10.365-3.382-15.43-.053-5.014,1.367-14.584,4.219-14.566C612.869,287.156,615.757,294.026,615.767,301.487Z" transform="translate(-2.128 -61.765)"/><rect x="607.861" y="323.995" width="5.325" height="1.976" transform="translate(1218.919 588.201) rotate(180)"/><rect x="609.559" y="283.938" width="1.931" height="36.297" transform="translate(910.482 -370.203) rotate(90)"/><rect x="609.559" y="283.938" width="1.931" height="36.297" transform="translate(1253.708 22.222) rotate(135)"/><rect x="609.559" y="283.938" width="1.931" height="36.297" transform="translate(390.297 -404.992) rotate(45)"/></g></g></svg>