<svg
   viewBox="0 0 883.2637 631.62368"
   version="1.1"
   id="svg343"
   xmlns="http://www.w3.org/2000/svg"
   xmlns:svg="http://www.w3.org/2000/svg">
  <defs
     id="defs4">
    <style
       id="style2">.cls-1,.cls-14,.cls-4,.cls-7,.cls-8{fill:none;}.cls-1{stroke:#414042;stroke-linecap:square;stroke-width:11px;}.cls-1,.cls-14,.cls-4,.cls-7,.cls-8,.cls-9{stroke-miterlimit:10;}.cls-2{fill:#f1f2f2;}.cls-3{fill:#414042;}.cls-4{stroke:#6d6e71;stroke-width:5px;}.cls-5{fill:#6d6e71;}.cls-6{fill:#00333c;}.cls-7{stroke:#c57c58;stroke-dasharray:6;}.cls-14,.cls-7{stroke-width:3px;}.cls-8,.cls-9{stroke:#a8abab;stroke-width:8px;}.cls-9{fill:#fff;}.cls-10{fill:#a8abab;}.cls-11{fill:#b0b3b3;}.cls-12{fill:#c3e7ec;}.cls-13{fill:#aaccce;}.cls-14{stroke:#c4e3c3;}</style>
  </defs>
  <g
     id="Bunkers"
     transform="rotate(15.209,43.154172,323.23182)">
    <g
       id="basement_outline">
      <polyline
         class="cls-1"
         points="634.668 306.262 634.668 285.184 584.527 285.14 584.527 306.262"
         id="polyline6" />
      <polyline
         class="cls-1"
         points="684.502 278.224 656.069 278.224 656.069 227.472 683.279 227.472"
         id="polyline8" />
      <polyline
         class="cls-1"
         points="656.069 179.166 656.069 227.472 640.171 227.472"
         id="polyline10" />
      <polyline
         class="cls-1"
         points="519.048 184.364 519.048 194.612 546.005 194.612 546.005 203.319 656.069 203.319"
         id="polyline12" />
      <polyline
         class="cls-1"
         points="584.527 285.14 546.846 286.086 546.005 203.319"
         id="polyline14" />
      <line
         class="cls-1"
         x1="656.06897"
         y1="278.224"
         x2="619.763"
         y2="278.224"
         id="line16" />
      <line
         class="cls-1"
         x1="619.763"
         y1="285.18399"
         x2="619.763"
         y2="272.797"
         id="line18" />
      <line
         class="cls-1"
         x1="625.49597"
         y1="203.319"
         x2="625.49597"
         y2="233.58701"
         id="line20" />
      <line
         class="cls-1"
         x1="525.27399"
         y1="257.66299"
         x2="555.33002"
         y2="260.00201"
         id="line22" />
      <polyline
         class="cls-1"
         points="528.849 468.753 582.583 443.181 584.527 340.44 539.463 340.44 539.463 325.805 546.224 325.805 546.846 286.086"
         id="polyline24" />
      <polyline
         class="cls-1"
         points="630.999 380.525 619.992 380.525 619.992 373.374 590.413 373.374 590.413 380.525 578.26 380.525"
         id="polyline26" />
      <polyline
         class="cls-1"
         points="190.744 178.497 155.741 178.497 155.741 126.275 277.878 128.078 276.655 169.8 302.642 168.652"
         id="polyline28" />
      <rect
         class="cls-2"
         x="676.74799"
         y="220.12199"
         width="23.665001"
         height="67.963997"
         id="rect30" />
      <path
         class="cls-3"
         d="m 700.541,283.887 v 63.964 h -19.665 v -63.964 h 19.665 m 4,-4 h -27.665 v 71.964 h 27.665 z"
         transform="translate(-2.128,-61.765)"
         id="path32" />
      <polygon
         class="cls-2"
         points="640.661,318.44 573.356,318.44 573.356,298.863 643.772,298.342 "
         id="polygon34" />
      <path
         class="cls-3"
         d="m 643.564,362.125 -2.488,16.081 h -63.592 v -15.593 l 66.08,-0.488 m 4.672,-4.035 -4.7,0.035 -66.08,0.489 -3.97,0.029 v 23.563 h 71.021 l 0.524,-3.389 2.488,-16.08 0.719,-4.647 z"
         transform="translate(-2.128,-61.765)"
         id="path36" />
      <polygon
         class="cls-2"
         points="597.56,150.041 672.897,152.163 672.897,186.437 569.278,182.717 569.278,157.261 597.56,157.72 "
         id="polygon38" />
      <path
         class="cls-3"
         d="m 601.688,213.863 71.337,2.009 v 30.257 l -99.618,-3.576 v -21.494 l 28.281,0.459 v -7.655 m -4,-4.114 v 7.7 l -24.217,-0.392 -4.064,-0.066 v 29.418 l 3.856,0.139 99.619,3.576 4.143,0.149 v -38.29 l -3.887,-0.109 -71.338,-2.009 z"
         transform="translate(-2.128,-61.765)"
         id="path40" />
      <polygon
         class="cls-2"
         points="552.817,213.684 643.355,214.639 645.926,275.879 544.742,275.879 544.203,222.873 550.749,222.873 "
         id="polygon42" />
      <path
         class="cls-3"
         d="m 556.541,277.467 87.023,0.917 2.4,57.26 H 548.85 l -0.5,-49.006 h 6.125 l 2.064,-9.171 m -3.192,-4.034 -0.71,3.156 -1.362,6.049 h -6.965 l 0.041,4.041 0.5,49.006 0.041,3.959 h 105.247 l -0.175,-4.167 -2.4,-57.261 -0.159,-3.792 -3.795,-0.04 -87.023,-0.917 -3.234,-0.034 z"
         transform="translate(-2.128,-61.765)"
         id="path44" />
      <rect
         class="cls-2"
         x="544.005"
         y="337.82901"
         width="42.521999"
         height="21.121"
         id="rect46" />
      <path
         class="cls-3"
         d="m 586.656,401.594 v 17.121 h -38.523 v -17.121 h 38.523 m 4,-4 h -46.523 v 25.121 h 46.523 z"
         transform="translate(-2.128,-61.765)"
         id="path48" />
      <rect
         class="cls-2"
         x="542.09497"
         y="371.37399"
         width="43.810001"
         height="18.302999"
         id="rect50" />
      <path
         class="cls-3"
         d="m 586.032,435.139 v 14.3 h -39.809 v -14.3 h 39.809 m 4,-4 h -47.809 v 22.3 h 47.809 z"
         transform="translate(-2.128,-61.765)"
         id="path52" />
      <path
         class="cls-2"
         d="m 582.535,517.25 a 15.726,15.726 0 1 1 15.726,-15.726 15.744,15.744 0 0 1 -15.726,15.726 z"
         transform="translate(-2.128,-61.765)"
         id="path54" />
      <path
         class="cls-3"
         d="m 582.535,487.8 a 13.726,13.726 0 1 1 -13.726,13.726 13.727,13.727 0 0 1 13.726,-13.726 m 0,-4 a 17.726,17.726 0 1 0 17.726,17.726 17.746,17.746 0 0 0 -17.726,-17.726 z"
         transform="translate(-2.128,-61.765)"
         id="path56" />
      <rect
         class="cls-2"
         x="581.69202"
         y="394.12799"
         width="17.433001"
         height="14.351"
         id="rect58" />
      <path
         class="cls-3"
         d="m 599.253,457.893 v 10.351 h -13.432 v -10.351 h 13.432 m 4,-4 h -21.432 v 18.351 h 21.432 z"
         transform="translate(-2.128,-61.765)"
         id="path60" />
      <rect
         class="cls-2"
         x="566.64001"
         y="405.72299"
         width="17.431999"
         height="11.469"
         id="rect62" />
      <path
         class="cls-3"
         d="m 584.2,469.489 v 7.468 h -13.432 v -7.468 H 584.2 m 4,-4 h -21.432 v 15.468 H 588.2 Z"
         transform="translate(-2.128,-61.765)"
         id="path64" />
      <rect
         class="cls-2"
         x="190.791"
         y="124.275"
         width="42.306"
         height="39.221001"
         id="rect66" />
      <path
         class="cls-3"
         d="m 233.226,188.04 v 35.221 H 194.919 V 188.04 h 38.307 m 4,-4 h -46.307 v 43.221 h 46.307 z"
         transform="translate(-2.128,-61.765)"
         id="path68" />
      <rect
         class="cls-2"
         x="170.33099"
         y="18.4"
         width="84.712997"
         height="126.122"
         id="rect70" />
      <path
         class="cls-3"
         d="M 255.173,82.165 V 204.287 H 174.46 V 82.165 h 80.713 m 4,-4 H 170.46 v 130.122 h 88.713 z"
         transform="translate(-2.128,-61.765)"
         id="path72" />
      <rect
         class="cls-2"
         x="141.967"
         y="18.4"
         width="137.911"
         height="26.181"
         id="rect74" />
      <path
         class="cls-3"
         d="m 280.006,82.165 v 22.181 H 146.1 V 82.165 h 133.906 m 4,-4 H 142.1 v 30.181 h 141.906 z"
         transform="translate(-2.128,-61.765)"
         id="path76" />
    </g>
    <g
       id="basement">
      <polyline
         class="cls-4"
         points="634.668 306.262 634.668 285.184 584.527 285.14 584.527 306.262"
         id="polyline79" />
      <polyline
         class="cls-4"
         points="684.502 278.224 656.069 278.224 656.069 227.472 683.279 227.472"
         id="polyline81" />
      <polyline
         class="cls-4"
         points="656.069 179.166 656.069 227.472 640.171 227.472"
         id="polyline83" />
      <polyline
         class="cls-4"
         points="519.048 184.364 519.048 194.612 546.005 194.612 546.005 203.319 656.069 203.319"
         id="polyline85" />
      <polyline
         class="cls-4"
         points="584.527 285.14 546.846 286.086 546.005 203.319"
         id="polyline87" />
      <line
         class="cls-4"
         x1="656.06897"
         y1="278.224"
         x2="619.763"
         y2="278.224"
         id="line89" />
      <line
         class="cls-4"
         x1="619.763"
         y1="285.18399"
         x2="619.763"
         y2="272.797"
         id="line91" />
      <line
         class="cls-4"
         x1="625.49597"
         y1="203.319"
         x2="625.49597"
         y2="233.58701"
         id="line93" />
      <line
         class="cls-4"
         x1="525.27399"
         y1="257.66299"
         x2="555.33002"
         y2="260.00201"
         id="line95" />
      <polyline
         class="cls-4"
         points="528.849 468.753 582.583 443.181 584.527 340.44 539.463 340.44 539.463 325.805 546.224 325.805 546.846 286.086"
         id="polyline97" />
      <polyline
         class="cls-4"
         points="630.999 380.525 619.992 380.525 619.992 373.374 590.413 373.374 590.413 380.525 578.26 380.525"
         id="polyline99" />
      <polyline
         class="cls-4"
         points="190.744 178.497 155.741 178.497 155.741 126.275 277.878 128.078 276.655 169.8 302.642 168.652"
         id="polyline101" />
      <rect
         class="cls-5"
         x="678.74799"
         y="222.12199"
         width="19.665001"
         height="63.964001"
         id="rect103" />
      <polygon
         class="cls-5"
         points="575.355,316.44 638.948,316.44 641.436,300.36 575.355,300.848 "
         id="polygon105" />
      <polygon
         class="cls-5"
         points="599.559,159.752 571.278,159.294 571.278,180.788 670.897,184.364 670.897,154.107 599.559,152.098 "
         id="polygon107" />
      <polygon
         class="cls-5"
         points="552.349,224.873 554.413,215.702 641.436,216.619 643.84,273.879 546.722,273.879 546.224,224.873 "
         id="polygon109" />
      <rect
         class="cls-5"
         x="548.133"
         y="401.59399"
         width="38.521999"
         height="17.121"
         transform="rotate(180,566.3305,379.272)"
         id="rect111" />
      <rect
         class="cls-5"
         x="546.22302"
         y="435.13901"
         width="39.810001"
         height="14.302"
         transform="rotate(180,565.0635,411.4075)"
         id="rect113" />
      <circle
         class="cls-5"
         cx="580.40601"
         cy="439.759"
         r="13.726"
         id="circle115" />
      <rect
         class="cls-5"
         x="585.82098"
         y="457.89301"
         width="13.432"
         height="10.351"
         transform="rotate(180,591.473,432.186)"
         id="rect117" />
      <rect
         class="cls-5"
         x="570.76801"
         y="469.48901"
         width="13.432"
         height="7.4679999"
         transform="rotate(180,576.4195,442.3405)"
         id="rect119" />
      <rect
         class="cls-5"
         x="194.91901"
         y="188.03999"
         width="38.306"
         height="35.221001"
         transform="rotate(180,213.0085,174.768)"
         id="rect121" />
      <rect
         class="cls-5"
         x="174.46001"
         y="82.165001"
         width="80.712997"
         height="122.122"
         transform="rotate(180,213.752,112.343)"
         id="rect123" />
      <rect
         class="cls-5"
         x="146.095"
         y="82.165001"
         width="133.911"
         height="22.181"
         transform="rotate(180,211.9865,62.3725)"
         id="rect125" />
    </g>
  </g>
  <g
     id="Ground_Level"
     data-name="Ground Level"
     transform="rotate(15.209,43.154172,323.23182)"
     style="display:inline">
    <polygon
       id="ground"
       class="cls-6"
       points="339.654,0 0,0 5.637,349.728 377.613,351.865 379.254,414.104 450.366,414.831 474.887,496.311 491.914,520.816 602.78,480.26 630.296,442.197 647.633,349.292 697.575,316.897 751.869,320.173 801.364,304.246 837.483,266.591 837.162,41.493 555.873,41.209 553.763,18.827 339.062,13.756 " />
    <g
       id="rails">
      <path
         class="cls-7"
         d="m 663.364,103.081 c -15.518,23.77 -27.849,33.225 -40.513,46.4 -23.251,24.183 -56.624,40.519 -88.271,46.761 -44.792,8.843 -430.666,6.687 -503,1.723"
         transform="translate(-2.128,-61.765)"
         id="path130" />
      <path
         class="cls-7"
         d="m 10.087,175.2 c 181.109,1.628 516.574,8.869 557.845,-3.172 24.443,-7.131 46.8,-13.825 62.8,-30.67"
         transform="translate(-2.128,-61.765)"
         id="path132" />
    </g>
    <g
       id="roads">
      <polyline
         class="cls-8"
         points="540.595 18.516 542.332 285.702 654.819 286.492 655.919 198.681 541.092 197.189"
         id="polyline135" />
      <path
         class="cls-8"
         d="m 756.334,248.809 -25.692,5.761 c 0,0 -22.871,-55.581 6.095,-80.435"
         transform="translate(-2.128,-61.765)"
         id="path137" />
      <line
         class="cls-9"
         x1="720.66803"
         y1="139.259"
         x2="541.37598"
         y2="138.64799"
         id="line139" />
      <path
         class="cls-8"
         d="m 578.768,510.889 c 0,0 37.128,-28.083 37.147,-36.624 0.051,-23.592 -87.061,2.371 -87.381,-18.914 -0.291,-19.34 77.5,-12.784 80.5,-32.854 2.089,-13.975 -85.561,-7.25 -85.561,-7.25 l -1.167,-67.935 22.152,0.155"
         transform="translate(-2.128,-61.765)"
         id="path141" />
      <polyline
         class="cls-8"
         points="541.742 195.018 43.365 192.63 40.991 84.707 541.023 84.468"
         id="polyline143" />
      <line
         class="cls-8"
         x1="439.371"
         y1="194.528"
         x2="440.19901"
         y2="84.513"
         id="line145" />
      <line
         class="cls-8"
         x1="214.39799"
         y1="193.44901"
         x2="213.569"
         y2="84.624001"
         id="line147" />
      <line
         class="cls-8"
         x1="402.83401"
         y1="284.72198"
         x2="526.40503"
         y2="285.59"
         id="line149" />
      <polygon
         class="cls-10"
         points="738.019,119.236 739.993,116.256 747.485,120.119 761.889,107.417 738.045,90.669 723.797,104.654 "
         id="polygon151" />
    </g>
    <g
       id="pavement">
      <polygon
         class="cls-11"
         points="427.493,149.222 427.7,162.707 223.113,161.864 223.881,146.319 "
         id="polygon154" />
      <polygon
         class="cls-11"
         points="427.211,123.289 427.412,136.385 225.793,135.683 226.527,120.584 "
         id="polygon156" />
      <polygon
         class="cls-11"
         points="427.867,97.801 428.117,114.096 222.697,113.516 223.879,94.737 "
         id="polygon158" />
    </g>
    <g
       id="buildings">
      <polygon
         class="cls-12"
         points="702.623,290.97 677.266,290.79 677.54,218.999 704.042,219.141 "
         id="polygon161" />
      <polygon
         class="cls-12"
         points="644.157,320.043 646.976,299.603 573.937,299.066 572.41,319.48 "
         id="polygon163" />
      <polygon
         class="cls-12"
         points="678.85,190.712 679.88,166.112 597.671,165.346 597.535,153.067 566.859,152.951 567.183,185.677 598.295,185.819 598.332,190.336 "
         id="polygon165" />
      <polygon
         class="cls-13"
         points="597.671,165.346 679.88,166.112 679.328,147.518 597.555,147.222 "
         id="polygon167" />
      <polygon
         class="cls-12"
         points="524.267,159.913 470.121,160.288 470.056,181.624 525.844,181.888 "
         id="polygon169" />
      <polygon
         class="cls-12"
         points="469.307,230.525 469.355,218.677 480.423,218.736 480.661,212.396 510.821,212.554 511.455,223.213 532.283,223.327 532.452,276.756 454.133,276.223 452.926,230.271 "
         id="polygon171" />
      <polygon
         class="cls-12"
         points="396.446,257.065 396.746,202.082 365.674,201.927 365.827,256.871 "
         id="polygon173" />
      <polygon
         class="cls-12"
         points="395.213,283.644 395.302,268.908 363.56,267.188 363.206,282.226 "
         id="polygon175" />
      <polygon
         class="cls-12"
         points="325.21,331.444 357.262,331.108 357.334,309.565 325.268,309.32 "
         id="polygon177" />
      <path
         class="cls-12"
         d="m 786.076,275.588 c 0.068,0.319 -43.878,6.792 -43.878,6.792 l -5.528,17.767 2.369,3.616 17.537,15 37.1,-7.748 c 0,0 9.06,-8.187 9.133,-7.858 0.073,0.329 -3.523,-15.964 -3.523,-15.964 z"
         transform="translate(-2.128,-61.765)"
         id="path179" />
      <polygon
         class="cls-12"
         points="804.581,136.876 806.243,165.32 776.665,167.008 777.652,159.903 769.582,156.489 769.567,139.426 775.159,141.156 774.033,129.815 797.058,129.888 "
         id="polygon181" />
      <polygon
         class="cls-12"
         points="801.651,72.585 801.766,94.172 793.561,101.567 782.318,104.803 779.989,94.583 772.146,89.139 749.002,81.247 750.719,63.033 759.486,53.078 776.391,53.89 "
         id="polygon183" />
      <path
         class="cls-12"
         d="m 718.182,149.867 c 0.139,0.732 0.467,-27.865 0.467,-27.865 l -31.308,-0.752 -8.564,7.965 -0.2,20.58 9.469,3.3 24.9,0.056 z"
         transform="translate(-2.128,-61.765)"
         id="path185" />
      <polygon
         class="cls-12"
         points="559.365,46.734 558.84,74.213 569.145,75.038 571.683,46.749 "
         id="polygon187" />
      <polygon
         class="cls-12"
         points="518.561,107.896 533.968,107.937 534.357,95.99 519.341,95.266 "
         id="polygon189" />
      <polygon
         class="cls-12"
         points="517.718,74.317 531.998,74.97 532.864,66.768 518.055,66.744 "
         id="polygon191" />
      <polygon
         class="cls-12"
         points="319.891,162.464 380.318,162.707 380.545,147.753 320.586,148.704 "
         id="polygon193" />
      <polygon
         class="cls-12"
         points="255.279,149.048 314.898,149.268 314.938,162.444 257.013,163.202 "
         id="polygon195" />
      <polygon
         class="cls-12"
         points="318.435,135.731 380.724,135.94 380.024,123.907 318.182,123.718 "
         id="polygon197" />
      <polygon
         class="cls-12"
         points="253.538,135.513 313.56,135.714 312.061,122.376 253.081,121.255 "
         id="polygon199" />
      <polygon
         class="cls-12"
         points="317.642,111.876 379.918,112.048 380.128,98.885 319.5,98.737 "
         id="polygon201" />
      <polygon
         class="cls-12"
         points="255.559,111.671 313.419,111.831 310.287,98.714 255.083,99.47 "
         id="polygon203" />
      <polygon
         class="cls-12"
         points="315.403,5.862 225.931,5.849 226.415,67.234 237.771,76.12 298.75,76.235 315.908,67.383 "
         id="polygon205" />
      <polygon
         class="cls-12"
         points="206.945,5.846 121.731,5.834 120.922,65.972 135.021,76.235 191.11,75.457 207.521,64.758 "
         id="polygon207" />
      <polygon
         class="cls-12"
         points="51.331,29.401 89.332,29.428 88.875,12.194 50.212,12.183 "
         id="polygon209" />
      <polygon
         class="cls-12"
         points="42.885,70.623 42.037,34.768 22.46,34.751 23.082,70.236 "
         id="polygon211" />
      <polygon
         class="cls-12"
         points="8.931,3.227 9.987,11.19 15.645,11.191 14.828,3.227 "
         id="polygon213" />
      <polygon
         class="cls-12"
         points="12.385,98.534 26.197,98.568 25.48,86.972 11.767,86.943 "
         id="polygon215" />
      <polygon
         class="cls-12"
         points="66.111,159.883 135.9,158.21 134.87,104.9 151.472,104.94 151.661,97.288 60.655,97.086 61.038,104.722 66.883,104.736 "
         id="polygon217" />
      <polygon
         class="cls-12"
         points="486.756,66.693 512.852,68.067 513.729,55.553 487.936,56.217 "
         id="polygon219" />
      <polygon
         class="cls-12"
         points="455.79,66.642 480.286,65.708 481.519,55.509 455.447,55.473 "
         id="polygon221" />
      <polygon
         class="cls-12"
         points="289.065,201.545 288.124,333.656 261.918,333.44 258.397,202.636 "
         id="polygon223" />
      <path
         class="cls-12"
         d="m 227.069,381.7 c 0,0 0.055,-15.571 0.124,-15.455 0.069,0.116 -7.179,-5.84 -7.179,-5.84 l -11.737,7.795 -7.554,0.175 c 0,0 -8.586,-8.286 -9.392,-7.6 -0.806,0.686 -7.131,2.951 -7.131,2.951 l -1.042,13.274 12.056,12.745 21.868,0.178 z"
         transform="translate(-2.128,-61.765)"
         id="path225" />
      <path
         class="cls-12"
         d="m 148.392,378.019 0.36,-18.141 -10.42,-6.273 -13.767,-0.1 c -0.24,0 -11.336,4.271 -11.336,4.271 l -0.78,24.666 27.611,2.111 z"
         transform="translate(-2.128,-61.765)"
         id="path227" />
      <polygon
         class="cls-12"
         points="59.83,267.739 68.295,272.256 68.159,282.824 72.069,288.867 83.668,291.459 83.365,295.922 79.104,302.339 70.126,307.951 62.328,305.222 51.431,291.225 52.398,273.938 "
         id="polygon229" />
      <path
         class="cls-12"
         d="m 74.136,311.524 c 0,0 -1.038,-6.956 -0.572,-6.954 0.466,0.002 5.948,-1.045 5.948,-1.045 L 78.678,292.353 74,292.326 l -0.018,-8.072 -21.646,-0.119 0.907,27.259 z"
         transform="translate(-2.128,-61.765)"
         id="path231" />
      <polygon
         class="cls-12"
         points="182.216,183.972 205.63,183.47 205.075,170.794 182.473,170.698 "
         id="polygon233" />
      <polygon
         class="cls-12"
         points="559.869,473.329 573.366,466.831 569.777,458.032 555.579,462.203 "
         id="polygon235" />
      <polygon
         class="cls-12"
         points="554.094,455.419 566.106,452.29 560.762,439.744 549.485,441.96 "
         id="polygon237" />
      <polygon
         class="cls-12"
         points="525.498,478.345 541.146,476.424 535.633,459.973 518.816,465.02 "
         id="polygon239" />
      <polygon
         class="cls-12"
         points="511.698,475.4 517.251,472.734 507.975,449.124 479.445,456.805 498.704,500.537 519.751,494.3 "
         id="polygon241" />
      <path
         class="cls-12"
         d="m 429.826,457.313 -0.061,-8.169 4.284,1.95 1.156,-12.013 -5.516,-0.051 -0.053,-7.142 c 0,0 -21.712,-1.071 -21.969,-0.2 -0.257,0.871 -0.513,21.569 -0.087,21.956 0.426,0.387 4.261,5.546 4.261,5.546 z"
         transform="translate(-2.128,-61.765)"
         id="path243" />
      <polygon
         class="cls-12"
         points="383.543,378.431 396.607,377.798 396.746,361.33 385.071,360.731 "
         id="polygon245" />
      <polygon
         class="cls-12"
         points="296.054,164.429 316.142,164.573 316.156,173.192 296.638,173.687 "
         id="polygon247" />
    </g>
    <g
       id="fencing">
      <polyline
         class="cls-14"
         points="254.013 333.374 254.176 280.957 236.659 280.835 235.99 260.883"
         id="polyline250" />
      <polyline
         class="cls-14"
         points="235.988 250.777 235.117 208.604 242.785 208.644"
         id="polyline252" />
      <polyline
         class="cls-14"
         points="203.283 203.707 203.086 213.025 110.462 213.44"
         id="polyline254" />
      <line
         class="cls-14"
         x1="93.782997"
         y1="213.351"
         x2="31.863001"
         y2="214.069"
         id="line256" />
      <line
         class="cls-14"
         x1="187.013"
         y1="206.325"
         x2="159.91299"
         y2="205.355"
         id="line258" />
      <line
         class="cls-14"
         x1="140.832"
         y1="205.258"
         x2="63.470001"
         y2="204.864"
         id="line260" />
      <polyline
         class="cls-14"
         points="45.087 204.77 9.13 204.587 8.69 154.554"
         id="polyline262" />
      <line
         class="cls-14"
         x1="8.9200001"
         y1="142.927"
         x2="8.448"
         y2="122.208"
         id="line264" />
      <line
         class="cls-14"
         x1="7.9580002"
         y1="105.667"
         x2="6.8429999"
         y2="59.016998"
         id="line266" />
      <line
         class="cls-14"
         x1="6.4590001"
         y1="47.810001"
         x2="5.9580002"
         y2="1.773"
         id="line268" />
      <line
         class="cls-14"
         x1="320.05701"
         y1="180.188"
         x2="264.72101"
         y2="180.649"
         id="line270" />
      <line
         class="cls-14"
         x1="432.11801"
         y1="179.57201"
         x2="330.724"
         y2="179.123"
         id="line272" />
      <line
         class="cls-14"
         x1="256.09799"
         y1="180.61099"
         x2="226.02499"
         y2="180.476"
         id="line274" />
      <polyline
         class="cls-14"
         points="533.204 146.159 455.419 145.88 455.974 164.952"
         id="polyline276" />
      <line
         class="cls-14"
         x1="455.577"
         y1="170.89999"
         x2="456.03699"
         y2="186.90601"
         id="line278" />
      <line
         class="cls-14"
         x1="374.75"
         y1="343.065"
         x2="393.39499"
         y2="343.22299"
         id="line280" />
      <polyline
         class="cls-14"
         points="405.224 343.323 508.643 344.199 508.929 328.031"
         id="polyline282" />
      <polyline
         class="cls-14"
         points="508.959 313.547 509.762 295.586 414.833 294.895"
         id="polyline284" />
    </g>
    <g
       id="citern">
      <polygon
         class="cls-10"
         points="487.932,327.861 488.157,333.019 478.843,332.943 478.644,327.786 "
         id="polygon287" />
      <polygon
         class="cls-10"
         points="478.742,309.086 487.167,310.323 487.424,303.077 478.832,303.013 "
         id="polygon289" />
      <polygon
         class="cls-10"
         points="470.068,333.953 474.642,333.991 474.346,314.222 470.056,314.189 "
         id="polygon291" />
      <polygon
         class="cls-10"
         points="460.937,334.54 465.511,334.578 465.31,314.8 461.02,314.767 "
         id="polygon293" />
      <polygon
         class="cls-10"
         points="452.203,334.468 456.775,334.506 456.666,314.733 452.378,314.7 "
         id="polygon295" />
      <polygon
         class="cls-10"
         points="431.224,329.975 436.858,330.021 436.734,322.445 431.124,322.401 "
         id="polygon297" />
      <polygon
         class="cls-10"
         points="431.007,313.622 436.591,313.665 436.47,306.221 430.908,306.179 "
         id="polygon299" />
      <polygon
         class="cls-10"
         points="419.761,313.535 425.342,313.578 425.266,306.137 419.707,306.095 "
         id="polygon301" />
      <polygon
         class="cls-10"
         points="419.884,330.451 425.516,330.497 425.438,322.92 419.829,322.875 "
         id="polygon303" />
    </g>
    <g
       id="random">
      <polygon
         class="cls-10"
         points="427.751,37.487 428.117,64.387 423.282,64.379 422.998,37.483 "
         id="polygon306" />
      <polygon
         class="cls-10"
         points="420.971,37.481 421.19,61.03 416.367,61.023 416.219,37.476 "
         id="polygon308" />
      <polygon
         class="cls-10"
         points="411.262,38.496 411.304,51.844 406.511,51.838 406.509,38.491 "
         id="polygon310" />
      <polygon
         class="cls-10"
         points="405.811,38.491 405.807,52.619 401.013,52.613 401.059,38.486 "
         id="polygon312" />
      <polygon
         class="cls-10"
         points="384.12,48.014 385.601,69.261 380.777,69.87 379.36,48.609 "
         id="polygon314" />
      <polygon
         class="cls-10"
         points="377.501,41.881 378.309,63.197 373.493,63.599 372.748,42.275 "
         id="polygon316" />
      <polygon
         class="cls-10"
         points="401.009,53.831 400.961,68.234 396.122,68.225 396.212,53.824 "
         id="polygon318" />
      <polygon
         class="cls-10"
         points="395.507,53.823 395.437,64.335 390.61,64.328 390.712,53.817 "
         id="polygon320" />
      <polygon
         class="cls-10"
         points="368.559,39.333 369.554,63.977 364.737,64.438 363.816,39.783 "
         id="polygon322" />
      <polygon
         class="cls-10"
         points="417.019,23.155 432.357,29.87 430.829,35.29 415.445,28.527 "
         id="polygon324" />
      <polygon
         class="cls-10"
         points="440.918,25.912 443.479,33.283 437.244,36.302 434.708,28.904 "
         id="polygon326" />
      <polygon
         class="cls-10"
         points="349.134,27.036 357.708,35.733 353.795,41.404 345.213,32.644 "
         id="polygon328" />
    </g>
    <g
       id="heli">
      <path
         d="m 615.767,301.487 c 0.007,5.874 -2.032,15.591 -4.043,15.591 l -0.071,8.271 c -0.927,0.049 -1.2,0.1 -2.126,0.147 l -0.145,-8.36 c -2.4,0.107 -3.329,-10.365 -3.382,-15.43 -0.053,-5.014 1.367,-14.584 4.219,-14.566 2.65,0.016 5.538,6.886 5.548,14.347 z"
         transform="translate(-2.128,-61.765)"
         id="path331" />
      <rect
         x="607.86102"
         y="323.995"
         width="5.3249998"
         height="1.976"
         transform="rotate(180,609.4595,294.1005)"
         id="rect333" />
      <rect
         x="609.55902"
         y="283.93799"
         width="1.931"
         height="36.297001"
         transform="rotate(90,640.3425,270.1395)"
         id="rect335" />
      <rect
         x="609.55902"
         y="283.93799"
         width="1.931"
         height="36.297001"
         transform="rotate(135,622.25167,270.76243)"
         id="rect337" />
      <rect
         x="609.55902"
         y="283.93799"
         width="1.931"
         height="36.297001"
         transform="rotate(45,684.01709,268.63416)"
         id="rect339" />
    </g>
  </g>
</svg>
