<svg id="Calque_1" data-name="Calque 1" xmlns="http://www.w3.org/2000/svg" viewBox="0 0 837.48 520.82"><defs><style>.cls-1{fill:#0d353e;}.cls-12,.cls-2,.cls-3,.cls-8,.cls-9{fill:none;}.cls-2{stroke:#cb7d53;stroke-dasharray:6;}.cls-12,.cls-2,.cls-3,.cls-4,.cls-8,.cls-9{stroke-miterlimit:10;}.cls-2,.cls-8{stroke-width:3px;}.cls-3,.cls-4{stroke:#b4b4b4;stroke-width:8px;}.cls-4{fill:#fff;}.cls-5{fill:#b4b4b4;}.cls-6{fill:#bdbcbc;}.cls-7{fill:#d0eaf1;}.cls-8{stroke:#d0eaf1;}.cls-9{stroke:#3c3c3b;stroke-linecap:square;stroke-width:11px;}.cls-10{fill:#f6f6f6;}.cls-11{fill:#3c3c3b;}.cls-12{stroke:#706f6f;stroke-width:5px;}.cls-13{fill:#706f6f;}</style></defs><title>ReserveBasement</title><g id="Floor"><polygon id="ground" class="cls-1" points="85.61 200.64 36.12 216.57 0 254.22 0.32 479.32 281.61 479.61 283.72 501.99 498.42 507.06 497.83 520.82 837.48 520.82 831.85 171.09 459.87 168.95 458.23 106.71 387.12 105.98 362.6 24.5 345.57 0 234.7 40.55 207.19 78.62 189.85 171.52 139.91 203.92 85.61 200.64"/><g id="rails"><path class="cls-2" d="M171.27,537.47c15.51-23.77,32.51-40.09,45.17-53.26,23.25-24.19,56.62-40.52,88.27-46.76,44.79-8.85,430.67-6.69,503-1.73" transform="translate(0.32 -51.11)"/><path class="cls-2" d="M829.2,458.49c-181.11-1.63-516.57-8.87-557.84,3.17-24.44,7.13-46.81,13.82-62.8,30.67" transform="translate(0.32 -51.11)"/></g><g id="roads"><polyline class="cls-3" points="296.89 502.3 295.15 235.11 182.66 234.32 181.56 322.13 296.39 323.63"/><path class="cls-3" d="M83,384.88l25.69-5.76s22.87,55.58-6.1,80.43" transform="translate(0.32 -51.11)"/><line class="cls-4" x1="116.81" y1="381.56" x2="296.11" y2="382.17"/><path class="cls-3" d="M260.52,122.8s-37.13,28.08-37.14,36.62c-.06,23.59,87.06-2.37,87.38,18.92.29,19.34-77.5,12.78-80.51,32.85-2.08,14,85.57,7.25,85.57,7.25L317,286.38l-22.15-.16" transform="translate(0.32 -51.11)"/><polyline class="cls-3" points="295.74 325.8 794.12 328.19 796.49 436.11 296.46 436.35"/><line class="cls-3" x1="398.11" y1="326.29" x2="397.28" y2="436.3"/><line class="cls-3" x1="623.08" y1="327.37" x2="623.91" y2="436.19"/><line class="cls-3" x1="434.65" y1="236.09" x2="311.08" y2="235.23"/><polygon class="cls-5" points="113.69 416.16 99.46 401.58 97.49 404.56 90 400.7 75.59 413.4 99.44 430.15 113.69 416.16"/></g><g id="pavement"><polygon class="cls-6" points="409.78 358.11 614.37 358.95 613.6 374.5 409.99 371.59 409.78 358.11"/><polygon class="cls-6" points="410.07 384.43 611.69 385.13 610.96 400.23 410.27 397.53 410.07 384.43"/><polygon class="cls-6" points="409.37 406.72 614.79 407.3 613.6 426.08 409.62 423.01 409.37 406.72"/></g><g id="buildings"><polygon class="cls-7" points="160.22 230.03 159.94 301.82 133.44 301.68 134.86 229.84 160.22 230.03"/><polygon class="cls-7" points="190.51 221.21 263.55 221.75 265.07 201.34 193.33 200.77 190.51 221.21"/><polygon class="cls-7" points="157.6 354.7 239.81 355.47 239.95 367.75 270.62 367.86 270.3 335.14 239.19 335 239.15 330.48 158.63 330.1 157.6 354.7"/><polygon class="cls-7" points="157.6 354.7 158.16 373.3 239.93 373.59 239.81 355.47 157.6 354.7"/><polygon class="cls-7" points="362.22 350.23 362.28 328.9 306.49 328.63 308.07 350.61 362.22 350.23"/><polygon class="cls-7" points="356.82 308.42 326.66 308.26 326.03 297.6 305.2 297.49 305.03 244.06 383.35 244.59 384.56 290.54 368.18 290.29 368.13 302.14 357.06 302.08 356.82 308.42"/><polygon class="cls-7" points="440.74 318.73 471.81 318.89 471.66 263.94 441.04 263.75 440.74 318.73"/><polygon class="cls-7" points="442.18 251.91 473.92 253.63 474.28 238.59 442.27 237.17 442.18 251.91"/><polygon class="cls-7" points="480.22 189.71 480.15 211.25 512.22 211.5 512.27 189.37 480.22 189.71"/><path class="cls-7" d="M53.21,358.1c-.06-.32,43.88-6.79,43.88-6.79l5.53-17.77-2.37-3.61-17.54-15-37.1,7.75s-9.06,8.18-9.13,7.85,3.52,16,3.52,16Z" transform="translate(0.32 -51.11)"/><polygon class="cls-7" points="60.82 353.81 59.83 360.91 67.9 364.33 67.92 381.39 62.32 379.66 63.45 391 40.42 390.93 32.9 383.94 31.24 355.5 60.82 353.81"/><polygon class="cls-7" points="55.16 416.01 57.49 426.23 65.34 431.68 88.48 439.57 86.76 457.78 78 467.74 61.09 466.93 35.83 448.23 35.72 426.64 43.92 419.25 55.16 416.01"/><path class="cls-7" d="M121.11,483.82c-.14-.73-.47,27.87-.47,27.87l31.31.75,8.56-8,.2-20.58-9.47-3.3-24.89-.06Z" transform="translate(0.32 -51.11)"/><polygon class="cls-7" points="278.64 446.6 268.34 445.78 265.8 474.07 278.12 474.08 278.64 446.6"/><polygon class="cls-7" points="303.51 412.88 303.13 424.82 318.14 425.55 318.92 412.92 303.51 412.88"/><polygon class="cls-7" points="305.49 445.85 304.62 454.05 319.43 454.07 319.76 446.5 305.49 445.85"/><polygon class="cls-7" points="457.17 358.11 456.94 373.06 516.9 372.11 517.59 358.35 457.17 358.11"/><polygon class="cls-7" points="522.59 371.55 522.54 358.37 580.47 357.61 582.2 371.77 522.59 371.55"/><polygon class="cls-7" points="456.76 384.88 457.46 396.91 519.3 397.1 519.05 385.08 456.76 384.88"/><polygon class="cls-7" points="523.92 385.1 525.42 398.44 584.4 399.56 583.94 385.3 523.92 385.1"/><polygon class="cls-7" points="457.56 408.77 457.36 421.93 517.98 422.08 519.84 408.94 457.56 408.77"/><polygon class="cls-7" points="524.06 408.98 527.2 422.1 582.4 421.35 581.92 409.14 524.06 408.98"/><polygon class="cls-7" points="521.58 453.43 522.08 514.95 611.55 514.97 611.07 453.58 599.71 444.7 538.73 444.58 521.58 453.43"/><polygon class="cls-7" points="629.96 456.06 630.54 514.97 715.75 514.98 716.56 454.84 702.46 444.58 646.37 445.36 629.96 456.06"/><polygon class="cls-7" points="748.15 491.39 748.61 508.62 787.27 508.63 786.15 491.42 748.15 491.39"/><polygon class="cls-7" points="795.45 486.05 815.02 486.06 814.4 450.58 794.6 450.19 795.45 486.05"/><polygon class="cls-7" points="827.5 509.63 821.84 509.62 822.65 517.59 828.55 517.59 827.5 509.63"/><polygon class="cls-7" points="811.29 422.25 812 433.84 825.72 433.87 825.1 422.28 811.29 422.25"/><polygon class="cls-7" points="701.58 362.61 702.61 415.92 686.01 415.88 685.82 423.53 776.83 423.73 776.45 416.09 770.6 416.08 771.37 360.93 701.58 362.61"/><polygon class="cls-7" points="324.63 452.75 323.75 465.26 349.55 464.6 350.73 454.12 324.63 452.75"/><polygon class="cls-7" points="357.2 455.11 355.96 465.31 382.04 465.34 381.69 454.17 357.2 455.11"/><polygon class="cls-7" points="549.36 187.16 575.57 187.38 579.09 318.18 548.42 319.27 549.36 187.16"/><path class="cls-7" d="M612.22,252s-.05,15.57-.12,15.45,7.18,5.84,7.18,5.84L631,265.49l7.56-.17s8.58,8.28,9.39,7.6,7.13-2.95,7.13-2.95l1-13.28-12-12.75-21.87-.17Z" transform="translate(0.32 -51.11)"/><path class="cls-7" d="M690.9,255.67l-.36,18.14L701,280.08l13.77.1c.24,0,11.33-4.27,11.33-4.27l.78-24.66-27.61-2.11Z" transform="translate(0.32 -51.11)"/><polygon class="cls-7" points="753.82 229.36 754.12 224.89 758.38 218.48 767.36 212.87 775.15 215.59 786.05 229.59 785.09 246.88 777.65 253.08 769.19 248.56 769.32 237.99 765.41 231.95 753.82 229.36"/><path class="cls-7" d="M765.15,322.16s1,7,.58,7-6,1-6,1l.83,11.18,4.68,0,0,8.07,21.64.12-.9-27.26Z" transform="translate(0.32 -51.11)"/><polygon class="cls-7" points="631.85 337.35 632.41 350.02 655.01 350.12 655.27 336.84 631.85 337.35"/><polygon class="cls-7" points="264.12 53.98 267.71 62.78 281.9 58.61 277.61 47.49 264.12 53.98"/><polygon class="cls-7" points="271.38 68.53 276.72 81.07 288 78.86 283.39 65.4 271.38 68.53"/><polygon class="cls-7" points="296.34 44.39 301.85 60.84 318.67 55.8 311.99 42.47 296.34 44.39"/><polygon class="cls-7" points="317.73 26.52 325.79 45.42 320.23 48.08 329.51 71.69 358.04 64.01 338.78 20.28 317.73 26.52"/><path class="cls-7" d="M409.46,176.38l.07,8.16-4.29-1.95-1.15,12,5.51,0,.06,7.14s21.71,1.07,22,.2.52-21.57.09-22-4.26-5.54-4.26-5.54Z" transform="translate(0.32 -51.11)"/><polygon class="cls-7" points="440.88 143.02 440.74 159.49 452.41 160.08 453.94 142.38 440.88 143.02"/><polygon class="cls-7" points="521.34 356.24 521.33 347.62 540.84 347.13 541.43 356.39 521.34 356.24"/></g><g id="fencing"><polyline class="cls-8" points="583.47 187.44 583.31 239.86 600.82 239.98 601.49 259.93"/><polyline class="cls-8" points="601.5 270.04 602.37 312.21 594.7 312.17"/><polyline class="cls-8" points="634.2 317.11 634.4 307.79 727.02 307.38"/><line class="cls-8" x1="743.7" y1="307.46" x2="805.62" y2="306.75"/><line class="cls-8" x1="650.47" y1="314.49" x2="677.57" y2="315.46"/><line class="cls-8" x1="696.65" y1="315.56" x2="774.01" y2="315.95"/><polyline class="cls-8" points="792.39 316.05 828.35 316.23 828.79 366.26"/><line class="cls-8" x1="828.56" y1="377.89" x2="829.03" y2="398.61"/><line class="cls-8" x1="829.52" y1="415.15" x2="830.64" y2="461.8"/><line class="cls-8" x1="831.02" y1="473.01" x2="831.52" y2="519.04"/><line class="cls-8" x1="517.43" y1="340.63" x2="572.76" y2="340.17"/><line class="cls-8" x1="405.36" y1="341.24" x2="506.76" y2="341.69"/><line class="cls-8" x1="581.38" y1="340.2" x2="611.46" y2="340.34"/><polyline class="cls-8" points="304.28 374.66 382.06 374.94 381.51 355.86"/><line class="cls-8" x1="381.91" y1="349.92" x2="381.45" y2="333.91"/><line class="cls-8" x1="462.73" y1="177.75" x2="444.09" y2="177.59"/><polyline class="cls-8" points="432.26 177.49 328.84 176.62 328.55 192.78"/><polyline class="cls-8" points="328.52 207.27 327.72 225.23 422.65 225.92"/></g><g id="citern"><polygon class="cls-5" points="349.33 187.8 358.64 187.87 358.84 193.03 349.55 192.95 349.33 187.8"/><polygon class="cls-5" points="350.31 210.49 350.06 217.74 358.65 217.8 358.74 211.73 350.31 210.49"/><polygon class="cls-5" points="362.84 186.82 363.14 206.59 367.43 206.63 367.41 186.86 362.84 186.82"/><polygon class="cls-5" points="371.97 186.24 372.17 206.01 376.46 206.05 376.55 186.28 371.97 186.24"/><polygon class="cls-5" points="380.71 186.31 380.82 206.08 385.11 206.12 385.28 186.35 380.71 186.31"/><polygon class="cls-5" points="400.63 190.79 400.75 198.37 406.36 198.41 406.26 190.84 400.63 190.79"/><polygon class="cls-5" points="400.89 207.15 401.01 214.59 406.57 214.64 406.48 207.19 400.89 207.15"/><polygon class="cls-5" points="412.14 207.24 412.22 214.68 417.78 214.72 417.72 207.28 412.14 207.24"/><polygon class="cls-5" points="411.97 190.32 412.05 197.9 417.65 197.94 417.6 190.36 411.97 190.32"/></g><g id="random"><polygon class="cls-5" points="409.37 456.43 414.2 456.44 414.49 483.33 409.73 483.33 409.37 456.43"/><polygon class="cls-5" points="416.29 459.79 421.12 459.79 421.26 483.34 416.51 483.33 416.29 459.79"/><polygon class="cls-5" points="426.18 468.97 430.97 468.98 430.97 482.32 426.22 482.32 426.18 468.97"/><polygon class="cls-5" points="431.68 468.2 436.47 468.2 436.42 482.33 431.67 482.32 431.68 468.2"/><polygon class="cls-5" points="451.88 451.55 456.7 450.95 458.12 472.21 453.36 472.8 451.88 451.55"/><polygon class="cls-5" points="459.17 457.62 463.99 457.22 464.73 478.54 459.98 478.94 459.17 457.62"/><polygon class="cls-5" points="436.52 452.58 441.36 452.59 441.27 466.99 436.47 466.99 436.52 452.58"/><polygon class="cls-5" points="442.05 456.48 446.87 456.49 446.77 467 441.98 466.99 442.05 456.48"/><polygon class="cls-5" points="467.93 456.84 472.75 456.38 473.67 481.03 468.92 481.48 467.93 456.84"/><polygon class="cls-5" points="405.13 490.95 406.65 485.52 422.04 492.29 420.46 497.66 405.13 490.95"/><polygon class="cls-5" points="394 487.53 400.24 484.51 402.77 491.91 396.56 494.9 394 487.53"/><polygon class="cls-5" points="479.77 485.08 483.69 479.41 492.27 488.17 488.35 493.78 479.77 485.08"/></g><g id="heli"><path d="M225.69,334.26c0-8,2.77-21.27,5.51-21.27l.1-11.28c1.26-.07,1.63-.14,2.9-.2l.2,11.4c3.27-.14,4.54,14.14,4.61,21s-1.86,19.9-5.76,19.88C229.64,353.81,225.7,344.44,225.69,334.26Z" transform="translate(0.32 -51.11)"/><rect x="229.53" y="249.75" width="7.27" height="2.7"/><rect x="231.52" y="308.68" width="2.63" height="49.52" transform="translate(-100.29 515.18) rotate(-90)"/><rect x="231.52" y="308.68" width="2.63" height="49.52" transform="translate(-167.26 211.2) rotate(-45)"/><rect x="231.52" y="308.68" width="2.63" height="49.52" transform="translate(162.02 682.76) rotate(-135)"/></g></g><g id="basement"><g id="basement_outline"><polyline class="cls-9" points="201.68 214.15 201.68 235.23 251.82 235.27 251.82 214.15"/><polyline class="cls-9" points="151.85 242.19 180.28 242.19 180.28 292.94 153.07 292.94"/><polyline class="cls-9" points="180.28 341.24 180.28 292.94 196.18 292.94"/><polyline class="cls-9" points="317.3 336.05 317.3 325.8 290.35 325.8 290.35 317.09 180.28 317.09"/><polyline class="cls-9" points="251.82 235.27 289.5 234.32 290.35 317.09"/><line class="cls-9" x1="180.28" y1="242.19" x2="216.59" y2="242.19"/><line class="cls-9" x1="216.59" y1="235.23" x2="216.59" y2="247.61"/><line class="cls-9" x1="210.86" y1="317.09" x2="210.86" y2="286.82"/><line class="cls-9" x1="311.08" y1="262.75" x2="281.02" y2="260.41"/><polyline class="cls-9" points="307.5 51.66 253.77 77.23 251.82 179.97 296.89 179.97 296.89 194.6 290.13 194.6 289.5 234.32"/><polyline class="cls-9" points="205.35 139.88 216.36 139.88 216.36 147.04 245.94 147.04 245.94 139.88 258.09 139.88"/><polyline class="cls-9" points="645.61 341.91 680.61 341.91 680.61 394.13 558.47 392.33 559.7 350.61 533.71 351.76"/><rect class="cls-10" x="135.94" y="232.32" width="23.67" height="67.96"/><path class="cls-11" d="M157.28,285.43v64H137.62v-64h19.66m4-4H133.62v72h27.66v-72Z" transform="translate(0.32 -51.11)"/><polygon class="cls-10" points="195.69 201.97 263 201.97 263 221.55 192.58 222.07 195.69 201.97"/><path class="cls-11" d="M260.68,255.08v15.59l-66.08.49,2.48-16.08h63.6m4-4h-71l-.52,3.38-2.49,16.09-.72,4.64,4.7,0,66.08-.49,4,0V251.08Z" transform="translate(0.32 -51.11)"/><polygon class="cls-10" points="163.45 368.25 163.45 333.97 267.07 337.69 267.07 363.15 238.79 362.69 238.79 370.37 163.45 368.25"/><path class="cls-11" d="M165.13,387.15l99.62,3.58v21.49l-28.28-.46v7.66l-71.34-2V387.15m-4-4.14V421.3l3.89.11,71.34,2,4.11.11v-7.7l24.22.39,4.06.07V386.87l-3.85-.14-99.62-3.57-4.15-.15Z" transform="translate(0.32 -51.11)"/><polygon class="cls-10" points="193 305.77 190.43 244.53 291.61 244.53 292.15 297.54 285.6 297.54 283.53 306.73 193 305.77"/><path class="cls-11" d="M289.31,297.64l.5,49h-6.13l-2.06,9.18-87-.92-2.41-57.26h97.12m4-4H188l.17,4.17,2.41,57.26.16,3.79,3.79,0,87,.92,3.23,0,.71-3.16,1.36-6.05h7l0-4-.5-49,0-4Z" transform="translate(0.32 -51.11)"/><rect class="cls-10" x="249.82" y="161.46" width="42.52" height="21.12"/><path class="cls-11" d="M290,214.57v17.12H251.5V214.57H290m4-4H247.5v25.12H294V210.57Z" transform="translate(0.32 -51.11)"/><rect class="cls-10" x="250.45" y="130.73" width="43.81" height="18.3"/><path class="cls-11" d="M291.94,183.84v14.3H252.13v-14.3h39.81m4-4H248.13v22.3h47.81v-22.3Z" transform="translate(0.32 -51.11)"/><circle class="cls-10" cx="255.94" cy="80.65" r="15.73"/><path class="cls-11" d="M255.62,118a13.73,13.73,0,1,1-13.72,13.73A13.73,13.73,0,0,1,255.62,118m0-4a17.73,17.73,0,1,0,17.73,17.73A17.74,17.74,0,0,0,255.62,114Z" transform="translate(0.32 -51.11)"/><rect class="cls-10" x="237.23" y="111.93" width="17.43" height="14.35"/><path class="cls-11" d="M252.34,165v10.35H238.91V165h13.43m4-4H234.91v18.35h21.43V161Z" transform="translate(0.32 -51.11)"/><rect class="cls-10" x="252.28" y="103.22" width="17.43" height="11.47"/><path class="cls-11" d="M267.39,156.32v7.47H254v-7.47h13.43m4-4H250v15.47h21.43V152.32Z" transform="translate(0.32 -51.11)"/><rect class="cls-10" x="603.25" y="356.91" width="42.31" height="39.22"/><path class="cls-11" d="M643.24,410v35.22H604.93V410h38.31m4-4H600.93v43.22h46.31V406Z" transform="translate(0.32 -51.11)"/><rect class="cls-10" x="581.31" y="375.89" width="84.71" height="126.12"/><path class="cls-11" d="M663.7,429V551.12H583V429H663.7m4-4H579V555.12H667.7V425Z" transform="translate(0.32 -51.11)"/><rect class="cls-10" x="556.47" y="475.83" width="137.91" height="26.18"/><path class="cls-11" d="M692.06,528.94v22.18H558.15V528.94H692.06m4-4H554.15v30.18H696.06V524.94Z" transform="translate(0.32 -51.11)"/></g><g id="basement-2" data-name="basement"><polyline class="cls-12" points="201.68 214.15 201.68 235.23 251.82 235.27 251.82 214.15"/><polyline class="cls-12" points="151.85 242.19 180.28 242.19 180.28 292.94 153.07 292.94"/><polyline class="cls-12" points="180.28 341.24 180.28 292.94 196.18 292.94"/><polyline class="cls-12" points="317.3 336.05 317.3 325.8 290.35 325.8 290.35 317.09 180.28 317.09"/><polyline class="cls-12" points="251.82 235.27 289.5 234.32 290.35 317.09"/><line class="cls-12" x1="180.28" y1="242.19" x2="216.59" y2="242.19"/><line class="cls-12" x1="216.59" y1="235.23" x2="216.59" y2="247.61"/><line class="cls-12" x1="210.86" y1="317.09" x2="210.86" y2="286.82"/><line class="cls-12" x1="311.08" y1="262.75" x2="281.02" y2="260.41"/><polyline class="cls-12" points="307.5 51.66 253.77 77.23 251.82 179.97 296.89 179.97 296.89 194.6 290.13 194.6 289.5 234.32"/><polyline class="cls-12" points="205.35 139.88 216.36 139.88 216.36 147.04 245.94 147.04 245.94 139.88 258.09 139.88"/><polyline class="cls-12" points="645.61 341.91 680.61 341.91 680.61 394.13 558.47 392.33 559.7 350.61 533.71 351.76"/><rect class="cls-13" x="137.94" y="234.32" width="19.66" height="63.96"/><polygon class="cls-13" points="197.4 203.97 194.91 220.05 261 219.56 261 203.97 197.4 203.97"/><polygon class="cls-13" points="165.45 336.05 165.45 366.3 236.79 368.31 236.79 360.66 265.07 361.12 265.07 339.62 165.45 336.05"/><polygon class="cls-13" points="192.51 246.53 289.63 246.53 290.13 295.54 284 295.54 281.94 304.71 194.91 303.79 192.51 246.53"/><rect class="cls-13" x="251.82" y="163.46" width="38.52" height="17.12"/><rect class="cls-13" x="252.45" y="132.73" width="39.81" height="14.3"/><circle class="cls-13" cx="255.94" cy="80.65" r="13.73"/><rect class="cls-13" x="239.23" y="113.93" width="13.43" height="10.35"/><rect class="cls-13" x="254.28" y="105.22" width="13.43" height="7.47"/><rect class="cls-13" x="605.25" y="358.91" width="38.31" height="35.22"/><rect class="cls-13" x="583.31" y="377.89" width="80.71" height="122.12"/><rect class="cls-13" x="558.47" y="477.83" width="133.91" height="22.18"/></g></g></svg>