<svg xmlns="http://www.w3.org/2000/svg" id="svg1" width="754.88007" height="610.73566" version="1.1">
  <style id="style_common">
    .cement { fill:#c6c2c2 }
    .land { fill:#0c343c }
    .rock { fill:#ffffcd }
    .water { fill:#0056ab }
    .wood { fill:#593700 }
    .tarmac { fill:#888 }
    .gravel { fill:#946d3e }
    .building { fill:#88d1fd }
    .map_border { fill:none;stroke:#000;stroke-width:4 }
    .fence { fill:none;stroke:#c4e3c3;stroke-width:1 }
    .road_tarmac { fill:none;stroke:#888 }
    .road_gravel { fill:none;stroke:#946d3e }
    .road_small { stroke-width:5 }
    .road_medium { stroke-width:8 }
    .road_large { stroke-width:12 }
    .railroad { fill:none;stroke:#914833;stroke-dasharray:6;stroke-width:3 }
    .danger { fill:red;fill-opacity:.4;stroke:red;stroke-dasharray:4,2;stroke-width:2 }
  </style>
  <style id="style_reserve">
    .misc{fill:gray}
    .chopper{fill:#000}
    .bunker{fill:#c3e7ec;filter: drop-shadow(0px 0px 30px black);}
  </style>
  <g id="Ground_Level">
    <g id="Terrains" class="land">
      <path d="M6.7979 7.88556H314.607V39.6997H486.73v16.5869c4.59.0136 5.974.6037 8.927 4.0788 2.401 2.8252 4.668 5.1664 4.668 5.1664h3.263l40.516 3.5593 37.252 2.1509h16.587l17.403-1.6315h130.882l.207 199.0425 2.15 6.084.926 34.301 3.427 6.385c1.082 1.849 1.868 2.398 1.901 4.622v4.895c0 .568.03 1.378-.163 1.903-.493 1.335-4.286 4.231-5.547 5.278-5.667 4.718-10.423 8.511-14.763 14.572l-5.778 7.07-3.932 5.166-3.964 4.623c-5.556 6.779-8.927 11.771-15.614 17.922l-6.254 4.345-5.71 4.805-5.982 4.584-15.499 14.227-11.965 8.9-12.478 10.593c-1.37 1.314-1.83 3.514-2.205 5.322l-2.018 8.701c-2.064 7.062-4.769 13.427-8.353 19.85-1.21 2.17-2.241 4.25-3.739 6.254-3.576 4.775-7.276 7.614-12.266 10.719-1.879 1.172-3.375 2.151-5.438 3.032-3.388 1.449-7.163 1.667-10.333 3.505-2.344 1.359-6.475 5.637-8.383 7.76-2.755 3.065-5.724 6.774-7.266 10.605l-3.037 11.421-2.828 7.613c-1.335 4.362-.811 6.627-3.315 11.149-1.846 3.333-4.973 5.027-8.073 6.983-3.905 2.46-7.916 5.155-11.102 8.527-5.572 5.89-10.937 12.062-15.91 18.479-2.635 3.402-4.441 7.451-7.6 10.485-2.01 1.931-4.737 3.122-6.991 4.786l-6.526 5.525-14.412 7.552-2.401 1.28c-2.504 1.773-6.488 5.898-8.747 8.169-1.719 1.726-2.85 4.029-5.439 4.078h-55.47c-.582 0-1.349.025-1.904-.138-1.164-.343-3.848-2.559-4.894-3.397-4.104-3.282-9.224-7.994-12.623-11.964-3.219-3.758-4.682-6.14-7.423-10.061l-7.82-10.876-10.67-13.324-5.254-5.982-5.699-5.463-5.71-5.294c-1.866-1.575-4.193-3.451-6.254-4.726l-5.983-3.421c-3.698-2.48-7.303-5.471-11.42-7.236l-10.877-2.92-3.967-.982c-.639-.37-1.332-2.148-1.659-2.86-1.321-2.885-2.966-5.026-2.966-5.026l-.082-79.109-83.505-.159-14.36 2.366-225.74202.353z"/>
    </g>
    <g id="Dirty_roads" class="gravel">
      <path d="M188.71 264.574c7.051.002 14.103-.005 21.155.011-2.981 1.612-4.074 5.424-3.199 8.563.694 5.54 1.252 11.1 1.851 16.648-.144 3.29-1.01 6.5-1.459 9.758-.526 3.424-1.43 6.828-1.212 10.317-.02 4.371-.155 8.76.55 13.091.292 2.497.688 5 .306 7.51.117 2.694-1.872 5.203-.653 7.864.979 3.024.82 6.364-.328 9.321-.19 2.734 1.826 4.926 2.441 7.433.33 2.689-1.082 5.027-2.538 7.11-.779 2.743-.401 5.657-.675 8.472-.355 2.881 2.608 3.844 4.674 4.792 1.655 1.208 2.201 4.31.885 5.902-2.498-.358-3.552 2.49-4.997 4.113-1.114 1.899-3.049 3.439-5.365 2.837-4.295.045-8.6.299-12.89.183-1.512-.395-4.219-3.244-2.865-4.323 2.605-.618 2.812-4.138 1.992-6.21-1.048-2.152-4.406-2.914-3.958-5.771.216-3.513 4.502-4.266 5.771-7.171 1.356-2.806-3.378-4.564-4.657-1.969-.311 1.418-1.15 5.555-3.117 3.427-.363-2.453-2.723-3.596-4.578-4.818-1.221-1.393-3.122-1.378-4.761-.877-2.801.523-5.879 2.438-5.981 5.583-.156 2.74.369 5.466.313 8.209.158 5.066.534 10.128.755 15.186-.358 2.564-1.752 4.835-2.614 7.248-1.022 2.324-1.845 4.738-2.732 7.104-1.996 3.515-4.29 7.129-7.792 9.305-2.467 1.18-5.13-.057-7.624-.396-3.007.099-5.862 1.229-8.841 1.587-2.649.183-5.018 1.373-7.556 1.919-2.122.245-4.67-.449-5.283-2.767-1.081-2.107-2.364-4.147-2.865-6.497-.971-2.069-3.27-3.016-5.192-4.017-2.129-1.006-4.536-1.138-6.827-.744-2.517.466-4.183-1.735-3.597-4.059-.042-6.338-3.497-11.991-6.88-17.116-1.97-2.546-2.5947-5.787-3.9962-8.626-1.3371-2.542-4.3598-1.987-6.4276-2.645-2.7832.904-1.2146 4.406-3.2796 5.941-1.5254 1.649-4.5989 1.743-6.1205.029-1.7536-2.335-3.0554-4.992-4.6596-7.438-1.3941-2.397-3.0027-4.689-4.2219-7.176-.2418-2.118.6977-4.921 2.0979-6.287 1.0278 1.463 2.0242 4.739 4.4577 3.087 1.693-1.693 2.5957-4.215 5.2327-4.824 2.9761-1.123 6.2932-1.737 8.6209-4.093 2.0069-1.521 3.9844-4.247 2.4849-6.775-1.5459-2.474-.7753-5.806-2.7774-8.049-1.4661-2.073-1.2083-5.296-3.7432-6.556-2.6157-1.557-5.7932-2.007-8.1582-4.021-2.079-1.359-3.7312-3.268-5.5513-4.902-1.7989-.832-3.1866-2.602-5.3307-2.498-2.6988.014-5.6588-.378-7.9679 1.349-2.2503 1.385-4.4478 2.971-6.9535 3.853-1.9903.386-3.9007-.662-5.8401-.989-1.8259-.29-3.6566-1.306-5.5104-.828-2.3121.706-5.2928 1.469-7.2213-.482-1.8911-2.387-3.2993-5.37-3.0674-8.487.0521-2.172.613-4.483 2.4098-5.885 1.7192-1.447 3.6577-2.613 5.3364-4.11 2.5421-1.644 5.6756-1.816 8.5805-2.297 3.2041.114 6.3798.692 9.5703 1.022 2.6162.29 5.2893.87 7.8686.017 3.8426-.968 8.1582-2.351 11.9009-.282 2.4722 1.287 4.7491 2.93 7.3061 4.055 2.1238 1.334 4.4076 2.694 5.649 4.957 1.5289 2.088 3.5019 3.815 5.3694 5.594 2.1049 1.756 4.4785 3.233 6.4127 5.17 2.056 2.874 2.878 6.673 5.719 8.942 2.51 1.577 5.591 1.134 8.405 1.189 3.081-.444 4.744-3.703 7.797-4.225 2.616-.821 5.432-1.192 7.738-2.775 2.137-1.12 4.151-2.548 6.401-3.407 4.415-1.132 8.893-2.141 13.015-4.153 3.459-1.264 4.43-5.412 7.584-7.103 2.089-1.957 4.981-.612 7.401-.458 3.63-.346 7.046-1.749 10.523-2.759 3.358-.938 5.788-3.54 8.502-5.561 2.098-1.773 4.409-3.354 6.243-5.406 1.412-2.452 1.698-5.383 2.268-8.114.343-4.095-.345-8.186-.605-12.267-.239-2.942-.716-6.14-2.958-8.282-.053-.068-.107-.135-.161-.203zm.815 53.375c-2.5.115-5.482.353-6.652 2.974-1.764 2.296-4.725 1.368-7.123 1.071-2.666-.731-5.2.901-6.23 3.338-.851 2.741 2.375 4.656 3.802 6.621 2.24 1.71 5.206 2.227 7.93 2.725 2.757-.003 5.151-1.665 7.715-2.478 2.422-1.003 4.617-3.194 4.556-5.975.323-2.603.731-5.91-1.586-7.752-.709-.457-1.583-.587-2.412-.524zm-29.638 13.593c-5.167.371-10.365.448-15.51 1.022-3.916.849-7.663 2.343-11.384 3.788-2.706 1.424-4.541 3.992-6.115 6.531-.495 2.589 2.421 4.236 4.328 5.315 2.114 1.042 4.565 1.931 6.892 1.059 2.796-.739 5.925-1.146 8.56.361 2.921 1.385 5.425 3.96 8.763 4.259 4.445-.277 7.175-4.23 10.63-6.484 1.99-1.35 4.247-2.32 6.106-3.848 1.767-2.111.862-5.08.435-7.501-1.098-2.261-3.833-2.858-5.994-3.689-2.168-.65-4.448-.991-6.711-.813zm-47.042 28.834c-3.131.928-6.258 2.145-8.819 4.223-1.371 1.915-1.855 4.305-2.462 6.534-.784 5.792 1.824 11.365 4.643 16.252 1.054 1.994 2.931 3.572 5.253 3.535 2.68.696 2.401 4.226 4.677 5.253 2.63.665 3.767-2.561 6.212-2.731 2.415-.357 4.698-1.464 6.263-3.378 1.621-1.746 2.918-4.031 2.969-6.464 1.001-2.823 4.799-3.311 5.632-6.275.76-2.436 1.467-4.951 1.717-7.492.009-3.731-2.943-7.107-6.612-7.699-3.653-.726-7.377-1.048-11.068-1.533-2.789-.295-5.605-.473-8.405-.225zm47.857 7.502c-2.305 1.308-3.366 3.909-5.124 5.786-1.297 2.207-4.369 4.038-3.933 6.855.841 2.101 3.083 3.057 4.693 4.48 1.762.749 3.11 3.441 5.245 2.535.833-2.291.418-5.061-.631-7.28-.003-1.834 4.213-2.443 2.595-5.058-.416-2.32.194-5.239-1.843-6.929-.301-.199-.646-.328-1.002-.389zm-5.166 18.787c-2.221.144-5.146-.355-6.535 1.85-.578 2.441 1.425 4.699 2.757 6.523 2.272 1.293 4.897-.632 5.995-2.624-.027-1.936-.257-4.497-2.234-5.14l.024-.326zm1.909 9.389c-3.279.992 1.239 5.023 2.457 2.154.44-1.325-1.357-2.272-2.457-2.154zm-7.347 1.631c-2.182.459-4.989 1.175-5.703 3.593-.298 2.282 1.375 4.884 3.662 5.393 2.367-.369 4.346-2.183 6.193-3.652 1.79-2.097-.953-4.665-2.866-5.401-.427-.075-.867-.036-1.286.067z"/>
      <path d="M625.367 185.063c2.393-2.091 5.136-4.085 6.352-7.141 1.127-2.705 2.083-5.612 2.061-8.564-.561-4.14-1.226-8.274-1.723-12.418.287-1.552.079-3.107-.472-4.569-.546-2.032-1.493-4.014-1.294-6.171-.363-2.782-1.421-5.453-2.615-7.977-1.734-2.638-3.177-5.599-3.314-8.809-.296-3.173.688-6.287.501-9.46-.051-2.474-.051-5.2 1.75-7.128 1.938-2.067 4.506-3.426 7.01-4.687 2.912-1.349 5.807.957 8.766.858 2.137-.357 4.03.937 4.57 3.032.861 1.593 1.564 3.295 1.53 5.139.389 4.127.55 8.316-.091 12.423-.372 2.887-2.606 5.051-3.132 7.892-.637 2.717-1.748 5.536-.929 8.342.679 2.644 1.532 5.413 3.394 7.479 2.022 1.401 4.549 1.994 6.975 2.193 3.223-.135 5.123-3.248 8.048-4.178 1.925-.838 3.911-1.564 5.796-2.474 2.402-2.241 3.702-5.382 5.046-8.318.612-1.67 1.028-3.467 2.279-4.812 1.736-2.318 4.657-3.752 5.484-6.71 1.008-2.765 1.477-5.683 1.557-8.615.142-2.007 1.857-3.467 3.804-3.608 2.14-.312 4.207-1.271 6.394-1.131 1.871.738 3.285 2.27 4.928 3.399 2.139 1.718 4.494 3.176 6.465 5.09.93 1.253.453 2.919.571 4.379-.071 1.634.176 3.313-.201 4.91-1.508.826-3.764.83-4.765 2.741-1.692 2.144-4.142 4.023-7.018 3.838-2.988-.033-5.502 2.178-7.08 4.529-1.914 2.925-3.381 6.122-5.471 8.933-1.231 1.702-1.844 3.753-2.866 5.579-1.715 3.229-2.993 6.753-5.525 9.472-2.081 2.301-3.065 5.41-3.435 8.432.199 1.998 1.573 3.931.762 5.981-.977 1.331-1.536 3.625.633 4.114 2.228.646 4.653.768 6.935.363 4.285-1.143 7.123-5.513 11.737-5.761.341 2.012-3.254 3.049-4.841 4.235-2.82 1.933-5.025 5.327-4.305 8.858.51 2.672 1.897 5.07 2.962 7.544 1.186 2.036 3.542 3.432 5.891 3.483 1.894-.437 3.181-2.207 5.134-2.559 2.366-.757 4.785-1.38 7.117-2.222 2.485-1.299 5.051-2.455 7.481-3.852 1.378-.927 2.761-1.994 4.469-2.149 3.13-.691 6.323-1.139 9.352-2.225 1.511-.535 4.311-.448 4.085 1.779-.259 2.197-.744 4.371-.7 6.597-.033 2.724-.313 5.454-.146 8.174.285 2.561 2.13 4.907 1.351 7.569-.532 2.113-1.287 4.585-3.367 5.638-2.046.66-4.157 1.106-6.19 1.817-1.817.557-3.65 1.07-5.333 1.972-2.002.902-3.942 1.965-6.091 2.484-2.293.656-4.548 1.42-6.739 2.366-2.185.838-4.303 1.881-6.614 2.333-1.95.553-3.971.896-5.868 1.608-2.807 1.425-5.34 3.332-7.934 5.1-2.555 1.7-2.744 5.092-2.346 7.845.302 2.736.74 5.539 2.281 7.89 1.017 1.68 2.676 2.929 3.309 4.853.977 2.12 1.118 4.47 1.054 6.767-.068 2.869 2.561 4.581 4.267 6.493 2.578 2.54 4.961 5.309 6.677 8.512 1.245 1.432.803 3.337.01 4.862-.489 2.014-1.848 3.523-3.991 3.69-4.657 1.269-9.29 2.632-13.945 3.901-2.117.526-3.753-1.526-4.876-3.026.91-.566 3.372-1.504 3.535-3.389.229-2.279-1.845-4.04-1.679-6.327-.18-2.928-.447-5.853-.315-8.789.358-2.215-1.053-3.935-2.749-5.135-1.6-1.204-2.182-3.118-2.469-4.999-.778-2.08-2.015-3.959-2.998-5.949-1.507-3.015-1.945-6.437-1.956-9.772-.151-2.057-.431-4.217-1.73-5.892-3.725-5.9-7.193-12.162-12.592-16.726-2.269-1.586-4.538-3.171-6.807-4.757 2.844-.557 5.621-1.509 8.039-3.138 3.634-2.386 7.252-5.557 8.404-9.914.509-3.881-.49-7.792-1.681-11.463-1.052-3.171-3.485-5.773-6.563-7.064-5.65-2.596-11.988-2.703-18.073-3.251zm22.337-16.374c-2.167.137-2.776 2.54-1.857 4.204.768 1.993 1.571 4.002 1.696 6.159-.036 2.526 3.147 2.574 3.889.413 1.496-2.12 3.453-4.121 4.022-6.726-.019-1.902-2.187-2.704-3.676-3.29-1.311-.437-2.684-.774-4.074-.76zm21.525 22.514c-1.394.993.043 2.67.359 3.891.585 1.691 1.144 3.417 2.34 4.798 1.406 1.958 3.22 4.103 5.847 4.108 1.368-.255.631-1.803.188-2.586-.833-1.52-1.203-3.241-1.935-4.798-1.369-1.892-3.43-3.116-5.148-4.661-.494-.352-1.048-.644-1.651-.752zm-7.114 20.465c-2.357.692-2.09 3.5-1.395 5.314.782 2.364 2.298 5.226 5.086 5.432 2.247.013 3.735-2.111 4.692-3.892 1.115-1.695.303-3.872-1.554-4.608-2.053-1.231-4.339-2.548-6.829-2.246zm48.13 4.815c-2.961.628-5.878 1.503-8.903 1.767-3.011.427-6.036.724-9.063.998-3.053.333-5.569 2.372-7.306 4.798-1.354 1.859-3.727 3.394-3.56 5.977.06 2.553 3.033 3.041 5.033 2.702 2.589-.235 4.622-2.127 7.153-2.602 2.106-.635 4.301-1.025 6.257-2.072 3.007-1.414 6.164-2.496 9.064-4.134 1.947-1.044 3.924-2.023 6.006-2.768 1.757-.81 3.81-1.189 5.211-2.586 1.247-1.813-1.619-2.248-2.871-2.08z"/>
    </g>
    <g id="Roads" class="tarmac">
      <path d="M487.273 0h12.237v62.5407l-.272 4.0787v41.6036c.005 2.925 1.27 10.115 2.412 12.78.549 1.278 1.435 3.146 2.754 3.749.911.416 2.078-.062 2.991-.329l6.526-2.151c9.411-3.135 7.864-2.278 17.131-6.912 3.162-1.582 7.355-4.038 9.764-6.596 1.387-1.474 3.524-5.387 4.172-7.339l1.645-5.4223c.723-1.2916 2.901-1.4385 3.771-.2067.767 1.0822-.535 4.446-.976 5.629l-1.738 4.35c-1.5 2.986-4.706 7.086-7.393 9.033l-4.622 2.736c-4.286 2.436-11.125 5.552-15.772 7.252l-10.332 3.562c-2.774 1.014-7.745 2.194-9.169 4.881-.615 1.155-.618 2.27-.62 3.535v19.85l.272 4.078v20.666c.016 1.243.092 2.284 1.123 3.146.894.748 1.87.658 2.955.661h45.682l4.079-.272h69.882l3.807.272h1.088l5.71.519c5.558.389 14.602 1.145 18.738 5.218 3.478 3.426 4.704 10.197 4.647 14.928-.036 2.934-1.822 5.572-3.81 7.614-.742.761-1.9 1.947-2.716 2.575-.914.704-1.732 1.052-2.719 1.588-2.85 1.545-5.091 2.594-8.43 2.635h-1.087l-4.079.272h-2.447l-4.079.283h-3.535l-3.263.261-9.789.272-4.623.269-3.534-.269h-8.204v-8.43c0-.527-.068-1.555.269-1.974.465-.576 1.771-.473 2.45-.473h22.071l4.079-.272h10.061l5.71-.272c3.214-.038 6.233-.62 7.225-4.079.234-.815.408-1.59.337-2.447-.149-1.811-1.212-4.429-2.678-5.536-3.538-2.673-11.673-2.083-16.032-2.077l-4.623.271h-53.023l-4.079.272h-50.305l-4.622.272h-8.973c-2.627.019-2.986.797-2.992 3.263v12.236l-.271 4.079v27.736c0 2.327-.669 8.187 1.389 9.557.851.566 1.982.501 2.961.504h72.602c1.917.002 7.864.745 9.517 1.457 6.093 2.621 9.234 8.68 9.245 15.129v85.926c-.011 6.289-4.419 11.861-10.333 13.84-.908.305-4.628.569-5.71.571h-13.596l-4.622.272h-60.094l-4.622.272H478.3c-1.087.014-4.582.163-5.237.933-.557.655-.473 1.789-.473 2.602v57.103c.003 1.278.111 4.739.933 5.634 1.074 1.172 3.037.813 4.505 1.006l6.798.476 5.71.769 44.595 6.776c3.499.59 6.912 1.89 10.061 3.492 1.745.886 3.627 2.167 4.244 4.144.62 1.987.4 5.22-1.31 6.621-.71.582-2.29.976-3.206 1.259l-7.07 1.786-14.14 2.409-9.789 1.711-2.719.242-6.254 1.052-3.535.797-2.447.266-9.789 1.825-11.964 2.632c-1.567.566-2.605 1.882-2.385 3.6.228 1.798 1.525 2.651 3.2 2.95 2.456.338 5.833.071 8.43 0l4.078-.231h56.559c4.481.008 9.297 2.733 11.317 6.798.49.982.77 2.192 1.014 3.263.27 1.175.506 2.322.438 3.535-.106 1.836-1.204 2.616-2.708 3.451l-8.158 3.695-11.692 3.426-17.675 5.107-8.701 2.871c-3.54 2.078-7.023 8.549-6.711 12.72l.843 7.07c.114.821.495 2.817.142 3.505-.454.892-1.55 1.172-2.431 1.428l-5.711 1.558c-.913.217-2.058.555-2.738-.321l-2.026-6.985-5.568-19.578 7.613-2.246 16.859-5.004 14.955-4.872 13.868-4.919c1.653-.552 5.104-1.496 6.137-2.823 1.224-1.574-.057-2.912-1.514-3.641-1.702-.856-3.337-.693-5.167-.696l-4.078-.272H478.3c-4.448 0-9.525.288-13.867-.386-1.036-.163-3.772-.389-4.425-1.112-.454-.506-.628-1.642-.731-2.309v-2.719l-.283-2.991-.228-4.079c.231-1.764 2.322-2.637 3.763-3.263l3.535-1.667c1.615-.679 4.707-1.25 6.526-1.696l22.025-4.318 13.324-2.306L518 460.24l13.596-1.713c1.191-.158 4.051-.65 3.426-2.518-.503-1.51-2.415-1.559-3.698-1.659l-4.623-.498-5.71-.342-18.49-1.338-3.807-.326c-1.528-.188-2.118-.444-3.807-.465l-7.07-.498-5.166-.364-5.982-.498h-14.412l-4.622.272h-11.421l-4.079.272h-56.83l-4.079-.272h-27.191l-4.079-.272H329.29v2.175c-.043 2.472-1.778 2.445-3.807 2.448h-12.78l-4.622.271h-21.753l-4.079.272H264.03l-4.078.272H246.9l-4.623.272h-10.333l-4.622.272h-10.333l-4.623.272h-9.517l-3.263.247-10.604.816-19.035 1.409-10.332.791h-5.439l-4.622.272h-7.614l-4.079.272h-5.982l-4.078.272h-3.807l-4.079.283h-4.351l-3.263.261-10.061.272-4.6222.271-23.3847 1.336-32.63 2.224-13.8677 1.087c-9.2179.634-18.48754 1.879-27.7354 1.879v-11.964l9.78898-.791 17.13072-1.137 5.4383-.495 23.1129-1.656h2.4472l16.8588-1.112 20.3937-1.063 4.0787-.272h4.6227l4.351-.272h4.078l4.351-.272h3.807l4.35-.272h4.079l4.079-.272h4.622l4.079-.271 16.315-.792 11.149-.592 10.333-.792h2.447l7.07-.544 8.973-.272 4.622-.282h4.351l3.263-.272h4.079l3.263-.261 10.605-.272 3.534-.272h5.711l4.622-.272h6.526l4.623-.272h7.342c.807-.011 4.301-.28 4.867-.59 1.033-.571 1.136-1.631 2.48-2.159l5.976-.514h6.526l4.079-.272h6.254l4.079-.272 16.315-.272 9.245-.543h3.807l4.351-.272h9.245l4.622-.272h74.505l4.623-.272h32.358c2.531-.006 5.479-.963 6.523-3.535.378-.925.544-3.56.547-4.623v-50.304c.002-1.781.989-6.273-.585-7.383-.802-.565-2.009-.5-2.95-.503h-90.548c-1.624 0-5.925.46-6.907-.856-.508-.68-.432-1.602-.435-2.407v-5.982c.011-.794-.019-1.566.612-2.151.704-.658 1.759-.565 2.651-.568h47.857l4.079.272h66.619c1.42 0 5.719.372 6.597-.661.557-.655.473-1.789.473-2.602V310.8l.272-4.079v-38.068c-.005-3.279-1.381-3.529-4.351-3.535H330.106l-4.079-.272h-45.954l-4.078-.272h-92.996l-4.078-.272h-13.052l-4.623-.272h-12.78l-4.622-.271h-42.419l-4.0791.271H56.0147c-5.8979-.008-11.8202-3.817-14.6345-8.973-1.5037-2.757-2.7627-9.06-2.7681-12.236v-27.464l.2719-4.078v-18.762l.2719-4.079v-18.491l.2719-4.078v-33.174c.0218-1.757.4269-3.513 1.0034-5.166 1.1556-3.31 3.3853-6.709 6.3384-8.675 2.091-1.392 3.8938-1.713 6.254-2.303 3.5132-.878 11.3471-1.797 14.9554-1.792h4.0787l3.263.261h7.3418l4.3506.272h6.7979l4.3507.272h6.7983l4.622.272h105.504l4.078.272h19.578l4.079.272h21.481l4.079.272h23.113l4.079.272h7.613l4.079-.272H447.03l3.807-.272h30.998c3.383-.005 4.889-.443 4.895-4.079l-.235-44.3543-.042-11.7563.549-31.446.271-4.0788zM64.1722 125.133c-4.5247.677-9.7618-.212-12.7692 4.027-.5411.764-1.0224 1.542-1.2889 2.447-.3317 1.137-.3508 2.1-.3535 3.263v44.866l-.2719 4.079v60.637c.0109 2.119.2393 4.599 1.7212 6.227 2.0666 2.271 6.0175 2.442 8.8835 2.475l3.5349.272h1.0877l8.7013.544h93.2677l4.078-.272h9.245l4.079-.272h5.167c2.923-.006 3.257-.729 3.263-3.535v-9.517l.543-7.614v-7.614l-.272-4.622v-8.43l.272-4.622v-16.043l.272-4.623v-33.989l.272-4.623v-14.683c.027-2.17.694-3.619-.565-5.705-1.115-1.849-3.989-2.178-5.961-2.181h-81.303l-4.078-.272H73.6892l-2.7191-.22zm372.2528 1.346c-2.341.375-5.452.234-7.885.234H414.4c-1.74.022-4.843.217-6.205 1.305-1.319 1.052-2.205 3.328-2.551 4.949-.486 2.3-1.302 8.342-1.305 10.605v12.508l.272 4.622v5.983l.272 4.622v17.675l.272 4.622v53.84c.024 2.101.147 4.899 2.447 5.78.617.237 1.512.202 2.175.202h8.43l4.622.272h59.55c1.256 0 3.255.16 4.351-.395 1.83-.93 1.9-2.142 1.903-3.956v-5.982l-.272-4.623v-10.061l-.272-4.622v-10.061l-.272-4.623v-17.402l-.272-4.079v-17.403l-.272-4.078V149.01l-.271-4.623v-14.411c-.006-.699.043-1.52-.436-2.091-.78-.93-4.323-1.169-5.547-1.172h-32.901l-3.807-.234zm-230.31.256c-1.466.582-1.844 1.147-1.901 2.697l.267 4.351v53.567l.272 4.079v57.374c.011.952.125 2.733.704 3.494.729.957 1.762.854 2.831.857h23.928l4.079.272h148.466c2.219 0 7.181.576 8.383-1.645.376-.696.318-1.659.318-2.434v-18.762l-.271-4.623v-46.497l.271-4.079v-28.823l.272-4.079v-7.886c0-2.675.237-6.425-2.991-7.436-.655-.207-1.487-.177-2.175-.177h-12.78l-4.623-.25H212.638ZM502.773 265.14c-.941.299-1.841.584-2.423 1.427-.889 1.284-.568 6.061-.568 7.796v81.031c.002.938-.071 2.108.503 2.902.878 1.207 2.248 1.174 3.575 1.177h77.768c2.483-.035 2.445-.767 2.448-2.991v-88.373c-.006-2.678-.313-2.985-2.992-2.969h-69.066z"/>
    </g>
    <g id="Fence_ext" class="map_border">
      <path d="M330.115 517.07v-79.3h-83.564l-14.681 2.447H6.58635V7.52829H314.493V39.7117h172.022v16.374c5.706.3813 10.22 2.8496 12.61 9.034l39.9 4.1406 55.709 2.6348 21.456-2.4466h130.239V268.948l2.07 5.646.753 34.254 2.961 5.107"/>
    </g>
    <g id="Fences_int" class="fence">
      <path d="m13.6903 74.3511.1902-58.1878 160.4915.3803"/>
      <path d="M179.126 16.3534h64.653"/>
      <path d="M250.625 16.5436h57.998"/>
      <path d="M308.813 21.2975v52.2929"/>
      <path d="M305.01 112.953h9.507V83.2884m-5.514-3.9933v28.1429h-4.564"/>
      <path d="M314.327 78.9148V40.5623"/>
      <path d="M13.6903 80.8164v70.3576"/>
      <path d="M13.8805 160.302v28.903"/>
      <path d="M14.0706 194.149v80.817h36.7002"/>
      <path d="M188.254 266.409v15.212H85.189m58.568-7.035h34.228l.19-7.987m-120.7488 8.367h82.3378"/>
      <path d="M78.5336 281.431H16.7328"/>
      <path d="M11.5986 281.621H7.38013"/>
      <path d="M232.75 434.887v-95.839h-14.261v-19.586m-4.754 9.698v14.262h14.642v91.465"/>
      <path d="M218.298 314.138v-43.546h6.846m.19-3.803h-11.599v57.427-.19"/>
      <path d="M323.265 427.471h7.796"/>
      <path d="M335.435 427.471h28.333V377.65h2.662"/>
      <path d="M370.043 377.65h17.494"/>
      <path d="M393.242 377.84h62.942v25.862"/>
      <path d="M456.184 413.399v19.206h-14.642"/>
      <path d="M438.119 432.605h-97.55"/>
      <path d="M336.575 432.605h-13.31"/>
      <path d="M208.03 247.203h90.324"/>
      <path d="M304.895 247.304h85.446"/>
      <path d="M390.153 242.034h-87.14"/>
      <path d="M296.425 241.846H239.21"/>
      <path d="M233.941 241.846h-25.973"/>
      <path d="M407.468 248.622v-29.549"/>
      <path d="M483.88 187.831v9.598h-71.519v25.032m-4.893-7.717v-22.02h71.895v-4.14"/>
      <path d="M412.361 226.978v21.644"/>
      <path d="M486.327 56.8853v45.4997"/>
      <path d="M486.327 105.584v10.163l-1.506 14.304"/>
    </g>
    <g id="Rocks" class="rock">
      <path d="M442.407 537.85h.272l-.272.272z"/>
      <path d="m99.7932 534.043.8158.816z"/>
      <path d="M559.331 610.723c-.681-2.467.492-4.922 1.516-7.111.986-2.327 3.438-3.355 5.404-4.682 3.482-2.065 6.964-4.209 9.819-7.119 1.501-1.447 3.155-2.726 5.008-3.685 3.811-2.236 7.712-4.323 11.393-6.773 2.349-1.391 4.517-3.305 7.296-3.737 2.304-.196 4.208 1.408 6.227 2.257 2.737 1.216 4.761 3.464 6.916 5.458 1.559 1.477 3.723 2.344 5.878 1.934 2.644-.204 4.942-2.154 5.686-4.68.811-2.123.529-4.423.797-6.625.911-3.517 4.178-5.61 7.107-7.362 2.36-1.315 4.852-3.144 7.718-2.585 2.874.303 4.726-2.308 7.133-3.356 1.781-.891 4.065-.231 5.587-1.739 1.329-1.274 2.921-2.258 4.726-2.677 1.865-.667 4.058-.937 5.498-2.407.981-1.397.86-3.233 1.682-4.716 1.306-3.023 3.221-6.337 6.603-7.296 2.273-.527 4.861-.567 6.638-2.3 1.833-1.841 3.947-3.364 6.243-4.576 3.061-1.719 6.068-3.665 9.461-4.664 2.602-.344 5.244.169 7.803.632 2.623.625 5.592 1.661 6.748 4.334.996 2.068 1.285 4.393 2.337 6.439 1.246 2.827 2.419 5.692 3.711 8.496 1.551 2.353 4.36 3.507 5.836 5.937 1.649 2.075 1.711 4.843 2.156 7.341.443 2.609-.032 5.237-.123 7.854-.086 1.711-.264 3.433-.292 5.137.676 2.073 1.483 4.123 1.638 6.321.271 2.687.957 5.74-.818 8.086-2.361 3.543-5.125 7.221-9.282 8.723-3.247 1.205-6.798.633-10.118.087-2.174-.254-3.34-2.308-4.887-3.594-1.053-1.163-2.903-2.232-4.204-.761-1.478 1.399-3.215 2.616-5.307 2.8-2.367.304-4.795.796-7.175.381-1.82-.477-3.308-2.424-5.351-1.776-2.798.912-5.26 2.77-8.219 3.206-1.451.287-2.888.693-4.348.904-1.403-.166-2.898-.353-4.157.47-1.663.853-3.13 2.716-5.204 2.15-1.347-.535-2.858-.264-3.847.832-1.66 1.33-2.832 3.28-4.745 4.271-1.708.32-3.473.111-5.207.171z"/>
      <path d="M446.758 530.78h.272l-.272.272z"/>
      <path d="M171.035 505.881c4.387-.52 8.617 1.086 12.804 2.129 2.466.674 4.488 2.287 6.667 3.546 2.24 1.351 4.435 2.783 6.704 4.082 1.956.943 3.881 1.96 5.856 2.858 2.101.731 4.255 1.346 6.191 2.475 3.017 1.579 5.856 3.589 9.198 4.446 1.823.665 3.857.697 5.573 1.636 1.393.86 1.324 2.653 1.311 4.088.109 2.094 2.164 3.248 3.96 3.76 1.687.64 3.867.688 4.967 2.316.831 1.576 0 3.363-.513 4.91-1.006 2.691-3.217 4.703-5.668 6.09-3.272 1.829-6.026 4.453-9.369 6.157-2.402 1.353-5.311 1.351-7.704 2.7-1.756 1.115-1.995 3.462-3.632 4.699-1.633 1.348-3.509 2.718-5.683 2.901-1.989.03-3.384-1.917-5.401-1.798-1.156.082-2.289-.233-3.243-.887-2.206-1.106-4.757-.647-7.134-.77-4.318-.04-8.714.041-12.861 1.386-3.333 1.022-6.681 2.101-9.793 3.688-1.663.788-2.454 2.737-4.281 3.255-1.436.565-2.93 1.002-4.328 1.65-2.297 1.239-4.575 2.518-6.886 3.731-1.989.835-4.228 1.129-6.048 2.332-2.601 2.345-4.571 5.383-7.566 7.293-1.424.967-3.129 1.55-4.859 1.414-2.212-.141-4.506.654-6.625-.254-1.663-.762-2.833-2.498-2.791-4.344.144-1.447-1.421-2.737-2.774-2.034-1.655.653-3.453 1.994-5.279 1.113-2.416-1.344-4.004-3.926-4.493-6.611-.232-1.566-1.442-2.631-2.296-3.866-1.051-1.376-.057-3.037.981-4.061 1.389-1.461 1.949-3.497 3.273-5.011 1.107-1.27 2.333-2.626 2.429-4.401.323-2.902 1.45-5.637 2.476-8.346 1.095-2.821 4.145-3.917 6.225-5.846 1.613-1.368 2.587-3.3 3.132-5.314.973-2.898 1.499-5.951 2.761-8.746.607-1.426 1.966-2.364 3.477-2.583 2.116-.434 4.276-.683 6.437-.619 1.821-.261 2.15-2.694 3.982-2.917 1.65-.071 3.363-.343 4.696-1.406 3.205-2.418 5.179-6.128 8.528-8.393 5.116-3.781 11.41-5.452 17.599-6.448z"/>
      <path d="M546.823 503.714c5.088-.653 3.279 5.759 2.349 8.576-.598 1.819-1.607 4.152-3.165 5.305-1.172.865-3.004 1.335-4.35 1.977-1.123.538-2.66 1.599-3.807 1.808-1.691.31-2.926-.884-4.351-1.458-1.539-.62-3.04.079-3.994-.726-.797-.671-.639-2.142-.628-3.099.008-.68.013-1.246.231-1.904.212-.639 2.181-4.051 2.632-4.617 2.178-2.746 5.974-2.89 9.101-3.788z"/>
      <path d="M437.785 501.337c2.768.125 2.82 1.186 4.894 1.944 1.719.628 4.15.052 5.71.46 1.548.402 2.57 1.724 4.079 1.96 1.232.196 2.078-.277 2.991-.383 1.066-.125 1.939.285 2.991.4 1.14.122 2.82-.139 3.804.364 1.572.81 4.422 4.984 1.085 6.733-1.356.674-3.684.087-5.161 0-2.05-.049-2.33.394-4.078.709l-2.991.245c-1.455.226-2.293.617-3.807.217-2.749-.726-5.213-4.054-7.326-2.621-1.253.851-.962 1.871-1.318 3.1-.332 1.145-.971 2.064-1.694 2.991-3.117 3.997-4.745 3.565-7.019 5.993-2.327 2.485-1.242 3.111-2.224 4.582-.832 1.251-2.665 1.4-2.953 2.76-.457 2.156 4.19 2.575 3.546 5.427-.294 1.303-1.417 2.415-1.564 3.807-.097.911.302 1.798.378 2.719.12 1.444-.427 1.955-.16 3.535l.911 3.263c.054.851-.492 1.898-1.482 1.523-1.074-.408-1.221-2.222-1.558-3.154-.868-2.396-2.994-2.369-2.779-5.167.073-.938.266-1.392.201-2.447-.291-4.701-5.12-4.353-4.821-8.429.071-.947.642-5.066 1.041-5.7.683-1.082 1.977-1.639 2.989-2.393.93-.69 2.45-2.186 3.236-3.056 1.354-1.504 1.824-3.494 2.95-5.166 1.147-1.708 3.157-3.522 3.962-5.167.609-1.25.348-2.004.584-3.263.631-3.361 1.996-5.539 5.583-5.786z"/>
      <path d="M403.801 497.563c2.569-.22 5.188 3.6 2.436 4.739-.661.272-3.717 1.042-4.304.726-1.539-.826.084-3.953.886-4.815.411-.444.498-.406.982-.65z"/>
      <path d="M358.385 494.264c2.959-.503 3.456 2.801 1.349 3.601-1.43.543-3.448-.702-3.024-2.138.237-.796.993-1.15 1.675-1.463z"/>
      <path d="M101.968 490.11c1.983-.245 6.276-.136 7.859 1.125 1.699 1.354 1.417 3.685 3.301 4.539.761.345 1.865.182 2.708.206 2.967.082 4.299 2.757 3.663 5.433-.307 1.292-1.286 2.543-2.151 3.524-3.173 3.603-5.321 3.546-9.669 4.416-1.387.277-3.551.819-4.895.737-1.028-.063-2.009-.397-2.9908-.677-4.3724-1.248-8.6062-3.296-11.9589-6.415-2.3113-2.15-3.1053-6.058-.987-8.644 1.3623-1.661 3.1134-1.963 5.0603-2.425z"/>
      <path d="m494.343 489.623 6.526.924 2.448.691c1.196.111 2.107-.59 3.263-.606 1.617-.019 2.716 1.131 4.35.93 1.368-.166 2.241-1.142 4.079-1.27l5.166.669c2.608.098 6.649 2.906 6.127 5.83-.174.978-.607 1.925-1.322 2.626-.805.794-1.64.99-2.629 1.417-1.95.843-3.546 1.748-5.711.663-1.884-.94-3.912-4.214-6.526-3.393-2.942.924-.329 4.046-3.002 6.186-1.403 1.126-3.195.99-4.339 1.496-2.333 1.036-2.741 3.11-5.982 2.825-1.798-.158-2.967-1.05-4.895-.917l-10.605 3.111c-1.547.275-3.336-.185-4.894-.44-1.202-.199-3.144-.134-4.016-.911-1.616-1.436-.299-4.253.843-5.583l1.941-1.939c.949-1.163.925-2.379 2.325-3.214 1.604-.959 6.172-1.082 8.424-2.507 2.371-1.501 6.107-5.857 8.429-6.588z"/>
      <path d="M460.082 488.758c1.123-.155 3.63-.302 4.622.193 1.115.558 1.939 1.874 3.263 2.551 1.371.701 3.106.386 4.471 2.053 2.216 2.703.261 7.312-2.295 7.771h-2.719c-1.605.212-3.671 1.371-5.167.625-.772-.386-1.694-1.473-2.447-2.063-2.018-1.583-3.266-1.091-5.226-5.273-.384-.821-.854-1.794-.514-2.708.666-1.776 4.302-2.768 6.012-3.149z"/>
      <path d="M399.733 482.928c3.043-1.03 4.212 2.067 1.881 3.25-1.77.9-4.312-1.352-1.881-3.25z"/>
      <path d="M391.298 470.923c2.722-.098 3.075 3.606 0 4.729-1.107.397-2.387-.112-2.273-1.43.103-1.235 1.24-2.739 2.273-3.299z"/>
      <path d="M591.417 468.087c1.871-.147 6.488 1.354 6.426 3.687-.03 1.107-2.113 3.263-2.902 4.079-2.713 2.798-3.69 2.358-7.083 3.086-1.338.286-2.983.789-4.326.694-4.055-.283-3.916-2.831-3.579-5.955.18-1.694.286-3.032 1.703-4.245 1.427-1.218 3.396-.919 5.139-.922 1.555-.002 3.083-.212 4.622-.424z"/>
      <path d="M437.513 462.668c3.1-.484 3.206.685 5.438 1.321l2.719.259c.887.149 1.874.565 2.719.886 2.537.957 5.477 2.439 5.597 5.553.043 1.131-.087 1.666.581 2.719.941 1.479 3.337 3.339 2.377 5.424-.571 1.238-1.947 1.51-3.116.985-1.814-.816-2.73-3.315-4.846-1.213-1.183 1.18-2.406 3.886-5.215 5.436-2.333 1.286-5.327.832-7.228 3.01-1.299 1.487-.334 2.314-.174 3.76.191 1.719-.883 2.774-1.789 4.079-2.493 3.603-3.605 5.376-8.212 6.271-2.713.527-6.735-2.081-6.963-4.911-.131-1.602.777-3.755.677-4.351-.24-1.392-1.947-1.648-2.119-4.351-.253-4.019 2.138-5.819 4.356-8.701l3.674-4.894 2.591-2.991c.982-1.474 1.534-4.425 4.041-6.42 1.229-.977 3.364-1.485 4.892-1.871z"/>
      <path d="M413.31 459.448c3.611.327 1.25 5.142-1.08 4.484-1.482-.419-1.68-2.482-.892-3.472.492-.617 1.24-.835 1.972-1.012z"/>
      <path d="M399.776 458.461c1.858-.53 1.722.835 2.029 2.165.242 1.052.892 2.281-.248 3.089-1.036.734-2.02-.28-2.439-1.191-.631-1.373-.473-3.038.658-4.063z"/>
      <path d="M564.77 453.077h1.087c2.118-.138 5.235 1.053 4.753 3.742-.166.938-1.011 1.702-1.471 2.719-.459 1.02-.356 1.914-1.082 3.263l-2.284 3.263c-.802 1.602-.413 4.889-3.451 6.55-1.522.83-5.473 2.013-7.07 1.213-1.919-.962-2.92-3.858-4.883-3.2-1.077.361-1.727 1.797-2.755 2.719-1.476 1.321-2.365.821-4.054 1.822-1.531.908-2.287 2.159-3.535 2.409-1.389.28-2.357-.938-4.622-1.517l-6.254-.294c-1.485-.247-3.119-1.243-4.623-.971-1.319.237-3.171 1.798-4.351 2.543l-5.71 2.648c-.672.201-1.215.209-1.903.218-1.991.021-5.074.25-6.798-.696-1.27-.694-2.157-1.839-3.263-2.739-1.082-.878-2.556-1.705-3.062-3.091-.324-.889-.065-1.711.655-2.309.832-.693 1.945-.663 2.904-1.245 2.336-1.417 2.513-3.375 6.029-3.233 2.064.081 4.008.924 5.982 1.43l6.254.81 4.623.612c2.006-.103 6.05-3.051 8.701-3.924 1.743-.573 2.423.12 4.079.221 1.876.114 7.499-2.051 9.517-2.809 2.085-.789 5.511-2.078 6.98-3.717 1.454-1.626 1.28-3.187 2.836-4.381 1.368-1.047 5.003-1.675 6.771-2.056z"/>
      <path d="M482.379 450.445c.647-.111 1.262-.223 1.903 0 1.735.642 3.701 4.022 3.796 5.83.057 1.08-.31 3.927-.723 4.895-.348.818-.995 1.49-1.713 1.998-.835.593-6.219 2.673-7.342 2.961-1.03.264-2.053.313-2.991-.266-1.161-.715-1.786-1.947-3.263-2.154h-2.447c-1.066-.087-1.811-.53-2.991-.337-1.207.196-3.065 1.417-4.895 1.273-1.215-.098-4.581-1.809-5.71-2.483-.402-.242-.729-.465-1.082-.778-2.494-2.208-.78-3.744-.974-5.653-.171-1.716-1.278-2.792.455-4.234 2.379-1.982 4.231.041 6.496.256 1.153.109 1.917-.4 3.535.674 1.479.985 2.047 2.342 3.265 2.491 1.373.171 3.271-1.841 5.164-2.591 1.936-.767 2.447-.019 4.079-.215 1.835-.22 3.643-1.196 5.438-1.667z"/>
      <path d="M591.689 444.523c2.004.283 2.472 1.517 3.807 1.697.734.1 1.455-.308 2.175-.446 1.599-.313 3.149.13 4.294 1.308 2.531 2.602.364 5.367-1.846 7.2-2.823 2.338-4.713 1.743-7.886 2.58-2.423.637-5.335 1.983-7.886 1.836-5.302-.31-6.496-5.319-3.632-9.215 1.468-2.004 4.391-2.431 6.624-3.386 1.664-.712 2.474-1.43 4.35-1.574z"/>
      <path d="M550.635 439.647c3.201-.883 6.352.286 9.24 1.591 1.221.549 2.469.897 3.032 2.262.601 1.461-.37 2.543-.335 4.37.014.751.117 1.697-.413 2.306-.552.636-1.504.677-2.284.65-1.466-.052-5.397-1.341-6.469-2.309-1.264-1.142-.897-2.145-2.066-3.662-1.384-1.798-3.892-3.402-.705-5.208z"/>
      <path d="M588.97 434.938c1.632-.267 6.045-.218 7.328.788 2.001 1.569 2.328 4.577-.53 5.398l-5.438.712c-1.311.313-2.747 1.093-4.079.601-1.852-.685-3.222-3.064-1.933-4.843.862-1.188 3.257-2.246 4.652-2.656z"/>
      <path d="M617.521 427.914c2.524-.535 3.266 1.335 4.647 3.073.756.952 1.781 2.211 1.512 3.535-.209 1.019-1.047 1.629-2.08 1.471-1.036-.158-2.311-1.156-3.263-1.656-1.012-.53-2.398-.789-3.157-1.553-1.947-1.963.579-4.076 2.341-4.87z"/>
      <path d="M754.567 416.847c.544 1.67.197 3.449.272 5.171-.006 8.597.012 17.193-.009 25.789.033 1.079-.341 2.142-1.104 2.914-1.399 1.767-2.532 3.724-3.794 5.588-1.343 2.186-3.129 4.054-4.853 5.939-1.499 1.516-3.032 3.318-5.268 3.647-1.108.184-2.529.443-2.909 1.684-.387 1.532.672 2.995.342 4.539-.19 1.729-1.435 3.366-3.184 3.729-1.516.428-3.113.596-4.547 1.284-2.044.806-4.066 1.677-6.123 2.443-1.893.454-4.17.472-5.514 2.095-1.59 1.802-3.122 3.659-4.752 5.425-1.008 1.048-2.333 1.907-2.885 3.304-.347 1.319.283 2.707-.2 4.018-.506 1.902-1.744 3.582-3.458 4.565-2.09 1.205-4.159 2.452-6.167 3.79-1.38 1.016-2.866 2.075-4.653 2.117-2.835.123-5.771.185-8.487-.757-1.674-.543-3.129-2.035-3.108-3.877.032-1.558.479-3.089.994-4.551.393-.817 1.266-1.857.457-2.713-1.028-.977-2.411-1.669-2.98-3.052-.684-1.554-.147-3.368-.954-4.898-.931-2.134-3.158-3.504-3.64-5.873-.549-1.849.396-3.759-.1-5.602-.625-1.44-1.701-2.638-2.354-4.071-.863-1.722-1.586-3.58-1.531-5.538-.126-1.599-.783-3.084-1.199-4.619-.258-.804-.523-1.605-.561-2.455-.305-2.623-.657-5.243-.931-7.869.04-3.527 1.908-6.849 4.436-9.221 1.296-1.165 2.964-2.301 4.8-1.926.786.266 2.289.281 2.021-.96-.565-1.338-1.808-2.455-1.732-4.019-.124-1.453.654-2.719 1.327-3.933.544-1.165.834-2.44 1.372-3.605 1.57-2.427 4.189-3.92 6.748-5.109 1.576-.724 3.412-1.308 5.108-.608 2.109.748 4.179 1.724 5.944 3.114 1.527 1.33 2.775 2.939 4.117 4.447.935 1.081 1.558 2.458 1.474 3.912-.127 3.013.84 5.966.614 8.978-.151 1.471-1.207 2.618-1.557 4.016l-.262 3.475c-.171 1.107-1.591 1.8-1.255 3 .473 1.045 1.397 2.151.843 3.358-.839 2.058-3.717 2.234-4.42 4.398-.5 1.999-.819 4.078-.72 6.144-.019 1.377.976 2.452 2.083 3.13 1.107.624 2.054 1.61 3.314 1.919 1.424.179 1.624-1.601 1.684-2.628.118-1.844.176-3.801 1.278-5.377 1.176-1.867 2.531-4.004 4.859-4.488 1.633-.388 3.309-.134 4.959-.048 1.298-.078 1.905-1.46 1.614-2.604-.208-1.417-.784-2.901-.169-4.303.842-2.364 3.256-3.485 5.155-4.865 2.073-1.443 3.975-3.607 4.012-6.267-.017-1.405.298-2.929 1.44-3.862 1.548-1.323 3.468-2.091 5.152-3.217 2.045-1.295 4.242-2.353 6.588-2.968 2.107-.683 4.326-1.171 6.23-2.341 1.032-.548 1.278-1.842.708-2.812-.505-1.007-.689-2.381.233-3.216 1.515-1.506 3.433-2.513 5.202-3.68z"/>
      <path d="M124.276 408.075c2.252-.546 2.483.473 4.34.656 1.025.1 1.673-.327 2.437-.172 1.316.269 2.11 2.059 1.014 2.956-.509.413-.96.307-1.547.302-1.77-.017-3.671 1.202-5.167.832-1.93-.481-3.581-3.114-1.077-4.574z"/>
      <path d="M120.005 403.091c1.237-.016 2.091.843 2.295 2.064.081.484.098 1.495-.55 1.618-.859.16-2.974-2.54-1.745-3.682z"/>
      <path d="M114.776 392.315c3.075-.438 2.403 2.638 2.518 3.595.144 1.207.935 2.656-.672 3.333-1.457.615-2.629-.375-3.103-1.702-.663-1.86-.595-4.125 1.257-5.226z"/>
      <path d="M151.786 383.918c.139.019.278-.141.718 0 .756.117 2.861 1.928 2.861 2.747 0 .772-.846 1.422-1.461 1.748-3.042 1.615-4.339-2.518-2.118-4.495z"/>
      <path d="M116.924 383.249c1.112-.117 2.567-.065 3.396.813 1.591 1.678-.06 4.163-2.037 4.441-2.547.359-5.405-2.532-3.45-4.441.568-.554 1.349-.666 2.091-.813z"/>
      <path d="M84.5686 379.801c3.2793-.552 1.2127 3.345-.2746 3.739-.8919.237-1.501-.707-1.4629-1.498.0516-1.08.8755-1.773 1.7375-2.241z"/>
      <path d="M126.718 379.538c1.096.108 1.773.601 2.157 1.688.456 1.295-.512 2.012-1.618 1.776-1.645-.354-2.893-2.681-.539-3.464z"/>
      <path d="M130.808 376.886c2.521-.723 3.407 2.168 1.824 3.13-2.093 1.273-4.244-1.261-1.824-3.13z"/>
      <path d="M621.872 376.215c2.531-.46 5.229.402 6.077 3.108.212.677.185 1.724.177 2.447-.022 1.841-.615 4.546-2.719 5.044-2.964.702-2.795-3.165-3.307-4.228-.886-1.849-3.97-3.799-1.299-5.844.418-.321.614-.348 1.071-.527z"/>
      <path d="M87.5597 370.099c2.4363-.47 2.2949 2.826.5302 3.737-1.297.668-2.2542-.229-2.091-1.583.1278-1.058.7423-1.596 1.5608-2.154z"/>
      <path d="M668.098 359.932c2.836-.01 4.571 1.705 6.033 3.892.558.832 1.2 1.669 1.208 2.719.008 1.044-.966 2.904-1.509 3.807-.476.785-1.896 2.86-2.518 3.445-1.248 1.172-3.932 2.27-5.662 2.121-1.849-.158-4.728-.93-5.751-2.581-.579-.935-.367-1.642-1.199-2.985-1.351-2.187-2.716-2.774-2.556-5.711.191-3.434 3.815-4.78 6.787-4.598l2.719.424c.805-.013 1.651-.372 2.448-.533z"/>
      <path d="M685.5 346.326c1.702-.264 4.696.96 4.449 3.086-.215 1.844-2.738 3.097-4.449 2.961-.854-.068-4.242-.971-4.859-1.468-1.12-.903-1.493-2.529-.266-3.53 1.104-.9 1.966-.299 2.95-.369.669-.049 1.517-.454 2.175-.68z"/>
      <path d="M662.121 343.724c1.833.092 3.793 2.773 3.69 4.6-.076 1.336-1.52 2.641-2.88 2.358-2.444-.509-3.717-5.716-.81-6.958z"/>
      <path d="M681.432 339.019c1.268-.217 3.127.21 3.788 1.447.781 1.46-.837 3.181-2.711 2.899-1.871-.283-3.551-2.948-1.077-4.346z"/>
      <path d="M679.529 328.211c3.937-1.243 8.046 5.359 2.436 5.919-3.238.324-5.577-3.592-2.436-5.919z"/>
      <path d="M674.629 325.165c2.485-.263 2.559 2.032 1.066 2.554-1.324.465-3.559-1.24-1.066-2.554z"/>
      <path d="M65.5562 320.059c1.414.215 2.0231 2.039 2.5479 3.249.2882.666.4949 1.596-.4596 1.811-2.1535.487-3.3772-3.554-2.8687-4.467.2583-.468.3997-.403.7804-.593z"/>
      <path d="M72.0414 318.977c2.1237.962.155 3.798-1.3269 3.336-1.569-.484-1.501-3.239 1.3269-3.336z"/>
      <path d="M233.304 610.723c.511-2.727 2.328-3.883 2.434-6.254.07-1.525-.471-3.075-.21-5.166.248-1.966 1.436-2.692 1.942-4.895l.304-5.166 2.499-9.517c.609-2.442 1.909-8.759 3.269-10.594 1.419-1.914 5.919-3.244 8.252-3.274 1.849-.022 4.481-.179 5.925 1.164.927.859 2.167 3.529 3.367 4.345 1.506 1.023 2.779-.617 5.114.976 1.015.691 1.458 1.471 2.072 2.488 2.605 4.31 1.779 5.477 3.318 8.147.696 1.21 1.106 1.202 2.072 2.031 4.07 3.489 5.482 2.972 9.403 5.512 1.356.878 3.037 2.706 4.622 2.757 1.139.036 2.069-.617 2.597-1.599l1.175-3.524c.62-1.446 2.664-4.913 3.578-6.254.797-1.169 1.922-2.83 2.986-3.714 1.218-1.012 7.676-3.859 9.514-4.677 2.844-1.267 4.109-2.249 7.342-2.213 3.187.038 6.295.946 9.245 2.061 1.384.522 2.643.908 3.663 2.066 2.104 2.39 1.685 6.159 3.956 6.793 1.604.446 3.467-2.48 4.345-3.579.982-1.226 3.851-4.516 4.313-5.71.492-1.273.204-2.51.359-3.807.149-1.218 1.229-3.864 1.89-4.894 1.299-2.029 4.481-3.163 4.676-5.711.107-1.37-1.316-1.99-2.265-2.656l-2.175-1.55c-1.699-.963-2.801-.702-4.516-2.863-2.437-3.07-.773-5.18-2.043-8.43-.6-1.539-1.84-2.855-2.917-4.078-1.852-2.105-3.921-5.121-6.839-5.708-1.373-.275-2.27.247-3.535.498h-4.079l-3.806-.234c-1.556.119-2.749.573-4.351 0-2.075-.821-3.394-2.864-4.397-3.611l-3.489-1.746c-.981-.574-2.653-2.061-3.51-2.871l-1.939-2.1-3.478-3.535c-1.971-2.188-2.991-3.967-5.484-5.87-2.888-2.205-7.073-3.462-10.605-4.12-3.032-.565-6.175-.764-8.962-2.219-1.319-.687-2.227-2.123-3.103-3.29-1.297-1.724-3.684-4.582-5.609-5.522-1.365-.667-2.698-.09-4.079.255-4.53 1.134-5.607 2.597-9.245 3.595-1.406.383-2.643.794-4.079.277-1.705-.614-4.193-2.379-5.349-3.771-1.308-1.575-1.427-2.64-3.352-4.294-1.151-.987-3.146-1.868-4.623-2.221-.973-.234-2.137-.229-2.964-.797-1.514-1.044-1.987-3.742-1.92-5.468l.762-7.614c.103-.979.174-2.673.633-3.524.435-.802 3.541-2.776 4.577-3.663 1.449-1.24 2.648-2.594 4.35-3.545 1.148-.645 3.514-1.227 4.895-1.686 1.553-.514 3.538-1.224 5.166-1.167 1.27.046 2.309.53 3.535.802l6.798 1.295 8.158 1.4c1.734.076 4.693-.767 6.254-.411 3.366.77 4.111 5.18 4.078 8.052-.029 2.488-1.675 6.284-3.388 8.076-.783.818-2.79 1.958-2.333 2.817.43.807 2.461 1.079 3.274.916 1.898-.378 3.078-2.98 6.254-1.604 2.276.987 4.984 4.549 6.798 6.382 2.814 2.841 5.384 4.359 8.973 6.042 1.262.593 5.645 2.273 6.54.715.364-.631.03-1.672 0-2.407-.044-.927.033-1.846.367-2.719.242-.631.522-1.101 1.014-1.571.849-.808 1.803-1.134 2.956-.968 3.056.437 4.497 3.431 6.333 5.53.53.609 1.368 1.507 2.096 1.852 1.711.813 3.663-1.24 6.244.555 1.547 1.077 1.732 2.208 2.384 3.771l3.337 8.234c.9 2.26 1.299 3.896 3.807 4.9 2.063.826 5.207.027 7.341-.345l14.14-2.584c.979-.321 2.624-1.144 3.535-1.664 4.16-2.382 6.273-5.955 11.692-5.735 3.282.134 5.808 1.648 8.152 3.843 1.923 1.797 1.498 3.162 2.477 3.162.832 0 1.126-1.251 1.36-1.849.451-1.15 1.085-2.197 2.423-2.377 2.409-.32 5.756 2.578 7.885 2.314 2.105-.258 4.753-3.069 5.738-4.831.758-1.363 1.289-3.421 3.236-3.421 2.36 0 2.846 3.072 4.628 5.324.543.688 1.392 1.879 2.417 1.523 1.017-.354 1.493-2.097 3.015-2.736 1.33-.457 2.551.302 3.807 0 1.474-.473 2.844-2.132 4.079-2.743 1.795-.89 10.224-.849 9.637 4.228-.191 1.656-1.314 2.537-2.108 6.526-.484 2.697.351 3.472 0 4.894-.304 1.006-1.093 1.746-2.091 2.021-.742.204-1.49.1-2.175-.24l-2.991-2.172c-1.64-.9-4.348-1.246-5.403.674-.993 1.797.87 2.844 1.251 4.612.242 1.128-.033 1.4.715 2.719.859 1.509 2.023 2.067 2.795 3.807.772 1.743.335 2.961 1.316 4.622.947 1.602 2.747 2.684 3.04 4.623.392 2.602-2.287 3.63-3.6 6.254-1.033 2.069-.313 3.592-.163 5.71.141 1.993-.881 3.214-.859 4.351.032 1.591 1.737 3.241 3.355 2.912 1.672-.34 3.209-2.053 4.351-2.597 1.525-.726 3.567-.092 4.889.802 2.89 1.956 1.463 3.832 1.465 5.137 0 1.577 1.254 3.97 2.63 4.78 1.022.604 4.272.813 5.971 1.322 3.16.943 3.84 2.091 5.71 2.708 1.662.549 1.991.272 3.535.188 2.116-.115 4.318.938 5.52 2.694.835 1.216.498 1.868 2.91 4.033 1.55 1.389 5.34 3.815 6.324 5.223 1.355 1.852.158 3.913 0 5.972-.168 1.631.474 3.015.324 4.35-.212 1.866-1.338 2.885-1.648 4.351-.56 2.629 1.036 3.924 2.526 5.71.452.544 1.194 1.689 1.743 2.029.702.435 1.216.176 1.683-.433l1.143-2.412 2.006-2.719c1.15-1.871.531-3.1 1.509-4.894 1.017-1.86 3.103-2.559 4.476-4.084 1.417-1.572 2.08-4.536 4.658-6.344 1.969-1.382 4.231-.8 6.249-2.257.688-.495 1.547-1.343 1.435-2.271-.22-1.857-3.959-3.415-5.509-4.078-1.843-.789-6.572-2.524-7.874-3.628-.773-.652-1.414-1.544-2.015-2.354-1.175-1.588-1.507-2.089-1.531-4.079-.027-2.312.612-6.295 2.018-8.158l4.755-4.622c1.746-1.882 3.076-4.218 5.463-5.441 2.679-1.371 5.109-.83 6.526-1.42 1.947-.81 2.997-2.784 5.71-3.461 1.281-.318 3.318-.634 4.623-.509 1.74.166 3.437.838 5.166.237 2.57-.895 5.643-3.173 8.702-3.959 3.806-.979 4.538.209 6.526-.346l4.35-1.859c1.107-.384 4.288-.221 5.439 0 1.049.282 3.35 1.479 4.35 2.036 2.265 1.265 7.706 5.245 9.789 6.95 1.104.903 3.968 3.959 5.411 3.307 2.526-1.145-.078-4.734.362-7.228.579-3.276 3.907-1.729 4.696-4.084.288-.859-.37-1.955-.748-2.714-.859-1.734-1.359-2.335-1.28-4.35l2.49-13.596c.321-1.702.335-4.799.928-6.254 1.269-3.105 4.712-3.097 5.862-5.172.71-1.278-.416-2.268-.269-4.345.155-2.167.19-5.705 2.153-7.029 1.52-1.025 3.04-.12 4.405-1.972 1.273-1.729.968-5.457 1.898-7.031 1.991-3.372 8.131-2.222 11.345-2.187 1.871.022 6.439.558 8.157 1.156 1.702.593 2.445 1.863 4.351 2.053 3.502.351 5.343-3.355 7.236-5.656 1.862-2.259 4.067-4.677 7.175-4.87 1.055-.065 1.51.128 2.448.201h.81c2.98-.399-.484-3.067 1.678-4.647 2.172-1.59 5.264 1.466 7.26.294.843-.492.837-1.264.856-2.126l.272-4.623v-4.079l-.272-5.166-.272-4.623v-6.254c.047-3.785.816-4.584 3.807-6.757.889-.644 1.936-1.406 2.991-1.726 1.39-.427 3.709-.351 4.895-.917 1.066-.508 1.759-1.365 2.444-2.292l4.922-6.798c.854-1.852.237-2.651.821-4.351.463-1.354 2.812-4.742 3.75-5.982 2.733-3.619 6.162-6.749 9.248-10.061l10.346-10.876 4.906-5.156 5.982-4.93c2.507-2.352 2.844-3.866 3.635-7.045.264-1.055.615-2.466.691-3.535l.272-3.263c.149-2.186-.359-3.249 1.204-5.166 1.602-1.961 6.396-5.101 8.609-6.923l5.439-5.267c3.238-2.891 5.577-4.259 9.517-5.914 1.89-.792 5.207-2.287 7.07-2.717 3.01-.696 7.561-1.12 10.077-3.051 2.776-2.197.236-3.82 0-6.311-.006-.639.13-1.275.234-1.903.505-3.062 1.234-4.041 3.828-5.863l5.982-3.361 4.079-2.996c1.248-.775 2.697-1.284 3.801-2.249 1.708-1.49 1.692-2.529 2.869-4.019.919-1.164 3.595-3.203 5.022-3.633.699-.212 1.705-.185 2.445-.174 1.422.025 4.911.952 5.716 2.078.337.473.269 1.427.269 1.998v37.253l-2.447-.726-5.711-.362c-2.583-.03-5.142-.582-7.613.397-.77.305-2.1.946-2.366 1.789-.307.971 1.55 3.252 2.132 4.068 3.034 4.261 3.442 5.86 5.601 10.333.729 1.512 2.301 5.229 2.472 6.798.174 1.604-.103 2.355-.215 3.807v2.991l-1.359 8.973c-.101 3.13 2.004 5.468.989 7.317-.682 1.246-2.732 1.874-3.991 2.434-3.233 1.438-6.76 4.1-10.333 4.117h-1.904l-12.236 1.628c-2.482-.057-4.163-1.082-5.438-1.182-1.357-.109-4.215 1.049-5.438 1.699-3.777 2.001-5.308 4.103-8.43 6.425l-10.061 6.227c-3.146 1.961-5.615 4.049-9.517 3.962-1.332-.032-3.255-.595-4.35-.313-1.281.329-2.953 1.782-4.079 2.567-1.876 1.311-2.295 1.374-4.351 2.151-1.775.675-5.343 1.569-6.314 3.222-.723 1.232.365 2.252 1.001 3.253 1.37 2.164 1.901 4.38 2.594 6.797l5.131 19.85 1.509 6.798c.278 1.251.743 2.815.653 4.079l-.449 4.079-.938 8.973-1.001 5.982.754 8.158c-.158 1.892-1.879 5.079-2.575 7.069-.599 1.722-.822 3.766-2.086 5.118-1.188 1.27-5.482 3.741-7.252 3.763-2.931.038-5.025-1.512-7.886.223-.625.378-1.302.892-1.724 1.512-.747 1.185-.252 2.526 0 3.796.37 2.17.729 3.902-.25 5.982-2.583 5.487-5.751 6.931-9.99 10.901-2.839 2.657-2.173 3.32-3.679 5.118-.878 1.046-1.852 1.389-2.741 2.482-1.922 2.358-.813 6.026-3.913 7.293-1.493.609-5.237 1.126-6.798.683-1.112-.319-2.322-1.24-3.806-1.526-.939-.209-2.671.063-3.807 0h-4.623c-2.216-.37-6.67-1.253-8.701-1.082-2.496.212-5.487 2.23-7.886 1.778-1.737-.329-4.527-1.588-5.982-2.591-1.977-1.363-4.432-3.361-7.07-2.912-1.865.315-2.346 2.167-3.276 3.513-.854 1.234-2.507 2.947-3.793 3.711-1.958 1.164-4.705 1.488-4.648 4.446.03 1.594 1.099 2.755 2.2 3.783 2.116 1.971 5.248 3.602 6.931 6.006 1.055 1.507.433 2.95.411 4.623-.014 1.177.106 2.412-.307 3.535-.743 2.023-2.877 3.453-4.218 5.438l-3.69 6.515c-1.24 1.379-5.963 3.823-7.828 4.96-3.423 2.091-5.816 4.674-9.789 5.811-3.116.894-3.606.946-6.798.932l-2.991-.171c-.933.046-3.092.109-3.693.799-.709.819-.081 1.637.4 2.363 2.039 3.087 1.662 3.261 1.662 6.798zM597.41 497.772c-.704.413-1.011.582-1.12 1.466v2.175c-.011 1.395-.878 4.152.854 4.854.922.372 1.702-.476 2.273-1.072 1.107-1.147 2.01-2.167 3.693-2.371 3.339-.405 8.092 3.549 11.42 4.297 1.006.225 2.276.573 3.263.204 2.48-.93 3.19-3.807 1.727-5.912-1.333-1.914-2.774-2.436-4.99-2.447l-8.157.283c-1.286.057-2.162.38-3.535.212-2.418-.299-3.176-2.056-5.428-1.689z"/>
      <path d="M668.641 308.328c.887.079 1.349.212 1.958.933 1.273 1.504.18 2.89-.685 4.258-.498.786-1.077 1.914-2.094 2.061-1.427.204-2.463-1.297-2.379-2.605.111-1.794 1.436-4.155 3.2-4.647z"/>
      <path d="M665.107 298.789c3.021-.386 4.269 2.682 1.626 3.427-2.325.655-4.718-1.868-1.626-3.427z"/>
      <path d="M698.827 251.751c2.463-.158 2.67 2.697.802 3.371-1.205.436-2.412-.592-2.279-1.696.106-.898.759-1.311 1.477-1.675z"/>
      <path d="M699.384 246.375c2.328-.555 2.543 1.969.794 2.472-1.112.318-2.727-.99-.794-2.472z"/>
      <path d="M35.621 237.927c-.1142.587-.2284 1.362-.5384 1.876-.2257.37-.4731.606-.8375.84-3.7633 2.45-4.144-3.554-.2556-3.339.6336.035 1.0931.334 1.6315.623z"/>
      <path d="M459.266 234.12h.272l-.272.272z"/>
      <path d="M740.155 231.069c3.486.571 1.879 4.307-.272 4.255-1.386-.032-2.844-1.702-2.085-3.056.516-.925 1.4-1.109 2.357-1.199z"/>
      <path d="M735.805 225.856c3.276-.25 2.295 3.935.266 4.324-1.259.242-2.488-1.08-2.235-2.314.223-1.099 1.003-1.64 1.969-2.01z"/>
      <path d="M59.8161 220.875c3.2657 1.06-.6526 5.231-2.1618 5.237-1.2671.005-1.6831-1.278-1.2997-2.325.552-1.496 1.9388-2.581 3.4615-2.912z"/>
      <path d="M665.403 213.963c3.586-.735 3.521 5.359.519 4.598-1.718-.435-2.874-3.16-.519-4.598z"/>
      <path d="M26.6478 179.951c3.021-.383 1.7946 3.456.5139 3.826-1.2971.375-3.0563-1.291-2.5207-2.608.2774-.682 1.3678-.992 2.0068-1.218z"/>
      <path d="M299.102 104.38c1.885.422 1.156 2.926.359 4.114-1.612 2.402-2.923 1.518-4.432 2.407-.832.492-1.468 1.387-2.447 1.574-.77.15-4.933-1-3.639-2.401l1.735-1.142 2.176-1.838c.943-.628 1.963-.843 2.991-1.283 1.114-.479 2.066-1.167 3.257-1.431z"/>
      <path d="M145.475 94.5126c3.293-.4161 2.436 2.8034.538 3.3255-1.291.3562-2.43-.8919-2.001-2.1101.269-.7641.789-.9435 1.463-1.2154z"/>
      <path d="M118.893 95.9863c-.626-.1006-2.325-.2991-2.701-.5492-.856-.5765-.919-3.244 0-3.7824 1.539-.9 2.002 1.2454 2.328 2.1563.163.4514.413.8674.373 1.3596.089.4487-.017.5765 0 .8157z"/>
      <path d="M209.647 88.8241c1.866-.2883 2.488.6009 4.079 1.3133 1.251.5575 2.814.7777 3.266 2.314.348 1.1992-.933 4.0217-2.45 3.4887-.8-.2801-1.838-1.6478-2.197-2.401-.191-.397-.335-1.1556-.68-1.4085-.897-.6526-1.7 1.1964-3.095.9843-.962-.1468-1.433-1.1284-1.242-2.023.255-1.1938 1.283-1.8382 2.319-2.2678z"/>
      <path d="M237.655 87.2007c3.548-.3698 4.962 4.3317.815 4.8782-3.279.4324-4.568-3.3554-.815-4.8782z"/>
      <path d="M144.659 82.8093c3.59-.3997 3.462 2.5098 2.82 5.0196-.835 3.2657-1.234 4.7721-4.995 4.6171-1.544-.0625-3.149-1.2671-2.553-2.9612.247-.7015.908-1.0604 1.041-1.6804.133-.6118-.351-1.1856-.269-1.8789.19-1.569 2.613-2.7246 3.956-3.1162z"/>
      <path d="M263.299 80.7699c2.561-.8157 3.633 2.6675 2.279 3.5132-1.471.9191-4.019-1.6641-2.279-3.5132z"/>
      <path d="M121.563 80.4192c2.099-.4079 2.088 1.0468 1.03 1.4982-1.104.4731-2.828-.3752-1.03-1.4982z"/>
      <path d="M269.259 79.4212c2.067-.4242 3.473 2.7708 1.8 3.6981-2.014 1.1203-3.741-1.9796-1.8-3.6981z"/>
      <path d="M148.553 79.1683c1.702-.2719 4.783 1.8328 6.711 1.9062 1.264.0489 2.292-.9463 3.222-.5303 1.164.5167 1.21 2.9503-.508 3.5866-1.463.5411-2.722-.7151-3.802-.8783-1.395-.2094-2.586 1.2128-4.326-.1631-1.055-.8348-2.442-2.7437-1.297-3.9211z"/>
      <path d="M298.058 75.628c1.971-.3317 2.627 1.898 1.281 2.6321-1.403.7641-3.067-1.1502-1.281-2.6321z"/>
      <path d="M121.329 66.6656c1.237-.1223 1.588.8022 1.993 1.8572.707 1.8382.011 3.8232-1.778 4.7368-1.406.7151-2.105-.0788-2.157-1.4738-.057-1.5689.71-4.1413 1.942-5.1202z"/>
      <path d="M168.327 62.8262c1.131.1631 2.341 1.4384 1.974 2.6892-.462 1.5717-2.861 1.0197-3.747 1.8491-.685.6417-.283 1.7892-1.27 1.9387-1.166.1768-1.993-1.1039-1.773-2.1372.297-1.3759 1.662-1.501 2.581-2.2896 1.019-.8783.848-1.4438 2.235-2.0502z"/>
      <path d="M283.608 48.953c1.526-.4595 2.567.2149 2.385 1.8953-.152 1.3976-1.417 4.0896-2.667 4.8319-2.105 1.2481-2.828-.9489-2.679-2.6566.152-1.7647 1.564-3.1433 2.961-4.0706z"/>
      <path d="M279.546 36.173c1.955-.6281 3.674.5955 2.344 1.52-.449.3127-2.295 1.1638-2.82.9925-1.316-.4269-.144-2.0312.476-2.5125z"/>
      <path d="M214.871 28.2385c.391-.0598.522-.2148.992 0 .53.1278.759.5955.656 1.1339-.123.6471-.819 1.278-1.077 2.1699l-.335 4.0787c-.046.533.011 1.2562-.457 1.6261-.6.4758-3.341.4867-3.227-1.3596.038-.5901.582-1.5228.772-2.1699l.345-1.6315c.346-1.1013 1.466-3.0618 2.331-3.8476z"/>
      <path d="M258.864 26.8136c1.332-.0299 2.319.5031 2.945 1.7376.544 1.0768.342 2.6294-1.047 2.8361h-1.354c-1.471-.0164-2.194.3643-3.802-.3481-.764-.3399-1.476-.9979-1.185-1.917.391-1.2454 3.274-2.0394 4.443-2.3086z"/>
      <path d="M218.153 21.2312c1.493.0897 1.27 1.1774.663 1.3705-.658.2093-1.732-.6336-.663-1.3705z"/>
    </g>
    <g id="Railroad" class="railroad">
      <path d="M.134055 155.924s466.401945.762 483.643945.271c17.242-.491 37.241-8.342 46.108-12.522 8.868-4.18 26.666-11.702 37.155-27.59 10.489-15.889 28.609-45.1464 40.113-64.4232C618.657 32.383 636.326.472753 636.326.472753"/>
      <path d="m26.3247 172.939 159.4393.675"/>
      <path d="m26.3247 199.67 159.4393.54"/>
      <path d="m127.172 173.074 46.846 13.906"/>
      <path d="m126.902 199.94 46.981-12.96"/>
      <path d="M26.3247 186.845s408.1953.142 426.6103.135c18.415-.008 32.003-2.836 47.251-9.181 15.249-6.344 25.758-12.468 35.506-22.14 9.748-9.672 28.273-34.299 28.273-34.299"/>
    </g>
    <g id="Concrete" class="cement">
      <path d="M512.624 267.767c1.384-.368 4.354-.202 5.92-.202h58.462c.935 0 3.54-.157 4.233.318.789.544.659 1.825.661 2.673v83.479c-.005 2.76-.231 2.985-2.991 2.991H516.64c-.935 0-3.54.157-4.233-.318-.789-.544-.658-1.825-.661-2.673v-80.759c0-.939-.114-4.161.201-4.832.22-.474.318-.419.677-.677z"/>
      <path d="M268.109 265.39h60.909c.936 0 3.541-.158 4.234.318.789.544.658 1.825.661 2.673v71.514h-1.632v21.753h1.632v29.367l-.473 1.974-2.518.473h-32.63v23.113h4.622v20.394h-34.261l-1.626-.435-.277-2.556h.815V321.133h-.815v-7.07h1.359z"/>
      <path d="M72.0577 218.354c1.5445-.517 5.0196-.277 6.7979-.277h69.3384c2.273.043 3.095 1.46 4.623 2.991 1.786 1.789 2.17 1.83 2.175 4.35v12.78c-.005 2.668-.565 2.741-2.447 4.623-1.882 1.882-1.955 2.442-4.623 2.447H74.2331c-2.5071-.016-2.9123-1.009-4.6226-2.719-1.8817-1.884-2.4418-1.952-2.4472-4.622v-12.781c0-.568-.0327-1.375.1631-1.903.4242-1.158 3.641-4.163 4.7313-4.889z"/>
      <path d="M227.322 215.086h-19.034c-3.195-.006-3.53-1.129-3.535-4.079v-14.412c0-1.552-.291-4.465.682-5.675 1.072-1.329 3.451-1.392 5.028-1.395h176.745c.8.011 1.678-.005 2.246.661.558.656.474 1.789.474 2.602v19.578c-.022 1.161-.145 2.032-1.365 2.518-.735.294-2.91.202-3.802.202h-7.614c0 3.885.392 4.603-2.447 4.622h-14.411c-2.377-.016-2.442-.478-2.448-2.719v-1.903h-40.515c0 .981.223 3.801-.435 4.459-.522.522-1.594.432-2.284.435H303.73c0 .982.223 3.801-.435 4.459-.522.523-1.593.433-2.284.422H288.78c-2.33-.402-.707-2.956-1.8-4.253-.617-.731-1.691-.625-2.556-.628h-7.885c-.743-.005-1.7.073-2.17-.628-.427-.642-.278-3.377-.278-4.266H246.9c0 1.076.31 3.991-.628 4.617-.503.334-1.496.277-2.091.277h-14.684c-2.616-.049-2.175-1.077-2.175-4.894z"/>
      <path d="M243.637 153.089h-35.893c-.827-.017-1.458-.022-2.099-.628-.963-.909-.89-2.241-.892-3.451v-14.412c0-1.552-.291-4.464.682-5.674 1.072-1.33 3.451-1.393 5.028-1.395h176.745c.8.01 1.678-.006 2.246.66.558.656.474 1.79.474 2.603v19.034c-.006 2.923-.729 3.257-3.535 3.263h-22.841v5.71h19.85c1.457 0 5.403-.438 6.207.878.378.617.319 1.67.319 2.385v19.034c-.006 2.923-.729 3.258-3.535 3.263H212.638c-1.098 0-5.517.117-6.248-.163-.503-.19-.841-.492-1.134-.941-.563-.867-.501-1.982-.503-2.975v-14.411c0-1.553-.291-4.465.682-5.675 1.072-1.33 3.451-1.392 5.028-1.395h33.174zm115.836 0H247.715v5.71h111.758z"/>
      <path d="m384.845 72.8789 5.898-.2773 1.741.435.435 2.2841v30.7263l-.435 1.741-2.285.435h-3.806l-1.741-.435-.413-2.285V73.7056Z"/>
      <path d="M333.181 60.0989c1.273-.484 4.411-.3046 5.898-.2774.582.0109 1.297-.0109 1.741.4351.522.5221.432 1.5934.435 2.2841v44.0503c-.006.639.051 1.526-.435 2.012-.523.522-1.594.433-2.285.435h-3.263c-.69-.002-1.762.087-2.284-.435-.522-.522-.432-1.593-.435-2.284V63.6283c0-1.2589-.272-2.5641.628-3.5294z"/>
    </g>
    <g id="Bunker_entr" class="building">
      <path d="m179.736 379.595 4.816 5.721c.495.652 1.738 2.564 2.393 2.942.419.12 1.784.038 2.309 0h6.254l5.438-.234c2.662-.019 2.988-1.272 4.527-3.263l3.358-4.351 1.632.816-3.807 10.333h-20.937l-2.072-.277-3.652-5.433-1.594-2.991z"/>
      <path d="M88.9165 377.137c-1.0985 2.401-1.607 2.001-3.8068 2.567l-2.9911.908c-.9299.239-2.3113.815-3.2167.331-.7777-.413-3.1896-3.953-3.8531-4.883l-7.9644-10.877c-.6227-.87-2.7953-3.752-2.9557-4.622-.1904-1.039 1.0061-2.227 1.6206-2.991l2.8823-3.535c.397-.487.9517-1.248 1.569-1.444.639-.201 1.2807.119 1.8571.356l-1.1012 4.079-1.0931 3.535 2.14 4.078 4.9488 8.158 2.8008 3.801 2.9095.288 2.1753.251z"/>
      <path d="m695.561 282.521 1.387 1.631-.476 2.991-1.455 6.526-9.245 2.211-11.964 2.956-4.351-5.167c-1.177-1.367-2.02-1.936-1.631-3.807l4.35 3.019 2.72 1.822 4.078-.92 8.973-2.523 4.215-1.514 1.387-2.875z"/>
      <path d="M683.053 117.74c-.103-.718-.25-1.216.174-1.879.405-.634 1.634-1.425 2.273-1.896 1.988-1.465 3.641-3.475 6.254-2.966 1.615.315 5.324 3.668 6.798 4.837l7.614 6.037c1.585 1.261 2.844 1.514 2.705 3.752-.068 1.058-.318 1.314-.459 2.176l-.188 2.719c-.446 1.707-1.96 2.749-3.418 3.535v-7.614c-.041-2.151-1.096-2.542-2.719-3.772l-4.622-3.534c-.854-.648-3.881-3.163-4.699-3.272-.642-.087-2.464.446-3.187.612z"/>
      <path d="M209.647 97.7223h81.575v12.1317h-8.973v-1.088H265.39v.816h-33.718v-1.088h-17.13v1.088h-4.895z"/>
      <path d="M119.643 97.7223h78.312v11.8597h-78.312z"/>
    </g>
    <g id="Buildings" class="building">
      <path d="M471.774 547.291c1.912-.288 2.216 1.12 3.195 2.523 1.292 2.091 2.804 3.467 0 5.069-.283.204-.625.397-1.019.503-2.004.538-3.274-2.206-4.125-3.668-.37-.631-.811-1.404-.669-2.165.209-1.136 1.664-1.849 2.618-2.262z"/>
      <path d="m480.476 529.692 2.769 10.871-14.266 3.541-2.48-10.795z"/>
      <path d="M498.15 526.571c.506-.063 1.02-.191 1.479.138.46.329.707 1.36.876 1.896l1.457 4.894c.232.748.74 2.127.381 2.874-.285.599-1.164.756-1.746.938l-5.166 1.499c-1.939.323-1.906-.773-2.371-2.32-.691-2.295-1.615-4.375-.881-6.798.144-.473.348-1.068.723-1.408.53-.484 4.34-1.485 5.248-1.713z"/>
      <path d="m433.112 524.063 3.343-1.085s2.656-3.109 5.952-4.581c2.363-.925 4.329-.952 6.798-.941l4.079.449c1.319-.027 3.948-.962 3.948-.962s.965 2.977 1.45 3.776c.75 1.24 2.278 2.148 3.763 5.438 1.126 2.497 1.185 4.683 1.172 7.342l-.283 3.149c.019 1.017 1.022 4.374 1.022 4.374s-1.691.773-2.643 1.091c-1.158.389-2.98 1.76-3.037 3.079 4.877 18.865 5.213 20.121 5.213 20.121l-18.873 4.673-3.927-15.277-2.407-9.246c-.468-1.098-1.966-2.371-2.79-3.534-1.909-2.703-2.724-5.412-2.708-8.702v-2.719c.147-1.234.674-2.648.566-3.807z"/>
      <path d="m486.458 512.562 5.438-1.594c.685-.196 2.007-.644 2.681-.486.892.209 1.066 1.321 1.305 2.08l1.719 5.71c.171.623.443 1.683 0 2.251-.356.473-2.344.982-2.986 1.17-1.272.369-2.765.911-4.079.467-2.017-.682-2.311-2.368-2.833-4.16-.568-1.944-1.199-3.372-1.245-5.438z"/>
      <path d="M330.65 453.828h10.605v12.508H330.65Z"/>
      <path d="M190.069 431.803h8.43v7.069h-8.43z"/>
      <path d="M11.4205 424.461H22.569v10.877H11.4205Z"/>
      <path d="m304.002 424.733 6.798-1.632 1.088 4.895-6.798 1.631z"/>
      <path d="M298.292 393.462h49.489v12.237h-16.315c-1.134 0-4.522-.327-5.161.628-.335.503-.278 1.495-.278 2.091v8.157h-27.735z"/>
      <path d="M618.337 386.393h5.438v7.069h-5.438z"/>
      <path d="M481.563 380.954h8.158v9.245h-8.158z"/>
      <path d="M511.746 378.235H581.9v21.753h-70.154z"/>
      <path d="M332.281 339.895h20.666v8.701c.014.686-.014 1.469.628 1.898.465.31 1.275.275 1.819.278h6.526v9.789h-6.526c-1.27.008-1.778-.098-2.447 1.087h-20.666z"/>
      <path d="M240.102 321.133h27.463v112.845h-27.463z"/>
      <path d="M399.717 311.828c.538-.101.761-.239 1.348 0 .995.283 2.934 2.803 3.723 3.66l4.108 4.544c.514.611 1.167 1.326 1.039 2.191-.158 1.072-1.558 2.04-2.333 2.736-.546.492-1.194 1.166-1.903 1.405-1.833.623-4.152-2.934-5.259-4.144l-3.584-4.032c-.647-.751-1.381-1.387-1.128-2.488.206-.892 1.408-1.822 2.085-2.434.767-.69 1.006-.892 1.904-1.438z"/>
      <path d="M513.105 309.984h6.255v10.333h-6.255z"/>
      <path d="M382.314 309.712h7.07v14.412h-7.07z"/>
      <path d="M736.62 284.696h7.342v8.158h-7.342z"/>
      <path d="M603.382 280.073h22.841V350.5h-22.841z"/>
      <path d="M426.364 269.741h33.446v8.157c0 .756-.114 2.589.277 3.179.501.75 1.651.625 2.442.628h17.947v42.691H465.52v9.517h-54.383v-33.99h6.254c.791-.002 1.942.123 2.442-.628.41-.617.277-2.898.277-3.722v-8.702c4.927 0 6.203.582 6.254-2.175z"/>
      <path d="M334.729 265.934h31.542v47.585h-7.07c-.685.014-1.468-.013-1.898.628-.334.503-.277 1.496-.277 2.091v8.702h-18.762v-8.702c-.003-.69.087-1.762-.436-2.284-.59-.593-2.281-.435-3.099-.435z"/>
      <path d="M233.576 265.39h34.533v48.673h-34.533z"/>
      <path d="M619.153 249.347h8.701v11.692h-8.701z"/>
      <path d="M16.8588 247.172h7.6136v8.157h-7.6136z"/>
      <path d="M427.452 224.875h51.12v22.297h-51.12z"/>
      <path d="M174.842 222.699h18.218v12.508h-18.218z"/>
      <path d="M303.186 219.98h4.623v4.895h-4.623z"/>
      <path d="M535.675 209.103h59.821v10.061c.033 1.708.468 2.143 2.175 2.176h8.43v25.56h-8.43c-.685.013-1.468-.014-1.898.628-.429.647-.277 3.619-.277 4.538h-8.157c0-1.107.318-4.255-.629-4.889-.503-.334-1.495-.277-2.091-.277h-27.735c-.582.011-1.297-.011-1.74.435-.522.522-.433 1.593-.435 2.284v2.447h-8.158c0-1.107.318-4.255-.628-4.889-.503-.334-1.496-.277-2.091-.277h-33.718v-34.534h19.578c4.74 0 5.931.55 5.983-2.175z"/>
      <path d="M299.108 190.069h42.147v24.745h-42.147z"/>
      <path d="M250.435 190.069h42.147v24.745h-42.147z"/>
      <path d="M299.108 159.615h42.147v24.744h-42.147z"/>
      <path d="M250.435 159.343h42.147v24.744h-42.147z"/>
      <path d="M23.6567 137.861h10.6047v9.517H23.6567Z"/>
      <path d="M471.774 130.248h14.684v7.885h-14.684z"/>
      <path d="M299.108 128.344h42.147v24.745h-42.147z"/>
      <path d="M250.435 128.344h42.147v24.745h-42.147z"/>
      <path d="M64.9879 127.529h65.2601v13.323c.049 2.551 1.128 2.176 3.807 2.176v4.894c-.852 0-2.766-.174-3.372.435-.522.522-.433 1.594-.435 2.284v5.983c.002.543-.033 1.354.277 1.819.43.641 1.213.614 1.898.628h6.254v11.42h-6.254l-1.74.435-.435 2.284v20.394H69.3386v-17.131c0-1.161.3344-4.791-.6281-5.432-.5031-.335-1.4956-.278-2.0911-.278h-6.7979v-11.148h7.0698c.639-.006 1.5255.051 2.0122-.435.5221-.522.4324-1.594.4351-2.284v-15.228c-.0027-1.963.0408-2.678-2.1753-2.719h-2.1754z"/>
      <path d="M476.941 107.679h9.789l-.272 4.622h-9.517z"/>
      <path d="M449.477 91.9076h22.841v13.8674h-22.841z"/>
      <path d="M416.031 91.9076h22.841v13.8674h-22.841z"/>
      <path d="M601.078 84.8351c2.04-.7804 5.341 1.7185 7.198 2.6539.642.3236 2.001.8619 2.287 1.5336.288.6716-.093 1.4765-.394 2.0693-.509.9952-2.445 4.9733-3.146 5.3921-.658.4867-1.61.2202-2.282 0l-5.166-2.741c-.71-.3589-1.721-.7831-2.002-1.5907-.244-.7124.139-1.5227.457-2.1481.615-1.2019 2.206-4.367 3.048-5.1691z"/>
      <path d="M735.261 71.242h10.061v11.4205h-10.061z"/>
      <path d="m503.86 66.4289 23.032 2.3381.081 14.9831-13.346.0814.022 6.1727h-9.789z"/>
      <path d="M32.0861 63.3564h17.9464v36.1649H32.0861Z"/>
      <path d="M467.424 49.2168h11.692v10.8766h-11.692z"/>
      <path d="M57.3743 33.4457h35.8929v16.8588H57.3743Z"/>
      <path d="M19.306 19.0341h11.6924v11.1486H19.306Z"/>
      <path d="M296.66 17.9465h11.421v10.8766H296.66Z"/>
      <path d="M187.622 16.5869h8.158v7.3417h-8.158z"/>
    </g>
    <g id="Misc" class="misc">
      <path d="M429.083 415.76h7.342v4.35h-7.342z"/>
      <path d="M388.296 407.602h3.535v8.973h-3.535z"/>
      <path d="M379.323 407.602h3.535v8.973h-3.535z"/>
      <path d="M421.198 403.251h3.807v14.412h-3.807z"/>
      <path d="M415.488 403.251h3.806v14.412h-3.806z"/>
      <path d="M409.777 403.251h3.807v14.412h-3.807z"/>
      <path d="M388.296 393.462h3.535v8.974h-3.535z"/>
      <path d="M379.323 393.462h3.535v8.974h-3.535z"/>
      <path d="M429.083 393.191h7.342v4.35h-7.342z"/>
      <path d="m296.117 363.552 5.982-1.088c.66-.128 1.947-.451 2.52 0 1.153.906.359 2.722.411 3.831.038.802.511 1.341.604 3.239l-8.702 1.359-.979-4.054zm.543 8.429 5.983-1.088c.66-.127 1.946-.451 2.52 0 .612.482.707 2.249.743 2.992l-8.702 1.359z"/>
      <path d="m367.087 337.176 8.429-2.175.544 3.263-8.43 2.175z"/>
      <path d="M290.134 298.02h8.702v3.279c.462-.084 1.066-.242 1.493 0 .728.452 1.196 2.328.524 2.953-.372.348-1.754.751-2.289.927-1.863.623-3.734 1.444-5.71 1.542l-.544-3.263 6.526-2.175h-8.702z"/>
      <path d="m293.125 278.442.928-6.254.633-2.175h3.062l-1.088 8.701z"/>
      <path d="M298.836 267.293h3.263v8.702h-3.263z"/>
      <path d="M142.484 234.12h7.614v4.078h-7.614z"/>
      <path d="M71.7858 233.576h7.6137v4.079h-7.6137z"/>
      <path d="M142.484 226.234h7.614v4.079h-7.614z"/>
      <path d="M71.7858 225.69h7.6137v4.079h-7.6137z"/>
      <path d="M127.529 224.331h4.35v14.683h-4.35z"/>
      <path d="M121.818 224.331h4.351v14.683h-4.351z"/>
      <path d="M116.108 224.331h4.351v14.683h-4.351z"/>
      <path d="M101.153 224.331h4.35v14.683h-4.35z"/>
      <path d="M95.4425 224.331h4.3507v14.683h-4.3507z"/>
      <path d="M89.7323 224.331h4.3506v14.683h-4.3506z"/>
      <path d="M444.311 215.357h8.769c-.068.659-.103 1.553 0 2.176.397 1.202 2.02 3.741 3.198 4.187.739.28 4.897.163 5.979.163v3.263h-8.701c0-2.471.198-2.751-1.27-4.894-.402-.587-.783-1.194-1.474-1.468-.712-.286-5.395-.164-6.501-.164z"/>
      <path d="M364.357 140.328c1.547-.365 2.806 1.395 2.417 2.428-.201.536-.916 1.218-1.319 1.631-.78.794-2.937 3.07-3.804 3.484-1.544.737-3.078-1.338-2.681-2.396.381-1.011 4.356-4.473 5.387-5.147z"/>
      <path d="M509.299 130.022c1.783-.169 3.369 1.966 4.622 3.059.539.471 1.319 1.131 1.613 1.789.437.977-.441 2.355-1.365 2.679-.99.345-2.263-1.096-2.967-1.705l-1.903-1.713c-1.855-1.637-2.57-2.532 0-4.109z"/>
      <path d="M506.99 109.006c1.161-.199 2.961.851 2.545 2.205-.174.571-1.003 1.373-1.416 1.835-.61.683-2.964 3.543-3.609 3.878-1.044.546-3.048-1.009-2.515-2.371.201-.506 1.164-1.523 1.555-1.958 1.028-1.137 2.208-2.746 3.44-3.589z"/>
      <path d="M365.183 97.074h3.263v8.701h-3.263z"/>
      <path d="M365.183 88.1008h3.263v8.7013h-3.263z"/>
      <path d="M361.376 88.1008h3.263v8.7013h-3.263z"/>
      <path d="M366.543 74.7769h3.263v8.7013h-3.263z"/>
      <path d="M370.35 74.2331h3.263v8.7013h-3.263z"/>
      <path d="M369.248 58.0976c1.656.1767 1.779 2.5234 1.213 3.0617-.372.3535-1.498.6499-2.015.7995l-4.883 1.3025c-1.632.1087-2.195-2.4228-1.281-3.0917.546-.4025 6.009-1.8844 6.966-2.072z"/>
      <path d="m400.532 56.0147 6.254-1.6315c.223.7641.928 2.7654.642 3.4533-.334.8131-3.296 1.4929-4.177 1.7022-.47.1224-1.036.2883-1.479 0-.622-.4187-1.123-2.7681-1.24-3.524z"/>
      <path d="M368.161 54.2907c1.656.1768 1.778 2.5234 1.212 3.0618-.372.3535-1.498.6499-2.014.7995l-4.884 1.3024c-1.632.1088-2.194-2.4227-1.281-3.0917.547-.4024 6.01-1.8843 6.967-2.072z"/>
    </g>
    <path id="Chopper" d="m549.542 301.283 1.501-3.807c.068-.737-1.251-3.973-1.588-4.894l-4.429-12.237c-.188-.881-.136-3.632 1.465-2.944.585.25.808 1.052 1.034 1.585l1.582 4.079 1.577 4.078 2.393 6.526h.544c.465-1.245 1.46-3.679 2.483-4.484 1.375-1.085 4.323-.272 5.125 1.232.443.832.278 4.052.278 5.156 1.522-.721 2.629-2.086 3.806-3.263l5.983-5.982c.723-.721 2.866-3.234 3.994-2.679.31.155.462.468.53.791.348 1.629-1.618 3.31-2.618 4.335l-2.725 2.991-6.327 6.526c-1.363 1.55-1.931 1.645-1.825 3.807.022.454.038.916.275 1.321.609 1.042 2.912 1.256 4.073 1.542l5.438 1.079 6.526 1.518 3.791.903c.497.212 1.087.551.786 1.191-.15.318-.487.524-.786.679-1.855.971-3.092.079-4.878-.263l-6.526-1.319-4.895-.794c-1.011-.193-3.402-1.077-4.288-.639-.892.438-1.398 3.649-1.232 4.571.204 1.142 1.235 3.244 1.713 4.35l1.567 4.079 1.626 3.807 1.471 3.807c.168.639.204 1.381-.626 1.517-1.648.272-2.82-2.197-3.333-3.421l-3.481-7.885c-.699-1.528-.786-2.69-2.39-3.535l-2.162 7.885-1.645 5.711c1.055.087 3.739.446 4.538 1.068.955.743.571 2.66-.497 3.119-.582.25-2.997.161-3.769.163-1.384.003-2.287-.176-2.765 1.365-.112.356-.253.976-.196 1.344.125.821.919 1.261.81 1.854-.087.47-.745.593-1.117.734-2.426.93-1.586.541-3.802-.674-.166.506-.506 1.871-.952 2.129-.949.552-.894-1.139-.823-1.585l1.112-4.808c.361-.65 1.057-.587 1.25 0 .196.386-.005 1.605 0 2.089h.773l.272-2.992c-1.112-.394-4.889-2.058-5.545-2.868-.625-.775-.277-2.573.688-2.94.838-.321 3.891.582 5.129.642l.247-2.719.615-7.342.497-4.079c-1.678.756-7.336 5.841-8.973 7.367l-2.175 2.036c-1.754 1.319-4.136 1.161-3.628-.389.259-.794 2.635-2.746 3.356-3.38l7.613-7.004c2.002-1.925 2.018-2.045 2.584-4.612.103-.478.329-1.12.195-1.601-.331-1.183-3.815-1.811-4.954-2.127l-10.333-2.387c-1.585-.337-3.605-.443-4.807-1.683-.707-.732-.612-1.678.473-1.86.699-.117 3.396.576 4.334.72z" class="chopper"/>
  </g>
  <g id="Bunkers" class="bunker">
    <path d="M535.675 209.103h59.821l-.064 12.255 10.669-.018v25.56h-11.149v42.147h6.526v1.087h1.904v-10.061h22.841V350.5h-22.841v-9.245h-2.176v.815h-4.35v1.36h-5.167v6.798h-4.622v-6.798h-4.895v-.816h-22.025v3.807h-6.798l-.435 4.617-1.196.277v3.807h23.656l.278 4.539 5.847-.082.129 5.06h-5.71v5.439h-1.631v4.35h-1.36v3.807h8.973v21.753h-70.154v-21.753h10.061v-4.35h-.816v-4.079h-1.088v-4.895h-14.411v20.666h-3.535v16.043h-7.07l-1.903 7.885 55.65 15.613-3.756 14.857-1.59-.559-5.501 22.509 66.394 20.378-2.468 9.929-20.601-6.161 1.604-5.052-8.991-2.796-1.342 4.156-15.278-4.143-1.485 4.679-13.691-4.071 1.059-3.552-5.796-1.731 1.426-4.612-1.312-.438-6.254 20.122 12.236 3.535-2.292 8.274-3.017-.84-1.615 4.895-9.391-2.54-2.983 10.89 2.401 3.25 1.126 4.622-.296 4.079-1.368 3.263v3.611l-1.871.813-5.686 1.226-2.648-3.418-3.902-2.509-3.341-.211-5.904 1.847 1.087 4.623-3.82 1.074-1.89-5.697-15.965 4.752.741 4.026-11.307 2.904-2.292-9.234 9.591-2.453 2.101.258 27.307-8.965 2.64-4.881 3.415-3.276 3.075-10.594-4.122-1.139-.993 2.579-10.724-3.373 2.872-8.936 8.137 2.287-.53 1.448 6.72 1.968 4.894-19.035-45.894-13.003 4.076-12.926 11.479 3.01 1.675-4.529 37.366 10.318 5.982-22.569-48.87-13.522 2.916-9.863-5.074-1.762 3.982-15.839 4.083-.074v-8.701l-.712-3.535.168-15.499h-2.719v-4.623h.816v-3.806h-.816v-41.332h-11.42v4.895h-23.929v-21.753h23.929v9.788h11.692v-9.517h-2.175v-6.797l2.184-.003-.009-18.216h-4.351v-7.885h4.351v-7.614h-29.911v-15.227h-34.805v-22.297h51.12v22.297h-9.517v7.069h33.174v15.772h3.263v-5.711h11.964v5.711l30.536.016-.081-23.129h-37.797v-34.534l25.496-.046Zm54.111 37.797h-35.621v23.113h35.621Zm-80.487 30.998h-9.789v17.947h1.359v-14.14h7.342v14.412h-.816v17.13h2.447v-27.473l7.674-.049-.06-.485h-8.157Zm51.664 0h-38.34v7.342l-2.18.01.004.534h40.516Zm23.928 0h-17.402v11.149h10.876v.815h3.807v-.815h2.719Zm18.491 16.859h-1.36v.816h-5.166v39.971h4.35v1.088h2.176Zm-21.21 6.526h-5.982v28.551h-15.227v1.632h-6.526v4.078H581.9Zm-41.875 28.551h-39.972v30.999h19.578v-5.711h22.026v-9.245h3.806v-14.411h-5.438Zm27.192 40.244h-39.972v3.807h-1.088v4.35h42.147l-.272-3.535h-.815Z"/>
    <path d="M217.533 61.9968h67.435V189.254h20.394v34.805h-16.587v-25.288h8.973v-1.088H283.88v33.174h-15.771v33.989h-34.261v-33.989h-16.043v-44.866h-31.543v1.087h7.886v22.297h-14.683v13.052h10.332v5.167H174.57v-40.516h5.438v-1.087h-15.227v-8.158l52.752.272Z"/>
  </g>
</svg>
