<svg xmlns="http://www.w3.org/2000/svg" id="Ground_Level" data-name="Ground Level" version="1.1" viewBox="0 0 1893 1248"><defs><style>.cls-1{fill:#0c343d}.cls-2{fill:#0056aa}.cls-4{fill:#bdbdbd}.cls-5{fill:none;stroke:#bdbdbd;stroke-miterlimit:10;stroke-width:7px}.cls-6{fill:#fffcd0}.cls-7{fill:#cbffff}</style></defs><g id="Base_Terrain" data-name="Base Terrain"><path id="Ground" d="m 171.5,933.5 -13,-14 20,-15 h -33 l -7,-46 -30,-19 -48,-14 -22,-59 v -140 l 7,-67 -22,-105 6,-143 L 51.572,218.428 41.41,147.802 55.607,88.248 131.447,68.802 205.071,87 l -0.43,50.501 H 314.5 l 71,-16 73,-63 82,-45 64,-6 h 41 l 41,18 46,9 28,-4 44,23 43,-9 38,4 28,3 56,-5 44,6 14,13 17,-10 20,-7 16,-11 19,11 13,-8 v -20 l 15,-8 41,4 16,3 12,-12 h 52 l 60,12 6,117 22,78 42,49 8,52 -10,35 17,29 51,46 69,32 19,-2 32,24 25,26 97,-3 24,-4 6,-34 42,14 v 46 l 16,37 10,33 -12,29 5,28 24,27 21,11 9,23 -5,40 15,22 v 26 l 27,15 15,36 27,24 v 258 h -658 l -2,-40 -81,-10 -40,6 -100,-9 -52,-11 3,9 24,16 19,-5 33,26 25,23 -1,15 11,12 24,-9 48,9 h 22 l 33,46 -6,16.5 h -25 l -1,-14.5 -18,-13 -31,10 -30,-18 -22,24 -22,-19 -45,-39 -33,-21 -4,-18 -40,-39 h -26 l -13,7 -1,30 -14,-2 1,-29 -31,-4 -4,31 -18,-5 7,-32 -28,8 -34,-19 -30,-7 -14,-20 -9,34 -11,-5 8,-34 -46,-11 -5,40 -18,-3 6,-42 -89,-40 v -12 l -7,-4 -8,9 -39,-12 -45,-18 -55,5 -37,-11 10,67 12,7 v 22 l -14,20 3,29 -5,7 -27,-15 -22,-5 -22,5 -7,15 -11,-7 -2,-22 8,-12 -8,-13 4,-17 15,-3 23,2 h 21 l 5,-9 4,-7 -6,-63 -1,-11 -20,-7 c 0,0 -2,34 -3,34 -1,0 -9,-2 -9,-2 l 3,-33 -21,-1 -11,-7 -16,11 -33,14 c 0,0 -32,8 -33,8 -1,0 -26,-12 -26,-12 z" class="cls-1" transform="translate(-23.5 -7.5)"/><path id="Pier" d="m 1597,1126 2,94.5 h 288 V 1126 Z" class="cls-1"/><path id="Ocean" d="m 277,901 -16,11 -66,22 -26,-12 -21,4 -28,-1 -33,1 -15,36 17,56 61,60 143,36 315,54 223,23 151,24 43,28 99,5 65,-3 242,-6 62,-10 77,-5 23.625,-3.5 H 1599 l -2,-94.5 h -368 l -2,-40 -81,-10 -40,6 -152,-20 3,9 24,16 19,-5 58,49 -1,15 11,12 24,-9 48,9 h 22 l 33,46 -5.99,16.47 -25.01,0.03 -1,-14.5 -18,-13 -31,10 -30,-18 -22,24 -67,-58 -33,-21 -4,-18 -40,-39 h -26 l -13,7 -1,30 -14,-2 1,-29 -31,-4 -4,31 -18,-5 7,-32 -28,8 -34,-19 -30,-7 -14,-20 -9,34 -11,-5 8,-34 -46,-11 -5,40 -18,-3 6,-42 -89,-40 v -12 l -7,-4 -8,9 -84,-30 -55,5 -37,-11 10,67 12,7 v 22 l -14,20 3,29 -5,7 -27,-15 -22,-5 -22,5 -7,15 -11,-7 -2,-22 8,-12 -8,-13 4,-17 15,-3 23,2 h 21 l 9,-16 -7,-74 -20,-7 -3,34 -9,-2 3,-33 -21,-1 z" class="cls-2"/><path id="River" d="m 886.5,531.5 h -12 v 73 l 2,33 3,47 1,20.67 v 45.33 l 2,66 4,50.22 4,35.78 13,30 19,24 17,29 6,15 17,49 15,20 26.18,3.44 -9.18,-23.44 -13,-40 c 0,0 -19,-16 -19,-17 0,-1 -11,-14 -11,-14 l -21,-34 -11,-13 -13,-23 -5,-30 -3,-45 -2,-46 -4,-52 v -35 l -2,-33 -3.11,-36.5 -1.89,-35.5 v -33 z" class="cls-2" transform="translate(-23.5 -7.5)"/><path id="Cottage_Lake_2" d="m 332,729 c 4.54,-4.601 11.603,-1.786 17.24,-3.337 9.852,-1.784 20.31,-3.5 29.92,0.396 7.855,2.958 15.397,6.755 22.83,10.612 4.615,3.062 9.708,8.057 15.695,5.744 8.121,-2.576 10.688,-14.75 3.766,-20.002 -6.54,-5.023 -15.305,-5.225 -22.37,-9.265 -4.64,-1.533 -14.265,-3.274 -11.603,-10.178 3.265,-6.095 11.136,-7.08 17.23,-5.431 7.71,1.77 15.368,4.017 22.227,8.068 5.512,3.002 11.525,5.692 17.96,4.982 6.008,-1.153 12.301,3.174 11.599,9.631 1.947,5.988 -7.73,9.17 -2.96,14.609 1.632,2.513 4.802,4.619 1.712,7.208 l -3.463,5.333 c -4.653,-2.746 -10.802,-3.544 -14.691,1.016 -5.62,5.628 -13.1,9.382 -20.925,10.689 -4.767,-1.91 -7.92,1.22 -9.41,5.461 -4.445,2.19 -8.963,-1.547 -13.06,-3.084 -4.292,-2.31 -8.348,-5.252 -10.904,-9.494 -2.578,-4.236 -8.15,-3.702 -11.997,-1.742 -6.398,1.95 -9.289,9.554 -16.19,10.459 -4.828,1.193 -11.58,0.955 -13.878,-4.314 -1.556,-5.586 -8.7,-6.6 -9.764,-12.362 C 329.432,739.18 328.674,733.272 332,729 Z" class="cls-2"/><path id="Cottage_Lake_1" d="m 479,774 c -3.378,5.42 -6.081,11.615 -5.676,18.138 0.152,3.768 -0.68,7.565 -2.867,10.684 -2.187,3.586 -5.623,7.626 -10.259,7.197 -3.99,-0.941 -7.034,-3.967 -10.202,-6.4 -3.74,-2.998 -6.133,-7.572 -6.106,-12.404 -0.385,-9.17 5.686,-17.128 12.556,-22.55 2.771,-1.834 7.484,-1.623 8.489,-5.468 0.24,-3.095 -1.824,-5.815 -3.11,-8.498 -1.605,-1.33 -0.018,-2.519 0.747,-3.75 L 466,746.02 c 2.962,1.553 6.703,3.096 9.77,0.883 5.304,-3.088 8.65,-9.303 15.07,-10.454 3.139,-1.271 8.9,-1.24 8.88,3.34 -0.499,7.947 -5.055,14.82 -9.655,21.039 C 487,765.739 482.15,769.165 479,774 Z" class="cls-2"/><path id="Road_Lake" d="m 557,901.33 c 2.038,0.29 3.246,2.268 4,4 1.061,2.788 -1.233,5.653 -0.12,8.43 0.911,1.884 3.19,2.135 4.925,2.88 1.422,0.444 2.404,1.655 2.81,3.052 0.784,2.243 1.017,5.045 -0.615,6.978 -1.588,1.728 -4.16,1.652 -6.309,1.442 -2.264,-0.307 -4.537,-0.51 -6.81,-0.733 -2.192,-0.227 -4.606,-1.05 -5.66,-3.147 -1.528,-2.95 -0.922,-6.375 -1.206,-9.56 -0.245,-2.685 -0.527,-5.71 1.19,-8.003 1.593,-2.254 3.687,-4.396 6.395,-5.212 0.456,-0.116 0.93,-0.173 1.4,-0.127 z" class="cls-2"/><path id="Swamp" d="m 280,240 -67,-9 -110,40 -39,38 -5,46 9,27 -7,40 -17,64 -3,59 23,9 h 31.67 l 30.33,-23 36,-48 15,-42 11,-16 39,-7 37,-12 33,-3 19,1 17,-14 v -15 l -7,-11 -6,-24 16,-35 10,-38 -2,-23 -14,-18 -22,2 z" style="fill:#0c3450"/><path id="East_River" d="m 1733,453 0.15,1.32 1.85,16.68 v 46 l 26,70 -12,29 5,28 24,27 21,11 9,23 -5,40 15,22 v 26 l 27,15 15,36 27,24 5,4 1,-26 v -31.89 l -17,-43.11 -15,-43 -10,-48 -16,-23 -22,-25.33 -9,-51.67 -1,-29 -16,-37 -10,-29 v -28 l -4,-7" class="cls-2"/><path id="North_River" d="m 830,224 h 12.33 l -2.33,-37 -7,-18 -1,-32 1,-15 -3,-19.44 L 833,83 830,59.44 842.33,38.93 824,37 l -11,13 -3,15 2,26 6,23 0.78,16.5 0.22,22.5 1,19 6.17,14.11 z" class="cls-2" data-name="North River"/></g><g id="Pavement"><path id="polygon1827" d="m 810,941 75,17 32,39 -14,21 -96,-21 -20,-16 z" class="cls-4"/><path id="polygon1829" d="m 822,1034 19,6 -3,12 -20,-6 z" class="cls-4"/><path id="polygon1831" d="m 966,1117 89,77 20.67,-24.5 -23.67,-22.5 1,-5.75 -59,-53.25 z" class="cls-4"/><path id="polygon1833" d="m 1234,1123 v -41.33 l 306,5.33 v 37.33 z" class="cls-4"/><path id="polygon1835" d="m 1604,1112 v 103 h 278.33 l -0.33,-256 -46,5 -40,17 -24,68 -86,43 -82,7.33 z" class="cls-4"/><path id="polygon1837" d="m 1184.063,797 h 39.267 v -16.67 h 38.586 L 1262,843 h -78 z" class="cls-4"/><path id="rect1839" d="m 829,695 h 23.67 v 46.67 H 829 Z" class="cls-4"/><path id="polygon1841" d="m 874,693.826 0.239,67.153 L 921,761 v -67.33 z" class="cls-4"/><path id="polygon1843" d="m 852.083,718.721 v 12 h 22.42 l -0.32,-12.081 z" class="cls-4"/><path id="polygon1845" d="m 1489,599 h 14.33 v 19.67 H 1487 V 599 Z" class="cls-4"/><path id="rect1847" d="m 682,460 h 106.33 v 49 H 682 Z" class="cls-4"/><path id="polygon1849" d="M 534,610.25 573,630 544,694 505,673 Z" class="cls-4"/><path id="rect1851" d="m 815,125 h 22.33 v 12.33 H 815 Z" class="cls-4"/><path id="polygon1853" d="m 824,227 h 24.67 v 22 l -22.5,1.33 z" class="cls-4"/><path id="polygon1855" d="m 842.33,179.33 h 17 v 23 l -17,-1.33 z" class="cls-4"/><path id="polygon1857" d="m 338.76,925.05 8.24,79.95 21,-2 -11,-80 z" class="cls-4"/><path id="rect1859" d="m 841,484 h 33 v 40 h -33 z" class="cls-4"/><path id="rect1861" d="m 762,372 h 309 v 43 H 762 Z" class="cls-4"/><path id="rect1863" d="m 903,415 h 35 v 35 h -35 z" class="cls-4"/></g><g id="Rocks" class="cls-6" data-name="Rocks" transform="translate(-7.125 -7.687) scale(.94931)"><path id="path72" d="m 724.26,99.507 a 52.064,52.064 0 0 1 -9.077,-7.808 c -1.522,-1.512 -1.759,-4.65 0.28,-5.816 0.685,-1.9 -1.674,-3.582 -2.397,-5.28 -1.507,-2.043 -1.849,-4.62 -1.712,-7.092 l 0.018,-3.844 c 3.643,-2.602 7.242,-5.725 11.866,-6.248 3.912,-0.59 7.806,1.203 10.493,3.984 1.344,1.46 3.292,2.17 5.259,1.87 2.276,-0.159 5.362,0.18 6.233,2.683 -0.158,2.317 2.344,2.998 3.894,4.006 1.525,1.366 0.51,3.697 1.267,5.425 0.449,2.08 1.422,3.98 2.23,5.932 -1.604,1.402 -3.647,2.5 -4.614,4.455 -0.728,1.618 -2.264,2.832 -3.803,3.665 -1.52,0.692 -3.474,-0.734 -4.672,0.915 -1.476,1.486 -2.777,3.554 -5.109,3.645 -2.946,0.255 -6,0.833 -8.912,0.075 a 7.043,7.043 0 0 1 -1.243,-0.567 z"/><path id="path74" d="m 476.359,112.746 c -0.517,-1.217 -1.992,-1.588 -3.18,-1.766 -1.06,-0.176 -2.107,0.089 -3.145,0.24 -1.587,0.14 -2.919,-0.84 -4.398,-1.218 -1.569,-0.412 -3.316,-0.797 -4.442,-2.054 -0.417,-0.888 0.196,-1.826 0.474,-2.672 0.925,-2.085 1.661,-4.387 3.374,-5.984 a 7.257,7.257 0 0 1 2.893,-1.422 c 1.29,-0.094 2.093,1.129 3.128,1.693 a 11.766,11.766 0 0 0 3.779,1.556 c 0.984,0.35 1.9,0.94 2.515,1.796 1.008,0.964 2.387,1.36 3.714,1.645 1.587,0.428 2.841,1.933 2.766,3.608 -0.059,1.953 -1.211,3.77 -2.717,4.954 -1.223,0.846 -3.061,1.312 -4.323,0.315 a 1.581,1.581 0 0 1 -0.438,-0.69 z"/><path id="path76" d="m 1310.684,154.467 -2.027,-3.592 -12.99,2.952 c -1.993,-1.947 -4.227,-3.64 -6.685,-4.959 l -2.232,-1.26 c 1.332,-2.797 2.377,-5.842 4.69,-8.019 2.905,-2.83 6.593,-4.68 10.237,-6.37 1.473,-0.733 2.892,0.415 4.067,1.195 1.783,1.465 1.904,3.944 2.492,6.015 0.23,1.425 0.93,3.088 2.621,3.09 2.408,0.443 4.859,0.499 7.3,0.48 -0.338,3.224 -0.509,6.469 -0.999,9.673 -0.235,1.82 -2.042,2.6 -3.34,3.599 -0.382,0.156 -0.89,0.875 -1.186,0.648 z"/><path id="path78" d="m 610.91,159.442 c -0.668,-2.185 -0.588,-4.543 -0.16,-6.768 0.113,-0.92 0.865,-1.58 1.728,-1.808 1.345,-0.454 2.818,-0.792 3.875,-1.8 0.38,-0.895 1.456,-1.099 2.33,-1.086 2.338,-0.235 4.474,-1.294 6.75,-1.79 1.175,-0.264 2.684,-0.284 3.42,0.85 1.013,1.667 1.478,3.803 0.844,5.69 -0.412,1.329 -1.78,2.283 -3.179,2.081 -1.28,-0.18 -2.302,0.84 -3.179,1.62 -1.523,1.47 -2.839,3.299 -4.859,4.125 -0.814,0.217 -1.68,0.108 -2.512,0.25 -1.239,0.067 -2.456,0.479 -3.7,0.385 -0.842,-0.135 -1.077,-1.086 -1.358,-1.75 z"/><path id="path80" d="m 1118.932,178.99 c -0.937,-1.324 -0.93,-3.034 -0.642,-4.564 0.166,-1.57 0.095,-3.206 -0.493,-4.688 -0.435,-1.237 0.319,-2.426 0.985,-3.415 0.84,-1.2 1.672,-2.458 2.824,-3.382 0.781,-0.22 1.58,0.214 2.326,0.431 2.365,0.909 4.68,2.001 6.778,3.431 0.785,0.406 1.067,1.244 1.114,2.073 0.157,1.521 0.308,3.088 -0.016,4.597 -0.48,1.593 -1.911,2.605 -3.065,3.7 -1.756,1.536 -3.673,3.114 -6.026,3.566 -1.426,0.294 -2.929,-0.396 -3.697,-1.619 z"/><path id="path82" d="m 976.252,204.726 c -1.286,-0.713 -2.281,-1.961 -2.517,-3.433 -0.437,-2.478 -0.04,-5.006 0.238,-7.48 0.212,-1.364 0.307,-2.757 0.673,-4.09 0.34,-0.979 1.508,-1.085 2.384,-1.247 2.285,-0.373 4.818,-0.627 6.901,0.611 1.927,1.157 2.815,3.342 3.416,5.403 l 0.871,2.763 c -1.217,1.726 -2.348,3.515 -3.656,5.174 -1.099,1.312 -2.36,2.654 -4.074,3.1 -0.845,0.315 -1.831,0.622 -2.669,0.112 -0.54,-0.272 -1.049,-0.601 -1.567,-0.913 z"/><path id="path84" d="m 1229.333,217.813 c -3.813,-2.9 -7.383,-6.233 -10.338,-10.004 0.075,-3.222 0.242,-6.58 -3.216,-8.424 -3.614,-2.631 -8.415,-2.521 -11.877,-5.71 -2.892,-0.824 -5.932,-0.792 -8.902,-1.134 -2.245,2.016 -3.94,4.9 -6.86,5.946 -5.266,0.795 -10.43,-0.786 -15.126,-3.049 -1.194,-0.642 -3.058,-0.711 -2.942,-2.471 -0.752,-3.832 -2.888,-7.86 -0.898,-11.654 1.007,-4.581 0.99,-9.696 4.673,-13.215 3.043,-3.119 7.695,-3.667 11.703,-4.873 4.687,-2.407 7.235,1.553 8.987,5.205 3.585,-0.325 9.061,-1.661 9.803,-6.096 1.778,-3.859 8.108,-2.905 9.1,-7.716 -0.063,-3.794 0.065,-8.258 4.977,-8.86 4.773,-1.674 9.834,-2.125 14.836,-2.6 3.479,3.837 7.789,7.11 10.178,11.783 0.713,4.207 4.861,6.439 6.723,10.076 1.061,3.523 1.077,7.277 4.193,10.073 2.47,3.502 1.36,8.587 -1.407,11.53 -3.424,1.158 -7.503,3.513 -3.26,6.973 2.19,3.312 6.151,5.626 6.987,9.687 -0.677,3.816 -4.315,6.287 -7.135,8.624 -4.06,1.913 -8.007,3.973 -11.315,7.037 -2.908,0.744 -6.294,0.48 -8.884,-1.128 z"/><path id="path86" d="m 896.854,204.889 c -1.707,0.014 -3.53,0.137 -4.989,-0.945 -2.15,-1.369 -4.041,-3.683 -3.898,-6.361 -0.1,-2.557 -1.601,-4.93 -1.07,-7.528 0.2,-1.571 1.023,-3.171 2.565,-3.773 1.518,-0.612 1.207,-3.351 3.212,-2.819 1.693,0.22 3.348,0.688 4.985,1.13 0.823,-1.15 -0.506,-2.84 -0.031,-4.191 0.893,-1.458 2.886,-1.649 4.026,-2.89 1.53,-0.732 1.55,-3.512 3.518,-3.257 2.53,0.753 5.562,0.643 7.48,2.732 1.072,1.152 2.783,0.776 3.978,1.68 1.518,1.057 3.057,2.362 3.786,4.102 0.279,1.956 -0.584,3.893 -1.43,5.615 -1.106,1.213 -0.36,2.864 -1.012,4.184 -1.307,2.282 -3.319,4.06 -4.757,6.259 -1.683,2.35 -4.563,3.13 -6.911,4.585 -2.87,1.62 -6.25,1.713 -9.452,1.477 z"/><path id="path88" d="m 411.73,227.54 c -2.404,-0.628 -4.936,-0.93 -7.25,0.122 -4.721,0.409 -9.566,-0.5 -13.927,-2.323 -2.504,-0.936 -4.648,-3.003 -3.572,-5.846 0.176,-2.336 -3.266,-2.956 -2.164,-5.676 0.219,-4.759 0.728,-9.534 2.097,-14.11 0.609,-3.102 0.291,-6.35 1.423,-9.36 0.65,-2.285 0.5,-4.663 0.25,-6.992 -2.556,-2.735 -4.264,-6.325 -4.356,-10.102 3.41,-1.614 4.927,-5.893 8.748,-6.76 2.312,1.66 1.444,4.566 1.45,6.942 -0.108,2.383 1.518,4.337 1.72,6.66 0.992,2.382 3.47,3.94 3.778,6.65 0.42,2.576 0.543,5.309 2.16,7.5 1.493,2.317 -0.39,4.922 -1.583,6.921 -1.022,2.58 -4.03,3.788 -4.86,6.435 0.545,2.342 -2.86,4.864 -1.375,6.638 3.698,1.344 7.87,1.426 11.282,3.528 2.823,2.657 7.212,1.941 10.439,3.873 1.958,1.371 4.544,3.033 4.851,5.576 -1.609,1.922 -4.682,1.357 -6.87,0.802 -0.748,-0.158 -1.494,-0.318 -2.24,-0.478 z"/><path id="path90" d="m 1218.5,229.892 c -0.669,-0.232 -1.446,-0.563 -1.626,-1.327 -0.268,-1.098 -0.169,-2.244 -0.172,-3.364 0.033,-1.55 0.315,-3.18 1.3,-4.429 0.551,-0.696 1.123,-1.376 1.683,-2.065 1.222,0.745 2.477,1.439 3.668,2.234 1.04,0.706 1.948,1.721 2.197,2.987 0.218,1.18 0.524,2.384 0.37,3.591 -0.103,0.868 -0.84,1.462 -1.587,1.802 -0.95,0.424 -1.902,0.87 -2.907,1.151 -1.014,0.262 -1.99,-0.275 -2.926,-0.58 z"/><path id="path92" d="m 605.498,242.564 c -0.624,-0.475 -1.015,-1.376 -0.429,-2.046 0.93,-1.284 2.102,-2.378 3.263,-3.45 2.093,-1.758 4.488,-3.256 7.147,-3.97 0.746,-0.202 2.24,-0.398 2.208,0.76 -0.498,0.817 0.051,1.572 0.986,1.448 1.13,0.042 2.429,0.118 3.353,-0.648 0.37,-0.918 1.357,-1.361 2.316,-1.298 0.878,0 2.161,0.37 2.167,1.438 -0.186,1.38 -1.33,2.354 -2.304,3.237 -0.887,0.83 -2.163,0.538 -3.222,0.297 -1.392,-0.262 -2.824,-0.846 -4.25,-0.491 -1.225,0.428 -2.136,1.436 -3.331,1.936 -0.915,0.234 -1.786,0.628 -2.418,1.372 -1.141,1.246 -2.864,2.123 -4.582,1.87 -0.334,-0.068 -0.661,-0.21 -0.904,-0.455 z"/><path id="path94" d="m 1016.333,265.297 c -3.913,-0.302 -6.514,-3.72 -8.259,-6.89 -1.584,-2.973 -2.28,-6.43 -1.697,-9.766 0,-3.094 -1.534,-6.043 -3.4,-8.434 -1.81,-2.745 -4.651,0.536 -6.882,-1.141 -2.381,-0.587 -3.028,-3.046 -3.245,-5.174 -0.429,-2.72 -1.151,-6.387 1.606,-8.168 1.866,-1.083 4.214,-1.664 5.335,-3.697 1.699,-1.883 4.355,-2.994 6.858,-2.184 2.23,0.362 5.466,0.865 4.736,3.916 0.927,1.578 3.868,-0.209 5.526,0.788 3.414,0.631 6.957,1.254 10.004,2.99 2.854,2.157 6.478,2.799 9.507,4.612 1.579,2.564 2.46,5.547 3.628,8.329 1.014,2.17 1.137,4.615 0.475,6.905 -0.75,2.155 -0.391,5.242 -2.538,6.59 -2.329,0.333 -4.351,1.572 -6.101,3.097 -3.57,2.874 -6.62,6.453 -10.623,8.756 -1.612,0.165 -3.313,-0.357 -4.93,-0.53 z"/><path id="path96" d="m 861.605,191.923 c -1.856,-0.761 -3.887,0.592 -4.538,2.375 -0.722,1.902 -1.86,3.864 -4.044,4.265 -2.72,0.895 -5.676,1.799 -8.501,0.775 -2.08,-0.57 -4.245,-0.592 -6.37,-0.807 -1.849,-0.472 -2.085,-2.79 -3.671,-3.673 -1.341,-1.125 -4.152,-1.156 -3.814,-3.529 -0.271,-2.2 2.999,-3.91 0.6,-5.794 -1.906,-2.204 -3.747,-4.616 -4.303,-7.553 -0.463,-2.033 -0.825,-4.088 -1.238,-6.132 1.95,-1.322 3.827,-2.855 4.911,-5 2.18,-2.432 5.758,-2.76 8.842,-2.669 2.473,-0.035 4.658,1.234 7.05,1.658 1.617,0.453 3.535,0.65 4.786,1.757 1.974,0 4.026,-1 5.992,-0.19 2.125,0.837 2.098,4.094 4.7,4.262 2.355,-0.278 3.456,1.5 4.068,3.55 0.318,1.956 0.788,3.916 2.12,5.454 1.717,1.747 -0.688,3.799 -1.547,5.354 -1.43,1.59 -2.083,3.73 -3.38,5.323 -0.477,0.362 -1.103,0.415 -1.663,0.574 z"/><path id="path98" d="m 1168.135,271.265 c -2.59,-1.153 -4.722,-3.151 -7.49,-3.947 -3.903,-1.496 -7.974,-2.467 -11.978,-3.643 0.097,-2.895 -0.143,-5.852 -1.496,-8.475 -1.177,-2.792 -3.21,-5.055 -5.204,-7.283 2.282,-3.033 5.264,-5.762 8.966,-6.85 2.528,-0.737 5.017,0.748 7.484,0.519 2.588,-0.472 2.25,-2.593 0.431,-3.769 -1.105,-0.708 -0.709,-1.268 0.314,-1.765 1.566,-0.954 3.197,-2.992 5.164,-1.894 2.862,1.406 5.969,2.182 9.007,3.103 0.044,-1.698 0.063,-3.501 -0.982,-4.924 0.56,-2.436 1.813,-5.275 3.965,-6.641 2.18,0.653 5.382,1.001 5.13,-2.29 0.415,-2.005 1.388,-5.982 4.17,-4.6 2.173,0.752 4.433,2.086 4.95,4.515 0.078,0.814 1.096,1.855 0.444,2.492 -3.288,2.975 -6.217,6.455 -10.1,8.675 -2.122,-0.276 -5.848,2.814 -2.026,3.434 3.393,0.476 6.21,2.516 8.727,4.707 1.052,0.407 0.746,1.36 0.615,2.244 -0.547,3.805 -0.64,7.708 -1.695,11.413 -1.13,2.193 -4.02,2.293 -5.744,3.88 -2.55,1.532 -3.22,4.52 -4.579,6.898 -1.664,1.901 -3.9,3.233 -6.097,4.423 -0.662,0.294 -1.353,0.02 -1.976,-0.222 z"/><path id="path100" d="m 827.73,289.266 c -4.553,-0.458 -11.435,5.704 -14.221,1.034 -1.413,-1.958 2.727,-5.13 -0.34,-7.764 -4.055,-6.18 -7.992,-12.61 -9.628,-19.923 -0.647,-2.652 -1.098,-5.346 -1.644,-8.02 1.806,-3.135 5.043,-5.942 8.532,-2.878 3.499,4.033 6.385,8.789 8.237,13.798 1.131,3.882 3.991,7.01 5.238,10.88 6.15,-0.85 12.332,-0.428 18.501,-0.149 4.979,-0.32 10.09,-0.168 14.853,0.665 4.642,-3.313 10.478,-0.875 15.012,1.242 10.413,0.634 20.887,-0.208 31.306,-0.568 5.775,-2.343 9.926,1.912 15.423,1.976 5.48,-0.339 11.099,-0.576 16.437,1.173 3.085,3.326 7.322,5.528 11.965,6.571 2.343,2.508 -6.228,2.122 -8.05,3.215 -8.192,2.552 -16.502,-0.983 -24.762,-1.265 -13.677,-1.44 -27.399,0.366 -40.955,1.952 -10.042,-0.18 -19.894,-3.383 -29.978,-1.992 l -15.925,0.053 z"/><path id="path102" d="m 1308.817,294.18 c -3.304,-2.35 -3.74,-7.635 0.22,-9.567 3.29,-2.886 0.3,-8.07 2.463,-11.29 4.045,-0.196 1.898,-8.33 0.049,-8.97 -3.97,3.007 -7.885,-0.561 -10.098,-3.878 -1.203,-3.41 -2.8,-6.697 -5.247,-9.409 -0.83,-1.228 -2.69,-0.097 -3.964,-0.307 -2.338,0.568 -6.665,-0.525 -7.413,1.72 3.24,4.797 -3.883,6.461 -4.282,10.695 -2.07,4.443 -7.7,4.202 -11.343,6.64 -4.132,2.134 -7.686,5.733 -8.63,10.428 -1.14,3.306 -5.826,3.677 -5.653,7.968 -1.34,4.937 -6.885,3.816 -9.595,0.741 -2.732,-2.762 -8.39,-4.64 -8.69,-8.603 2.303,-3.861 0.159,-7.599 -1.468,-11.173 -1.273,-4.008 -0.136,-8.786 3.682,-11.006 2.878,-2.686 6.973,-3.089 10.152,-5.14 2.78,-3.844 6.153,-8.004 11.347,-8.212 4.238,0.196 7.641,-2.783 11.788,-2.783 4.151,0.31 8.414,-0.255 11.553,-3.247 5.727,-3.924 13.664,-4.115 19.64,-0.694 1.588,2.198 3.008,4.624 5.338,6.175 -0.301,0.59 -4.731,1.76 -1.102,3.414 3.725,2.298 3.285,7.286 5.487,10.569 4.26,-1.606 7.632,1.512 10.78,4.004 3.796,-0.288 8.063,0.773 10.156,4.376 2.184,4.75 1.529,10.38 0.225,15.296 -0.21,5.233 -6.813,0.779 -6.913,5.592 -2.16,3.104 -4.375,7.81 -8.693,7.836 -3.282,-0.52 -7.176,1.743 -9.79,-1.175 z"/><path id="path104" d="m 780.333,299.806 c -3.023,-1.045 -6.265,-1.94 -8.703,-4.116 -1.21,-1.363 -2.055,-3.022 -3.33,-4.342 -1.695,-1.47 1.228,-2.112 2.317,-2.378 2.22,-0.508 4.464,0.405 6.688,-0.1 2.555,-0.469 4.974,-1.694 7.623,-1.626 1.416,0.089 2.775,-0.523 3.787,-1.483 1.484,-0.576 2.646,1.18 4.136,1.278 2.289,0.678 4.723,0.765 6.946,1.69 1.842,0.75 3.907,1.517 5.048,3.24 0.783,1.338 -0.386,2.776 -1.548,3.393 -2.32,1.278 -4.982,1.87 -7.608,2.04 -1.777,0.221 -2.931,1.679 -4.41,2.49 -3.425,1.585 -7.465,0.98 -10.946,-0.086 z"/><path id="path106" d="m 772.896,338.482 c -1.198,-1.402 -2.976,-2.023 -4.687,-2.513 -1.955,-1.92 2.804,-1.959 3.35,-3.394 -1.376,-0.846 -4.225,-0.894 -4.548,-3.068 2.15,-0.5 4.85,0.389 6.57,-1.402 2.622,-1.59 5.84,-1.696 8.83,-1.836 3.485,-0.138 7.177,0.954 10.5,-0.502 1.985,-1.115 -0.758,-4.535 1.674,-5.378 1.53,0.536 3.622,1.354 3.87,-1.034 2.11,-4.146 3.894,-8.53 6.744,-12.24 1.129,-1.386 4.004,-3.607 4.901,-0.856 0.8,1.76 -0.362,3.617 -0.407,5.43 -0.294,2.425 -1.333,4.652 -2.476,6.774 -0.345,1.95 -0.524,3.974 -1.566,5.793 -0.888,1.814 -1.601,3.847 -3.089,5.251 -1.41,0.706 1.604,2.397 -0.176,3.527 -1.527,1.494 -3.988,1.418 -5.43,3.122 -1.099,1 -2.006,2.184 -3.005,3.28 l -19.617,0.73 z"/><path id="path108" d="m 712.702,345.625 c -1.122,-0.527 -3.309,-0.494 -3.765,-1.49 1.193,-2.197 3.431,-3.92 3.776,-6.513 0.817,-1.56 2.835,-1.76 4.275,-2.487 1.774,-0.549 2.806,-2.065 4.076,-3.226 2.479,-1.126 5.264,-1.25 7.917,-1.707 4.02,-0.48 8.11,-1.073 12.156,-0.568 1.557,0.483 3.111,1.08 4.787,0.971 1.904,0.094 3.836,-0.437 5.714,-0.028 1.162,1.085 1.025,3.064 1.104,4.582 -0.165,2.002 -2.213,3.46 -1.865,5.575 0.716,2.182 -2.367,2.027 -3.71,2.181 -7.061,0.455 -14.165,0.512 -21.18,1.515 -3.397,0.464 -6.634,2.11 -10.113,1.9 -1.08,-0.115 -2.126,-0.424 -3.172,-0.705 z"/><path id="path110" d="m 1386.193,351.995 c -1.532,-0.828 -3.224,-1.772 -3.76,-3.562 -1.394,-4.027 -1.96,-8.305 -3.585,-12.26 -0.907,-1.455 0.043,-2.967 1.207,-3.905 1.883,-1.79 3.856,-3.748 4.406,-6.394 0.36,-1.505 0.643,-3.027 0.967,-4.54 2.757,0.034 5.629,-0.257 8.206,0.952 2.422,1.102 4.859,2.275 6.985,3.89 2.044,1.868 2.984,4.552 4.273,6.94 l 1.786,3.543 c -3.134,4.62 -5.977,9.508 -10.064,13.38 -1.726,1.569 -3.496,3.386 -5.838,3.941 -1.466,-0.124 -2.74,-1.057 -4.046,-1.682 -0.18,-0.1 -0.359,-0.2 -0.537,-0.303 z"/><path id="path112" d="m 790.454,360.133 c -0.453,-0.47 -0.791,-1.09 -0.759,-1.759 0.038,-1.026 0.397,-2 0.651,-2.986 l 0.363,-1.315 c 1.112,0.477 2.234,0.93 3.337,1.426 0.887,0.44 1.81,0.967 2.331,1.84 0.313,0.511 0.292,1.19 -0.054,1.678 -0.599,0.878 -1.621,1.298 -2.54,1.755 -0.61,0.268 -1.278,0.61 -1.961,0.436 -0.57,-0.173 -0.974,-0.656 -1.368,-1.075 z"/><path id="path114" d="m 733.167,381.447 c -0.868,-0.346 -1.772,-0.783 -2.31,-1.58 -0.348,-0.503 -0.336,-1.197 -0.002,-1.705 0.572,-0.896 1.548,-1.416 2.485,-1.856 0.627,-0.276 1.247,-0.632 1.941,-0.693 0.634,-0.03 1.1,0.478 1.54,0.86 0.447,0.43 1,0.87 1.09,1.524 0.044,0.666 -0.344,1.254 -0.65,1.816 -0.399,0.644 -0.755,1.323 -1.253,1.898 -0.273,0.328 -0.731,0.42 -1.132,0.314 -0.589,-0.13 -1.146,-0.368 -1.71,-0.578 z"/><path id="path116" d="m 744.586,385.553 c -1.06,-1.11 -2.511,-2.977 -0.877,-4.275 1.739,-2.194 -1.23,-5.155 0.68,-7.289 0.568,-0.655 1.18,-1.273 1.77,-1.91 -1.536,-0.515 -3.477,-0.49 -4.483,-1.937 0.017,-1.682 -1.298,-2.386 -2.7,-1.539 -3.94,1.214 -8.11,1.53 -12.194,0.997 -3.803,-0.35 -7.624,-0.245 -11.433,-0.33 -1.962,-0.108 0.194,-3.086 -2.129,-3.274 -1.556,-1.537 1.117,-2.86 2.282,-3.54 1.453,-0.865 2.32,-2.586 4.125,-2.832 3.412,-0.83 7.244,-0.471 10.22,-2.644 3.041,-1.619 6.62,-2.048 10.023,-1.817 2.039,0.235 3.849,1.405 5.951,1.39 1.968,0.3 4.046,-0.195 5.937,0.513 1.246,1.13 2.18,2.944 2.15,4.655 -0.543,1.894 -1.398,3.723 -1.44,5.74 -0.178,2.403 -0.341,4.972 0.825,7.172 0.925,2.797 1.707,5.718 1.704,8.682 -0.1,2.155 -2.608,2.408 -4.253,2.702 -1.805,0.157 -3.779,0.967 -5.507,0.126 a 3.045,3.045 0 0 1 -0.651,-0.59 z"/><path id="path118" d="m 777.167,389.947 c -1.178,-0.57 -1.509,-2.237 -0.627,-3.206 0.655,-1.001 2.385,-0.96 2.577,-2.3 -0.134,-1.316 -0.344,-2.717 0.385,-3.927 0.724,-1.334 1.732,-2.603 1.868,-4.168 0.635,-1.47 2.417,-1.65 3.565,-2.542 0.992,-1.258 -1.534,-1.257 -2.176,-1.804 -0.964,-0.484 -1.166,-2.098 -0.033,-2.501 1.026,-0.323 2.374,-0.005 3.1,-1.014 1.153,-0.527 2.496,-0.106 3.654,0.215 1.17,0.287 2.188,1.102 2.311,2.362 0.769,2.69 0.565,5.539 1.225,8.244 0.617,1.533 1.663,-0.84 2.72,-0.47 1.37,0.003 2.729,0.504 3.828,1.308 0.66,1.115 -1.25,1.703 -1.789,2.484 -1.102,1.048 -1.942,2.324 -2.646,3.662 -0.766,1.116 -2.295,0.935 -3.482,1.022 -2.873,0.102 -5.766,-0.14 -8.624,0.228 -1.254,0.105 -2.029,1.159 -2.736,2.068 -0.65,1.072 -2.018,1.201 -2.962,0.43 z"/><path id="path120" d="m 757.494,399.167 c -0.49,-0.545 -1.092,-1.178 -1,-1.972 0.078,-0.54 0.478,-0.967 0.532,-1.517 0.189,-0.932 0.105,-1.896 -0.12,-2.814 -0.087,-0.451 -0.148,-1.055 0.325,-1.317 0.672,-0.358 1.45,-0.425 2.185,-0.58 0.83,-0.136 1.79,-0.315 2.525,0.217 0.693,0.524 1.203,1.248 1.704,1.948 0.422,0.59 0.614,1.34 0.464,2.055 -0.24,1.364 -0.775,2.72 -1.774,3.707 -0.645,0.686 -1.535,1.041 -2.358,1.46 -0.4,0.203 -0.926,0.33 -1.3,-10e-4 -0.44,-0.345 -0.796,-0.785 -1.183,-1.186 z"/><path id="path122" d="m 750.007,415.007 c -2.162,-2.15 -4.485,-4.474 -7.588,-5.1 -1.79,-0.288 -2.965,-1.706 -4.44,-2.498 -1.838,-0.16 -2.134,2.126 -3.219,3.137 -1.144,1.732 -3.679,0.526 -3.792,-1.299 -0.277,-1.84 0.98,-3.48 2.416,-4.47 1.069,-1.394 -0.714,-3.032 -1.338,-4.294 -1.332,-2.039 -3.135,-3.701 -4.59,-5.64 -1.163,-1.363 0.319,-3.607 1.953,-3.527 1.588,-0.832 -1.479,-2.78 -0.246,-4.08 1.629,-0.918 3.627,-0.07 5.268,0.44 1.931,0.765 3.863,1.938 4.993,3.718 0.6,1.773 -1.202,3.835 0.205,5.43 2.934,3.15 7.264,4.33 10.578,6.98 3.488,2.653 6.708,5.907 8.5,9.96 0.389,1.507 -1.046,2.68 -1.97,3.66 -1.015,1.23 -2.825,1.825 -3.919,0.321 -0.976,-0.871 -1.887,-1.813 -2.811,-2.738 z"/><path id="path124" d="m 569.44,418 c -1.428,-1.423 -1.283,-3.5 -0.899,-5.309 0.265,-1.912 0.81,-3.865 0.578,-5.794 -1.797,-0.55 -2.075,2.622 -2.662,3.827 -0.628,2.097 -1.176,4.874 -3.579,5.601 -2.006,0.451 -4.55,0.794 -6.098,-0.897 -1.435,-1.519 -3.044,-3.342 -2.665,-5.607 0.218,-3.945 1.115,-7.804 2.095,-11.615 0.625,-2.97 0.343,-6.058 1.23,-8.984 0.82,-2.814 1.873,-5.61 1.94,-8.577 0.498,-2.341 1.432,-4.765 3.207,-6.432 2.232,-0.633 0.79,3.276 2.392,4.111 1.066,1.865 3.16,-0.33 4.082,1.795 1.224,0.988 0.439,4.023 2.762,2.906 2.253,-0.368 2.494,2.718 2.703,4.307 0.312,2.44 -0.643,5.237 0.996,7.36 0.785,2.25 0.953,4.74 0.564,7.087 -1.421,1.843 1.226,3.816 0.076,5.62 -1.375,1.282 -1.743,3.192 -1.43,4.985 0.012,2.03 0.48,4.244 -0.485,6.122 -1.104,1.69 -3.594,1.88 -4.509,-0.11 l -0.147,-0.192 z"/><path id="path126" d="m 404.938,430.167 c -0.474,-3.146 -3.18,-5.579 -2.86,-8.902 -0.015,-4.207 0.287,-8.542 -1.079,-12.582 -0.068,-2.714 0.597,-5.67 2.445,-7.727 4.15,-0.57 -1.049,-3.533 -1.498,-5.537 -1.955,-2.639 -1.538,-5.751 -0.23,-8.553 -0.136,-3.43 2.323,-6.082 2.793,-9.312 -1.453,-3.437 1.972,-5.31 3.195,-8.064 2.246,-3.439 5.19,-6.323 7.963,-9.327 2.986,-0.179 5.97,-0.6 8.96,-0.54 0.593,0.796 -2.767,3.047 0.271,2.708 2.054,-0.637 4.87,1.391 6.383,0.29 -0.765,-3.317 4.778,-4.536 5.202,-0.98 0.617,2.58 -1.867,6.02 -4.545,6.325 -2.949,-1.449 -6.67,-2.844 -9.355,0.173 -1.691,2.164 -3.47,4.494 -6.596,4.038 -1.584,0.922 -1.797,3.27 -3.659,3.962 1.9,2.482 -0.22,5.037 -0.752,7.582 -0.303,3.405 3.291,4.5 3.782,7.777 0.612,2.6 0.127,6.27 -2.147,7.44 -0.059,3.32 0.62,6.9 -1.47,9.826 -1.334,3.73 -0.01,8.044 -2.036,11.553 0.924,3.133 0.783,6.595 0.56,9.873 0.417,2.986 -5.412,3.606 -5.253,0.366 l -0.074,-0.39 z"/><path id="path128" d="m 859,461.924 c -5.609,-1.877 -11.776,-1.447 -17.276,0.544 -5.92,-0.367 -11.766,-1.986 -17.765,-1.782 -6.097,1.457 -11.73,-2.42 -17.226,-1.811 -7.337,0.712 -14.698,-1.13 -21.985,-1.926 -5.716,-0.508 -10.744,-3.444 -15.855,-2.809 -3.512,-3.587 -12.013,-0.836 -12.562,-6.6 -2.57,-4.043 -7.716,-12.218 1.082,-11.975 5.51,-1.752 0.455,-7.802 -3.763,-5.573 -7.323,-0.527 1.845,-7.342 5.065,-3.115 5.342,0.353 10.572,-1.882 15.978,-1.759 5.338,0.185 10.732,-1.26 15.984,-0.237 6.26,-0.069 13.55,5.135 7.806,11.224 -1.119,3.303 8.609,2.095 10.98,5.242 6.465,1.673 -1.51,10.93 5.742,9.769 15.15,1.489 30.474,2.357 45.669,1.106 7.639,-1.635 15.537,-1.963 23.293,-3.01 5.656,-0.923 11.369,-0.057 17.074,-0.327 4.814,-1.805 13.74,5.943 5.918,7.605 -6.339,-0.27 -12.39,2.89 -18.802,1.675 -6.325,-3.315 -10.427,2.967 -16.622,2.92 -4.297,0.107 -8.56,2.978 -12.735,0.839 z"/><path id="path130" d="m 1154.148,492.806 c -4.65,-7.525 -14.187,-4.008 -22.112,-6.577 -7.805,-2.871 -10.515,-13.31 -19.56,-13.257 -6.751,1.759 -18.85,0.205 -13.742,-9.52 0.137,-3.957 4.685,-0.982 7.14,-1.297 1.601,-4.653 -0.035,-12.122 6.467,-12.98 9.138,-2.665 18.486,2.743 27.625,-0.388 9.969,0.297 20.13,0.859 30.122,-1.082 10.517,-3.979 9.333,-16.785 11.576,-25.88 -6.664,-5.664 -4,-18.497 -14.15,-22.681 -3.915,-7.615 5.718,-14.309 9.785,-20.08 6.609,-4.995 14.985,-8.802 19.452,-16.526 1.253,-7.073 11.493,-2.603 8.824,-10.357 3.926,-5.154 -12.516,-11.393 -2.242,-16.54 1.554,-3.034 -6.168,-6.24 -6.152,-10.17 -6.223,-5.14 -10.85,-14.421 -20.826,-12.5 -8.04,3.972 -14.707,-1.73 -15,-9.88 -4.285,-4.15 1.375,-7.148 -1.355,-12.72 -1.076,-5.694 -3.28,-9.895 4.635,-9.694 8.723,-2.064 20.132,1.791 22.753,11.416 0.634,9.046 20.619,4.807 13.81,-4.776 -2.203,-4.617 -4.954,-19.433 4.128,-11.495 2.548,5.558 7.315,8.357 4.68,15.676 0.293,4.612 -7.528,7.009 -2.26,10.937 4.915,5.96 11.099,10.204 12.46,18.023 -3.4,7.49 3.343,12.906 2.07,20.08 8.255,6.579 2.876,16.574 -1.61,23.526 -3.517,1.376 -7.27,1.857 -8.087,6.222 -3.485,6.268 -5.842,13.343 -10.52,18.809 -6.752,2.11 -14.978,2.385 -13.273,12.23 -1.596,3.803 2.841,4.724 5.16,6.657 3.654,1.27 4.255,4.095 3.528,7.597 2.198,5.238 -8.404,11.398 1.082,11.74 10.075,4.19 9.427,16.23 9.458,25.26 -2.342,10.177 10.902,-3.032 14.653,0.6 -0.783,6.22 4.564,13.457 -2.59,17.682 -6.423,2.307 -17.491,-1.373 -22.49,3.202 0.582,8.951 -12.31,5.185 -14.069,14.141 -8.052,5.162 -17.009,7.172 -26.542,5.3 l -1.073,-0.192 z"/><path id="path132" d="m 559.077,500.295 c -0.27,-1.14 0.32,-2.262 0.777,-3.274 a 15.477,15.477 0 0 1 4.617,-5.524 c 1.37,-1.161 3.258,-1.008 4.934,-1.104 2.926,-0.085 5.885,-0.093 8.762,-0.695 0.657,-0.248 1.965,-0.532 1.83,0.602 -0.002,1.417 -0.89,2.645 -1.756,3.694 -0.592,0.642 -1.295,1.368 -2.232,1.367 -2.613,0.584 -4.8,2.477 -7.52,2.673 -1.134,0.3 -1.875,1.277 -2.507,2.195 -0.892,1.143 -2.468,1.103 -3.78,1.104 -1.012,-0.057 -2.231,0.015 -2.986,-0.786 l -0.078,-0.122 z"/><path id="path134" d="m 1115,502.005 c -4.094,-0.254 -8.412,-0.82 -11.588,-3.675 -2.748,-1.158 -5.408,-2.096 -5.12,-5.598 -3.116,-3.495 -8.504,-1.358 -12.625,-2.13 -4.884,-0.054 -8.038,-4.462 -13.15,-2.846 -4.845,0.048 -7.663,-4.378 -12.184,-5.303 -2.122,-0.468 -4.186,-2.104 -6.379,-1.177 -4.675,0.861 -10.128,3.317 -14.296,-0.11 -3.876,-3.102 -8.782,-5.001 -13.71,-5.503 -3.197,3.018 -7.862,2.984 -12.27,2.595 -5.065,-0.516 -5.358,-6.755 -4.949,-10.702 0.559,-4.259 6.077,-3.86 9.204,-5.08 1.522,-0.164 3.126,-1.216 4.596,-0.827 3.306,1.5 6.703,3.514 10.483,2.59 4.55,-0.756 9.204,-0.66 13.748,-1.236 2.882,-3.4 7.15,-3.25 11.213,-2.291 6.037,1.067 12.376,2.193 17.29,6.13 4.399,2.803 8.96,5.369 13.698,7.533 3.52,1.704 -2.323,3.863 1.506,5.279 6.05,4.063 13.509,5.935 18.835,11.057 2.139,3.604 7.163,3.163 10.488,5.179 2.379,0.91 9.512,4.64 5.416,6.69 -3.408,0.015 -6.811,-0.31 -10.206,-0.575 z"/><path id="path136" d="m 924.362,516.698 c -2.279,-1.6 -7.681,-0.344 -6.878,-4.968 -0.016,-3.95 -4.552,-5.985 -5.263,-9.756 0.971,-4.08 4.992,-0.453 6.088,1.64 2.515,0.74 5.24,0.1 7.712,-0.614 -1.767,-2.438 -3.336,-5.045 -4.253,-7.907 -3.168,-0.496 -6.573,0.968 -9.884,0.345 -4.434,0.03 -7.263,-4.193 -11.632,-4.694 -3.264,-1.742 -2.677,-7.135 -0.01,-9.294 2.78,-2.66 7.209,2.968 10.137,-1.033 3.818,-1.783 8.182,-0.266 12.16,0.095 2.843,0.679 -3.482,5.793 1.782,5.856 3.665,0.694 7.524,-2.157 10.93,0.36 1.733,0.66 2.804,3.26 4.02,3.92 1.095,-2.952 4.876,-2.921 5.821,0.233 1.334,5.1 6.209,-0.996 9.404,-0.91 2.799,-0.516 4.2,-3.048 5.46,-5.304 6.155,-0.114 12.402,0.265 18.44,-1.114 4.813,-0.69 9.767,-0.236 14.308,1.545 0.944,2.662 -1.724,5.332 1.065,7.448 -2.978,2.6 -6.807,0.567 -9.89,-0.74 -3.502,-1.567 -7.921,-0.602 -10.854,1.694 -2.704,2.456 -7.59,-1.283 -9.792,2.848 -3.272,2.896 -7.41,6.706 -12.16,5.163 -3.449,-1.636 -6.59,2.453 -10.477,1.455 -3.19,0.33 -8.128,-0.524 -8.297,4.055 -0.94,3.872 0.088,8.337 -4.62,10.022 -1.197,1.093 -2.425,1.08 -3.317,-0.345 z"/><path id="path138" d="m 838.392,488.073 1.622,-1.276 c -1.681,-1.455 -3.406,-2.955 -5.606,-3.556 -2.034,-0.438 -4.042,-1.018 -5.915,-1.935 -1.536,-0.662 -3.453,1.519 -4.386,-0.677 -1.18,-1.107 -0.542,-2.715 0.04,-3.942 0.935,-1.826 3.601,-1.69 4.84,-0.272 1.409,1.366 3.541,0.662 5.266,0.532 1.943,-0.153 4,-0.708 5.887,-0.019 0.99,1.548 2.735,1.812 4.443,1.968 2.837,0.668 5.6,1.942 8.582,1.73 1.63,0.074 2.566,-1.749 4.3,-1.244 2.4,0.3 4.956,0.964 6.756,2.666 1.53,1.525 0.958,3.934 -0.043,5.58 -0.685,1.917 -2.947,1.69 -4.582,1.705 -2.213,-0.037 -4.698,-0.004 -6.384,1.667 -1.314,1.114 -2.984,1.814 -4.722,1.721 -2.751,0.257 -5.61,-0.461 -7.721,-2.299 a 17.277,17.277 0 0 1 -2.377,-2.349 z"/><path id="path140" d="m 1485.468,574.431 c -2.332,-1.704 -3.81,-4.303 -4.917,-6.918 -0.55,-0.952 -0.026,-1.965 0.714,-2.625 0.95,-0.997 0.372,-2.411 0.013,-3.527 -0.257,-0.894 -0.77,-2.103 0.078,-2.83 1.15,-0.746 2.574,-0.859 3.891,-1.11 0.893,-0.122 2.185,-0.172 2.542,0.865 0.462,1.869 -0.737,3.632 -0.679,5.491 0.01,0.863 1.713,2.3 2.065,0.95 0.292,-1.166 0.545,-2.384 1.312,-3.352 1.282,-1.76 3.47,-3.177 5.722,-2.766 2.319,0.546 4.237,2.465 4.947,4.718 0.587,1.79 -0.42,3.59 -1.504,4.956 -0.917,1.103 -2.087,2.225 -3.6,2.3 -2.876,1.182 -4.857,3.765 -7.573,5.215 -0.93,0.051 -1.743,-0.682 -2.558,-1.084 a 21.509,21.509 0 0 1 -0.454,-0.283 z"/><path id="path142" d="m 1300.696,582.752 c -1.758,-2.439 -4.3,-4.213 -6.524,-6.214 -2.842,-2.415 -5.411,-5.123 -7.835,-7.947 -5.396,-5.055 -11.49,-9.352 -17.87,-13.072 -1.955,-1.038 -3.902,-2.107 -5.93,-2.99 -2.655,4.668 -4.394,9.813 -7.03,14.495 -1.869,2.154 -2.046,-2.507 -2.102,-3.79 -0.036,-2.835 -0.306,-5.73 0.286,-8.523 0.997,-2.74 3.043,-4.943 4.732,-7.274 1.417,-1.977 3.886,0.762 5.744,1.013 6.063,2.432 12.154,5.123 17.101,9.495 7.204,6.184 13.705,13.124 20.476,19.769 0.82,0.485 0.81,1.158 0.368,1.928 -0.44,1.074 -0.666,2.336 -1.392,3.215 z"/><path id="path144" d="m 1222.667,588.989 c 0.224,-1.839 1.942,-2.97 3.29,-4.022 1.914,-1.101 3.027,-3.126 3.532,-5.213 0.541,-2.124 2.475,-3.382 4.266,-4.39 1.67,-0.908 3.178,-2.23 3.867,-4.047 1.258,-3.007 2.567,-6.191 2.135,-9.522 -0.08,-1.631 -0.577,-3.377 0.068,-4.946 0.878,-1.043 2.953,-0.74 3.757,0.268 0.709,1.758 0.65,3.716 0.851,5.577 0.29,3.55 -1.04,6.948 -2.32,10.187 -1.672,3.719 -4.75,6.519 -7.436,9.501 -2.213,2.27 -4.26,4.744 -6.792,6.67 -1.302,0.97 -3.067,0.944 -4.576,0.583 -0.287,-0.096 -0.646,-0.294 -0.642,-0.646 z"/><path id="path146" d="m 866.175,589.784 c -1.614,-0.463 -2.95,-1.741 -3.51,-3.323 -0.49,-1.291 -0.828,-2.727 -0.521,-4.102 0.07,-0.616 0.75,-0.844 0.868,-1.432 0.43,-1.312 0.259,-2.703 0.375,-4.054 -0.072,-0.698 0.633,-1.022 1.202,-0.722 1.255,0.311 2.487,1.016 3.075,2.216 0.808,1.607 0.88,3.455 0.964,5.217 0.042,2.19 0.042,4.382 -0.072,6.57 0.036,0.645 -0.787,-0.035 -1.148,-0.011 z"/><path id="path148" d="m 758.447,625.695 c -1.562,-1.816 -1.522,-4.32 -1.684,-6.57 -0.216,-5.406 -0.41,-10.816 -0.365,-16.226 0.086,-1.447 -0.02,-2.986 0.585,-4.337 0.85,-0.983 1.894,0.591 2.521,1.143 0.715,1.026 2.05,1.218 2.85,2.011 1.157,2.151 1.66,4.578 2.312,6.914 1.036,4.204 2.355,8.548 1.52,12.908 -0.381,1.89 -0.97,3.783 -1.987,5.432 -0.743,1.083 -2.273,1.008 -3.4,0.708 -1.005,-0.336 -1.732,-1.163 -2.352,-1.983 z"/><path id="path150" d="m 828.845,630.387 c -1.249,-0.64 -1.737,-2.105 -1.973,-3.397 -0.262,-1.618 -0.221,-3.284 0.061,-4.896 0.09,-0.609 0.497,-1.191 1.13,-1.31 0.827,-0.19 1.866,-0.143 2.41,-0.92 0.415,-0.57 0.242,-1.394 0.797,-1.89 0.932,-0.93 2.443,-0.854 3.585,-0.398 1.22,0.442 1.99,1.516 2.865,2.406 0.114,0.158 0.45,0.323 0.143,0.463 -0.76,0.742 -1.726,1.35 -2.11,2.39 -0.71,1.938 -0.205,4.045 -0.576,6.036 -0.09,0.731 -0.78,1.14 -1.448,1.249 -0.91,0.22 -1.807,0.498 -2.71,0.738 -0.749,0.054 -1.499,-0.162 -2.174,-0.471 z"/><path id="path152" d="m 1196.076,636.609 c -0.407,-0.384 -1.334,-0.846 -0.942,-1.496 0.756,-0.559 1.743,-0.643 2.63,-0.877 0.89,-0.151 1.845,-0.548 2.204,-1.448 0.515,-1.192 0.788,-2.478 1.022,-3.75 0.204,-0.987 -0.13,-1.985 -0.715,-2.778 -0.549,-0.833 -1.216,-1.623 -1.533,-2.58 0.356,-0.415 0.91,-0.688 1.363,-1.022 0.843,-0.521 1.66,-1.126 2.596,-1.463 0.557,0.451 0.828,1.182 1.197,1.787 0.693,1.382 1.44,2.764 1.824,4.27 0.354,1.726 -0.15,3.465 -0.43,5.164 -0.265,1.206 -0.38,2.487 -0.992,3.58 -0.616,0.93 -1.826,1.034 -2.802,1.345 -1.395,0.355 -2.981,0.787 -4.32,0.008 -0.39,-0.21 -0.75,-0.47 -1.102,-0.74 z"/><path id="path154" d="m 858.833,668.451 c -0.847,-0.539 -1.78,-1.19 -2.014,-2.234 -0.249,-1.07 -0.099,-2.178 -0.21,-3.264 a 27.116,27.116 0 0 0 -0.458,-3.585 c -0.086,-0.482 -0.09,-1.13 0.44,-1.358 0.804,-0.329 1.688,-0.452 2.552,-0.463 1.109,-0.015 2.227,0.48 2.88,1.392 0.984,1.353 1.27,3.059 1.475,4.682 0.126,1.315 0.256,2.641 0.153,3.962 -0.041,0.666 -0.367,1.345 -1.007,1.624 -0.55,0.271 -1.153,0.772 -1.791,0.46 -0.716,-0.326 -1.352,-0.804 -2.02,-1.216 z"/><path id="path156" d="m 1178.76,678.2 c -1.08,-0.952 -2.183,-2.112 -3.7,-2.255 -2.294,-0.214 -4.593,0.245 -6.888,0.06 a 1.604,1.604 0 0 1 -1.534,-1.203 c -0.25,-0.583 -0.503,-1.435 0.144,-1.863 1.582,-1.065 3.558,-1.185 5.406,-1.268 2.507,-0.04 5.06,0.143 7.455,0.93 1.084,0.376 2.317,0.85 2.781,2 0.422,1.045 0.668,2.167 0.753,3.289 0.082,0.944 -0.52,1.886 -1.382,2.25 -0.704,0.129 -1.264,-0.464 -1.784,-0.847 -0.427,-0.352 -0.84,-0.722 -1.25,-1.093 z"/><path id="path158" d="m 1574.667,692.22 c -2.285,-1.561 -6.276,-0.023 -7.187,-3.425 -0.922,-2.563 -0.616,-5.532 -3.116,-7.217 -0.053,-2.705 -1.766,-4.56 -4.174,-5.63 -1.768,-1.321 -1.416,-3.875 -3.462,-5.192 -0.695,-2.051 -0.375,-4.448 -1.492,-6.488 l -1.397,-3.736 c 1.613,-2.123 3.602,-4.303 3.518,-7.153 0.327,-2.19 1.148,-5.2 3.747,-5.475 2.408,-0.532 5.24,0.97 4.988,3.712 0.434,2.412 -1.984,5.573 0.468,7.312 2.403,1.882 2.612,5.342 1.605,7.992 0.49,1.7 2.1,2.733 3.2,4.047 l -3.453,1.573 c 1.405,1.033 2.563,2.597 4.333,2.967 2.364,-0.803 5.056,-0.666 7.205,-2.044 1.995,-1.782 5.19,-2.194 7.23,-0.276 2.09,1.284 2.461,3.778 3.137,5.791 2.257,-0.672 2.584,-4.515 5.638,-4.198 2.788,-0.373 5.472,-1.505 8.292,-1.548 2.138,1.125 1.1,4.194 0.266,5.937 -1.283,2.4 -1.279,5.154 -1.488,7.786 -0.434,3.046 -3.876,3.727 -6.361,4.275 -2.654,1.453 -4.372,-2.31 -6.781,-1.368 -3.716,2.085 -8.075,2.256 -12.167,3.029 -0.884,-0.021 -1.777,-0.234 -2.55,-0.671 z"/><path id="path160" d="m 821.305,712.16 c -1.127,-1.614 -3.39,0.278 -4.474,-1.377 -1.362,-2.112 -3.481,-3.523 -5.49,-4.952 -1.603,-0.894 -0.764,-2.66 -0.708,-4.052 0.093,-1.5 -0.749,-3.439 -2.524,-3.287 -1.961,-0.646 -3.35,-2.524 -3.99,-4.423 -0.626,-2.146 1.395,-3.982 3.278,-4.541 1.917,-0.602 4.081,-0.098 5.891,-1.126 1.819,-1.167 3.655,0.846 3.5,2.663 1.066,2.177 3.074,3.774 5.155,4.937 1.64,0.79 3.587,0.525 5.184,1.51 1.845,0.965 3.775,2.33 5.98,1.87 1.74,-0.753 2.632,0.734 2.928,2.197 0.659,1.42 2.22,1.892 3.287,2.877 0.678,1.543 -1.159,2.719 -2.03,3.786 -1.787,1.649 -3.444,3.858 -6.034,4.163 -2.72,0.342 -5.474,0.63 -8.218,0.526 -0.64,-0.055 -1.324,-0.238 -1.735,-0.77 z"/><path id="path162" d="m 1267.717,717.42 c -0.315,-1.1 0.541,-2.081 1.244,-2.822 1.713,-1.7 3.95,-2.738 6.23,-3.44 a 37.55,37.55 0 0 0 5.565,-2.507 c 1.95,-0.988 4.193,-0.537 6.242,-0.188 0.754,0.19 1.767,0.296 2.104,1.107 0.166,0.836 -0.28,1.861 -1.18,2.043 -1.638,0.46 -3.391,0.025 -5.014,0.59 -2.184,0.644 -3.866,2.265 -5.879,3.26 -2.317,1.213 -4.706,2.36 -7.258,2.98 -0.71,0.247 -1.513,-0.031 -1.886,-0.695 a 1.783,1.783 0 0 1 -0.168,-0.328 z"/><path id="path164" d="m 1160.8,721.062 c -1.896,-2.039 1.388,-4.059 2.427,-5.704 3.75,-4.277 8.826,-7.76 14.648,-8.144 2.821,-0.32 4.802,-2.429 6.827,-4.188 2.644,1.751 5.087,3.858 7.973,5.202 2.417,0.668 4.258,-1.925 6.767,-1.665 5.276,-0.643 10.658,-1.043 15.946,-0.34 3.213,0.247 4.814,3.386 6.552,5.658 1.294,1.328 1.93,3.247 -0.31,4.02 -0.844,0.524 -1.707,1.016 -2.56,1.525 l -7.14,-7.858 c -3.596,1.923 -7.384,3.626 -11.5,3.98 -4.5,0.51 -9.068,0.112 -13.53,1.027 -4.512,0.92 -8.974,2.088 -13.507,2.915 -3.897,0.879 -7.51,2.597 -11.162,4.154 -0.611,0.316 -1.082,-0.126 -1.431,-0.582 z"/><path id="path166" d="m 1241.177,729.669 c -0.853,-0.66 -1.493,-1.71 -1.355,-2.822 0.117,-1.104 0.862,-2.015 1.685,-2.705 0.874,-0.764 1.714,-1.586 2.705,-2.2 0.418,-0.269 0.975,-0.39 1.425,-0.125 0.444,0.263 0.9,0.55 1.22,0.964 0.32,0.518 0.039,1.134 -0.131,1.652 -0.634,1.588 -1.26,3.228 -2.385,4.544 -0.547,0.626 -1.307,1.231 -2.191,1.13 a 1.943,1.943 0 0 1 -0.973,-0.438 z"/><path id="path168" d="m 1379.333,751.133 c -1.163,-0.984 -2.947,-0.362 -4.349,-0.752 -1.927,-0.502 -1.37,-3.146 0.252,-3.69 0.89,-0.4 2.694,-1.58 0.742,-1.96 -2.009,-0.74 -4.182,-1.02 -6.115,-1.956 -1.459,-1.009 -1.446,-2.994 -1.97,-4.53 -0.208,-1.332 -1.308,-3.443 0.381,-4.166 2.732,-0.51 5.586,0.1 8.298,-0.594 -0.29,-1.329 -1.88,-2.385 -2.755,-3.526 -1.47,-1.581 -2.167,-3.675 -2.393,-5.787 0.042,-0.449 -0.425,-1.228 -0.055,-1.463 l 10.965,-2.906 10.666,4.527 c 0.091,2.789 0.53,5.623 -0.118,8.375 -1.188,1.793 1.414,2.527 2.5,3.359 2.124,1.381 3.103,4.25 2.064,6.598 -0.602,1.358 -1.615,2.898 -0.941,4.393 -1.5,-0.125 -3.135,-0.117 -4.318,1.122 -1.499,0.84 -3.355,0.103 -4.812,1.023 -1.225,1.233 -3.137,0.56 -4.672,0.897 -0.969,0.425 -2.165,2.214 -3.37,1.037 z"/><path id="path170" d="m 1440.615,763.099 c -0.92,-1.908 -0.408,-4.115 0.091,-6.067 0.792,-2.96 2.306,-5.664 3.067,-8.635 0.47,-1.53 0.704,-3.112 0.89,-4.697 0.157,-1.42 1.04,-2.633 2.19,-3.437 1.046,-0.811 2.462,-1.738 3.814,-1.098 1.435,0.865 1.824,2.643 2.206,4.155 0.764,3.494 0.71,7.366 -1.094,10.546 -0.596,1.112 -1.58,1.91 -2.578,2.639 -1.445,1.323 -2.349,3.09 -3.166,4.84 -0.766,1.323 -1.77,2.857 -3.403,3.112 -0.907,0.096 -1.633,-0.608 -2.016,-1.358 z"/><path id="path172" d="m 1045.167,779.118 c -0.734,-0.588 -1.514,-1.25 -1.824,-2.167 -0.027,-0.844 -1,-1.173 -1.705,-1.259 -1.315,-0.23 -2.242,-1.506 -2.207,-2.814 -0.04,-1.149 0.403,-2.456 1.552,-2.915 0.788,-0.404 1.846,-0.043 2.106,0.834 0.697,0.519 1.638,0.471 2.468,0.545 1.947,0.039 3.933,-0.064 5.804,-0.64 0.788,-0.153 1.04,-1.221 1.946,-1.046 1.21,0.087 2.392,0.427 3.542,0.797 0.824,0.208 1.158,1.073 1.129,1.848 0.026,1.703 0.191,3.592 -0.866,5.054 -0.794,1.03 -1.718,2.015 -2.869,2.645 -1.436,0.649 -3.059,0.497 -4.592,0.483 -1.574,-0.073 -3.205,-0.384 -4.484,-1.365 z"/><path id="path174" d="m 998.667,780.195 c -0.587,-0.677 -1.483,-1.044 -2.372,-1.024 -1.22,-0.162 -1.831,-1.383 -2.316,-2.376 -0.67,-1.502 -1.47,-3.134 -1.054,-4.821 0.337,-1.484 1.049,-2.947 0.774,-4.505 -0.085,-0.933 -0.76,-1.762 -0.623,-2.717 0.32,-0.768 1.232,-1.081 1.981,-1.276 2.292,-0.45 4.565,1.442 4.884,3.686 0.09,0.9 0.019,1.885 0.583,2.66 0.619,1.078 2.1,1.345 2.556,2.538 0.358,1.301 -0.483,2.636 -0.032,3.936 0.204,0.916 1.415,1.178 1.53,2.12 -0.173,0.74 -0.98,1.056 -1.551,1.457 -0.924,0.508 -1.839,1.203 -2.929,1.256 -0.614,-0.013 -1.067,-0.497 -1.432,-0.934 z"/><path id="path176" d="m 1174.926,782.018 c -0.956,-0.697 -1.521,-1.793 -1.938,-2.873 -0.286,-0.834 -0.552,-1.751 -0.308,-2.626 0.243,-0.578 0.817,-0.922 1.285,-1.306 1.337,-0.967 2.75,-1.852 4.272,-2.496 0.462,-0.287 0.987,-0.208 1.194,0.33 0.933,1.405 1.622,2.95 2.405,4.44 0.106,0.153 0.169,0.297 -0.043,0.384 -1.62,1.316 -3.217,2.663 -4.859,3.953 -0.418,0.28 -0.908,0.76 -1.45,0.534 -0.2,-0.09 -0.375,-0.222 -0.558,-0.34 z"/><path id="path178" d="m 1390.663,787.524 c -1.016,-1.299 -1.078,-3.018 -1.728,-4.472 -0.96,-1.354 -2.729,-1.679 -4.201,-2.213 -2.136,-0.645 -4.356,-0.937 -6.581,-1.004 -1.309,0.174 -1.354,-1.097 -1.873,-1.795 -1.364,-0.22 -2.522,0.899 -3.84,0.911 -1.629,-0.523 -2.655,-2.02 -3.817,-3.193 -0.685,-0.74 -1.369,-1.482 -2.053,-2.223 3.441,-2.809 6.834,-5.681 10.025,-8.774 0.93,-1.103 2.338,-1.358 3.566,-0.632 1.49,0.425 3.02,-0.47 4.477,0.076 0.983,1.206 2.637,0.61 3.947,0.5 1.417,-0.313 2.212,1.336 3.66,0.887 1.132,-0.164 3.081,-0.822 3.184,0.965 0.534,2.63 0.69,5.355 0.475,8.03 -0.114,1.593 -1.92,1.81 -3.02,2.482 -1.707,0.546 -0.165,2.037 0.242,3.007 1.154,2.092 2.513,4.076 3.54,6.234 -1.357,0.96 -2.965,1.545 -4.515,2.134 -0.66,0.318 -1.08,-0.564 -1.488,-0.92 z"/><path id="path180" d="m 1354.33,785.857 c -1.179,-1.189 -2.567,-2.818 -4.452,-2.32 -1.653,0.56 -3.353,-0.106 -4.537,-1.291 -1.817,-1.705 -4.182,-2.744 -6.648,-3.037 -2.001,-0.365 -0.512,-2.636 -0.253,-3.79 -1.143,-1.3 -2.838,-1.985 -4.322,-2.832 -2.282,-1.18 -4.678,-2.207 -6.767,-3.716 -0.41,-1.47 0.39,-2.97 0.938,-4.314 0.546,-1.762 2.622,-1.051 3.9,-0.718 3.931,1.197 7.41,3.448 11.191,4.996 1.752,1.228 2.5,-1.537 4.15,-0.933 2.66,0.834 5.16,2.115 7.664,3.323 1.386,0.638 2.672,1.755 2.89,3.345 0.366,1.598 0.342,3.7 2.067,4.509 1.313,0.647 3.302,1.154 3.165,3.007 0.238,1.612 -0.292,3.35 -1.877,4.066 -1.387,0.843 -2.778,1.705 -4.256,2.376 -1.048,-0.77 -1.926,-1.76 -2.854,-2.67 z"/><path id="path182" d="m 1158.78,796.236 c -0.682,-1.168 -1.224,-2.534 -0.984,-3.908 0.168,-1.023 0.964,-1.865 1.934,-2.189 1.35,-0.468 2.826,-0.3 4.179,0.063 0.83,0.244 1.381,1.048 1.48,1.884 0.19,1.479 -0.46,2.95 -1.386,4.072 a 12.025,12.025 0 0 1 -2.027,1.844 c -0.46,0.334 -1.122,0.575 -1.64,0.22 -0.7,-0.485 -1.116,-1.28 -1.557,-1.986 z"/><path id="path184" d="m 1601,807.797 c -1.534,-0.374 -3.103,-0.637 -4.611,-1.098 -1.166,-0.372 -0.938,-1.744 -1.668,-2.505 -1.563,-2.105 -3.65,-3.724 -5.535,-5.522 0.306,-2.27 0.413,-4.576 0.959,-6.806 0.277,-1.248 1.256,-2.338 2.564,-2.49 2.692,-0.46 5.405,0.466 8.096,0.093 1.23,-0.181 1.732,-1.578 2.943,-1.81 2.453,-0.636 5.12,0.149 7.155,1.573 1.155,0.897 2.446,2.073 2.341,3.678 -0.07,2.663 -1.023,5.198 -1.86,7.696 -0.8,1.99 -1.431,4.149 -2.9,5.768 -1.165,1.068 -2.71,1.625 -4.198,2.079 -1.103,-0.118 -2.195,-0.437 -3.286,-0.656 z"/><path id="path186" d="m 1023.339,818.868 c -1.413,-1.413 -3.553,-0.014 -5.233,-0.913 a 20.246,20.246 0 0 0 -8.014,-1.453 c -2.672,0.01 -4.102,-2.54 -5.814,-4.174 -1.52,-1.644 -3.282,-3.027 -4.973,-4.475 -1.788,-2.047 -2.574,-4.75 -3.201,-7.337 -0.01,-1.696 2.47,-2.923 0.919,-4.744 -0.974,-1.727 1.13,-2.986 2.489,-3.542 1.533,-0.889 3.841,-0.284 3.127,1.866 0.18,1.698 -0.95,4.158 0.728,5.278 1.773,0.219 4.056,2.597 2.493,4.237 -1.475,1.964 2.133,1.72 3.16,2.581 1.599,0.852 2.616,2.481 4.342,3.156 2.32,1.113 5.077,2.182 7.604,1.047 1.667,-0.704 3.48,-0.756 5.15,-0.093 3.566,0.476 7.252,0.595 10.778,-0.211 1.94,-0.168 2.36,2.36 2.073,3.833 -0.02,1.78 -1.224,3.32 -3.122,2.742 -1.76,0.301 -2.924,2.137 -4.887,1.862 -1.948,-0.362 -3.093,1.669 -5.01,1.306 -0.916,-0.087 -1.948,-0.264 -2.61,-0.966 z"/><path id="path188" d="m 747.04,818.84 c -2.408,-1.498 -5.422,-0.5 -7.956,-1.558 -1.21,-1.497 -2.047,1.363 -3.622,0.518 -1.612,-0.261 -3.723,-0.82 -4.064,-2.692 -0.2,-1.604 0.353,-3.243 1.121,-4.63 0.972,-1.285 3.166,0.77 3.817,-1.089 1.326,-1.305 3.339,-1.243 4.948,-2.022 2.04,-0.673 3.825,-2.01 5.943,-2.44 1.18,-0.309 2.828,1.643 3.324,-0.282 1.35,-1.223 3.357,-0.537 4.987,-0.942 1.408,-0.248 2.697,-1.49 4.133,-0.49 1.437,0.615 2.388,1.917 2.918,3.343 0.208,0.723 0.434,0.803 0.683,0.05 0.614,-1.198 1.314,-2.793 2.883,-2.782 1.953,0.222 2.797,2.368 3.349,3.99 0.324,1.228 1.24,3.618 -0.591,4.011 -2.671,-0.018 -4.984,1.66 -6.956,3.294 -1.264,1.036 -1.933,2.749 -3.608,3.26 -1.555,0.6 -3.616,1.086 -5.018,-0.107 -1.651,-0.803 -2.522,1.95 -4.275,1.505 -0.755,-0.08 -1.422,-0.491 -2.017,-0.937 z"/><path id="path190" d="m 1194.742,836.615 c -2.429,-0.592 -5.04,-1.668 -6.226,-4.032 -1.515,-3.011 -1.762,-6.442 -2.262,-9.724 -0.236,-1.576 -0.288,-3.303 0.676,-4.666 0.9,-1.553 2.023,-3.029 3.536,-4.021 1.738,-1.683 2.628,-3.982 3.99,-5.935 0.878,-1.26 2.563,-1.053 3.9,-1.011 1.085,-0.12 1.69,0.635 1.898,1.559 0.852,0.84 2.93,-0.173 2.998,1.482 -0.24,2.017 -1.265,3.827 -2.033,5.683 l -1.204,2.72 c 1.323,1.847 2.809,3.717 3.068,6.057 0.319,1.785 -0.176,3.546 -0.59,5.266 -0.615,1.392 1.167,1.681 1.35,2.8 0.084,1.45 -0.183,2.935 -0.643,4.308 -0.698,1.155 -2.314,0.608 -3.42,0.558 a 50.108,50.108 0 0 1 -5.038,-1.044 z"/><path id="path192" d="m 1173.87,858.048 c -1.223,-1.654 -2.019,-3.616 -2.492,-5.609 -0.28,-1.298 1.648,-1.334 1.683,-2.577 0.5,-2.422 0.106,-4.92 0.433,-7.363 0.164,-1.716 0.677,-3.693 2.333,-4.553 1.508,-0.773 3.228,-0.951 4.82,-1.498 1.033,-0.7 2.093,0.057 2.52,1.07 1.128,1.991 1.562,4.306 1.528,6.577 -0.012,1.11 0.659,2.094 1.598,2.643 1.366,0.79 2.683,1.823 3.277,3.34 0.858,2.125 1.476,4.46 1.2,6.766 -0.162,0.676 -0.355,1.345 -0.53,2.018 -4.264,0.08 -8.527,0.272 -12.792,0.225 -1.226,-0.081 -2.708,-0.01 -3.578,-1.039 z"/><path id="path194" d="m 978.331,862.087 c -0.461,-1.24 -0.929,-2.616 -0.574,-3.94 0.073,-1.025 -1.004,-1.547 -1.766,-1.959 -1.612,-0.799 -2.262,-2.593 -2.725,-4.213 -0.357,-1.26 -0.71,-2.52 -1.065,-3.78 2.18,-0.509 4.34,-1.112 6.542,-1.52 1.182,-0.251 2.386,0.074 3.41,0.673 2.372,1.102 3.716,3.613 4.232,6.077 0.662,3.16 0.182,6.762 -2.033,9.234 -0.9,1.024 -2.147,2.148 -3.62,1.913 -1.222,-0.242 -1.953,-1.424 -2.4,-2.485 z"/><path id="path196" d="m 628.554,863.336 c -1.672,-2.724 -5.438,-6.766 -2.395,-9.397 -0.69,-3.347 -6.404,-8.91 -0.61,-10.37 2.077,-2.205 4.159,-4.552 6.935,-6.051 1.194,-1.453 2.52,-0.624 3.842,0.166 2.122,1.815 7.963,2.569 4.026,-1.158 -2.115,-1.172 -0.303,-2.368 0.83,-3.522 2.49,-2.064 6.613,-0.49 8.409,1.862 0.998,0.927 2.684,-0.644 3.966,-0.747 3.936,-1.163 8.312,-2.736 12.355,-1.37 2.525,3.915 7.15,3.615 11.252,3.443 3.364,-0.02 6.508,-1.412 9.913,-1.373 1.666,-0.14 3.333,-0.278 5,-0.417 2.017,1.824 3.766,5.028 6.948,4.25 3.052,-0.291 5.085,2.737 8.296,0.777 4.096,0.241 8.216,1.696 11.378,-1.997 3.646,-1.778 9.78,-2.484 12.278,1.262 -0.488,3.517 7.324,5.614 3.974,8.097 -3.965,-2.967 -7.328,1.692 -11.706,1.537 -4.246,0.121 -7.944,2.912 -12.134,0.299 -3.206,-0.802 -8.71,-5.656 -10.444,-0.721 -1.284,4.43 -6.079,-1.794 -8.855,1.243 -4.09,0.175 -7.633,3.355 -11.773,2.22 -4.371,0.234 -7.454,-3.974 -11.72,-3.35 -3.534,1.577 -7.068,3.082 -10.919,3.821 -2.729,2.603 -8.425,3.039 -10.667,-0.235 -0.077,-2.383 -0.497,-6.383 -3.113,-3.64 -1.193,-1.402 -5.847,-6.155 -5.663,-2.527 1.541,2.684 1.577,6.115 2.908,9.004 -2.243,2.167 2.476,4.667 -1.609,5.54 -2.74,2.292 -6.272,3.229 -9.21,4.7 -0.619,-0.301 -1.051,-0.842 -1.492,-1.346 z"/><path id="path198" d="m 1000.096,866.509 c -1.776,-1.56 -2.493,-4.06 -2.354,-6.365 0.04,-1.12 0.5,-2.148 0.996,-3.13 0.328,-0.7 0.484,-1.627 -0.13,-2.227 -0.663,-0.894 -0.116,-2.068 0.57,-2.766 1.148,-1.239 2.844,-1.776 4.492,-1.874 1.196,-0.08 2.524,-0.183 3.586,0.48 0.797,0.487 0.479,1.44 0.396,2.182 -0.037,1.837 0.31,3.692 0.994,5.397 0.215,0.715 1.057,0.968 1.071,1.775 0.424,2.113 0.243,4.276 0.283,6.415 -0.064,0.212 0.156,0.664 -0.17,0.652 -2.295,0.343 -4.597,0.921 -6.93,0.695 a 5.154,5.154 0 0 1 -2.804,-1.234 z"/><path id="path200" d="m 760.667,868.64 c -2.403,-0.94 -4.821,-1.94 -6.956,-3.408 -0.833,-0.718 0.164,-1.95 0.184,-2.871 0.685,-2.4 1.058,-5.008 2.593,-7.054 1.052,-1.309 2.746,-2.055 3.468,-3.64 0.094,-1.704 1.662,-2.87 3.117,-3.472 1.961,-0.75 4.16,-0.103 5.911,0.896 1.475,0.862 2.702,2.237 3.162,3.902 0.108,1.116 -0.936,1.842 -1.582,2.608 l -2.597,2.684 2.117,5.068 c -1.793,2.05 -3.428,4.263 -5.487,6.061 -0.89,0.475 -1.943,-0.223 -2.863,-0.402 a 28.844,28.844 0 0 1 -1.067,-0.373 z"/><path id="path202" d="m 1096.499,870.42 c -1.401,-0.432 -2.23,-1.79 -2.406,-3.186 -0.945,-3.494 -2.104,-6.924 -3.199,-10.372 1.075,-2.116 2.288,-4.19 2.813,-6.533 0.682,-2.116 0.61,-4.372 1.173,-6.509 0.672,-2.094 2.636,-3.31 4.145,-4.777 l 1.15,-1.035 c 2.278,0.809 4.62,1.458 6.833,2.436 1.518,0.698 0.497,2.568 0,3.627 -0.799,1.468 -2.083,2.595 -2.922,4.044 -1.308,2.083 -2.664,4.203 -3.38,6.574 -0.01,1.399 -0.973,2.512 -1.933,3.417 -0.958,1.258 -0.446,2.939 -0.255,4.362 0.391,1.83 1.078,3.616 2.22,5.112 1.058,1.207 -0.447,2.321 -1.229,3.142 -0.873,0.801 -2.085,-0.068 -3.009,-0.302 z"/><path id="path204" d="m 1655.82,875.4 c -2.024,-1.036 -2.468,-3.524 -3.891,-5.114 -1.411,-0.793 -3.225,-0.061 -4.57,0.595 -1.343,0.875 -2.287,2.964 -4.23,2.007 -2.956,-1.032 -5.896,-2.253 -8.52,-3.982 -1.783,-1.139 -2.788,-3.033 -3.977,-4.711 1.031,-0.934 2.654,-1.721 2.499,-3.351 -0.3,-1.72 -0.533,-3.775 0.9,-5.09 2.27,-2.061 5.535,-2.264 8.453,-2.38 1.796,-0.265 3.277,0.99 5.034,0.943 2.224,-0.032 4.821,-0.492 6.168,-2.454 1.379,-1.02 3.237,-0.449 4.818,-0.426 3.781,0.35 8.079,1.18 10.442,4.471 1.936,2.744 2.458,6.175 2.954,9.42 0.15,2.01 -2.53,1.986 -3.393,3.43 -1.211,1.27 -1.544,3.152 -2.972,4.26 -2.564,2.332 -6.364,3.238 -9.714,2.382 z"/><path id="path206" d="m 611.167,891.505 c -2.423,-1.205 -3.322,-3.587 -3.58,-6.082 -0.564,-2.273 -4.035,-3.582 -2.972,-6.128 1.986,-2.153 -0.203,-4.074 -1.997,-5.311 l -2.66,-2.223 c 1.32,-1.958 3.05,-3.703 3.92,-5.912 -1.624,-1.238 -5.228,-0.325 -6.122,-3.222 -1.616,-2.272 -1.44,-4.77 -0.527,-7.174 0.065,-2.057 -0.998,-4.542 0.842,-6.124 1.012,-2.21 -0.268,-6.02 3.316,-6.05 1.884,-0.713 3.393,-2.065 4.946,-3.3 l -2.895,-3.117 c 1.254,-1.294 2.19,-3.551 4.34,-3.21 2.517,0.395 5.265,0.388 7.511,1.699 0.765,2.76 5.259,1.841 5.334,4.903 -0.448,2.582 -4.53,2.799 -4.037,5.856 -0.538,1.617 -2.566,2.976 -0.3,4.366 0.763,0.798 1.53,1.59 2.296,2.386 -0.75,2.798 -1.024,5.828 -2.658,8.292 -2.262,1.643 -0.296,5.344 -2.865,6.865 -0.335,1.715 0.896,3.285 1.45,4.876 0.404,0.724 0.583,1.79 1.128,2.3 2.56,0.134 5.609,-0.601 7.543,1.544 1.984,1.355 2.475,4.16 4.293,5.37 2.406,-0.882 4.617,2.595 4.177,4.35 -2.522,1.987 -5.092,3.987 -7.943,5.48 -1.644,0.144 -3.1,-1.823 -4.822,-0.183 -2.05,0.776 -4.338,3.223 -6.19,0.856 -0.511,-0.365 -1.02,-0.735 -1.528,-1.107 z"/><path id="path208" d="m 786.311,901.151 -1.78,-3.514 c 0.885,-0.632 1.685,-1.431 2.77,-1.714 3.725,-1.205 7.596,-1.891 11.45,-2.54 2.474,-0.358 4.957,-0.772 7.461,-0.792 1.117,-0.186 1.447,1.16 0.716,1.824 a 25.043,25.043 0 0 1 -4.785,4.955 c -0.672,0.508 -1.543,0.621 -2.162,1.23 -1.605,1.188 -3.012,2.88 -5.095,3.189 -1.249,0.12 -2.514,0.019 -3.76,0.224 -0.921,0.022 -1.856,0.604 -2.758,0.222 -0.96,-0.648 -1.349,-1.825 -1.908,-2.79 l -0.073,-0.145 z"/><path id="path210" d="m 1213.86,934.695 c -2.4,-2.72 -5.394,-4.838 -7.842,-7.485 -0.94,-2.492 -2.373,-4.438 -4.914,-5.439 -0.562,-2.538 -1.852,-4.891 -3.425,-7.013 -2.368,-3.357 -4.895,-6.599 -7.346,-9.896 0.058,-8.017 -0.508,-16.016 -1.169,-24 2.286,-1.973 5.51,-3.604 5.734,-6.987 0.584,-3.465 2.106,-6.88 4.552,-9.428 3.03,-1.97 5.22,2.51 4.493,5.037 -0.9,2.625 -2.311,5.038 -3.482,7.549 l 2.938,4.125 c -2.152,6.615 -3.629,13.415 -4.98,20.23 1.913,1.378 3.618,3.082 4.392,5.378 1.057,1.997 1.451,4.523 2.697,6.29 0.966,-1.654 2.33,-4.493 4.401,-2.117 2.173,1.414 1.196,4.24 1.216,6.407 0.031,0.975 -0.522,2.19 0.608,2.713 4.118,3.806 8.837,7.31 11.294,12.49 0.881,2.52 -1.94,6.654 -4.793,5.7 -1.737,-0.78 -3.052,-2.23 -4.373,-3.554 z"/><path id="path212" d="m 1249.333,946.895 c -7.58,-3.122 -14.66,-7.164 -22.17,-9.546 0.894,-11.717 10.196,-0.8 15.942,0.607 5.128,-2.886 11.393,-2.827 16.457,-5.175 5.05,-0.754 9.883,1.19 9.61,5.704 5.864,-7.168 14.726,-1.584 22.465,-2.167 8.56,-0.85 17.74,-1.805 25.315,-5.633 5.016,-6.592 13.587,-7.786 18.55,-13.817 4.59,-7.425 14.648,-7.778 21.32,-12.64 8.372,-1.677 13.035,-12.585 21.233,-12.006 3.93,0.95 8.228,-8.248 2.62,-10.84 -1.137,-3.466 5.865,-8.51 1.284,-10.412 -6.027,-4.742 5.392,-12.817 -3.323,-16.323 -1.026,-6.478 8.678,-6.792 6.269,-14.048 3.52,-3.32 9.594,0.548 9.342,-6.887 8.045,-4.482 0,-9.844 -4.276,-14.456 2.963,-5.1 10.633,-12.794 15.595,-5.808 2.404,4.88 7.745,18.734 13.43,9.104 2.7,-7.953 11.69,-3.68 16.177,-2.243 3.408,-1.024 7.867,2.684 6.03,6.567 1.944,10.967 -12.914,5.235 -14.544,13.073 -2.459,4.537 -7.014,7.295 -10.756,10.671 -4.237,-2.895 -10.916,-0.717 -3.516,3.413 3.3,5.269 -6.592,13.357 3.96,13.562 8.442,-3.798 9.143,8.906 14.662,11.32 1.914,7.555 -4.64,14.831 -12.63,10.113 -7.123,-7.044 -6.348,7.176 -14.624,5.915 -6.976,-1.081 -6.4,10.243 -14.174,9.26 -3.524,5.974 -8.87,4.62 -11.654,-1.229 -6.898,3.257 -13.006,10.546 -21.075,9.998 -5.006,7.11 -13.515,9.892 -20.306,14.982 -5.613,3.475 -9.822,10.237 -16.33,12.95 0.813,10.853 -12.598,2.908 -18.45,5.855 -9.85,-3.42 -20.326,4.632 -29.863,-1.071 -7.528,-3.075 -15.25,4.251 -22.57,1.207 z"/><path id="path214" d="m 1559.382,955.438 c -0.735,-0.988 -1.24,-2.17 -1.375,-3.399 -0.058,-0.852 0.144,-1.86 0.942,-2.322 0.937,-0.556 2.064,-0.48 3.11,-0.549 1.02,-0.137 1.823,-0.931 2.206,-1.853 0.27,-0.456 0.46,-1.01 0.911,-1.322 0.498,-0.164 0.872,0.366 1.228,0.632 0.856,0.656 1.356,1.675 1.491,2.73 0.152,1.18 0.117,2.383 -0.027,3.562 a 3.101,3.101 0 0 1 -1.352,2.223 16.824,16.824 0 0 1 -3.312,1.71 c -0.817,0.32 -1.82,0.418 -2.562,-0.137 -0.496,-0.342 -0.889,-0.808 -1.26,-1.275 z"/><path id="path216" d="m 1580.535,974.742 c -0.87,-0.303 -1.128,-1.318 -1.352,-2.11 -0.26,-1.232 -0.504,-2.504 -0.36,-3.765 0.108,-0.958 0.862,-1.61 1.406,-2.332 0.895,-1.355 1.22,-2.982 1.297,-4.58 l 0.14,-1.76 8.532,-0.402 c -0.61,0.969 -1.301,1.892 -1.83,2.91 -0.361,0.7 0.23,1.362 0.685,1.842 1.016,1.008 2.002,2.194 2.171,3.67 0.26,2.071 -0.868,3.976 -2.036,5.591 -0.494,0.753 -1.323,1.251 -2.23,1.275 -1.98,0.097 -3.97,-0.015 -5.937,-0.248 a 4.886,4.886 0 0 1 -0.486,-0.091 z"/><path id="path218" d="m 200.956,974.924 c -0.349,-1.362 -0.07,-3.07 1.16,-3.907 0.527,-0.372 1.197,-0.324 1.791,-0.185 1.222,0 2.214,-0.847 3.156,-1.52 2.263,-1.76 4.295,-3.84 6.79,-5.286 0.687,-0.502 1.305,0.346 1.522,0.931 0.385,0.965 0.65,2.118 0.193,3.102 -1.109,1.604 -2.332,3.129 -3.594,4.615 -0.792,0.929 -1.824,1.782 -3.1,1.84 -1.189,0.042 -2.387,0.115 -3.53,0.478 -1.188,0.256 -2.104,1.162 -3.286,1.42 -0.811,0.102 -0.926,-0.932 -1.102,-1.488 z"/><path id="path220" d="m 760.414,1017.284 c -1.462,-1.723 -0.893,-4.108 -1.45,-6.135 -0.416,-1.254 -0.47,-3.286 -1.649,-3.896 -1.131,1.541 -0.807,3.712 -1.936,5.233 -1.456,0.79 -3.305,0.623 -4.89,0.33 -1.376,-0.317 -3.239,-1.347 -2.899,-3.022 1.474,-3.068 0.842,-6.575 1.258,-9.85 0.137,-1.568 1.063,-2.913 1.097,-4.517 0.619,-4.548 0.375,-9.267 1.855,-13.662 0.513,-1.26 1.649,-3.014 3.227,-2.566 1.618,1.078 0.33,3.681 2.27,4.599 1.475,1.264 3.21,-0.15 4.856,0.26 1.346,0.21 3.3,0.677 3.286,2.376 0.49,1.77 2.19,2.97 2.334,4.87 0.487,4.345 0.198,8.79 -0.768,13.052 -0.993,3.422 -1.353,6.976 -1.753,10.502 -0.073,1.803 -1.748,2.825 -3.31,3.25 -0.655,0.16 -1.136,-0.399 -1.528,-0.824 z"/><path id="path222" d="m 1109.31,1028.806 c -0.494,-1.204 -1.02,-2.41 -1.303,-3.685 0.019,-1.168 0.423,-2.288 0.771,-3.391 0.519,-1.448 1.048,-2.919 1.9,-4.21 0.34,-0.64 1.045,-0.097 1.482,0.125 1.179,0.737 2.346,1.58 3.163,2.723 0.885,1.326 0.775,3.034 0.406,4.514 -0.55,2.068 -1.47,4.062 -2.793,5.751 -0.462,0.53 -0.984,1.16 -1.73,1.228 -0.54,-0.278 -0.78,-0.92 -1.099,-1.411 a 18.714,18.714 0 0 1 -0.797,-1.644 z"/><path id="path224" d="m 744.617,1036.282 c -1.977,-2.035 -4.734,-3.207 -7.504,-3.673 -2.453,-0.037 -4.825,-0.758 -7.09,-1.651 -1.75,-0.62 -3.584,-1.01 -5.443,-0.977 -3.332,-0.404 -6.642,-1.113 -9.828,-2.173 -1.424,-0.246 -1.816,-1.925 -0.932,-2.946 0.625,-0.977 2.108,-1.339 2.198,-2.66 1.057,-0.876 2.667,-0.486 3.967,-0.6 2.931,0.045 5.86,0.162 8.79,0.243 3.059,2.648 6.048,5.402 9.473,7.581 2.825,1.934 6.153,3.176 8.6,5.631 1.65,0.835 0.066,3.232 -1.297,2.166 -0.347,-0.276 -0.642,-0.61 -0.934,-0.941 z"/><path id="path226" d="m 1278.843,1041.434 c -1.223,-0.561 -2.222,-1.606 -2.642,-2.894 -0.64,-1.848 -0.498,-3.864 -0.178,-5.761 0.304,-1.509 0.713,-3.073 1.691,-4.297 0.399,-0.386 0.902,-1.001 1.524,-0.763 0.808,0.44 1.329,1.242 1.93,1.914 1.068,1.34 2.367,2.655 2.648,4.417 0.269,1.786 0.164,3.6 0.175,5.4 -0.04,0.865 0.03,1.773 -0.293,2.594 -0.3,0.6 -1.087,0.48 -1.64,0.43 -1.115,-0.18 -2.197,-0.555 -3.215,-1.04 z"/><path id="path228" d="m 759.42,1042.13 c -1.4,-0.34 -2.815,-0.723 -4.08,-1.431 -0.31,-0.21 -0.783,-0.446 -0.753,-0.883 0.172,-0.37 0.667,-0.327 1.008,-0.439 1.249,-0.236 2.51,-0.442 3.78,-0.495 0.617,-0.023 1.328,0.08 1.718,0.614 0.27,0.364 0.441,0.806 0.816,1.085 0.452,0.392 1.039,0.649 1.644,0.62 0.418,0.033 0.966,0.161 1.091,0.623 0.05,0.46 -0.44,0.72 -0.81,0.847 -0.645,0.118 -1.305,-0.013 -1.949,-0.082 a 28.855,28.855 0 0 1 -2.464,-0.46 z"/><path id="path230" d="m 1466.669,1064.034 c -2.718,-0.419 -4.739,-2.388 -6.917,-3.87 -1.71,-1.268 -3.888,-0.745 -5.814,-1.185 -1.308,-0.969 -1.224,-3.044 -2.693,-4.026 -1.36,-1.137 -2.873,-2.324 -3.178,-4.193 -0.576,-2.744 -1.24,-5.55 -1.033,-8.372 0.308,-2.415 2.678,-4.037 4.908,-4.505 2.413,-0.345 4.247,-2.183 6.267,-3.4 2.641,-1.751 5.976,-2.293 9.041,-1.503 a 15.882,15.882 0 0 1 8.545,5.114 c 1.15,1.435 2.933,1.637 4.473,2.34 2.205,1.316 4.399,3.846 3.597,6.588 -0.729,2.6 -3.584,3.805 -4.388,6.377 -0.517,1.69 -0.736,3.507 -1.765,5.004 -1.581,2.507 -3.735,4.91 -6.606,5.899 -1.462,0.339 -2.965,-0.192 -4.437,-0.268 z"/><path id="path232" d="m 1051.882,1086.199 c -1.346,-0.782 -2.813,-1.646 -3.566,-3.057 -0.239,-1.442 -1.891,-1.3 -2.98,-1.116 -1.42,0.456 -2.697,-0.392 -2.932,-1.838 -1.594,-2.551 -4.478,-3.75 -6.753,-5.566 -0.982,-0.816 -2.227,-1.467 -2.818,-2.637 -0.05,-1.337 0.63,-2.756 1.58,-3.69 1.236,-0.935 2.744,0.185 3.67,1.039 1.342,1.248 2.553,3.02 4.563,3.119 2.103,0.235 4.591,-0.345 6.258,1.325 1.58,1.768 3.545,3.235 5.847,3.903 3.709,1.122 7.605,1.31 11.424,1.85 0.377,0.145 0.128,0.89 0.262,1.267 0.116,1.816 0.54,3.906 -0.7,5.433 -1.453,1.396 -3.606,0.732 -5.41,0.916 -2.055,-0.03 -4.142,0.825 -6.15,0.07 -0.797,-0.26 -1.554,-0.629 -2.295,-1.018 z"/><path id="path234" d="m 1116.58,1099.148 c -0.538,-1.327 -2.017,-1.119 -3.053,-0.588 -1.238,0.458 -2.435,-0.185 -3.536,-0.681 -2.15,-0.714 -4.434,-0.615 -6.663,-0.743 -0.963,0.116 -1.394,-0.65 -0.974,-1.445 -0.693,-0.948 -2.258,0.145 -3.187,-0.637 -1.251,-0.818 -1.14,-2.53 -0.942,-3.832 0.22,-1.154 0.495,-2.595 1.674,-3.132 1.093,-0.373 1.851,0.715 2.716,1.143 2.013,0.762 4.222,0.573 6.334,0.631 1.46,0.068 3.009,-0.078 4.378,0.516 0.562,0.983 1.612,1.398 2.754,1.26 2.891,0.028 5.78,-0.524 8.668,-0.218 1.236,-0.013 1.79,1.27 1.36,2.311 -0.439,1.464 -0.795,3.04 -1.764,4.258 -1.17,1.172 -2.897,1.436 -4.39,2.01 -0.963,0.322 -2.387,0.88 -3.007,-0.31 -0.127,-0.178 -0.247,-0.36 -0.368,-0.543 z"/><path id="path236" d="m 1250.667,1112.825 c -4.387,-1.111 -9.155,-0.468 -13.204,-2.815 -3.268,-1.286 -7.447,-0.326 -10.023,-3.223 -1.887,-2.986 -7.207,-0.307 -7.284,2.827 -4.307,-0.311 -8.384,2.66 -12.586,1.496 -3.64,-2.019 -7.605,-0.524 -11.415,-0.267 -2.658,-1.662 -5.513,-2.663 -8.535,-1.075 -1.34,0.699 -2.502,0.566 -3.425,-0.685 -2.55,-2.157 -5.147,-4.804 -8.727,-4.785 -3.932,-0.441 -1.48,-3.91 -0.642,-6.027 1.346,-1.804 -1.223,-0.88 -2.304,-0.992 -4.177,0.902 -6.692,-3.157 -7.746,-6.559 0.278,-3.075 -1.802,-7.176 1.642,-9.362 2.818,-2.265 7.73,0.143 5.404,3.815 2.752,2.292 4.895,5.232 6.304,8.548 2.032,4.011 5.54,8.368 10.53,7.922 2.82,-2.965 7.693,-2.975 10.467,-6.188 2.225,-1.635 8.743,-2.656 8.611,1.23 -3.174,3.122 -0.68,7.797 3.668,6.51 3.568,-0.28 7.242,2.499 9.558,-1.407 4.451,-2.278 8.82,1.308 12.907,2.73 3.789,1.068 7.829,0.706 11.67,1.632 2.14,0.386 4.277,0.783 6.416,1.174 3.768,-3.07 7.887,-6.865 13.049,-6.522 4.024,2.048 0.027,6.978 -2.492,8.742 -3.14,3.118 -7.505,4.595 -11.843,3.281 z"/></g><g id="Roads"><path id="path1866" d="m 1705.5,499.5 c -0.25,16.75 0,39.75 2,67 2.09,27.91 6.1,81.59 23,136 26.38,85 54.87,77.37 70,151 5.09,24.77 10.51,67.68 -3,116 -5.38,19.25 -12,41.86 -31,62 -19.18,20.3 -43.28,29.94 -81,38 -66.17,14.14 -112.64,10.26 -205,9 -61.2,-0.84 -43.87,0.83 -109,0 -89.43,-1.14 -101.17,-4 -224,-8 -99.77,-3.23 -107.91,-1.83 -142,-7 -35.81,-5.43 -50.86,-10.6 -129,-29 -99.16,-23.35 -90.09,-18.58 -134,-30 -88.9,-23.12 -82.79,-31.39 -210,-70 -77.12,-23.4 -100.43,-26.76 -140,-42 a 179.16,179.16 0 0 0 -30,-9 c -23.4,-4.8 -39.85,-3.18 -74,0 -70,6.52 -85,7.52 -105,7 a 435.7,435.7 0 0 1 -41,-3" class="cls-5" transform="translate(-23.5 -7.5)"/><path id="path1868" d="m 1248.384,801.692 c -4,0.38 -10.834,-0.462 -15.384,-3.692 -5.24,-3.72 -6.31,-9.44 -8,-14 -4.78,-12.89 -13.53,-13.76 -26,-27 -18.16,-19.28 -11,-29.56 -24,-37 -16.67,-9.56 -40.25,0.65 -48,4 -18.75,8.11 -17.93,15.85 -32,19 -18.16,4.06 -40,-4.25 -51,-19 -8.54,-11.46 -2.84,-16.49 -11,-28 -17.13,-24.17 -56.55,-22.16 -59,-22 -13.69,0.88 -12.66,4.46 -32,7 -12.16,1.59 -23.94,1.08 -47,0 -30.55,-1.44 -40.57,-3.41 -48,4 -4.44,4.43 -4.56,8.84 -11,13 -8.08,5.23 -17.21,4.32 -21,4 0,0 -25.3,-2.17 -64,2 -21.67,2.33 -37,10.45 -55,20 -23.62,12.52 -32.67,23.12 -59,31 -15.86,4.74 -23.23,4.09 -29,2 -11.4,-4.12 -10.91,-11.77 -26,-28 -19.43,-20.9 -32.74,-21.66 -45,-35 -1.69,-1.84 -6.69,-7.53 -15,-10 a 27.91,27.91 0 0 0 -5,-1 230.13,230.13 0 0 0 -49,0 c -12.46,1.62 -36.74,4.78 -63,-1 -16.33,-3.6 -33.82,-7.45 -46,-22 -8.05,-9.63 -7.56,-16.49 -19,-27 -5.14,-4.72 -13.35,-12.26 -26,-14 -10.39,-1.43 -25.26,0.84 -33,11 -2.44,3.2 -3.45,6.24 -6,20 a 658.776,658.776 0 0 0 -5,31" class="cls-5" transform="translate(-23.5 -7.5)"/><path id="path1870" d="m 926,442 c -8.42,0.84 -20.88,2 -36,3 -27,1.8 -55.47,3.63 -92,2 -32.76,-1.46 -24.59,-3.57 -57,-5 -25.4,-1.12 -36.62,-0.11 -50,-8 -13.61,-8 -11.4,-14.6 -24,-22 -16.93,-9.95 -41.64,-10.25 -60,0 -19.33,10.8 -25.71,30 -34,55 -7.36,22.17 -7.86,36.56 -11,63 -5.35,45 -9.53,67.73 -14,84 -6.6,24 -14.22,41.22 -23,61 a 541.12,541.12 0 0 1 -38,72 c -18.83,29.83 -25.72,33.9 -41,61 -7.85,13.93 -19.85,28.61 -23,49 a 74.63,74.63 0 0 0 1,30 c 1.361,5.551 5.92,14.445 8.544,19.523" class="cls-5" transform="translate(-23.5 -7.5)"/><path id="path1872" d="m 145,461 a 238.9,238.9 0 0 0 -5,26 c -1.1,8.15 -1.78,16.3 -2,42 -0.31,35.6 -0.39,53.62 3,65 2.05,6.89 4.29,11.93 6,22 a 118.43,118.43 0 0 1 1,32 c -2.79,29.81 -5.23,69.29 -6,89 -1.51,38.65 2.07,34.33 0,67 -0.49,7.76 -1.25,16.84 1,29 1.58,8.5 4.64,24 17,38 6.395,7.21 21.08,15.742 29.85,19.74" class="cls-5" transform="translate(-23.5 -7.5)"/><path id="path1874" d="m 40,649 c 5,0.68 12.66,1.56 22,2 11.56,0.55 20.16,0.16 24,0 11.91,-0.49 30.21,-1 60,-1" class="cls-5" transform="translate(-23.5 -7.5)"/><path id="path1876" d="m 147,681 c 18.65,1.32 34.31,1.82 46,2 10.54,0.16 17.75,0.28 28,0 19.74,-0.53 26.9,-1.87 41,-1 a 169.17,169.17 0 0 1 23,3" class="cls-5" transform="translate(-23.5 -7.5)"/><path id="path1878" d="m 1797.187,838.915 c 3.47,7.82 13.813,33.465 18.813,46.085 9.16,23.12 15.13,41.21 19,53 3.4,10.35 7.56,23.54 12,39" class="cls-5" transform="translate(-23.5 -7.5)"/><path id="path1880" d="m 796.786,1017.322 c 3.1,-5.2 8.644,-13.872 12.214,-19.322 6.22,-9.49 6.85,-13.61 11,-16 6.06,-3.49 13.24,-1.09 20,1 17.76,5.5 36.17,8.72 54,14 26.89,8 29.84,8.28 35,13 10.27,9.38 16.63,24.6 18,28 0.74,1.85 0.13,0.5 4,12 7.37,21.89 9.16,25.47 12,29 2.43,3 1.3,0.63 14,11 5.38,4.4 11.33,9.66 23,20 l 9,8" class="cls-5" transform="translate(-23.5 -7.5)"/></g><g id="Buildings"><g id="Small_Buildings" data-name="Small Buildings"><path id="rect2043" d="m 284,1027 h 16 v 22 h -16 z" class="cls-7"/><path id="rect2045" d="m 355.5,1047.5 h 14 v 11 h -14 z" class="cls-7" transform="rotate(-25.61 334.272 1100.977)"/><path id="rect2047" d="m 243,861 h 14 v 11 h -14 z" class="cls-7"/><path id="rect2049" d="m 357.5,622.5 h 19 v 13 h -19 z" class="cls-7" transform="rotate(-56.24 348.178 647.207)"/><path id="rect2051" d="m 274,659 h 22 v 33 h -22 z" class="cls-7"/><path id="rect2053" d="m 241,694 h 16 v 23 h -16 z" class="cls-7"/><path id="rect2055" d="m 193,688 h 24 v 17 h -24 z" class="cls-7"/><path id="rect2057" d="m 220,631 h 17 v 30 h -17 z" class="cls-7"/><path id="rect2059" d="m 178,641 h 20 v 20 h -20 z" class="cls-7"/><path id="rect2061" d="m 67,656 h 18 v 15 H 67 Z" class="cls-7"/><path id="rect2063" d="m 67,685 h 18 v 20 H 67 Z" class="cls-7"/><path id="rect2065" d="m 25,675 h 23 v 26 H 25 Z" class="cls-7"/><path id="rect2067" d="m 42,616 h 31 v 18 H 42 Z" class="cls-7"/><path id="rect2069" d="m 53,569 h 20 v 27 H 53 Z" class="cls-7"/><path id="rect2071" d="m 119.5,661.5 h 11 v 22 h -11 z" class="cls-7" transform="rotate(-34.74 101.264 706.323)"/><path id="rect2073" d="m 112.5,625.5 h 20 v 11 h -20 z" class="cls-7" transform="rotate(-39.9 100.443 659.657)"/><path id="rect2075" d="m 416,559 h 25 v 11 h -25 z" class="cls-7"/><path id="rect2077" d="m 228,420 h 18 v 26 h -18 z" class="cls-7"/><path id="rect2079" d="m 250.5,264.5 h 26 v 15 h -26 z" class="cls-7" transform="rotate(-8.98 203.976 417.838)"/><path id="rect2081" d="m 216,310 h 18 v 12 h -18 z" class="cls-7"/><path id="rect2083" d="m 208,335 h 20 v 12 h -20 z" class="cls-7"/><path id="rect2085" d="m 178,301 h 18 v 25 h -18 z" class="cls-7"/><path id="rect2087" d="m 189,353 h 12 v 18 h -12 z" class="cls-7"/><path id="rect2089" d="m 178,378 h 23 v 15 h -23 z" class="cls-7"/><path id="rect2091" d="m 144,382 h 22 v 15 h -22 z" class="cls-7"/><path id="rect2093" d="m 144,343 h 17 v 23 h -17 z" class="cls-7"/><path id="rect2095" d="m 139,316 h 24 v 14 h -24 z" class="cls-7"/><path id="rect2097" d="m 130.5,334.5 h 21 v 13 h -21 z" class="cls-7" transform="rotate(-79.92 124.788 351.28)"/><path id="rect2099" d="m 105.5,432.5 h 19 v 27 h -19 z" class="cls-7" transform="rotate(-8.98 55.459 591.774)"/><path id="rect2101" d="m 882,410 h 13 v 10 h -13 z" class="cls-7"/><path id="rect2103" d="m 950,411 h 12 v 9 h -12 z" class="cls-7"/><path id="rect2105" d="m 1047.5,1128.5 h 13 v 25 h -13 z" class="cls-7" transform="rotate(-50.64 1034.176 1162.026)"/><path id="rect2107" d="m 1240,1005 h 21 v 13 h -21 z" class="cls-7"/><path id="rect2109" d="m 1513.5,816.5 h 25 v 14 h -25 z" class="cls-7" transform="rotate(-7.33 1455.456 1003.06)"/><path id="rect2111" d="m 1222.5,255.5 h 27 v 13 h -27 z" class="cls-7" transform="rotate(-19.52 1202.508 326.557)"/><path id="rect2113" d="m 808.5,108.5 h 16 v 16 h -16 z" class="cls-7" transform="rotate(-79.64 800.26 126.835)"/><path id="rect2115" d="m 1050,338 h 21 v 14 h -21 z" class="cls-7"/><path id="rect2117" d="m 778,344 h 11 v 13 h -11 z" class="cls-7"/><path id="rect2119" d="m 752,463 h 20 v 29 h -20 z" class="cls-7"/></g><g id="Medium_Buildings" data-name="Medium Buildings"><path id="rect2138" d="m 1233.063,782.692 h 27 v 21 h -27 z" class="cls-7"/><path id="rect2156" d="m 411,635 h 25 v 23 h -25 z" class="cls-7"/><path id="rect2158" d="m 467,619 h 24 v 24 h -24 z" class="cls-7"/><path id="rect2160" d="m 879,718 h 39 v 24 h -39 z" class="cls-7"/><path id="rect2162" d="m 905,742 h 13 v 13 h -13 z" class="cls-7"/><path id="rect2164" d="m 855.5,961.5 h 20 v 32 h -20 z" class="cls-7" transform="rotate(-74.4 848.866 989.24)"/><path id="rect2166" d="m 1019.5,1094.5 h 16 v 38 h -16 z" class="cls-7" transform="rotate(-50.64 1007.686 1134.528)"/><path id="rect2168" d="m 259,349 h 44 v 29 h -44 z" class="cls-7"/></g><g id="Large_Buildings" data-name="Large Buildings"><path id="rect2201" d="m 886,299 h 65 v 37 h -65 z" class="cls-7"/><path id="rect2203" d="m 886,334 h 11 v 23 h -11 z" class="cls-7"/><path id="rect2205" d="m 938,335 h 13 v 23 h -13 z" class="cls-7"/><path id="rect2207" d="m 856,357 h 41 v 28 h -41 z" class="cls-7"/><path id="rect2209" d="M 773.17,372.22 H 857 V 403 h -83.83 z" class="cls-7"/><path id="rect2211" d="m 978,367 h 89 v 36 h -89 z" class="cls-7"/><path id="rect2213" d="m 938,357 h 41 v 28 h -41 z" class="cls-7"/></g></g></svg>
