<svg id="Ground_Level" data-name="Ground Level" xmlns="http://www.w3.org/2000/svg" viewBox="0 0 1893 1248"><defs><style>.cls-1{fill:#0c343d;}.cls-2{fill:#0056aa;}.cls-3{fill:#0c3450;}.cls-4{fill:#bdbdbd;}.cls-5,.cls-6{fill:none;stroke:#bdbdbd;stroke-miterlimit:10;}.cls-5{stroke-width:7px;}.cls-6{stroke-width:5px;}.cls-7{fill:#cbffff;}</style></defs><g id="Base_Terrain" data-name="Base Terrain"><path id="Ground" class="cls-1" d="M171.5,933.5l-13-14,20-15h-33l-7-46-30-19-48-14-22-59v-140l7-67-22-105,6-143,11-51,60.5-56,77.5-40,66-27h70l71-16,73-63,82-45,64-6h41l41,18,46,9,28-4,44,23,43-9,38,4,28,3,56-5,44,6,14,13,17-10,20-7,16-11,19,11,13-8v-20l15-8,41,4,16,3,12-12h52l60,12,6,117,22,78,42,49,8,52-10,35,17,29,51,46,69,32,19-2,32,24,25,26,97-3,24-4,6-34,42,14v46l16,37,10,33-12,29,5,28,24,27,21,11,9,23-5,40,15,22v26l27,15,15,36,27,24v258h-658l-2-40-81-10-40,6-100-9-52-11,3,9,24,16,19-5,33,26,25,23-1,15,11,12,24-9,48,9h22l33,46-6,16.5h-25l-1-14.5-18-13-31,10-30-18-22,24-22-19-45-39-33-21-4-18-40-39h-26l-13,7-1,30-14-2,1-29-31-4-4,31-18-5,7-32-28,8-34-19-30-7-14-20-9,34-11-5,8-34-46-11-5,40-18-3,6-42-89-40v-12l-7-4-8,9-39-12-45-18-55,5-37-11,10,67,12,7v22l-14,20,3,29-5,7-27-15-22-5-22,5-7,15-11-7-2-22,8-12-8-13,4-17,15-3,23,2h21l5-9,4-7-6-63-1-11-20-7s-2,34-3,34-9-2-9-2l3-33-21-1-11-7-16,11-33,14s-32,8-33,8-26-12-26-12Z" transform="translate(-23.5 -7.5)"/><polygon id="Pier" class="cls-1" points="1887 1220.5 1887 1126 1597 1126 1599 1220.5 1887 1220.5"/><polygon id="Ocean" class="cls-2" points="1164 1220.5 1163 1206 1145 1193 1114 1203 1084 1185 1062 1209 1004.38 1163.48 962 1130 958 1112 918 1073 892 1073 879 1080 878 1110 864 1108 865 1079 834 1075 830 1106 812 1101 819 1069 791 1077 757 1058 727 1051 713 1031 704 1065 693 1060 701 1026 655 1015 650 1055 632 1052 638 1010 549 970 549 958 542 954 534 963 450 933 395 938 358 927 368 994 380 1001 380 1023 366 1043 369 1072 364 1079 337 1064 315 1059 293 1064 286 1079 275 1072 273 1050 281 1038 273 1025 277 1008 292 1005 315 1007 336 1007 345 991 338 917 318 910 315 944 306 942 309 909 288 908 277 901 261 912 195 934 169 922 148 926 120 925 87 926 72 962 89 1018 150 1078 293 1114 608 1168 831 1191 982 1215 1164 1220.5"/><polyline id="Ocean-2" data-name="Ocean" class="cls-2" points="1164 1220.5 982 1215 1025 1243 1124 1248 1189 1245 1431 1239 1493 1229 1570 1224 1597 1220"/><polyline id="Ocean-3" data-name="Ocean" class="cls-2" points="995 1151 1062 1209 962 1130"/><polyline id="Ocean-4" data-name="Ocean" class="cls-2" points="1597 1126 1599 1220.5 1189 1220.5 1195 1204 1162 1158 1140 1158 1092 1149 1068 1158 1057 1146 1058 1131 1000 1082 981 1087 957 1071 954 1062 1106 1082 1146 1076 1227 1086 1229 1126 1597 1126 1599 1198"/><path id="River" class="cls-2" d="M886.5,531.5h-12v73l2,33,3,47,1,20.67V750.5l2,66,4,50.22,4,35.78,13,30,19,24,17,29,6,15,17,49,15,20,26.18,3.44-9.18-23.44-13-40s-19-16-19-17-11-14-11-14l-21-34-11-13-13-23-5-30-3-45-2-46-4-52v-35l-2-33L887.39,631l-1.89-35.5v-33Z" transform="translate(-23.5 -7.5)"/><polygon id="Cottage_Lake_2" data-name="Cottage Lake 2" class="cls-2" points="332 729 347 726 371 724 399 735 415 743 424 737 424 725.33 401 714 387 706 393 698 414 700 437 710 454 713 456 725 452 731 456 738 451 746 443 745 430 754 417 759 410.33 759 406 765 397 763 387 757 379 749 369 751 357 760 344 760 338 752 332 746.67 332 729"/><polygon id="Cottage_Lake_1" data-name="Cottage Lake 1" class="cls-2" points="489 737 498.67 737 498.67 745.33 489 762.33 479 774 474 785 472 800 462 810 453 806 445 797 445 783.67 456 769 464 765 465 762 460 755 466 747 473 748 489 737"/><polyline id="Road_Lake" data-name="Road Lake" class="cls-2" points="548 907.33 557 901.33 561 905.33 561 914 568 918.33 568 926.67 558 927.67 550 925.33 548 914.5 548 909"/><polygon id="Swamp" class="cls-3" points="280 240 213 231 103 271 64 309 59 355 68 382 61 422 44 486 41 545 64 554 95.67 554 126 531 162 483 177 441 188 425 227 418 264 406 297 403 316 404 333 390 333 375 326 364 320 340 336 305 346 267 344 244 330 226 308 228 280 240"/><polyline id="East_River" data-name="East River" class="cls-2" points="1733 453 1733.15 454.32 1735 471 1735 517 1761 587 1749 616 1754 644 1778 671 1799 682 1808 705 1803 745 1818 767 1818 793 1845 808 1860 844 1887 868 1892 872 1893 846 1893 814.11 1876 771 1861 728 1851 680 1835 657 1813 631.67 1804 580 1803 551 1787 514 1777 485 1777 457 1773 450"/><polygon id="North_River" data-name="North River" class="cls-2" points="830 224 842.33 224 840 187 833 169 832 137 833 122 830 102.56 833 83 830 59.44 842.33 38.93 824 37 813 50 810 65 812 91 818 114 818.78 130.5 819 153 820 172 826.17 186.11 830 224"/></g><g id="Pavement"><polygon class="cls-4" points="810 941 885 958 917 997 903 1018 807 997 787 981 810 941"/><polygon class="cls-4" points="822 1034 841 1040 838 1052 818 1046 822 1034"/><polygon class="cls-4" points="966 1117 1055 1194 1075.67 1169.5 1052 1147 1053 1141.25 994 1088 966 1117"/><polygon class="cls-4" points="1234 1123 1234 1081.67 1540 1087 1540 1124.33 1234 1123"/><polygon class="cls-4" points="1604 1112 1604 1215 1882.33 1215 1882 959 1836 964 1796 981 1772 1049 1686 1092 1604 1099.33 1604 1112"/><polygon class="cls-4" points="1186 797 1223.33 797 1223.33 780.33 1260.67 780.33 1262 843 1184 843 1186 797"/><rect class="cls-4" x="829" y="695" width="23.67" height="46.67"/><polygon class="cls-4" points="874 695 874.77 720.01 876 760 921 761 921 693.67 874 695"/><polygon class="cls-4" points="852.67 718.33 852.67 730.33 875.09 730.33 874.77 720.01 852.67 718.33"/><polygon class="cls-4" points="1489 599 1503.33 599 1503.33 618.67 1487 618.67 1487 599 1489 599"/><rect class="cls-4" x="682" y="460" width="106.33" height="49"/><polygon class="cls-4" points="534 610.25 573 630 544 694 505 673 534 610.25"/><rect class="cls-4" x="815" y="125" width="22.33" height="12.33"/><polygon class="cls-4" points="824 227 848.67 227 848.67 249 826.17 250.33 824 227"/><polygon class="cls-4" points="842.33 179.33 859.33 179.33 859.33 202.33 842.33 201 842.33 179.33"/><polygon class="cls-4" points="338.76 925.05 347 1005 368 1003 357 923 338.76 925.05"/><rect class="cls-4" x="841" y="484" width="33" height="40"/><rect class="cls-4" x="762" y="372" width="309" height="43"/><rect class="cls-4" x="903" y="415" width="35" height="35"/></g><g id="Roads"><path class="cls-5" d="M1705.5,499.5c-.25,16.75,0,39.75,2,67,2.09,27.91,6.1,81.59,23,136,26.38,85,54.87,77.37,70,151,5.09,24.77,10.51,67.68-3,116-5.38,19.25-12,41.86-31,62-19.18,20.3-43.28,29.94-81,38-66.17,14.14-112.64,10.26-205,9-61.2-.84-43.87.83-109,0-89.43-1.14-101.17-4-224-8-99.77-3.23-107.91-1.83-142-7-35.81-5.43-50.86-10.6-129-29-99.16-23.35-90.09-18.58-134-30-88.9-23.12-82.79-31.39-210-70-77.12-23.4-100.43-26.76-140-42a179.16,179.16,0,0,0-30-9c-23.4-4.8-39.85-3.18-74,0-70,6.52-85,7.52-105,7-17.68-.46-32-1.91-41-3" transform="translate(-23.5 -7.5)"/><path class="cls-6" d="M1247,801c-4,.38-9.45.23-14-3-5.24-3.72-6.31-9.44-8-14-4.78-12.89-13.53-13.76-26-27-18.16-19.28-11-29.56-24-37-16.67-9.56-40.25.65-48,4-18.75,8.11-17.93,15.85-32,19-18.16,4.06-40-4.25-51-19-8.54-11.46-2.84-16.49-11-28-17.13-24.17-56.55-22.16-59-22-13.69.88-12.66,4.46-32,7-12.16,1.59-23.94,1.08-47,0-30.55-1.44-40.57-3.41-48,4-4.44,4.43-4.56,8.84-11,13-8.08,5.23-17.21,4.32-21,4,0,0-25.3-2.17-64,2-21.67,2.33-37,10.45-55,20-23.62,12.52-32.67,23.12-59,31-15.86,4.74-23.23,4.09-29,2-11.4-4.12-10.91-11.77-26-28-19.43-20.9-32.74-21.66-45-35-1.69-1.84-6.69-7.53-15-10a27.91,27.91,0,0,0-5-1,230.13,230.13,0,0,0-49,0c-12.46,1.62-36.74,4.78-63-1-16.33-3.6-33.82-7.45-46-22-8.05-9.63-7.56-16.49-19-27-5.14-4.72-13.35-12.26-26-14-10.39-1.43-25.26.84-33,11-2.44,3.2-3.45,6.24-6,20-2.35,12.64-3.94,23.27-5,31" transform="translate(-23.5 -7.5)"/><path class="cls-5" d="M926,442c-8.42.84-20.88,2-36,3-27,1.8-55.47,3.63-92,2-32.76-1.46-24.59-3.57-57-5-25.4-1.12-36.62-.11-50-8-13.61-8-11.4-14.6-24-22-16.93-9.95-41.64-10.25-60,0-19.33,10.8-25.71,30-34,55-7.36,22.17-7.86,36.56-11,63-5.35,45-9.53,67.73-14,84-6.6,24-14.22,41.22-23,61a541.12,541.12,0,0,1-38,72c-18.83,29.83-25.72,33.9-41,61-7.85,13.93-19.85,28.61-23,49a74.63,74.63,0,0,0,1,30,72.4,72.4,0,0,0,6,16" transform="translate(-23.5 -7.5)"/><path class="cls-5" d="M145,461a238.9,238.9,0,0,0-5,26c-1.1,8.15-1.78,16.3-2,42-.31,35.6-.39,53.62,3,65,2.05,6.89,4.29,11.93,6,22a118.43,118.43,0,0,1,1,32c-2.79,29.81-5.23,69.29-6,89-1.51,38.65,2.07,34.33,0,67-.49,7.76-1.25,16.84,1,29,1.58,8.5,4.64,24,17,38a69,69,0,0,0,23,17" transform="translate(-23.5 -7.5)"/><path class="cls-5" d="M40,649c5,.68,12.66,1.56,22,2,11.56.55,20.16.16,24,0,11.91-.49,30.21-1,60-1" transform="translate(-23.5 -7.5)"/><path class="cls-5" d="M147,681c18.65,1.32,34.31,1.82,46,2,10.54.16,17.75.28,28,0,19.74-.53,26.9-1.87,41-1a169.17,169.17,0,0,1,23,3" transform="translate(-23.5 -7.5)"/><path class="cls-5" d="M1803,854c3.47,7.82,8,18.38,13,31,9.16,23.12,15.13,41.21,19,53,3.4,10.35,7.56,23.54,12,39" transform="translate(-23.5 -7.5)"/><path class="cls-5" d="M799,1014c3.1-5.2,6.43-10.55,10-16,6.22-9.49,6.85-13.61,11-16,6.06-3.49,13.24-1.09,20,1,17.76,5.5,36.17,8.72,54,14,26.89,8,29.84,8.28,35,13,10.27,9.38,16.63,24.6,18,28,.74,1.85.13.5,4,12,7.37,21.89,9.16,25.47,12,29,2.43,3,1.3.63,14,11,5.38,4.4,11.33,9.66,23,20l9,8" transform="translate(-23.5 -7.5)"/></g><g id="Buildings"><g id="Small_Buildings" data-name="Small Buildings"><rect class="cls-7" x="284" y="1027" width="16" height="22"/><rect class="cls-7" x="355.5" y="1047.5" width="14" height="11" transform="translate(-443.05 252.65) rotate(-25.61)"/><rect class="cls-7" x="243" y="861" width="14" height="11"/><rect class="cls-7" x="357.5" y="622.5" width="19" height="13" transform="translate(-383.38 577.01) rotate(-56.24)"/><rect class="cls-7" x="274" y="659" width="22" height="33"/><rect class="cls-7" x="241" y="694" width="16" height="23"/><rect class="cls-7" x="193" y="688" width="24" height="17"/><rect class="cls-7" x="220" y="631" width="17" height="30"/><rect class="cls-7" x="178" y="641" width="20" height="20"/><rect class="cls-7" x="67" y="656" width="18" height="15"/><rect class="cls-7" x="67" y="685" width="18" height="20"/><rect class="cls-7" x="25" y="675" width="23" height="26"/><rect class="cls-7" x="42" y="616" width="31" height="18"/><rect class="cls-7" x="53" y="569" width="20" height="27"/><rect class="cls-7" x="119.5" y="661.5" width="11" height="22" transform="translate(-384.45 183.61) rotate(-34.74)"/><rect class="cls-7" x="112.5" y="625.5" width="20" height="11" transform="translate(-399.75 218.02) rotate(-39.9)"/><rect class="cls-7" x="416" y="559" width="25" height="11"/><rect class="cls-7" x="228" y="420" width="18" height="26"/><rect class="cls-7" x="250.5" y="264.5" width="26" height="15" transform="translate(-62.72 36.96) rotate(-8.98)"/><rect class="cls-7" x="216" y="310" width="18" height="12"/><rect class="cls-7" x="208" y="335" width="20" height="12"/><rect class="cls-7" x="178" y="301" width="18" height="25"/><rect class="cls-7" x="189" y="353" width="12" height="18"/><rect class="cls-7" x="178" y="378" width="23" height="15"/><rect class="cls-7" x="144" y="382" width="22" height="15"/><rect class="cls-7" x="144" y="343" width="17" height="23"/><rect class="cls-7" x="139" y="316" width="24" height="14"/><rect class="cls-7" x="130.5" y="334.5" width="21" height="13" transform="translate(-242.91 412.66) rotate(-79.92)"/><rect class="cls-7" x="105.5" y="432.5" width="19" height="27" transform="translate(-91.69 15.91) rotate(-8.98)"/><rect class="cls-7" x="882" y="410" width="13" height="10"/><rect class="cls-7" x="950" y="411" width="12" height="9"/><rect class="cls-7" x="1047.5" y="1128.5" width="13" height="25" transform="translate(-520.14 1224.68) rotate(-50.64)"/><rect class="cls-7" x="1240" y="1005" width="21" height="13"/><rect class="cls-7" x="1513.5" y="816.5" width="25" height="14" transform="translate(-116.08 193.89) rotate(-7.33)"/><rect class="cls-7" x="1222.5" y="255.5" width="27" height="13" transform="translate(-40 420.57) rotate(-19.52)"/><rect class="cls-7" x="808.5" y="108.5" width="16" height="16" transform="translate(531.58 891.24) rotate(-79.64)"/><rect class="cls-7" x="1050" y="338" width="21" height="14"/><rect class="cls-7" x="778" y="344" width="11" height="13"/><rect class="cls-7" x="752" y="463" width="20" height="29"/><rect class="cls-7" x="1497" y="532" width="3" height="79"/><rect class="cls-7" x="284" y="1027" width="16" height="22"/><rect class="cls-7" x="355.5" y="1047.5" width="14" height="11" transform="translate(-443.05 252.65) rotate(-25.61)"/><rect class="cls-7" x="243" y="861" width="14" height="11"/><rect class="cls-7" x="357.5" y="622.5" width="19" height="13" transform="translate(-383.38 577.01) rotate(-56.24)"/><rect class="cls-7" x="274" y="659" width="22" height="33"/><rect class="cls-7" x="241" y="694" width="16" height="23"/><rect class="cls-7" x="193" y="688" width="24" height="17"/><rect class="cls-7" x="220" y="631" width="17" height="30"/><rect class="cls-7" x="178" y="641" width="20" height="20"/><rect class="cls-7" x="67" y="656" width="18" height="15"/><rect class="cls-7" x="67" y="685" width="18" height="20"/><rect class="cls-7" x="25" y="675" width="23" height="26"/><rect class="cls-7" x="42" y="616" width="31" height="18"/><rect class="cls-7" x="53" y="569" width="20" height="27"/><rect class="cls-7" x="119.5" y="661.5" width="11" height="22" transform="translate(-384.45 183.61) rotate(-34.74)"/><rect class="cls-7" x="112.5" y="625.5" width="20" height="11" transform="translate(-399.75 218.02) rotate(-39.9)"/><rect class="cls-7" x="416" y="559" width="25" height="11"/><rect class="cls-7" x="228" y="420" width="18" height="26"/><rect class="cls-7" x="250.5" y="264.5" width="26" height="15" transform="translate(-62.72 36.96) rotate(-8.98)"/><rect class="cls-7" x="216" y="310" width="18" height="12"/><rect class="cls-7" x="208" y="335" width="20" height="12"/><rect class="cls-7" x="178" y="301" width="18" height="25"/><rect class="cls-7" x="189" y="353" width="12" height="18"/><rect class="cls-7" x="178" y="378" width="23" height="15"/><rect class="cls-7" x="144" y="382" width="22" height="15"/><rect class="cls-7" x="144" y="343" width="17" height="23"/><rect class="cls-7" x="139" y="316" width="24" height="14"/><rect class="cls-7" x="130.5" y="334.5" width="21" height="13" transform="translate(-242.91 412.66) rotate(-79.92)"/><rect class="cls-7" x="105.5" y="432.5" width="19" height="27" transform="translate(-91.69 15.91) rotate(-8.98)"/><rect class="cls-7" x="882" y="410" width="13" height="10"/><rect class="cls-7" x="950" y="411" width="12" height="9"/><rect class="cls-7" x="1047.5" y="1128.5" width="13" height="25" transform="translate(-520.14 1224.68) rotate(-50.64)"/><rect class="cls-7" x="1240" y="1005" width="21" height="13"/><rect class="cls-7" x="1513.5" y="816.5" width="25" height="14" transform="translate(-116.08 193.89) rotate(-7.33)"/><rect class="cls-7" x="1222.5" y="255.5" width="27" height="13" transform="translate(-40 420.57) rotate(-19.52)"/><rect class="cls-7" x="808.5" y="108.5" width="16" height="16" transform="translate(531.58 891.24) rotate(-79.64)"/><rect class="cls-7" x="1050" y="338" width="21" height="14"/><rect class="cls-7" x="778" y="344" width="11" height="13"/><rect class="cls-7" x="752" y="463" width="20" height="29"/><rect class="cls-7" x="1497" y="532" width="3" height="79"/><rect class="cls-7" x="284" y="1027" width="16" height="22"/><rect class="cls-7" x="355.5" y="1047.5" width="14" height="11" transform="translate(-443.05 252.65) rotate(-25.61)"/><rect class="cls-7" x="243" y="861" width="14" height="11"/><rect class="cls-7" x="357.5" y="622.5" width="19" height="13" transform="translate(-383.38 577.01) rotate(-56.24)"/><rect class="cls-7" x="274" y="659" width="22" height="33"/><rect class="cls-7" x="241" y="694" width="16" height="23"/><rect class="cls-7" x="193" y="688" width="24" height="17"/><rect class="cls-7" x="220" y="631" width="17" height="30"/><rect class="cls-7" x="178" y="641" width="20" height="20"/><rect class="cls-7" x="67" y="656" width="18" height="15"/><rect class="cls-7" x="67" y="685" width="18" height="20"/><rect class="cls-7" x="25" y="675" width="23" height="26"/><rect class="cls-7" x="42" y="616" width="31" height="18"/><rect class="cls-7" x="53" y="569" width="20" height="27"/><rect class="cls-7" x="119.5" y="661.5" width="11" height="22" transform="translate(-384.45 183.61) rotate(-34.74)"/><rect class="cls-7" x="112.5" y="625.5" width="20" height="11" transform="translate(-399.75 218.02) rotate(-39.9)"/><rect class="cls-7" x="416" y="559" width="25" height="11"/><rect class="cls-7" x="228" y="420" width="18" height="26"/><rect class="cls-7" x="250.5" y="264.5" width="26" height="15" transform="translate(-62.72 36.96) rotate(-8.98)"/><rect class="cls-7" x="216" y="310" width="18" height="12"/><rect class="cls-7" x="208" y="335" width="20" height="12"/><rect class="cls-7" x="178" y="301" width="18" height="25"/><rect class="cls-7" x="189" y="353" width="12" height="18"/><rect class="cls-7" x="178" y="378" width="23" height="15"/><rect class="cls-7" x="144" y="382" width="22" height="15"/><rect class="cls-7" x="144" y="343" width="17" height="23"/><rect class="cls-7" x="139" y="316" width="24" height="14"/><rect class="cls-7" x="130.5" y="334.5" width="21" height="13" transform="translate(-242.91 412.66) rotate(-79.92)"/><rect class="cls-7" x="105.5" y="432.5" width="19" height="27" transform="translate(-91.69 15.91) rotate(-8.98)"/><rect class="cls-7" x="882" y="410" width="13" height="10"/><rect class="cls-7" x="950" y="411" width="12" height="9"/><rect class="cls-7" x="1047.5" y="1128.5" width="13" height="25" transform="translate(-520.14 1224.68) rotate(-50.64)"/><rect class="cls-7" x="1240" y="1005" width="21" height="13"/><rect class="cls-7" x="1513.5" y="816.5" width="25" height="14" transform="translate(-116.08 193.89) rotate(-7.33)"/><rect class="cls-7" x="1222.5" y="255.5" width="27" height="13" transform="translate(-40 420.57) rotate(-19.52)"/><rect class="cls-7" x="808.5" y="108.5" width="16" height="16" transform="translate(531.58 891.24) rotate(-79.64)"/><rect class="cls-7" x="1050" y="338" width="21" height="14"/><rect class="cls-7" x="778" y="344" width="11" height="13"/><rect class="cls-7" x="752" y="463" width="20" height="29"/><rect class="cls-7" x="1497" y="532" width="3" height="79"/></g><g id="Medium_Buildings" data-name="Medium Buildings"><rect class="cls-7" x="411" y="635" width="25" height="23"/><rect class="cls-7" x="467" y="619" width="24" height="24"/><rect class="cls-7" x="879" y="718" width="39" height="24"/><rect class="cls-7" x="905" y="742" width="13" height="13"/><rect class="cls-7" x="855.5" y="961.5" width="20" height="32" transform="translate(-332.21 1540.81) rotate(-74.4)"/><rect class="cls-7" x="1019.5" y="1094.5" width="16" height="38" transform="translate(-508.57 1194.14) rotate(-50.64)"/><rect class="cls-7" x="259" y="349" width="44" height="29"/><rect class="cls-7" x="1235" y="782" width="27" height="21"/><rect class="cls-7" x="411" y="635" width="25" height="23"/><rect class="cls-7" x="467" y="619" width="24" height="24"/><rect class="cls-7" x="879" y="718" width="39" height="24"/><rect class="cls-7" x="905" y="742" width="13" height="13"/><rect class="cls-7" x="855.5" y="961.5" width="20" height="32" transform="translate(-332.21 1540.81) rotate(-74.4)"/><rect class="cls-7" x="1019.5" y="1094.5" width="16" height="38" transform="translate(-508.57 1194.14) rotate(-50.64)"/><rect class="cls-7" x="259" y="349" width="44" height="29"/><rect class="cls-7" x="1235" y="782" width="27" height="21"/><rect class="cls-7" x="411" y="635" width="25" height="23"/><rect class="cls-7" x="467" y="619" width="24" height="24"/><rect class="cls-7" x="879" y="718" width="39" height="24"/><rect class="cls-7" x="905" y="742" width="13" height="13"/><rect class="cls-7" x="855.5" y="961.5" width="20" height="32" transform="translate(-332.21 1540.81) rotate(-74.4)"/><rect class="cls-7" x="1019.5" y="1094.5" width="16" height="38" transform="translate(-508.57 1194.14) rotate(-50.64)"/><rect class="cls-7" x="259" y="349" width="44" height="29"/><rect class="cls-7" x="1235" y="782" width="27" height="21"/></g><g id="Large_Buildings" data-name="Large Buildings"><rect class="cls-7" x="886" y="299" width="65" height="37"/><rect class="cls-7" x="886" y="334" width="11" height="23"/><rect class="cls-7" x="938" y="335" width="13" height="23"/><rect class="cls-7" x="856" y="357" width="41" height="28"/><rect class="cls-7" x="773.17" y="372.22" width="83.83" height="30.78"/><rect class="cls-7" x="978" y="367" width="89" height="36"/><rect class="cls-7" x="938" y="357" width="41" height="28"/><rect class="cls-7" x="886" y="299" width="65" height="37"/><rect class="cls-7" x="886" y="334" width="11" height="23"/><rect class="cls-7" x="938" y="335" width="13" height="23"/><rect class="cls-7" x="856" y="357" width="41" height="28"/><rect class="cls-7" x="773.17" y="372.22" width="83.83" height="30.78"/><rect class="cls-7" x="978" y="367" width="89" height="36"/><rect class="cls-7" x="938" y="357" width="41" height="28"/><rect class="cls-7" x="886" y="299" width="65" height="37"/><rect class="cls-7" x="886" y="334" width="11" height="23"/><rect class="cls-7" x="938" y="335" width="13" height="23"/><rect class="cls-7" x="856" y="357" width="41" height="28"/><rect class="cls-7" x="773.17" y="372.22" width="83.83" height="30.78"/><rect class="cls-7" x="978" y="367" width="89" height="36"/><rect class="cls-7" x="938" y="357" width="41" height="28"/></g><g id="Small_Buildings-2" data-name="Small Buildings"><rect class="cls-7" x="284" y="1027" width="16" height="22"/><rect class="cls-7" x="355.5" y="1047.5" width="14" height="11" transform="translate(-443.05 252.65) rotate(-25.61)"/><rect class="cls-7" x="243" y="861" width="14" height="11"/><rect class="cls-7" x="357.5" y="622.5" width="19" height="13" transform="translate(-383.38 577.01) rotate(-56.24)"/><rect class="cls-7" x="274" y="659" width="22" height="33"/><rect class="cls-7" x="241" y="694" width="16" height="23"/><rect class="cls-7" x="193" y="688" width="24" height="17"/><rect class="cls-7" x="220" y="631" width="17" height="30"/><rect class="cls-7" x="178" y="641" width="20" height="20"/><rect class="cls-7" x="67" y="656" width="18" height="15"/><rect class="cls-7" x="67" y="685" width="18" height="20"/><rect class="cls-7" x="25" y="675" width="23" height="26"/><rect class="cls-7" x="42" y="616" width="31" height="18"/><rect class="cls-7" x="53" y="569" width="20" height="27"/><rect class="cls-7" x="119.5" y="661.5" width="11" height="22" transform="translate(-384.45 183.61) rotate(-34.74)"/><rect class="cls-7" x="112.5" y="625.5" width="20" height="11" transform="translate(-399.75 218.02) rotate(-39.9)"/><rect class="cls-7" x="416" y="559" width="25" height="11"/><rect class="cls-7" x="228" y="420" width="18" height="26"/><rect class="cls-7" x="250.5" y="264.5" width="26" height="15" transform="translate(-62.72 36.96) rotate(-8.98)"/><rect class="cls-7" x="216" y="310" width="18" height="12"/><rect class="cls-7" x="208" y="335" width="20" height="12"/><rect class="cls-7" x="178" y="301" width="18" height="25"/><rect class="cls-7" x="189" y="353" width="12" height="18"/><rect class="cls-7" x="178" y="378" width="23" height="15"/><rect class="cls-7" x="144" y="382" width="22" height="15"/><rect class="cls-7" x="144" y="343" width="17" height="23"/><rect class="cls-7" x="139" y="316" width="24" height="14"/><rect class="cls-7" x="130.5" y="334.5" width="21" height="13" transform="translate(-242.91 412.66) rotate(-79.92)"/><rect class="cls-7" x="105.5" y="432.5" width="19" height="27" transform="translate(-91.69 15.91) rotate(-8.98)"/><rect class="cls-7" x="882" y="410" width="13" height="10"/><rect class="cls-7" x="950" y="411" width="12" height="9"/><rect class="cls-7" x="1047.5" y="1128.5" width="13" height="25" transform="translate(-520.14 1224.68) rotate(-50.64)"/><rect class="cls-7" x="1240" y="1005" width="21" height="13"/><rect class="cls-7" x="1513.5" y="816.5" width="25" height="14" transform="translate(-116.08 193.89) rotate(-7.33)"/><rect class="cls-7" x="1222.5" y="255.5" width="27" height="13" transform="translate(-40 420.57) rotate(-19.52)"/><rect class="cls-7" x="808.5" y="108.5" width="16" height="16" transform="translate(531.58 891.24) rotate(-79.64)"/><rect class="cls-7" x="1050" y="338" width="21" height="14"/><rect class="cls-7" x="778" y="344" width="11" height="13"/><rect class="cls-7" x="752" y="463" width="20" height="29"/><rect class="cls-7" x="1497" y="532" width="3" height="79"/><rect class="cls-7" x="284" y="1027" width="16" height="22"/><rect class="cls-7" x="355.5" y="1047.5" width="14" height="11" transform="translate(-443.05 252.65) rotate(-25.61)"/><rect class="cls-7" x="243" y="861" width="14" height="11"/><rect class="cls-7" x="357.5" y="622.5" width="19" height="13" transform="translate(-383.38 577.01) rotate(-56.24)"/><rect class="cls-7" x="274" y="659" width="22" height="33"/><rect class="cls-7" x="241" y="694" width="16" height="23"/><rect class="cls-7" x="193" y="688" width="24" height="17"/><rect class="cls-7" x="220" y="631" width="17" height="30"/><rect class="cls-7" x="178" y="641" width="20" height="20"/><rect class="cls-7" x="67" y="656" width="18" height="15"/><rect class="cls-7" x="67" y="685" width="18" height="20"/><rect class="cls-7" x="25" y="675" width="23" height="26"/><rect class="cls-7" x="42" y="616" width="31" height="18"/><rect class="cls-7" x="53" y="569" width="20" height="27"/><rect class="cls-7" x="119.5" y="661.5" width="11" height="22" transform="translate(-384.45 183.61) rotate(-34.74)"/><rect class="cls-7" x="112.5" y="625.5" width="20" height="11" transform="translate(-399.75 218.02) rotate(-39.9)"/><rect class="cls-7" x="416" y="559" width="25" height="11"/><rect class="cls-7" x="228" y="420" width="18" height="26"/><rect class="cls-7" x="250.5" y="264.5" width="26" height="15" transform="translate(-62.72 36.96) rotate(-8.98)"/><rect class="cls-7" x="216" y="310" width="18" height="12"/><rect class="cls-7" x="208" y="335" width="20" height="12"/><rect class="cls-7" x="178" y="301" width="18" height="25"/><rect class="cls-7" x="189" y="353" width="12" height="18"/><rect class="cls-7" x="178" y="378" width="23" height="15"/><rect class="cls-7" x="144" y="382" width="22" height="15"/><rect class="cls-7" x="144" y="343" width="17" height="23"/><rect class="cls-7" x="139" y="316" width="24" height="14"/><rect class="cls-7" x="130.5" y="334.5" width="21" height="13" transform="translate(-242.91 412.66) rotate(-79.92)"/><rect class="cls-7" x="105.5" y="432.5" width="19" height="27" transform="translate(-91.69 15.91) rotate(-8.98)"/><rect class="cls-7" x="882" y="410" width="13" height="10"/><rect class="cls-7" x="950" y="411" width="12" height="9"/><rect class="cls-7" x="1047.5" y="1128.5" width="13" height="25" transform="translate(-520.14 1224.68) rotate(-50.64)"/><rect class="cls-7" x="1240" y="1005" width="21" height="13"/><rect class="cls-7" x="1513.5" y="816.5" width="25" height="14" transform="translate(-116.08 193.89) rotate(-7.33)"/><rect class="cls-7" x="1222.5" y="255.5" width="27" height="13" transform="translate(-40 420.57) rotate(-19.52)"/><rect class="cls-7" x="808.5" y="108.5" width="16" height="16" transform="translate(531.58 891.24) rotate(-79.64)"/><rect class="cls-7" x="1050" y="338" width="21" height="14"/><rect class="cls-7" x="778" y="344" width="11" height="13"/><rect class="cls-7" x="752" y="463" width="20" height="29"/><rect class="cls-7" x="1497" y="532" width="3" height="79"/></g><g id="Medium_Buildings-2" data-name="Medium Buildings"><rect class="cls-7" x="411" y="635" width="25" height="23"/><rect class="cls-7" x="467" y="619" width="24" height="24"/><rect class="cls-7" x="879" y="718" width="39" height="24"/><rect class="cls-7" x="905" y="742" width="13" height="13"/><rect class="cls-7" x="855.5" y="961.5" width="20" height="32" transform="translate(-332.21 1540.81) rotate(-74.4)"/><rect class="cls-7" x="1019.5" y="1094.5" width="16" height="38" transform="translate(-508.57 1194.14) rotate(-50.64)"/><rect class="cls-7" x="259" y="349" width="44" height="29"/><rect class="cls-7" x="1235" y="782" width="27" height="21"/><rect class="cls-7" x="411" y="635" width="25" height="23"/><rect class="cls-7" x="467" y="619" width="24" height="24"/><rect class="cls-7" x="879" y="718" width="39" height="24"/><rect class="cls-7" x="905" y="742" width="13" height="13"/><rect class="cls-7" x="855.5" y="961.5" width="20" height="32" transform="translate(-332.21 1540.81) rotate(-74.4)"/><rect class="cls-7" x="1019.5" y="1094.5" width="16" height="38" transform="translate(-508.57 1194.14) rotate(-50.64)"/></g><g id="Large_Buildings-2" data-name="Large Buildings"><rect class="cls-7" x="886" y="299" width="65" height="37"/><rect class="cls-7" x="886" y="334" width="11" height="23"/><rect class="cls-7" x="938" y="335" width="13" height="23"/><rect class="cls-7" x="856" y="357" width="41" height="28"/><rect class="cls-7" x="773.17" y="372.22" width="83.83" height="30.78"/><rect class="cls-7" x="978" y="367" width="89" height="36"/><rect class="cls-7" x="938" y="357" width="41" height="28"/><rect class="cls-7" x="886" y="299" width="65" height="37"/><rect class="cls-7" x="886" y="334" width="11" height="23"/><rect class="cls-7" x="938" y="335" width="13" height="23"/><rect class="cls-7" x="856" y="357" width="41" height="28"/><rect class="cls-7" x="773.17" y="372.22" width="83.83" height="30.78"/><rect class="cls-7" x="978" y="367" width="89" height="36"/><rect class="cls-7" x="938" y="357" width="41" height="28"/></g></g></svg>