<svg xmlns="http://www.w3.org/2000/svg" viewBox="0 0 4917.0711 5998.3189">
  <g id="Ground_Level">
    <g id="cement" fill="#c6c2c2">
      <path d="M333.147 5019.3v-649.41h835.463v-614.63H864.379l35.114-220.52H1156.9v-384.26l-458.671-.61-1.805-75.4-278.54-1.22V1895.44h238.379l-1.727-1022.76h950.884V591.865h280.64V4.3383h456.39V489.572h378.06v509.51h91.43l-66.67 380.508 1543.36 274.54-39.34 228.2 619.88 112.78-65.6 376.75-619.86-111.84-154.75 823.59h639.99l73.44 230.81-47.21 259.67-435.4 876.04 438.02 2.62v218.76h-378.78v760.89h-228.41v328.8h-328.8v-282.24H2314.23v-354.99l-232.78-330.25-766.71 436.46-87.29-151.31h-53.83v-58.19Z"/>
    </g>
    <g id="road" fill="#888">
      <path d="M2428.76 487.592v200.359l-36.88 8.641v234.535l40.67-5.676v669.339l-1522.311-.8V919.553h133.531v53.414h-46.29v494.963h283.09V871.48H814.095v547.62s-9.851.81-14.244-1.02c-5.823-2.43-11.084-7-14.244-12.46-3.032-5.24-3.561-17.81-3.561-17.81V873.262h-33.828v610.688h65.877v110.04H292.394l.881 219.7 363.646-2.23v1548.65h70.256V3149.4h180.801l15.851-6.16 9.686-9.69 4.404-12.33V3005l147.061.86 118.74 58.11-.53.61 52 24.42c74.95 35.19 62.66 31.17 44.9 83.96-9.77 29.02-30.29 107.69-33.92 130-2.33 13.58-4.79 27.14-7.39 40.66-10.88 56.84-15.16 111.29-16.72 212.67-.92 59.46 3.89 63.13-3.72 71l-9.02 5.67c-312.301-.04-624.599.82-936.897 1.38v89.33l722.277 3.96c161.78 0 153.74-.81 165.72 16.61l4.04 5.87v586.85h469.33v33.33h65.06l.57 216.33.57 216.33-2.97 5.33c-6.25 11.22-18.67 15.19-24.47 7.82l-2.76-3.51V4456.1l-87.34-81.69-1273.998-.13v38.67h117.741c89.788 0 118.11.38 119.33 1.6 1.23 1.23 1.599 46.73 1.599 196.67v195.07h713.118l4.44 5.2c2.44 2.86 22.13 36.01 43.73 73.66 21.61 37.66 43.36 75.32 48.33 83.7 11.58 19.5 12.82 35.53 3.2 41.23-11.42 6.89-126.25 72.22-165.2 94.74l-90.85 4.13-28.48-23.15H920.921l-16.023 19.59H790.855v-76.74h-44.912l1.761 11.45h-7.926v65.29H582.636l-23.147-19.59H370.763l-23.147 17.81H270.78v-128.86h-52.226v701.24c-19.42 11.08-79.332 45.07-79.332 45.07l26.681 49.78S2092.19 4671.93 2135.63 4652.6c11.99-5.34 62.89-20.21 86.16-25.17 21.72-4.63 50.92-6.53 113.47-7.38l59.47-.81 10.07 4.85c12.89 6.2 24.33 18.17 29.87 31.26l3.78 8.94.43 108c.46 115.47-.09 129.11-5.52 138-7.85 12.82-12.79 16.13-47.93 32.11-10.96 4.98-18.2 9.14-20.32 11.66-1.82 2.16-28.36 19.26-58.98 38-30.61 18.74-56.68 34.86-57.92 35.82-2.03 1.57-1.42 2.97 6.67 15.07l8.91 13.33 19.26 6.2 50.07-29.52h29c31.89 0 34.33.61 34.33 8.66v3.34h29.34l5.38 5.38c11.47 24.59 8.39 287.4 7.93 394.28l-1.29 191.99-.09 219.08h93.33l.05-218.39c-.01-91.52-.23-180.45-1.04-183.49.24 1.2.28-441.26.1-983.29l-.34-1012.87h46.68v1001.3c0 316.94 2.5 691.84-.02 985.67l-1.36 192.74v218.33h93.33l-.03-218.33-1.23-192.74c-.18-16.69-.87-42.95 0-71.33.04-72.94 1.49-79.82 18.97-90.06 14.07-8.26-56.47-7.6 824.19-7.6l1336.7-1.34v-58.66l-938.33-1.34-8.45-4.36c-6.29-3.25-9.55-6.01-12.78-10.82l-4.34-6.45-.03-544.52 3.83-5.93c5.33-8.25 11.73-13.95 19.29-17.17l6.44-2.75 862.04-.93c37.95.2 69.75.5 70.66.68 1.3.25 1.67-7.2 1.67-33.68v-34l-252.95-1.41-.87-3c-.5-1.65-1.25-23.76-1.7-49.13l-.81-46.14-16.8-.86c-9.24-.47-21.75-.86-27.8-.86h-11v30.66c0 32.65-.68 36-7.33 36-1.67 0-2 2.67-2 16.04v16.05l-319.33-.74-16.1-6.83c-38.54-16.34-62.92-42.67-73.32-79.17-4.07-14.27-3.68-56.49.62-67.34 3.03-7.62 368.19-744.88 437.52-883.33 35.36-70.62 39.71-77.7 53.32-86.95 22.93-15.58 34.41-18.38 75.38-18.38 16.45 0 29.92-.45 29.92-1 .02-.09.04-.18.05-.27l62.24.12c24.77.08 48.63.59 53.03 1.14 4.4.54 10.25 1.08 13 1.18l5 .2v-132.66l-70 .84-13.32-21.51h-40.08c-3.37 0-6.15.08-8.66.18l-.47-1.55h-109.18l-22.22 21.33h-26.69l-3.22-4.33c-6.24-8.41-6.26-8.54-6.26-102.4 0-79.91-.2-89.07-2.1-89.8-3.78-1.44-10.19-.9-32.89 2.8l-22.34 3.64v85.1c0 82.22-.09 85.27-2.63 90.04-6.05 11.35-19.54 14.09-37.93 14.69l-4.05.44-13.31-21.51h-158.4l-22.22 21.33h-46.08l-13.3-21.33h-158.4l-22.22 21.33h-425.54l-6-3.51c-18.17-10.65-17.81-18.04-12.49-49.58 9.76-57.9 53.77-297.93 56.14-306.65 9.51-34.94 29.77-65.32 85.21-110.54 49.21-40.14 51.46-25.88 35.86-194.18-6.92-74.73-9.26-121.48-14.35-171.33l-7.06-64.88-5.36-15.33c-2.94-8.43-8.98-23.43-13.41-33.33-8.66-19.34-14.35-39.7-14.35-51.36v-2.91c10.13-57.69 37.5-213.51 39.24-224.74 5.03-32.52 8.38-37.99 22.18-36.17 8.3 1.11 7.81.1 13.99 29.2 2.63 12.47 4.89 22.76 5 22.88.12.12 39.5 7.52 87.54 16.44l92.97 17.27 5.63 1.05 18.08-21.82c9.94-12 18.5-21.82 19.03-21.82 11.63.1 37.06 6.87 40.15 10.7 9.43 11.7 9.7 14.35 4.73 44.73l-3.59 22.79c-.18 3.38-.88 4.63-1.96 11.1l-5.62 35.03c-2.65 16.56-2.51 22.37-1.92 25.21-.41-.09-.29-.74-1.03-.43l-12.23-2.71-14.02 70.09c-3.83 20.64-14.88 97.34-14.87 98.34.02 1 17.12-.02 22.44 5.66 10.97 12.85 9.94 12.21-.53 79.35-15.6 98.63-31.64 197.19-47.08 295.84-10.09 64.56-14.67 74.71-34.31 76.06l-8.1.55-2.24 11.53c-1.23 6.34-2.6 12.84-3.03 14.44-.69 2.51-.13 3.04 4.01 3.81 6.04 1.14 6.91-6.28-8 67.94l-12.86 64-6.72 6.18.35 5.3-12.49 76.39c-8.33 40.57-14.25 80.56-14.25 81.33 0 .95 6.05-.49 34.02-.74l35.78.52 7.99-39.67c3.43-17.94 5.93-33.4 5.56-34.36-.36-.96 5.69-37.41 13.46-81.01 7.77-43.6 15.1-84.97 16.3-91.94l51.05-290 48.88-277.33-5.47-10.31c-5.8-10.96-6.31-11.4-15.14-13.2-28.17-5.73-28.64-6.05-25.77-17.23 1.16-4.76 2.1-9.57 2.8-14.42 1.62-11.3 3.64-22.54 6.05-33.7 1.06-4.87 1.92-10.68 1.92-12.91 0-2.23.57-5.57 1.29-7.45.72-1.88 1.93-7.77 2.7-13.1 4.18-28.96 13.51-77.56 15.22-79.38 1.29-1.35 3.02-1.38 8.4-.14 6.22 1.44 8.98 1.43 10.65-.98 1.09-3.47 2.58-12.49 5.03-25.05 8.7-44.67 7.07-43.97 75.9-31.87l43.82 7.7 6 12c3.3 6.61 6.08 12.11 6.18 12.23.1.12 35.58 6.57 78.84 14.33 43.27 7.76 79.66 14.34 80.88 14.62 1.27.29 7.06-3.39 13.61-8.66 13.65-10.98 8.16-10.8 55.75-1.85 21.45 4.04 39.47 7.34 40.04 7.34.57 0 3.81 5.55 7.2 12.33s6.24 12.43 6.34 12.55c.1.12 35.58 6.57 78.85 14.34 43.27 7.76 79.66 14.34 80.88 14.62 1.27.29 7.06-3.4 13.61-8.67 13.74-11.06 71.51.77 71.51.77l.01-.01 91.83 16.23 16.57-94.83s-298.13-53.81-619.65-110.1c-527.5-92.33-585.28-102.68-591.28-105.96-15.91-8.65-10.91-27.27 7.31-27.27 2.41 0 267.65 46.77 589.4 103.95 321.75 57.17 619.85 110.81 619.85 110.81l15.37-85.99-1483.69-268.92 4.4-27.15 29.32 4.73 20.8-112.53-446.37-79.44-21.75 111.59 21.75 3.78-6.42 27.1-322.68-58.28V619.99h53.87v-44.447h-51.98v-87.951Zm-1338.7 431.961h144.22v53.414h-44.51v445.113h-56.98V972.967h-42.73Zm1959.08 718.957 134.29 24.59-4.97 25.58-133.87-24.18Zm161.72 29.32 134.29 23.64-5.27 26.36-133.02-24.02Zm-1565.54 21.16h367.34c386.84 0 354.58-.72 359.1 8.02 3.46 6.71 2.59 12.98-2.54 18.11l-4.54 4.54h-719.69c.09-9.66.21-19.83.33-30.67Zm1068.08 13.33c4.13 0 623.66 106.82 681.06 117.42 120.31 22.24 119.46 22.04 122.46 28.34 4.44 9.36 2.84 15.66-4.8 18.86l-.01-.01c-4.4 1.84-18.08 2.58-23.65 1.28-3.57-.83-432.9-76.98-611.3-108.42-168.72-29.74-173.37-30.64-176.33-34.08-8.08-9.39-.55-23.39 12.57-23.39ZM727.177 1810.37s370.593.12 555.873.36c308.31.3 261.8-1.51 270.37 9.32 4.44 5.61 6.57 11.04 7.98 18.21v222.7h-419.18l-2.64 141.78h67.81v140.02H727.177Zm1436.583 0 248 .62 8.48 4.69c5.37 2.96 10.01 6.8 12.66 10.46l4.19 5.78.39 37.87 1.66 37.87c-.05 19.1.29 93.12 0 133.95v123.34l-22.67 25.1v200.73l22.67 23.16v313.31l-3.35 16.44c-3.67 17.99-4.88 20.59-12.19 26.17l-4.92 3.75-140.88.78v47.9h66.68c80.15 0 80.2 0 91.68 23l3.02 6.05-.38 377.14c-.32 320.43-.66 377.89-2.26 382.17-3.02 8.09-9.75 14.85-18.33 18.42l-7.74 3.21-467.33.75-.06-251.52 3.67-3.33c7.11-6.46 7.55-6.5 70.4-6.5h59.27v50.67h138.67v-113.33h-35.95v-108.07h17.34v-72h-67.93l-2.04-3.94c-2.54-4.9-3.13-283.63-.62-290.3.78-2.07 3.3-5.71 5.6-8.09l4.18-4.33h60.81v-48H2134l-3.9-4.75c-7.06-8.56-6.96-6.63-6.96-129.08v-114.18h64v-48l-59.33-.01-23.01-84.33-23-84.32-5.28-241.97-406.72 2.64v9.33h-46.76l1.01-267.51 253.94.88 12.22 11.33 12.21 11.34h233.52Zm539.87 15.04c5.36-.54 242.94 42.32 244.28 44.06 3.49 5.02 6.96 10.04 10.43 15.07l10.3 14.88 8.9 1.53c4.89.83 56.7 9.89 115.13 20.12 58.43 10.23 107.63 18.72 109.33 18.85 2 .16 8.16-3.44 17.45-10.18l14.37-10.44 192.97 32.3c236.12 39.5 235.12 39.3 244.34 53.2 4.84 7.31 4.85 5.07-.19 34.59-1.9 11.13-27.65 161.6-37.9 221.47-1.23 1.02-1.86 3.3-2.51 8-3.33 24.17-12.66 32.59-35.33 31.87l-8.18-.26c-49.72-8.31-162.38-26.41-189.74-30.42l-.19-1.6-153.34-26.31c-180.59-30.99-157.99-28.61-165.3-17.31-6.45 9.97-18.93 22.23-40.69 39.99-20.94 17.08-37.94 32.43-38.5 34.74-.26 1.13.57 15.29 1.87 31.47l2.36 29.41 62.93 16.12.38 7.89c.27 5.56-7.14 51.95-25.1 157.22-28.99 169.91-26.48 145.9-23.48 224l1.53 40 18 1.56c27.73 2.4 30 2.31 31.62-1.22 9.93-21.57 30.45-30.47 57.83-25.07 8.37 1.65 50.32 9.17 93.22 16.72l78.87 13.88c.1.02.22-.51.32-.72 17.28 3.33 108.09 19.26 135.8 24.1 61.67 10.76 65.25 11.88 77.42 24.36 9.32 9.54 23.4 44.06 23.7 58.11.04 1.61-4.61 30.43-10.33 64.05l-10.4 61.13-5.56-.62c-3.52-.39-6.2.01-7.33 1.11-2.11 2.05-12.23.92-53.11-5.92-23.5-3.94-24.89-3.86-25.69 1.5-.82 5.51-3.33 18.5-5.13 26.6-.76 3.45-1.89 9.45-2.5 13.33-1.77 11.38-4.12 24.07-5.3 28.7-1.08 4.19-.98 4.32 3.76 5.06 2.67.42 6.97 1.3 9.53 1.97 2.56.67 6.46 1.58 8.66 2.02 24.36 4.88 50.92 11.86 53.85 14.16 1.75 1.37 4.69 2.5 6.53 2.5 3.3 0 3.34.11 2.54 8.33l-3.52 36.33c-6.02 62.43-8.47 70.19-28.2 89.39l-10.25 9.97-750.28-.69-7.63-3.75c-8.96-4.4-15.77-11.86-23.14-25.34l-5.23-9.58-.67-1329.98 1.54-29.15.42-29.16 4.67-6.95c5.61-8.36 18.84-15.89 29.87-16.99Zm-172.54 64.92h44l1.38 17.33v1290.65h-46.67V1907.66Zm-955.45 246.38c-.7 86.23-.7 149.17-3.92 220.97l-3.95 90.64-5.82 52.79c-3.69 22.73-7.28 54.57-11.21 72.9l-23.87 67.68-75.68 183.94c-52.28 123.93-100.97 227.11-101.74 229.31-3.25 9.2-3.5 12.68-14.85 12.68h-10.27l-42.66-20c-23.46-11-42.94-20-43.28-20-.01 0-.62.66-.65.68L1107 2966.24l23.77-53.72 66.05-181.41 26.42-101.27 34.34-145.31 7.05-97.74 3.5-249.23Zm64.83 26.9h173.29c192.04 0 180.11-.54 191.45 8.69 4.02 3.28 5.43 16.42 8.04 23.22 2.83 7.35 31.27 132.31 31.27 136.63 0 1.7-177.55.83-179.72-.88-.91-.72-1.66-3.05-1.66-5.15v-3.84h-18.67v116h29.33v-6.4c0-9.3.64-9.6 20.94-9.6h17.73v-7.07c0-3.88.72-7.78 1.6-8.66 2.29-2.29 78.54.35 80.83 2.64l66.34 3.27 17.02 71.95.88 188.54h-44v134.67h45.55l-.79 157.88c-.84 169.77-.55 163.16-7.64 169.63-8.1 7.39-5.06 7.16-91.71 7.16h-80.07v-313.33h22.67v-89.07c0-67.5.38-89.46 1.6-90.67 1.24-1.24-.18-1.6-6.4-1.6-11.19 0-11.2-.03-11.2-22.66 0-25.03-4.12-22.67 39.6-22.67h36.4v-22.67h-62.67v-40h-13.07c-14.78 0-16.26-.75-16.26-8.27v-5.07h-37.34v12c0 10.55-.32 12.19-2.66 13.65-2.42 1.51-2.67 3.11-2.67 17.35v15.67h-27.33c-23.41 0-27.34.3-27.34 2 0 1.1-.47 2-1.07 2-.58 0-2.16 3.15-3.51 7-7.59 17.79-14.96 35.69-22.11 53.67-6.13 13.33-6.13 13.53-.36 15.37 4.44 1.56 8.79 3.33 13.05 5.31 23.92 11 49.02 20.78 74 30.75l11.33 4.7-.2 6.12c-.11 3.36-1.11 7.53-2.21 9.27-11.55 27.09-24.54 58.1-35.58 84.31 0 4.52-9.02 4.62-18 .2-25.97-12.67-52.1-20.44-84.77-32.7-.5 0-2.27 3.75-3.93 8.34-20.47 50.36-41.93 98.37-60.59 148.33-1.18 3.49-2.58 6.9-4.18 10.22l-1.88 3.56 31 12.16c17.06 6.69 36.02 14.09 42.14 16.45l11.13 4.27-.97 121-.97 121h153.68v-18.66h260v109.4h-.06v19.33l-626.66-.79v45.46h371.8l2.77 3.51c4.3 84.62 2.76 173.05 2.76 256.42h-572.25l-4.88-2.74c-16.67-9.38-29.51-50.77-21.29-152.6 13.02-161.38 39.26-261.2 111.4-424 66.36-149.72 122.14-256.66 130.22-279.66 4.7-13.38 12.3-33.34 16.9-44.34 4.6-11 10.4-26.28 12.9-33.98 2.5-7.69 10.73-29.89 18.28-49.33 7.54-19.44 9.43-58.1 11.72-66.54 11.24-41.38 21.1-84.74 22.63-150.67.38-16.13 5.98-50.44 7.08-65.47 1.72-23.7.2-162.01.28-185.51Zm1555.68 164.25c16.25-.72 33.6 4.08 33.6 11.16 0 3.5-1.01 3.99-13.45 6.59-5.27 1.1-12.61 3.93-17.26 6.66-4.45 2.61-8.81 4.7-9.69 4.66-1.42-.07-24.58-12.6-26.26-14.2-1.54-1.46 10.3-9.57 17.84-12.21 4.5-1.58 9.8-2.43 15.22-2.66Zm59.46 9.28c5.65-.3 17.03 1.42 39.8 5.51 38.42 6.91 38.5 6.99 21.47 20.77-12.16 9.83-10.54 9.74-23.79 1.32-5.87-3.73-17.87-10.07-26.67-14.07-18.75-8.54-17.13-7.44-16.03-10.89.5-1.55 1.83-2.46 5.22-2.64Zm240.41 5.52c9.35.17 54.24.79 80.15 1.21l-.07.83 11.85.89c6.52.49 20.33 2.63 30.7 4.77 49.76 10.24 52.32-2.11 59.48 133.07 6.22 117.75 5.44 126.95 13.68 172.11 8.7 47.59 3.26 51.78-12.19 73.44-4.43 6.22-95.69 61.36-101.47 61.31-1.29-.02-44.05-7.16-95.01-15.89-64.99-11.13-119.75-18.01-164.66-25.29-25.8-4.98-26.62-17.19-66.9-79.04-6.74-19.19-17.25-16.49-11.31-60.63 2.71-16.5 6.4-36.26 7.12-41.76 2.2-16.76 5.16-34.69 7.96-48.26 1.46-7.08 4.99-19.32 4.62-20.74-.69-2.64 39.72-47.39 45.92-50.24 4.33-1.99 12.06-16.77 24.66-47.16l11.77-28.4 7.29-4.17c4.98-2.85 11.12-4.84 19.34-6.26l12.04-2.1.77-2.89c31.79-4.44 103.09-15 114.26-14.8Zm-340.59 12.4c1.84-.03 4.44 2.21 10.43 6.68 12.34 9.22 12.09 7.49 3.3 22.42-10.83 18.4-16.05 30.24-20.93 47.52-2.39 8.43-4.9 16.08-5.57 17-1.29 1.74-15.74 2.39-17.35.77-6.38-6.38 9.8-64.76 24.24-87.43 2.95-4.63 4.03-6.93 5.87-6.96Zm84.87 10.06c25.85.15 51.18 19.39 53.07 44.34.98 12.96 1.07 12.82-40.5 60.23-9.42 10.73-17.62 20.82-18.23 22.42-2.21 5.77-8.66 28.96-9.6 34.53-1.36 8.1-7.44 16.47-12.73 17.52-19.85 3.98-27.56.42-35.75-16.48l-6.14-12.67.13-32.67.14-32.66 4.28-10.64c2.35-5.85 4.79-10.95 5.39-11.34 1.45-.9 22.73-45.26 22.73-47.38 0-2.39 9.71-8.4 19.5-12.09 5.74-2.16 11.74-3.14 17.71-3.11Zm-2513.123 24.31h480.213v47.55l-9.69 76.62-35.22 152.34-21.14 68.69-94.22 236.89H936.157l-.023.88H727.177Zm2396.183 73.04c1.47-.14 3.46.23 6.19.51 12.03 1.26 11.48-.15 11.95 30.76l.41 27.27h-24.47l.92-27c.89-26.02.6-31.1 5-31.54Zm19.69 82.49c2.24.17 4.03.52 4.87 1.07 2.12 1.39 23.17 51.65 23.15 55.3 0 1.95-5.64 9.36-15.94 21-8.77 9.89-16.46 18.15-17.1 18.37-4.16 1.38-10.35-25.2-15.1-64.84l-3.09-25.82 3.1-2.51c2.42-1.96 13.36-3.07 20.11-2.57Zm40.74 83.48c3.77.74 8.97 8.5 22 30.65 17.52 29.74 19.53 35.14 14 37.66-5.08 2.31-24.25 1.76-30.9-.89-10.99-4.36-37.8-28.19-37.8-33.58 0-.99 24.81-28.65 29.16-32.51 1.18-1.04 2.28-1.58 3.54-1.33ZM727.177 3004.98h184.322v110.08l-7.045 6.16H727.177ZM2760.5 3323.64h1792.82c3.89 11.58 2.73 25.77.54 41.33H2760.5Zm1014.63 87.87 124.67.77 7 3.17c3.86 1.74 8.81 5.21 11 7.71l4 4.55v41.24h5.06c2.79 0 5.79.72 6.67 1.6 2.03 2.03 2.28 47.15.27 48.4-.79.48-1.34 8.82-1.34 20.51v19.7l-4.06 6.14c-4.51 6.79-9.87 9.11-37.57 16.22-26.98 6.93-35.95 8.01-64.28 7.73l-26.59-.27-20.75-.97-27.66-.88c-44.53-1.4-50.81 17.44-67.55 35.58-16.13 17.48-14.65 16.9-43.07 16.9-67.32 1.56-144.04 2.1-218.91 1.12-4.72-.06-2.06-25.66 1.73-30.16 3.08-3.65 3.34-5.01 3.34-17.44v-13.47h-33.34v50.67h-41.33v62.66h25.32v-21.33h6.6c3.62 0 6.96-.6 7.41-1.33.53-.87 29.79-1.34 83.41-1.34h145.3v2.62h14.67v22.67h31.73c38.61 0 34.94-2.7 34.94 25.6v22.4h23.17c18.97 0 23.47-.36 24.83-2 1.26-1.52 4.67-2 14.16-2h12.5v-37.26c0-23.39-.49-37.56-1.33-38.08-2-1.23-1.75-39.71.27-41.73 1.16-1.16 11.31-1.6 37.28-1.6 33.84 0 35.76-.13 37.06-2.56 3.51-6.55 4.38-6.77 26.77-6.77h21.19l4.56 4 4.56 4h100.31l10.33 9.34h36c29.63 0 36.3.33 37.6 1.9 2.09 2.52 1.45 65.72-.69 67.14-1.87 1.25-9.9 16.26-9.9 18.52 0 .97-.49 1.76-1.09 1.76-.6 0-2.85 3.75-5 8.34-2.15 4.58-4.25 8.63-4.67 9-1.55 1.36-9.24 16.54-9.24 18.24 0 .96-.51 1.76-1.13 1.76-.63 0-2.26 2.49-3.63 5.53-4.43 9.83 1.86 9.11-82.34 9.38-41.93.13-69.6.75-69.6.75l10.03 14.5v11.17l3.67.04c2.07.01 6.66 2.2 10.54 5l15.34 11.08c22.3 16.14 74.31 25.96 94.34 17.82 20.26-8.23 24.69-13.1 42.94-47.27 38.69-72.4 80.94-148.77 84.8-153.3 3.63-4.26 6.43-5.73 18-9.48 21.11-6.83 31.4-15.37 33.96-28.17.82-4.08 12.16-10.47 25.89-14.58 5.73-1.72 5.45-.85 5.86-18.13l.23-9.68h-68.9v4.9c0 4.07-1.03 5.88-6.03 10.67l-6.02 5.77H3978.2l-5.2-3.82c-15.33-11.26-15.2-10.59-15.2-76.93 0-35.72.48-55.38 1.35-55.92.74-.46 3.39-4.03 5.89-7.93 2.49-3.89 6.59-8.65 9.1-10.57l4.58-3.49h207.09v19.33l9.67.33c16.7.57 17 .39 17-10.47v-9.26l196.67.73 10.25 4.16c36.61 14.85 59.69 49.21 58.08 86.44l-.71 16.5-14.95 28.45c-8.23 15.65-15.61 29.25-16.39 30.22-.53.65-2.6 6.95-3.37 8.48-.36-2.27-2.66-2.91-7.49-2.91-4.35 0-9.78-1.79-20.18-6.67-7.84-3.67-14.45-6.67-14.7-6.67-.9 0-5.42 6.98-5.84 8.84-.37 1.63-2.12 5.18-3.13 7.3-1.62 3.37-7.64 12.94-6.74 13.84.41.42 5.69 2.74 10.38 4.72 17.81 7.51 30.51 17.53 30.75 23.91 0 .15.74-1.52.85-1.55-4.91 13.4-8.82 22.15-17.37 36.93-14.36 24.83-12.68 23.3-25.44 23.33l-10 .03-11.34 22.36-36.63 72.03-25.3 49.65 10.6 30.58-44.67 89.5c-57.32 114.86-53.83 110.88-84.74 96.53-13.38-6.21-128.48-63.42-156.13-74.92-20.29-12.48-36.14-26.05-41.1-35.61l-2.6-5.02 3.79-14.59c2.09-8.02 3.55-14.84 3.25-15.14-1.43-1.43-92.42-23.38-96.93-23.38-4.1 0-6.93 1.32-13.7 6.41-4.69 3.54-13.72 9.54-20.05 13.34l-11.52 6.92H3736.5v.04h-68.08v-5.69c0-4.61-.56-5.93-3-7-2.92-1.28-3.01-1.91-3.36-24.31l-.37-23h-37.03c-41.17 0-40.24.2-40.24-8.94v-5.73h-126.67v25.07c0 27.42-.22 28.26-7.6 28.26h-4.4v35.74c0 39.36.1 38.93-8.26 38.93-3.62 0-5.07.57-5.07 2l-1.29 1.49v44.91c0 5.16-2.01 7.6-6.27 7.6-2.66 0-3.07.67-3.07 5.07 0 6.45-5.62 17.81-11.1 22.43-22.09 18.66-59.37 4.56-59.53-22.5l-.03-5h-14.4c-19.18 0-17.6 3.7-17.6-41.34v-38.15l-12.46-24.58c-13.42-26.51-29.59-56.1-39.12-71.6l-5.94-9.66h-17.15V3427.5l5.99-6.39c9.52-10.2-8.61-9.5 246.5-9.5h230.18v32h-33.33v124h161.33v-47.92c0-30.51.48-48.22 1.33-48.74.74-.46 1.34-6.46 1.34-13.42v-12.58h-82.67Zm-599.68.1 7.74 4.7c13.97 8.49 13.27 3.72 13.27 91.72 0 71.9.12 75.58 2.4 75.58 5.5 0 5.6 1.06 5.6 56.27v190.45h-8v25.33h9.74c11.39 0 12.93 1.06 12.93 8.93v5.74h5.07c7.65 0 8.27 1.34 8.27 18.05v14.85l6.6 12.99c4.01 7.87 10.44 17.52 16.34 24.52l9.72 11.55.68 38.01c.67 37.3.75 38.23 4.4 48.7 7.53 21.61 27.34 42.27 48.84 53.21.44 156.25 2.75 468.74 2.75 468.74l-620.67-.2-8.21-2.89c-10.58-3.74-12.92-5.99-19.6-18.9l-5.52-10.67v-540.67c0-619.19-1.53-551.19 12.72-565.54 11.21-11.29-9.6-10.45 256.43-10.45Zm-908.24 315.94 134.06.74 8.87 4.36c9.65 4.75 13.51 9.14 23.16 26.3l5.25 9.34.4 40.28.4 40.28-26.72 51.89-.13 87.77-.13 87.78 26.17 45.33.37 88.33.36 88.34h-80.06v-500h-92Zm-230.76 37.4h172v84l12.34.06c19.04.09 28.34 3.36 35.56 12.46l4.1 5.18v138l4.7.88c13.71 2.58 22.2 21.37 16.17 35.82-2.44 5.84-10.44 12.61-16.17 13.68l-4.7.88v164.38l-7.47 22.4c-7.57 22.76-8.95 25.14-17.53 30.46-2.38 1.48-4.33 3.24-4.33 3.91 0 .67-.58 1.22-1.3 1.22-1.82 0-13.37 8.29-13.37 9.6 0 .59-1.15 1.07-2.57 1.07-1.41 0-3.47.9-4.57 2s-2.66 2-3.48 2c-.82 0-3.86 1.21-6.76 2.69l-5.28 2.7v25.81c0 21.32.34 26.1 2 27.47 1.69 1.4 2 7.49 2 39.5v37.83h94.66v89.34h70.67v-164h76.11l-.4 85.66c-.45 95.48.06 90.18-9.96 103.7-3.25 4.4-7.45 8.08-11.65 10.23-13.27 6.77-14.66 6.89-72.77 5.94-63.3-1.02-85.34.2-111.33 6.2-9.53 2.2-23.93 5.32-32 6.92-8.07 1.6-26.97 6.41-42 10.7-15.03 4.28-31.41 8.73-36.41 9.88l-.01.02c-29.07 6.69-46.48-.1-57.88-22.58-2.6-5.13-9.15-16.11-14.55-24.4-5.4-8.27-9.82-15.54-9.82-16.13 0-.59 10.79-8.21 23.97-16.94l23.97-15.85.03-27.68.03-27.65h-22.4c-15.64 0-22.88-.5-24-1.61-2.28-2.28-2.28-70.53 0-72.8 1.12-1.12 8.21-1.59 23.34-1.59h21.73v-6.41c0-6.77 1.65-9.59 5.6-9.59 2.2 0 2.4-1.67 2.4-20.67v-20.68h-15.06c-8.3 0-15.67-.59-16.4-1.32-1.89-1.89-.85-380.02 1.05-382.32.81-.99 4.41-1.68 8.57-1.68h7.17l.2-13c.11-7.15.38-14.8.58-17 .21-2.2.8-12.56 1.32-23 .52-10.45 1.4-19 1.97-19 .56 0 2.73-2.72 4.81-6.04 4.79-7.64 16.11-11.72 28.79-10.4l7.67.8v-25.69h-89.34Zm-273.33 4h214.67v44h-44v244.4c0 188.31-.37 244.77-1.6 246-1.2 1.2-18.13 1.6-68 1.6h-66.4v182c0 100.1.21 182 .47 182s42-23.4 92.73-52c50.73-28.6 92.69-52 93.23-52 .91 0 14.94 22.62 16.06 25.9 1.72 4.98 14.17 33.56 14.87 34.1 1.23.98 7.22 18.53 6.55 19.18-.32.3-39.58 22.58-87.24 49.51-93.3 52.71-118.17 66.89-130.67 74.46l-.01-.01c-15.85 9.61-23.76 4.33-34.73-23.14l-7.2-18-.03-268.33-.04-268.33h-173.33v26.4c0 18.75-.46 26.86-1.6 28-2.39 2.39-338.8 2.32-340.8-.08-.86-1.05-1.74-19.49-2.32-49-1.25-62.93-1.34-71.29-1.67-146.99l-.27-65h-16v-10.18c0-15.93 1.64-19.67 11.22-25.53l8.11-4.96 518-.7Zm-530.54.01h480v80h-24v-46.67h-430.67v46.67h-25.33Zm2335.84 172.03h42.67v6.67h130.67v-.04h80.01l52.46 30.55c66.52 38.75 79.68 44.61 104.89 46.69 12.69 1.05 19.04-2.06 29.24-14.32 5.5-6.62 7.59-9.1 10.7-8.85 36.14 18.12 145.31 72.6 148.95 74.39 20.79 10.39 22.43 16.47 10 36.87l-7.72 12.66-11.28 2.48-11.27 2.47-35.3 67.34c-19.42 37.03-36.16 69.09-37.22 71.23-1.85 3.74-1.63 4.53 5.33 18.68l7.26 14.77-55.33 110.03c-64.18 127.65-66.12 130.96-81.54 140.15-14.05 8.39-11.3 8.19-112 8.19h-92.92v-189.02l.18-.24v-87.32l-8.83-10.42c-7.66-5.85-7.58-4.65-7.58-114.77v-100.85h-127.73c-97.57 0-128.11-.38-129.33-1.6-1.13-1.14-1.6-9.1-1.6-27.34v-65.73h6.62v-5.92c0-10.18-.44-10.08 48.3-10.08h42.37Zm-217.35 159.96 298.48.04 8.46 3.85c23.73 10.79 27.56 27.9 19.64 87.64-5.11 38.51-3.2 35.22-18.52 31.85-15.99-3.52-15.8-3.73-18.63 19.33-.77 6.23-1.74 12.9-2.17 14.81-1 4.5 10.07 7.98 28.07 8.83 22.52 1.06 35.43 3.47 36.73 41.96.47 13.93 2.11 35.92 2.58 45.64l9.44 33.46v172.58l-356.54-2.1Zm-1763.95 313.33v202.67c0 111.47.23 202.67.51 202.67.51 0 26.59-14.38 37.99-20.95l5.83-3.36-.92 29.15c-1.47 46.83 8.64 36.59-95.76 97.03h.01c-85.98 49.77-83 48.39-94.8 44.06-14.02-5.14-22.06-16.41-68.93-96.59l-43.26-74-1.16-178c-1.24-191.21-1.44-184.43 5.78-194.39 6.18-8.54 1.85-8.26 134.38-8.28Zm-633.867.01h317.757l5.39 5.13 5.39 5.12v161.45c0 173.3.31 166.17-7.57 171.53l-.01.01-5.05 3.42-324.007-.04c-231.975-.03-324.791-.45-326.701-1.5-6.25-3.42-6 3.77-6-169.94v-164.3l5.371-4.6c7.74-6.62-10.633-6.28 335.43-6.28Zm1743.607 209.32h1084.3l7.07 4.77c4.95 3.33 9.05 7.79 13.65 14.84l6.58 10.07-.64 532.33-4.36 8.9c-5.07 10.37-12.43 16.96-20.75 18.57-3.06.59-247.19 1.1-542.51 1.13l-536.95.06-7.72-2.83c-10.09-3.71-19.87-13.53-24.41-24.5l-3.3-8-.43-256.67c-.48-286.07-.78-275.25 7.86-284.62 2.81-3.04 8.82-7.45 13.36-9.79ZM270.78 5155.24h856.04c-260.123 149.74-670.036 384.72-856.04 490.91Z"/>
      <path d="m1861 691.655 73 60.536 56.97-42.731 44.51-60.535 8.9-62.316V4.3383H1827.3V150.922h127.67v436.914l-3.79 32.154-27.42 32.154Z"/>
    </g>
    <g id="gravel" fill="#946d3e">
      <path d="M338.717 3754.7v615.23l830.673.04v-614.94Z"/>
      <path d="M2369.12 4947.96c2.48-6.06 3.54-11.96 2.95-16.37l-.65-4.85 6.41.62c11.89 1.14 18.36-12.08 10-20.43-6.3-6.32-20.72-2.46-20.72 5.54 0 1.25-2.9-2.47-6.44-8.27-3.54-5.8-10.03-16.25-14.42-23.21-8.01-12.85-15.96-25.74-23.85-38.67-19.98-32.71-19.28-32-31.14-32-7.99 0-10.52.64-18.06 4.57l-8.76 4.57-12.43-17.57c-4.51-6.32-8.95-12.68-13.33-19.1-.5-.85-1.4-7.45-2.02-14.67l-1.11-13.13-23.6-37.73c-12.98-20.75-23.24-38.3-22.8-39 2.09-3.39 7.16-.24 22.13 13.73 39.48 36.85 44.04 40.71 51.46 43.55 12.77 4.88 26.86 3.12 37.03-4.64 12.82-9.78 13.33-19.97 2.58-51.26-4.08-11.87-7.16-21.85-6.85-22.15.31-.3 11.21-.4 24.23-.2l23.68.36-6.42 7.79-6.92 19.33-.52 11.55 6.09 9.44c13.33 20.67 30.97 22.1 56.75 4.6l8.05-5.47v88.9l-29.98 4.1c-40.5 5.53-44.02 8.23-44.02 33.83 0 22.64 5.61 30.31 39.33 53.77 8.69 6.02 17.26 12.2 25.71 18.54l9.04 6.96-.37 12.46-.38 12.47-15.8 7.17c-11.73 5.33-15.55 6.58-14.85 4.87Zm-54.36-147.77c10.2-2.04 11.31-22.89 1.49-27.97-11.7-6.05-23.88.98-23.76 13.7.1 11.85 8.26 17.07 22.27 14.27Zm65.68-11.2c5.28-5.29 3.7-12.52-4.3-19.73-11.47-10.32-30.74-28.43-35.3-33.17-8.33-8.67-20.4-4.95-20.4 6.29 0 4.8.75 6.06 6.97 11.66 11.46 10.32 30.73 28.43 35.3 33.18 5.19 5.4 13.3 6.2 17.73 1.77Z"/>
      <path d="M3247.12 4954.46v-6.53l-6.64-1.6c-13.86-3.32-23.19-14.32-23.19-27.34 0-13.01 9.33-24.01 23.19-27.34l6.64-1.59v-14.4h140v14.4l6.64 1.6c13.86 3.32 23.19 14.32 23.19 27.33 0 13.02-9.33 24.02-23.19 27.34l-6.64 1.6v13.06h-140Zm30.06-26.07c2.53-2.53 3.27-4.67 3.27-9.4 0-4.72-.74-6.87-3.27-9.39-2.52-2.52-4.67-3.27-9.4-3.27-4.71 0-6.86.75-9.39 3.27-2.52 2.52-3.27 4.67-3.27 9.4 0 4.72.75 6.86 3.27 9.39 2.53 2.52 4.68 3.27 9.4 3.27 4.72 0 6.87-.75 9.4-3.27Zm49.33 0c2.53-2.53 3.28-4.67 3.28-9.4 0-4.72-.75-6.87-3.28-9.39-2.52-2.52-4.67-3.27-9.39-3.27-4.72 0-6.87.75-9.4 3.27-2.52 2.52-3.27 4.67-3.27 9.4 0 4.72.75 6.86 3.28 9.39 2.53 2.53 4.67 3.27 9.39 3.27 4.72 0 6.87-.75 9.4-3.27Zm49.34 0c2.52-2.53 3.27-4.67 3.27-9.4 0-4.72-.75-6.87-3.27-9.39-2.53-2.52-4.68-3.27-9.4-3.27-4.72 0-6.87.75-9.4 3.27-2.52 2.52-3.26 4.67-3.26 9.4 0 4.72.74 6.86 3.27 9.39 2.52 2.52 4.67 3.27 9.4 3.27s6.86-.75 9.39-3.27Z"/>
      <path d="M1238.32 4608.96c-6.44-2.38-8.28-10.16-3.53-14.91 7.94-7.95 20.58 3.87 13.04 12.2-2.78 3.08-6.02 4-9.51 2.71Z"/>
      <path d="M1105.75 4613.06c-4.08-1.16-4.06-1.28 3.72-19.05 6.78-15.5 7.49-16.1 12.75-10.83 12.42 12.42.18 34.64-16.47 29.88Z"/>
      <path d="M762.373 4639.76c-10.16-4.07-7.5-19.16 3.38-19.16 5.4 0 9.78 4.37 9.78 9.77 0 6.69-7.16 11.8-13.16 9.39Z"/>
      <path d="M717.233 4675.66c-13.37-4.1-17.62-20.75-7.9-30.9 12.98-13.54 35.94-.41 31.05 17.76-1.3 4.84-9.07 13.14-12.34 13.18-.89.01-2.82.27-4.28.58-1.47.31-4.4.03-6.53-.62Z"/>
      <path d="M897.753 4614.36v-96h107.997v192H897.753Zm37.97 67.05c1.87-9.97 8.87-17.7 16.03-17.7 7.16 0 14.16 7.73 16.03 17.7l.93 4.95h18.37v-144h-18.32l-.88 5.47c-3.87 24.2-28.4 24.2-32.26 0l-.88-5.47h-19.66v144h19.7Z"/>
      <path d="M657.753 4734.66c-5.33-1.94-5.44-3.17-1.03-11.2 4.61-8.38 7.08-9.53 11.05-5.15 6.28 6.94-1.4 19.48-10.02 16.35Z"/>
      <path d="M857.043 4738.36c-9.48-3.84-7.97-17.9 2.05-19.02 3.23-.37 3.35-.08 4 9.28.6 8.64-.35 11.96-3.11 10.92-.13-.04-1.45-.57-2.94-1.18Z"/>
      <path d="M743.903 4742.46c-8.43-9.32-2.83-26.07 9.87-29.5 16.74-4.5 30.6 16.87 19.15 29.53-3.33 3.68-25.68 3.66-29.02-.03Z"/>
      <path d="M3295.62 4148.76c-10.47-5.07-3.19-21.54 7.56-17.09 7.62 3.16 7.9 13.75.47 17.14-3.88 1.77-4.28 1.77-8.03-.05Z"/>
      <path d="M3220.92 4148.76c-10.47-5.07-3.19-21.54 7.56-17.09 7.62 3.16 7.9 13.75.47 17.14-3.88 1.77-4.28 1.77-8.03-.05Z"/>
      <path d="m3235.42 4204.26-4.33-4.54v-21.88c0-21.7.03-21.9 3.23-24 1.78-1.17 3.62-3.34 4.09-4.82.82-2.58 1.93-2.7 24.01-2.7 22.08 0 23.2.12 24.01 2.7.47 1.48 2.31 3.65 4.1 4.82 3.2 2.1 3.22 2.3 3.22 24v21.9l-9.24 9.24-44.76-.18Zm34.08-10.42c18.94-10.5 3.44-40.78-15.8-30.84-14.55 7.53-8.37 32.55 8.05 32.55 2.57 0 6.06-.77 7.75-1.7Z"/>
      <path d="M3295.62 4223.46c-10.47-5.07-3.19-21.54 7.56-17.09 7.62 3.16 7.9 13.75.47 17.14-3.88 1.77-4.28 1.77-8.03-.05Z"/>
      <path d="M3220.92 4223.46c-10.47-5.07-3.19-21.54 7.56-17.09 7.62 3.16 7.9 13.75.47 17.14-3.88 1.77-4.28 1.77-8.03-.05Z"/>
      <path d="m3235.42 4278.96-4.33-4.54v-21.88c0-21.7.03-21.9 3.23-24 1.78-1.17 3.62-3.34 4.09-4.82.82-2.58 1.93-2.7 24.01-2.7 22.08 0 23.2.12 24.01 2.7.47 1.48 2.31 3.65 4.1 4.82 3.2 2.1 3.22 2.3 3.22 24v21.9l-9.24 9.24-44.76-.18Zm34.08-10.42c18.94-10.5 3.44-40.78-15.8-30.84-14.55 7.53-8.37 32.55 8.05 32.55 2.57 0 6.06-.77 7.75-1.7Z"/>
      <path d="M3295.62 4298.06c-10.47-5.07-3.19-21.54 7.56-17.09 7.62 3.16 7.9 13.75.47 17.14-3.88 1.77-4.28 1.77-8.03-.05Z"/>
      <path d="M3220.92 4298.06c-10.47-5.07-3.19-21.54 7.56-17.09 7.62 3.16 7.9 13.75.47 17.14-3.88 1.77-4.28 1.77-8.03-.05Z"/>
      <path d="M3293.12 4335.76c-.93-2.92-7.42-3.51-54.25-4.95l-27.54-.84-.86-5.72c-.93-6.25-1.45-6.64-10.56-8l-6.17-.93v-114.18l3-.43c3.54-.5 4.52-11.82 4.83-56.1l.17-25h5.23c8.62 0 9.44-.76 9.44-8.8v-7.2h6.4c7.33 0 9.6-1.63 9.6-6.94v-3.76l86 .7.34 122.34.34 122.33h-12.58c-11.18 0-12.68-.28-13.39-2.53Zm-59.83-32.05c2.32-1.42 4.6-3.81 5.09-5.33.84-2.65 1.79-2.76 24.03-2.76 22.24 0 23.19.1 24.03 2.76 3.22 10.15 22.69 10.12 27.95-.05 4.01-7.77.77-19.9-5.89-22.01-2.65-.84-2.76-1.8-2.76-23.37 0-21.56.12-22.52 2.76-23.36 3.84-1.22 7.9-8.4 7.9-13.97s-4.06-12.75-7.9-13.97c-2.65-.84-2.76-1.8-2.76-23.36 0-21.57.12-22.53 2.76-23.37 6.66-2.1 9.9-14.24 5.89-22-5.02-9.71-22.38-10.52-27.32-1.29-1.34 2.5-2.83 2.66-24.66 2.66s-23.33-.16-24.66-2.66c-4.94-9.23-22.3-8.42-27.32 1.28-4.02 7.77-.77 19.9 5.89 22.01 2.64.84 2.76 1.8 2.76 23.37 0 21.56-.12 22.52-2.76 23.36-3.84 1.22-7.9 8.4-7.9 13.97s4.06 12.75 7.9 13.97c2.64.84 2.76 1.8 2.76 23.36 0 21.57-.12 22.53-2.76 23.37-3.77 1.2-7.9 8.36-7.9 13.7-.02 13.01 13.65 20.53 24.87 13.69Z"/>
    </g>
    <g id="green" fill="#2f4039">
      <path d="m4205.42 2116.66-4.48-12c-2.11-5.68-4.75-10.59-5.85-10.9-8.07-2.34-92-14.39-94.98-13.64-4.8 1.2-7.47 5.51-7.96 12.81l-.4 5.93 54 9.57c59.18 10.5 60.59 10.68 59.67 8.23Z"/>
      <path d="m4489.52 2169.22-4.42-11.34c-2.2-5.63-4.9-10.5-6-10.82-1.11-.32-19.24-4-40.28-8.17l-38.25-7.6-11.38 8.44c-6.26 4.64-11.06 8.77-10.66 9.18 2.1 2.14 111.75 22.21 111 20.31Z"/>
      <path d="M4754.82 2205.87c2.34-13.1 5.4-11.46-34.1-18.23l-33.68-5.77-12.52 8.56c-6.89 4.71-12.24 8.86-11.9 9.23.98 1.03 84.77 17.18 87.72 16.9 2.17-.2 2.93-2 4.48-10.69Z"/>
      <path d="M1073.75 4673.56c0-1.16 6.03-15.16 13.4-31.1l13.4-29 7.05.6c19.92 1.64 29.94-26.52 12.29-34.56l-3.2-1.46 6.6-14.18c8.36-17.95 6.2-16.2 32.43-26.31 28.58-11.02 23.65-12.95 60.03 23.45 27.92 27.95 29.1 29.34 24.99 29.34-5.77 0-9.66 4.03-9.66 10 0 6.13 3.87 10 10 10 5.96 0 9.99-3.88 10.04-9.66l.04-4.34 3.96 4.36c4.2 4.62 4.5 5.4 2.93 7.86-.77 1.22-181.13 67.12-183.68 67.12-.34 0-.62-.96-.62-2.12Zm42.67-27.22c1.65-1.65 2.66-4.44 2.66-7.33 0-2.9-1.01-5.69-2.66-7.34-1.65-1.65-4.45-2.66-7.34-2.66-2.89 0-5.68 1.01-7.33 2.66-1.65 1.65-2.67 4.45-2.67 7.34 0 2.89 1.02 5.68 2.67 7.33 1.65 1.65 4.44 2.67 7.33 2.67 2.9 0 5.69-1.02 7.34-2.67Zm36-4c1.65-1.65 2.66-4.44 2.66-7.33 0-2.9-1.01-5.69-2.66-7.34-1.65-1.65-4.45-2.66-7.34-2.66-2.89 0-5.68 1.01-7.33 2.66-1.65 1.65-2.67 4.45-2.67 7.34 0 2.89 1.02 5.68 2.67 7.33 1.65 1.65 4.44 2.67 7.33 2.67 2.9 0 5.69-1.02 7.34-2.67Zm47.6-53.28c11.57-7.05 11.09-26.5-.81-32.65-13-6.73-28.1 2.05-28.12 16.33-.01 11.38 7.43 18.92 18.66 18.92 3.6 0 7.7-1.04 10.27-2.6Zm-51.6-21.39c1.65-1.65 2.66-4.44 2.66-7.33 0-2.89-1.01-5.68-2.66-7.33-1.65-1.65-4.45-2.67-7.34-2.67-2.89 0-5.68 1.02-7.33 2.67-1.65 1.65-2.67 4.44-2.67 7.33 0 2.89 1.02 5.68 2.67 7.33 1.65 1.65 4.44 2.67 7.33 2.67 2.9 0 5.69-1.02 7.34-2.67Z"/>
      <path d="M915.093 4562.96v-20.67h20v4.8c0 2.64.98 6.86 2.17 9.37 8.24 17.37 31.16 10.48 31.16-9.37v-4.8h18.67v41.34h-72Z"/>
      <path d="M915.093 4614.36v-29.33h72v58.66h-72Z"/>
      <path d="M915.093 4665.66v-20.67h72v41.34h-18.67v-4.14c0-2.27-.97-6.18-2.17-8.7-8.06-16.99-31.16-10.53-31.16 8.7v4.14h-20Z"/>
      <path d="M650.093 4744.16c-2.25-.9-2.11-6 .24-9.2 1.53-2.07 2.25-2.25 3.6-.92.93.92 3.87 1.67 6.53 1.67 10.4 0 14.62-12.4 6.53-19.21l-4.1-3.45 34.28-59c39.66-68.29 35.63-62.37 38.77-57.03 8.87 15.06 32.88 11.4 36.36-5.56.78-3.82 1.38-3.37 44.12 32.75 51.9 43.87 48 38.2 48 69.83v24.34h-4.43c-5.9 0-10.23 4.6-10.23 10.85 0 5.77 4.51 10.48 10.03 10.48 3.69 0 3.76.11 1.54 2.33-2.5 2.5-87.63 4.5-87.53 2.06.02-.58.92-2.22 2-3.65 8.14-10.76-2.72-28.72-17.38-28.72-14.66 0-25.52 17.95-17.37 28.72 1.07 1.43 1.97 3.04 2 3.6.04 1.09-90.26 1.2-92.96.11Zm169.91-15.35c6.88-6.46 2.07-18.43-7.4-18.43-6.37 0-10.85 4.32-10.85 10.48 0 9.7 11.2 14.57 18.25 7.95Zm-106.67-10.67c6.88-6.46 2.07-18.43-7.4-18.43-6.37 0-10.85 4.33-10.85 10.48 0 9.7 11.2 14.58 18.25 7.95Zm116.9-22.3c16.6-10.93 9.29-36.11-10.48-36.11-11.73 0-19.31 7.58-19.31 19.31 0 11.74 7.58 19.32 19.31 19.32 4.3 0 8.03-.9 10.48-2.51Zm-71.56-3.03c6.87-6.46 2.07-18.43-7.4-18.43-6.37 0-10.85 4.32-10.85 10.48 0 9.7 11.2 14.57 18.25 7.95Zm-25.77-18.3c16.59-10.94 9.28-36.12-10.48-36.12-11.73 0-19.32 7.59-19.32 19.32s7.59 19.32 19.32 19.32c4.3 0 8.02-.9 10.48-2.52Zm75.1-29.7c6.88-6.46 2.07-18.43-7.4-18.43-6.37 0-10.85 4.32-10.85 10.48 0 9.7 11.2 14.57 18.25 7.95Zm-34.67-6.67c6.88-6.46 2.08-18.43-7.4-18.43-6.37 0-10.85 4.33-10.85 10.48 0 9.7 11.2 14.58 18.25 7.95Z"/>
      <path d="M1991.12 2056.33v-12.67h85.33V2069h-85.33Z"/>
      <path d="M1889.72 2056.33v-12.67h85.33V2069h-85.33Z"/>
      <path d="M2419.62 2141.75c-6.4-2.78-7.18-7.03-7.18-38.75 0-37.24 3.06-44.44 16.49-38.83 6.77 2.83 7.51 6.68 7.51 38.83 0 32.1-.75 36-7.47 38.8-5.22 2.19-4.2 2.2-9.35-.05Z"/>
      <path d="M2680.42 2236.99c-6.48-6.48-3.06-45.33 4-45.33 5.29 0 6.67 4.97 6.67 24s-1.38 24-6.67 24c-.73 0-2.53-1.2-4-2.67Z"/>
      <path d="M3914.12 2246.96c-1.87-1.31-4.57-7.39-8.13-18.3-7.9-24.2-7.93-23.24.7-25.17 9.37-2.1 9.24-.62 2.03-22.42l-6.29-19-13.71 1.12-3.3-12.65c-3.7-14.13-3.28-18.91 1.77-20.67 3.16-1.1 92.87 14.73 112.84 19.9 11.52 3 11.5 2.86 6.23 39.17-5.28 36.32-7.12 43.18-12.18 45.22-3.93 1.6-54.01 11.48-64.98 12.83-3.67.45-7.9 1.07-9.42 1.37-1.52.31-4.02-.32-5.56-1.4Z"/>
      <path d="M3768.92 2302.38c-17.07-6.08-25.72-17.44-26.05-34.25-.18-9.03 20.96-139.02 24.43-150.22 2.87-9.25 3.86-9.3 41.04-1.87l33 6.6 4.62 24.85 4.6 24.84-5.41 2.64c-2.98 1.45-5.67 2.8-5.96 2.98-1.18.75 7.2 38.05 8.67 38.62.87.33 4.56.06 8.2-.6l6.63-1.2 9.58 44.23-3.27 6.66c-6.24 12.74-2.65 11.22-91.8 38.69-.8.25-4.54-.64-8.28-1.97Z"/>
      <path d="M1992.92 2331.89c1.73-1.91 2.2-5.2 2.2-15.28 0-14.64 1.24-12.61-16.22-26.6l-10.41-8.35V2273l.02-8.67 9.56-6.67c4.54-3.13 8.97-6.39 13.31-9.78l3.76-3.12v-24.28c0-17.11-.48-24.76-1.6-25.88-2.28-2.28-66.53-2.28-68.8 0-.91.9-1.6 5.24-1.6 10v8.4h-86.67v-7.74c0-10.99.13-10.93-24.9-10.93h-21.7l-12.74 17.22-20.49.11-15.31-17.33h-55.53v-30.67h148.8c163.71 0 156.81-.33 168.53 8.16 8.63 6.25 11.03 13.51 27.5 83.18 8.31 35.2 15.96 67.45 17 71.66l1.87 7.67h-29.39c-28.39 0-29.31-.08-27.18-2.44Z"/>
      <path d="M3176.42 2349.43c-4-2.14-7.96-4.35-11.88-6.63-1.32-1.1 4.9-6.12 11.76-9.47 16.32-8 49.92-4.9 52.47 4.84.79 3.02-2.1 4.46-13.64 6.78-4.01.81-11.01 3.55-15.55 6.09-10.3 5.76-9.55 5.8-23.16-1.61Z"/>
      <path d="M2973.72 2343.19c0-9.8-.39-21.5-.86-26l-.85-8.2 4.52.02c11.04.05 10.52-1.17 10.52 24.7 0 27.68.11 27.28-7.47 27.28h-5.86Z"/>
      <path d="M3470.32 2364.22c.45-1.16.8-3.41.8-5 0-2.88.13-2.89 24.34-2.43 27.91.53 25.25-.06 24.18 5.33l-.84 4.2h-24.65c-21.92 0-24.55-.22-23.83-2.1Z"/>
      <path d="M3292.42 2363.25c-8.33-4.97-16.93-9.5-25.75-13.56-15.53-7.05-16-7.38-14.78-10.58 1.19-3.09 4.37-2.77 41.53 4.14 39.38 7.33 38.72 6.8 23.5 18.96-12.23 9.76-10.57 9.69-24.5 1.04Z"/>
      <path d="M2727.12 2354.99v-32.67h13.33v65.34h-13.33Z"/>
      <path d="M3263.62 2437.68c-6.29-5.6-8.4-8.44-9.1-12.23-2.9-15.45-14.38-25.8-28.61-25.8-3.45 0-5.78-2.02-18.05-15.66-4.71-5.25-4.13-5.95 10.6-12.88 24.24-11.4 52.46-3.14 67.1 19.63 10.85 16.87 10.19 26.72-2.9 42.93-10.83 13.4-8.95 13.01-19.04 4.01Z"/>
      <path d="m3130.82 2449.35-6.23-.5.67-7.6c2.26-25.87 11.54-55.52 24.17-77.26 5.83-10.03 4.85-9.94 16.31-1.37 11.23 8.4 11.17 6.29.66 24.39-10.93 18.83-12.7 22.9-18.74 43.32-4.33 14.62-7.3 20.58-9.86 19.76-.41-.14-3.55-.47-6.98-.74Z"/>
      <path d="M2680.42 2452.99c-6.48-6.48-3.06-45.33 4-45.33 5.29 0 6.67 4.97 6.67 24s-1.38 24-6.67 24c-.73 0-2.53-1.2-4-2.67Z"/>
      <path d="M2128.42 2477.67c0-.36-10.5-39.08-23.33-86.05l-23.34-85.4v-209.23h61.34v381.33h-7.34c-4.03 0-7.33-.3-7.33-.65Z"/>
      <path d="m3646.92 2484.03-4.8-.51-.87-12.14c-.52-7.97-.8-15.95-.86-23.93v-11.79h12v18.49c0 10.16.38 21.26.85 24.66.47 3.4.32 6.09-.33 5.97-.65-.13-3.35-.46-5.99-.74Z"/>
      <path d="M3118.22 2514.66c.41-3.48 1.14-16.7 1.61-29.37.77-20.45 1.11-22.97 3.05-22.42 1.2.35 5.63 1.04 9.84 1.53l7.67.9.01 18.85c0 10.36.4 22.9.86 27.84l.85 9h-24.63Z"/>
      <path d="M2728.42 2502.99v-32.67h13.33v65.34h-13.33Z"/>
      <path d="M3188.62 2542.6c-5.22-2.6-14.06-18.68-17-30.94-3.95-16.41-.98-59.95 5.06-74.27l4.05-9.6 3.51 2.16c17.22 10.55 20.2 13.53 26.54 26.6 5.06 10.4 12.24 21.22 18.62 28.03 3.2 3.42 4.87 6.25 4.3 7.33-1.15 2.16-8.72 29.37-9.96 35.75-2.81 14.6-20.6 22.16-35.12 14.94Z"/>
      <path d="M3255.22 2558.02c-9.21-1.36-8.64.27-6.02-17.23l2.27-15.13 16.52.88-2.46 15.56c-1.34 8.56-2.59 15.89-2.76 16.28-.17.39-3.56.23-7.55-.36Z"/>
      <path d="m3648.12 2560.03-4.94-.52-.4-23.26-.39-23.26h12.67v24c0 13.2-.45 23.9-1 23.78-.55-.12-3.22-.46-5.94-.74Z"/>
      <path d="M1796.52 2578.13c2.09-5.24 4.24-10.47 6.43-15.67l3.73-8.8 41.76-.74v32.07h-54.62Z"/>
      <path d="M2412.92 2584.46c-6.4-2.78-7.18-7.03-7.18-38.75 0-32.16.75-36 7.51-38.83 13.43-5.61 16.5 1.6 16.5 38.83 0 32.1-.76 36-7.48 38.8-5.22 2.19-4.2 2.2-9.35-.05Z"/>
      <path d="M2680.42 2602.36c-6.48-6.48-3.06-45.33 4-45.33 5.29 0 6.67 4.97 6.67 24s-1.38 24-6.67 24c-.73 0-2.53-1.2-4-2.67Z"/>
      <path d="M2137.72 2607.26v-24.38l-7.33-7.24-7.34-7.24v-42.1h64v105.34h-49.33Z"/>
      <path d="M3135.02 2633.56c-6.77-15.4-15.94-80.8-11.92-85.02 2.17-2.28 22.66-4.03 24.59-2.1 3.1 3.1 23.11 53.9 22.2 56.32-.61 1.6-6.95 9.5-14.08 17.56-19.92 22.52-17.41 20.92-20.79 13.24Z"/>
      <path d="M2035.12 2660.36c0-15.63 1.68-14.7-25.98-14.23l-22.69.38.4-20.56c.33-17.27.06-20.85-1.67-22.28-1.56-1.3-2.06-4.43-2.06-12.88v-11.17h-62.67v-40h36.4c41.09 0 39.6.38 39.6-10.27v-7.07h82.67v150.67h-44Z"/>
      <path d="M2731.12 2652.36v-32.67h13.33v65.34h-13.33Z"/>
      <path d="M3189.62 2695.06c-12.1-4.9-37.18-26.99-37.18-32.74 0-1.16 22.78-26.74 27.77-31.17 2.6-2.3 3.08-2.34 6-.43 3.44 2.26 31.83 49.6 34.81 58.05l1.83 5.18-4.58 2.2c-6.6 3.14-19.41 2.66-28.65-1.1Z"/>
      <path d="M3289.12 2703.16c-17.85-5.79-20.2-7.89-35.69-31.91-16.27-25.24-18.3-28.96-18.3-33.57 0-3.06 8-57.25 8.47-57.45.11-.05 3.33.16 7.15.46l6.96.54 5.7 9.24c6.27 10.15 4.68 9.29 26.9 14.55 6.5 1.54 12.27 2.31 12.79 1.71 1.64-1.87 16.4-109.92 15.18-111.06-.63-.59-7.58-2.41-15.44-4.05l-14.3-2.97-17.86 13.3-6.58-1.74c-3.62-.95-6.97-2.14-7.44-2.64-2.27-2.39 48.14-48.35 53.6-48.87 5.79-.55 28.3 1.93 29.64 3.26.45.46-8.24 57.12-19.3 125.92-11.08 68.8-20.14 125.84-20.14 126.76 0 2.15-.26 2.11-11.34-1.48Z"/>
      <path d="M3780.82 2712.06c-5-.97-6.41-14.17-23.08-216.9-5.66-68.9-2.22-113.29 10.13-130.37 17.85-24.72 26.1-31.05 49.64-38.14 20.62-6.21 25.9-5.94 31.66 1.62 7.68 10.08 7.7 11.48.24 47.13l-6.74 32.27h-5.75c-6.72 0-6.31-1-8.4 20.67-2.01 21.03-2.19 20 3.81 21.8 3.89 1.16 5.07 2.15 4.66 3.88-.88 3.7-20.53 116.3-20.53 117.64 0 .66-3.15 1.39-7 1.6l-7 .41-2.22 17.33c-3.26 25.47-3.45 24.04 3.31 25.94l5.76 1.6-7.76 42.24c-4.27 23.22-8.45 43.92-9.3 46-1.2 2.94-6.81 7.07-8.21 6.04-1.05-.32-2.13-.57-3.22-.75Z"/>
      <path d="m3964.32 2713.16-6.08-2.14 13.66-78.66c7.51-43.27 14.36-82.76 15.21-87.75 1.78-10.34 3.48-10.16 10 1.08l3.09 5.33-14.57 81.34c-8.01 44.73-14.72 81.7-14.9 82.13-.18.45-3.06-.15-6.41-1.33Z"/>
      <path d="M2139.12 2730.96v-31.33h48v27.73c0 29.35.32 30.93 6.27 30.93 1.83 0 3.06.8 3.06 2 0 1.72-4.07 2-28.66 2h-28.67Z"/>
      <path d="M3125.72 2809.66v-10h54.67v20h-54.67Z"/>
      <path d="M3206.72 2838.66c-4.53-.47-5-.9-5-4.44v-3.92h56v9.33l-23-.22c-12.65-.13-25.25-.46-28-.75Z"/>
      <path d="M2055.12 2850.36v-25.33h-20v-17.34h45.33v68h-25.33Z"/>
      <path d="M2733.72 2843.66v-64h13.33v128h-13.33Z"/>
      <path d="M2139.12 2877.66v-38h49.33v76h-49.33Z"/>
      <path d="M3881.72 2997.26c0-.63 1.85-10.7 4.12-22.38 2.26-11.68 4.28-22.43 4.48-23.9.2-1.46.71-4.16 1.14-6 .42-1.83 4.46-22.3 8.98-45.49l8.22-42.15 5.1 1.3c2.8.7 4.88 1.97 4.61 2.81-.27.84-6.27 30.03-13.35 64.87-10.57 52.06-13.37 63.88-15.74 66.45-3.39 3.66-7.56 6.14-7.56 4.5Z"/>
      <path d="M2049.72 3005.66c-1.4-1.69-7.27-2-37.5-2h-35.83l-.02-8.33c-.01-7.74-.26-8.46-3.6-10-4.5-2.1-62.45-2.4-63.72-.34-.45.74-2.59 1.34-4.75 1.34h-3.92V2829h11.92c6.56 0 12.3.6 12.75 1.33.45.73 3.49 1.33 6.74 1.33h5.93v129.33h117.33v-65.33h25.33v112h-14.5c-11.27 0-14.88-.45-16.17-2Z"/>
      <path d="M3448.52 3015.46c-23.07-4.37-42.11-8.12-42.31-8.32-.54-.54 18.38-144.07 19.08-144.78 1.16-1.19 57.33 9.59 63.17 12.12 12.79 5.54 24.02 20.47 25.43 33.8.72 6.83-12.66 89.91-18.08 112.34-.94 3.84 1.73 4.13-47.29-5.16Z"/>
      <path d="M2741.72 3028.36v-32.67h13.33v65.34h-13.33Z"/>
      <path d="M1650.52 3084.56c-9.85-36.4-49.7-56.98-85.45-44.15-5.13 1.84-10.24 3.66-11.36 4.04-2.13.72-69.3-62.61-69.3-65.36-.02-2.5 37.73-83.34 38.65-82.78 8.43 5.22 124.2 50.05 127.8 49.5 3.52-.55 13.1 2.7 45.67 15.44l41.21 16.13v115.6h-84.93Z"/>
      <path d="M2139.12 3047.66v-65.33h49.33V3113h-49.33Z"/>
      <path d="M2059.12 3095.66v-45.33h20l-.03 33.66c-.03 35.04-.75 41.82-5 47.57-2.33 3.13-11.57 9.36-13.97 9.41-.55.02-1-20.38-1-45.3Z"/>
      <path d="M2412.92 3140.46c-6.4-2.78-7.18-7.03-7.18-38.75 0-37.23 3.06-44.44 16.49-38.83 6.77 2.83 7.51 6.68 7.51 38.83 0 32.1-.75 36-7.47 38.8-5.22 2.19-4.2 2.2-9.35-.05Z"/>
      <path d="M1900.42 3125.66v-16.67h36v33.34h-36Z"/>
      <path d="M3639.72 3144.86c-44.38-9.1-41.88 3.47-22.86-114.54 17.31-107.4 14.9-99.42 41.73-137.92 29.4-42.19 94.23-98.16 108.84-93.97 8.8 2.52 8.78 6.3-.38 56.63l-7.04 38.74-12.1-.15-3.02 16.67c-4.12 22.8-4.23 21.85 2.6 24.1l5.76 1.9-4.9 27.33c-2.71 15.04-7.5 41.86-10.65 59.6l-5.74 32.28-13.5.79-2.43 18.54c-2.79 21.25-2.75 21.5 3.4 22.65l4.6.86-.6 9.64c-2.57 41.76-20.75 49.76-83.7 36.85Z"/>
      <path d="M2680.42 3152.96c-6.48-6.48-3.06-45.33 4-45.33 5.29 0 6.67 4.97 6.67 24s-1.38 24-6.67 24c-.73 0-2.53-1.2-4-2.67Z"/>
      <path d="M1391.52 3184.66c4.38-10.78 77.44-176.61 78.14-177.35.52-.55 14.73 12.4 31.58 28.77l30.64 29.78-2.4 3.9c-6.62 10.73-9.98 38.35-6.23 51.09.39 1.31-18.27 10.93-63.58 32.78-71.69 34.55-69.1 33.37-68.15 31.03Z"/>
      <path d="M4545.72 3142.76v-62.2l22.33.9c12.29.5 28.05 1.25 35.04 1.7l12.7.8 6.6 42.16c7.1 45.4 8.2 66.71 3.83 75.15l-1.9 3.68h-78.6Z"/>
      <path d="M3424.42 3204.36v-8.67h62.67v17.34h-62.67Z"/>
      <path d="M3300.42 3204.36v-8.67h62.67v17.34h-62.67Z"/>
      <path d="M3124.42 3204.36v-8.67h130.67v17.34h-130.67Z"/>
      <path d="M3020.42 3204.36v-8.67h62.67v17.34h-62.67Z"/>
      <path d="M2845.72 3204.36v-8.67h130.67v17.34h-130.67Z"/>
      <path d="M2740.42 3182.96v-30h14.67v42.67h41.33v17.33h-56Z"/>
      <path d="M3599.12 3243.96c-16.35-1.94-16.4-2.35-6.63-63.75l2.99-18.82 6.15 1.92c6.26 1.96 144.74 9.46 148.42 8.05 1.08-.42 4.21-12.83 8.28-32.78l6.54-32.1 16.21-.8 2.36-18.66c3.03-23.9 3.09-23.54-4.37-25.26l-6.04-1.4 19.73-120.28 5.98 1.27c7.68 1.64 7.38 2.15 11.6-19.34 4.07-20.83 4.15-20.38-3.63-21.55l-5.78-.87 5.7-34.95c3.15-19.22 7.6-46.7 9.91-61.07l4.2-26.1 6.6 1.3c8.44 1.66 8.08 2.24 12.32-19.43 4.1-20.94 4.25-20.21-4.3-22.26l-6.45-1.55 8.37-50.25c4.6-27.64 8.72-52.18 9.15-54.53.75-4.07 1.08-4.28 7.68-4.66l6.9-.4 3.73-18.67c4.35-21.71 4.44-21.08-3.5-23.3-7.55-2.11-9.65 16.19 15.11-131.44 26.35-157.05 23.38-144.2 36.23-156.72 13-12.67 23.12-14.1 53.96-7.69l20.12 4.19-5.86 39.97c-6.79 46.38-7.17 42.72 4.7 44.84 7.58 1.36 9.22 2.09 8.8 3.9-.78 3.35-71.18 418.73-71.18 419.98 0 .59-4.86.53-10.8-.14-5.97-.67-11.24-.7-11.8-.07-3.77 4.3-66.77 371.21-66.76 388.81l.02 18.34h-230.59l-.37 18.33-.37 18.33-3.33-.4Zm342.33-709.6c2.38-14.3 4.18-28.4 4-31.32l-.33-5.31-24-5c-13.2-2.76-26.1-4.87-28.65-4.69l-4.66.32-5.02 26.67c-2.76 14.66-4.86 28.46-4.68 30.66l.34 4 26.67 5.57c35.63 7.43 31.19 9.98 36.33-20.9Z"/>
      <path d="M2179.12 3234.96v-34h17.33v31.56c0 27.5.29 31.88 2.21 34 2.12 2.35 1.78 2.44-8.67 2.44h-10.87Z"/>
      <path d="M4198.42 3262.66c-2.87-3.29-5.69-6.62-8.46-10-1.73-2.2.01-2.33 32.64-2.33h34.46l-19.87 20h-32.14Z"/>
      <path d="M3959.72 3262.66c-2.87-3.29-5.69-6.62-8.46-10-1.73-2.2.01-2.33 32.64-2.33h34.46l-19.87 20h-32.14Z"/>
      <path d="M4435.92 3261.66c-3.4-5.52-6.2-10.32-6.2-10.67 0-.34 9.9-.63 22-.63h22l-.01 7.67c-.04 14.17.58 13.67-16.61 13.67h-14.99Z"/>
      <path d="M3305.72 3271.66c-7.52-7.52-1.23-10.67 21.33-10.67 19.03 0 24 1.38 24 6.67s-4.97 6.67-24 6.67c-16.89 0-18.92-.26-21.33-2.67Z"/>
      <path d="M3209.72 3271.66c-7.52-7.52-1.23-10.67 21.33-10.67 19.03 0 24 1.38 24 6.67s-4.97 6.67-24 6.67c-16.89 0-18.92-.26-21.33-2.67Z"/>
      <path d="M2932.42 3271.66c-7.52-7.52-1.23-10.67 21.33-10.67 19.03 0 24 1.38 24 6.67s-4.97 6.67-24 6.67c-16.89 0-18.92-.26-21.33-2.67Z"/>
      <path d="M2852.42 3271.66c-7.52-7.52-1.23-10.67 21.33-10.67 19.03 0 24 1.38 24 6.67s-4.97 6.67-24 6.67c-16.89 0-18.92-.26-21.33-2.67Z"/>
      <path d="M1362.22 3317.36c.37-1.28 2.31-9.65 4.32-18.59 3.6-16 3.7-16.24 7.09-15.66 1.89.32 22.64 2.4 46.1 4.62 45.43 4.3 54.5 5.87 69.42 12.09 8.82 3.67 24.58 15.63 24.58 18.65 0 .73-30.66 1.22-76.09 1.22-71.83 0-76.05-.13-75.42-2.33Z"/>
      <path d="M1943.12 3319.66v-8h97.33v16h-97.33Z"/>
      <path d="M1536.42 3323.96c-4.83-15.22-15.46-27.18-33.29-37.44-8.74-5.03-29.94-9.34-80.08-16.28l-50.08-6.93 2.56-19.51c1.41-10.73 2.67-19.63 2.8-19.79 3.75-4.31 163.04-73.4 165.33-71.71 37.98 28.04 90.07 15.65 104.46-24.85l2.3-6.49h86.04v97.33h153.33v-18.66h260v129.33h-90.66v-14.67h70.66v-23.33c0-22.45-.1-23.34-2.66-23.34-2.51 0-2.67-.89-2.67-14.66v-14.67h-230.67v44h-12v29.33h42.67v16h-100v-89.33h-88v89.33h-9.34v-32h-54.66v32h-14.67v-38.66h-100v40h-19.8Z"/>
      <path d="M2412.92 3349.76c-6.4-2.78-7.18-7.03-7.18-38.75 0-32.15.75-36 7.51-38.83 13.43-5.61 16.5 1.6 16.5 38.83 0 32.1-.76 36-7.48 38.8-5.22 2.19-4.2 2.2-9.35-.05Z"/>
      <path d="M1795.12 3394.96v-10h89.33v20h-89.33Z"/>
      <path d="M1557.72 3394.96v-10h177.33v20h-177.33Z"/>
      <path d="M1956.42 3404.36v-18h120v36h-120Z"/>
      <path d="M2410.22 3456.46c-8.74-3.8-8.3-17.38.68-20.5 13.71-4.78 22.04 14.97 8.67 20.56-5.22 2.18-4.2 2.18-9.35-.06Z"/>
      <path d="M3872.42 3458.96v-10h20v20h-20Z"/>
      <path d="M2410.22 3529.76c-8.74-3.8-8.3-17.38.68-20.5 13.71-4.78 22.04 14.97 8.67 20.56-5.22 2.18-4.2 2.18-9.35-.06Z"/>
      <path d="M4658.22 3540.96c-.8-.8-7.7-3.48-15.32-5.96-7.62-2.47-13.85-4.99-13.85-5.6 0-2.36 17.36-39.43 18.7-39.95 2.27-.87 32.64 13.9 32.52 15.82-.76 12.13-17.9 39.85-22.05 35.69Z"/>
      <path d="M4084.72 3554.06c-4.87-4.87-3.06-5.07 47.07-5.07h48.66v6.67h-47.06c-34.83 0-47.49-.42-48.67-1.6Z"/>
      <path d="m3965.22 3552.36-2.18-3.33h54.03c29.71 0 54.03.5 54.03 1.12 0 5.22-3.2 5.54-54.29 5.54h-49.39Z"/>
      <path d="M3696.42 3578.96v-6h72c79.57 0 76.9-.32 67.86 8.13l-4.14 3.87h-135.72Z"/>
      <path d="M3347.12 3541.86c0-72.3-.26-83.39-2-84.83-4.77-3.96-2.54-12 3.33-12h5.34v63.07c0 47.27.4 63.46 1.6 64.66 1.06 1.07 6.87 1.6 17.33 1.6h15.73v50.67h-41.33Z"/>
      <path d="M2147.12 3620.96v-9.33h70.67v18.66h-70.67Z"/>
      <path d="M2007.12 3620.96v-9.33h70.67v18.66h-70.67Z"/>
      <path d="M1791.12 3620.96v-9.33h70.67v18.66h-70.67Z"/>
      <path d="M1671.12 3620.96v-9.33h70.67v18.66h-70.67Z"/>
      <path d="M1545.72 3620.96v-9.33h70.67v18.66h-70.67Z"/>
      <path d="M1405.72 3620.96v-9.33h70.67v18.66h-70.67Z"/>
      <path d="M3557.72 3628.36v-8.67h10.42c9.83 0 10.63.23 14.25 4l3.83 4h32.33l5.92-8h32.67l13.91-14.08v-35.1l4-2.36 4-2.37v-60.25l-4-3.84c-3.97-3.8-4-3.92-4-18.66v-14.83l-3.94-2.92c-3.24-2.4-5.75-2.92-14-2.92h-10.06v-14.67h46.67v160.71l-14.35 14.31-14.36 14.31h-103.29Z"/>
      <path d="M4169.72 3695.06c-8.43-3.17-15.19-6.41-15.01-7.21.84-3.85 19.47-35.83 22.06-37.87 8-6.32 18.04-6.8 30.47-1.48l4.86 2.08-12.09 25.2c-6.65 13.85-12.73 25.16-13.52 25.12-.79-.05-8.34-2.67-16.77-5.84Z"/>
      <path d="M4466.12 3727.36c-4.23-2.04-4.36-1.69 10.71-29.62 14.23-26.37 14.9-27.22 18.81-24.36 2.38 1.74-22.48 55.8-25.53 55.52-.54-.05-2.34-.74-4-1.54Z"/>
      <path d="M2900.42 3734.36v-9.33h18.67v18.66h-18.67Z"/>
      <path d="M2267.12 3782.36v-16h92v32h-92Z"/>
      <path d="M1387.12 3785.66v-16.67h174.67v33.34h-174.67Z"/>
      <path d="M2900.42 3795.66v-9.33h18.67v18.66h-18.67Z"/>
      <path d="M4097.72 3839.46c-8.43-2.98-15.88-5.92-16.55-6.55-.72-.66 4.45-12.65 12.54-29.08l13.76-27.96 14.8 7.4c5.11 2.5 10.18 5.09 15.2 7.76.97.88-21.67 53.98-22.98 53.91-.8-.04-8.34-2.5-16.77-5.48Z"/>
      <path d="M2167.12 3846.46c-6.2-3.26-24.18-8.27-33.33-9.28l-7.34-.81-.76-26h-89.24v-45.34h172v84l-18.33-.06c-15.15-.04-19.14-.48-23-2.51Z"/>
      <path d="M1688.42 3825.66v-23.33h-98.67v-33.34h122.67v80h-24Z"/>
      <path d="M1232.42 3808.96v-40h126.67v33.33h-101.33v46.67h-25.33Z"/>
      <path d="M3936.02 3882.26c-12.35-4.28-25.7-8.18-29.67-8.68l-7.22-.9v-15.7h7.17c8.53 0 8.83-.69 8.83-20.35v-12.02l7.92.72c5.2.47 11.96 2.55 19.67 6.05 15.16 6.87 25.97 10.2 42.15 13.01l13.07 2.27-2.48 2.83c-6.1 6.94-31.65 35.1-34.18 37.69l-2.81 2.86Z"/>
      <path d="M4262.12 3923.36c-4.23-2.04-4.36-1.69 10.71-29.62 14.23-26.37 14.9-27.22 18.81-24.36 2.38 1.74-22.48 55.8-25.53 55.52-.54-.05-2.34-.74-4-1.54Z"/>
      <path d="M2783.12 3925.66c-13.91-3.63-18.79-11.64-21.32-35.05-.95-8.83-2.7-14.57-8.73-28.65-14.1-32.91-13.26-33.64 38.42-33.64 61.63 0 70.8 7.9 52.17 44.9-17.9 35.58-42.74 57.09-60.54 52.44Z"/>
      <path d="M4023.72 3956.96c-30.98-22.27-31.95-24.06-26.63-49.3.64-3.05-.07-3.69-8.01-7.15-11.35-4.94-11.29-4.22-1.3-15.8l8.66-10.01 16.97 5.3c21.13 6.62 20.02 5.08 13.58 18.82-7.65 16.35-8.22 15.35 16.73 29.64 11.73 6.72 21.33 12.77 21.33 13.44 0 2.8-14.53 32.44-15.87 32.38-.8-.03-12.26-7.83-25.46-17.32Z"/>
      <path d="M1763.92 3973.46c-.47-5.61-.86-53.91-.86-107.33V3769h214.67v44h-21.84c-17.78 0-22.14-.37-23.5-2-2.22-2.68-136.52-3.06-138.17-.4-.54.89-.83 40.19-.63 87.34l.36 85.72h-29.17Z"/>
      <path d="M4324.72 4007.36c-4.23-2.04-4.36-1.69 10.71-29.62 14.23-26.37 14.9-27.22 18.81-24.36 2.38 1.74-22.48 55.8-25.53 55.52-.54-.05-2.34-.74-4-1.54Z"/>
      <path d="M4210.12 4023.36c-4.23-2.04-4.36-1.69 10.71-29.62 14.23-26.37 14.9-27.22 18.81-24.36 2.38 1.74-22.48 55.8-25.53 55.52-.54-.05-2.34-.74-4-1.54Z"/>
      <path d="M2859.72 4033.06c-21.37-7.53-48.17-21.41-64.81-33.58-15.51-11.33-20.42-29.11-11.77-42.6 4.35-6.78 4.82-7.03 25.78-13.87 20.67-6.75 37.28-19.14 44.34-33.07 3.13-6.17 25.8-68.88 25.8-71.36 0-1.9 5.83-6.47 10-7.81 9.96-3.21 16.06 4.77 18.25 23.88 2.63 23 1.32 151.33-1.64 160.36-7.08 21.6-20.68 26.95-45.95 18.05Z"/>
      <path d="M3375.32 4049.16c-12.05-4.16-21.15-15.14-23.6-28.46l-.93-5h71.26l-.92 5c-4.14 22.48-25.22 35.57-45.81 28.46Z"/>
      <path d="M2728.82 4064.36c-6.49-4.55-6.82-7.29-7.3-61.34-.5-55.67-.27-57.35 8.07-61.51 5.99-2.99 7.9-.97 17.02 18.02 13.95 29 19.2 38.99 24.74 46.98 9.5 13.72 7.44 23.18-8.88 40.75-13.03 14.02-27.53 21.4-33.65 17.1Z"/>
      <path d="M3232.42 4058.96v-34h32.78l3.79 12.16c5.01 16.07 25.56 45.17 31.9 45.17.4 0 4.17 2.4 8.36 5.34l7.61 5.33h-84.44Z"/>
      <path d="M3568.42 4111.66v-8h17.33v16h-17.33Z"/>
      <path d="M3503.12 4111.66v-8h17.33v16h-17.33Z"/>
      <path d="M3473.72 4111.66v-8h17.33v16h-17.33Z"/>
      <path d="M3361.72 4111.66v-8h17.33v16h-17.33Z"/>
      <path d="M3907.22 4121.16c-1.74-1.1 32.09-62.87 34.37-62.75 1.82.1 5.71 3.88 5.27 5.13-1.43 4.09-35.35 58.73-36.47 58.75-.73.02-2.16-.49-3.17-1.13Z"/>
      <path d="M3361.72 4144.36v-7.33h286.67v14.66h-286.67Z"/>
      <path d="M3797.72 4153.66v-4.67h65.23l6.97-11.4c8.4-13.74 7.53-13.13 13.52-9.52l4.87 2.94-19.1 27.32h-71.49Z"/>
      <path d="M3744.42 4153.66v-4.67h36v9.34h-36Z"/>
      <path d="M3258.02 4186.26c-10.23-4.1-3.27-19.86 7.04-15.94 8.17 3.1 4.46 20.06-3.77 17.24Z"/>
      <path d="M3193.72 4152.36v-48.67h22.67v6.4c0 7.85-1.6 9.6-8.78 9.6h-5.57l-.97 39c-.96 38.18-1.5 42.34-5.51 42.34-1.53 0-1.84-8.22-1.84-48.67Z"/>
      <path d="M2869.42 4207.66c-19.25-5.8-47.19-42.58-48.66-64.05-1.66-24.23 23.57-60.17 52.81-75.21 19.86-10.21 29.93 27.48 24.75 92.68-3.13 39.49-10.9 52-28.9 46.58Z"/>
      <path d="M2804.22 4241.76c-30.2-8.33-83.07-70.18-82.85-96.94.28-34.68 69.97-110.85 94.55-103.37 10.56 3.21 9.65 14.42-2.93 36.26-17.17 29.8-23.1 47.08-23.32 68-.2 19.72 4.55 32.67 24.5 66.75 9.53 16.29 9.72 26.62.55 29.81-1.37.53-2.77.96-4.2 1.3-.08-.06-2.91-.88-6.3-1.81Z"/>
      <path d="M3258.02 4260.96c-10.23-4.1-3.27-19.86 7.04-15.94 8.17 3.1 4.46 20.06-3.77 17.24Z"/>
      <path d="M3846.02 4303.26c-2.87-3.06-2.9-3.54-2.9-54.8v-51.71l4.14-3.87c5.78-5.4 36.65-6.02 42.7-.86 10.32 8.79 6.48 25.62-7.42 32.58-12.25 6.14-11.42 3.09-11.42 41.66 0 41.23.38 40.09-13.17 40.09-7.72 0-9.45-.45-11.93-3.09Z"/>
      <path d="m3639.02 4333.96-4.74-1.14 4.55-29.6c2.5-16.27 5.08-30.26 5.74-31.07 1.64-2.02 7.69-.7 9.02 1.98.85 1.69-6.06 45.32-9.33 58.9-.4 1.67-1.43 1.85-5.24.93Z"/>
      <path d="M3193.72 4327.16v-11.17l6.33.68c7.97.85 9.25 1.89 10.35 8.4.64 3.8 1.54 5.26 3.24 5.26 18.85 0 77.05 3.15 78.37 4.24 4.08 3.38-.74 3.76-48.29 3.76h-50Z"/>
      <path d="M2095.12 4329.66v-20.67l35-.01c37.4-.02 42.04-.6 56.22-7.1l7.45-3.4v51.85h-98.67Z"/>
      <path d="M4151.42 4352.66c-4.23-2.04-4.36-1.69 10.71-29.61 14.23-26.37 14.9-27.23 18.81-24.37 2.38 1.74-22.48 55.8-25.53 55.52-.54-.05-2.34-.74-4-1.54Z"/>
      <path d="M2727.72 4360.06c-7.63-1.86-7.33.93-7.33-69.04 0-73.05-.83-68.06 11.5-69.52 27.57-3.27 75.83 40.97 75.83 69.52 0 30.65-52.3 75.79-80 69.04Z"/>
      <path d="M4039.42 4362.06c-4.23-2.04-4.36-1.69 10.71-29.62 14.23-26.37 14.9-27.22 18.81-24.36 2.38 1.74-22.48 55.8-25.53 55.52-.54-.05-2.34-.74-4-1.54Z"/>
      <path d="M2736.52 4410.86c-7.97-3.35-10.63-13.02-5.41-19.66 3.96-5.03 17.16-10.86 36.77-16.23 37.96-10.4 42.13-12.18 52.97-22.68l9.76-9.44 5.01-15.93c25.19-79.97 26.93-83.71 37.9-81.3 12.56 2.75 16.16 17.67 17.4 72.03 1.63 71.71-2.54 83.24-33.28 91.8-9.72 2.7-115.12 3.93-121.12 1.41Z"/>
      <path d="M3931.12 4406.36v-13.33h37.43l-1.55 3c-7.23 14.04-19.74 23.62-30.88 23.65l-5 .01Z"/>
      <path d="M2864.42 4446.36v-9.33h20v18.66h-20Z"/>
      <path d="M971.383 4460.26c-2.68-1.88-2.96-3.2-2.96-13.92 0-16.68-1.54-16 35.997-16 37.53 0 36-.69 36 16 0 16.68 1.53 16-36 16-25.057 0-30.567-.35-33.037-2.08Z"/>
      <path d="M3931.12 4463.36c-.07-34.81-.72-33.39 12.32-26.84 8.64 4.34 7.73 3.32 9.64 10.82 2.52 9.94-4.28 26.5-16.58 40.35l-5.32 6Z"/>
      <path d="M337.753 4463.66v-33.33h213.33v66.66h-213.33Zm64.23 7.13c3.08-2.8 3.21-10.73.23-14.03-5.48-6.05-16.46-1.6-16.46 6.67 0 8.58 9.91 13.07 16.23 7.36Z"/>
      <path d="M2864.42 4488.96v-9.33h20v18.66h-20Z"/>
      <path d="M885.753 4494.56c0-9.85-3.65-9.27 64.83-10.32l61.497-.95 2.83 2.84c1.95 1.95 2.84 4.51 2.84 8.18v5.33H885.753Z"/>
      <path d="M2404.42 4436.96v-81.33h30.67v162.67h-30.67Z"/>
      <path d="M1126.46 4518.96c-6.24-2.14-2.3 2.6-34.43-41.47-29.28-40.15-30.83-42.48-29.59-44.49 1.43-2.32 105.34-1.7 109.9.65 5.33 2.76 5.42 3.31 5.4 33.15 0 25.54-.17 27.24-3.19 33.73l-3.18 6.84-19.94 6.66c-18.8 6.28-20.22 6.56-24.97 4.93Z"/>
      <path d="M3233.72 4544.96v-8h68v16h-68Z"/>
      <path d="M3120.42 4544.96v-8h68v16h-68Z"/>
      <path d="M2049.32 4543.56c-4.15-6.66-7.54-12.51-7.52-13 .02-.49 10.27-7.68 22.79-15.98l22.75-15.08 53.36.13c38.5.09 53.88-.3 55.21-1.42 1.5-1.23 1.86-8.12 1.86-35.37V4429h94.65v94.67h-63.66c-89 0-106.6 2.88-154.2 25.19-18.24 8.55-16.37 8.95-25.25-5.3Z"/>
      <path d="M1344.42 4492.96v-62.67h34.67v110.67h-13.34v14.67h-21.33Z"/>
      <path d="m1228.66 4543.36-29.57-32.33v-35.74c0-48.78-2.9-44.93 33.91-44.93 25.43 0 25.73.03 29.22 3.27l3.53 3.27v138.79h-3.76c-3.21 0-8.1-4.73-33.33-32.33Z"/>
      <path d="M807.753 4586.96c-27.13-22.4-50.08-41.7-51-42.92-2.05-2.73-2.4-107.81-.36-111.03 2.37-3.75 101.4-3.66 104.78.1 3.28 3.62 4.84 191.4 1.61 193.45-3.72 2.36-7.46-.33-55.03-39.6Z"/>
      <path d="M1061.81 4559.26c-.05-73.7.16-82.28 2-81.25 1.94 1.08 42.91 57.81 44.23 61.23.5 1.33-38.03 87.39-44.37 99.09-1.54 2.83-1.81-8.98-1.86-79.07Z"/>
      <path d="M3998.22 4679.06c-8.86-3.86-8.28-17.38.88-20.57 2.74-.96 15.36-1.52 34.2-1.52 33.08 0 36.32.66 38.86 7.96 1.91 5.48-.33 11.57-5.2 14.08-5.26 2.73-62.5 2.77-68.74.05Z"/>
      <path d="M2353.72 4709.96c-21.97-11.1-13.9-45 10.7-45 14.35 0 26.12 14.31 23.46 28.52-1.95 10.37-12.91 19.48-23.45 19.48-2.63 0-7.44-1.35-10.71-3Z"/>
      <path d="m629.793 4643.36-.04-82.3 3.13-2.05c5.12-3.36 91.97-2.37 92.63 1.05.51 2.69-13.02 26.19-15.1 26.2-.73.02-7.93-3.6-16-8.04-22.27-12.24-19.25-13.36-35.13 12.98-7.44 12.36-13.52 23.36-13.5 24.46.02 1.1 7.5 7.1 16.64 13.34 9.12 6.23 16.61 11.81 16.63 12.4.02.6-10.36 18.6-23.07 40-12.7 21.41-23.79 40.13-24.63 41.6-1.15 2.02-1.53-17.23-1.56-79.64Z"/>
      <path d="M1761.72 4475.66v-250.67h32v38.5c0 32.56.3 38.76 2 40.16 1.75 1.46 2.03 24.02 2.33 184.07l.34 182.42 92-51.87c50.6-28.54 92.6-51.88 93.33-51.87.73.02 4.7 5.65 8.82 12.54l7.5 12.52-111.5 63.64c-122.55 69.96-124.78 71.22-125.99 71.22-.46 0-.84-112.8-.84-250.67Z"/>
      <path d="M2267.02 4727.36c-21.97-11.1-13.9-45 10.7-45 14.35 0 26.12 14.31 23.46 28.52-1.95 10.37-12.91 19.48-23.45 19.48-2.63 0-7.44-1.35-10.71-3Z"/>
      <path d="M513.753 4627.66v-110.67h37.33v221.33h-37.33Z"/>
      <path d="M1067.09 4744.06c-4.5-1.61-5.33-4.8-5.33-20.54v-15.63l3.95-3.33c4.06-3.42 60.31-23.06 62.38-21.78.58.36 4.65 8.8 9.03 18.73 10.06 22.83 3.45 23.06 71.39-2.52 30.18-11.37 55.4-20.67 56.06-20.67.66 0 1.19 14.7 1.19 33.33v33.33l-98.34-.1c-54.08-.06-99.23-.43-100.33-.82Z"/>
      <path d="M888.423 4742.36c-1.78-1.78-2.67-4.44-2.67-8v-5.33h131.997v5.33c0 11.13 2.9 10.67-65.997 10.67-58.89 0-60.74-.08-63.33-2.67Zm-2.67-128v-114.67h131.997v229.33H885.753Zm119.997 0v-96H897.753v192h107.997Z"/>
      <path d="M1689.72 4609.96v-156.34l-86.02-85.98h-317.98v-30.67h368v33.33h65.34v380.88l-13.87 7.56c-7.63 4.16-14.23 7.56-14.67 7.56-.44 0-.8-70.35-.8-156.34Z"/>
      <path d="M1783.22 4767.56c-3.72-2.94-6.76-5.87-6.76-6.51 0-.65 51.45-30.14 114.33-65.54 62.88-35.4 116.58-65.78 119.33-67.49 2.75-1.7 5-2.87 5-2.58 0 .28 1.47 4.44 3.28 9.23l3.27 8.7-26.94 15.31c-81.67 46.4-167.62 94.96-172.28 97.33-4.84 2.55-9.64 5.19-14.39 7.92-17.04 9.78-17.06 9.79-24.85 3.63Z"/>
      <path d="M2368.42 4790.66c-1.1-.4-7.7-6.27-14.67-13.03-7.05-6.84-14.21-13.56-21.5-20.15-13.2-11.73-14.77-18.13-5.9-23.95 5.32-3.48 9.08-1.55 23.11 11.9 6.94 6.65 13.97 13.19 21.1 19.63 13.39 11.89 15.04 16.24 8.63 22.65-3.76 3.76-6.53 4.52-10.77 2.95Z"/>
      <path d="M2299.02 4794.46c-2.66-2.66-3.9-5.23-3.9-8.1 0-2.87 1.24-5.45 3.9-8.1 2.66-2.65 5.23-3.9 8.1-3.9 2.87 0 5.44 1.23 8.1 3.9 2.66 2.67 3.9 5.23 3.9 8.1 0 2.87-1.24 5.44-3.9 8.1-2.66 2.66-5.23 3.9-8.1 3.9-2.87 0-5.44-1.24-8.1-3.9Z"/>
      <path d="m1351.92 4799.26-7.52-12.42v-204.5h30.67v10.51c0 7.71.53 10.95 2 12.16 1.75 1.45 2 14.68 2 104.16v102.5h-19.63Z"/>
      <path d="M3527.12 4812.36v-8.67h-101.33v16h-36v-24h-142.67v22.67h-36v-8h-94.67v8h-33.33v-157.33h685.33v132h-177.33v28h-64Z"/>
      <path d="M2964.42 4834.36v-13.33h-21.04l-.92-4.93c-8.63-46-79.45-46-88.08 0l-.92 4.93h-146.37v-160h317.33v186.67h-60Z"/>
      <path d="M2343.02 4853.96c-21.97-11.1-13.9-45 10.7-45 14.35 0 26.12 14.31 23.46 28.52-1.95 10.37-12.92 19.48-23.45 19.48-2.63 0-7.44-1.35-10.71-3Z"/>
      <path d="M932.423 4853.66v-7.33h-16v-22.67h121.327v37.33H932.423Z"/>
      <path d="M863.093 4842.36v-18.67h32v32h-12.65c-11.22 0-12.85.3-14.33 2.67-4 6.41-5.02 3.17-5.02-16Z"/>
      <path d="M817.753 4842.36v-18.67h24v37.34h-24Z"/>
      <path d="M605.753 4853.66v-7.33h-14.67v-22.67h134.67v37.33h-120Z"/>
      <path d="M515.093 4818.36v-42.67h14.67v-17.33h21.33v66.67h18.67v30.66h-12c-10.54 0-12.18.33-13.65 2.67-1.49 2.39-3.1 2.67-15.34 2.67h-13.68Z"/>
      <path d="M1059.09 4842.96v-19.33h112v38.66h-112Z"/>
      <path d="M3647.12 4856.36v-10h138.67v16h-66.7c-58.07 0-66.82.26-67.48 2-2.22 5.78-4.49 1.73-4.49-8Z"/>
      <path d="M3524.42 4879.66v-13.33h68v26.66h-68Z"/>
      <path d="M1410.22 4897.36c-17.18-28.24-16.42-25.87-16.42-51.48v-21.65l93 .47c51.15.25 93.95.58 95.1.73 1.99.26-152.88 93.23-156.45 93.93-.91.18-7.76-9.72-15.23-22Z"/>
      <path d="M2373.52 4925.66c-12.1-6.57-3.03-25.84 9.68-20.58 9.1 3.77 9.75 16.2 1.09 20.68-4.6 2.38-6.23 2.37-10.77-.1Z"/>
      <path d="M3524.42 4952.96v-13.33h68v26.66h-68Z"/>
      <path d="M1444.22 4966.56c-7.76-1.6-13.57-6.16-12.85-8.25.23-.66 44.52-26.38 98.42-57.14l98-55.94.43 4.79c.65 7.31-3.2 15.7-9.54 20.8-4.32 3.45-151.11 89.2-162.9 95.15-1.82.92-6.45 1.64-11.56.59Z"/>
      <path d="M3395.12 4964.66v-7.04l8.7-3.78c15.02-6.55 23.3-19.15 23.3-35.48 0-16.32-8.28-28.92-23.3-35.47l-8.7-3.79v-12.74h78.67v105.33h-78.67Z"/>
      <path d="M3159.12 4918.96v-52.67h78.67v12.74l-8.7 3.79c-15.02 6.55-23.3 19.15-23.3 35.47 0 16.33 8.28 28.93 23.3 35.48l8.7 3.78v14.08h-78.67Z"/>
      <path d="M3647.12 4980.36c0-9.73 2.27-13.78 4.48-8 .67 1.74 9.41 2 67.48 2h66.7v16h-138.66Z"/>
      <path d="M1359.92 5011.06c-6.27-9.44-6.98-8.11 9.5-17.56l14.3-8.19 1.34 5.65c2.78 11.75-1.56 16.21-8.41 20.2-3.45 2-7.52 4.44-9.06 5.43-2.61 1.68-3.13 1.31-7.67-5.53Z"/>
      <path d="M1181.75 4924.96v-101.33h91.57l38.88 67.28c21.39 37 38.87 67.75 38.84 68.33-.1 2.64-89.62 55.6-94.46 58.99-4.29 3.01-8.85 5.62-13.62 7.8l-10.81 4.82-25.07 2.86-24.94-.4Z"/>
      <path d="M1280.76 5064.76c-2.7-4.18-7.55-12.99-6.89-13.5 5.02-3.9 41.64-24.8 42.5-24.26.67.41 3 4.05 5.18 8.08l3.98 7.33-4.22 2.16c-2.32 1.19-10.68 7.31-20.33 12.35-20.15 10.51-17.72 11.72-20.22 7.84Z"/>
      <path d="m1202.75 5091.96-29-.39v-14.61h57.09l2.7 8c2.46 7.28 2.5 7.97.46 7.7-1.24-.18-15.3-.49-31.25-.7Z"/>
      <path d="M2707.12 5096.96v-80h146.37l.92 4.93c8.63 45.99 79.45 45.99 88.08 0l.93-4.93h21.03v-26.67h60v186.67h-317.33Z"/>
      <path d="M3083.12 5099.66v-78.67h33.33v8h94.67v-8h36v22.67h142.67v-24h36v16h101.33v-17.33h64v28h177.33v132h-685.33Z"/>
      <path d="M4181.12 5179.76c-12.26-5.15-9.15-23.3 4-23.3 10.33 0 15.84 12.7 8.6 19.82-3.77 3.7-8.77 5.09-12.6 3.48Z"/>
      <path d="M4135.72 5179.76c-12.26-5.15-9.15-23.3 4-23.3 10.33 0 15.84 12.7 8.6 19.82-3.77 3.7-8.77 5.09-12.6 3.48Z"/>
      <path d="M4047.72 5179.76c-12.26-5.15-9.15-23.3 4-23.3 10.33 0 15.84 12.7 8.6 19.82-3.77 3.7-8.77 5.09-12.6 3.48Z"/>
      <path d="M1579.02 3120.66c-7.37-3.72-12.73-13.1-11.43-20.01 3.88-20.5 30.06-24.24 38.36-5.48 7.65 17.29-10.02 34.02-26.93 25.49Z"/>
      <path d="M1866.37 1840.68c.21 0 .08-11.43-.02-17-.04-2.02-2.97-3.47-4.99-3.46-21.07.07-47.85-.39-68.99.11-2.46.06-5.31 2.61-5.35 5.06-.07 4.58-.11 10.13-.08 14.62.01 2.3 2.67 4.82 4.98 4.79 22.45-.29 48.85.41 69.8.08 2.09-.03 3.81-2.29 4.65-4.2Z"/>
      <path d="M3073.52 1955.57c-19.25-3.45-62.54-8.13-62.31-13.71 0-.13.1-2 .45-4.25l.62-4.09 63.77 10.62c41.55 6.92 63.61 11.14 63.33 12.1-.24.8-.97 6.3-1.61 8.25-1.56 4.79-49.21-6.23-64.25-8.92Z"/>
      <path d="m3345.02 1966.1-6.78-1.24 1.03-6.27c.57-3.45 1.07-7.23 1.12-8.4.07-1.9 1.08-1.96 9.44-.53 11.4 1.96 10.67 1.17 9.72 10.38-.9 8.6-.83 8.57-14.53 6.06Z"/>
      <path d="m3474.32 1988.77-6.78-1.24 1.03-6.27c.57-3.45 1.07-7.23 1.12-8.4.07-1.9 1.08-1.96 9.44-.53 11.4 1.96 10.67 1.17 9.72 10.38-.9 8.6-.83 8.57-14.53 6.06Z"/>
      <path d="m3606.32 2011.44-6.78-1.24 1.03-6.27c.57-3.45 1.07-7.23 1.12-8.4.07-1.9 1.08-1.96 9.44-.53 11.4 1.96 10.67 1.17 9.72 10.38-.9 8.6-.83 8.57-14.53 6.06Z"/>
      <path d="M3337.62 2003.93c-71.42-13.3-62.92-10.67-61.84-17.9l.88-5.88 127.4 21.22-1.49 6.7c-1.9 8.56 5.58 9-64.95-4.14Z"/>
      <path d="M3600.52 2051.44c-67.46-12.68-63.3-9.75-62.15-18.13l.9-6.51 63.73 10.62c71.46 11.9 64.18 9.37 61.23 21.24-1.57 6.3 7.26 6.12-63.7-7.22Z"/>
    </g>
    <g id="buildings" fill="#88d1fd">
      <path d="m4057.23 2149.36-31.18 164.78 64.31 11.56c-34.26 299.37-157.24 892.65-157.24 892.65s60.26.53 368-1.1l168-.9.34-64.37c.3-54.62.06-64.48-1.55-65.1-2.09-.8-220.82.94-373.32 2.58l16.11-74.12 5.95-.75 121.7-659.8 552.96 90.5 27.28-158.59Z"/>
      <path d="m1986.9 1880.97-648.48.69-.41 6.32-.4 6.33-300.52.68-.35 212.67c-.18 116.96-.05 213.42.3 214.34.5 1.33 18.88 1.61 88.34 1.33l87.71-.34v-112l-52.65-.73-.34-80.3-.35-80.3-16.67-.8v-19.87h193.25l.38 16.33.37 16.34c90.73-1.3 180.91-.6 269.37-.46 4.49-.46 5.97.12 5.97 3.79v9.33h52l.04-12.36 220.59-.32.77-26h329.24v97.23l-26 .77v622.67l8.66.83.33 254.25.34 254.25 9 .39 9 .4v157.2l-261.84.68.37 79.31c.2 43.62.65 79.78 1 80.34h.01c.34.56 78.14.88 172.88.68l172.25-.33.4-7 .4-7h24.49l31.37-31.3v-27.24l15.34-.8v-241.33l-9.99-.82-.34-208.92-.34-208.93-86-.7v-114.6l102-.7.34-401.13.33-401.13-7.32-10.2c-14.47-20.14-29.33-32.08-47.7-38.33l-9.45-3.21Z"/>
      <path d="M1324.42 2482.75c-32.63-2.56-59.74-5.05-60.23-5.54-1.1-1.09 5.5-148.53 6.7-149.79.48-.49 41.9.6 92.05 2.45 60.88 2.22 91.46 2.89 92.02 1.99.46-.74 2.52-26.14 4.6-56.44 2.06-30.3 4.15-55.52 4.64-56.03 1.3-1.38 96.35 5.2 97.92 6.77 1.96 1.96-8.7 234.36-10.85 236.52-1.24 1.23-18.91.77-79.06-2.1-42.6-2.03-77.81-3.34-78.25-2.9-.43.42-1.4 7.2-2.16 15.04-1.34 13.88-1.47 14.28-4.71 14.47-1.84.12-30.04-1.88-62.67-4.44Z"/>
      <path d="M2026.32 2513.96c-.37-.97-.5-9.84-.3-19.7l.37-17.93h46.67V2515l-23.03.36c-18.14.29-23.18 0-23.71-1.4Z"/>
      <path d="M3907.02 2554.44c-13.59-2.7-25.44-5.37-26.33-5.92-3.9-2.42 6.76-60.29 11.06-60.03 4.83.3 51.96 10.06 52.92 10.97.93.88-7.61 56.71-9.04 59.01-.95 1.54.17 1.7-28.61-4.03Z"/>
      <path d="M1909.02 2644.66c-.37-.96-.5-10.42-.3-21.02l.37-19.27h76v41.33l-37.7.35c-30.12.29-37.83 0-38.37-1.4Z"/>
      <path d="M1925.02 2828.66c-.35-.93-.49-41.58-.3-90.35l.35-88.67 30-.82c16.5-.46 40.8-1.06 54-1.33l24-.5v182.67l-53.7.34c-42.25.28-53.85 0-54.35-1.33Z"/>
      <path d="M1585.72 2920.56c-32.63-13.31-60.08-24.69-61-25.28-3.4-2.2-9.62 14.33 65.97-175.59 19.4-48.77 43.33-108.95 53.15-133.74l17.87-45.07.34-172.26.34-172.26 78.9-.71 12.6 16.04h25l11.26-16.06 44.24.72.78 18h89.1l.4-9.66.38-9.67h68l.37 24.86.36 24.85-13.36 9.54-13.37 9.54v18.38l26.76 21.87-.38 13.48-.38 13.48h-128l-.41-5-.41-5h-21.18v118.67h31.87l.4-7.66.4-7.67 37.88-.74.79-16.6h82.66v42.56l-29.33 12.33-.34 11.23-.35 11.22 14.05 9.2 14.05 9.2-.37 17.47-.37 17.46h-101.33l-.4-6.33-.41-6.33h-39.76l-.76 26-45.72.72-22.94 55.22c-12.62 30.37-22.6 55.76-22.2 56.42.41.66 23.12 10.4 50.47 21.63 52.66 21.63 53.05 21.82 53.05 25.12 0 2.28-38.25 93.11-40.38 95.89-2.19 2.85-4.48 2.13-52.23-16.38-25.6-9.93-47.22-17.8-48.04-17.48-.82.31-17 38.59-35.97 85.05-18.96 46.46-35.05 85.22-35.76 86.14-2.32 3.02-6.45 1.6-66.28-22.8Z"/>
      <path d="M1285.75 3015.56c-29.43-12.56-34.79-14.44-39.87-14-5.5.47-35.03-10.91-39.26-15.15-.72-.71 24.26-57.17 61.78-139.64 21.26-46.65 42.47-93.33 63.62-140.03.4-1-16.71-10.28-46.15-25-25.73-12.87-46.79-23.87-46.79-24.44 0-1.57 45.3-100.78 46.63-102.11.65-.65 18.63 6.19 41.21 15.67 22.04 9.25 40.41 16.82 40.85 16.82.44 0 7.05-12.97 14.7-28.82 11.44-23.66 14.36-28.7 16.28-28.14 3.7 1.1 123.49 57.1 125.34 58.6 3.07 2.5 1.82 5.45-47.5 112.42-27.03 58.64-71.8 155.8-99.49 215.95-27.68 60.13-50.94 110.08-51.67 111-2.17 2.7-4.1 2.06-39.68-13.12Z"/>
      <path d="M1975.72 3049.96c-.37-.96-.5-11.32-.3-23.02l.37-21.28h73.33v45.33l-36.37.36c-28.95.28-36.5 0-37.03-1.39Z"/>
      <path d="M1909.02 3067.36c-.36-.94-.5-19.7-.3-41.7l.35-39.98h62.67v82.67l-31.03.36c-24.24.28-31.18-.02-31.69-1.35Z"/>
      <path d="M1974.82 3133.36c-.27-.56-.16-18.42.24-39.69l.73-38.66h78.67v78.65l-39.58.36c-21.76.2-39.8-.1-40.06-.67Z"/>
      <path d="m3192.42 3138.86-68.77-10.47-5.45-.83-2.45 8.11c-1.35 4.46-2.81 8.34-3.25 8.6-.44.26-32.53-4.25-71.33-10.06-38.79-5.8-70.66-10.4-70.82-10.22-.16.18-1.73 5.43-3.5 11.67l-3.2 11.33-4.62-.42c-2.53-.23-41.81-7.74-87.28-16.69l-82.66-16.26.32-3.98c.17-2.2 3.6-21.36 7.61-42.6 4.01-21.23 7.17-38.7 7.01-38.82-.15-.11-8.08-1.65-17.61-3.4l-17.33-3.2.36-4.52c.32-4.07 20.66-127.88 22.38-136.25.7-3.36.44-3.51-7.68-4.67l-8.4-1.2.34-4.33c.19-2.39 2.44-17.64 5-33.89 2.57-16.25 4.51-29.66 4.33-29.8-.18-.14-6.33-1.73-13.67-3.53l-13.33-3.27.36-4.46c.32-4.01 20.68-127.9 22.37-136.12.7-3.37.55-3.44-13.68-6l-14.38-2.59.32-4c.18-2.2 6-35.47 12.95-73.94 6.95-38.47 12.5-70.03 12.34-70.14-.15-.11-6.28-1.67-13.61-3.47-13.29-3.27-13.33-3.3-13-7.2.17-2.15 5.4-33.88 11.62-70.5 6.22-36.63 11.17-66.72 11-66.87-.16-.15-4.49-1.4-9.62-2.77-9.16-2.44-9.33-2.57-9.02-6.63.26-3.32 18.46-116.44 20.94-130.06.76-4.23-1.28-4.98-40.59-14.78l-12.67-3.16.39-7.24c1.78-33.91 24.92-99.4 41.66-117.9 2.26-2.5 2.31-4.06.83-25.4l-1.59-22.74 2.86-.23c1.8-.15 6.55 2.92 12.84 8.28l9.99 8.53 7.85-8.01c19.67-20.09 49.54-39.26 74.2-47.65l6.36-2.16-14.51-20.8c-14.6-20.96-16.24-25.15-9.83-25.15 1.23 0 182.62 31.2 403.07 69.33 220.45 38.13 401.59 69.33 402.53 69.33 1.22 0 1.52 1.64 1.05 5.79l-.65 5.78 35.47 6.55c27.7 5.12 35.48 7 35.49 8.55 0 1.1-6.6 39.2-14.68 84.67l-14.68 82.66-3.45-.25c-3.05-.22-68.28-11.33-77.38-13.18-3.27-.66-3.97.15-10.3 11.88l-6.79 12.6-5.03-.64c-3.34-.45-6.66-1.01-9.96-1.7-4.6-.99-4.97-.83-5.65 2.45-1.49 7.28-14.09 88.61-13.76 88.85.19.13 15.25 1.34 33.47 2.68 20.5 1.51 33.29 2.99 33.55 3.88.23.79 2.26 71.33 4.53 156.77 2.26 85.43 4.4 159.6 4.75 164.82l.64 9.49-31.35 26.5c-25.75 21.78-32 26.46-35 26.21-2-.17-44.99-6.91-95.52-14.99-50.53-8.07-91.98-14.54-92.12-14.36-1.05 1.35-19.35 110.87-18.77 112.38.61 1.6 5.05 1.94 25.37 1.94 13.55 0 24.91.45 25.25 1 .34.55-4.15 37.23-9.97 81.5-5.82 44.29-10.41 80.66-10.2 80.83.2.17 22.28 4.36 49.04 9.32 55.38 10.26 50.83 8.67 49.6 17.35-1.25 8.76-.62 8.74-44.12 2.02-19.35-2.98-35.32-5.26-35.5-5.06-.5.6-15.29 80.18-14.95 80.47.17.14 17.1 4 37.64 8.59 42.9 9.57 39.48 8.08 38.24 16.65-1.19 8.22 4.04 8.47-54.18-2.62-24.9-4.74-45.36-8.5-45.47-8.34-.12.16-1.38 5.1-2.81 10.96-2.59 10.6-2.62 10.66-6.73 10.34-2.26-.18-27.97-4.23-57.13-9.01-29.15-4.78-53.15-8.54-53.33-8.35-.18.2-1.45 4.2-2.83 8.9-3.1 10.6 4.8 10.68-69.76-.68Zm103.33-299.54c1.45-6.06 23.26-124.19 22.97-124.4-.17-.12-3.9-1.06-8.3-2.08-7.18-1.66-8.05-2.23-8.42-5.5-.34-2.9 30.82-200.41 50.22-318.35l3.61-22 12.86-.67c7.07-.37 13.13-.97 13.46-1.33.8-.87 22.57-117.5 22.02-117.94-.5-.4-340.01-58.06-341.88-58.06-.72 0-2.43 1.95-3.82 4.33-13.97 24.04-46.74 57.4-74.47 75.77l-12.92 8.57.11 15.33c.18 25.2 3.17 111.73 3.9 112.34.36.3 12.36 2.9 26.66 5.78 25.7 5.15 26 5.25 25.76 8.57-.13 1.84-9.95 52.84-21.83 113.33l-21.58 109.98 4.36 94.66c2.4 52.07 4.9 95.27 5.56 96 .74.83 52.82 2.65 137.46 4.81 180.12 4.6 163.4 4.51 164.27.86Zm232.13-521c4.41-27.13 7.6-49.33 7.1-49.33s-11.58-1.84-24.57-4.08c-13-2.24-23.78-3.89-23.97-3.66-.2.22-4.04 22.9-8.56 50.4-4.52 27.5-8.5 51.35-8.86 53l-.66 3h51.5Z"/>
      <path d="M1741.42 3320.06c-.27-.56-.16-18.42.24-39.69l.73-38.66h80v78.66l-40.24.36c-22.13.2-40.46-.11-40.73-.67Z"/>
      <path d="M3857.02 3574.06c-.36-.94-.5-24.5-.3-52.37l.35-50.66h76v48l-7.63.4-7.62.4-.38 15.6-.37 15.6-12.57.81-.38 11.6-.39 11.6-23.03.36c-17.72.28-23.18-.03-23.68-1.34Z"/>
      <path d="M1355.72 3584.76c-.37-.96-.5-60.54-.32-132.41l.34-130.67h165.33l.36 42.33.35 42.33 364.63.67.34 87.04c.27 68.97 0 87.15-1.33 87.56-.92.3-109.38 1.17-241.01 1.97-131.63.79-250.3 1.77-263.68 2.18-19.34.58-24.49.38-25.01-1Z"/>
      <path d="M655.763 3601.96c-.32-.92-.15-33.77.37-73l.96-71.34 433.947-.68.61-3c.34-1.64 4.27-52.49 8.75-113s8.48-113.64 8.9-118.11l.78-8.12-61.5-32.36c-33.84-17.8-61.867-32.94-62.297-33.65-.96-1.53 59.347-129.12 61.397-129.9 3.94-1.52 122.73 57.56 123.17 61.25.57 4.86.48 4.8 46.24 25.64 22 10.01 40.75 18.9 41.66 19.77 1.31 1.24-.26 23.13-7.64 106.19-5.11 57.55-14.46 163.13-20.78 234.63s-11.96 130.5-12.54 131.1c-.58.62-74.78-.95-164.87-3.5-170.967-4.8-167.897-4.84-169.217 1.43-1.73 8.24 7.51 7.6-115.12 7.97-89.1.27-112.35 0-112.81-1.33Z"/>
      <path d="M3422.62 3640.16c-2.8-2.8-.88-25.35 2.43-28.46 3.23-3.03 3.34-3.67 3.34-20.88v-17.74l-36.34-.36-36.33-.35V3441.7h261.33v130.67l-68.67.71v17.45c0 17.44 0 17.46 4.06 22.58 3.88 4.9 4.04 5.6 3.66 16.19l-.38 11.07-66.1.34c-36.36.2-66.5-.06-67-.55Z"/>
      <path d="M3252.22 3678.66c-.23-.56-.12-50.52.24-111.02l.67-110h92v221.33l-46.24.35c-25.44.2-46.44-.1-46.67-.67Z"/>
      <path d="M841.343 3879.96c-5.68-5.93-4.76-8.32 6.57-17.08 5.59-4.31 15.64-12.27 22.33-17.68 6.7-5.4 18.47-14.68 26.18-20.61 7.7-5.93 14.3-11.15 14.67-11.6 3.04-3.7 25.66-19.96 27.78-19.96 4.06 0 13.14 11.56 11.36 14.45-.75 1.22-11.55 9.72-24 18.89-12.44 9.16-35 25.81-50.14 37-30.07 22.22-29.58 21.98-34.75 16.59Z"/>
      <path d="M4621.25 3543.16c-8.13-.32-15.09 1.84-19.14 6.16-4.81 5.13-138.88 285.45-141.38 295.49-9.35 15.38-63.66 121.65-72.46 142.49-53.43 99.79-103.28 201.58-154.92 302.4-53.58 104.64-61.01 119.88-62.85 128.94-6.84 33.83 4.78 59.09 38.09 82.77 17.89 12.72 21.44 13.21 98.5 13.6 46.18.23 61.76.72 65.26 2.05 4.14 1.57 4.73 1.5 6-.73 1.27-1.99 2.72-3.85 4.35-5.56l2.93-3.07 54.4-.16c29.92-.09 60.39-.54 67.73-1l13.33-.84.66-30.9c.65-29.83.78-31.01 3.7-34.11 2.97-3.18 3.02-3.68 2.67-31.78l-.36-28.55-106.67-1.33-7.45-4.85c-9.8-6.37-12.09-14.55-7.89-28.15 1.42-4.58 32.65-69.53 69.4-144.33 71.06-144.63 71.67-145.97 69.19-153.76-1.81-5.69-11.93-16.7-17.46-19-5.02-2.07-6.54 2.54 17.54-53 11.74-27.06 21.34-49.81 21.34-50.56 0-5.53 3.94-4.22 47.6 15.73l43.97 20.1.88 36.13c.48 19.87.88 60.62.88 90.57v54.45l-3 .18c-1.65.1-14.4.54-28.34 1l-25.33.82-.35 51.52-.35 51.53 24.38 21.62h43.3l6.7-5.34c11.39-9.06 41.15-5.86 30.99 3.34-1.94 1.75-2.67 4.1-2.67 8.6 0 5.46-.63 6.8-5.33 11.4l-5.33 5.21v69.57l-6 5.88-6 5.89v10.44c0 7.85-.68 11.76-2.7 15.73l-2.7 5.28h-59.6l-12.23 9.46-12.23 9.47.39 8.2.35 7.11-.32 48.37c-.2 19.42-.06 36.08.3 37.02.52 1.35 10.73 1.63 49.02 1.35l64.93-.32c4.93.45 13.67.66 28.69.66h32.04l22.05-21.94v-343.28l22-.77.69-193.84 9.98-.83v-339.97l-58.67-27.68c-56.55-26.68-58.9-27.65-65.12-26.95-7.6.86-13.05-.96-31.54-10.56-24.05-12.47-27.38-13.91-37.38-16.21-2.91-.67-5.75-1.05-8.46-1.16Z"/>
      <path d="m515.673 3823.63-7.619 7.7c-4.61 4.65-7.631 8.86-7.631 10.62 0 2.79-.59 2.93-14.33 3.29l-14.33.38-.391 11.67-.379 11.67h-5.179c-4.69 0-5.921.83-13.291 8.98l-8.1 8.98v66.64l9.641 9.7c8.05 8.1 10.35 9.7 14 9.7h4.359v38.66h-5.961c-5.93 0-6.02.07-14 10.95l-8.039 10.95v69.37l8.971 9.03c6.72 6.78 9.869 9.04 12.609 9.04h3.66l.379 12.33.381 12.33 26 .77v3.78c0 2.73 2.66 7.03 9.43 15.29l9.42 11.5h70.42l16.13-24h37.049l14.951 21.33h75.44l9.58-8.06c7.08-5.97 9.58-8.92 9.58-11.34v-3.26h36v4.6c0 4.07 1.11 5.53 9.58 12.66l9.58 8.07h19.141c14.38 0 24.129 1.23 26.349-.21 1.63-1.05 14.471.46 20.891-1.85 5.502-2 11.896-3.12 14.794-7.32 2.966.12 7.665-6.98 7.665-11.45v-4.46h40l-.039 3.67c-.03 2.86 2.09 5.62 9.67 12.62v-.01l9.699 8.95 70.597.1 8.37-8.3c7.3-7.23 8.37-8.93 8.37-13.27v-5l23.33-.77.38-11.65c.39-11.53.43-11.67 3.8-11.67 2.33 0 6.56-2.81 13.29-8.83l9.86-8.83-.01-31.51-.02-31.5-8.79-10.33c-6.36-7.47-9.66-10.33-11.93-10.33-3.01 0-3.16-.45-3.53-11l-.38-11-11.67-.39c-11.02-.36-11.67-.55-11.7-3.33-.02-1.73-4.23-7.77-10.19-14.62l-10.15-11.66h-69.557l-9.041 8.96c-6.83 6.78-9.029 9.87-9.029 12.67v3.7h-39.99v-4.56c0-6.79-10.229-11.42-16.699-14.08l-11.02-3.33c-4.53-1.13-11.945-1.42-16.542-1.64-4.077-.2-9.748-.44-26.518-.44h-17.93l-8.311 6.73c-6.81 5.5-8.32 7.44-8.32 10.66v3.94h-40v-3.94c0-3.22-1.51-5.16-8.33-10.68l-8.33-6.75-62.67.71-.41 6.33-.401 6.33h-29.189v-34.92l13.33-11.99v-51.36l-6.711-8.86c-5.98-7.9-7.209-8.87-11.279-8.87h-4.571l-.378-11.66-.391-11.67-11.67-.39c-11.3-.36-11.66-.48-11.66-3.56 0-2.32-2.79-5.57-10.24-11.95l-10.231-8.76Z"/>
      <path d="M1246.47 4243.36c-1.02-3.22-3.63-200.72-3.18-241l.46-40.67h386.67l.42 3.66.42 3.65 131.16.7v218.66l-175.28.69-.36 27.66-.36 27.65-169.71.34c-135.11.27-169.82 0-170.24-1.33Z"/>
      <path d="M1795.92 4302.66c-.36-.58-.8-111.43-.98-246.35l-.34-245.3h137.13v492l-67.58.35c-37.17.19-67.87-.13-68.23-.7Z"/>
      <path d="M2064.12 4306.66c-.24-.55-.13-86.5.25-191l.7-190 16.29-.78.88-16.94c.49-9.32 1.26-25.05 1.72-34.95l.83-18 5.07-7.48c9.62-14.21 49.22-14.06 77.5.3 4.41 2.25 8.2 2.52 35.6 2.52 36.12 0 42.32 1.35 51.07 11.12l4.96 5.54.04 175.96.04 175.96-15.33 46.28-15.7 11.34c-16.08 11.63-43.32 25.81-56.3 29.3-7.32 1.98-106.77 2.74-107.62.83Z"/>
      <path d="M883.693 4481.96c-.36-.95-.5-14.01-.3-29.02l.36-27.3h65.33v57.33l-32.36.36c-25.52.28-32.5-.01-33.03-1.37Z"/>
      <path d="M2739.72 4485.96c-.37-.96-.5-11.01-.3-22.35l.37-20.61h105.33v44l-52.37.35c-42.06.28-52.5.01-53.03-1.4Z"/>
      <path d="M2090.62 4497.46c-.5-.5-.9-13.39-.9-28.65v-27.75l-47.34-.73v-72l45.87-.73.4-7.63.4-7.64h106.67v145.33l-52.1.35c-28.65.2-52.5-.06-53-.55Z"/>
      <path d="M3312.02 4509.46c-.5-.5-.9-6.8-.9-14v-13.1l-294-.68-.38-11.65-.39-11.64-68.56-.71-.35-35.6-.36-35.6-12.62-.8-.37-19.61-.37-19.61-9.63-.4-9.63-.38v-90.67l10.3-.39 10.29-.39.37-18.28.37-18.27 7.33-.85v-80.98l-7.33-.84-.74-36.54-16.6-.8v-81.33l15.27-.8.37-19.6.37-19.6 11.33-.82v-349.18h-86.65l-.34 87.67-.34 87.67h-130.67l-.72-60.56-21.95-.78v-249.33l31.27-.75.37-24.29.36-24.29 129.88-.69.4-8.99.39-8.98h276l.37 16.96.37 16.96 16.96.37 16.96.37.35 63.62.35 63.61 23.3.77.35 54.33.35 54.34h187.87l.39-11.67.38-11.67 167.24-.68.38-14.33.38-14.32h58.67l.36 26.98.36 26.98 80.61.7.36 26.34.36 26.33h46.12l4.45-9.33h62.71v-75.93l-19-.37-19-.37v-41.33l73.33-.73 6.03-9.27h42.14l7.66 8h101.64l4.5 4.65 4.51 4.64 74.85.71.29 30.67.28 30.66-40.96 76-76.8.35c-65.85.3-76.81.62-76.81 2.26 0 1.41 2.06 2.04 7.67 2.33l7.66.4v29.33l-13.96.8-.7 75.2-33.88.75-.4 8.29-.39 8.3-39.17.73-.42 4.3-.41 4.3-35.33.74v45.26h34.97l63.51 37.52c65.96 38.96 68.18 40.38 68.18 43.37 0 1.95-52.44 94.24-55.75 98.1-3.19 3.74-2.5 4.08-69-34.99l-63.53-37.32-292.38-.68-.36-27-.36-27h-42.46l-.4 5.66-.42 5.67h-108l-.34-92.33-.34-92.34h-125.32v27.9l22 .77.4 6.93.4 6.93 12.53.8v229.34l-19 .37-19 .37v237.24l135.33.69.36 22.33.37 22.33h110.6v-101.3l-86-.7v-129.33l148.59-.34c81.73-.18 149.03.12 149.57.67.54.55-3.63 31.6-9.26 69l-10.24 68-28.67.76v83.91h139.98l.34-95 .35-95h80l.34 70.33.35 70.34h82.64v-7.66c0-7.18-.5-8.37-8-19.22-7.98-11.54-8-11.58-8-21.25v-9.69l7.32-9.55c6.24-8.15 8.44-10 15.01-12.6l7.7-3.07 10.3-20.15c11.74-23.01 13.24-32.89 6.6-43.48-9.1-14.54 7.6-37.33 27.37-37.33 3.79 0 7.27-.73 8-1.67 1.68-2.17 93.7-197.97 93.7-199.38 0-.59-8.85-6.09-19.67-12.22-21.78-12.34-24.36-14.18-24.27-17.27.16-5.15 39.27-80.8 41.97-81.18 1.49-.22 13.6 3.43 26.92 8.1l24.22 8.5 11.43-27.44c6.29-15.1 11.42-28.04 11.41-28.78-.01-.73-7.82-5.03-17.35-9.55-21.1-10.02-20.81-9.4-12.27-26.3 12.96-25.6 32.52-62.82 33.89-64.48 2.2-2.66 5.06-2.07 24.39 5 10.02 3.67 18.92 6.66 19.78 6.65.85-.01 5.13-7.66 9.52-17 5.81-12.34 11.65-24.67 17.52-36.98l22.56-47.34 13.02-27.33.62-13 .62-12.99-291.64-.68v-113.33l138-.81c75.9-.45 150.9-1.29 166.67-1.86 100.36-3.66 159.2 19.62 160.08 63.34.4 20.16-1.09 23.8-51.4 126-11.59 23.54-23.15 47.1-34.67 70.67-6.8 13.93-20.9 42.73-31.34 64-10.25 20.87-20.47 41.76-30.67 62.66-6.42 13.2-21.12 43.2-32.66 66.67-11.58 23.54-23.13 47.1-34.67 70.67-42.72 87.36-85.5 174.69-128.34 262-10.58 21.54-21.13 43.09-31.66 64.66-6.79 13.94-21.68 44.39-33.08 67.67l-20.74 42.33h-65.48l-.7 118h-324l-.4-5.66-.42-5.67h-31.7l-.4 5.67-.41 5.66-129.44.34c-71.2.2-129.84-.06-130.33-.55Zm167.37-551.45.4-7 263.33-.68v-45.27l-58-.72-.4-5.6-.41-5.62-10.26-.39-10.26-.39-.36-23.64-.37-23.65-76.6-.7-.4-7-.4-7h-129.15l-.36 26.33-.36 26.33-11.3.82-.35 36.92-.35 36.93-6.33.4c-5.72.37-6.34.73-6.34 3.67v3.26h47.86Z"/>
      <path d="M647.703 4512.66c-.36-.95-.5-15.5-.3-32.36l.36-30.64h62.66v64l-31.04.36c-24.37.28-31.17-.01-31.69-1.36Z"/>
      <path d="M663.253 4626.36c-13.57-7.48-13.53-5.8-.74-28.54 13.5-24.02 12.96-23.72 27.22-15.17 9.68 5.8 9.67 6.08-1.45 25.9-13.9 24.8-13.22 24.32-25.03 17.81Z"/>
      <path d="M1216.79 4685.96c-3.35-4.32-7.55-17.22-6.26-19.26 1.63-2.58 37.53-16.6 41.23-16.1 3.48.47 10.06 18.52 7.96 21.85-3.07 4.86-40.5 16.65-42.93 13.51Z"/>
      <path d="M1147.45 4712.66c-3.35-4.32-7.55-17.22-6.26-19.26 1.63-2.58 37.53-16.6 41.23-16.1 3.48.47 10.06 18.52 7.96 21.85-3.07 4.86-40.5 16.65-42.93 13.51Z"/>
      <path d="M1388.32 4817.36c-.07-.56-.02-48.52.11-106.59l.24-105.58-11.56-.83v-52l5.65-.41 5.65-.41.35-54.26.35-54.25h170.67v374.67l-85.67.34c-47.11.19-85.72-.11-85.79-.67Z"/>
      <path d="m750.423 5041.06-417.33-.7v-534.67h176l.34 181 .34 181h34.5l.4-5 .42-5h53.33l.84 8.67h269l.42-4.34.41-4.33h54.67l.42 3.66.42 3.66 251.157.68v176l-4 .03c-2.2.02-191.797-.28-421.327-.66Z"/>
      <path d="M4266.44 4669.64v16.03h-158.71l-.37 15.66-.38 15.66-211.25.69-.37 15.58-.38 15.59-9.91.83-.36 46.31-.35 46.32-96.62.7-.4 10.32-.38 10.32-133.9.69v108l133.9.69.39 12.99.38 12.99 96.63.7.35 43.65.35 43.65 4.33.42 4.33.42v18.36c0 10.09.4 18.75.9 19.25h.01c.49.49 81.64.74 180.33.55l191.48-.32v34.62l27.63.66c26.49.64 27.75.79 30.65 3.69v-.01c3.02 3.02 3.07 3.02 41.7 2.67l38.69-.35v-497.33Z"/>
      <path d="M4509.12 5128.66c-.32-.92-.15-104.27.37-229.67l.96-228h309.33v458.67l-155.04.34c-123.35.27-155.16 0-155.62-1.33Z"/>
      <path d="M1315.02 5228.86c-31.87-56.37-30.71-50.48-11.96-60.83 4.03-2.22 112.03-63.59 240-136.38 88.18-50.19 176.4-100.3 264.67-150.33l102-57.33c91.28-51.28 195.5-110.74 227.18-129.6 35.56-21.17 29.88-23.76 62.42 28.47l24.12 38.72.88 12.72c1.03 14.8-.54 11.49 18.07 37.93 17.52 24.9 16.84 24.55 32.5 16.88 18.78-9.2 17.07-10.31 38.85 25.25 10.1 16.5 22.6 36.63 27.79 44.73 18.7 29.25 21 38.3 11.9 46.6-2.4 2.2-30.78 20.16-63.05 39.91-37.2 22.76-59.65 37.3-61.34 39.72-2.86 4.1-188.78 112.73-209.95 122.66-12.36 5.8-14.8 5.77-26.84-.36-7.73-3.93-66.53-103.27-66.53-112.39 0-10.2 3.49-15.14 17.96-25.4 7.96-5.64 12.61-9.8 12.2-10.88-.62-1.6-24.66-43.32-25.59-44.4-.22-.26-105.3 60.33-233.49 134.64-247.18 143.3-238.6 138.66-247.68 133.77l-4.38-2.36-49.3 26.88c-27.11 14.78-50.5 26.88-52 26.88-2.15 0-7.88-9.18-28.42-45.51Z"/>
      <path d="m4327.13 5337.01-1503.38.49s-73.4 1.8-85.54 19.32l-6.16 21.48-1.28 223.02c-1.19 209.98-1.41 223.22-3.63 226.37-1.6 2.27-2.66 7.29-3.32 15.67l-.95 12.33h273.53v-330.67h694.65l.34 136.33.34 136.33h492l.34-135 .34-135 620.65-.67v-189.33Zm-469.41 166.66h125.33V5737h-125.33Z"/>
      <path d="M2242.62 5680.16c-.5-.5-.9-83.22-.9-183.84v-182.94l-4.17-.83c-2.29-.46-18.94-.84-37-.83h-32.83l-80.67 45.55c-83.76 47.3-85.94 48.4-88.8 44.47-1.6-2.17-4.07-1.03-31.65 14.48-16.46 9.25-31.11 16.82-32.55 16.82-2.93 0-51-81.4-51-86.35 0-2 6.86-6.73 28.67-19.78 15.77-9.44 28.67-17.64 28.67-18.22 0-.58-2.78-7.7-6.18-15.8-5.22-12.42-5.9-14.99-4.34-16.42 8.37-7.71 346.9-200.75 352.04-200.75 4.88 0 9.43-2.17 30.77-14.67l25.04-14.67h22.7c16.97 0 22.86.42 23.3 1.67.32.91 2.1 18.47 3.97 39l3.38 37.33.65 556-74.1.35c-40.76.18-74.5-.06-75-.56Z"/>
      <path d="M1348.87 1512.44h995.72V965.719h-272.04v279.961h-451.64V931.384h-274.68Z"/>
      <path d="M1887.67 595.957h-277.32v269.398h-256.2v-639.16h533.52Z"/>
      <path d="M2339.3 667.268V6.9795h-269.39V664.627Z"/>
      <path d="m2738.12 1385.66 73.95-377.68 808.19 129.41-29.05 158.47 478.05 81.88 31.69-174.32 816.12 145.27-71.31 398.81L4027 1607.52l-5.28 26.41-493.9-84.52 5.29-26.41Z"/>
      <path d="M746.577 787.385v246.665h-20.943v67.48h23.27v381.64l-15.125 32.58-22.107 18.61-31.415 11.64H535.981V787.385Z"/>
      <path d="M1045.09 2660.7h103.96v-255.24h-106.74v255.24Z"/>
      <path d="M983.836 2601.3v-151.29h-165.21v468.71h58.473v29.7h108.594v-150.36h-49.192V2601.3Z"/>
      <path d="M945.782 2012.85v-116.02H772.219v116.02Z"/>
      <path d="M833.476 2319.14v-230.18h-87.245v230.18Z"/>
      <path d="M355.48 3074.65h298.864v-208.83H465.002v-393.54h188.414v-96.52H482.637v-119.74h171.707V1866.2H355.48Z"/>
      <path d="M887.309 3120.13v-97.45H735.093v97.45Z"/>
      <path d="m1361.59 5794.12 105.81-62.18-256.18-435.9-105.81 62.19Z"/>
      <path d="m346.199 5998.32 660.841-378.69-75.727-132.15-660.841 378.69Z"/>
      <path d="M152.216 5392.24v-231.11H-.00034v231.11Z"/>
      <path d="M2720.4 997.456V619.7h271.02v377.756Z"/>
    </g>
    <g id="sniper" fill="#ff2525" fill-opacity=".5">
      <path d="m2411.52 5813.76-6.33-.5v-358.52l147.88 2.2 162.59-1.46v360l-156.25 1.23c-7.89.06-144.4-2.67-147.88-2.95Z"/>
      <path d="m4146.79 2153.4 638.67 114.52 93.72-510.1-638.38-112.87Z"/>
    </g>
    <path id="limit" d="M66.3772 5013.37H321.777v-654.46h491.646l47.887-201.13v-169.2l-31.925-124.51 95.775-73.42v-35.12h-60.657l25.54-156.43h332.017l44.7-469.3-220.28-108.55-57.47 127.7H653.798v-280.94H462.247v-871.55h191.551v-450.14h31.925l44.695-22.35 15.962-41.5v-379.91h-22.347v-67.04h25.54V872.699h858.087V595.217h278.06V149.688h-60.03V7.4981h511.88V490.945h382.34v508.724h91.63l-66.36 379.171 783.63 142.19-4.62 28.44 500.47 86.78 6.56-29.9 843.66 151.67-91.64 518.2-662.78-120.3-166.7 928.71 519.82.49 69.29-8.71 132.94 5.56 66.36 240.14-47.4 246.46-82.15-31.6-157.99 319.14 110.59 53.72-63.2 126.39-113.75-60.04-227.5 448.69s1.03 32.26 7.32 46.7c5.96 13.69 15.98 25.93 27.67 35.22 11.77 9.37 40.84 19.19 40.84 19.19h148.51l9.48-15.79h129.55v-69.52h170.63v221.19h-439.21v502.4h66.36v176.95h-135.88v170.63h-189.58v255.94h-164.31v-271.74h-41.08v-56.88h-50.55v-97.95h-755.19v161.15h-135.87v-167.47h-82.16s-23.46 9.76-31.59 18.96c-6.88 7.77-12.64 28.44-12.64 28.44v436.05h-325.46v-692l-12.64-82.15h-41.08l-53.71 25.28-34.76-3.16-25.28-41.08 135.87-82.15-75.83-126.4-28.44 15.8-37.92-53.71 3.16-28.44-47.4-69.52-22.11-6.32-875.26 502.41 60.03 101.11-107.43 60.04-28.44-41.08-107.43 63.2 17.49 27.2-848.514 484.68-120.072-211.7V5161.1H66.6897Z" style="fill:none;fill-opacity:1;opacity:1;stroke:#000;stroke-dasharray:none;stroke-linecap:butt;stroke-linejoin:round;stroke-opacity:1;stroke-width:15"/>
  </g>
</svg>
