<svg xmlns="http://www.w3.org/2000/svg" xml:space="preserve" id="svg283" width="4951.0806" height="6013.1353" version="1.1" viewBox="0 0 4951.0804 6013.1353">
  <style id="style_common">
    .cement { fill:#c6c2c2 }
    .land { fill:#0c343c }
    .rock { fill:#ffffcd }
    .water { fill:#0056ab }
    .wood { fill:#593700 }
    .tarmac { fill:#888 }
    .gravel { fill:#946d3e }
    .building { fill:#88d1fd }
    .map_border { fill:none;stroke:#000;stroke-width:8 }
    .fence { fill:none;stroke:#c4e3c3;stroke-width:4 }
    .road_tarmac { fill:none;stroke:#888;stroke-width:16 }
    .road_gravel { fill:none;stroke:#946d3e;stroke-width:12 }
    .road_rail { fill:none;stroke:#914833;stroke-dasharray:15;stroke-width:7 }
    .danger { fill:red;fill-opacity:.4;stroke:red;stroke-dasharray:8,4;stroke-width:4 }
  </style>
  <g id="Ground_Level">
    <g id="cement" class="cement">
      <path d="m1846.521 12.49997-126.996 68.940425V163.0802h101.599l18.139 112.4824h-722.0525v504.35085h-92.5245l-32.65675-32.65595H634.6277v168.7216h-25.34825v853.4194l36.2339 62.7545v43.5465l19.53705 1.4875.4193.2995v154.23H502.18995v130.63H665.4697v103.4055H507.63275v121.555H665.4697v97.965H485.86245v286.647H531.218v110.673h133.8324v595.047h444.8321l20.6455-245.8355 71.18-127.415 77.3095 35.8195-42.578 472.5935H900.8969l-25.49605 156.1665h60.55495v35.061l-92.76565 75.1935 19.5251 109.106 22.79355 6.519 6.80555 181.2545-30.23405 16.013-25.48505 135.671 20.97265 1.827.078 41.72H333.58812v665.7075l-14.12117 8.546-88.19635-51.2835-74.90175 1.8965-50.21035 23.74-39.731655 79.436 40.044105 72.7975h102.4463v498.41L338.991 5945.18l664.95-355.2115-27.39365-46.5615 20.01825-45.593 46.6094-49.3965 94.1715-46.5515-16.5125-30.958 114.8565-67.8455 141.4015 239.506 90.158-60.887 23.221-49.0475 142.8795-85.1365 52.2515 90.188 50.066-2.965 12.7685-19.2975 61.1565-36.6385 13.757 18.9285 129.382-80.115-15.354-28.4125 361.301-208.4885 51.7225-28.0825 45.753.9485 9.7735 83.9085v690.8355h324.9125v-435.316s5.75-20.6355 12.6185-28.3925c8.1165-9.1845 31.537-18.928 31.537-18.928h85.6555v167.188h132.0075V5351.98h744.8445v112.3005h59.5395v53.1505h48.269v260.401h164.0335v-255.509h182.003V5351.98H4327v-176.6525h-61.836V4673.773h434.0585v-216.405h-170.343v64.9905h-129.332l-9.464 10.462h-148.26s-29.021-9.8035-40.7715-19.1575c-11.67-9.2745-21.6735-21.494-27.623-35.161-6.2795-14.4155-7.308-41.32-7.308-41.32l227.1175-447.935 113.5585 59.939 63.0935-126.1775-110.404-53.6295 157.724-318.603 37.9465 14.5955-41.2805 84.5675 70.98 34.6415 22.123-45.3235-21.294-10.4025-10.083 20.655-19.3775-9.454 30.5285-62.5245 12.469 4.792 47.32-246.0455-66.248-239.736-132.7165-5.5505-69.1735 8.6955-518.945-.4895 98.8635-545.041 67.3565 12.0795 11.4105-61.706-67.047-12.8885 55.836-319.591 648.7865 117.292 87.083-535.1975-159.651-32.655-9.0745 38.1055-181.4145-32.665 5.441-39.9125-250.358-41.7195-3.634 29.021-217.703-38.096 47.1705-417.2665-1268.1425-215.894h-81.632V634.7751h252.1745v99.7828h72.568v-32.65595h54.428l126.986-83.4543-7.2475-87.08225h-10.892V378.9723h-179.607V513.224h-16.3225v65.3119h-326.5595v-56.2412h-382.805V411.62825h-88.221l1.697-28.79945H2060.6V16.128585h-116.104v94.339265h-61.686V12.49997Z"/>
    </g>
    <g id="road" class="tarmac">
      <path d="m2447.74 14.3047 3.79 1595.2553-1524.675-.8V934.322h133.535v53.414h-46.29V1482.7h283.09V886.25h-242.26V772.564h-45.14V886.25h-82.923V745.273h-96.57s.237 459.067.414 688.597c0 0-9.851.81-14.244-1.02-5.823-2.43-11.084-7-14.244-12.46-3.032-5.24-3.561-17.81-3.561-17.81V839.746h-33.828v481.904l-5.914 17.74-14.697 21-17.844 9.44-23.094 7.35h-94.471v120.71l221.897.83v110.04H300.613l.881 223.76 387.08-2.23v780.03h-35.443v248.25h35.443v297.8l7.846 4.22v263.38h412.57l15.9-194.36-113.97-59.19v22.97h-98.941v-29.22h27.652l15.849-6.16 9.688-9.69 4.404-12.33v-116.22l123.628.86 118.74 58.11-.53.61 52 24.42c74.95 35.19 62.66 31.17 44.9 83.96-9.77 29.02-30.29 107.69-33.92 130-2.33 13.58-4.79 27.14-7.39 40.66-10.88 56.84-15.16 111.29-16.72 212.67-.92 59.46 3.89 63.13-3.72 71l-9.02 5.67c-312.299-.04-887.401.82-1199.6962 1.38v89.33l208.2282.84v1277.98H23.6582v58.86H246.072v604.02c-19.42 11.08-98.631 55.69-98.631 55.69l26.68 49.78s525.352-299.5 1049.169-597.46l325.05 561.53 38.16-22.08-324.84-561.16c424.34-241.33 863.05-490.55 882.19-499.07 11.99-5.34 62.89-20.21 86.16-25.17 21.72-4.63 50.92-6.53 113.47-7.38l59.47-.81 10.07 4.85c12.89 6.2 24.33 18.17 29.87 31.26l3.78 8.94.43 108c.46 115.47-.09 129.11-5.52 138-7.85 12.82-12.79 16.13-47.93 32.11-10.96 4.98-18.2 9.14-20.32 11.66-.04.04-1.13.71-1.19.76l-3.41-5.82-32 18.75-326.16 191.07-24.83-42.38-121.11 70.94-83.76-142.98-185.56 108.7 81.74 139.55 66.27-38.81 77.46 132.23 133.3-78.09-16.28-27.8 422.02-247.22h10.52c31.89 0 34.33.61 34.33 8.66v3.34h29.34l5.38 5.38c11.47 24.59 7.93 394.28 7.93 394.28l-1.38 411.07h93.33l-.89-1385.17-.34-986.19h46.68v974.62c3.32 465.6-1.38 1396.74-1.38 1396.74h93.33l-1.26-482.4s1.49-79.82 18.97-90.06c14.07-8.26-56.46-7.6 824.19-7.6l1336.7-1.34v-58.66l-938.33-1.34-8.45-4.36c-6.29-3.25-9.55-6.01-12.78-10.82l-4.34-6.45-.03-544.52 3.83-5.93c5.33-8.25 11.73-13.95 19.29-17.17l6.44-2.75 862.05-.93c37.95.2 69.75.5 70.66.68 1.3.25 1.67-7.2 1.67-33.68v-34l-252.96-1.41-.86-3c-.5-1.65-1.26-23.76-1.71-49.13l-.8-46.14-16.81-.86c-9.24-.47-21.75-.86-27.8-.86h-11v30.66c0 32.65-.68 36-7.33 36-1.67 0-2 2.67-2 16.04v16.05l-319.32-.74-16.11-6.83c-38.54-16.34-62.92-42.67-73.32-79.17-4.07-14.27-3.68-56.49.62-67.34 3.03-7.62 368.2-744.88 437.52-883.33 35.36-70.62 39.71-77.7 53.32-86.95 22.93-15.58 34.42-18.38 75.39-18.38 16.45 0 29.92-.45 29.92-1 .02-.09.03-.18.04-.27l62.24.12c24.77.08 48.63.59 53.03 1.14 4.4.54 10.25 1.08 13 1.18l5 .2v-132.66l-70 .84-13.31-21.51h-40.08c-3.37 0-6.15.08-8.66.18l-.48-1.55h-109.17l-22.23 21.33h-26.69l-3.22-4.33c-6.24-8.41-6.26-8.54-6.26-102.4 0-79.91-.2-89.07-2.1-89.8-3.78-1.44-10.19-.9-32.89 2.8l-22.34 3.64v85.1c0 82.22-.09 85.27-2.63 90.04-6.05 11.35-19.54 14.09-37.93 14.69l-4.05.44-13.31-21.51h-158.4l-22.22 21.33h-46.08l-13.3-21.33h-158.4l-22.22 21.33h-425.54l-6-3.51c-18.17-10.65-17.81-18.04-12.49-49.58 9.76-57.9 53.77-297.93 56.14-306.65 9.51-34.94 29.77-65.32 85.21-110.54 49.21-40.14 51.46-25.88 35.86-194.18-6.92-74.73-9.26-121.48-14.35-171.33l-7.06-64.88-5.36-15.33c-2.94-8.43-8.98-23.43-13.41-33.33-8.66-19.34-14.35-39.7-14.35-51.36v-2.91c10.13-57.69 37.5-213.51 39.24-224.74 5.03-32.52 8.38-37.99 22.18-36.17 8.3 1.11 7.81.1 13.99 29.2 2.63 12.47 4.89 22.76 5 22.88.12.12 39.5 7.52 87.54 16.44l92.97 17.27 5.63 1.05 18.08-21.82c9.94-12 18.5-21.82 19.03-21.82 11.63.1 37.06 6.87 40.15 10.7 9.43 11.7 9.7 14.35 4.73 44.73l-3.59 22.79c-.18 3.38-.88 4.63-1.96 11.1l-5.62 35.03c-2.65 16.56-2.51 22.37-1.92 25.21-.41-.09-.29-.74-1.03-.43l-12.23-2.71-14.02 70.09c-3.83 20.64-14.88 97.34-14.87 98.34.02 1 17.12-.02 22.44 5.66 10.97 12.85 9.94 12.21-.53 79.35-15.6 98.63-31.64 197.19-47.08 295.84-10.09 64.56-14.67 74.71-34.31 76.06l-8.1.55-2.24 11.53c-1.23 6.34-2.6 12.84-3.03 14.44-.69 2.51-.13 3.04 4.01 3.81 6.04 1.14 6.91-6.28-8 67.94l-12.86 64-6.72 6.18.35 5.3-12.49 76.39c-8.33 40.57-14.25 80.56-14.25 81.33 0 .95 6.05-.49 34.02-.74l35.78.52 7.99-39.67c3.43-17.94 5.93-33.4 5.56-34.36-.36-.96 5.69-37.41 13.46-81.01 7.77-43.6 15.1-84.97 16.3-91.94l51.05-290 48.88-277.33-5.47-10.31c-5.8-10.96-6.31-11.4-15.14-13.2-28.17-5.73-28.64-6.05-25.77-17.23 1.16-4.76 2.1-9.57 2.8-14.42 1.62-11.3 3.64-22.54 6.05-33.7 1.06-4.87 1.92-10.68 1.92-12.91 0-2.23.57-5.57 1.29-7.45.72-1.88 1.93-7.77 2.7-13.1 4.18-28.96 13.51-77.56 15.22-79.38 1.29-1.35 3.02-1.38 8.4-.14 6.22 1.44 8.98 1.43 10.65-.98 1.09-3.47 2.58-12.49 5.03-25.05 8.7-44.67 7.07-43.97 75.9-31.87l43.82 7.7 6 12c3.3 6.61 6.08 12.11 6.18 12.23.1.12 35.58 6.57 78.84 14.33 43.27 7.76 79.66 14.34 80.88 14.62 1.27.29 7.06-3.39 13.61-8.66 13.65-10.98 8.16-10.8 55.75-1.85 21.45 4.04 39.47 7.34 40.04 7.34.57 0 3.81 5.55 7.2 12.33s6.24 12.43 6.34 12.55c.1.12 35.58 6.57 78.85 14.34 43.27 7.76 79.66 14.34 80.88 14.62 1.27.29 7.06-3.4 13.61-8.67 13.74-11.06 71.51.77 71.51.77l.01-.01 91.83 16.23 16.57-94.83s-298.13-53.81-619.65-110.1c-527.5-92.33-585.28-102.68-591.28-105.96-15.91-8.65-10.91-27.27 7.31-27.27 2.41 0 267.65 46.77 589.4 103.95 321.75 57.17 619.85 110.81 619.85 110.81l15.37-85.99-1483.69-268.92 4.4-27.15 29.32 4.73 20.8-112.53-446.37-79.44-21.75 111.59 21.75 3.78-6.42 27.1-319.61-58.28 1.62-947.141 6.06-20.713 21.21-16.785h337.47l29.15 3.533 31.81 26.504 22.97 37.988 121.91-80.394-7.95-85.694h-12.37v-52.123h-173.15V580.64l-9.55 9.25h-343.83l-23.56-28.681.11-546.9046h-90.93V1537.75h-43.55V14.3047ZM1106.68 934.322h144.21v53.414h-44.51v445.114h-56.98V987.736h-42.72Zm1950.68 718.958 134.29 24.59-4.97 25.58-133.87-24.18Zm161.72 29.32 134.29 23.64-5.27 26.36-133.02-24.02Zm-2232.584 21.16H2020.88c386.84 0 354.58-.72 359.1 8.02 3.46 6.71 2.59 12.98-2.54 18.11l-4.54 4.54H986.166c.09-9.66.21-19.83.33-30.67Zm1735.124 13.33c4.13 0 623.66 106.82 681.06 117.42 120.31 22.24 119.46 22.04 122.46 28.34 4.44 9.36 2.84 15.66-4.8 18.86l-.01-.01c-4.4 1.84-18.08 2.58-23.65 1.28-3.57-.83-432.9-76.98-611.3-108.42-168.72-29.74-173.37-30.64-176.33-34.08-8.08-9.39-.55-23.39 12.57-23.39Zm-549.64 108.05 248 .62 8.48 4.69c5.37 2.96 10.01 6.8 12.66 10.46l4.19 5.78.39 37.87 1.66 37.87c-.05 19.1.29 93.12 0 133.95v123.34l-22.67 25.1v200.73l22.67 23.16v313.31l-3.35 16.44c-3.67 17.99-4.88 20.59-12.19 26.17l-4.92 3.75-140.88.78v47.9h66.68c80.15 0 80.2 0 91.68 23l3.02 6.05-.38 377.14c-.32 320.43-.66 377.89-2.26 382.17-3.02 8.09-9.75 14.85-18.33 18.42l-7.74 3.21-467.33.75-.06-251.52 3.67-3.33c7.11-6.46 7.55-6.5 70.4-6.5h59.27v50.67h138.67v-113.33h-35.95v-108.07h17.34v-72h-67.93l-2.04-3.94c-2.54-4.9-3.13-283.63-.62-290.3.78-2.07 3.3-5.71 5.6-8.09l4.18-4.33h60.81v-48h-62.48l-3.9-4.75c-7.06-8.56-6.96-6.63-6.96-129.08v-114.18h64v-48l-59.33-.01-23.01-84.33-23-84.32 1.47-238.11-438.52-.58 1.01-253.53 237.52.07 6.93 6.85 12.21 11.34h233.52Zm-1422.646 5.78s146.408.11 241.086.16v214.35l-130.047-.86v312.96H749.334Zm315.156.21c98.86.06 149.25.05 226.78.15 123.78 1.12 286.01-2.4 296.21 3.54 4.44 5.61 6.57 11.04 7.98 18.21v222.7h-249.15l-1.28-31.8-173.39.62-.15 180.44 52.85 1.25-1.25 131.29H903.436v-285.4h85.261v21.53h-44.783v132.63h120.576Zm1647.36 9.05c5.36-.54 242.94 42.32 244.28 44.06 3.49 5.02 6.96 10.04 10.43 15.07l10.3 14.88 8.9 1.53c4.89.83 56.7 9.89 115.13 20.12 58.43 10.23 107.63 18.72 109.33 18.85 2 .16 8.16-3.44 17.45-10.18l14.37-10.44 192.97 32.3c236.12 39.5 235.12 39.3 244.34 53.2 4.84 7.31 4.85 5.07-.19 34.59-1.9 11.13-27.65 161.6-37.9 221.47-1.23 1.02-1.86 3.3-2.51 8-3.33 24.17-12.66 32.59-35.33 31.87l-8.18-.26c-49.72-8.31-162.38-26.41-189.74-30.42l-.19-1.6-153.34-26.31c-180.59-30.99-157.99-28.61-165.3-17.31-6.45 9.97-18.93 22.23-40.69 39.99-20.94 17.08-37.94 32.43-38.5 34.74-.26 1.13.57 15.29 1.87 31.47l2.36 29.41 62.93 16.12.38 7.89c.27 5.56-7.14 51.95-25.1 157.22-28.99 169.91-26.48 145.9-23.48 224l1.53 40 18 1.56c27.73 2.4 30 2.31 31.62-1.22 9.93-21.57 30.45-30.47 57.83-25.07 8.37 1.65 50.32 9.17 93.22 16.72l78.87 13.88c.1.02.22-.51.32-.72 17.28 3.33 108.09 19.26 135.8 24.1 61.67 10.76 65.25 11.88 77.42 24.36 9.32 9.54 23.4 44.06 23.7 58.11.04 1.61-4.61 30.43-10.33 64.05l-10.4 61.13-5.56-.62c-3.52-.39-6.2.01-7.33 1.11-2.11 2.05-12.23.92-53.11-5.92-23.5-3.94-24.89-3.86-25.69 1.5-.82 5.51-3.33 18.5-5.13 26.6-.76 3.45-1.89 9.45-2.5 13.33-1.77 11.38-4.12 24.07-5.3 28.7-1.08 4.19-.98 4.32 3.76 5.06 2.67.42 6.97 1.3 9.53 1.97 2.56.67 6.46 1.58 8.66 2.02 24.36 4.88 50.92 11.86 53.85 14.16 1.75 1.37 4.69 2.5 6.53 2.5 3.3 0 3.34.11 2.54 8.33l-3.52 36.33c-6.02 62.43-8.47 70.19-28.2 89.39l-10.25 9.97-750.28-.69-7.63-3.75c-8.96-4.4-15.77-11.86-23.14-25.34l-5.23-9.58-.67-1329.98 1.54-29.15.42-29.16 4.67-6.95c5.61-8.36 18.84-15.89 29.87-16.99Zm-172.54 64.92h44l1.38 17.33v1290.65h-46.67V1922.43Zm-1256.72 244.74 301.27 1.64c-.7 86.23-.7 149.17-3.92 220.97l-3.95 90.64-5.82 52.79c-3.69 22.73-7.28 54.57-11.21 72.9l-23.87 67.68-75.68 183.94c-52.28 123.93-100.97 227.11-101.74 229.31-3.25 9.2-3.5 12.68-14.85 12.68h-10.27l-42.66-20c-23.46-11-42.94-20-43.28-20-.01 0-.62.66-.65.68l-122.06-60.13 25.7-56.62 64.12-169.83 32.21-115.74 25.66-146.28 11.24-150.28Zm366.1 28.54h173.29c192.04 0 180.11-.54 191.45 8.69 4.02 3.28 5.43 16.42 8.04 23.22 2.83 7.35 31.27 132.31 31.27 136.63 0 1.7-177.55.83-179.72-.88-.91-.72-1.66-3.05-1.66-5.15v-3.84h-18.67v116h29.33v-6.4c0-9.3.64-9.6 20.94-9.6h17.73v-7.07c0-3.88.72-7.78 1.6-8.66 2.29-2.29 78.54.35 80.83 2.64l66.34 3.27 17.02 71.95.88 188.54h-44v134.67h45.55l-.79 157.88c-.84 169.77-.55 163.16-7.64 169.63-8.1 7.39-5.06 7.16-91.71 7.16h-80.07v-313.33h22.67v-89.07c0-67.5.38-89.46 1.6-90.67 1.24-1.24-.18-1.6-6.4-1.6-11.19 0-11.2-.03-11.2-22.66 0-25.03-4.12-22.67 39.6-22.67h36.4v-22.67h-62.67v-40h-13.07c-14.78 0-16.26-.75-16.26-8.27v-5.07h-37.34v12c0 10.55-.32 12.19-2.66 13.65-2.42 1.51-2.67 3.11-2.67 17.35v15.67h-27.33c-23.41 0-27.34.3-27.34 2 0 1.1-.47 2-1.07 2-.58 0-2.16 3.15-3.51 7-7.59 17.79-14.96 35.69-22.11 53.67-6.13 13.33-6.13 13.53-.36 15.37 4.44 1.56 8.79 3.33 13.05 5.31 23.92 11 49.02 20.78 74 30.75l11.33 4.7-.2 6.12c-.11 3.36-1.11 7.53-2.21 9.27-11.55 27.09-24.54 58.1-35.58 84.31 0 4.52-9.02 4.62-18 .2-25.97-12.67-52.1-20.44-84.77-32.7-.5 0-2.27 3.75-3.93 8.34-20.47 50.36-41.93 98.37-60.59 148.33-1.18 3.49-2.58 6.9-4.18 10.22l-1.88 3.56 31 12.16c17.06 6.69 36.02 14.09 42.14 16.45l11.13 4.27-.97 121-.97 121h153.68v-18.66h260v109.4h-.06v19.33l-626.66-.79v45.46h371.8l2.77 3.51c4.3 84.62 2.76 173.05 2.76 256.42h-572.25l-4.88-2.74c-16.67-9.38-21.79-49.81-13.57-151.64 13.02-161.37 39.26-260.23 111.4-423.03 66.36-149.72 114.42-258.59 122.5-281.59 4.7-13.38 12.3-33.34 16.9-44.34 4.6-11 10.4-26.28 12.9-33.98 2.5-7.69 10.73-29.89 18.28-49.33 7.54-19.44 21.01-64.85 23.3-73.29 11.24-41.38 14.34-70.27 15.87-136.2.38-16.13 1.16-58.16 2.26-73.19 1.72-23.7 5.99-157.19 6.07-180.69Zm1555.68 164.25c16.25-.72 33.6 4.08 33.6 11.16 0 3.5-1.01 3.99-13.45 6.59-5.27 1.1-12.61 3.93-17.26 6.66-4.45 2.61-8.81 4.7-9.69 4.66-1.42-.07-24.58-12.6-26.26-14.2-1.54-1.46 10.3-9.57 17.84-12.21 4.5-1.58 9.8-2.43 15.22-2.66Zm59.46 9.28c5.65-.3 17.03 1.42 39.8 5.51 38.42 6.91 38.5 6.99 21.47 20.77-12.16 9.83-10.54 9.74-23.79 1.32-5.87-3.73-17.87-10.07-26.67-14.07-18.75-8.54-17.13-7.44-16.03-10.89.5-1.55 1.83-2.46 5.22-2.64Zm240.41 5.52c9.35.17 54.24.79 80.15 1.21l-.07.83 11.85.89c6.52.49 20.33 2.63 30.7 4.77 49.76 10.24 52.32-2.11 59.48 133.07 6.22 117.75 5.44 126.95 13.68 172.11 8.7 47.59 3.26 51.78-12.19 73.44-4.43 6.22-95.69 61.36-101.47 61.31-1.29-.02-44.05-7.16-95.01-15.89-64.99-11.13-119.75-18.01-164.66-25.29-25.8-4.98-26.62-17.19-66.9-79.04-6.74-19.19-17.25-16.49-11.31-60.63 2.71-16.5 6.4-36.26 7.12-41.76 2.2-16.76 5.16-34.69 7.96-48.26 1.46-7.08 4.99-19.32 4.62-20.74-.69-2.64 39.72-47.39 45.92-50.24 4.33-1.99 12.06-16.77 24.66-47.16l11.77-28.4 7.29-4.17c4.98-2.85 11.12-4.84 19.34-6.26l12.04-2.1.77-2.89c31.79-4.44 103.09-15 114.26-14.8Zm-340.6 12.4h.01c1.84-.03 4.44 2.21 10.43 6.68 12.34 9.22 12.09 7.49 3.3 22.42-10.83 18.4-16.05 30.24-20.93 47.52-2.39 8.43-4.9 16.08-5.57 17-1.29 1.74-15.74 2.39-17.35.77-6.38-6.38 9.8-64.76 24.24-87.43 2.95-4.63 4.03-6.93 5.87-6.96Zm84.88 10.06c25.85.15 51.18 19.39 53.07 44.34.98 12.96 1.07 12.82-40.5 60.23-9.42 10.73-17.62 20.82-18.23 22.42-2.21 5.77-8.66 28.96-9.6 34.53-1.36 8.1-7.44 16.47-12.73 17.52-19.85 3.98-27.56.42-35.75-16.48l-6.14-12.67.13-32.67.14-32.66 4.28-10.64c2.35-5.85 4.79-10.95 5.39-11.34 1.45-.9 22.73-45.26 22.73-47.38 0-2.39 9.71-8.4 19.5-12.09 5.74-2.16 11.74-3.14 17.71-3.11ZM749.334 2404.2h466.276l13.51 24.39-7.76 101.71-32.33 152.34-51.05 148.78-66.24 151.97-103.931 2.9-.022.88H749.334Zm2382.246 73.04c1.47-.14 3.46.23 6.19.51 12.03 1.26 11.48-.15 11.95 30.76l.41 27.27h-24.47l.92-27c.89-26.02.6-31.1 5-31.54Zm19.69 82.49c2.24.17 4.03.52 4.87 1.07 2.12 1.39 23.17 51.65 23.15 55.3 0 1.95-5.64 9.36-15.94 21-8.77 9.89-16.46 18.15-17.1 18.37-4.16 1.38-10.35-25.2-15.1-64.84l-3.09-25.82 3.1-2.51c2.42-1.96 13.36-3.07 20.11-2.57Zm40.74 83.48c3.77.74 8.97 8.5 22 30.65 17.52 29.74 19.53 35.14 14 37.66-5.08 2.31-24.25 1.76-30.9-.89-10.99-4.36-37.8-28.19-37.8-33.58 0-.99 24.81-28.65 29.16-32.51 1.18-1.04 2.28-1.58 3.54-1.33ZM749.334 3019.75H943.15v110.08l-7.045 6.16H749.334Zm.092 144.42h137.816v31.87h-99.828v168.74h-37.988Zm165.203 67.21h99.831l29.9 17.26v114.37H852.789l.883-110.43h60.957Zm1854.091 107.03h1792.82c3.89 11.58 2.73 25.77.54 41.33H2768.72Zm1014.63 87.87 124.67.77 7 3.17c3.86 1.74 8.81 5.21 11 7.71l4 4.55v41.24h5.06c2.79 0 5.79.72 6.67 1.6 2.03 2.03 2.28 47.15.27 48.4-.79.48-1.34 8.82-1.34 20.51v19.7l-4.06 6.14c-4.51 6.79-9.87 9.11-37.57 16.22-26.98 6.93-35.95 8.01-64.28 7.73l-26.59-.27-20.75-.97-27.66-.88c-44.53-1.4-50.81 17.44-67.55 35.58-16.13 17.48-14.65 16.9-43.07 16.9-67.32 1.56-144.04 2.1-218.91 1.12-4.72-.06-2.06-25.66 1.73-30.16 3.08-3.65 3.34-5.01 3.34-17.44v-13.47h-33.34v50.67h-41.33v62.66h25.32v-21.33h6.6c3.62 0 6.96-.6 7.41-1.33.53-.87 29.79-1.34 83.41-1.34h145.3v2.62h14.67v22.67h31.73c38.61 0 34.94-2.7 34.94 25.6v22.4h23.17c18.97 0 23.47-.36 24.83-2 1.26-1.52 4.67-2 14.16-2h12.5v-37.26c0-23.39-.49-37.56-1.33-38.08-2-1.23-1.75-39.71.27-41.73 1.16-1.16 11.31-1.6 37.28-1.6 33.84 0 35.76-.13 37.06-2.56 3.51-6.55 4.38-6.77 26.77-6.77h21.19l4.56 4 4.56 4h100.31l10.33 9.34h36c29.63 0 36.3.33 37.6 1.9 2.09 2.52 1.45 65.72-.69 67.14-1.87 1.25-9.9 16.26-9.9 18.52 0 .97-.49 1.76-1.09 1.76-.6 0-2.85 3.75-5 8.34-2.15 4.58-4.25 8.63-4.67 9-1.55 1.36-9.24 16.54-9.24 18.24 0 .96-.51 1.76-1.13 1.76-.63 0-2.26 2.49-3.63 5.53-4.43 9.83 1.86 9.11-82.34 9.38-41.93.13-69.6.75-69.6.75l10.03 14.5v11.17l3.67.04c2.07.01 6.66 2.2 10.54 5l15.34 11.08c22.3 16.14 74.31 25.96 94.34 17.82 20.26-8.23 24.69-13.1 42.94-47.27 38.69-72.4 80.94-148.77 84.8-153.3 3.63-4.26 6.43-5.73 18-9.48 21.11-6.83 31.4-15.37 33.96-28.17.82-4.08 12.16-10.47 25.89-14.58 5.73-1.72 5.45-.85 5.86-18.13l.23-9.68h-68.9v4.9c0 4.07-1.03 5.88-6.03 10.67l-6.02 5.77h-190.22l-5.2-3.82c-15.33-11.26-15.2-10.59-15.2-76.93 0-35.72.48-55.38 1.35-55.92.74-.46 3.39-4.03 5.89-7.93 2.49-3.89 6.59-8.65 9.1-10.57l4.58-3.49h207.09v19.33l9.67.33c16.7.57 17 .39 17-10.47v-9.26l196.67.73 10.25 4.16c36.61 14.85 59.69 49.21 58.08 86.44l-.71 16.5-14.95 28.45c-8.23 15.65-15.61 29.25-16.39 30.22-.53.65-2.6 6.95-3.37 8.48-.36-2.27-2.66-2.91-7.49-2.91-4.35 0-9.78-1.79-20.18-6.67-7.84-3.67-14.45-6.67-14.7-6.67-.9 0-5.42 6.98-5.84 8.84-.37 1.63-2.12 5.18-3.13 7.3-1.62 3.37-7.64 12.94-6.74 13.84.41.42 5.69 2.74 10.38 4.72 17.81 7.51 30.51 17.53 30.75 23.91 0 .15.74-1.52.85-1.55-4.91 13.4-8.82 22.15-17.37 36.93-14.36 24.83-12.68 23.3-25.44 23.33l-10 .03-11.34 22.36-36.63 72.03-25.3 49.65 10.6 30.58-44.67 89.5c-57.32 114.86-53.83 110.88-84.74 96.53-13.38-6.21-128.48-63.42-156.13-74.92-20.29-12.48-36.14-26.05-41.1-35.61l-2.6-5.02 3.79-14.59c2.09-8.02 3.55-14.84 3.25-15.14-1.43-1.43-92.42-23.38-96.93-23.38-4.1 0-6.93 1.32-13.7 6.41-4.69 3.54-13.72 9.54-20.05 13.34l-11.52 6.92h-109.58v.04h-68.08v-5.69c0-4.61-.56-5.93-3-7-2.92-1.28-3.01-1.91-3.36-24.31l-.37-23h-37.03c-41.17 0-40.24.2-40.24-8.94v-5.73h-126.67v25.07c0 27.42-.22 28.26-7.6 28.26h-4.4v35.74c0 39.36.1 38.93-8.26 38.93-3.62 0-5.07.57-5.07 2l-1.29 1.49v44.91c0 5.16-2.01 7.6-6.27 7.6-2.66 0-3.07.67-3.07 5.07 0 6.45-5.62 17.81-11.1 22.43-22.09 18.66-59.37 4.56-59.53-22.5l-.03-5h-14.4c-19.18 0-17.6 3.7-17.6-41.34v-38.15l-12.46-24.58c-13.42-26.51-29.59-56.1-39.12-71.6l-5.94-9.66h-17.15v-402.83l5.99-6.39c9.52-10.2-8.61-9.5 246.5-9.5h230.18v32h-33.33v124h161.33v-47.92c0-30.51.48-48.22 1.33-48.74.74-.46 1.34-6.46 1.34-13.42v-12.58h-82.67Zm-599.68.1 7.74 4.7c13.97 8.49 13.27 3.72 13.27 91.72 0 71.9.12 75.58 2.4 75.58 5.5 0 5.6 1.06 5.6 56.27v190.45h-8v25.33h9.74c11.39 0 12.93 1.06 12.93 8.93v5.74h5.07c7.65 0 8.27 1.34 8.27 18.05V3918l6.6 12.99c4.01 7.87 10.44 17.52 16.34 24.52l9.72 11.55.68 38.01c.67 37.3.75 38.23 4.4 48.7 7.53 21.61 27.34 42.27 48.84 53.21.44 156.25 2.75 468.74 2.75 468.74l-620.67-.2-8.21-2.89c-10.58-3.74-12.92-5.99-19.6-18.9l-5.52-10.67v-540.67c0-619.19-1.53-551.19 12.72-565.54 11.21-11.29-9.6-10.45 256.43-10.45ZM298.338 3739.49l724.582 2.91c161.78 0 153.74-.81 165.72 16.61l4.04 5.87v586.85h469.33v33.33h65.06l.57 216.33.57 216.33-2.97 5.33c-6.25 11.22-18.67 15.19-24.47 7.82l-2.76-3.51v-356.49l-87.34-81.69-1311.897-.13Zm1977.092 2.83 134.06.74 8.87 4.36c9.65 4.75 13.51 9.14 23.16 26.3l5.25 9.34.4 40.28.4 40.28-26.72 51.89-.13 87.77-.13 87.78 26.17 45.33.37 88.33.36 88.34h-80.06v-500h-92Zm-230.76 37.4h172v84l12.34.06c19.04.09 28.34 3.36 35.56 12.46l4.1 5.18v138l4.7.88c13.71 2.58 22.2 21.37 16.17 35.82-2.44 5.84-10.44 12.61-16.17 13.68l-4.7.88v164.38l-7.47 22.4c-7.57 22.76-8.95 25.14-17.53 30.46-2.38 1.48-4.33 3.24-4.33 3.91 0 .67-.58 1.22-1.3 1.22-1.82 0-13.37 8.29-13.37 9.6 0 .59-1.15 1.07-2.57 1.07-1.41 0-3.47.9-4.57 2s-2.66 2-3.48 2c-.82 0-3.86 1.21-6.76 2.69l-5.28 2.7v25.81c0 21.32.34 26.1 2 27.47 1.69 1.4 2 7.49 2 39.5v37.83h94.66v89.34h70.67v-164h76.11l-.4 85.66c-.45 95.48.06 90.18-9.96 103.7-3.25 4.4-7.45 8.08-11.65 10.23-13.27 6.77-14.66 6.89-72.77 5.94-63.3-1.02-85.34.2-111.33 6.2-9.53 2.2-23.93 5.32-32 6.92-8.07 1.6-26.97 6.41-42 10.7-15.03 4.28-31.41 8.73-36.41 9.88l-.01.02c-29.07 6.69-46.48-.1-57.88-22.58-2.6-5.13-9.15-16.11-14.55-24.4-5.4-8.27-9.82-15.54-9.82-16.13 0-.59 10.79-8.21 23.97-16.94l23.97-15.85.03-27.68.03-27.65h-22.4c-15.64 0-22.88-.5-24-1.61-2.28-2.28-2.28-70.53 0-72.8 1.12-1.12 8.21-1.59 23.34-1.59h21.73v-6.41c0-6.77 1.65-9.59 5.6-9.59 2.2 0 2.4-1.67 2.4-20.67v-20.68h-15.06c-8.3 0-15.67-.59-16.4-1.32-1.89-1.89-.85-380.02 1.05-382.32.81-.99 4.41-1.68 8.57-1.68h7.17l.2-13c.11-7.15.38-14.8.58-17 .21-2.2.8-12.56 1.32-23 .52-10.45 1.4-19 1.97-19 .56 0 2.73-2.72 4.81-6.04 4.79-7.64 16.11-11.72 28.79-10.4l7.67.8v-25.69h-89.34Zm-273.33 4h214.67v44h-44v244.4c0 188.31-.37 244.77-1.6 246-1.2 1.2-18.13 1.6-68 1.6h-66.4v182c0 100.1.21 182 .47 182s42-23.4 92.73-52c50.73-28.6 92.69-52 93.23-52 .91 0 14.94 22.62 16.06 25.9 1.72 4.98 14.17 33.56 14.87 34.1 1.23.98 7.22 18.53 6.55 19.18-.32.3-39.58 22.58-87.24 49.51-93.3 52.71-118.17 66.89-130.67 74.46l-.01-.01c-15.85 9.61-23.76 4.33-34.73-23.14l-7.2-18-.03-268.33-.04-268.33h-173.33v26.4c0 18.75-.46 26.86-1.6 28-2.39 2.39-338.8 2.32-340.8-.08-.86-1.05-1.74-19.49-2.32-49-1.25-62.93-1.34-71.29-1.67-146.99l-.27-65h-16v-10.18c0-15.93 1.64-19.67 11.22-25.53l8.11-4.96 518-.7Zm-530.54.01h480v80h-24v-46.67h-430.67v46.67h-25.33Zm2335.84 172.03h42.67v6.67h130.67v-.04h80.01l52.46 30.55c66.52 38.75 79.68 44.61 104.89 46.69 12.69 1.05 19.04-2.06 29.24-14.32 5.5-6.62 7.59-9.1 10.7-8.85 36.14 18.12 145.31 72.6 148.95 74.39 20.79 10.39 22.43 16.47 10 36.87l-7.72 12.66-11.28 2.48-11.27 2.47-35.3 67.34c-19.42 37.03-36.16 69.09-37.22 71.23-1.85 3.74-1.63 4.53 5.33 18.68l7.26 14.77-55.33 110.03c-64.18 127.65-66.12 130.96-81.54 140.15-14.05 8.39-11.3 8.19-112 8.19h-92.92V4386.7l.18-.24v-87.32l-8.83-10.42c-7.66-5.85-7.58-4.65-7.58-114.77V4073.1h-127.73c-97.57 0-128.11-.38-129.33-1.6-1.13-1.14-1.6-9.1-1.6-27.34v-65.73h6.62v-5.92c0-10.18-.44-10.08 48.3-10.08h42.37Zm-217.35 159.96 298.48.04 8.46 3.85c23.73 10.79 27.56 27.9 19.64 87.64-5.11 38.51-3.2 35.22-18.52 31.85-15.99-3.52-15.8-3.73-18.63 19.33-.77 6.23-1.74 12.9-2.17 14.81-1 4.5 10.07 7.98 28.07 8.83 22.52 1.06 35.43 3.47 36.73 41.96.47 13.93 2.11 35.92 2.58 45.64l9.44 33.46v172.58l-356.54-2.1Zm-3060.489 312h155.611c89.787 0 118.11.38 119.33 1.6 1.23 1.23 1.598 46.73 1.598 196.67v195.07h713.12l4.44 5.2c2.44 2.86 22.13 36.01 43.73 73.66 21.61 37.66 43.36 75.32 48.33 83.7 11.58 19.5 12.82 35.53 3.2 41.23-11.42 6.89-126.25 72.22-165.2 94.74l-69.62 4.13-28.48-23.15H950.369l-16.023 19.59H614.014l-23.147-19.59H402.141l-23.147 17.81h-79.73Zm1296.539 1.33v202.67c0 111.47.23 202.67.51 202.67.51 0 26.59-14.38 37.99-20.95l5.83-3.36-.92 29.15c-1.47 46.83 8.64 36.59-95.76 97.03h.01c-85.98 49.77-83 48.39-94.8 44.06-14.02-5.14-22.06-16.41-68.93-96.59l-43.26-74-1.16-178c-1.24-191.21-1.44-184.43 5.78-194.39 6.18-8.54 1.85-8.26 134.38-8.28Zm-633.867.01h317.757l5.39 5.13 5.39 5.12v161.45c0 173.3.31 166.17-7.57 171.53l-.01.02-5.05 3.42-324.009-.04c-231.973-.03-324.791-.45-326.701-1.5-6.25-3.42-6 3.77-6-169.94v-164.3l5.371-4.6c7.74-6.62-10.629-6.28 335.431-6.28Zm1743.607 209.32h1084.3l7.07 4.77c4.95 3.33 9.05 7.79 13.65 14.84l6.58 10.07-.64 532.33-4.36 8.9c-5.07 10.37-12.43 16.96-20.75 18.57-3.06.59-247.19 1.1-542.51 1.13l-536.95.06-7.72-2.83c-10.09-3.71-19.87-13.53-24.41-24.5l-3.3-8-.43-256.67c-.48-286.06-.78-275.25 7.86-284.62 2.81-3.04 8.82-7.45 13.36-9.79ZM299.264 5170.01h835.776c-260.122 149.74-650.739 374.11-836.741 480.29Z"/>
      <path d="M1847.56 9.37302 1721.64 75.9316V155.08l100.52.383 67.83 334.146 5.03 44.387-4.19 29.311-10.05 34.336-13.4 29.31-18.42 22.611-32.66 29.311-38.53 21.775-27.63 10.887-17.59-48.572 5.03-57.785 16.74-34.336 48.58-42.711 15.07-36.848 11.73-29.312 20.1-31.823 15.91-10.05-26.8-144.043h-77.13v219.336l-42.84 42.845h-69.26v-14.39h-107.93v14.39h-161v78.25h17.09v121.424l-5.4 7.195v182.584h43.18v-42.273h169.99l39.57 42.273 9.9 19.787v298.612h73.75v-60.26l-21.59-18.89-10.79-25.18V930.391l-13.49-26.985-20.69-17.088-16.19-22.486.9-34.178 17.99-25.183 30.58-9.895 33.28 7.195 39.57 36.877 50.37 32.379 47.67 21.586 79.15 6.297v-60.262l-35.07-1.798-48.57-10.793-51.27-26.985-36.88-37.775 57.57-23.385 42.27-32.379 30.58-35.078 23.38-46.771 17.99-55.764V274.705h24.29v428.129h62.06V13.8691h-86.35v94.4419h-66.55V9.37302ZM1439.44 579.219h237l2.51 25.961-4.18 27.636 11.72 80.395-38.52 47.736-22.61 21.774-26.8 47.736-9.21 13.398-127.3-.837-24.29-37.686Z"/>
    </g>
    <g id="gravel" class="gravel">
      <path d="M346.936 3769.47v615.23l830.674.04V3769.8Z"/>
      <path d="M2377.34 4962.73c2.48-6.06 3.54-11.96 2.95-16.37l-.65-4.85 6.41.62c11.89 1.14 18.36-12.08 10-20.43-6.3-6.32-20.72-2.46-20.72 5.54 0 1.25-2.9-2.47-6.44-8.27-3.54-5.8-10.03-16.25-14.42-23.21-8.01-12.85-15.96-25.74-23.85-38.67-19.98-32.71-19.28-32-31.14-32-7.99 0-10.52.64-18.06 4.57l-8.76 4.57-12.43-17.57c-4.51-6.32-8.95-12.68-13.33-19.1-.5-.85-1.4-7.45-2.02-14.67l-1.11-13.13-23.6-37.73c-12.98-20.75-23.24-38.3-22.8-39 2.09-3.39 7.16-.24 22.13 13.73 39.48 36.85 44.04 40.71 51.46 43.55 12.77 4.88 26.86 3.12 37.03-4.64 12.82-9.78 13.33-19.97 2.58-51.26-4.08-11.87-7.16-21.85-6.85-22.15.31-.3 11.21-.4 24.23-.2l23.68.36-6.42 7.79-6.92 19.33-.52 11.55 6.09 9.44c13.33 20.67 30.97 22.1 56.75 4.6l8.05-5.47v88.9l-29.98 4.1c-40.5 5.53-44.02 8.23-44.02 33.83 0 22.64 5.61 30.31 39.33 53.77 8.69 6.02 17.26 12.2 25.71 18.54l9.04 6.96-.37 12.46-.38 12.47-15.8 7.17c-11.73 5.33-15.55 6.58-14.85 4.87Zm-54.36-147.77c10.2-2.04 11.31-22.89 1.49-27.97-11.7-6.05-23.88.98-23.76 13.7.1 11.85 8.26 17.07 22.27 14.27Zm65.68-11.2c5.28-5.29 3.7-12.52-4.3-19.73-11.47-10.32-30.74-28.43-35.3-33.17-8.33-8.67-20.4-4.95-20.4 6.29 0 4.8.75 6.06 6.97 11.66 11.46 10.32 30.73 28.43 35.3 33.18 5.19 5.4 13.3 6.2 17.73 1.77Z"/>
      <path d="M3255.34 4969.23v-6.53l-6.64-1.6c-13.86-3.32-23.19-14.32-23.19-27.34 0-13.01 9.33-24.01 23.19-27.34l6.64-1.59v-14.4h140v14.4l6.64 1.6c13.86 3.32 23.19 14.32 23.19 27.33 0 13.02-9.33 24.02-23.19 27.34l-6.64 1.6v13.06h-140Zm30.06-26.07c2.53-2.53 3.27-4.67 3.27-9.4 0-4.72-.74-6.87-3.27-9.39-2.52-2.52-4.67-3.27-9.4-3.27-4.71 0-6.86.75-9.39 3.27-2.52 2.52-3.27 4.67-3.27 9.4 0 4.72.75 6.86 3.27 9.39 2.53 2.52 4.68 3.27 9.4 3.27 4.72 0 6.87-.75 9.4-3.27Zm49.33 0c2.53-2.53 3.28-4.67 3.28-9.4 0-4.72-.75-6.87-3.28-9.39-2.52-2.52-4.67-3.27-9.39-3.27-4.72 0-6.87.75-9.4 3.27-2.52 2.52-3.27 4.67-3.27 9.4 0 4.72.75 6.86 3.28 9.39 2.53 2.53 4.67 3.27 9.39 3.27 4.72 0 6.87-.75 9.4-3.27Zm49.34 0c2.52-2.53 3.27-4.67 3.27-9.4 0-4.72-.75-6.87-3.27-9.39-2.53-2.52-4.68-3.27-9.4-3.27-4.72 0-6.87.75-9.4 3.27-2.52 2.52-3.26 4.67-3.26 9.4 0 4.72.74 6.86 3.27 9.39 2.52 2.52 4.67 3.27 9.4 3.27s6.86-.75 9.39-3.27Z"/>
      <path d="M1246.54 4623.73c-6.44-2.38-8.28-10.16-3.53-14.91 7.94-7.95 20.58 3.87 13.04 12.2-2.78 3.08-6.02 4-9.51 2.71Z"/>
      <path d="M1113.97 4627.83c-4.08-1.16-4.06-1.28 3.72-19.05 6.78-15.5 7.49-16.1 12.75-10.83 12.42 12.42.18 34.64-16.47 29.88Z"/>
      <path d="M770.592 4654.53c-10.16-4.07-7.5-19.16 3.38-19.16 5.4 0 9.78 4.37 9.78 9.77 0 6.69-7.16 11.8-13.16 9.39Z"/>
      <path d="M725.452 4690.43c-13.37-4.1-17.62-20.75-7.9-30.9 12.98-13.54 35.94-.41 31.05 17.76-1.3 4.84-9.07 13.14-12.34 13.18-.89.01-2.82.27-4.28.58-1.47.31-4.4.03-6.53-.62Z"/>
      <path d="M905.972 4629.13v-96h107.998v192H905.972Zm37.97 67.05c1.87-9.97 8.87-17.7 16.03-17.7 7.16 0 14.16 7.73 16.03 17.7l.93 4.95h18.37v-144h-18.32l-.88 5.47c-3.87 24.2-28.4 24.2-32.26 0l-.88-5.47h-19.66v144h19.7Z"/>
      <path d="M665.972 4749.43c-5.33-1.94-5.44-3.17-1.03-11.2 4.61-8.38 7.08-9.53 11.05-5.15 6.28 6.94-1.4 19.48-10.02 16.35Z"/>
      <path d="M865.262 4753.13c-9.48-3.84-7.97-17.9 2.05-19.02 3.23-.37 3.35-.08 4 9.28.6 8.64-.35 11.96-3.11 10.92-.13-.04-1.45-.57-2.94-1.18Z"/>
      <path d="M752.122 4757.23c-8.43-9.32-2.83-26.07 9.87-29.5 16.74-4.5 30.6 16.87 19.15 29.53-3.33 3.68-25.68 3.66-29.02-.03Z"/>
      <path d="M3303.84 4163.53c-10.47-5.07-3.19-21.54 7.56-17.09 7.62 3.16 7.9 13.75.47 17.14-3.88 1.77-4.28 1.77-8.03-.05Z"/>
      <path d="M3229.14 4163.53c-10.47-5.07-3.19-21.54 7.56-17.09 7.62 3.16 7.9 13.75.47 17.14-3.88 1.77-4.28 1.77-8.03-.05Z"/>
      <path d="m3243.64 4219.03-4.33-4.54v-21.88c0-21.7.03-21.9 3.23-24 1.78-1.17 3.62-3.34 4.09-4.82.82-2.58 1.93-2.7 24.01-2.7 22.08 0 23.2.12 24.01 2.7.47 1.48 2.31 3.65 4.1 4.82 3.2 2.1 3.22 2.3 3.22 24v21.9l-9.24 9.24-44.76-.18Zm34.08-10.42c18.94-10.5 3.44-40.78-15.8-30.84-14.55 7.53-8.37 32.55 8.05 32.55 2.57 0 6.06-.77 7.75-1.7Z"/>
      <path d="M3303.84 4238.23c-10.47-5.07-3.19-21.54 7.56-17.09 7.62 3.16 7.9 13.75.47 17.14-3.88 1.77-4.28 1.77-8.03-.05Z"/>
      <path d="M3229.14 4238.23c-10.47-5.07-3.19-21.54 7.56-17.09 7.62 3.16 7.9 13.75.47 17.14-3.88 1.77-4.28 1.77-8.03-.05Z"/>
      <path d="m3243.64 4293.73-4.33-4.54v-21.88c0-21.7.03-21.9 3.23-24 1.78-1.17 3.62-3.34 4.09-4.82.82-2.58 1.93-2.7 24.01-2.7 22.08 0 23.2.12 24.01 2.7.47 1.48 2.31 3.65 4.1 4.82 3.2 2.1 3.22 2.3 3.22 24v21.9l-9.24 9.24-44.76-.18Zm34.08-10.42c18.94-10.5 3.44-40.78-15.8-30.84-14.55 7.53-8.37 32.55 8.05 32.55 2.57 0 6.06-.77 7.75-1.7Z"/>
      <path d="M3303.84 4312.83c-10.47-5.07-3.19-21.54 7.56-17.09 7.62 3.16 7.9 13.75.47 17.14-3.88 1.77-4.28 1.77-8.03-.05Z"/>
      <path d="M3229.14 4312.83c-10.47-5.07-3.19-21.54 7.56-17.09 7.62 3.16 7.9 13.75.47 17.14-3.88 1.77-4.28 1.77-8.03-.05Z"/>
      <path d="M3301.34 4350.53c-.93-2.92-7.42-3.51-54.25-4.95l-27.54-.84-.86-5.72c-.93-6.25-1.45-6.64-10.56-8l-6.17-.93v-114.18l3-.43c3.54-.5 4.52-11.82 4.83-56.1l.17-25h5.23c8.62 0 9.44-.76 9.44-8.8v-7.2h6.4c7.33 0 9.6-1.63 9.6-6.94v-3.76l86 .7.34 122.34.34 122.33h-12.58c-11.18 0-12.68-.28-13.39-2.53Zm-59.83-32.05c2.32-1.42 4.6-3.81 5.09-5.33.84-2.65 1.79-2.76 24.03-2.76 22.24 0 23.19.1 24.03 2.76 3.22 10.15 22.69 10.12 27.95-.05 4.01-7.77.77-19.9-5.89-22.01-2.65-.84-2.76-1.8-2.76-23.37 0-21.56.12-22.52 2.76-23.36 3.84-1.22 7.9-8.4 7.9-13.97s-4.06-12.75-7.9-13.97c-2.65-.84-2.76-1.8-2.76-23.36 0-21.57.12-22.53 2.76-23.37 6.66-2.1 9.9-14.24 5.89-22-5.02-9.71-22.38-10.52-27.32-1.29-1.34 2.5-2.83 2.66-24.66 2.66s-23.33-.16-24.66-2.66c-4.94-9.23-22.3-8.42-27.32 1.28-4.02 7.77-.77 19.9 5.89 22.01 2.64.84 2.76 1.8 2.76 23.37 0 21.56-.12 22.52-2.76 23.36-3.84 1.22-7.9 8.4-7.9 13.97s4.06 12.75 7.9 13.97c2.64.84 2.76 1.8 2.76 23.36 0 21.57-.12 22.53-2.76 23.37-3.77 1.2-7.9 8.36-7.9 13.7-.02 13.01 13.65 20.53 24.87 13.69Z"/>
      <path d="M1699.74 798.428c-27.59 0-49.95 21.767-49.95 48.619.07 25.209 19.91 46.189 45.72 48.324l6.88 8.693h129.06l-34.03-13.259-22.1-14.143-25.89-26.24c.13-1.122.21-2.248.25-3.375 0-26.852-22.36-48.619-49.94-48.619Z"/>
      <path d="M1699.74 1033.13v33.59l23.37 26.9c-1.99 6.02-3.01 12.3-3.04 18.62 0 16.42 6.7 32.16 18.64 43.76 11.94 11.61 28.13 18.12 45.01 18.12 16.88.01 33.07-6.51 45-18.12 11.94-11.6 18.64-27.34 18.64-43.76 0-16.41-6.7-32.15-18.64-43.75-11.93-11.61-28.12-18.13-45-18.12-8.21.04-16.34 1.63-23.92 4.67l-37.96-21.91Z"/>
    </g>
    <g id="green" class="land">
      <path d="m4213.64 2131.43-4.48-12c-2.11-5.68-4.75-10.59-5.85-10.9-8.07-2.34-92-14.39-94.98-13.64-4.8 1.2-7.47 5.51-7.96 12.81l-.4 5.93 54 9.57c59.18 10.5 60.59 10.68 59.67 8.23Z"/>
      <path d="m4497.74 2183.99-4.42-11.34c-2.2-5.63-4.9-10.5-6-10.82-1.11-.32-19.24-4-40.28-8.17l-38.25-7.6-11.38 8.44c-6.26 4.64-11.06 8.77-10.66 9.18 2.1 2.14 111.75 22.21 111 20.31Z"/>
      <path d="M4763.04 2220.64c2.34-13.1 5.4-11.46-34.1-18.23l-33.68-5.77-12.52 8.56c-6.89 4.71-12.24 8.86-11.9 9.23.98 1.03 84.77 17.18 87.72 16.9 2.17-.2 2.93-2 4.48-10.69Z"/>
      <path d="M1081.97 4688.33c0-1.16 6.03-15.16 13.4-31.1l13.4-29 7.05.6c19.92 1.64 29.94-26.52 12.29-34.56l-3.2-1.46 6.6-14.18c8.36-17.95 6.2-16.2 32.43-26.31 28.58-11.02 23.65-12.95 60.03 23.45 27.92 27.95 29.1 29.34 24.99 29.34-5.77 0-9.66 4.03-9.66 10 0 6.13 3.87 10 10 10 5.96 0 9.99-3.88 10.04-9.66l.04-4.34 3.96 4.36c4.2 4.62 4.5 5.4 2.93 7.86-.77 1.22-181.13 67.12-183.68 67.12-.34 0-.62-.96-.62-2.12Zm42.67-27.22c1.65-1.65 2.66-4.44 2.66-7.33 0-2.9-1.01-5.69-2.66-7.34-1.65-1.65-4.45-2.66-7.34-2.66-2.89 0-5.68 1.01-7.33 2.66-1.65 1.65-2.67 4.45-2.67 7.34 0 2.89 1.02 5.68 2.67 7.33 1.65 1.65 4.44 2.67 7.33 2.67 2.9 0 5.69-1.02 7.34-2.67Zm36-4c1.65-1.65 2.66-4.44 2.66-7.33 0-2.9-1.01-5.69-2.66-7.34-1.65-1.65-4.45-2.66-7.34-2.66-2.89 0-5.68 1.01-7.33 2.66-1.65 1.65-2.67 4.45-2.67 7.34 0 2.89 1.02 5.68 2.67 7.33 1.65 1.65 4.44 2.67 7.33 2.67 2.9 0 5.69-1.02 7.34-2.67Zm47.6-53.28c11.57-7.05 11.09-26.5-.81-32.65-13-6.73-28.1 2.05-28.12 16.33-.01 11.38 7.43 18.92 18.66 18.92 3.6 0 7.7-1.04 10.27-2.6Zm-51.6-21.39c1.65-1.65 2.66-4.44 2.66-7.33 0-2.89-1.01-5.68-2.66-7.33-1.65-1.65-4.45-2.67-7.34-2.67-2.89 0-5.68 1.02-7.33 2.67-1.65 1.65-2.67 4.44-2.67 7.33 0 2.89 1.02 5.68 2.67 7.33 1.65 1.65 4.44 2.67 7.33 2.67 2.9 0 5.69-1.02 7.34-2.67Z"/>
      <path d="M923.312 4577.73v-20.67h20v4.8c0 2.64.98 6.86 2.17 9.37 8.24 17.37 31.16 10.48 31.16-9.37v-4.8h18.67v41.34h-72Z"/>
      <path d="M923.312 4629.13v-29.33h72v58.66h-72Z"/>
      <path d="M923.312 4680.43v-20.67h72v41.34h-18.67v-4.14c0-2.27-.97-6.18-2.17-8.7-8.06-16.99-31.16-10.53-31.16 8.7v4.14h-20Z"/>
      <path d="M658.312 4758.93c-2.25-.9-2.11-6 .24-9.2 1.53-2.07 2.25-2.25 3.6-.92.93.92 3.87 1.67 6.53 1.67 10.4 0 14.62-12.4 6.53-19.21l-4.1-3.45 34.28-59c39.66-68.29 35.63-62.37 38.77-57.03 8.87 15.06 32.88 11.4 36.36-5.56.78-3.82 1.38-3.37 44.12 32.75 51.9 43.87 48 38.2 48 69.83v24.34h-4.43c-5.9 0-10.23 4.6-10.23 10.85 0 5.77 4.51 10.48 10.03 10.48 3.69 0 3.76.11 1.54 2.33-2.5 2.5-87.63 4.5-87.53 2.06.02-.58.92-2.22 2-3.65 8.14-10.76-2.72-28.72-17.38-28.72-14.66 0-25.52 17.95-17.37 28.72 1.07 1.43 1.97 3.04 2 3.6.04 1.09-90.26 1.2-92.96.11Zm169.91-15.35c6.88-6.46 2.07-18.43-7.4-18.43-6.37 0-10.85 4.32-10.85 10.48 0 9.7 11.2 14.57 18.25 7.95Zm-106.67-10.67c6.88-6.46 2.07-18.43-7.4-18.43-6.37 0-10.85 4.33-10.85 10.48 0 9.7 11.2 14.58 18.25 7.95Zm116.9-22.3c16.6-10.93 9.29-36.11-10.48-36.11-11.73 0-19.31 7.58-19.31 19.31 0 11.74 7.58 19.32 19.31 19.32 4.3 0 8.03-.9 10.48-2.51Zm-71.56-3.03c6.87-6.46 2.07-18.43-7.4-18.43-6.37 0-10.85 4.32-10.85 10.48 0 9.7 11.2 14.57 18.25 7.95Zm-25.77-18.3c16.59-10.94 9.28-36.12-10.48-36.12-11.73 0-19.32 7.59-19.32 19.32s7.59 19.32 19.32 19.32c4.3 0 8.02-.9 10.48-2.52Zm75.1-29.7c6.88-6.46 2.07-18.43-7.4-18.43-6.37 0-10.85 4.32-10.85 10.48 0 9.7 11.2 14.57 18.25 7.95Zm-34.67-6.67c6.88-6.46 2.08-18.43-7.4-18.43-6.37 0-10.85 4.33-10.85 10.48 0 9.7 11.2 14.58 18.25 7.95Z"/>
      <path d="M1999.34 2071.1v-12.67h85.33v25.34h-85.33Z"/>
      <path d="M1897.94 2071.1v-12.67h85.33v25.34h-85.33Z"/>
      <path d="M2427.84 2156.52c-6.4-2.78-7.18-7.03-7.18-38.75 0-37.24 3.06-44.44 16.49-38.83 6.77 2.83 7.51 6.68 7.51 38.83 0 32.1-.75 36-7.47 38.8-5.22 2.19-4.2 2.2-9.35-.05Z"/>
      <path d="M2688.64 2251.76c-6.48-6.48-3.06-45.33 4-45.33 5.29 0 6.67 4.97 6.67 24s-1.38 24-6.67 24c-.73 0-2.53-1.2-4-2.67Z"/>
      <path d="M3922.34 2261.73c-1.87-1.31-4.57-7.39-8.13-18.3-7.9-24.2-7.93-23.24.7-25.17 9.37-2.1 9.24-.62 2.03-22.42l-6.29-19-13.71 1.12-3.3-12.65c-3.7-14.13-3.28-18.91 1.77-20.67 3.16-1.1 92.87 14.73 112.84 19.9 11.52 3 11.5 2.86 6.23 39.17-5.28 36.32-7.12 43.18-12.18 45.22-3.93 1.6-54.01 11.48-64.98 12.83-3.67.45-7.9 1.07-9.42 1.37-1.52.31-4.02-.32-5.56-1.4Z"/>
      <path d="M3777.14 2317.15c-17.07-6.08-25.72-17.44-26.05-34.25-.18-9.03 20.96-139.02 24.43-150.22 2.87-9.25 3.86-9.3 41.04-1.87l33 6.6 4.62 24.85 4.6 24.84-5.41 2.64c-2.98 1.45-5.67 2.8-5.96 2.98-1.18.75 7.2 38.05 8.67 38.62.87.33 4.56.06 8.2-.6l6.63-1.2 9.58 44.23-3.27 6.66c-6.24 12.74-2.65 11.22-91.8 38.69-.8.25-4.54-.64-8.28-1.97Z"/>
      <path d="M2001.14 2346.66c1.73-1.91 2.2-5.2 2.2-15.28 0-14.64 1.24-12.61-16.22-26.6l-10.41-8.35v-8.66l.02-8.67 9.56-6.67c4.54-3.13 8.97-6.39 13.31-9.78l3.76-3.12v-24.28c0-17.11-.48-24.76-1.6-25.88-2.28-2.28-66.53-2.28-68.8 0-.91.9-1.6 5.24-1.6 10v8.4h-86.67v-7.74c0-10.99.13-10.93-24.9-10.93h-21.7l-12.74 17.22-20.49.11-15.31-17.33h-55.53v-30.67h148.8c163.71 0 156.81-.33 168.53 8.16 8.63 6.25 11.03 13.51 27.5 83.18 8.31 35.2 15.96 67.45 17 71.66l1.87 7.67h-29.39c-28.39 0-29.31-.08-27.18-2.44Z"/>
      <path d="M3184.64 2364.2c-4-2.14-7.96-4.35-11.88-6.63-1.32-1.1 4.9-6.12 11.76-9.47 16.32-8 49.92-4.9 52.47 4.84.79 3.02-2.1 4.46-13.64 6.78-4.01.81-11.01 3.55-15.55 6.09-10.3 5.76-9.55 5.8-23.16-1.61Z"/>
      <path d="M2981.94 2357.96c0-9.8-.39-21.5-.86-26l-.85-8.2 4.52.02c11.04.05 10.52-1.17 10.52 24.7 0 27.68.11 27.28-7.47 27.28h-5.86Z"/>
      <path d="M3478.54 2378.99c.45-1.16.8-3.41.8-5 0-2.88.13-2.89 24.34-2.43 27.91.53 25.25-.06 24.18 5.33l-.84 4.2h-24.65c-21.92 0-24.55-.22-23.83-2.1Z"/>
      <path d="M3300.64 2378.02c-8.33-4.97-16.93-9.5-25.75-13.56-15.53-7.05-16-7.38-14.78-10.58 1.19-3.09 4.37-2.77 41.53 4.14 39.38 7.33 38.72 6.8 23.5 18.96-12.23 9.76-10.57 9.69-24.5 1.04Z"/>
      <path d="M2735.34 2369.76v-32.67h13.33v65.34h-13.33Z"/>
      <path d="M3271.84 2452.45c-6.29-5.6-8.4-8.44-9.1-12.23-2.9-15.45-14.38-25.8-28.61-25.8-3.45 0-5.78-2.02-18.05-15.66-4.71-5.25-4.13-5.95 10.6-12.88 24.24-11.4 52.46-3.14 67.1 19.63 10.85 16.87 10.19 26.72-2.9 42.93-10.83 13.4-8.95 13.01-19.04 4.01Z"/>
      <path d="m3139.04 2464.12-6.23-.5.67-7.6c2.26-25.87 11.54-55.52 24.17-77.26 5.83-10.03 4.85-9.94 16.31-1.37 11.23 8.4 11.17 6.29.66 24.39-10.93 18.83-12.7 22.9-18.74 43.32-4.33 14.62-7.3 20.58-9.86 19.76-.41-.14-3.55-.47-6.98-.74Z"/>
      <path d="M2688.64 2467.76c-6.48-6.48-3.06-45.33 4-45.33 5.29 0 6.67 4.97 6.67 24s-1.38 24-6.67 24c-.73 0-2.53-1.2-4-2.67Z"/>
      <path d="M2136.64 2492.44c0-.36-10.5-39.08-23.33-86.05l-23.34-85.4v-209.23h61.34v381.33h-7.34c-4.03 0-7.33-.3-7.33-.65Z"/>
      <path d="m3655.14 2498.8-4.8-.51-.87-12.14c-.52-7.97-.8-15.95-.86-23.93v-11.79h12v18.49c0 10.16.38 21.26.85 24.66.47 3.4.32 6.09-.33 5.97-.65-.13-3.35-.46-5.99-.74Z"/>
      <path d="M3126.44 2529.43c.41-3.48 1.14-16.7 1.61-29.37.77-20.45 1.11-22.97 3.05-22.42 1.2.35 5.63 1.04 9.84 1.53l7.67.9.01 18.85c0 10.36.4 22.9.86 27.84l.85 9h-24.63Z"/>
      <path d="M2736.64 2517.76v-32.67h13.33v65.34h-13.33Z"/>
      <path d="M3196.84 2557.37c-5.22-2.6-14.06-18.68-17-30.94-3.95-16.41-.98-59.95 5.06-74.27l4.05-9.6 3.51 2.16c17.22 10.55 20.2 13.53 26.54 26.6 5.06 10.4 12.24 21.22 18.62 28.03 3.2 3.42 4.87 6.25 4.3 7.33-1.15 2.16-8.72 29.37-9.96 35.75-2.81 14.6-20.6 22.16-35.12 14.94Z"/>
      <path d="M3263.44 2572.79c-9.21-1.36-8.64.27-6.02-17.23l2.27-15.13 16.52.88-2.46 15.56c-1.34 8.56-2.59 15.89-2.76 16.28-.17.39-3.56.23-7.55-.36Z"/>
      <path d="m3656.34 2574.8-4.94-.52-.4-23.26-.39-23.26h12.67v24c0 13.2-.45 23.9-1 23.78-.55-.12-3.22-.46-5.94-.74Z"/>
      <path d="M1804.74 2592.9c2.09-5.24 4.24-10.47 6.43-15.67l3.73-8.8 41.76-.74v32.07h-54.62Z"/>
      <path d="M2421.14 2599.23c-6.4-2.78-7.18-7.03-7.18-38.75 0-32.16.75-36 7.51-38.83 13.43-5.61 16.5 1.6 16.5 38.83 0 32.1-.76 36-7.48 38.8-5.22 2.19-4.2 2.2-9.35-.05Z"/>
      <path d="M2688.64 2617.13c-6.48-6.48-3.06-45.33 4-45.33 5.29 0 6.67 4.97 6.67 24s-1.38 24-6.67 24c-.73 0-2.53-1.2-4-2.67Z"/>
      <path d="M2145.94 2622.03v-24.38l-7.33-7.24-7.34-7.24v-42.1h64v105.34h-49.33Z"/>
      <path d="M3143.24 2648.33c-6.77-15.4-15.94-80.8-11.92-85.02 2.17-2.28 22.66-4.03 24.59-2.1 3.1 3.1 23.11 53.9 22.2 56.32-.61 1.6-6.95 9.5-14.08 17.56-19.92 22.52-17.41 20.92-20.79 13.24Z"/>
      <path d="M2043.34 2675.13c0-15.63 1.68-14.7-25.98-14.23l-22.69.38.4-20.56c.33-17.27.06-20.85-1.67-22.28-1.56-1.3-2.06-4.43-2.06-12.88v-11.17h-62.67v-40h36.4c41.09 0 39.6.38 39.6-10.27v-7.07h82.67v150.67h-44Z"/>
      <path d="M2739.34 2667.13v-32.67h13.33v65.34h-13.33Z"/>
      <path d="M3197.84 2709.83c-12.1-4.9-37.18-26.99-37.18-32.74 0-1.16 22.78-26.74 27.77-31.17 2.6-2.3 3.08-2.34 6-.43 3.44 2.26 31.83 49.6 34.81 58.05l1.83 5.18-4.58 2.2c-6.6 3.14-19.41 2.66-28.65-1.1Z"/>
      <path d="M3297.34 2717.93c-17.85-5.79-20.2-7.89-35.69-31.91-16.27-25.24-18.3-28.96-18.3-33.57 0-3.06 8-57.25 8.47-57.45.11-.05 3.33.16 7.15.46l6.96.54 5.7 9.24c6.27 10.15 4.68 9.29 26.9 14.55 6.5 1.54 12.27 2.31 12.79 1.71 1.64-1.87 16.4-109.92 15.18-111.06-.63-.59-7.58-2.41-15.44-4.05l-14.3-2.97-17.86 13.3-6.58-1.74c-3.62-.95-6.97-2.14-7.44-2.64-2.27-2.39 48.14-48.35 53.6-48.87 5.79-.55 28.3 1.93 29.64 3.26.45.46-8.24 57.12-19.3 125.92-11.08 68.8-20.14 125.84-20.14 126.76 0 2.15-.26 2.11-11.34-1.48Z"/>
      <path d="M3789.04 2726.83c-5-.97-6.41-14.17-23.08-216.9-5.66-68.9-2.22-113.29 10.13-130.37 17.85-24.72 26.1-31.05 49.64-38.14 20.62-6.21 25.9-5.94 31.66 1.62 7.68 10.08 7.7 11.48.24 47.13l-6.74 32.27h-5.75c-6.72 0-6.31-1-8.4 20.67-2.01 21.03-2.19 20 3.81 21.8 3.89 1.16 5.07 2.15 4.66 3.88-.88 3.7-20.53 116.3-20.53 117.64 0 .66-3.15 1.39-7 1.6l-7 .41-2.22 17.33c-3.26 25.47-3.45 24.04 3.31 25.94l5.76 1.6-7.76 42.24c-4.27 23.22-8.45 43.92-9.3 46-1.2 2.94-6.81 7.07-8.21 6.04-1.05-.32-2.13-.57-3.22-.75Z"/>
      <path d="m3972.54 2727.93-6.08-2.14 13.66-78.66c7.51-43.27 14.36-82.76 15.21-87.75 1.78-10.34 3.48-10.16 10 1.08l3.09 5.33-14.57 81.34c-8.01 44.73-14.72 81.7-14.9 82.13-.18.45-3.06-.15-6.41-1.33Z"/>
      <path d="M2147.34 2745.73v-31.33h48v27.73c0 29.35.32 30.93 6.27 30.93 1.83 0 3.06.8 3.06 2 0 1.72-4.07 2-28.66 2h-28.67Z"/>
      <path d="M3133.94 2824.43v-10h54.67v20h-54.67Z"/>
      <path d="M3214.94 2853.43c-4.53-.47-5-.9-5-4.44v-3.92h56v9.33l-23-.22c-12.65-.13-25.25-.46-28-.75Z"/>
      <path d="M2063.34 2865.13v-25.33h-20v-17.34h45.33v68h-25.33Z"/>
      <path d="M2741.94 2858.43v-64h13.33v128h-13.33Z"/>
      <path d="M2147.34 2892.43v-38h49.33v76h-49.33Z"/>
      <path d="M3889.94 3012.03c0-.63 1.85-10.7 4.12-22.38 2.26-11.68 4.28-22.43 4.48-23.9.2-1.46.71-4.16 1.14-6 .42-1.83 4.46-22.3 8.98-45.49l8.22-42.15 5.1 1.3c2.8.7 4.88 1.97 4.61 2.81-.27.84-6.27 30.03-13.35 64.87-10.57 52.06-13.37 63.88-15.74 66.45-3.39 3.66-7.56 6.14-7.56 4.5Z"/>
      <path d="M2057.94 3020.43c-1.4-1.69-7.27-2-37.5-2h-35.83l-.02-8.33c-.01-7.74-.26-8.46-3.6-10-4.5-2.1-62.45-2.4-63.72-.34-.45.74-2.59 1.34-4.75 1.34h-3.92v-157.33h11.92c6.56 0 12.3.6 12.75 1.33.45.73 3.49 1.33 6.74 1.33h5.93v129.33h117.33v-65.33h25.33v112h-14.5c-11.27 0-14.88-.45-16.17-2Z"/>
      <path d="M3456.74 3030.23c-23.07-4.37-42.11-8.12-42.31-8.32-.54-.54 18.38-144.07 19.08-144.78 1.16-1.19 57.33 9.59 63.17 12.12 12.79 5.54 24.02 20.47 25.43 33.8.72 6.83-12.66 89.91-18.08 112.34-.94 3.84 1.73 4.13-47.29-5.16Z"/>
      <path d="M2749.94 3043.13v-32.67h13.33v65.34h-13.33Z"/>
      <path d="M1658.74 3099.33c-9.85-36.4-49.7-56.98-85.45-44.15-5.13 1.84-10.24 3.66-11.36 4.04-2.13.72-69.3-62.61-69.3-65.36-.02-2.5 37.73-83.34 38.65-82.78 8.43 5.22 124.2 50.05 127.8 49.5 3.52-.55 13.1 2.7 45.67 15.44l41.21 16.13v115.6h-84.93Z"/>
      <path d="M2147.34 3062.43v-65.33h49.33v130.67h-49.33Z"/>
      <path d="M2067.34 3110.43v-45.33h20l-.03 33.66c-.03 35.04-.75 41.82-5 47.57-2.33 3.13-11.57 9.36-13.97 9.41-.55.02-1-20.38-1-45.3Z"/>
      <path d="M2421.14 3155.23c-6.4-2.78-7.18-7.03-7.18-38.75 0-37.23 3.06-44.44 16.49-38.83 6.77 2.83 7.51 6.68 7.51 38.83 0 32.1-.75 36-7.47 38.8-5.22 2.19-4.2 2.2-9.35-.05Z"/>
      <path d="M1908.64 3140.43v-16.67h36v33.34h-36Z"/>
      <path d="M3647.94 3159.63c-44.38-9.1-41.88 3.47-22.86-114.54 17.31-107.4 14.9-99.42 41.73-137.92 29.4-42.19 94.23-98.16 108.84-93.97 8.8 2.52 8.78 6.3-.38 56.63l-7.04 38.74-12.1-.15-3.02 16.67c-4.12 22.8-4.23 21.85 2.6 24.1l5.76 1.9-4.9 27.33c-2.71 15.04-7.5 41.86-10.65 59.6l-5.74 32.28-13.5.79-2.43 18.54c-2.79 21.25-2.75 21.5 3.4 22.65l4.6.86-.6 9.64c-2.57 41.76-20.75 49.76-83.7 36.85Z"/>
      <path d="M2688.64 3167.73c-6.48-6.48-3.06-45.33 4-45.33 5.29 0 6.67 4.97 6.67 24s-1.38 24-6.67 24c-.73 0-2.53-1.2-4-2.67Z"/>
      <path d="M1399.74 3199.43c4.38-10.78 77.44-176.61 78.14-177.35.52-.55 14.73 12.4 31.58 28.77l30.64 29.78-2.4 3.9c-6.62 10.73-9.98 38.35-6.23 51.09.39 1.31-18.27 10.93-63.58 32.78-71.69 34.55-69.1 33.37-68.15 31.03Z"/>
      <path d="M4553.94 3157.53v-62.2l22.33.9c12.29.5 28.05 1.25 35.04 1.7l12.7.8 6.6 42.16c7.1 45.4 8.2 66.71 3.83 75.15l-1.9 3.68h-78.6Z"/>
      <path d="M3432.64 3219.13v-8.67h62.67v17.34h-62.67Z"/>
      <path d="M3308.64 3219.13v-8.67h62.67v17.34h-62.67Z"/>
      <path d="M3132.64 3219.13v-8.67h130.67v17.34h-130.67Z"/>
      <path d="M3028.64 3219.13v-8.67h62.67v17.34h-62.67Z"/>
      <path d="M2853.94 3219.13v-8.67h130.67v17.34h-130.67Z"/>
      <path d="M2748.64 3197.73v-30h14.67v42.67h41.33v17.33h-56Z"/>
      <path d="M3607.34 3258.73c-16.35-1.94-16.4-2.35-6.63-63.75l2.99-18.82 6.15 1.92c6.26 1.96 144.74 9.46 148.42 8.05 1.08-.42 4.21-12.83 8.28-32.78l6.54-32.1 16.21-.8 2.36-18.66c3.03-23.9 3.09-23.54-4.37-25.26l-6.04-1.4 19.73-120.28 5.98 1.27c7.68 1.64 7.38 2.15 11.6-19.34 4.07-20.83 4.15-20.38-3.63-21.55l-5.78-.87 5.7-34.95c3.15-19.22 7.6-46.7 9.91-61.07l4.2-26.1 6.6 1.3c8.44 1.66 8.08 2.24 12.32-19.43 4.1-20.94 4.25-20.21-4.3-22.26l-6.45-1.55 8.37-50.25c4.6-27.64 8.72-52.18 9.15-54.53.75-4.07 1.08-4.28 7.68-4.66l6.9-.4 3.73-18.67c4.35-21.71 4.44-21.08-3.5-23.3-7.55-2.11-9.65 16.19 15.11-131.44 26.35-157.05 23.38-144.2 36.23-156.72 13-12.67 23.12-14.1 53.96-7.69l20.12 4.19-5.86 39.97c-6.79 46.38-7.17 42.72 4.7 44.84 7.58 1.36 9.22 2.09 8.8 3.9-.78 3.35-71.18 418.73-71.18 419.98 0 .59-4.86.53-10.8-.14-5.97-.67-11.24-.7-11.8-.07-3.77 4.3-66.77 371.21-66.76 388.81l.02 18.34h-230.59l-.37 18.33-.37 18.33-3.33-.4Zm342.33-709.6c2.38-14.3 4.18-28.4 4-31.32l-.33-5.31-24-5c-13.2-2.76-26.1-4.87-28.65-4.69l-4.66.32-5.02 26.67c-2.76 14.66-4.86 28.46-4.68 30.66l.34 4 26.67 5.57c35.63 7.43 31.19 9.98 36.33-20.9Z"/>
      <path d="M2187.34 3249.73v-34h17.33v31.56c0 27.5.29 31.88 2.21 34 2.12 2.35 1.78 2.44-8.67 2.44h-10.87Z"/>
      <path d="M4206.64 3277.43c-2.87-3.29-5.69-6.62-8.46-10-1.73-2.2.01-2.33 32.64-2.33h34.46l-19.87 20h-32.14Z"/>
      <path d="M3967.94 3277.43c-2.87-3.29-5.69-6.62-8.46-10-1.73-2.2.01-2.33 32.64-2.33h34.46l-19.87 20h-32.14Z"/>
      <path d="M4444.14 3276.43c-3.4-5.52-6.2-10.32-6.2-10.67 0-.34 9.9-.63 22-.63h22l-.01 7.67c-.04 14.17.58 13.67-16.61 13.67h-14.99Z"/>
      <path d="M3313.94 3286.43c-7.52-7.52-1.23-10.67 21.33-10.67 19.03 0 24 1.38 24 6.67s-4.97 6.67-24 6.67c-16.89 0-18.92-.26-21.33-2.67Z"/>
      <path d="M3217.94 3286.43c-7.52-7.52-1.23-10.67 21.33-10.67 19.03 0 24 1.38 24 6.67s-4.97 6.67-24 6.67c-16.89 0-18.92-.26-21.33-2.67Z"/>
      <path d="M2940.64 3286.43c-7.52-7.52-1.23-10.67 21.33-10.67 19.03 0 24 1.38 24 6.67s-4.97 6.67-24 6.67c-16.89 0-18.92-.26-21.33-2.67Z"/>
      <path d="M2860.64 3286.43c-7.52-7.52-1.23-10.67 21.33-10.67 19.03 0 24 1.38 24 6.67s-4.97 6.67-24 6.67c-16.89 0-18.92-.26-21.33-2.67Z"/>
      <path d="M1370.44 3332.13c.37-1.28 2.31-9.65 4.32-18.59 3.6-16 3.7-16.24 7.09-15.66 1.89.32 22.64 2.4 46.1 4.62 45.43 4.3 54.5 5.87 69.42 12.09 8.82 3.67 24.58 15.63 24.58 18.65 0 .73-30.66 1.22-76.09 1.22-71.83 0-76.05-.13-75.42-2.33Z"/>
      <path d="M1951.34 3334.43v-8h97.33v16h-97.33Z"/>
      <path d="M1544.64 3338.73c-4.83-15.22-15.46-27.18-33.29-37.44-8.74-5.03-29.94-9.34-80.08-16.28l-50.08-6.93 2.56-19.51c1.41-10.73 2.67-19.63 2.8-19.79 3.75-4.31 163.04-73.4 165.33-71.71 37.98 28.04 90.07 15.65 104.46-24.85l2.3-6.49h86.04v97.33h153.33v-18.66h260v129.33h-90.66v-14.67h70.66v-23.33c0-22.45-.1-23.34-2.66-23.34-2.51 0-2.67-.89-2.67-14.66v-14.67h-230.67v44h-12v29.33h42.67v16h-100v-89.33h-88v89.33h-9.34v-32h-54.66v32h-14.67v-38.66h-100v40h-19.8Z"/>
      <path d="M2421.14 3364.53c-6.4-2.78-7.18-7.03-7.18-38.75 0-32.15.75-36 7.51-38.83 13.43-5.61 16.5 1.6 16.5 38.83 0 32.1-.76 36-7.48 38.8-5.22 2.19-4.2 2.2-9.35-.05Z"/>
      <path d="M1803.34 3409.73v-10h89.33v20h-89.33Z"/>
      <path d="M1565.94 3409.73v-10h177.33v20h-177.33Z"/>
      <path d="M1964.64 3419.13v-18h120v36h-120Z"/>
      <path d="M2418.44 3471.23c-8.74-3.8-8.3-17.38.68-20.5 13.71-4.78 22.04 14.97 8.67 20.56-5.22 2.18-4.2 2.18-9.35-.06Z"/>
      <path d="M3880.64 3473.73v-10h20v20h-20Z"/>
      <path d="M2418.44 3544.53c-8.74-3.8-8.3-17.38.68-20.5 13.71-4.78 22.04 14.97 8.67 20.56-5.22 2.18-4.2 2.18-9.35-.06Z"/>
      <path d="M4666.44 3555.73c-.8-.8-7.7-3.48-15.32-5.96-7.62-2.47-13.85-4.99-13.85-5.6 0-2.36 17.36-39.43 18.7-39.95 2.27-.87 32.64 13.9 32.52 15.82-.76 12.13-17.9 39.85-22.05 35.69Z"/>
      <path d="M4092.94 3568.83c-4.87-4.87-3.06-5.07 47.07-5.07h48.66v6.67h-47.06c-34.83 0-47.49-.42-48.67-1.6Z"/>
      <path d="m3973.44 3567.13-2.18-3.33h54.03c29.71 0 54.03.5 54.03 1.12 0 5.22-3.2 5.54-54.29 5.54h-49.39Z"/>
      <path d="M3704.64 3593.73v-6h72c79.57 0 76.9-.32 67.86 8.13l-4.14 3.87h-135.72Z"/>
      <path d="M3355.34 3556.63c0-72.3-.26-83.39-2-84.83-4.77-3.96-2.54-12 3.33-12h5.34v63.07c0 47.27.4 63.46 1.6 64.66 1.06 1.07 6.87 1.6 17.33 1.6h15.73v50.67h-41.33Z"/>
      <path d="M2155.34 3635.73v-9.33h70.67v18.66h-70.67Z"/>
      <path d="M2015.34 3635.73v-9.33h70.67v18.66h-70.67Z"/>
      <path d="M1799.34 3635.73v-9.33h70.67v18.66h-70.67Z"/>
      <path d="M1679.34 3635.73v-9.33h70.67v18.66h-70.67Z"/>
      <path d="M1553.94 3635.73v-9.33h70.67v18.66h-70.67Z"/>
      <path d="M1413.94 3635.73v-9.33h70.67v18.66h-70.67Z"/>
      <path d="M3565.94 3643.13v-8.67h10.42c9.83 0 10.63.23 14.25 4l3.83 4h32.33l5.92-8h32.67l13.91-14.08v-35.1l4-2.36 4-2.37v-60.25l-4-3.84c-3.97-3.8-4-3.92-4-18.66v-14.83l-3.94-2.92c-3.24-2.4-5.75-2.92-14-2.92h-10.06v-14.67h46.67v160.71l-14.35 14.31-14.36 14.31h-103.29Z"/>
      <path d="M4177.94 3709.83c-8.43-3.17-15.19-6.41-15.01-7.21.84-3.85 19.47-35.83 22.06-37.87 8-6.32 18.04-6.8 30.47-1.48l4.86 2.08-12.09 25.2c-6.65 13.85-12.73 25.16-13.52 25.12-.79-.05-8.34-2.67-16.77-5.84Z"/>
      <path d="M4474.34 3742.13c-4.23-2.04-4.36-1.69 10.71-29.62 14.23-26.37 14.9-27.22 18.81-24.36 2.38 1.74-22.48 55.8-25.53 55.52-.54-.05-2.34-.74-4-1.54Z"/>
      <path d="M2908.64 3749.13v-9.33h18.67v18.66h-18.67Z"/>
      <path d="M2275.34 3797.13v-16h92v32h-92Z"/>
      <path d="M1395.34 3800.43v-16.67h174.67v33.34h-174.67Z"/>
      <path d="M2908.64 3810.43v-9.33h18.67v18.66h-18.67Z"/>
      <path d="M4105.94 3854.23c-8.43-2.98-15.88-5.92-16.55-6.55-.72-.66 4.45-12.65 12.54-29.08l13.76-27.96 14.8 7.4c5.11 2.5 10.18 5.09 15.2 7.76.97.88-21.67 53.98-22.98 53.91-.8-.04-8.34-2.5-16.77-5.48Z"/>
      <path d="M2175.34 3861.23c-6.2-3.26-24.18-8.27-33.33-9.28l-7.34-.81-.76-26h-89.24v-45.34h172v84l-18.33-.06c-15.15-.04-19.14-.48-23-2.51Z"/>
      <path d="M1696.64 3840.43v-23.33h-98.67v-33.34h122.67v80h-24Z"/>
      <path d="M1240.64 3823.73v-40h126.67v33.33h-101.33v46.67h-25.33Z"/>
      <path d="M3944.24 3897.03c-12.35-4.28-25.7-8.18-29.67-8.68l-7.22-.9v-15.7h7.17c8.53 0 8.83-.69 8.83-20.35v-12.02l7.92.72c5.2.47 11.96 2.55 19.67 6.05 15.16 6.87 25.97 10.2 42.15 13.01l13.07 2.27-2.48 2.83c-6.1 6.94-31.65 35.1-34.18 37.69l-2.81 2.86Z"/>
      <path d="M4270.34 3938.13c-4.23-2.04-4.36-1.69 10.71-29.62 14.23-26.37 14.9-27.22 18.81-24.36 2.38 1.74-22.48 55.8-25.53 55.52-.54-.05-2.34-.74-4-1.54Z"/>
      <path d="M2791.34 3940.43c-13.91-3.63-18.79-11.64-21.32-35.05-.95-8.83-2.7-14.57-8.73-28.65-14.1-32.91-13.26-33.64 38.42-33.64 61.63 0 70.8 7.9 52.17 44.9-17.9 35.58-42.74 57.09-60.54 52.44Z"/>
      <path d="M4031.94 3971.73c-30.98-22.27-31.95-24.06-26.63-49.3.64-3.05-.07-3.69-8.01-7.15-11.35-4.94-11.29-4.22-1.3-15.8l8.66-10.01 16.97 5.3c21.13 6.62 20.02 5.08 13.58 18.82-7.65 16.35-8.22 15.35 16.73 29.64 11.73 6.72 21.33 12.77 21.33 13.44 0 2.8-14.53 32.44-15.87 32.38-.8-.03-12.26-7.83-25.46-17.32Z"/>
      <path d="M1772.14 3988.23c-.47-5.61-.86-53.91-.86-107.33v-97.13h214.67v44h-21.84c-17.78 0-22.14-.37-23.5-2-2.22-2.68-136.52-3.06-138.17-.4-.54.89-.83 40.19-.63 87.34l.36 85.72H1773Z"/>
      <path d="M4332.94 4022.13c-4.23-2.04-4.36-1.69 10.71-29.62 14.23-26.37 14.9-27.22 18.81-24.36 2.38 1.74-22.48 55.8-25.53 55.52-.54-.05-2.34-.74-4-1.54Z"/>
      <path d="M4218.34 4038.13c-4.23-2.04-4.36-1.69 10.71-29.62 14.23-26.37 14.9-27.22 18.81-24.36 2.38 1.74-22.48 55.8-25.53 55.52-.54-.05-2.34-.74-4-1.54Z"/>
      <path d="M2867.94 4047.83c-21.37-7.53-48.17-21.41-64.81-33.58-15.51-11.33-20.42-29.11-11.77-42.6 4.35-6.78 4.82-7.03 25.78-13.87 20.67-6.75 37.28-19.14 44.34-33.07 3.13-6.17 25.8-68.88 25.8-71.36 0-1.9 5.83-6.47 10-7.81 9.96-3.21 16.06 4.77 18.25 23.88 2.63 23 1.32 151.33-1.64 160.36-7.08 21.6-20.68 26.95-45.95 18.05Z"/>
      <path d="M3383.54 4063.93c-12.05-4.16-21.15-15.14-23.6-28.46l-.93-5h71.26l-.92 5c-4.14 22.48-25.22 35.57-45.81 28.46Z"/>
      <path d="M2737.04 4079.13c-6.49-4.55-6.82-7.29-7.3-61.34-.5-55.67-.27-57.35 8.07-61.51 5.99-2.99 7.9-.97 17.02 18.02 13.95 29 19.2 38.99 24.74 46.98 9.5 13.72 7.44 23.18-8.88 40.75-13.03 14.02-27.53 21.4-33.65 17.1Z"/>
      <path d="M3240.64 4073.73v-34h32.78l3.79 12.16c5.01 16.07 25.56 45.17 31.9 45.17.4 0 4.17 2.4 8.36 5.34l7.61 5.33h-84.44Z"/>
      <path d="M3576.64 4126.43v-8h17.33v16h-17.33Z"/>
      <path d="M3511.34 4126.43v-8h17.33v16h-17.33Z"/>
      <path d="M3481.94 4126.43v-8h17.33v16h-17.33Z"/>
      <path d="M3369.94 4126.43v-8h17.33v16h-17.33Z"/>
      <path d="M3915.44 4135.93c-1.74-1.1 32.09-62.87 34.37-62.75 1.82.1 5.71 3.88 5.27 5.13-1.43 4.09-35.35 58.73-36.47 58.75-.73.02-2.16-.49-3.17-1.13Z"/>
      <path d="M3369.94 4159.13v-7.33h286.67v14.66h-286.67Z"/>
      <path d="M3805.94 4168.43v-4.67h65.23l6.97-11.4c8.4-13.74 7.53-13.13 13.52-9.52l4.87 2.94-19.1 27.32h-71.49Z"/>
      <path d="M3752.64 4168.43v-4.67h36v9.34h-36Z"/>
      <path d="M3266.24 4201.03c-10.23-4.1-3.27-19.86 7.04-15.94 8.17 3.1 4.46 20.06-3.77 17.24Z"/>
      <path d="M3201.94 4167.13v-48.67h22.67v6.4c0 7.85-1.6 9.6-8.78 9.6h-5.57l-.97 39c-.96 38.18-1.5 42.34-5.51 42.34-1.53 0-1.84-8.22-1.84-48.67Z"/>
      <path d="M2877.64 4222.43c-19.25-5.8-47.19-42.58-48.66-64.05-1.66-24.23 23.57-60.17 52.81-75.21 19.86-10.21 29.93 27.48 24.75 92.68-3.13 39.49-10.9 52-28.9 46.58Z"/>
      <path d="M2812.44 4256.53c-30.2-8.33-83.07-70.18-82.85-96.94.28-34.68 69.97-110.85 94.55-103.37 10.56 3.21 9.65 14.42-2.93 36.26-17.17 29.8-23.1 47.08-23.32 68-.2 19.72 4.55 32.67 24.5 66.75 9.53 16.29 9.72 26.62.55 29.81-1.37.53-2.77.96-4.2 1.3-.08-.06-2.91-.88-6.3-1.81Z"/>
      <path d="M3266.24 4275.73c-10.23-4.1-3.27-19.86 7.04-15.94 8.17 3.1 4.46 20.06-3.77 17.24Z"/>
      <path d="M3854.24 4318.03c-2.87-3.06-2.9-3.54-2.9-54.8v-51.71l4.14-3.87c5.78-5.4 36.65-6.02 42.7-.86 10.32 8.79 6.48 25.62-7.42 32.58-12.25 6.14-11.42 3.09-11.42 41.66 0 41.23.38 40.09-13.17 40.09-7.72 0-9.45-.45-11.93-3.09Z"/>
      <path d="m3647.24 4348.73-4.74-1.14 4.55-29.6c2.5-16.27 5.08-30.26 5.74-31.07 1.64-2.02 7.69-.7 9.02 1.98.85 1.69-6.06 45.32-9.33 58.9-.4 1.67-1.43 1.85-5.24.93Z"/>
      <path d="M3201.94 4341.93v-11.17l6.33.68c7.97.85 9.25 1.89 10.35 8.4.64 3.8 1.54 5.26 3.24 5.26 18.85 0 77.05 3.15 78.37 4.24 4.08 3.38-.74 3.76-48.29 3.76h-50Z"/>
      <path d="M2103.34 4344.43v-20.67l35-.01c37.4-.02 42.04-.6 56.22-7.1l7.45-3.4v51.85h-98.67Z"/>
      <path d="M4159.64 4367.43c-4.23-2.04-4.36-1.69 10.71-29.61 14.23-26.37 14.9-27.23 18.81-24.37 2.38 1.74-22.48 55.8-25.53 55.52-.54-.05-2.34-.74-4-1.54Z"/>
      <path d="M2735.94 4374.83c-7.63-1.86-7.33.93-7.33-69.04 0-73.05-.83-68.06 11.5-69.52 27.57-3.27 75.83 40.97 75.83 69.52 0 30.65-52.3 75.79-80 69.04Z"/>
      <path d="M4047.64 4376.83c-4.23-2.04-4.36-1.69 10.71-29.62 14.23-26.37 14.9-27.22 18.81-24.36 2.38 1.74-22.48 55.8-25.53 55.52-.54-.05-2.34-.74-4-1.54Z"/>
      <path d="M2744.74 4425.63c-7.97-3.35-10.63-13.02-5.41-19.66 3.96-5.03 17.16-10.86 36.77-16.23 37.96-10.4 42.13-12.18 52.97-22.68l9.76-9.44 5.01-15.93c25.19-79.97 26.93-83.71 37.9-81.3 12.56 2.75 16.16 17.67 17.4 72.03 1.63 71.71-2.54 83.24-33.28 91.8-9.72 2.7-115.12 3.93-121.12 1.41Z"/>
      <path d="M3939.34 4421.13v-13.33h37.43l-1.55 3c-7.23 14.04-19.74 23.62-30.88 23.65l-5 .01Z"/>
      <path d="M2872.64 4461.13v-9.33h20v18.66h-20Z"/>
      <path d="M979.602 4475.03c-2.68-1.88-2.96-3.2-2.96-13.92 0-16.68-1.54-16 35.998-16 37.53 0 36-.69 36 16 0 16.68 1.53 16-36 16-25.058 0-30.568-.35-33.038-2.08Z"/>
      <path d="M3939.34 4478.13c-.07-34.81-.72-33.39 12.32-26.84 8.64 4.34 7.73 3.32 9.64 10.82 2.52 9.94-4.28 26.5-16.58 40.35l-5.32 6Z"/>
      <path d="M345.972 4478.43v-33.33h213.33v66.66h-213.33Zm64.23 7.13c3.08-2.8 3.21-10.73.23-14.03-5.48-6.05-16.46-1.6-16.46 6.67 0 8.58 9.91 13.07 16.23 7.36Z"/>
      <path d="M2872.64 4503.73v-9.33h20v18.66h-20Z"/>
      <path d="M893.972 4509.33c0-9.85-3.65-9.27 64.83-10.32l61.498-.95 2.83 2.84c1.95 1.95 2.84 4.51 2.84 8.18v5.33H893.972Z"/>
      <path d="M2412.64 4451.73v-81.33h30.67v162.67h-30.67Z"/>
      <path d="M1134.68 4533.73c-6.24-2.14-2.3 2.6-34.43-41.47-29.28-40.15-30.83-42.48-29.59-44.49 1.43-2.32 105.34-1.7 109.9.65 5.33 2.76 5.42 3.31 5.4 33.15 0 25.54-.17 27.24-3.19 33.73l-3.18 6.84-19.94 6.66c-18.8 6.28-20.22 6.56-24.97 4.93Z"/>
      <path d="M3241.94 4559.73v-8h68v16h-68Z"/>
      <path d="M3128.64 4559.73v-8h68v16h-68Z"/>
      <path d="M2057.54 4558.33c-4.15-6.66-7.54-12.51-7.52-13 .02-.49 10.27-7.68 22.79-15.98l22.75-15.08 53.36.13c38.5.09 53.88-.3 55.21-1.42 1.5-1.23 1.86-8.12 1.86-35.37v-33.84h94.65v94.67h-63.66c-89 0-106.6 2.88-154.2 25.19-18.24 8.55-16.37 8.95-25.25-5.3Z"/>
      <path d="M1352.64 4507.73v-62.67h34.67v110.67h-13.34v14.67h-21.33Z"/>
      <path d="m1236.88 4558.13-29.57-32.33v-35.74c0-48.78-2.9-44.93 33.91-44.93 25.43 0 25.73.03 29.22 3.27l3.53 3.27v138.79h-3.76c-3.21 0-8.1-4.73-33.33-32.33Z"/>
      <path d="M815.972 4601.73c-27.13-22.4-50.08-41.7-51-42.92-2.05-2.73-2.4-107.81-.36-111.03 2.37-3.75 101.4-3.66 104.78.1 3.28 3.62 4.84 191.4 1.61 193.45-3.72 2.36-7.46-.33-55.03-39.6Z"/>
      <path d="M1070.03 4574.03c-.05-73.7.16-82.28 2-81.25 1.94 1.08 42.91 57.81 44.23 61.23.5 1.33-38.03 87.39-44.37 99.09-1.54 2.83-1.81-8.98-1.86-79.07Z"/>
      <path d="M4006.44 4693.83c-8.86-3.86-8.28-17.38.88-20.57 2.74-.96 15.36-1.52 34.2-1.52 33.08 0 36.32.66 38.86 7.96 1.91 5.48-.33 11.57-5.2 14.08-5.26 2.73-62.5 2.77-68.74.05Z"/>
      <path d="M2361.94 4724.73c-21.97-11.1-13.9-45 10.7-45 14.35 0 26.12 14.31 23.46 28.52-1.95 10.37-12.91 19.48-23.45 19.48-2.63 0-7.44-1.35-10.71-3Z"/>
      <path d="m638.012 4658.13-.04-82.3 3.13-2.05c5.12-3.36 91.97-2.37 92.63 1.05.51 2.69-13.02 26.19-15.1 26.2-.73.02-7.93-3.6-16-8.04-22.27-12.24-19.25-13.36-35.13 12.98-7.44 12.36-13.52 23.36-13.5 24.46.02 1.1 7.5 7.1 16.64 13.34 9.12 6.23 16.61 11.81 16.63 12.4.02.6-10.36 18.6-23.07 40-12.7 21.41-23.79 40.13-24.63 41.6-1.15 2.02-1.53-17.23-1.56-79.64Z"/>
      <path d="M1769.94 4490.43v-250.67l33.6017-.8009 3.0683 445.9509 92-51.87 93.33-51.87 8.82 12.54 7.5 12.52-111.5 63.64-125.99 71.22-.84-250.67z"/>
      <path d="M2275.24 4742.13c-21.97-11.1-13.9-45 10.7-45 14.35 0 26.12 14.31 23.46 28.52-1.95 10.37-12.91 19.48-23.45 19.48-2.63 0-7.44-1.35-10.71-3Z"/>
      <path d="M521.972 4642.43v-110.67h37.33v221.33h-37.33Z"/>
      <path d="M1075.31 4758.83c-4.5-1.61-5.33-4.8-5.33-20.54v-15.63l3.95-3.33c4.06-3.42 60.31-23.06 62.38-21.78.58.36 4.65 8.8 9.03 18.73 10.06 22.83 3.45 23.06 71.39-2.52 30.18-11.37 55.4-20.67 56.06-20.67.66 0 1.19 14.7 1.19 33.33v33.33l-98.34-.1c-54.08-.06-99.23-.43-100.33-.82Z"/>
      <path d="M896.642 4757.13c-1.78-1.78-2.67-4.44-2.67-8v-5.33h131.998v5.33c0 11.13 2.9 10.67-65.998 10.67-58.89 0-60.74-.08-63.33-2.67Zm-2.67-128v-114.67h131.998v229.33H893.972Zm119.998 0v-96H905.972v192h107.998Z"/>
      <path d="M1697.94 4624.73v-154.7383l-86.02-81.1748h-317.98V4351.74h368v33.33h65.34v380.88l-13.87 7.56c-7.63 4.16-14.23 7.56-14.67 7.56-.44 0-.8-70.35-.8-156.34z"/>
      <path d="M1791.44 4782.33c-3.72-2.94-6.76-5.87-6.76-6.51 0-.65 51.45-30.14 114.33-65.54 62.88-35.4 116.58-65.78 119.33-67.49 2.75-1.7 5-2.87 5-2.58 0 .28 1.47 4.44 3.28 9.23l3.27 8.7-26.94 15.31c-81.67 46.4-167.62 94.96-172.28 97.33-4.84 2.55-9.64 5.19-14.39 7.92-17.04 9.78-17.06 9.79-24.85 3.63Z"/>
      <path d="M2376.64 4805.43c-1.1-.4-7.7-6.27-14.67-13.03-7.05-6.84-14.21-13.56-21.5-20.15-13.2-11.73-14.77-18.13-5.9-23.95 5.32-3.48 9.08-1.55 23.11 11.9 6.94 6.65 13.97 13.19 21.1 19.63 13.39 11.89 15.04 16.24 8.63 22.65-3.76 3.76-6.53 4.52-10.77 2.95Z"/>
      <path d="M2307.24 4809.23c-2.66-2.66-3.9-5.23-3.9-8.1 0-2.87 1.24-5.45 3.9-8.1 2.66-2.65 5.23-3.9 8.1-3.9 2.87 0 5.44 1.23 8.1 3.9 2.66 2.67 3.9 5.23 3.9 8.1 0 2.87-1.24 5.44-3.9 8.1-2.66 2.66-5.23 3.9-8.1 3.9-2.87 0-5.44-1.24-8.1-3.9Z"/>
      <path d="m1360.14 4814.03-7.52-12.42v-204.5h30.67v10.51c0 7.71.53 10.95 2 12.16 1.75 1.45 2 14.68 2 104.16v102.5h-19.63Z"/>
      <path d="M3535.34 4827.13v-8.67h-101.33v16h-36v-24h-142.67v22.67h-36v-8h-94.67v8h-33.33V4675.8h685.33v132h-177.33v28h-64Z"/>
      <path d="M2972.64 4849.13v-13.33h-21.04l-.92-4.93c-8.63-46-79.45-46-88.08 0l-.92 4.93h-146.37v-160h317.33v186.67h-60Z"/>
      <path d="M2351.24 4868.73c-21.97-11.1-13.9-45 10.7-45 14.35 0 26.12 14.31 23.46 28.52-1.95 10.37-12.92 19.48-23.45 19.48-2.63 0-7.44-1.35-10.71-3Z"/>
      <path d="M940.642 4868.43v-7.33h-16v-22.67h121.328v37.33H940.642Z"/>
      <path d="M871.312 4857.13v-18.67h32v32h-12.65c-11.22 0-12.85.3-14.33 2.67-4 6.41-5.02 3.17-5.02-16Z"/>
      <path d="M825.972 4857.13v-18.67h24v37.34h-24Z"/>
      <path d="M613.972 4868.43v-7.33h-14.67v-22.67h134.67v37.33h-120Z"/>
      <path d="M523.312 4833.13v-42.67h14.67v-17.33h21.33v66.67h18.67v30.66h-12c-10.54 0-12.18.33-13.65 2.67-1.49 2.39-3.1 2.67-15.34 2.67h-13.68Z"/>
      <path d="M1067.31 4857.73v-19.33h112v38.66h-112Z"/>
      <path d="M3655.34 4871.13v-10h138.67v16h-66.7c-58.07 0-66.82.26-67.48 2-2.22 5.78-4.49 1.73-4.49-8Z"/>
      <path d="M3532.64 4894.43v-13.33h68v26.66h-68Z"/>
      <path d="M1418.44 4912.13c-17.18-28.24-16.42-25.87-16.42-51.48V4839l93 .47c51.15.25 93.95.58 95.1.73 1.99.26-152.88 93.23-156.45 93.93-.91.18-7.76-9.72-15.23-22Z"/>
      <path d="M2381.74 4940.43c-12.1-6.57-3.03-25.84 9.68-20.58 9.1 3.77 9.75 16.2 1.09 20.68-4.6 2.38-6.23 2.37-10.77-.1Z"/>
      <path d="M3532.64 4967.73v-13.33h68v26.66h-68Z"/>
      <path d="M1452.44 4981.33c-7.76-1.6-13.57-6.16-12.85-8.25.23-.66 44.52-26.38 98.42-57.14l98-55.94.43 4.79c.65 7.31-3.2 15.7-9.54 20.8-4.32 3.45-151.11 89.2-162.9 95.15-1.82.92-6.45 1.64-11.56.59Z"/>
      <path d="M3403.34 4979.43v-7.04l8.7-3.78c15.02-6.55 23.3-19.15 23.3-35.48 0-16.32-8.28-28.92-23.3-35.47l-8.7-3.79v-12.74h78.67v105.33h-78.67Z"/>
      <path d="M3167.34 4933.73v-52.67h78.67v12.74l-8.7 3.79c-15.02 6.55-23.3 19.15-23.3 35.47 0 16.33 8.28 28.93 23.3 35.48l8.7 3.78v14.08h-78.67Z"/>
      <path d="M3655.34 4995.13c0-9.73 2.27-13.78 4.48-8 .67 1.74 9.41 2 67.48 2h66.7v16h-138.66Z"/>
      <path d="M1368.14 5025.83c-6.27-9.44-6.98-8.11 9.5-17.56l14.3-8.19 1.34 5.65c2.78 11.75-1.56 16.21-8.41 20.2-3.45 2-7.52 4.44-9.06 5.43-2.61 1.68-3.13 1.31-7.67-5.53Z"/>
      <path d="M1189.97 4939.73V4838.4h91.57l38.88 67.28c21.39 37 38.87 67.75 38.84 68.33-.1 2.64-89.62 55.6-94.46 58.99-4.29 3.01-8.85 5.62-13.62 7.8l-10.81 4.82-25.07 2.86-24.94-.4Z"/>
      <path d="M1288.98 5079.53c-2.7-4.18-7.55-12.99-6.89-13.5 5.02-3.9 41.64-24.8 42.5-24.26.67.41 3 4.05 5.18 8.08l3.98 7.33-4.22 2.16c-2.32 1.19-10.68 7.31-20.33 12.35-20.15 10.51-17.72 11.72-20.22 7.84Z"/>
      <path d="m1210.97 5106.73-29-.39v-14.61h57.09l2.7 8c2.46 7.28 2.5 7.97.46 7.7-1.24-.18-15.3-.49-31.25-.7Z"/>
      <path d="M2715.34 5111.73v-80h146.37l.92 4.93c8.63 45.99 79.45 45.99 88.08 0l.93-4.93h21.03v-26.67h60v186.67h-317.33Z"/>
      <path d="M3091.34 5114.43v-78.67h33.33v8h94.67v-8h36v22.67h142.67v-24h36v16h101.33v-17.33h64v28h177.33v132h-685.33Z"/>
      <path d="M4189.34 5194.53c-12.26-5.15-9.15-23.3 4-23.3 10.33 0 15.84 12.7 8.6 19.82-3.77 3.7-8.77 5.09-12.6 3.48Z"/>
      <path d="M4143.94 5194.53c-12.26-5.15-9.15-23.3 4-23.3 10.33 0 15.84 12.7 8.6 19.82-3.77 3.7-8.77 5.09-12.6 3.48Z"/>
      <path d="M4055.94 5194.53c-12.26-5.15-9.15-23.3 4-23.3 10.33 0 15.84 12.7 8.6 19.82-3.77 3.7-8.77 5.09-12.6 3.48Z"/>
      <path d="M1587.24 3135.43c-7.37-3.72-12.73-13.1-11.43-20.01 3.88-20.5 30.06-24.24 38.36-5.48 7.65 17.29-10.02 34.02-26.93 25.49Z"/>
      <path d="M1874.59 1855.45c.21 0 .08-11.43-.02-17-.04-2.02-2.97-3.47-4.99-3.46-21.07.07-47.85-.39-68.99.11-2.46.06-5.31 2.61-5.35 5.06-.07 4.58-.11 10.13-.08 14.62.01 2.3 2.67 4.82 4.98 4.79 22.45-.29 48.85.41 69.8.08 2.09-.03 3.81-2.29 4.65-4.2Z"/>
      <path d="M3081.74 1970.34c-19.25-3.45-62.54-8.13-62.31-13.71 0-.13.1-2 .45-4.25l.62-4.09 63.77 10.62c41.55 6.92 63.61 11.14 63.33 12.1-.24.8-.97 6.3-1.61 8.25-1.56 4.79-49.21-6.23-64.25-8.92Z"/>
      <path d="m3353.24 1980.87-6.78-1.24 1.03-6.27c.57-3.45 1.07-7.23 1.12-8.4.07-1.9 1.08-1.96 9.44-.53 11.4 1.96 10.67 1.17 9.72 10.38-.9 8.6-.83 8.57-14.53 6.06Z"/>
      <path d="m3482.54 2003.54-6.78-1.24 1.03-6.27c.57-3.45 1.07-7.23 1.12-8.4.07-1.9 1.08-1.96 9.44-.53 11.4 1.96 10.67 1.17 9.72 10.38-.9 8.6-.83 8.57-14.53 6.06Z"/>
      <path d="m3614.54 2026.21-6.78-1.24 1.03-6.27c.57-3.45 1.07-7.23 1.12-8.4.07-1.9 1.08-1.96 9.44-.53 11.4 1.96 10.67 1.17 9.72 10.38-.9 8.6-.83 8.57-14.53 6.06Z"/>
      <path d="M3345.84 2018.7c-71.42-13.3-62.92-10.67-61.84-17.9l.88-5.88 127.4 21.22-1.49 6.7c-1.9 8.56 5.58 9-64.95-4.14Z"/>
      <path d="M3608.74 2066.21c-67.46-12.68-63.3-9.75-62.15-18.13l.9-6.51 63.73 10.62c71.46 11.9 64.18 9.37 61.23 21.24-1.57 6.3 7.26 6.12-63.7-7.22Z"/>
      <path d="m328.776 5188.42-.25 152.2 130.846 3.96 112.332-51.14-26.58-105.02Zm258.262 0 19.371 83.1 162.56-6.39-20.158-76.71Zm206.422 0 24.593 136.69 236.767-136.69Zm-19.924 107.76-164.389 4.57 32.094 126.45 138.109-79.74ZM570.79 5331.8l-102.285 42.01-140.03-1.48-.386 235.67 266.371-153.79Z"/>
      <path d="M.000005 5076.08H200.005v600.93L2.7398 5795.74Z"/>
      <path d="m928.791 5403.03-240.647 138.94 16.492 28.57 240.647-138.94Z"/>
      <path d="m615.541 5582.95-174.326 100.64 16.216 28.09 174.325-100.65Z"/>
      <path d="m376.265 5719.94-221.623 127.95 16.273 28.19 221.623-127.96Z"/>
      <path d="m1221.95 5235.91-167.77 96.86 62.56 108.35 36.91-21.31 23.43 40.58-35.77 20.64 67.7 117.26 34.89-20.15 22.19 38.45-35.74 20.63 68.2 118.13 36.11-20.85 22.82 39.52-35.17 20.3 91.74 158.89 134.85-161.13Z"/>
      <ellipse id="ellipse234" cx="1856.40669" cy="5072.0991" rx="10.771061" ry="11.087856"/>
      <ellipse id="ellipse235" cx="1900.12459" cy="5070.5151" rx="11.404653" ry="11.087856"/>
      <circle id="circle235" cx="1876.99849" cy="5138.3095" r="23.442896"/>
      <path d="m1754.18 570.343 49.1-40.484 24.98-66.324 24.12-36.177 19.81-11.198 19.81 96.472 2.58 32.731-6.03 30.148-10.33 29.286-20.67 35.315-43.07 38.761-43.07 23.257-21.53 6.89-15.51-45.651 3.45-53.404Z"/>
      <path d="M1283.02 2317.17h160.21V2209.5h60.3v-59.44h-198.97l-21.54 19.82Z"/>
      <path d="m3554.41 1696.13 118.87 20.67-6.34 36.43-118.86-20.67Z"/>
      <path d="m3878.28 1753.84 118.87 22.4-6.98 37.02-118.86-22.4Z"/>
      <path d="m2734.4 1503.19 64.6 12.92-7.81 39.09 116.11 23.22 10.11-50.52 27.49 5.5 5.77-28.82 10.6 2.12 3.81-19.05-57.98-11.59-9.93 49.69-83.32-16.66 13.05-65.27-77.52-15.5Z"/>
      <path d="M772.868 2969.42v-110.78h32.179v110.78Z"/>
      <path d="M773.247 2805.03v-196.25h81.772v70.86h-61.783v125.39Z"/>
      <path d="M773.247 2567.89v-149.92h290.743v21.81H850.476v34.53h-62.692v93.58Z"/>
    </g>
    <g id="mines" class="danger">
      <path d="M1821.56 3777.64h122v-21.9h31.28v57.35h-153.28Z"/>
      <path d="M2058.25 3785.98h134.51v33.36h-134.51Z"/>
      <path d="M2227.17 3785.98h133.46v168.91h-61.52v156.4H2272v-247.11h-44.83Z"/>
      <path d="M1777.77 4113.38h22.94v75.07h-22.94Z"/>
      <path d="M1774.64 4366.75h28.16v359.73l144.57-83.48 37.04 64.16-102.75 59.32-7.77-13.45-73.18 42.26-16.68-23.98-7.3-31.28v-91.75h-31.28v-203.33h27.11Z"/>
      <path d="M2216.74 4353.2v-42.75l40.88-23.61 25.85 27.78 18.77 38.58Z"/>
    </g>
    <g id="fence" class="fence">
      <path d="M1894.9601 3595.4782h68.3518"/>
      <path d="M2087.2835 2550.7418h-90.4273v110.4279"/>
    </g>
    <g id="buildings" class="building">
      <path d="m4067.23 2158.79-30.29 168.34 63.42 14.23-159.02 891.76 536-2-.32-133.92-371.54.8 11.66-67.89 7.73-.75 121.7-659.8 552.96 90.5 29.95-164.82Z"/>
      <path d="m1995.12 1895.74-648.48.69-.41 6.32-.4 6.33-295.35.68-.35 212.67c-.18 116.96-.05 213.42.3 214.34.5 1.33 13.71 1.61 83.17 1.33l87.71-.34v-112l-52.65-.73-.34-80.3-.35-80.3-16.67-.8v-19.87h193.25l.38 16.33.37 16.34 547.97-.02.77-26h329.24v97.23l-26 .77v622.67l8.66.83.33 254.25.34 254.25 9 .39 9 .4v157.2l-261.84.68.37 79.31c.2 43.62.65 79.78 1 80.34h.01c.34.56 78.14.88 172.88.68l172.25-.33.4-7 .4-7h24.49l31.37-31.3v-27.24l15.34-.8v-241.33l-9.99-.82-.34-208.92-.34-208.93-86-.7v-114.6l102-.7.34-401.13.33-401.13-7.32-10.2c-14.47-20.14-29.33-32.08-47.7-38.33l-9.45-3.21Z"/>
      <path d="M2034.54 2528.73c-.37-.97-.5-9.84-.3-19.7l.37-17.93h46.67v38.67l-23.03.36c-18.14.29-23.18 0-23.71-1.4Z"/>
      <path d="M1917.24 2659.43c-.37-.96-.5-10.42-.3-21.02l.37-19.27h76v41.33l-37.7.35c-30.12.29-37.83 0-38.37-1.4Z"/>
      <path d="M1933.24 2843.43c-.35-.93-.49-41.58-.3-90.35l.35-88.67 30-.82c16.5-.46 40.8-1.06 54-1.33l24-.5v182.67l-53.7.34c-42.25.28-53.85 0-54.35-1.33Z"/>
      <path d="M1593.94 2935.33c-32.63-13.31-60.08-24.69-61-25.28-3.4-2.2-9.62 14.33 65.97-175.59 19.4-48.77 43.33-108.95 53.15-133.74l17.87-45.07.34-172.26.34-172.26 78.9-.71 12.6 16.04h25l11.26-16.06 44.24.72.78 18h89.1l.4-9.66.38-9.67h68l.37 24.86.36 24.85-13.36 9.54-13.37 9.54v18.38l26.76 21.87-.38 13.48-.38 13.48h-128l-.41-5-.41-5h-21.18v118.67h31.87l.4-7.66.4-7.67 37.88-.74.79-16.6h82.66v42.56l-29.33 12.33-.34 11.23-.35 11.22 14.05 9.2 14.05 9.2-.37 17.47-.37 17.46h-101.33l-.4-6.33-.41-6.33h-39.76l-.76 26-45.72.72-22.94 55.22c-12.62 30.37-22.6 55.76-22.2 56.42.41.66 23.12 10.4 50.47 21.63 52.66 21.63 53.05 21.82 53.05 25.12 0 2.28-38.25 93.11-40.38 95.89-2.19 2.85-4.48 2.13-52.23-16.38-25.6-9.93-47.22-17.8-48.04-17.48-.82.31-17 38.59-35.97 85.05-18.96 46.46-35.05 85.22-35.76 86.14-2.32 3.02-6.45 1.6-66.28-22.8Z"/>
      <path d="m1219.97 3000.32 126.25-281.37-93.79-46.88 45.77-101.26 82.06 34.2 28.42-58.67 133.89 62.02-205.5 443.65Z"/>
      <path d="M1983.94 3064.73c-.37-.96-.5-11.32-.3-23.02l.37-21.28h73.33v45.33l-36.37.36c-28.95.28-36.5 0-37.03-1.39Z"/>
      <path d="M1917.24 3082.13c-.36-.94-.5-19.7-.3-41.7l.35-39.98h62.67v82.67l-31.03.36c-24.24.28-31.18-.02-31.69-1.35Z"/>
      <path d="M1983.04 3148.13c-.27-.56-.16-18.42.24-39.69l.73-38.66h78.67v78.65l-39.58.36c-21.76.2-39.8-.1-40.06-.67Z"/>
      <path d="m3200.64 3153.63-68.77-10.47-5.45-.83-2.45 8.11c-1.35 4.46-2.81 8.34-3.25 8.6-.44.26-32.53-4.25-71.33-10.06-38.79-5.8-70.66-10.4-70.82-10.22-.16.18-1.73 5.43-3.5 11.67l-3.2 11.33-4.62-.42c-2.53-.23-41.81-7.74-87.28-16.69l-82.66-16.26.32-3.98c.17-2.2 3.6-21.36 7.61-42.6 4.01-21.23 7.17-38.7 7.01-38.82-.15-.11-8.08-1.65-17.61-3.4l-17.33-3.2.36-4.52c.32-4.07 20.66-127.88 22.38-136.25.7-3.36.44-3.51-7.68-4.67l-8.4-1.2.34-4.33c.19-2.39 2.44-17.64 5-33.89 2.57-16.25 4.51-29.66 4.33-29.8-.18-.14-6.33-1.73-13.67-3.53l-13.33-3.27.36-4.46c.32-4.01 20.68-127.9 22.37-136.12.7-3.37.55-3.44-13.68-6l-14.38-2.59.32-4c.18-2.2 6-35.47 12.95-73.94 6.95-38.47 12.5-70.03 12.34-70.14-.15-.11-6.28-1.67-13.61-3.47-13.29-3.27-13.33-3.3-13-7.2.17-2.15 5.4-33.88 11.62-70.5 6.22-36.63 11.17-66.72 11-66.87-.16-.15-4.49-1.4-9.62-2.77-9.16-2.44-9.33-2.57-9.02-6.63.26-3.32 18.46-116.44 20.94-130.06.76-4.23-1.28-4.98-40.59-14.78l-12.67-3.16.39-7.24c1.78-33.91 24.92-99.4 41.66-117.9 2.26-2.5 2.31-4.06.83-25.4l-1.59-22.74 2.86-.23c1.8-.15 6.55 2.92 12.84 8.28l9.99 8.53 7.85-8.01c19.67-20.09 49.54-39.26 74.2-47.65l6.36-2.16-14.51-20.8c-14.6-20.96-16.24-25.15-9.83-25.15 1.23 0 182.62 31.2 403.07 69.33 220.45 38.13 401.59 69.33 402.53 69.33 1.22 0 1.52 1.64 1.05 5.79l-.65 5.78 35.47 6.55c27.7 5.12 35.48 7 35.49 8.55 0 1.1-6.6 39.2-14.68 84.67l-14.68 82.66-3.45-.25c-3.05-.22-68.28-11.33-77.38-13.18-3.27-.66-3.97.15-10.3 11.88l-6.79 12.6-5.03-.64c-3.34-.45-6.66-1.01-9.96-1.7-4.6-.99-4.97-.83-5.65 2.45-1.49 7.28-14.09 88.61-13.76 88.85.19.13 15.25 1.34 33.47 2.68 20.5 1.51 33.29 2.99 33.55 3.88.23.79 2.26 71.33 4.53 156.77 2.26 85.43 25.76 165.83 26.11 171.05l-21.61 12.16-30.46 17.6c-25.75 21.78-32 26.46-35 26.21-2-.17-44.99-6.91-95.52-14.99-50.53-8.07-91.98-14.54-92.12-14.36-1.05 1.35-19.35 110.87-18.77 112.38.61 1.6 5.05 1.94 25.37 1.94 13.55 0 24.91.45 25.25 1 .34.55-4.15 37.23-9.97 81.5-5.82 44.29-10.41 80.66-10.2 80.83.2.17 22.28 4.36 49.04 9.32 55.38 10.26 50.83 8.67 49.6 17.35-1.25 8.76-.62 8.74-44.12 2.02-19.35-2.98-35.32-5.26-35.5-5.06-.5.6-15.29 80.18-14.95 80.47.17.14 17.1 4 37.64 8.59 42.9 9.57 39.48 8.08 38.24 16.65-1.19 8.22 4.04 8.47-54.18-2.62-24.9-4.74-45.36-8.5-45.47-8.34-.12.16-1.38 5.1-2.81 10.96-2.59 10.6-2.62 10.66-6.73 10.34-2.26-.18-27.97-4.23-57.13-9.01-29.15-4.78-53.15-8.54-53.33-8.35-.18.2-1.45 4.2-2.83 8.9-3.1 10.6 4.8 10.68-69.76-.68Zm103.33-299.54c1.45-6.06 23.26-124.19 22.97-124.4-.17-.12-3.9-1.06-8.3-2.08-7.18-1.66-8.05-2.23-8.42-5.5-.34-2.9 30.82-200.41 50.22-318.35l3.61-22 12.86-.67c7.07-.37 13.13-.97 13.46-1.33.8-.87 22.57-117.5 22.02-117.94-.5-.4-340.01-58.06-341.88-58.06-.72 0-2.43 1.95-3.82 4.33-13.97 24.04-46.74 57.4-74.47 75.77l-12.92 8.57.11 15.33c.18 25.2 3.17 111.73 3.9 112.34.36.3 12.36 2.9 26.66 5.78 25.7 5.15 26 5.25 25.76 8.57-.13 1.84-9.95 52.84-21.83 113.33l-21.58 109.98 4.36 94.66c2.4 52.07 4.9 95.27 5.56 96 .74.83 52.82 2.65 137.46 4.81 180.12 4.6 163.4 4.51 164.27.86Zm232.13-521c4.41-27.13 7.6-49.33 7.1-49.33s-11.58-1.84-24.57-4.08c-13-2.24-23.78-3.89-23.97-3.66-.2.22-4.04 22.9-8.56 50.4-4.52 27.5-8.5 51.35-8.86 53l-.66 3h51.5Z"/>
      <path d="M1749.64 3334.83c-.27-.56-.16-18.42.24-39.69l.73-38.66h80v78.66l-40.24.36c-22.13.2-40.46-.11-40.73-.67Z"/>
      <path d="M3865.24 3588.83c-.36-.94-.5-24.5-.3-52.37l.35-50.66h76v48l-7.63.4-7.62.4-.38 15.6-.37 15.6-12.57.81-.38 11.6-.39 11.6-23.03.36c-17.72.28-23.18-.03-23.68-1.34Z"/>
      <path d="M1363.94 3599.53c-.37-.96-.5-60.54-.32-132.41l.34-130.67h165.33l.36 42.33.35 42.33 364.63.67.34 87.04c.27 68.97 0 87.15-1.33 87.56-.92.3-109.38 1.17-241.01 1.97-131.63.79-250.3 1.77-263.68 2.18-19.34.58-24.49.38-25.01-1Z"/>
      <path d="m663.982 3616.73 1.33-144.34 439.928-.68 20.75-241.38-129.778-67.72 59.688-129.04 218.76 104.1-39.25 482.17-571.418-3.12Z"/>
      <path d="M3430.84 3654.93c-2.8-2.8-.88-25.35 2.43-28.46 3.23-3.03 3.34-3.67 3.34-20.88v-17.74l-36.34-.36-36.33-.35v-130.67h261.33v130.67l-68.67.71v17.45c0 17.44 0 17.46 4.06 22.58 3.88 4.9 4.04 5.6 3.66 16.19l-.38 11.07-66.1.34c-36.36.2-66.5-.06-67-.55Z"/>
      <path d="m2876.01 3437.79-.39 8.98-.4 8.99-129.88.69-.36 24.29-.37 24.29-31.27.75v249.33l21.95.78.72 60.56h130.67l.34-87.67.34-87.67h86.65v349.18l-11.33.82-.37 19.6-.37 19.6-15.27.8v81.33l16.6.8.74 36.54 7.33.84v80.98l-7.33.85-.37 18.27-.37 18.28-10.29.39-10.3.39v90.67l9.63.38 9.63.4.37 19.61.37 19.61 12.62.8.36 35.6.35 35.6 68.56.71.39 11.64.38 11.65 294 .68v13.1c0 7.2.4 13.5.9 14l-.01.01c.49.49 59.13.75 130.33.55l129.44-.34.41-5.66.4-5.67h31.7l.42 5.67.4 5.66h324l.7-118h65.48l20.74-42.33c11.4-23.28 26.29-53.73 33.08-67.67 10.53-21.57 21.08-43.12 31.66-64.66 42.84-87.31 85.62-174.64 128.34-262 11.54-23.57 23.09-47.13 34.67-70.67 11.54-23.47 26.24-53.47 32.66-66.67 10.2-20.9 20.42-41.79 30.67-62.66 10.44-21.27 24.54-50.07 31.34-64 11.52-23.57 23.08-47.13 34.67-70.67 50.31-102.2 51.8-105.84 51.4-126-.88-43.72-59.72-67-160.08-63.34-15.77.57-90.77 1.41-166.67 1.86l-138 .81v113.33l291.64.68-.62 12.99-.62 13-13.02 27.33-22.56 47.34c-5.87 12.31-11.71 24.64-17.52 36.98-4.39 9.34-8.67 16.99-9.52 17-.86.01-9.76-2.98-19.78-6.65-19.33-7.07-22.19-7.66-24.39-5-1.37 1.66-20.93 38.88-33.89 64.48-8.54 16.9-8.83 16.28 12.27 26.3 9.53 4.52 17.34 8.82 17.35 9.55.01.74-5.12 13.68-11.41 28.78l-11.43 27.44-24.22-8.5c-13.32-4.67-25.43-8.32-26.92-8.1-2.7.38-41.81 76.03-41.97 81.18-.09 3.09 2.49 4.93 24.27 17.27 10.82 6.13 19.67 11.63 19.67 12.22 0 1.41-92.02 197.21-93.7 199.38-.73.94-4.21 1.67-8 1.67-19.77 0-36.47 22.79-27.37 37.33 6.64 10.59 5.14 20.47-6.6 43.48l-10.3 20.15-7.7 3.07c-6.57 2.6-8.77 4.45-15.01 12.6l-7.32 9.55v9.69c0 9.67.02 9.71 8 21.25 7.5 10.85 8 12.04 8 19.22v7.66h-82.64l-.35-70.34-.34-70.33h-80l-.35 95-.34 95h-150.66v-83.91l39.35-.76 10.24-68c5.63-37.4 9.8-68.45 9.26-69-.54-.55-67.84-.85-149.57-.67l-181.52.34v129.33l118.93.7v101.3h-110.6l-.37-22.33-.36-22.33-135.33-.69v-237.24l19-.37 19-.37v-229.34l-12.53-.8-.4-6.93-.4-6.93-22-.77v-27.9h125.32l.34 92.34.34 92.33h108l.42-5.67.4-5.66h42.46l.36 27 .36 27 292.38.68 63.53 37.32c66.5 39.07 65.81 38.73 69 34.99 3.31-3.86 55.75-96.15 55.75-98.1 0-2.99-2.22-4.41-68.18-43.37l-63.51-37.52h-34.97v-45.26l35.33-.74.41-4.3.42-4.3 39.17-.73.39-8.3.4-8.29 33.88-.75.7-75.2 13.96-.8v-29.33l-7.66-.4c-5.61-.29-7.67-.92-7.67-2.33 0-1.64 10.96-1.96 76.81-2.26l76.8-.35 40.96-76-.28-30.66-.29-30.67-74.85-.71-4.51-4.64-4.5-4.65h-101.64l-7.66-8h-42.14l-6.03 9.27-73.33.73v41.33l19 .37 19 .37v75.93h-62.71l-4.45 9.33h-46.12l-.36-26.33-.36-26.34-80.61-.7-.36-26.98-.36-26.98h-58.67l-.38 14.32-.38 14.33-167.24.68-.38 11.67-.39 11.67h-45.89v-236.71h-92l-.67 110c-.28 47.05-.4 103.27-.34 126.71h-48.97l-.35-54.34-.35-54.33-23.3-.77-.35-63.61-.35-63.62-16.96-.37-16.96-.37-.37-16.96-.37-16.96Zm588.72 407.33h129.15l.4 7 .4 7 76.6.7.37 23.65.36 23.64 10.26.39 10.26.39.41 5.62.4 5.6 58 .72v45.27l-263.33.68-.4 7-.41 7h-47.86v-3.26c0-2.94.62-3.3 6.34-3.67l6.33-.4.35-36.93.35-36.92 11.3-.82.36-26.33Z"/>
      <path d="M849.562 3894.73c-5.68-5.93-4.76-8.32 6.57-17.08 5.59-4.31 15.64-12.27 22.33-17.68 6.7-5.4 18.47-14.68 26.18-20.61 7.7-5.93 14.3-11.15 14.67-11.6 3.04-3.7 25.66-19.96 27.78-19.96 4.06 0 13.14 11.56 11.36 14.45-.75 1.22-11.55 9.72-24 18.89-12.44 9.16-35 25.81-50.14 37-30.07 22.22-29.58 21.98-34.75 16.59Z"/>
      <path d="M4626.8 3552.69c-7.59 1.26-20.92 9.72-20.92 9.72l-429.8 859.82s-6.22 24.76-4.48 37.09c1.89 13.4 7.95 26.38 15.84 37.38 6.67 9.3 15.88 16.87 25.65 22.85 10.27 6.28 33.67 13.06 33.67 13.06l140.32.96 12.08-7.46 138.15.42-1.33-131.3-106.67-1.33-13.75-9.15-6.04-20.29 143.04-301.65-21.91-22.56 46-106.23 88.9 42.06 1.76 181.15-56.67 2-.7 103.05 24.38 21.62h43.3l12.89-12.97 23.02.29 4.04 24.86-15.59 15.16v65.44l-12 11.77.86 23.5-10.98 7.95h-54.88l-24.46 18.93.72 100.7 174.68 1.69 22.05-21.94V4176l22-.77.69-193.84 9.98-2.01v-338.79l-185.87-86.01s-12.03-2.88-17.97-1.89Z"/>
      <path d="m523.892 3838.4-7.619 7.7c-4.61 4.65-7.631 8.86-7.631 10.62 0 2.79-.59 2.93-14.33 3.29l-14.33.38-.391 11.67-.379 11.67h-5.179c-4.69 0-5.921.83-13.291 8.98l-8.1 8.98v66.64l9.641 9.7c8.05 8.1 10.35 9.7 14 9.7h4.359v38.66h-5.961c-5.93 0-6.02.07-14 10.95l-8.039 10.95v69.37l8.971 9.03c6.72 6.78 9.869 9.04 12.609 9.04h3.66l.379 12.33.381 12.33 26 .77v3.78c0 2.73 2.66 7.03 9.43 15.29l9.42 11.5h70.42l16.13-24h37.049l14.951 21.33h75.44l9.58-8.06c7.08-5.97 9.58-8.92 9.58-11.34v-3.26h36v4.6c0 4.07 1.11 5.53 9.58 12.66l9.58 8.07h19.141c14.38 0 24.129 1.23 26.349-.21 1.63-1.05 14.471.46 20.891-1.85 5.502-2 11.896-3.12 14.794-7.32 2.966.12 7.665-6.98 7.665-11.45v-4.46h40l-.039 3.67c-.03 2.86 2.09 5.62 9.67 12.62v-.01l9.699 8.95 70.598.1 8.37-8.3c7.3-7.23 8.37-8.93 8.37-13.27v-5l23.33-.77.38-11.65c.39-11.53.43-11.67 3.8-11.67 2.33 0 6.56-2.81 13.29-8.83l9.86-8.83-.01-31.51-.02-31.5-8.79-10.33c-6.36-7.47-9.66-10.33-11.93-10.33-3.01 0-3.16-.45-3.53-11l-.38-11-11.67-.39c-11.02-.36-11.67-.55-11.7-3.33-.02-1.73-4.23-7.77-10.19-14.62l-10.15-11.66h-69.558l-9.041 8.96c-6.83 6.78-9.029 9.87-9.029 12.67v3.7h-39.99v-4.56c0-6.79-10.229-11.42-16.699-14.08l-11.02-3.33c-4.53-1.13-11.945-1.42-16.542-1.64-4.077-.2-9.748-.44-26.518-.44h-17.93l-8.311 6.73c-6.81 5.5-8.32 7.44-8.32 10.66v3.94h-40v-3.94c0-3.22-1.51-5.16-8.33-10.68l-8.33-6.75-62.67.71-.41 6.33-.401 6.33h-29.189v-34.92l13.33-11.99v-51.36l-6.711-8.86c-5.98-7.9-7.209-8.87-11.279-8.87h-4.571l-.378-11.66-.391-11.67-11.67-.39c-11.3-.36-11.66-.48-11.66-3.56 0-2.32-2.79-5.57-10.24-11.95l-10.231-8.76Z"/>
      <path d="M1254.69 4258.13c-1.02-3.22-3.63-200.72-3.18-241l.46-40.67h386.67l.42 3.66.42 3.65 131.16.7v218.66l-175.28.69-.36 27.66-.36 27.65-169.71.34c-135.11.27-169.82 0-170.24-1.33Z"/>
      <path d="M1804.14 4317.43c-.36-.58-.8-111.43-.98-246.35l-.34-245.3h137.13v492l-67.58.35c-37.17.19-67.87-.13-68.23-.7Z"/>
      <path d="M2072.34 4321.43c-.24-.55-.13-86.5.25-191l.7-190 16.29-.78.88-16.94c.49-9.32 1.26-25.05 1.72-34.95l.83-18 5.07-7.48c9.62-14.21 49.22-14.06 77.5.3 4.41 2.25 8.2 2.52 35.6 2.52 36.12 0 42.32 1.35 51.07 11.12l4.96 5.54.04 175.96.04 175.96-15.33 46.28-15.7 11.34c-16.08 11.63-43.32 25.81-56.3 29.3-7.32 1.98-106.77 2.74-107.62.83Z"/>
      <path d="M891.912 4496.73c-.36-.95-.5-14.01-.3-29.02l.36-27.3h65.33v57.33l-32.36.36c-25.52.28-32.5-.01-33.03-1.37Z"/>
      <path d="M2747.94 4500.73c-.37-.96-.5-11.01-.3-22.35l.37-20.61h105.33v44l-52.37.35c-42.06.28-52.5.01-53.03-1.4Z"/>
      <path d="M655.922 4527.43c-.36-.95-.5-15.5-.3-32.36l.36-30.64h62.66v64l-31.04.36c-24.37.28-31.17-.01-31.69-1.36Z"/>
      <path d="M671.472 4641.13c-13.57-7.48-13.53-5.8-.74-28.54 13.5-24.02 12.96-23.72 27.22-15.17 9.68 5.8 9.67 6.08-1.45 25.9-13.9 24.8-13.22 24.32-25.03 17.81Z"/>
      <path d="M1225.01 4700.73c-3.35-4.32-7.55-17.22-6.26-19.26 1.63-2.58 37.53-16.6 41.23-16.1 3.48.47 10.06 18.52 7.96 21.85-3.07 4.86-40.5 16.65-42.93 13.51Z"/>
      <path d="M1155.67 4727.43c-3.35-4.32-7.55-17.22-6.26-19.26 1.63-2.58 37.53-16.6 41.23-16.1 3.48.47 10.06 18.52 7.96 21.85-3.07 4.86-40.5 16.65-42.93 13.51Z"/>
      <path d="M1396.54 4832.13c-.07-.56-.02-48.52.11-106.59l.24-105.58-11.56-.83v-52l5.65-.41 5.65-.41.35-54.26.35-54.25H1568v374.67l-85.67.34c-47.11.19-85.72-.11-85.79-.67Z"/>
      <path d="m758.642 5055.83-417.33-.7v-534.67h176l.34 181 .34 181h34.5l.4-5 .42-5h53.33l.84 8.67h269l.42-4.34.41-4.33h54.67l.42 3.66.42 3.66 251.158.68v176l-4 .03c-2.2.02-191.798-.28-421.328-.66Z"/>
      <path d="M4268.51 4677.75v22.69h-152.56l-.75 31.32-211.25.69-.75 31.17-7.86.83-.71 88.53-98.67.7-.78 24.74-133.9.69v108l133.9.69.77 22.91 98.68.7.7 90.37 6.61.84.9 37.61 180.34.55 184.82-.32v41.28h145.33v-503.99Z"/>
      <path d="M4517.34 5143.43c-.32-.92-.15-104.27.37-229.67l.96-228H4828v458.67l-155.04.34c-123.35.27-155.16 0-155.62-1.33Z"/>
      <path d="M2784.41 5349.47s-29.18 3.1-39.38 12.33c-9.16 8.28-14.55 34.07-14.55 34.07l.61 617.27h273.53v-473.35h694.65l.68 272.66h492l.68-270 620.65-.67v-189.33Zm1081.53 168.97h125.33v233.33h-125.33Z"/>
      <path d="m2348.3 5057.22-410.21 234.02 16.02 30.65-62.84 39.57 51 86.35 64.99-36.02 4.93 7.66 163.75-92.96 77.14 1.66.9 360.43h-319.64v86.47l412.74 68.4 12.58-3.93 9.43-7.07 3.94-11.01v-128.69l32.41.04-.65-553.64-5.78-81.83Z"/>
      <path d="M993.315 2044.71v-146.78H777.874v146.78Z"/>
      <path d="M861.352 2335.62v-259.24h-97.501v259.24Z"/>
      <path d="M908.348 3139.17v-105.99H756.132v105.99Z"/>
      <path d="M7.26371 5181.68H174.031v224.11H48.836v-74.55h-24.37v-34.4H7.26371Z"/>
      <path d="m1487.61 5754.57-256.39-446.12-109.05 62.67 256.4 446.12Z"/>
      <path d="m1556.84 5236.66 55.55 95.72-143.29 83.16-55.55-95.72Z"/>
      <path d="m1461.12 5288.79-54.7 32.48-19.76-33.27 54.7-32.48Z"/>
      <path d="m1631.19 5351.18-144.43 86.32 55.55 93.5 144.66-85.94Z"/>
      <path d="m1808.1 5383.66-58.11 35.04 89.45 148.36 58.12-35.04Z"/>
      <path d="m1295.32 5183.67 866.61-492.28 15.38-4.27 11.11 4.27 52.14 82.9 1.7 23.08 29.92 46.15 23.93-13.67 13.67.85 65.81 110.25.85 11.97-6.83 10.25-346.99 201.7-20.51-4.28-64.95-107.68 2.56-19.66 29.91-20.51-29.06-47.86-467.49 272.63-11.96-.85-3.42-6.84-102.56 58.97Z"/>
      <path d="m287.689 5884.48 69.226-40.17 14.359 24.75 28.63-16.61-13.507-23.28 166.127-96.4 15.065 25.96 70.931-41.15-12.664-21.83 163.783-95.03 13.479 23.23 34.163-19.83-12.659-21.81 70.907-41.15 21.72 37.43 61.475-35.67 42.986 74.08 40.58-23.54 36.26 62.49-107.817 62.56-16.621-28.65 9.432-5.47-24.366-41.99-40.952 23.76 3.334 5.75-531.235 308.24-5.867-10.11-73.678 42.75-33.266-57.33 38.425-22.29Z"/>
      <path d="M1126.1 4370.9h54.69v-25.64h-54.69Z"/>
      <path d="M1132.08 4335.86h53.84v-26.49h-53.84Z"/>
      <path d="M851.755 3364.13h59.825v-83.76h-59.825Z"/>
      <path d="M841.499 2826.56h13.675v-254.69h-14.529v-88.03h56.406v-23.93h111.959v158.11h-47.86v58.97h41.88v60.68h-41.88v61.54h46.15v156.4H895.342v-25.64h-53.843Z"/>
      <path d="M1512.4 2208.65h61.53v-57.27h-61.53Z"/>
      <path d="M1062 2412.05h106.83v269.22H1062Z"/>
      <path d="m1282.5 2342.83 185.46 6.83 7.69-115.37 105.12 7.69-11.11 236.73-167.51-8.54-1.71 30.77-125.64-10.26Z"/>
      <path d="M900.47 2071.05h46.151v48.71H900.47Z"/>
      <path d="M533.827 1870.21v23.93H362.044v594.83h8.545v90.59h-8.545v42.73h8.545v92.31h-9.401v41.87h10.256v33.34h-10.256v42.73h9.401v95.72h-9.401v41.02h10.256v124.78h123.068v9.4h47.862v-7.69h125.632V2880.4h-74.353v-6.84h-39.314v6.84h-22.221v-56.41h7.691v-43.59h-7.691v-11.96h-45.297v-12.82h9.402v-42.73h-8.547v-88.03h8.547v-44.44h-9.402v-90.6H668.86v-106.83H509.897v-111.1h157.254v-401.68Zm-26.494 169.22h89.738v117.94h-89.738Z"/>
      <path d="M610.745 1376.22V919.84h24.785V749.765h134.179v108.54h-17.947v63.244h15.383v388.861l-7.692 26.5-15.383 23.93-22.221 11.11-19.657 5.13Z"/>
      <path d="M1117.55 782.242V278.855h629.02v221.354h-31.62v23.075h-335.88v257.248H1356v23.931h-221.36v-22.221Z"/>
      <path d="M1387.62 927.532h231.61v23.93h17.94v317.928h450.4V983.084h23.08V708.742h-33.33V689.94h-22.22V31.0078h21.36V13.9149h229.05v20.5115h19.66V690.795h-19.66v290.579h19.66v551.246h-937.55v-21.36h-19.66V950.607h19.66Z"/>
      <path d="M2698.06 15.6596v40.0539h6.23V398.397h-9.79v44.504h10.68v59.636h-12.46v49.845h12.46v26.703h334.68v-63.197h15.13v-40.053h182.46V368.134h-406.77V53.9333h4.46V15.6596Z"/>
      <path d="m2830.68 1421.11 445.05 80.99 6.8-37.37 118.5 21.57-6.62 36.4 158.93 28.92-6.79 37.31 497.2 90.49 7.36-40.4 214.05 38.96 5.88-32.31 245.4 44.66-6.89 37.87 190.17 34.61 6.73-37 153.12 27.87 91.51-502.84-326.62-59.44 4.2-23.04L3473.2 958.064l-170.77-98.602-14.24 21.362h-205.61l-82.33-82.333v-71.652H3063v-47.175h-63.2V632.49h-258.12v366.716h79.21l-67.64 366.714 84.56 15.13Z"/>
      <path d="m3888.41 2562.55 56.6 11.42 11.74-58.2-56.6-11.42Z"/>
      <path d="M2104.52 4366.44h101.26v143.97h-101.26Z"/>
    </g>
    <g id="sniper" class="danger">
      <path d="m2419.74 5828.53-6.33-.5v-358.52l147.88 2.2 162.59-1.46v360l-156.25 1.23c-7.89.06-144.4-2.67-147.88-2.95Z"/>
      <path d="m4155.01 2168.17 623.57 114.52 79.98-496.37-615.03-114.24Z"/>
    </g>
    <g id="map_border" class="map_border">
      <path d="M1845.48 7.49997 1718.27 76.5566v81.7774h101.77l18.17 112.672h-723.27v505.201h-92.68l-32.712-32.711H631.544v169.006h-25.391v854.858l36.295 62.86v43.62l19.57 1.49.42.3v154.49H498.883v130.85h163.555v103.58H504.335v121.76h158.103v98.13h-179.91v287.13h45.432v110.86h134.058v596.05H1107.6l20.68-246.25 71.3-127.63 77.44 35.88-42.65 473.39H898.262l-25.539 156.43h60.657v35.12l-92.922 75.32 19.558 109.29 22.832 6.53 6.817 181.56-30.285 16.04-25.528 135.9 21.008 1.83.078 41.79H329.997v666.83l-14.145 8.56-88.345-51.37-75.028 1.9-50.295 23.78-39.7986 79.57 40.1116 72.92h102.619v499.25l130.293 275.06 666.071-355.81-27.44-46.64 20.052-45.67 46.688-49.48 94.33-46.63-16.54-31.01 115.05-67.96 141.64 239.91 90.31-60.99 23.26-49.13 143.12-85.28 52.34 90.34 50.15-2.97 12.79-19.33 61.26-36.7 13.78 18.96 129.6-80.25-15.38-28.46 361.91-208.84 51.81-28.13 45.83.95 9.79 84.05v692h325.46v-436.05s5.76-20.67 12.64-28.44c8.13-9.2 31.59-18.96 31.59-18.96h85.8v167.47h132.23v-161.15h746.1v112.49h59.64v53.24h48.35v260.84h164.31v-255.94h182.31v-170.63h135.88v-176.95h-61.94v-502.4h434.79v-216.77h-170.63v65.1h-129.55l-9.48 10.48h-148.51s-29.07-9.82-40.84-19.19c-11.69-9.29-21.71-21.53-27.67-35.22-6.29-14.44-7.32-41.39-7.32-41.39l227.5-448.69 113.75 60.04 63.2-126.39-110.59-53.72 157.99-319.14 38.01 14.62-41.35 84.71 71.1 34.7 22.16-45.4-21.33-10.42-10.1 20.69-19.41-9.47 30.58-62.63 12.49 4.8 47.4-246.46-66.36-240.14-132.94-5.56-69.29 8.71-519.82-.49 99.03-545.96 67.47 12.1 11.43-61.81-67.16-12.91 55.93-320.13 649.88 117.49 87.23-536.1-159.92-32.71-9.09 38.17-181.72-32.72 5.45-39.98-250.78-41.79-3.64 29.07-218.07-38.16 47.25-417.97-1270.28-216.258h-81.77V630.824h252.6v99.951h72.69v-32.711h54.52l127.2-83.595-7.26-87.229h-10.91V374.59h-179.91v134.478h-16.35v65.422h-327.11v-56.336h-383.45V407.301h-88.37l1.7-28.848h-178.65V11.1347h-116.3v94.4983h-61.79V7.49997Z"/>
    </g>
  </g>
</svg>
