<?xml version="1.0" encoding="utf-8"?>
<!-- Generator: Adobe Illustrator 19.0.0, SVG Export Plug-In . SVG Version: 6.00 Build 0)  -->
<svg version="1.1" id="Ground_Level" xmlns="http://www.w3.org/2000/svg" xmlns:xlink="http://www.w3.org/1999/xlink" x="0px"
	 y="0px" viewBox="0 0 1897 2080.3" style="enable-background:new 0 0 1897 2080.3;" xml:space="preserve">
<style type="text/css">
	.st0{fill:#0C343D;}
	.st1{fill:#0056AA;}
	.st2{fill:none;stroke:#B4B4B4;stroke-width:10;stroke-miterlimit:10;}
	.st3{fill:none;stroke:#B4B4B4;stroke-width:8;stroke-miterlimit:10;}
	.st4{fill:none;stroke:#B3B3B3;stroke-width:10;stroke-miterlimit:10;}
	.st5{fill:none;stroke:#B4B4B4;stroke-width:6;stroke-miterlimit:10;}
	.st6{fill:none;stroke:#B4B4B4;stroke-width:5;stroke-miterlimit:10;}
	.st7{fill:none;stroke:#CB7E54;stroke-width:2;stroke-miterlimit:10;stroke-dasharray:6,6;}
	.st8{fill:#CBFFFF;}
	.st9{fill:#FFFFCC;}
	.st10{fill:none;stroke:#FF8080;stroke-width:8;stroke-miterlimit:10;stroke-dasharray:6,6;}
	.st11{fill:none;stroke:#FFCE00;stroke-width:2;stroke-miterlimit:10;stroke-dasharray:6,6;}
	.st12{fill:none;stroke:#FFFFFF;stroke-width:3;stroke-miterlimit:10;}
	.st13{fill:none;stroke:#FFFFFF;stroke-width:2;stroke-miterlimit:10;}
	.st14{fill:#B4B4B4;}
</style>
<g id="Base_Terrain">
	<polygon id="XMLID_258_" class="st0" points="0,1999.4 0,1488.9 29,1154.7 134,262.8 266.2,131 522.5,0 686.4,0 782.5,66.5 
		1108.2,217 1343.3,435.3 1646,551 1850,813.3 1897,985.7 1753.3,1336.2 1673,1423.5 1673.3,1893 1081.3,2080.3 888.5,1992.3 	"/>
	<polyline id="Lake" class="st1" points="877.4,1992.4 881.5,1962 893.5,1926.5 921,1894.5 960.5,1857 982.5,1802 987.5,1738 
		973,1710 968.5,1694 956,1683.5 968.5,1676.3 956,1653 922.5,1619.5 840.5,1557 816,1544 799.5,1544 777.7,1552.3 749,1563.3 
		678.5,1611.5 645,1649 628.5,1655 618.5,1670.5 592.5,1680 566.5,1736 555,1791 552.5,1814 544.5,1825 522.9,1886.6 519.4,1926.1 
		531.2,1995.2 	"/>
	<polyline id="Lake_1_" class="st1" points="519.5,674.3 504,666.1 487.5,645.1 475,619.5 475,592 484.5,571 495,561 510,558.5 
		524,572 542,592 559,602.5 578,616.3 585.5,628 591,642 591,655 581,666.5 563,677 530,677 	"/>
	<polyline id="Lake_2_" class="st1" points="600.3,506.8 610.4,523.9 621.9,536.1 634,540 639.5,546 661.5,553.8 686,557 725,557 
		746.5,548.5 770.5,545.5 788,529 802,513 806,501.5 802,484.5 787,476.5 771,473 753.5,469 727.5,474 679,472.5 666.5,476.5 
		636.5,465.5 619.5,474 606,490.5 	"/>
	<path id="Lake_3_" class="st1" d="M448,543h12c0,0,8-13,9-14.5s19-25,19-25l12-16V466l-7.5-22.5l-11.5-7l-7-12L460.5,414l-12.5-5.5
		l-15-2.5l-6,6v14l23,59.5l-3.5,19l-8.5,19.2l5,13.3"/>
	<polyline id="Lake_4_" class="st1" points="549,737 555.5,723 569.5,706.5 584,702 594,707.5 597,719.5 594.5,737 583,753.5 
		570,761.5 558,758.5 549,750.5 	"/>
	<path id="Lake_5_" class="st1" d="M677.8,431.3l22.4-4.6l12.9-14.1l6.9-18.1V382l7.5-16c0,0-2-13.5-3.5-14s-18.9-10-18.9-10H686
		h-19l-14.3,12.5l-4.8,29V404l11.5,16.5"/>
	<polyline id="Lake_6_" class="st1" points="745,667.8 756.3,681.6 771.5,688 796,688 812.5,677.6 815,667.3 815,630 806,615.5 
		788.5,607 773,604.5 754.5,611 739,617.8 723,614.5 708,608.5 685.5,610.5 676,622.5 676,636 683,649 703.1,658.5 740,663.5 	"/>
	<polyline id="Lake_7_" class="st1" points="849,598 849,579 868,558 893,557.5 901,550.5 915,557.5 930.5,564 941,577.5 946,593 
		937,612 917.5,621 897.5,624.5 876.5,621.5 856.5,612.5 	"/>
	<polyline id="Lake_8_" class="st1" points="851.3,680 854.4,714.8 847.7,726.1 832,740 832,752 838,763 850,763 885.5,744.4 
		916,721.5 918.5,708.5 905,702.5 896.5,698.5 875.3,677 862,677 	"/>
	<path id="Lake_9_" class="st1" d="M772,394.8l-10-37.3V340l18-11l17-9h29l22,7.5l21.5,19.5l14.5,21l16,14l16.5,4.6l13,10.9l22.5,12
		l13.5,10.5l3.5,11.3l9.5,7.3L983,454l-11,11.5L945,482h-23l-31-11.5c0,0-20.5-7-23.5-11s-13-14-13-14l-29-2.5l-12-16.5l-15-7.5
		l-9.5-15"/>
	<polyline id="River_1_" class="st1" points="1868,925 1860,883.7 1826,817 1742.7,709 1666,611.7 1618.7,571 1575.3,562.3 
		1498.7,530.3 1388.7,479 1300.7,420.3 1238.7,360.3 1182,303 1019.3,198.3 816.7,98.3 713.3,39 676.1,0 584,0 634,57 728.7,149 
		805.3,198.3 878.7,243 930,262.3 1026,297 1191.3,375 1232,401 1261.3,431.7 1305.3,497 1335.3,525.7 1384.7,558.3 1443.3,585.7 
		1502,602.3 1560,629.7 1616,666.3 1665.3,701.7 1698.7,733.7 1755.3,806.3 1788.7,850.3 1812.7,897 1826,961 1838.7,1055 
		1849.1,1101.3 1892.8,993.9 1873.3,950.3 	"/>
</g>
<g id="Roads">
	<path id="XMLID_3_" class="st2" d="M330.3,1996.8c-2.3-33.5-3.8-50.8-5.6-71.1c-6.9-78.7-10.8-118.4-17.3-140
		c-2.6-8.7-8-25.1-11.3-48.7c-3.1-22.1-2.9-39.1-2.7-50c1.5-72.4,7.4-140.3,8-147.3c0,0,2.4-27.2,15.7-105.7c2-11.8,4.3-24.8,13-39
		c11.3-18.4,30.7-28.8,52-41c8.7-5,16.1-8.7,21-11"/>
	<path id="XMLID_5_" class="st2" d="M16.7,1296.4c39.2,16,55.2,16.5,77.3,21.6c6.9,1.6,12.3,2.6,23,4.7c40,7.8,60.6,10.2,111,18.3
		c38.3,6.2,30.6,5.5,42,7c79.4,10.4,121,0,121,0c18.8-4.5,11-5.7,65-25c23.1-8.3,35.7-12.7,51-17c46.8-13,90.9-14.1,119-18
		c38.6-5.3,53.6-7.5,66.5-10.9c4.7-1.2,8.4-2.4,10.5-3.1c23.4-7.3,41.5-15.5,59.8-24.3c16.5-8,36.8-19,76.8-40.8
		c29.4-16,44.2-24.1,47-27c25.8-27.2,25.2-67.4,24.5-105c-0.4-24.7-3.9-42.2-11-77c-9.9-48.3-19.6-69.1-24-78
		c-17-34.2-35-45.8-42-50c-5.7-3.4-11.1-5.6-22-10c-19.3-7.8-43.3-13-54-17c-16.8-6.3-27.9-16.8-50-38c-21-20.1-41.8-39.9-54-72
		c-4.8-12.5-6.5-23.6-10-46c-7.6-49-3.9-81.3-18-91c-1-0.7-12.3-8.3-28-17l0,0c-2.9-1.8-6.3-4.1-10-7c-0.5-0.4-4.7-3.7-9-8
		c-3.5-3.4-12.1-12-19-24c-0.8-1.4-10.1-18.6-12-38c-2.4-24.9,10.3-41.5,19-60c21.2-45.2,13.6-91.6,7-132c-1.7-10.6-10.8-37-29-90
		c-4.6-13.5-10.5-29.9-25-45c-8.3-8.6-18.1-15.3-22-18c-2.7-1.8-3.8-2.3-8.2-5.1c-9.9-6.4-16.7-11.5-19.5-13.5
		c-20.9-15.4-27.8-12.7-36.7-22.7c-7.6-8.6-7.1-15.9-11.7-38.3c-2.7-13.2,1.9-2.5-5.9-25"/>
	<path id="XMLID_6_" class="st2" d="M119,1322c-1.3-16.9-1.2-41.6,6-70c5.9-23.4,12.4-50.9,35-75c12.2-13,27.8-23.7,37-30
		c18.6-12.7,29.2-16.9,38-31c1.6-2.6,2.7-4.7,3.5-6.7c3.8-9.3,6-16.2,6.5-18.3c3.4-12.7,16.8-29.3,33-37c12.5-5.9,16.7-1.8,26-9
		c7.7-5.9,6.1-9.7,16-22c9.6-11.9,19.6-19,24-22c11.1-7.6,15-7.3,24-13c5.3-3.4,14.4-10.1,28-31c18.4-28.1,13.9-34.2,29-59
		c7.4-12.1,20.2-32.6,44-47c13.3-8.1,24.8-11,37-14c63.9-15.7,95.9-23.2,111-24c25.1-1.3,65.5-0.3,114,15"/>
	<path id="XMLID_7_" class="st2" d="M654.3,734.8c-3.8,12.1-6.6,21.8-8.3,28.2c-5.1,18.4-6.3,25.3-12,34
		c-4.9,7.6-10.7,12.6-14.5,15.5"/>
	<path id="XMLID_4_" class="st2" d="M969,842c-8.4,3.8-21,8.7-37,12c-16.2,3.3-27,3.2-39,4c-15.1,1-36.6,3.8-63,12"/>
	<path id="XMLID_8_" class="st2" d="M1566,735c-10.4,0.7-24.4,1.2-41,0c-12.3-0.9-18.5-1.3-24-4c-12.7-6.2-12-15.2-28-35
		c-7.8-9.6-16.6-20.3-31-28c-9.9-5.3-9.9-2.5-31-10c-20.3-7.3-30.4-10.9-40-20c-5.8-5.5-5.7-7.5-17-19c-3.5-3.5-8.7-8.8-16-15
		c-10.4-8.8-11.9-8.3-19-15c-6.4-5.9-7-8-15-17c-2.8-3.1-11.3-12.7-20-20c-5.4-4.5-17.4-14.4-35-20c-20.2-6.4-37.3-3.8-48-2
		c-18.9,3.1-35.5,5.8-46,19c-7.6,9.6-9.1,22-12,47c-2.2,18.8-0.5,23.2-5,34c-5.5,13.1-14.6,22.6-18,26c-8.1,8.3-9.8,6.9-18,15
		c-4.7,4.6-15,14.2-20,29c-1.4,4.2-1.9,7.1-5,34c-2.8,24.4-2.7,24.1-3,25c-7.6,23.4-33.6,35.6-41,39c-18.3,8.5-23.7,4.3-37,14
		c-7,5.2-10.6,10.1-21,25c-18.3,26.2-27.5,39.4-29,42c-13.8,23.8-19.7,43.3-29,74c-4.6,15.1-10.1,35.5-15,60"/>
	<path id="XMLID_9_" class="st3" d="M1647.3,554.3c-8.3,11.4-12.1,16.7-21.1,28.4c-13.3,17.3-26.5,33.7-39.7,49.4
		c-1.4,2.9-3.7,7.5-6.5,13c-14.1,27.9-15.1,28.3-15,32.5c0.2,4.9,2.1,20.1-0.5,24l0,0c0.1,4.8,0.3,8.4,0.5,10.5
		c2.3,30.9,4.3,40.7,1.7,58c-0.3,1.7-0.5,2.8-0.7,4c-0.6,4.1-1.2,7.1-1.9,9.8c-1.6,6.3-3.2,11.1-4.1,13.8c-2.7,7.9-2.8,14.7-3,26.5
		c-0.2,14.3-0.4,22.4,3,32.5c2.8,8.3,6.5,13.9,12,30.5c0.5,1.5,1,2.9,1.5,4.9c1.6,5.5,2.6,11.3,5.5,26.1c6.3,32.9,9.8,49.3,10,51
		c1.7,16.4,2,35.5,2.3,54c0.1,6,0.1,13.9,2.5,24.3c1.6,7,4.1,14.5,9.3,24.8c5.1,10.2,7.1,9.4,11.5,19.2c3.2,7,3.5,10.2,7.5,15.3
		c3.7,4.8,5.2,4.3,9.5,9.5c4.2,5.1,6.3,9.9,8.5,15c4.2,9.8,3,11.9,6,18.5c5,11.2,12.8,18.1,15.5,20.5c11.4,9.9,18,8.1,24.5,18
		c1.8,2.7,4.1,7.2,4.5,13c0.2,2.4,0.5,7.3-2.5,11.5c-1.4,1.9-2.6,2.5-6.5,5c-7.9,5.1-11.8,7.6-13.5,10.5c-1.1,1.9-1.9,6-1,14
		c1.4,13.2,3,20,3,20c6.5,28.4,4.3,29.3,9,40c4.1,9.3,5.4,7.9,10,18c3.4,7.4,6.4,21.8,9,33c2.6,11,3.6,14.2,5.7,18
		c2.6,4.8,5.5,8.4,7.7,10.7"/>
	<path id="XMLID_10_" class="st3" d="M1101,1991.3c-3.7-11.5-9.1-29-14.7-50.7c-7.3-28.6-10.5-47.6-16.7-80
		c-4.6-24.2-9.3-47.3-18.7-93.7c-16.6-81.9-19.9-92.5-25.7-106c-10.1-23.8-20.5-38.9-41.3-69c-6.2-8.9-14.1-19.8-28-29
		c-8.1-5.4-16.9-11.2-29.3-12.3c-9.4-0.9-14.1,1.5-30.7,0.3c-12.1-0.9-14.8-2.5-16-3.3c-3.9-2.7-7.1-8.4-7.7-30.3
		c-0.3-14.6,0.8-25.4,1.2-28.8c1.7-17.5-1.9-18-11-75c-4.6-28.6-4.7-34.8-11.5-41c-8.1-7.5-17.5-7.4-24.5-18c-2-3.1-3.9-7.2-5.5-20
		c-2.7-21.5-1.5-42.4,0-57.5c1.4-14.3,2.7-19.2,0-27c-3.3-9.6-10.1-16-15.5-20"/>
	<path id="XMLID_11_" class="st3" d="M1036.7,2059.3c4-8.2,8.1-12.3,11.2-14.6c1.2-0.9,3.2-2.2,5.8-4.6c1.7-1.6,3.1-3.3,6.2-6.8
		c4.7-5.4,5.5-6.7,11.2-13.7c2.6-3.2,8-10.2,17-18c3.9-3.4,14.7-12.4,30.7-20c24.2-11.5,46.7-13.4,56-14.3
		c32.9-3.4,64.2-16.1,96.3-24c103.9-25.5,161.3-39.5,214-53.3c56.9-14.9,94.2-23.9,188.2-53.4"/>
	<path id="XMLID_12_" class="st3" d="M1843.5,1115.7c-4.9-2.3-11.2-6.4-15.4-13.4c-2.1-3.5-2.1-5.8-4.1-10.8
		c-5.1-12.8-9.7-22.4-12-27c-5.9-11.8-10.7-19.8-12-22c-3.5-5.8-6.7-10.4-13-19.5c-10.7-15.5-14.4-19.8-16-21.5
		c-5.9-6.6-8.8-9.9-14-13c-8.2-4.9-16.1-5.9-21-6.5c-15.1-1.8-17.7,3.3-28.5,0c-7.6-2.3-7.5-5.2-17-8c-3.2-0.9-10.3-3-18.5-2
		c-7.2,0.9-13.7,3.9-22.7,11c-14.7,11.6-19.6,21.3-31.8,36c-5.6,6.8-14.2,16.2-26,26.5"/>
	<path id="XMLID_13_" class="st3" d="M1644.5,1150.5c-16.2,5.2-28.4,10.8-36.5,15c-16.4,8.4-25.3,15.5-35.3,12.2
		c-3.8-1.2-6.7-4.2-12.7-10.2c-4-4-7.2-8-16.5-21.5c-12.3-18-10.6-16.9-15.5-23c-7.7-9.6-10.5-10.6-13-17c-2-5-2-10.1-2-20.5
		c0-13,0-19.6,4-25c2.8-3.7,4.3-3,8.5-8.5c5.3-6.8,4.3-9.5,8-12c2.7-1.8,4.4-1.2,16.5-1c10.1,0.1,9-0.3,16,0c12.9,0.5,16.7,1.9,19,3
		c3.4,1.6,5.9,3.6,7.5,5"/>
	<path id="XMLID_14_" class="st3" d="M1634.5,1120.5c22.9-1.4,40.7,0.7,53,3c12.2,2.3,25,5.9,40.5,1c12-3.8,16.1-9.7,17-11
		c7.2-10.8,2.6-24.2,1.5-27.5c-1-2.8-4-11.8-12.5-17.5c-5.4-3.6-8.7-3-25.5-5.5c-12.2-1.8-19.4-2.9-28-5.5
		c-12.8-3.8-12.2-6.1-25.5-10.5c-14.4-4.8-25.4-5.6-32-6c-10.8-0.7-27-1.8-29.7,4.7c-1,2.5,0.2,5.5,1.7,7.8"/>
	<path id="XMLID_15_" class="st3" d="M1577,909c-0.5-20.7-0.1-37.4,0.5-49c0.7-15.1,1.8-25.7,0.5-42.5c-0.8-10.3-1.3-16.9-3.5-26
		c-2.5-10.4-5.1-15.2-6.5-25.5c-1.1-8-0.9-14.6-0.5-19"/>
	<path id="XMLID_2_" class="st2" d="M770.8,58.4c-56.4,59-95.6,100.7-118.8,125.6c-5.3,5.7-14.6,16.2-33,37
		c-18.9,21.3-24.2,27.7-30,37c-10.3,16.6-15.4,32-18,42"/>
	<path id="XMLID_26_" class="st2" d="M508,166c5.5,4.6,14.6,11,27,15c3.9,1.3,10.3,3.1,31,4c10.8,0.4,19.2,0.5,44,0
		c36.1-0.7,40.9-2.6,46-6c5.7-3.7,9.3-8.3,11.4-11.5"/>
	<path id="XMLID_87_" class="st4" d="M551.3,182"/>
	<path id="XMLID_111_" class="st5" d="M1190.7,527.7c-2.2-20.1-8-34.7-12.7-44c-3.4-6.8-7.4-12.8-15.3-24.7
		c-5.9-8.9-13.1-18.9-22-30c-10.5-13.1-15.9-19.7-21.3-22.7c-10.8-5.9-22.1-6-34-6c-13.7,0-18.5,2.5-30,0c-2.9-0.6-8-2-17.3-6.7
		c-26.4-13.3-28.4-24.3-46-30c-9.9-3.2-8.3,0.6-30-2c-14.7-1.7-30.5-3.6-45.3-11.3c-14.3-7.5-11.9-12.2-35.3-33.3
		c-13.8-12.4-25.1-22.6-42-30.7c-16.8-8-19.6-4.5-46.7-13.3c-20.9-6.8-35.7-14.2-51.3-22c-21.8-10.9-36.1-18.1-52.7-31.3
		c-15.8-12.6-26.8-25.3-33.7-34.2"/>
	<path id="XMLID_294_" class="st6" d="M919.5,1452.5c1.7-14.5,1.4-27.1,0.5-37c-1.1-12.5-2.8-31.1-12.5-51.5
		c-8.7-18.3-13.5-16.2-18.5-31c-2.5-7.6-2.9-20.5-3.5-46c-0.5-20.7-0.1-29-6-39c-2.4-4-6.8-11.5-15-14c-7.1-2.2-15.3-0.1-23.5,2
		c-2.4,0.6-3.9,1.1-7,2.1c-11.5,3.7-18,7-23,8.9c-5.8,2.3-14.5,4.7-26.5,5"/>
	<path id="XMLID_295_" class="st6" d="M886.8,1321.5c5.9-9.3,8.5-17.6,9.9-23.1c1.3-5.2,2.5-10.3,1.6-17c-0.6-5.1-2.2-8.7-4.8-14.8
		c-4.8-11.3-7-11.4-8.4-18c-1.4-7-0.4-13.8,0-16c1.1-7,3.2-10.2,1.4-14.1c-1.7-3.6-5.5-5.1-6.5-5.5c-7.5-2.7-15.7,2.7-26.4,9.9
		c-5.1,3.4-11.8,8.5-19.1,15.5"/>
	<path id="XMLID_296_" class="st6" d="M754,1343.3c3.7,0.6,9.3,2,14.3,6c5.6,4.5,7.5,9.9,13.3,24.3c5,12.4,7.5,18.6,8.3,20.3
		c8.3,16.8,14.2,16.3,21.3,30.3c7.3,14.3,7.8,27.7,8,33.3c0.4,12.7-2.4,17.7-5,33.3c-1.6,9.8-3.2,24.1-2.3,42"/>
	<path id="XMLID_297_" class="st6" d="M749.3,1514c1.5,1.4,4.5,3.8,8.7,4c4.8,0.2,8.4-2.7,12-5.7c4.2-3.4,3.6-4.4,8-8.3
		c2.5-2.3,6.4-5.8,12.3-8c4.6-1.7,8.4-1.8,14-2c4.2-0.1,7.6,0.1,10,0.3"/>
	<path id="XMLID_298_" class="st6" d="M773,1323.7c0,3.2,0.2,8,1,13.7c1.4,9.2,3.5,23.6,13.7,34.7c3.8,4.2,9.1,7,19.7,12.7
		c4.2,2.2,14.2,7.3,28,11.7c6.2,2,14.4,4.1,24,5.7"/>
	<path id="XMLID_299_" class="st6" d="M843.3,1323c-3,0.8-7.4,2.2-12,5.3c-5.1,3.4-6.4,6.3-10.3,10.3c-5.1,5.3-11.3,8.6-23.7,15
		c-8.4,4.4-17.5,8.4-17.7,8c-0.1-0.2,1.6-1.2,3-2"/>
	<path id="XMLID_300_" class="st6" d="M864.3,1429.7c-6.7-5.2-13-8-18-9.7c-4.6-1.5-8.3-2.1-14.3-3c-9.1-1.4-15.4-1.7-20.3-2
		c-6.9-0.5-16.6-1.4-28.7-3.7"/>
	<path id="XMLID_301_" class="st6" d="M832,1362.3c4,10,2.8,16,1,19.7c-2.9,5.7-7.5,5.8-17.7,16c-3.7,3.7-6.2,6.3-8.7,10.3
		c-2.2,3.6-3,6.3-6,17.3c-4.8,17.9-4.7,18.5-6.3,21.3c-3.8,6.5-5.8,5.3-11.3,13.7c-2.3,3.6-5.6,8.6-7.3,15.7c-1,4-1.1,8.4-1.3,17
		c-0.1,5.6-0.1,10.2,0,13.3"/>
	<path id="XMLID_302_" class="st6" d="M891,1315.5"/>
	<line id="XMLID_304_" class="st6" x1="1106.3" y1="1774.7" x2="1054.9" y2="1786.3"/>
</g>
<g id="Railroad">
	<path id="XMLID_280_" class="st7" d="M1393,1981.7c-6-42.7-6.8-62.8-8.3-88.4c-2.5-42.2-1-52.6,0.3-59.7
		c8.8-46.3,36.2-77.3,45.3-87.3c10.2-11.3,19.6-18.5,38.3-33c20.9-16.2,40.4-31.3,69-43.3c12.9-5.4,26.1-9,52.7-16
		c20.5-5.4,44.6-10.6,60.3-14c7.2-1.6,13.2-2.8,17.2-3.7c1.4-0.3,2.9-0.6,4.3-0.8"/>
</g>
<g id="Buildings">
	<polygon id="XMLID_18_" class="st8" points="881.3,1473.7 881.2,1483.8 890,1484 889.8,1473.5 	"/>
	<rect id="XMLID_19_" x="843.8" y="1301.5" class="st8" width="14.3" height="5.5"/>
	<rect id="XMLID_20_" x="844" y="1294.7" class="st8" width="14.2" height="5.3"/>
	<rect id="XMLID_21_" x="844" y="1285.8" class="st8" width="14.2" height="5.3"/>
	<rect id="XMLID_22_" x="710.2" y="1332.3" class="st8" width="41.3" height="22.8"/>
	<rect id="XMLID_16_" x="711.2" y="1393.8" class="st8" width="70.3" height="27.8"/>
	<rect id="XMLID_17_" x="737.7" y="1437.8" class="st8" width="28.5" height="70.8"/>
	<rect id="XMLID_23_" x="216.2" y="1765.3" class="st8" width="17.3" height="14.8"/>
	
		<rect id="XMLID_24_" x="935.7" y="316.9" transform="matrix(0.8908 0.4543 -0.4543 0.8908 251.7653 -392.4093)" class="st8" width="13.5" height="21.6"/>
	
		<rect id="XMLID_27_" x="876.5" y="285.6" transform="matrix(0.5583 -0.8296 0.8296 0.5583 149.7174 866.0901)" class="st8" width="23.5" height="13.7"/>
	
		<rect id="XMLID_28_" x="899" y="497" transform="matrix(0.9923 0.124 -0.124 0.9923 69.5587 -108.937)" class="st8" width="21.3" height="14.3"/>
	
		<rect id="XMLID_29_" x="980.8" y="471" transform="matrix(0.9866 0.1634 -0.1634 0.9866 91.4325 -155.5877)" class="st8" width="21.6" height="14.2"/>
	
		<rect id="XMLID_30_" x="989.9" y="399.6" transform="matrix(0.9871 0.1601 -0.1601 0.9871 78.5312 -154.265)" class="st8" width="13.9" height="21.4"/>
	<rect id="XMLID_31_" x="1520.8" y="804.5" class="st8" width="13.3" height="23.5"/>
	<rect id="XMLID_32_" x="1531.3" y="786.5" class="st8" width="17.3" height="10.3"/>
	<rect id="XMLID_33_" x="1508.3" y="786.8" class="st8" width="8.3" height="19"/>
	<rect id="XMLID_34_" x="1604" y="813.3" class="st8" width="15.5" height="17.3"/>
	<rect id="XMLID_35_" x="1600" y="843.3" class="st8" width="17.5" height="13.8"/>
	<rect id="XMLID_36_" x="1522" y="855.8" class="st8" width="24.5" height="13"/>
	<polyline id="XMLID_97_" class="st8" points="1029.7,378.7 1049,387.3 1054.5,376 1047.3,372.8 1053.2,361.3 1042.1,356.8 	"/>
	
		<rect id="XMLID_95_" x="479" y="1590" transform="matrix(0.9583 0.2858 -0.2858 0.9583 476.5353 -70.8883)" class="st8" width="4.3" height="14.3"/>
	
		<rect id="XMLID_89_" x="1601.8" y="1138.5" transform="matrix(0.904 -0.4276 0.4276 0.904 -333.9711 798.5325)" class="st8" width="18.5" height="8.8"/>
	<rect id="XMLID_90_" x="1687" y="1080.8" class="st8" width="10" height="5.3"/>
	
		<rect id="XMLID_91_" x="1556.3" y="1134.4" transform="matrix(0.8523 -0.523 0.523 0.8523 -365.9525 983.2122)" class="st8" width="3.5" height="10.4"/>
	
		<rect id="XMLID_92_" x="1646.7" y="1091.2" transform="matrix(0.9063 0.4227 -0.4227 0.9063 619.7236 -598.7475)" class="st8" width="26.8" height="14"/>
	
		<rect id="XMLID_88_" x="378.7" y="709.8" transform="matrix(0.9033 -0.429 0.429 0.9033 -270.9041 233.5191)" class="st8" width="7.7" height="15.8"/>
	
		<rect id="XMLID_93_" x="423.3" y="752" transform="matrix(0.8704 0.4924 -0.4924 0.8704 428.1908 -113.1522)" class="st8" width="11.5" height="9.4"/>
	
		<rect id="XMLID_94_" x="373.7" y="625.7" transform="matrix(0.9787 0.2053 -0.2053 0.9787 137.8091 -65.8398)" class="st8" width="25" height="11"/>
	
		<rect id="XMLID_98_" x="1096.6" y="1792.6" transform="matrix(0.774 -0.6332 0.6332 0.774 -888.4455 1103.079)" class="st8" width="8.5" height="6.8"/>
	<rect id="XMLID_99_" x="1149.2" y="1739.5" class="st8" width="9.8" height="8.7"/>
	<rect id="XMLID_100_" x="1120.3" y="1740.8" class="st8" width="7" height="13.2"/>
	<rect id="XMLID_101_" x="1156.3" y="1754.8" class="st8" width="9.2" height="8.7"/>
	
		<rect id="XMLID_205_" x="1104" y="367.3" transform="matrix(0.9119 0.4104 -0.4104 0.9119 250.9793 -421.3323)" class="st8" width="6" height="13.3"/>
	<rect id="XMLID_206_" x="1072" y="389.7" class="st8" width="10.7" height="5"/>
	
		<rect id="XMLID_207_" x="479" y="1301.4" transform="matrix(0.9474 -0.3199 0.3199 0.9474 -391.6177 223.5018)" class="st8" width="10.8" height="4.7"/>
	
		<rect id="XMLID_240_" x="1602" y="1623.3" transform="matrix(-0.9745 0.2245 -0.2245 -0.9745 3575.0403 2862.4326)" class="st8" width="45.6" height="22.2"/>
	<rect id="XMLID_252_" x="1271" y="1373.5" class="st8" width="5.5" height="5"/>
	<polygon id="XMLID_256_" class="st8" points="1232.3,1355.3 1224.5,1364.5 1218.7,1355.9 1217,1355.3 1217,1358 1222.1,1366.8 
		1219.4,1370.7 1219.3,1374 1222,1374 1226.4,1369.4 1230.6,1368.8 1231.6,1367 1229.6,1366.6 1226.9,1367 1235.8,1357.6 	"/>
	<polygon id="XMLID_255_" class="st8" points="1425,1426 1425,1452 1446,1452 1446,1438 1442,1438 1442,1448 1435,1448 1435,1426 	
		"/>
	<polygon id="XMLID_257_" class="st8" points="171,1497 171,1521 190,1521 190,1506 187,1506 187,1517 181,1517 181,1497 	"/>
	<polygon id="XMLID_262_" class="st8" points="1087.1,1057.9 1089.6,1062.9 1099.6,1057.9 1103.5,1066.4 1108.8,1063.3 1104,1052.3 
			"/>
	<rect id="XMLID_276_" x="1123.8" y="1812" class="st8" width="7.9" height="8.3"/>
	
		<rect id="XMLID_277_" x="1147.8" y="1755.7" transform="matrix(0.9109 -0.4127 0.4127 0.9109 -625.4775 631.8867)" class="st8" width="4.9" height="16.7"/>
	
		<rect id="XMLID_279_" x="409.9" y="627" transform="matrix(0.932 0.3625 -0.3625 0.932 258.4542 -108.2822)" class="st8" width="15.8" height="15.3"/>
	<polygon id="XMLID_281_" class="st8" points="518.6,347 495.5,340.7 490.4,359 504.9,363 505.7,360.1 495.1,357.1 496.7,351.4 
		515.9,356.7 	"/>
	
		<rect id="XMLID_282_" x="629.2" y="313.2" transform="matrix(0.6814 -0.7319 0.7319 0.6814 -28.2147 565.8489)" class="st8" width="13.4" height="4.2"/>
	
		<rect id="XMLID_283_" x="645.1" y="302.5" transform="matrix(0.6814 -0.7319 0.7319 0.6814 -15.3966 574.4266)" class="st8" width="14" height="4.7"/>
	
		<rect id="XMLID_284_" x="637.4" y="267" transform="matrix(0.6814 -0.7319 0.7319 0.6814 8.2631 557.1494)" class="st8" width="13.4" height="4.2"/>
	
		<rect id="XMLID_278_" x="877.7" y="374.3" transform="matrix(0.7014 -0.7128 0.7128 0.7014 -5.0467 743.6199)" class="st8" width="14.7" height="7"/>
</g>
<g id="Rocks">
	<polygon id="XMLID_38_" class="st9" points="178,1041.8 173.5,1053.2 176.8,1065 192.2,1069.7 203.2,1067.7 206.8,1059.2 
		195.5,1053.3 193.8,1044.7 190.7,1041.3 	"/>
	<polygon id="XMLID_39_" class="st9" points="232.5,952.7 231.8,953.1 227.4,955.7 230.5,962.4 240.5,964 252,964 259.8,956.7 
		266,953.7 266.2,949 262.7,947 264.5,939.2 261.2,933.3 251,929.8 249.8,935 247,935 243.8,933 241.8,938.8 237.7,940.7 
		233.2,940.3 230.8,945.5 232.2,950.3 237,951 	"/>
	<polygon id="XMLID_40_" class="st9" points="297.3,1283.8 294.8,1293.3 297.3,1297.3 294.8,1303 300.3,1308.8 316.3,1306.5 
		332.5,1299.5 341.8,1297.5 344.3,1289.5 338.5,1283 327.8,1278.5 315.3,1279.5 312.8,1284.5 307.5,1283 305.5,1277.5 	"/>
	<polyline id="XMLID_37_" class="st9" points="280.3,1387.3 276.3,1395.8 277.3,1402 285.5,1404 290,1399.3 294.8,1396 
		301.3,1393.8 301,1385 286.3,1386 	"/>
	<polyline id="XMLID_41_" class="st9" points="230.3,1445.8 226.3,1450.3 220,1451 217,1455 219,1460 221.3,1463.8 234.3,1462 
		240.8,1456.8 240,1451 235,1450.3 233.3,1444.8 	"/>
	<polygon id="XMLID_43_" class="st9" points="354.5,1804.3 358.8,1800 372.5,1799.5 378,1795 384,1797 388.3,1804 386.3,1811.3 
		375.8,1814.5 370,1820.3 362.8,1819.8 355.3,1811 	"/>
	<polyline id="XMLID_44_" class="st9" points="321.8,1722.5 329.3,1724.5 331,1729 339,1732 348,1729.5 351,1723.3 342.8,1717.5 
		330.8,1715.5 322.3,1716 320.8,1722 	"/>
	<polyline id="XMLID_42_" class="st9" points="171,1807 171,1819 175,1829.3 180.9,1836.5 187,1834.5 187,1827 188,1815.8 
		181.8,1807.5 174,1805.8 	"/>
	<polygon id="XMLID_46_" class="st9" points="61,1827.8 66.3,1837 78.5,1836.8 95,1829.3 98.5,1823 100,1817.5 93.5,1813.8 89,1804 
		72,1804.3 59,1810 57,1820.8 	"/>
	<polyline id="XMLID_45_" class="st9" points="86.8,1771 96.8,1772.8 103.5,1768.5 100.3,1763.5 93,1761.3 87.8,1765 85.8,1769.5 	
		"/>
	<polyline id="XMLID_48_" class="st9" points="551.5,1777.5 544.5,1785 548.5,1793 562,1795.5 581.5,1792 586,1785 578,1777 
		563,1775.5 	"/>
	<polyline id="XMLID_49_" class="st9" points="496.5,1741 487.5,1728 491,1718.5 513.5,1716 522,1722.5 522.5,1734.5 509.5,1742 
		505,1730 499.5,1732 499,1741 	"/>
	<polygon id="XMLID_50_" class="st9" points="666,1587.5 664,1577.5 673,1569 685.5,1576.5 691.5,1581.5 692,1591.5 698,1601.5 
		695,1608.5 685,1611 675.5,1597.5 674.5,1590.5 	"/>
	<polyline id="XMLID_47_" class="st9" points="860,1532.5 858,1549.5 870,1562.5 880,1570 891,1567.5 888,1561 874.5,1558 
		866.5,1548 862.5,1532.5 	"/>
	<polygon id="XMLID_52_" class="st9" points="888.5,1577.5 894,1588 903.5,1587.5 905,1579 895,1572.5 	"/>
	<polygon id="XMLID_53_" class="st9" points="911.5,1577.5 907,1586.5 908,1593.5 916.5,1603.5 923.5,1602 926.5,1591.5 
		929.5,1583.5 927,1576.5 917,1575.5 	"/>
	<polyline id="XMLID_51_" class="st9" points="932.3,1617.5 928,1624.3 921.5,1627.5 917.8,1634.3 921.5,1645.8 917.5,1652.8 
		925.3,1657.5 930.8,1656.3 935.3,1647.3 938.8,1652.8 937.3,1662 943.3,1668 953.3,1670.8 964.3,1674.8 970.8,1669.5 978.3,1670 
		971.5,1659.8 956.5,1650.8 948.8,1644.5 947.5,1636.3 942.8,1638.5 938.3,1633.5 941.5,1629.8 950,1627.5 948,1620 938.8,1616.8 	
		"/>
	<polygon id="XMLID_55_" class="st9" points="973,1714.5 972,1723 981.3,1730.8 983.3,1736.3 995.5,1737 997.5,1727 993.5,1722 
		992.8,1715 979.3,1711.8 	"/>
	<polyline id="XMLID_56_" class="st9" points="892.1,1928.4 885.2,1937.8 890.7,1947.8 893.7,1957 908.2,1968.8 919.2,1984 
		937.5,1988.3 955.2,2007.6 985.3,2017 1004,2017 1001.8,2003.8 995.9,1995.5 984,1997 984,1990 980.8,1988 980.3,1981.3 
		972.5,1975.8 970.5,1968.8 962.3,1969.5 957.3,1978.8 951.3,1979.5 948.8,1971.5 940.5,1966.5 933.3,1967.1 915.8,1954 910,1954 
		909,1946.5 901,1937.3 	"/>
	<polygon id="XMLID_54_" class="st9" points="926.5,1947 934,1954 943.5,1951.3 947.5,1954 953.8,1952.8 952.8,1939.3 944,1932.8 
		936.5,1926.5 932.8,1934.5 928.5,1936.8 	"/>
	<polyline id="XMLID_58_" class="st9" points="1377.9,1706.6 1384.3,1711.8 1386.3,1721.5 1387.8,1736 1384.8,1746 1375.5,1750.5 
		1366,1757.8 1365.5,1765.1 1371.5,1767 1396,1767 1398.8,1760.3 1399.8,1748.8 1395.3,1736 1395.8,1722 1393,1701.8 1387.8,1695.5 
		1380,1697.3 1377.5,1703.8 	"/>
	<path id="XMLID_59_" class="st9" d="M1090.1,1302.4l4.4,7.3c0,0,11.7,3.9,12.5,4.2s7.2,1.5,7.2,1.5l4,4.2l-3,8.7l1.7,8.5l10,2.2
		l8.2-2.8l-6.8-3.3l3.2-3.8l5-1.8l0.5-12.8l-4.5-9.5l1.9-11.3l4.4-5.8v-6.3l3.1-9.5l-2.1-10.5v-10l2-8.8l-2.3-8.8l-7.3-3.8l-0.8-7
		l-3.5-4.8l3.5-11.5l-3.8-10.5l-10.8-3.5l-3,5.5l8.3,21.8l-6.3,14.8l-0.5,8.1l-7.8,5.4l8.3,7.3l6.3,3.5l1,9l-9.3,12.3l-9.3,1l-2,8.5
		l2.8,9.5l-10.8-3.3l-6.5,1.8"/>
	<polyline id="XMLID_57_" class="st9" points="1021,1337.3 1019.3,1347 1023,1356 1033.3,1357 1036.3,1346.3 1034.3,1335 
		1026,1333.7 	"/>
	<polyline id="XMLID_61_" class="st9" points="1205.1,1727.6 1205.4,1718.1 1212,1716.3 1211.7,1724.8 1215.2,1721.4 1217.3,1718 
		1225,1718 1226.3,1723.3 1232.5,1726.8 1234.3,1734.8 1229,1742.3 1219.8,1737.5 1213.8,1738 1208,1731.3 	"/>
	<polygon id="XMLID_60_" class="st9" points="1272,1755.5 1279.8,1757.5 1285.8,1750 1290.3,1748.5 1293.3,1751.8 1292.5,1761.5 
		1287,1775 1280,1786 1275.5,1786.3 1274,1781.3 1278,1773.3 1277,1768 1269.8,1768.3 1267.5,1760.5 	"/>
	<polyline id="XMLID_63_" class="st9" points="1290.4,1676.4 1294.3,1673 1306,1673 1315.3,1678.5 1323.8,1686.8 1324,1696.5 
		1319.8,1703.8 1313.5,1708.8 1307.5,1705.9 1302,1702 1298,1702 1296,1696.5 1290,1694 1291.5,1684.8 	"/>
	<path id="XMLID_64_" class="st9" d="M1114.8,709.3c0,0-6.3,9.7-6.3,13.3c0,3.7,1.7,20.7,1.7,20.7l14,25.7l13.3,18.3l9,3l2.7-9.3
		h8.7l5.7-10.7l4-7.7l4.3-5l-6.7-15.3l-12-17.3l-11.7-12.7l-7.7-1.3l-3,2.7l-5-5L1114.8,709.3z"/>
	<polygon id="XMLID_62_" class="st9" points="1186.3,683.7 1192.7,684 1198.7,690.7 1204.7,698.3 1212.7,698 1216.3,706.7 
		1217.3,716.3 1211,728 1205.3,738.3 1203.7,742.3 1192.3,744 1182,740.7 1185.3,733 1187.7,729 1182.7,725 1187.3,714.7 
		1184,706.7 1178,705.3 1177.3,701 1184.3,697.7 1180,690.3 	"/>
	<polyline id="XMLID_65_" class="st9" points="1244.3,699 1242,707.7 1242,721 1239.7,732 1245.3,738.7 1259.3,742.7 1263,739.3 
		1265,731.7 1267.3,719.7 1263.3,708 1257,699.7 1254.7,692 1247.7,696.3 	"/>
	<polygon id="XMLID_67_" class="st9" points="1195,510.5 1192.5,495.6 1195.8,486.3 1192,479.6 1194.7,461 1203.3,457.3 
		1211.3,446.7 1206.3,437.7 1203.3,429 1207.7,418.3 1213.7,410.2 1226.3,409 1235,409 1242.3,419 1239.3,432.3 1227.2,448.3 
		1221,453.3 1221,458 1227.7,463.7 1232,476 1233.7,495.7 1226.3,511 1218.3,519.3 1210.7,518 1205.7,516 1202.8,519 1195,517 	"/>
	<polygon id="XMLID_68_" class="st9" points="1058.7,508 1064.3,514.3 1072,520.3 1080,522 1088.7,519.3 1093.7,508.3 1096.3,498.3 
		1091.7,492 1078,491.3 1065.7,493 1060,500 	"/>
	<path id="XMLID_69_" class="st9" d="M1037,520c-1-0.7-9.3-17.7-9.3-17.7l2-12.7l13-9.3l8,1.7l0.3,11l0.3,6.7l-8.7,7.3l-3.3,11.3
		L1037,520z"/>
	<polygon id="XMLID_66_" class="st9" points="1055,962.7 1056,951.7 1069.3,943 1087,937.3 1104.3,937 1111.7,943.7 1111,953 
		1107.7,961.7 1104.3,972 1093.3,974.7 1077.7,976.7 1061,971 	"/>
	<polygon id="XMLID_70_" class="st9" points="1057,901.3 1055.7,887 1069.3,876 1082.7,866.7 1084.7,858 1090.3,854 1098.3,856 
		1102.3,864.3 1100,874 1105,885.3 1108,896.3 1113,903.3 1126.7,904.7 1130.7,909 1131.7,920 1126.3,928 1115,930.7 1105,927.3 
		1103.3,920.7 1093.7,919.7 1069.3,921 1060.3,910.3 	"/>
	<polygon id="XMLID_71_" class="st9" points="1099.7,823 1108.3,814.3 1123.3,811.3 1135.3,804.3 1147.3,798.3 1154.7,802 1151,809 
		1147.3,818 1138,824.7 1128,831.3 1121,830 1118,824.7 1112.3,830.3 1099.3,827.3 	"/>
	<polyline id="XMLID_72_" class="st9" points="1148.2,916.3 1149.9,896 1164.3,881.3 1177.3,877.3 1189.7,876 1205,881.7 
		1214.2,888.7 1218,904 1218,924 1220,944 1215.3,954.3 1202.3,959.7 1195,963 1196.3,971.7 1192.3,981 1182,986.7 1173.7,990.3 
		1161.3,985 1154,977.3 1149.3,969.7 1152,950.7 1150.7,942.3 1146,938 1149.3,933.7 1157,931.3 1157.3,924.3 	"/>
	<polyline id="XMLID_73_" class="st9" points="1122.7,866 1130.7,862 1141,862.7 1145,861 1150.3,866 1156.7,864.7 1158.7,855.3 
		1152,852 1145,853 1140,845.7 1131.7,843.7 1121,846 1114.7,852.7 1113.3,860.3 1117.7,865.7 	"/>
	<polygon id="XMLID_74_" class="st9" points="1206,861 1206,849 1212,841.3 1215,827.3 1222.7,817.7 1233.7,819.3 1243,830.7 
		1247.7,842 1258,846 1255.7,853 1265.7,859.3 1272,875 1275,885.3 1267.3,888 1260.7,873.7 1249,865.3 1235,856.3 1226.3,860 
		1217.7,856.7 	"/>
	<path id="XMLID_75_" class="st9" d="M1248.7,800.7l-5.7-9l0.3-11l2.3-11.7l10-4l10,4.3l5.7,11.7l2.7,5l7-2c0,0,8.3-1.7,9.3-1
		s9.7,5.7,9.7,5.7l2.3,8.3l-4.7,11.7l-8.3,6.3l-11.3-3l-6.7-9H1260l-10,1L1248.7,800.7z"/>
	<polygon id="XMLID_77_" class="st9" points="1233.8,1009.3 1245,1012.3 1245,1018.7 1247.8,1031.3 1265,1034.7 1278.7,1033 
		1290,1025 1288.7,1010.3 1285.7,1002 1278,998.3 1265.7,998 1258.7,992 1253.7,991.3 1256,998.7 1248.3,996.7 1241.7,989 
		1242.7,980.7 1235,969.3 1227.3,970.7 1225.7,980.7 1223.3,991.3 1223,999.7 1226.3,1010.3 	"/>
	<polygon id="XMLID_76_" class="st9" points="1258.5,948.8 1268.8,948.3 1272.7,953.6 1292,948.3 1294,936.7 1293.3,918 1281,909.7 
		1269,914.2 1264,923 1257,923 1256,930 1253.3,937.7 	"/>
	<polygon id="XMLID_79_" class="st9" points="414,718 419,722.3 419,732 424.5,737.3 436.5,740.5 439.8,745.8 436,753 434.8,767.8 
		439.5,773.8 462.8,772.3 471.5,758.3 471,746 464.5,742.3 462.5,736 454,732 449.8,724.5 444.5,722 442.5,710.8 431,704.8 
		420.3,705.3 413.3,711 	"/>
	<polygon id="XMLID_78_" class="st9" points="485.1,718.4 481.6,728.8 486.3,737.3 486.8,748.3 488.5,760 479,768.3 472.3,776.3 
		470,784.3 466.3,788.3 464.8,793.8 467.5,797 481.9,795.5 492,787.8 492,775 498,762.3 498,748 505.5,739.5 504,728.3 493.3,718 	
		"/>
	<polyline id="XMLID_80_" class="st9" points="428,651.5 433,656.8 433.8,664.5 439.3,673 448.8,674.5 458,667.5 459.5,659 
		463.5,653.8 462.5,643.8 456.8,636 453.8,629.8 452.8,615.3 447.3,607.5 437.8,603.8 429,604.3 425.8,616.3 431.8,623 439.3,632.8 
		430,634.5 428.3,643.5 	"/>
	<polygon id="XMLID_82_" class="st9" points="374,445.3 388.7,440.3 402,425 406.7,410.3 401.3,402 385.3,401.7 378,408.3 
		369.3,420.3 366.7,431.7 	"/>
	<polygon id="XMLID_81_" class="st9" points="391.3,457.7 392,492 395,501 406.3,494.7 411.7,477.7 404.7,466 400,454.3 392.7,454 	
		"/>
	<polygon id="XMLID_84_" class="st9" points="290,323 306.3,344.7 320.7,348 330,344 330.3,327 322.7,321 315.7,320.7 311,309 
		305.7,302.3 301,303.3 293,311.7 	"/>
	<path id="XMLID_85_" class="st9" d="M690.8,1212l12.2-5.3c0,0,13.3-6.3,13.8-6.3s11.5-1.8,11.5-1.8l9.5,2.7l9.2-1.2l4.2-9.2
		l-1.8-7.3c0,0-1.3-8.7-1.3-9.2s-7.5-7.5-7.5-7.5l-11.2,4l-3,3.8L716,1174c0,0-4.3-5.8-5-6s-9.8,2-9.8,2l-7.7,10l-0.2,12.2l-6.5,1.3
		l-6.7,7l-0.5,7.3l8.8,5.2L690.8,1212z"/>
	<polygon id="XMLID_83_" class="st9" points="1253.8,1627.5 1265,1627.3 1270,1610.8 1277,1590.8 1272.5,1585.5 1260.5,1583.3 
		1258.5,1591.5 1253.8,1608 1246.5,1619.8 	"/>
	<polygon id="XMLID_86_" class="st9" points="1340.3,1945.5 1341.5,1951.5 1348.3,1954.5 1349,1960.8 1354.8,1963 1362.8,1956.5 
		1363.5,1950.3 1353.5,1935 1345.5,1935.8 1339.3,1942 	"/>
	<polygon id="XMLID_103_" class="st9" points="858.2,1326.5 848,1339 848,1349 860.7,1352.7 863,1347 853.3,1343.8 863,1329.3 	"/>
	<polygon id="XMLID_102_" class="st9" points="890.5,1369 874,1372.7 874,1383 890.5,1387.3 899.3,1380.8 897,1369 	"/>
	<polygon id="XMLID_105_" class="st9" points="906.7,1437.7 893,1443 893,1456 902,1463 911,1457.3 	"/>
	<polygon id="XMLID_104_" class="st9" points="988.3,1068 991.3,1076.2 1006.3,1086.6 1008.3,1100 1036.3,1115.6 1065.7,1121 
		1099,1125.7 1110.3,1117.3 1111.7,1104 1104.7,1094 1100,1083 1092,1071.3 1076.3,1068.3 1074.3,1062.3 1081.7,1048 1088.5,1043.2 
		1099,1048.7 1111.7,1055.3 1121.7,1064.7 1113.3,1076 1111.7,1084.4 1123,1091.3 1123,1100 1120.3,1107.7 1123,1112 1135.3,1107 
		1137.7,1112.3 1146,1117 1161.3,1112.3 1166,1106.3 1159.7,1097.7 1162,1087.7 1172,1087 1195.3,1091 1206.3,1096.7 1238,1106.3 
		1244.7,1111.7 1253.3,1110.7 1267.7,1112.5 1273.7,1106 1286,1106 1287.7,1096.3 1281,1089.3 1287.7,1088 1295.7,1092.7 
		1304.7,1093.3 1311.3,1079.3 1303.3,1071.7 1294,1072.3 1299.3,1066 1301.3,1050 1291.7,1047.3 1285.3,1056 1273.7,1056 1267,1063 
		1253.3,1058.7 1229,1058.3 1212.3,1061.7 1196.7,1068 1188.3,1067 1186.7,1058 1181.7,1053 1183,1030.7 1176,1024.3 1176,1013 
		1170.7,1008 1159.7,1013 1154,1004 1146,995 1149.8,988.3 1137.3,971.7 1118,974.7 1110.3,982.7 1099.7,981.3 1093.7,989 
		1083.3,990.3 1077.7,1000.3 1071,999.7 1069,994 1057.7,994.3 1046.3,983.3 1039.3,980.8 1034,972 1026,972 1018,982.7 
		1017.7,996.3 1020,1018 1011.3,1028.3 1011,1041 1004.7,1056 988.3,1056.7 987,1048.7 980.7,1046 970.7,1040 961.3,1046.3 
		957.3,1057.3 964,1061.8 979.7,1068 	"/>
	<polygon id="XMLID_107_" class="st9" points="1310.6,971.9 1308.4,980.6 1317,984.5 1317,996 1324.5,1002 1331.5,1000 1334.5,1006 
		1339,1006 1339,993 1334,984.5 1339,971.9 1329,961 1315,961 	"/>
	<polygon id="XMLID_108_" class="st9" points="1323.4,1032 1317.4,1054 1320.5,1063 1338.7,1073.5 1351,1076 1351,1067 1339,1061.5 
		1330.5,1048.5 1332,1032 	"/>
	<polygon id="XMLID_106_" class="st9" points="1180.3,593.9 1171.8,601.1 1175,615 1183,615 1185.7,606 1194,606 1194,594 
		1201,582.7 1203,572 1214.7,574.3 1234,568 1235.7,561 1229,556 1232.7,552.7 1239.7,554.7 1247,564.3 1251.7,567.3 1257.3,563.3 
		1243,549 1230.3,545.2 1217.3,537 1204,537 1197.3,546 1200,558.3 1193.7,570.7 1183,584 	"/>
	<polygon id="XMLID_109_" class="st9" points="1244.7,605.5 1261,599.4 1267.3,602.4 1271,615 1263.7,622.2 1257.8,630 1247,630 
		1243,620.3 	"/>
	<polygon id="XMLID_110_" class="st9" points="1207,633 1207,651 1214.8,660.7 1223,654 1223,642 1212.7,630 	"/>
	<polygon id="XMLID_112_" class="st9" points="1110.3,614.7 1102.7,643 1108.6,648 1116.3,644 1124,624.5 1127,614.7 1118.7,602.7 
		1102.7,590.3 1097.7,596.3 1112.3,610.7 	"/>
	<polyline id="XMLID_96_" class="st9" points="353.8,704.6 362.3,706.1 370,710 378,710 408.7,696.7 403,683.3 394,677 381.3,684.7 
		372.7,685.3 368,681.3 362.7,692 353.8,700.3 	"/>
	<polygon id="XMLID_210_" class="st9" points="773.6,480 786.5,469 812,469 824,483 824,502 799,502 780.5,495.7 	"/>
	<polygon id="XMLID_211_" class="st9" points="894,460 894,474 899.5,489 917,489 923.4,480.3 932,469.3 932,460 921.1,453.5 
		904.5,460 	"/>
	<polygon id="XMLID_209_" class="st9" points="849.8,604.8 835,619.2 835,632 817,632 812,650.5 812,666 824,669 846.5,665 
		864,653.5 874,651 876.5,661 855.5,672.5 850,678.5 862.5,683.7 881,671 887.5,653 873,639 874,619.2 	"/>
	<polygon id="XMLID_213_" class="st9" points="824,744 824,759 830,767 842,767 853,767 856,776 844.5,784 821,776 808.4,780.3 
		805,764 814.5,741 	"/>
	<polygon id="XMLID_212_" class="st9" points="856,762.6 865,749.6 876,744 894,747 894,753 875,760.3 866,769 859,769 	"/>
	<polygon id="XMLID_215_" class="st9" points="665,287 665,292 673,300 676.5,306 686.4,307.5 698,306 701,297.3 704,283 692,271.5 
		679.5,275.5 673,285.5 	"/>
	<polygon id="XMLID_214_" class="st9" points="646.9,318.4 651.4,325.2 647,327.8 649.3,335 658,335 667.3,328 668.8,320 661,314.8 
		651.3,312.8 648,315.8 	"/>
	<path id="XMLID_216_" class="st9" d="M637.8,322.3"/>
	<polygon id="XMLID_218_" class="st9" points="623.6,350.3 615.1,357.8 616.5,363.3 619.3,366.5 617.5,372.8 610.3,376.3 
		608.5,379.5 612.8,382 616,387.8 622.3,389 630.6,387 638,381 638,372 635.8,366 635,356.3 631.8,350.3 627.5,348.8 	"/>
	<polygon id="XMLID_219_" class="st9" points="1562,1452 1562,1476 1572,1488 1569.5,1508 1556.9,1510.5 1554,1491 1554,1481 
		1543.5,1481.3 1538,1471.5 1549,1461 1555,1452 	"/>
	<polygon id="XMLID_220_" class="st9" points="1577.8,1554 1568.9,1564 1564.9,1575.3 1572,1581 1589,1581 1595.5,1567.5 1591,1554 
			"/>
	<polygon id="XMLID_221_" class="st9" points="1606,1551.3 1620.5,1545 1629,1545 1629,1554 1622.5,1558 1610,1558 1606,1556 	"/>
	<polygon id="XMLID_217_" class="st9" points="1565,1202.5 1560,1211.9 1558.1,1221.6 1562.3,1230.5 1565,1238 1577,1238 
		1581.7,1230.7 1586.3,1232.7 1588.7,1238 1595,1238 1600.8,1233 1613,1233 1639.3,1238 1647,1234 1652.7,1226.3 1648,1214.3 
		1640.3,1208 1637,1197 1632,1185.7 1629,1175.3 1621.2,1183.7 1618.3,1201 1611,1203.3 1599,1199 1584.3,1197 1581,1206.7 	"/>
	<polygon id="XMLID_223_" class="st9" points="1478,1123 1478,1143 1488.7,1165 1501.3,1168.3 1509.3,1173 1520,1173 1529.3,1171.3 
		1534.3,1175.3 1536,1187.7 1529.7,1193.7 1536,1200 1536,1211 1530.3,1214.7 1521.3,1210 1520.7,1203 1513,1202 1513,1187 
		1504,1183.7 1498.7,1186.3 1494,1181.3 1495,1172.3 1487.7,1171.7 1487.3,1178.5 1469.3,1173.3 1463.3,1173.7 1459.7,1178.5 
		1448.7,1173.3 1447,1154 1452,1150.8 1464.3,1154.3 1464.7,1148 1461.3,1139.6 1471.7,1125.7 	"/>
	<polygon id="XMLID_222_" class="st9" points="1680.5,1241.8 1697.1,1245.6 1709.8,1252.6 1708,1260.3 1700.3,1272 1698.7,1292 
		1699.3,1302 1708,1317.7 1723,1331.3 1747.3,1333.7 1770.7,1287.8 1797,1203.7 1802.3,1170.3 1798.7,1154.2 1781,1137 1769,1137 
		1755.7,1148.7 1757.3,1164.7 1741.4,1186.7 1731,1173 1721.7,1177 1720,1187.7 1717.7,1209.7 1709.8,1221.7 1694,1227 1680.5,1231 
		1677.7,1239.3 	"/>
	<polygon id="XMLID_224_" class="st9" points="1613,1356.3 1618.3,1363.7 1641,1351.3 1658,1347.7 1671.3,1329.3 1679.3,1323.7 
		1673.3,1308.7 1652.7,1315.7 1631.3,1329.3 1628.7,1342.7 	"/>
	<polygon id="XMLID_225_" class="st9" points="1297.8,866 1290,870 1292.3,878.3 1300.8,882.3 1311.3,876 1310,870 1313.8,864.8 
		1308.4,857.3 1298,852.8 1291.5,857.5 1294,861.5 1298,860.5 	"/>
	<polygon id="XMLID_226_" class="st9" points="801.3,528 783,544.3 783,555 789.3,561 801.3,558 815.7,558.3 817,552 812,545.7 
		822.7,538.7 814.3,536 810,527.9 	"/>
	<polygon id="XMLID_227_" class="st9" points="704.9,831.3 728.4,842 724,856 715.3,870 703,870 698.5,863.3 695.5,847.5 
		698.8,835.5 	"/>
	<path id="XMLID_228_" class="st9" d="M646.9,845.3l-6.8-3.3l-16,1.6l-3.8,10.1l5.2,8.3l-1,8H612l-4.3,12.5l1.8,13.8
		c0,0,1.3,10.8,2,11.3S622,910,622,910l12-4.3l4.3-20.3l2.3-15.5l14.3-6.8l-3.5-12.6L646.9,845.3z"/>
	<polygon id="XMLID_229_" class="st9" points="655,845 655,852 658,856 666.8,854.8 672.5,856 680.3,854.3 681.8,843.8 676.3,836.5 
		668.4,839 661.3,842 	"/>
	<polygon id="XMLID_230_" class="st9" points="754,863 750,868.8 750,883 756.5,895.6 764.5,899 806,899 806,910 812,922 819.5,931 
		831,931 840,918.5 834.5,903 826.5,889.5 812,884.5 797.5,878.8 785.5,873.3 777.3,871.8 769.8,859.3 	"/>
	<polygon id="XMLID_232_" class="st9" points="764,907.3 750,919 747.5,927.5 753.8,934.8 764,942.5 769.3,951.8 770.8,965.5 
		775.3,971 785.8,969.5 797,964.5 798.8,956.8 790.3,950.5 784.8,952.5 779.3,941.8 775,931 776.8,915.5 770.3,904.5 	"/>
	<polygon id="XMLID_233_" class="st9" points="657.3,914.6 662.1,916.3 668.1,912.8 673,904.5 673,894 668.4,888.3 670.8,880.5 
		666.3,873.5 663.3,867 650.3,870 644.8,879.3 648,888.8 648.5,899.8 647.5,904.5 654.8,909 	"/>
	<polygon id="XMLID_231_" class="st9" points="625.8,922.3 644.3,926.5 648,935 648,949 641.5,954.3 633.8,950.5 624,943.8 624,931 
			"/>
	<polygon id="XMLID_235_" class="st9" points="658.9,947.8 674.5,940.8 683.3,942 689.5,945.8 697,947.8 700.5,954.3 695.5,964 
		688.8,971 675.5,969.8 670.5,963 668.4,968.5 660.5,969 657,958.5 	"/>
	<polygon id="XMLID_236_" class="st9" points="714.9,940.8 707.9,949.5 710,957.3 715,965.3 725.3,971 736,971 744.8,965.5 
		742,955.9 734.5,947.8 725,940.8 716,936 	"/>
	<polygon id="XMLID_234_" class="st9" points="686,904.9 693.3,910.2 700.4,916.7 704.8,925 710,925 720.3,918.3 729.8,914.9 
		738.3,908.3 737,898.5 731,890.5 720.8,881.4 712.2,878 698,878 691.3,876 686,867.8 680.3,863.8 674.5,862.3 670.3,864 673,871 
		681.8,874.5 684,881.8 682.8,893.6 	"/>
	<polygon id="XMLID_237_" class="st9" points="456.9,893.8 460.6,907.1 468.3,913.7 458.3,922.3 453.3,936 450,949 459.2,953.5 
		464.7,955.9 459.2,971 471.5,975.3 507,977.3 525,971 521,958.3 491.3,959.7 478.7,955.9 477,950 475,929 476.3,912.7 485,907.7 
		485,894 477.3,883 462,883 	"/>
	<polygon id="XMLID_238_" class="st9" points="547.5,946.5 543.8,957.6 553.7,961.6 552,968.8 557.3,975 568,975 573.3,958 
		563.3,948.7 	"/>
	<polygon id="XMLID_239_" class="st9" points="579.8,767.3 573.4,776.2 578.3,782 592,782 592,770 584.3,765.7 	"/>
	<polygon id="XMLID_242_" class="st9" points="658.5,1415.5 661,1428 665.8,1437.8 655,1446 660.4,1452.5 678.8,1449.8 681,1441.8 
		668,1424 664,1413.3 	"/>
	<polygon id="XMLID_241_" class="st9" points="773.6,1516.5 775.4,1524 773.7,1530.8 769.2,1534 772.2,1536.5 783,1532.8 783,1524 
		777.5,1513.5 	"/>
	<polygon id="XMLID_244_" class="st9" points="824,1517 820,1521.9 826.3,1524.9 837,1523.3 834.8,1517 	"/>
	<polygon id="XMLID_245_" class="st9" points="1346,1593.6 1355,1598.5 1372,1596 1383,1596 1384.3,1602.3 1377.3,1605.4 
		1365.5,1601.7 1353.9,1604 1346,1599.5 	"/>
	<polygon id="XMLID_243_" class="st9" points="1399.8,1588.2 1414.3,1583.3 1419.7,1574 1428,1574 1426.7,1579 1418.3,1585.8 
		1407.3,1592 1398,1592 	"/>
	<polygon id="XMLID_247_" class="st9" points="1461.3,1801.1 1457.5,1810.1 1453,1818.2 1465.3,1824 1476,1824 1481.3,1812.6 
		1472.3,1807 	"/>
	<path id="XMLID_246_" class="st9" d="M1515.8,1377.3c-0.8-0.3-7.8-2.5-7.8-2.5l-8.3,5.5l-1.8,11.3l5,6.5l19.3,2
		c0,0,5.3-6.8,5.5-7.5s4-9.5,4-9.5L1515.8,1377.3z"/>
	<polygon id="XMLID_249_" class="st9" points="1572.3,1415.3 1568,1422 1568,1432 1583,1433.8 1592.3,1429.3 1591.3,1415.3 
		1580.1,1412.8 	"/>
	<polygon id="XMLID_248_" class="st9" points="1098,1143 1093,1148.8 1091.3,1154.1 1098,1164 1109.7,1166.4 1121.7,1161 
		1126.3,1154.5 1113.7,1151 1107.3,1150.2 1103.3,1143 	"/>
	<polygon id="XMLID_251_" class="st9" points="1322.5,1439 1319.1,1446.5 1324.4,1453.6 1335.7,1451.6 1342.7,1455.3 1346,1452.5 
		1343.3,1447 1336,1447 1332.5,1439 	"/>
	<polygon id="XMLID_250_" class="st9" points="1252.7,1375 1248.3,1381.8 1252.7,1387 1267,1387 1269.7,1381 1259,1375 	"/>
	<polygon id="XMLID_253_" class="st9" points="1156.5,1433.5 1142,1443.4 1151.1,1455.4 1167,1448.7 1167,1435 	"/>
	<polygon id="XMLID_254_" class="st9" points="1262.1,1513.7 1252,1520.3 1252,1528 1259,1536.3 1269.7,1538.7 1274.3,1533.3 
		1268.3,1518.3 	"/>
	<polygon id="XMLID_268_" class="st9" points="1538.2,1086.3 1546,1100 1562,1100 1572.8,1095 1586,1086.2 1586,1081 1568,1086 
		1548.7,1086.2 	"/>
	<polygon id="XMLID_270_" class="st9" points="1613,1073.2 1616,1083.7 1621.2,1090.5 1631.5,1086 1626.5,1071 1622.3,1066 	"/>
	<polygon id="XMLID_272_" class="st9" points="1329.2,917.2 1322.4,924.3 1329,928 1345,928 1340.3,909.7 1326.3,904.7 1325,909.7 	
		"/>
	<path id="XMLID_285_" class="st9" d="M625.3,344c0,0,6.3,1.8,6.3,1.3s4.4-11.9,4.4-11.9l8.2-8.8l-4.5-3.8l-9.9,10.1L625.3,344z"/>
	<polygon id="XMLID_1_" class="st9" points="1538.2,1020.3 1549.7,1027.3 1562.1,1030.7 1569,1022.3 1578.7,1013 1577.3,1003.7 
		1571.3,998.7 1571,992.3 1562.3,987.3 1553.9,999.3 1545.3,1003.7 1542.7,1014.7 	"/>
	<polygon id="XMLID_303_" class="st9" points="1660,989 1660,1002 1667.7,1012 1683.3,1009 1697,1007.7 1692,998.3 1682,995.3 
		1677.7,989 1671,982 	"/>
	<polygon id="XMLID_305_" class="st9" points="1696.8,997 1703.6,1006.3 1715.3,1009 1723,1009 1717.5,1000 1711.3,993 1700.7,995 	
		"/>
	<polygon id="XMLID_287_" class="st9" points="1600.8,980 1603.7,984.3 1618.7,980 1628,971.7 1619.7,964.8 1609.7,968.3 	"/>
	<polygon id="XMLID_307_" class="st9" points="142.5,1937 140.8,1948.6 153,1956.1 164.3,1954 167.5,1948.3 161.8,1944.3 
		155.5,1949 149.3,1945.1 148.3,1937 	"/>
	<polygon id="XMLID_308_" class="st9" points="146.1,1927.4 148.3,1932.9 154.2,1930.2 158,1933 158,1937 166.4,1938.5 170,1937 
		170,1930 165,1926 165.3,1918.8 159.3,1915.3 154.1,1917.8 147.5,1925.3 	"/>
</g>
<g id="Minefield">
	<polyline id="XMLID_286_" class="st10" points="522.5,1954 366,1968 113,1947.5 29,1940.3 51,1775.5 50,1729 54,1630.3 69.2,1569 
		118.4,1343 144.2,1236.3 113,1177 113,1100 180.5,936.3 214.7,693.5 201.3,517 196.7,401.7 276,289.7 342.7,235 494,144.3 578,117 
		695.5,130 718.5,151 744.5,161.5 	"/>
	<polyline id="XMLID_266_" class="st10" points="1784.2,1140.1 1800.1,1115.7 1793.8,1054.3 1808.2,1020.3 1832.7,1006.3 	"/>
	<polygon id="XMLID_259_" class="st10" points="319,681 333,734.8 359,752 363,735 357,677 363,627.2 336.2,623.2 322,642 	"/>
</g>
<g id="Power_Line">
	<polyline id="XMLID_208_" class="st11" points="11.6,1355.3 43.6,1308 139.2,1133 293.3,979 454.5,821.8 676.5,797.3 880.5,772 
		1076,675 1278,555 1434.9,470.3 	"/>
</g>
<g id="Wall">
	<polyline id="XMLID_261_" class="st12" points="217,1404 198,1469 173.7,1529.8 148.9,1573.7 	"/>
	<polyline id="XMLID_260_" class="st12" points="997.6,1998.1 1061.5,2057.8 1099.3,2064.4 1209,2011 1271,1982 1447.3,1949 
		1510.3,1935 1668.5,1882 1648.5,1820 1648.5,1746 1660.8,1702 1655.5,1628.2 1661.9,1613 1656.3,1602.3 1646.4,1599.5 1631.5,1554 
		1631.5,1543 1646.4,1525.3 1642.8,1452 1650.9,1423.3 1649.5,1402 1621.7,1376.3 1610.7,1358.3 	"/>
	<line id="XMLID_263_" class="st12" x1="1592.3" y1="1349.7" x2="1580.1" y2="1343.7"/>
	<line id="XMLID_264_" class="st12" x1="1586.2" y1="1336.2" x2="1568" y2="1329.3"/>
	<line id="XMLID_265_" class="st12" x1="1568" y1="1338.7" x2="1548.7" y2="1329.3"/>
	<line id="XMLID_267_" class="st12" x1="1799.3" y1="1020.3" x2="1830.3" y2="1003.7"/>
	<line id="XMLID_269_" class="st12" x1="1673.3" y1="1308.7" x2="1698.7" y2="1292"/>
	<polyline id="XMLID_271_" class="st13" points="1088.7,1790.7 1100.9,1813.7 1123.8,1818 	"/>
	<polyline id="XMLID_274_" class="st13" points="1106.8,1763.2 1117,1759.2 1117,1738 1110.3,1724.2 1120.3,1716 1130,1716 	"/>
	<polyline id="XMLID_273_" class="st13" points="1141.3,1716.4 1167,1716 1167,1755 	"/>
	<polyline id="XMLID_275_" class="st13" points="1129.8,1810.8 1132.8,1801.4 1141,1794.3 1141,1780 1159,1774.7 	"/>
</g>
<g id="Pier">
	<rect id="XMLID_288_" x="806" y="1546" class="st14" width="9.3" height="20.8"/>
	<rect id="XMLID_289_" x="810.7" y="1538.5" class="st14" width="4.7" height="7.5"/>
	<rect id="XMLID_291_" x="658.1" y="473.5" class="st14" width="5.2" height="27.8"/>
	<rect id="XMLID_292_" x="663.3" y="496.2" class="st14" width="5.5" height="5.2"/>
	
		<rect id="XMLID_293_" x="877.4" y="382.4" transform="matrix(0.7085 -0.7057 0.7057 0.7085 -12.8971 737.9139)" class="st14" width="18.7" height="4.3"/>
	
		<rect id="XMLID_290_" x="565" y="1736.1" transform="matrix(0.9816 0.1909 -0.1909 0.9816 342.3552 -78.1021)" class="st14" width="23.1" height="3.9"/>
</g>
</svg>
